<svg width="334" height="257" viewBox="0 0 334 257" fill="none" xmlns="http://www.w3.org/2000/svg">
<ellipse cx="166.908" cy="246.568" rx="166.908" ry="10.4317" fill="black"/>
<path d="M261.142 234.826C262.909 234.707 264.54 234.095 265.984 233.144C267.377 235.624 266.12 238.903 263.164 239.175C249.521 240.432 233.465 238.495 219.651 238.818C170.6 239.803 121.379 237.544 72.3446 238.818C71.4271 238.835 68.5897 239.582 68.148 238.971C67.6043 238.257 67.8082 233.144 68.3519 233.127C71.699 235.318 75.5558 234.894 79.4126 234.826C139.83 233.806 200.622 235.556 261.142 234.826Z" fill="white"/>
<path d="M264.999 117.503C265.882 132.283 264.693 147.572 264.642 162.335C264.557 184.318 264.71 206.317 264.659 228.3C264.676 230.865 263.13 231.613 260.819 231.817C205.023 232.037 149.226 231.46 93.4297 231.783C87.4661 231.817 81.3326 232.139 75.3859 232.156C73.1262 232.173 68.8446 230.848 68.5048 228.3C68.3519 195.156 68.7597 162.012 68.5388 128.868C68.5048 123.738 67.5533 118.505 69.0145 113.324C70.1189 109.417 72.5145 109.213 76.1505 108.737C134.954 109.96 193.996 107.599 252.749 109.332C254.788 109.383 261.907 108.907 263.113 109.672C264.387 110.504 264.914 115.923 264.999 117.503Z" fill="white"/>
<path d="M197.881 101.621C198.595 101.672 199.342 105.545 199.376 106.31H192.359L197.881 101.621Z" fill="#231F20"/>
<path d="M171.617 99.4282C174.811 102.418 170.784 105.527 167.726 105.935C165.466 106.24 154.1 106.308 152.18 105.816C151.449 105.629 149.546 104.525 149.036 103.93C145.316 99.717 153.42 97.0499 156.461 96.6931C160.556 96.2005 168.44 96.4383 171.617 99.4282Z" fill="#F36869"/>
<path d="M267.008 231.139C270.83 231.173 272.343 230.086 272.682 226.281C273.022 222.526 273.141 217.515 268.01 218.755V183.844C272.58 180.633 273.09 174.229 275.316 169.336C277.898 163.594 281.636 159.262 286.92 155.848C286.19 157.292 285 158.396 284.236 159.84C278.663 170.322 281.925 187.038 282.384 198.505C282.758 207.475 280.022 216.139 279.088 224.99C278.527 230.341 278.459 235.25 281.381 240.007L268.384 235.114L268.656 232.668C268.435 231.989 266.77 232.227 267.008 231.139Z" fill="#EEEEEE"/>
<path d="M220.976 15.2869C225.75 11.3456 232.767 11.0398 237.422 15.3888C237.66 15.6266 239.444 17.7162 239.206 17.954C233.956 13.622 227.194 16.7139 223.32 21.3007L219.141 17.1046L220.976 15.2869Z" fill="#EEEEEE"/>
<path d="M233.355 98.5962C233.899 98.5282 234.018 99.0209 234.256 99.3777C235.581 101.382 236.227 104.015 236.872 106.309H228.836L233.355 98.5962Z" fill="#EEEEEE"/>
<path d="M175.626 102.114C175.83 95.7942 164.361 93.2969 159.553 93.9254C159.825 92.2606 159.281 90.6298 159.196 89.0838C157.973 63.9074 159.196 33.1587 171.09 10.5815C171.633 9.56216 174.674 3.95608 175.116 3.56536C176.374 2.41016 186.211 3.9221 188.403 4.32982C190.832 4.80549 197.187 6.23249 199.141 7.31973C199.871 7.71046 199.871 8.32203 200.296 8.59384C201.689 9.5112 204.102 10.1568 205.75 11.0911C239.799 30.1179 249.823 75.0516 225.34 105.987L202.063 106.31C202.165 103.796 200.976 98.937 197.883 98.92C195.59 98.92 190.425 105.019 188.165 106.31H173.604C174.165 104.764 175.575 103.931 175.626 102.114Z" fill="#EEEEEE"/>
<path d="M49.6094 157.852C53.772 160.909 56.5585 164.885 58.6313 169.556C60.7381 174.33 61.3158 180.106 65.3255 183.623L65.6483 230.476L66.4978 231.631C64.3231 232.549 66.0221 233.84 64.8158 235.301L53.789 239.497C54.3837 236.915 55.0123 234.315 55.1482 231.648C55.556 223.46 53.2113 215.611 52.7696 207.542C52.2769 198.725 53.5511 189.908 53.806 181.108C54.0439 173.022 53.9419 164.953 49.6094 157.852Z" fill="#ACACAC"/>
<path d="M119.214 102.623L121.389 105.97L117.039 105.8L119.214 102.623Z" fill="#ACACAC"/>
<path d="M146.806 5.09429C147.129 5.31514 148.505 6.3514 147.826 6.72514L140.588 10.5135C135.78 8.1012 131.039 8.27109 126.078 10.0888C128.151 6.23251 131.957 3.24258 136.374 2.64799C139.925 2.15533 143.867 3.00475 146.806 5.09429Z" fill="#ACACAC"/>
<path d="M172.942 3.39435C167.216 11.5657 163.41 20.2976 161.049 29.9978C156.105 50.4346 156.427 71.2621 156.852 92.0896C156.852 92.6672 157.073 93.1768 157.175 93.7205C157.005 94.366 154.1 94.5529 153.267 94.8247C148.153 96.4386 142.767 100.414 147.168 105.969H125.25C112.405 90.17 108.379 68.0004 114.274 48.481C120.017 29.4712 135.002 13.6382 153.692 6.89391C159.707 4.73641 166.554 3.20748 172.942 3.39435Z" fill="#ACACAC"/>
<path d="M42.7458 157.494L25.0078 157.664C30.1899 154.232 38.0564 152.228 42.7458 157.494Z" fill="#595959"/>
<path d="M44.3457 158.922L47.0981 165.208L17.9766 164.868C18.945 163.356 20.712 160.01 22.564 159.585C25.6392 158.888 32.3165 159.653 35.9014 159.534C37.2097 159.483 43.802 158.6 44.3457 158.922Z" fill="#595959"/>
<path d="M47.4479 167.026L48.4334 173.227L14.9453 172.055C15.2681 170.781 16.5764 166.432 17.7997 166.211C27.6711 167.094 37.5765 166.738 47.4479 167.026Z" fill="#595959"/>
<path d="M48.4344 174.908V180.599L13.2812 179.257L14.5046 173.549L48.4344 174.908Z" fill="#595959"/>
<path d="M48.4367 182.263L48.0969 189.976C36.7133 188.957 25.2618 188.175 13.8103 188.311C13.2326 188.209 13.1646 181.941 13.2836 181.091C13.3345 180.785 13.4195 180.412 13.7763 180.344L48.4367 182.263Z" fill="#595959"/>
<path d="M13.6227 189.808C13.5717 189.077 13.8775 189.247 14.4552 189.298C25.6349 190.419 36.8316 191.676 48.0962 191.642V198.336L15.1688 198.692C14.7271 198.573 13.6737 190.776 13.6227 189.808Z" fill="#595959"/>
<path d="M48.2674 208.034H17.192L15.2891 199.846L48.0975 199.999V207.202C48.0975 207.304 48.7602 207.881 48.2674 208.034Z" fill="#595959"/>
<path d="M48.4403 209.377L49.2729 218.075L19.7945 217.65L17.2969 209.547C17.2799 208.935 21.2727 209.7 21.8164 209.734C30.7194 210.04 39.5883 210.04 48.4403 209.377Z" fill="#595959"/>
<path d="M49.3869 220.13L50.1005 226.45L36.899 225.753C32.6514 225.107 26.8237 226.874 22.8309 226.11C22.3212 226.025 22.2873 225.957 22.0494 225.549C21.1149 224.003 20.7581 220.538 19.9766 218.754L40.8917 220.436L49.3869 220.13Z" fill="#595959"/>
<path d="M50.1036 228.114L49.7468 234.79C42.1011 235.334 34.3365 235.945 26.6738 235.656L22.6641 227.281C31.8049 227.332 40.9967 228.827 50.1036 228.114Z" fill="#595959"/>
<path d="M49.4366 236.15C48.8759 239.174 46.2764 241.655 43.4899 242.759C36.6258 245.511 31.9195 242.385 27.6719 237.153C31.1889 237.509 34.7059 237.917 38.2399 237.832C40.6356 237.781 44.1356 237.475 46.4972 237.068C47.4997 236.881 48.5021 236.558 49.4366 236.15Z" fill="#595959"/>
<path d="M291.094 157.495C295.885 152.161 303.429 154.369 308.832 157.512H291.094V157.495Z" fill="#595959"/>
<path d="M315.865 164.867L286.727 165.037L289.479 158.922L289.921 158.803C292.503 158.973 295.375 159.448 297.94 159.533C301.525 159.652 308.202 158.888 311.278 159.584C313.113 160.009 314.88 163.356 315.865 164.867Z" fill="#595959"/>
<path d="M316.703 166.533C317.212 166.991 319.234 172.19 318.877 172.563L285.406 173.056L286.12 167.433L286.63 166.923C293.188 166.651 299.78 167.11 306.338 166.889C308.649 166.804 311.351 166.312 313.678 166.193C314.528 166.142 316.108 166.006 316.703 166.533Z" fill="#595959"/>
<path d="M319.336 173.549L320.542 179.257L285.406 180.599V174.908L319.336 173.549Z" fill="#595959"/>
<path d="M320.203 188.277C308.7 188.209 297.198 188.923 285.746 189.976L285.406 182.263L320.067 180.344C320.576 180.531 320.525 180.972 320.559 181.414C320.644 182.331 320.559 187.937 320.203 188.277Z" fill="#595959"/>
<path d="M319.383 189.298C319.961 189.247 320.267 189.077 320.216 189.808C320.165 190.776 319.094 198.573 318.67 198.692L285.742 198.336V191.642C296.99 191.676 308.203 190.419 319.383 189.298Z" fill="#595959"/>
<path d="M318.526 199.846L316.64 208.051H285.565C285.055 207.881 285.734 207.304 285.734 207.202V199.999L318.526 199.846Z" fill="#595959"/>
<path d="M316.527 209.377L314.03 217.65L284.398 218.075L285.401 209.377C295.748 210.158 306.146 210.056 316.527 209.377Z" fill="#595959"/>
<path d="M313.851 218.754L311.302 226.059L296.945 225.753L283.727 226.45C284.083 225.379 283.829 220.249 284.627 220.062C294.363 221.132 304.132 219.23 313.851 218.754Z" fill="#595959"/>
<path d="M311.183 227.113C310.826 228.608 308.057 235.42 306.935 235.743L284.083 234.792L283.727 228.116C292.85 228.71 302.042 227.555 311.183 227.113Z" fill="#595959"/>
<path d="M295.935 237.832C299.35 237.9 302.765 237.492 306.146 237.153C301.916 242.385 297.209 245.511 290.328 242.759C287.559 241.655 284.959 239.174 284.398 236.15C285.418 236.609 286.522 236.915 287.627 237.102C289.954 237.509 293.556 237.798 295.935 237.832Z" fill="#595959"/>
<path d="M43.4921 242.758C46.2785 241.654 48.8781 239.174 49.4388 236.15C48.5043 236.557 47.5019 236.88 46.4994 237.067C44.1378 237.475 40.6377 237.78 38.2421 237.831C34.7081 237.916 31.1911 237.509 27.6741 237.152C31.9217 242.384 36.628 245.51 43.4921 242.758ZM236.877 106.309C236.231 104.016 235.586 101.382 234.26 99.3778C234.022 99.0211 233.904 98.5284 233.36 98.5963L228.84 106.309H236.877ZM47.4509 167.025C37.5795 166.736 27.6741 167.093 17.8026 166.209C16.5793 166.43 15.2711 170.779 14.9483 172.053L48.4363 173.225L47.4509 167.025ZM17.191 208.051H48.2664C48.7591 207.881 48.0965 207.304 48.0965 207.202V199.999L15.2881 199.846L17.191 208.051ZM35.8974 159.533C32.3124 159.652 25.6352 158.887 22.5599 159.584C20.708 160.009 18.941 163.355 17.9725 164.867L47.0941 165.207L44.3416 158.921C43.7979 158.599 37.2057 159.482 35.8974 159.533ZM25.0066 157.664L42.7445 157.494C38.0552 152.228 30.1886 154.233 25.0066 157.664ZM49.2689 218.074L48.4363 209.376C39.5843 210.039 30.7153 210.039 21.8124 209.733C21.2687 209.699 17.2759 208.935 17.2929 209.546L19.7905 217.649L49.2689 218.074ZM50.1014 226.449L49.3878 220.13L40.8926 220.436L19.9774 218.754C20.759 220.537 21.1158 224.003 22.0502 225.549C22.2881 225.957 22.3221 226.025 22.8318 226.11C26.8245 226.874 32.6522 225.107 36.8998 225.753L50.1014 226.449ZM49.7446 234.791L50.1014 228.114C40.9945 228.828 31.8027 227.333 22.6619 227.282L26.6716 235.657C34.3343 235.946 42.0989 235.334 49.7446 234.791ZM64.8151 235.3C66.0214 233.839 64.3223 232.548 66.4971 231.631L65.6476 230.476L65.3248 183.622C61.3151 180.106 60.7374 174.33 58.6306 169.556C56.5577 164.884 53.7713 160.909 49.6087 157.851C53.9412 164.952 54.0432 173.022 53.8053 181.108C53.5504 189.908 52.2762 198.725 52.7689 207.542C53.2106 215.611 55.5553 223.459 55.1475 231.648C55.0116 234.315 54.383 236.914 53.7883 239.496L64.8151 235.3ZM13.2832 179.256L48.4363 180.598V174.907L14.5065 173.548L13.2832 179.256ZM13.8099 188.311C25.2614 188.175 36.7129 188.956 48.0965 189.976L48.4363 182.263L13.7759 180.343C13.4191 180.411 13.3342 180.785 13.2832 181.091C13.1643 181.94 13.2322 188.209 13.8099 188.311ZM15.1691 198.691L48.0965 198.334V191.641C36.8319 191.675 25.6352 190.417 14.4555 189.296C13.8779 189.245 13.572 189.075 13.623 189.806C13.674 190.774 14.7274 198.572 15.1691 198.691ZM269.617 227.723C269.838 225.498 270.382 223.358 269.634 221.132L268.003 221.081V228.114L269.617 227.723ZM281.375 240.006C278.452 235.249 278.52 230.34 279.081 224.988C280.015 216.138 282.751 207.474 282.377 198.504C281.918 187.037 278.656 170.32 284.229 159.839C284.994 158.395 286.183 157.29 286.914 155.846C281.63 159.261 277.892 163.593 275.309 169.335C273.083 174.228 272.574 180.632 267.986 183.843V218.754C273.134 217.514 273.015 222.525 272.676 226.28C272.336 230.085 270.824 231.172 267.001 231.138C266.763 232.225 268.428 231.987 268.649 232.667L268.377 235.113L281.375 240.006ZM285.741 199.999V207.202C285.741 207.304 285.062 207.881 285.571 208.034H316.647L318.533 199.846L285.741 199.999ZM316.528 209.376C306.147 210.056 295.749 210.158 285.401 209.376L284.399 218.074L314.03 217.649L316.528 209.376ZM306.147 237.152C302.766 237.492 299.351 237.899 295.935 237.831C293.557 237.797 289.955 237.509 287.627 237.101C286.523 236.914 285.418 236.608 284.399 236.15C284.96 239.174 287.559 241.654 290.329 242.758C297.21 245.51 301.916 242.384 306.147 237.152ZM291.093 157.494H308.831C303.428 154.369 295.885 152.16 291.093 157.494ZM316.698 166.532C316.103 166.005 314.523 166.141 313.673 166.192C311.346 166.311 308.644 166.804 306.334 166.889C299.775 167.11 293.183 166.651 286.625 166.923L286.115 167.432L285.401 173.056L318.872 172.563C319.229 172.189 317.207 166.991 316.698 166.532ZM311.278 159.584C308.203 158.887 301.525 159.652 297.94 159.533C295.375 159.448 292.503 158.972 289.921 158.802L289.479 158.921L286.727 165.037L315.865 164.867C314.88 163.355 313.113 160.009 311.278 159.584ZM296.938 225.753L311.295 226.059L313.843 218.754C304.125 219.229 294.355 221.132 284.62 220.062C283.821 220.249 284.076 225.379 283.719 226.449L296.938 225.753ZM306.928 235.742C308.05 235.419 310.819 228.607 311.176 227.112C302.035 227.554 292.843 228.709 283.719 228.114L284.076 234.791L306.928 235.742ZM121.393 105.969L119.218 102.623L117.044 105.799L121.393 105.969ZM285.401 180.598L320.538 179.256L319.331 173.548L285.401 174.907V180.598ZM320.215 189.806C320.266 189.075 319.96 189.245 319.382 189.296C308.203 190.417 296.989 191.675 285.741 191.641V198.334L318.669 198.691C319.093 198.572 320.164 190.774 320.215 189.806ZM320.198 188.277C320.555 187.937 320.64 182.331 320.555 181.414C320.521 180.972 320.572 180.53 320.062 180.343L285.401 182.263L285.741 189.976C297.193 188.922 308.695 188.209 320.198 188.277ZM199.379 106.309C199.345 105.545 198.597 101.671 197.884 101.62L192.362 106.309H199.379ZM239.205 17.9535C239.442 17.7156 237.658 15.6261 237.421 15.3883C232.765 11.0393 225.748 11.3451 220.974 15.2863L219.139 17.1041L223.318 21.3001C227.192 16.7133 233.954 13.6215 239.205 17.9535ZM263.161 239.174C266.117 238.902 267.375 235.623 265.981 233.143C264.537 234.094 262.906 234.706 261.139 234.825C200.619 235.555 139.828 233.805 79.4098 234.825C75.553 234.893 71.6962 235.317 68.3491 233.126C67.8054 233.143 67.6015 238.256 68.1452 238.97C68.5869 239.581 71.4243 238.834 72.3418 238.817C121.376 237.543 170.597 239.802 219.649 238.817C233.462 238.494 249.518 240.431 263.161 239.174ZM140.592 10.5127L147.83 6.72429C148.51 6.35055 147.134 5.31429 146.811 5.09344C143.871 3.0039 139.93 2.15448 136.379 2.64714C131.961 3.24173 128.155 6.23165 126.082 10.088C131.044 8.27023 135.784 8.10035 140.592 10.5127ZM150.668 5.56911C164.022 0.234821 178.549 -0.563636 192.43 3.32666C197.391 4.71969 203.066 6.52044 207.517 8.98372C210.712 10.7505 213.617 12.942 216.641 14.9636C217.678 15.0655 218.918 13.1458 219.835 12.4663C224.78 8.7289 230.743 8.11732 236.316 10.9713C247.819 16.8492 244.743 32.2236 235.62 38.8659C238.202 44.0643 239.884 49.6364 240.785 55.3784C242.399 65.6563 241.668 76.2739 238.627 86.144C237.658 89.3038 236.299 92.3107 235.178 95.4196C237.539 98.6643 239.782 102.096 239.544 106.309H262.787C267.018 107.073 267.154 111.371 267.68 114.82L267.816 179.256L268.326 179.596C271.452 170.422 273.729 162.795 281.375 156.322C293.387 146.18 312.909 151.616 319.603 165.309C325.822 178.05 323.307 192.694 320.385 206.03C318.38 215.135 313.86 232.531 307.999 239.496C301.44 247.294 295.901 247.566 286.455 244.966C280.406 243.302 274.545 240.023 268.496 238.154C268.037 240.04 266.389 241.756 264.401 242.095C261.258 242.622 255.515 242.231 252.083 242.197C211.765 241.705 171.277 241.722 130.959 241.484C111.131 241.365 90.3177 242.367 70.6768 241.178C69.8442 241.127 67.3466 240.94 66.735 240.77C65.8855 240.533 65.0869 239.038 65.1719 238.154C61.8927 239.598 58.4437 240.651 55.1305 242.011C53.6354 242.639 49.8295 244.916 48.8441 245.119C47.9266 245.306 46.4994 245.017 45.2931 245.221C43.73 245.493 42.2178 246.309 40.5188 246.478C26.077 247.956 20.5721 230.866 17.208 220.011C11.2273 200.695 2.83409 167.381 24.1061 154.776C31.8367 150.189 43.0504 149.578 50.5431 154.895C59.7689 161.436 60.7374 167.602 64.5772 177.337C64.7641 177.778 64.985 178.849 65.4947 178.916V115.5C65.9025 111.558 67.9413 107.328 72.1719 106.445C74.2108 106.02 79.019 106.02 81.3807 105.952C92.3905 105.612 103.468 106.224 114.478 105.986C115.056 104.967 115.565 103.948 116.245 102.979C116.942 101.977 118.25 101.637 117.91 100.278C117.434 98.3245 114.937 94.9779 114.019 92.7694C113.153 90.6629 112.133 87.4351 111.522 85.2097C105.83 64.5351 110.111 42.5524 123.364 25.7511C120.493 19.4485 120.663 12.2285 124.944 6.60539C130.381 -0.563622 141.646 -2.38135 148.663 3.56452C149.342 4.14211 150.073 5.55212 150.668 5.56911ZM252.746 109.333C193.993 107.6 134.951 109.961 76.1477 108.738C72.5117 109.214 70.1161 109.418 69.0117 113.325C67.5505 118.506 68.502 123.739 68.536 128.869C68.7568 162.013 68.3491 195.157 68.502 228.301C68.8418 230.849 73.1234 232.174 75.3831 232.157C81.3297 232.14 87.4633 231.818 93.4269 231.784C149.223 231.461 205.02 232.038 260.816 231.818C263.127 231.614 264.673 230.866 264.656 228.301C264.707 206.318 264.554 184.319 264.639 162.336C264.69 147.573 265.879 132.284 264.996 117.504C264.911 115.924 264.384 110.505 263.11 109.673C261.904 108.908 254.785 109.384 252.746 109.333ZM157.175 93.7207C157.073 93.1771 156.869 92.6675 156.852 92.0899C156.427 71.2624 156.104 50.4349 161.049 29.9981C163.41 20.2979 167.216 11.5659 172.942 3.39462C166.554 3.20775 159.706 4.73668 153.692 6.89418C135.002 13.6385 120.017 29.4715 114.274 48.4812C108.378 68.0006 112.405 90.1702 125.25 105.969H147.168C142.767 100.414 148.153 96.4388 153.267 94.825C154.1 94.5532 157.005 94.3663 157.175 93.7207ZM171.617 99.4288C168.44 96.4389 160.556 96.201 156.461 96.6937C153.42 97.0504 145.316 99.7176 149.036 103.931C149.546 104.525 151.449 105.629 152.18 105.816C154.1 106.309 165.466 106.241 167.726 105.935C170.784 105.528 174.811 102.419 171.617 99.4288ZM159.554 93.9246C164.362 93.296 175.83 95.7933 175.626 102.113C175.575 103.931 174.165 104.763 173.605 106.309H188.165C190.425 105.018 195.59 98.9191 197.884 98.9191C200.976 98.9361 202.165 103.795 202.064 106.309L225.34 105.986C249.824 75.0507 239.799 30.117 205.75 11.0903C204.102 10.1559 201.69 9.51036 200.297 8.593C199.872 8.32119 199.872 7.70962 199.141 7.31889C197.187 6.23164 190.833 4.80465 188.403 4.32898C186.211 3.92126 176.374 2.40932 175.117 3.56452C174.675 3.95524 171.634 9.56132 171.09 10.5806C159.214 33.1579 157.973 63.9065 159.197 89.083C159.282 90.6289 159.825 92.2598 159.554 93.9246Z" fill="black"/>
<path d="M198.855 76.2491C198.651 78.9946 197.97 81.6714 196.847 84.1767L199.196 84.6915L198.872 85.8755C193.648 85.9098 188.22 85.0347 183.115 86.3731C182.859 84.9317 184.663 84.4684 185.786 84.3483C185.208 82.5294 184.425 80.762 184 78.8916C182.502 72.2681 182.111 55.9667 188.356 51.6254C196.507 45.98 199.23 60.2566 198.685 65.7647C197.256 67.7552 193.427 71.4273 192.661 73.5551C191.589 76.5236 197.171 75.597 198.838 76.2491H198.855Z" fill="black"/>
<path d="M166.365 20.8628C163.831 23.4144 161.261 16.6224 165.539 17.3383C167.117 17.5953 167.209 20.0184 166.365 20.8628Z" fill="black"/>
<path d="M157.997 51.3918C161.522 50.1803 161.339 55.8342 158.107 54.8062C156.418 54.2555 156.914 51.7773 157.997 51.3918Z" fill="black"/>
<path d="M162.368 37.1457C160.514 38.9997 157.724 35.4201 160.275 34.1535C162.479 33.0705 163.617 35.8791 162.368 37.1457Z" fill="black"/>
<path d="M170.665 0.413726C171.106 0.285229 171.547 0.266864 171.987 0.377005C173.272 0.817567 172.538 3.86479 170.959 3.93822C168.738 3.86479 168.848 0.927697 170.665 0.395351V0.413726Z" fill="black"/>
<path d="M157.281 81.037C159.006 80.5597 160.494 83.2398 158.823 84.0658C156.399 85.2774 155.39 81.5693 157.281 81.037Z" fill="black"/>
<path d="M157.654 66.2032C159.784 65.6158 160.28 68.8833 158.591 69.3606C156.461 69.948 155.965 66.6805 157.654 66.2032Z" fill="black"/>
<path d="M146.075 77.1113C145.863 79.5569 145.39 82.0537 144.445 84.2941C144.216 84.8413 143.629 85.4057 143.515 85.6793C143.205 86.5344 144.901 85.9359 145.113 86.6883C145.113 87.8171 140.205 87.1501 139.21 87.2356C136.372 87.4921 134.008 88.8945 131.301 89.2194C130.779 88.7576 133.649 86.3463 134.203 86.3463C131.301 80.583 130.681 73.9304 130.958 67.483C131.154 63.0879 132.263 55.2553 136.014 52.5703C143.825 46.9438 146.434 61.1725 145.912 66.6622C144.542 68.646 140.873 72.3057 140.139 74.4264C139.112 77.385 144.461 76.4615 146.059 77.1113H146.075Z" fill="black"/>
<path d="M170.492 163.565C170.362 163.763 170.25 163.956 170.15 164.118C170.063 164.267 169.982 164.416 169.895 164.565L169.795 164.733C169.497 165.255 169.167 165.802 168.775 166.312C168.651 166.467 168.526 166.622 168.396 166.759C168.066 168.257 168.458 169.599 169.341 169.96C169.982 170.221 170.766 169.947 171.457 169.314C171.481 169.27 171.513 169.233 171.556 169.208H171.575C171.929 168.847 172.253 168.394 172.514 167.865C171.998 167.735 171.438 166.772 171.201 165.529C171.189 165.435 171.17 165.336 171.158 165.243H171.233L172.234 165.118L171.357 164.615L171.096 164.472C171.096 164.08 171.127 163.639 171.289 163.266C171.033 163.304 170.766 163.409 170.492 163.565ZM169.136 170.47C168.141 170.066 167.618 168.841 167.742 167.368C167.543 167.53 167.338 167.673 167.126 167.791C167.002 167.859 166.884 167.896 166.772 167.896C166.647 167.896 166.535 167.853 166.455 167.766C166.305 167.598 166.324 167.393 166.336 167.325C166.38 166.834 166.517 166.361 166.741 165.92C166.809 165.79 166.977 165.734 167.108 165.802C167.245 165.87 167.301 166.032 167.232 166.169C167.052 166.523 166.934 166.908 166.89 167.294C167.406 166.995 167.879 166.56 168.34 165.97C168.713 165.491 169.03 164.963 169.323 164.46L169.416 164.292C169.503 164.143 169.59 163.993 169.677 163.838C169.789 163.652 169.92 163.434 170.075 163.204C170.075 163.204 170.077 163.202 170.082 163.198C170.206 163.005 170.349 162.806 170.511 162.62C170.909 162.154 171.569 161.563 172.446 161.395C173.304 161.228 174.182 161.551 174.629 162.191C174.717 162.315 174.686 162.489 174.561 162.576C174.437 162.663 174.262 162.632 174.175 162.508C173.858 162.048 173.186 161.812 172.552 161.936C171.973 162.048 171.5 162.396 171.158 162.732C171.537 162.67 171.905 162.701 172.24 162.837C172.931 163.117 173.41 163.795 173.584 164.733C173.746 165.628 173.609 166.672 173.205 167.673C173.124 167.884 172.651 168.99 171.867 169.668C171.239 170.258 170.517 170.6 169.839 170.6C169.596 170.6 169.36 170.557 169.136 170.47Z" fill="#010101"/>
<path d="M160.674 155.51C160.705 155.51 160.736 155.497 160.761 155.479L166.018 151.451C166.074 151.401 166.092 151.321 166.043 151.258C166.018 151.221 165.974 151.203 165.937 151.203C165.906 151.203 165.875 151.215 165.85 151.234L160.593 155.261C160.53 155.304 160.518 155.391 160.568 155.454C160.593 155.491 160.63 155.51 160.674 155.51ZM167.666 175.354C167.623 175.292 167.53 175.28 167.474 175.329L162.216 179.357C162.154 179.4 162.142 179.487 162.185 179.55C162.216 179.581 162.254 179.605 162.297 179.605C162.328 179.605 162.353 179.593 162.378 179.574L167.642 175.547C167.698 175.497 167.71 175.416 167.666 175.354ZM168.712 151.097L158.956 158.487C158.894 158.536 158.882 158.623 158.925 158.679C158.956 158.717 158.994 158.735 159.037 158.735C159.068 158.735 159.1 158.729 159.124 158.704L168.873 151.314C168.936 151.271 168.948 151.184 168.905 151.122C168.855 151.066 168.768 151.053 168.712 151.097ZM164.518 175.528L167.013 173.701C167.075 173.651 167.088 173.564 167.044 173.508C167.019 173.471 166.976 173.453 166.932 173.453C166.901 173.453 166.876 173.459 166.851 173.477L164.357 175.311C164.294 175.354 164.282 175.441 164.326 175.497C164.357 175.541 164.394 175.559 164.438 175.559C164.469 175.559 164.494 175.547 164.518 175.528ZM156.144 162.769C156.269 162.856 156.443 162.825 156.53 162.7C156.847 162.241 157.519 162.011 158.16 162.129C158.739 162.247 159.212 162.589 159.554 162.93C159.174 162.862 158.801 162.893 158.471 163.03C157.774 163.316 157.295 163.987 157.127 164.932C156.959 165.827 157.096 166.871 157.501 167.871C157.588 168.083 157.961 169.003 158.838 169.86C159.473 170.451 160.188 170.799 160.866 170.799C161.109 170.799 161.345 170.755 161.576 170.662C162.565 170.258 163.088 169.04 162.957 167.567C163.162 167.722 163.367 167.865 163.579 167.983C163.703 168.052 163.822 168.089 163.934 168.089C164.058 168.089 164.17 168.045 164.257 167.952C164.4 167.797 164.382 167.585 164.375 167.523C164.326 167.032 164.195 166.56 163.965 166.119C163.896 165.982 163.735 165.926 163.598 165.994C163.461 166.063 163.411 166.231 163.479 166.361C163.654 166.715 163.772 167.101 163.815 167.486C163.305 167.194 162.826 166.759 162.366 166.168C161.993 165.684 161.675 165.155 161.383 164.652L161.283 164.472C161.196 164.329 161.115 164.18 161.028 164.037C160.922 163.85 160.792 163.626 160.636 163.403C160.63 163.403 160.63 163.39 160.624 163.39C160.499 163.198 160.356 163.005 160.195 162.812C159.796 162.346 159.137 161.762 158.266 161.594C157.401 161.426 156.524 161.743 156.076 162.39C155.989 162.514 156.02 162.682 156.144 162.769ZM167.741 167.368C167.617 168.841 168.139 170.065 169.135 170.469C169.359 170.556 169.595 170.6 169.838 170.6C170.516 170.6 171.238 170.258 171.866 169.668C172.65 168.99 173.123 167.884 173.204 167.672C173.608 166.672 173.745 165.628 173.583 164.733C173.409 163.794 172.93 163.117 172.239 162.837C171.903 162.7 171.536 162.669 171.157 162.732C171.499 162.396 171.972 162.048 172.55 161.936C173.185 161.812 173.857 162.048 174.174 162.508C174.261 162.632 174.435 162.663 174.56 162.576C174.684 162.489 174.715 162.315 174.628 162.191C174.18 161.551 173.303 161.227 172.445 161.395C171.567 161.563 170.908 162.153 170.51 162.62C170.348 162.806 170.205 163.005 170.08 163.198C170.08 163.198 170.078 163.2 170.074 163.204C169.919 163.434 169.788 163.651 169.676 163.838C169.589 163.993 169.502 164.142 169.415 164.291L169.321 164.459C169.029 164.963 168.712 165.491 168.338 165.97C167.878 166.56 167.405 166.995 166.889 167.293C166.932 166.908 167.051 166.523 167.231 166.168C167.299 166.032 167.243 165.87 167.107 165.802C166.976 165.733 166.808 165.789 166.739 165.92C166.516 166.361 166.379 166.833 166.335 167.324C166.323 167.393 166.304 167.598 166.453 167.766C166.534 167.853 166.646 167.896 166.771 167.896C166.883 167.896 167.001 167.859 167.125 167.791C167.337 167.672 167.542 167.53 167.741 167.368ZM165.209 148.176C172.389 148.176 178.231 157.374 178.231 168.686C178.231 179.997 172.389 189.189 165.209 189.189C158.029 189.189 152.188 179.991 152.188 168.686C152.188 157.38 158.029 148.176 165.209 148.176ZM172.961 177.25C173.023 177.206 173.029 177.119 172.986 177.063C172.942 177.001 172.855 176.989 172.793 177.032L163.038 184.422C162.976 184.472 162.963 184.553 163.013 184.615C163.038 184.652 163.081 184.671 163.125 184.671C163.15 184.671 163.181 184.665 163.206 184.646L172.961 177.25ZM169.564 182.912C169.626 182.862 169.639 182.775 169.595 182.719C169.552 182.651 169.458 182.645 169.402 182.688L166.907 184.515C166.845 184.565 166.833 184.646 166.876 184.708C166.907 184.745 166.945 184.764 166.988 184.764C167.019 184.764 167.044 184.758 167.069 184.739L169.564 182.912ZM167.785 158.86C167.847 158.816 167.859 158.729 167.816 158.667C167.766 158.605 167.685 158.592 167.623 158.636L165.128 160.469C165.066 160.513 165.053 160.6 165.097 160.662C165.122 160.699 165.165 160.718 165.209 160.718C165.24 160.718 165.265 160.705 165.29 160.693L167.785 158.86Z" fill="#E4E3FD"/>
<path d="M156.081 162.389C156.529 161.742 157.406 161.425 158.271 161.593C159.142 161.761 159.801 162.345 160.199 162.811C160.361 163.004 160.504 163.197 160.629 163.389C160.635 163.389 160.635 163.396 160.641 163.402C160.797 163.626 160.927 163.849 161.033 164.036C161.12 164.179 161.201 164.328 161.288 164.471L161.388 164.651C161.68 165.154 161.997 165.683 162.371 166.168C162.831 166.758 163.31 167.193 163.82 167.485C163.777 167.1 163.658 166.714 163.484 166.36C163.416 166.23 163.466 166.062 163.602 165.994C163.739 165.925 163.901 165.981 163.97 166.118C164.2 166.559 164.33 167.031 164.38 167.522C164.386 167.585 164.405 167.796 164.262 167.951C164.175 168.044 164.063 168.088 163.938 168.088C163.826 168.088 163.708 168.051 163.584 167.982C163.372 167.864 163.167 167.721 162.962 167.566C163.092 169.039 162.57 170.257 161.58 170.661C161.35 170.754 161.114 170.798 160.871 170.798C160.193 170.798 159.478 170.45 158.843 169.859C157.966 169.002 157.593 168.082 157.505 167.87C157.101 166.87 156.964 165.826 157.132 164.931C157.3 163.986 157.779 163.315 158.476 163.029C158.806 162.892 159.179 162.861 159.559 162.929C159.216 162.588 158.743 162.246 158.165 162.128C157.524 162.01 156.852 162.24 156.535 162.7C156.448 162.824 156.274 162.855 156.149 162.768C156.025 162.681 155.994 162.513 156.081 162.389ZM161.369 170.151C162.252 169.791 162.651 168.455 162.315 166.957C162.296 166.932 162.271 166.901 162.246 166.876C162.414 168.125 162.165 169.163 161.643 169.263C161.07 169.368 160.392 168.318 160.131 166.913C160.112 166.82 160.1 166.721 160.081 166.627H160.156L161.164 166.503L160.28 166L160.025 165.857C160.019 165.067 160.199 164.458 160.523 164.247C160.436 164.098 160.336 163.936 160.218 163.762C159.67 163.433 159.129 163.358 158.681 163.539C158.165 163.75 157.804 164.278 157.673 165.03C157.524 165.819 157.649 166.758 158.016 167.665C158.296 168.355 158.694 168.952 159.135 169.393C159.142 169.399 159.148 169.399 159.154 169.406C159.198 169.424 159.235 169.468 159.26 169.511C159.944 170.139 160.722 170.412 161.369 170.151Z" fill="#010101"/>
<path d="M151.958 149.655C151.883 148.747 151.995 147.815 152.318 146.988C152.368 146.858 152.524 146.454 152.916 146.404C153.326 146.348 153.581 146.709 153.818 147.026C153.899 147.144 153.986 147.268 154.054 147.33C154.496 147.74 155.062 148.095 155.778 148.418C156.132 148.573 156.493 148.71 156.86 148.828C157.731 147.952 158.671 147.212 159.641 146.628C159.585 146.454 159.554 146.274 159.554 146.087C159.554 145.105 160.357 144.304 161.34 144.304C161.7 144.304 162.036 144.409 162.316 144.589C162.31 144.49 162.304 144.391 162.304 144.291C162.304 142.694 163.604 141.389 165.209 141.389C166.814 141.389 168.115 142.694 168.115 144.291C168.115 144.391 168.108 144.49 168.096 144.596C168.382 144.409 168.718 144.304 169.073 144.304C170.062 144.304 170.865 145.105 170.865 146.087C170.865 146.274 170.833 146.454 170.784 146.628C171.785 147.237 172.756 148.002 173.664 148.928C174.025 148.809 174.386 148.673 174.747 148.511C175.475 148.194 176.035 147.834 176.47 147.43C176.539 147.361 176.626 147.243 176.713 147.125C176.943 146.808 177.204 146.442 177.615 146.497C178.001 146.547 178.162 146.951 178.212 147.082C178.473 147.753 178.598 148.48 178.598 149.213C178.598 149.394 178.585 149.574 178.573 149.754C178.473 151.016 178.007 152.234 177.229 153.117C177.167 153.185 177.061 153.297 176.918 153.384C179.264 157.654 180.551 163.048 180.551 168.685C180.551 178.431 176.638 187.225 170.784 190.736C170.833 190.91 170.865 191.091 170.865 191.277C170.865 192.259 170.062 193.061 169.073 193.061C168.718 193.061 168.382 192.955 168.102 192.775C168.109 192.874 168.115 192.974 168.115 193.073C168.115 194.671 166.814 195.976 165.209 195.976C163.604 195.976 162.304 194.671 162.304 193.073C162.304 192.974 162.31 192.874 162.316 192.775C162.036 192.955 161.7 193.061 161.34 193.061C160.357 193.061 159.554 192.259 159.554 191.277C159.554 191.091 159.585 190.91 159.641 190.736C153.78 187.225 149.867 178.431 149.867 168.685C149.867 162.992 151.18 157.548 153.569 153.266C153.457 153.191 153.37 153.098 153.295 153.011C152.518 152.141 152.057 150.916 151.958 149.655ZM178.231 168.685C178.231 157.374 172.389 148.176 165.209 148.176C158.03 148.176 152.188 157.374 152.188 168.685C152.188 179.997 158.03 189.189 165.209 189.189C172.389 189.189 178.231 179.984 178.231 168.685Z" fill="#010101"/>
<path d="M172.988 177.063C173.032 177.119 173.025 177.206 172.963 177.249L163.208 184.645C163.208 184.645 163.152 184.67 163.127 184.67C163.084 184.67 163.04 184.651 163.015 184.614C162.965 184.552 162.978 184.471 163.04 184.421L172.795 177.032C172.857 176.988 172.945 177.001 172.988 177.063Z" fill="#010101"/>
<path d="M172.228 165.118L171.226 165.236H171.152C171.164 165.335 171.183 165.435 171.195 165.528C171.432 166.771 171.992 167.734 172.508 167.865C172.247 168.393 171.923 168.847 171.568 169.201H171.55C171.506 169.232 171.475 169.269 171.45 169.313C170.76 169.947 169.976 170.22 169.335 169.959C168.452 169.599 168.06 168.256 168.389 166.758C168.52 166.622 168.644 166.466 168.769 166.311C169.161 165.801 169.491 165.254 169.789 164.732L169.889 164.565C169.976 164.415 170.057 164.266 170.144 164.117C170.243 163.955 170.355 163.763 170.486 163.564C170.76 163.409 171.027 163.303 171.282 163.266C171.121 163.639 171.089 164.08 171.089 164.471L171.351 164.614L172.228 165.118Z" fill="white"/>
<path d="M169.596 182.719C169.64 182.775 169.627 182.862 169.565 182.911L167.07 184.739C167.07 184.739 167.02 184.764 166.989 184.764C166.946 184.764 166.908 184.745 166.877 184.708C166.834 184.645 166.846 184.565 166.908 184.515L169.403 182.688C169.459 182.644 169.553 182.65 169.596 182.719Z" fill="#010101"/>
<path d="M168.903 151.121C168.947 151.183 168.935 151.27 168.872 151.314L159.123 158.704C159.123 158.704 159.067 158.735 159.036 158.735C158.993 158.735 158.955 158.716 158.924 158.679C158.881 158.623 158.893 158.536 158.955 158.486L168.711 151.096C168.767 151.053 168.854 151.065 168.903 151.121Z" fill="#010101"/>
<path d="M167.815 158.666C167.858 158.728 167.846 158.815 167.784 158.859L165.289 160.692C165.289 160.692 165.239 160.717 165.208 160.717C165.165 160.717 165.121 160.699 165.096 160.661C165.053 160.599 165.065 160.512 165.127 160.469L167.622 158.635C167.684 158.592 167.765 158.604 167.815 158.666Z" fill="#010101"/>
<path d="M167.671 175.354C167.714 175.417 167.702 175.497 167.646 175.547L162.383 179.574C162.383 179.574 162.333 179.605 162.302 179.605C162.258 179.605 162.221 179.581 162.19 179.55C162.146 179.487 162.159 179.4 162.221 179.357L167.478 175.33C167.534 175.28 167.627 175.292 167.671 175.354Z" fill="#010101"/>
<path d="M167.041 173.509C167.085 173.565 167.073 173.652 167.01 173.702L164.516 175.529C164.516 175.529 164.466 175.56 164.435 175.56C164.391 175.56 164.354 175.541 164.323 175.498C164.279 175.442 164.292 175.355 164.354 175.311L166.849 173.478C166.849 173.478 166.898 173.453 166.929 173.453C166.973 173.453 167.017 173.472 167.041 173.509Z" fill="#010101"/>
<path d="M166.045 151.259C166.094 151.321 166.076 151.402 166.02 151.452L160.763 155.479C160.763 155.479 160.707 155.51 160.676 155.51C160.632 155.51 160.595 155.492 160.57 155.454C160.52 155.392 160.532 155.305 160.595 155.262L165.852 151.234C165.852 151.234 165.908 151.203 165.939 151.203C165.976 151.203 166.02 151.222 166.045 151.259Z" fill="#010101"/>
<path d="M162.312 166.957C162.648 168.455 162.25 169.791 161.367 170.152C160.72 170.413 159.942 170.139 159.258 169.512C159.233 169.468 159.195 169.425 159.152 169.406C159.146 169.4 159.139 169.4 159.133 169.394C158.691 168.952 158.293 168.356 158.013 167.666C157.646 166.758 157.522 165.82 157.671 165.031C157.802 164.279 158.163 163.75 158.679 163.539C159.127 163.359 159.668 163.433 160.216 163.763C160.334 163.937 160.433 164.098 160.521 164.247C160.197 164.459 160.017 165.068 160.023 165.857L160.278 166L161.161 166.504L160.153 166.622H160.079C160.097 166.721 160.11 166.821 160.129 166.914C160.39 168.318 161.068 169.369 161.64 169.263C162.163 169.164 162.412 168.126 162.244 166.876C162.269 166.901 162.294 166.932 162.312 166.957Z" fill="white"/>
<path d="M160.441 164.123L162.339 167.106L162.277 169.033L161.343 169.567L158.898 166.665L160.441 164.123Z" fill="white"/>
<path d="M170.855 163.39C170.855 163.39 171.483 163.141 172.099 163.39C172.715 163.638 172.933 164.633 173.013 165.223C173.094 165.814 172.901 166.963 172.615 167.585L172.329 168.206H170.5V165.981L170.855 163.39Z" fill="white"/>
<path d="M160.726 166.946L159.942 167.642L160.184 166.536C160.023 166.461 159.842 166.418 159.656 166.418C158.828 166.418 158.156 167.22 158.156 168.208C158.156 169.196 158.828 169.998 159.656 169.998C160.483 169.998 161.155 169.196 161.155 168.208C161.155 167.717 160.987 167.276 160.719 166.952L160.726 166.946Z" fill="#010101"/>
<path d="M170.476 167.194L169.692 167.89L169.934 166.784C169.773 166.71 169.592 166.666 169.406 166.666C168.578 166.666 167.906 167.468 167.906 168.456C167.906 169.444 168.578 170.246 169.406 170.246C170.233 170.246 170.905 169.444 170.905 168.456C170.905 167.965 170.737 167.524 170.469 167.201L170.476 167.194Z" fill="#010101"/>
</svg>
