<svg width="20" height="20" viewBox="0 0 24 24" fill="none" xmlns="http://www.w3.org/2000/svg">
<path d="M21.6004 4.20875C21.6004 4.20875 19.8392 5.24506 18.86 5.53892C18.3344 4.93688 17.6359 4.51016 16.8589 4.31649C16.0819 4.12282 15.264 4.17154 14.5157 4.45605C13.7674 4.74057 13.1249 5.24715 12.675 5.90729C12.2251 6.56743 11.9897 7.34927 12.0004 8.14708V9.01646C10.4667 9.05608 8.94696 8.71723 7.57654 8.0301C6.20613 7.34296 5.02758 6.32887 4.14585 5.07814C4.14585 5.07814 0.654935 12.9026 8.50948 16.3802C6.71212 17.5955 4.571 18.205 2.40039 18.1189C10.2549 22.4659 19.8549 18.1189 19.8549 8.121C19.8549 7.87931 19.8305 7.63762 19.7851 7.3994C20.6753 6.5248 21.6004 4.20875 21.6004 4.20875Z" fill="#222222" stroke="#222222" stroke-width="0.652439" stroke-linecap="round" stroke-linejoin="round"/>
</svg>
