<svg width="16" height="17" viewBox="0 0 18 19" fill="none" xmlns="http://www.w3.org/2000/svg" class="{{ .class }}">
    <path d="M0.953487 13.7474L0.661754 13.8933L0.953487 13.7474C0.885708 13.6119 0.874513 13.4551 0.922364 13.3114C0.970215 13.1677 1.07319 13.0489 1.20864 12.9811C1.34406 12.9133 1.50085 12.9021 1.64453 12.9499C2.14734 13.1175 2.48705 13.4836 2.7424 13.8154L2.74299 13.8162C2.83998 13.9415 2.93339 14.077 3.03409 14.2231L3.04663 14.2413C3.1501 14.3914 3.26106 14.5516 3.38168 14.7046C3.62269 15.0105 3.92165 15.3134 4.33562 15.4893L4.33564 15.4894C4.68093 15.6361 5.15394 15.716 5.84402 15.6218L5.85456 15.6203L5.86498 15.6182L6.0148 15.5877L6.27501 15.5347L6.27594 15.2692C6.2775 14.8255 6.36989 14.3869 6.54742 13.9803L6.68949 13.6549L6.35327 13.5408C5.55275 13.2692 4.79933 12.8748 4.11999 12.3718C2.71333 11.3163 1.79042 9.81568 1.79042 8.10918C1.79042 6.98283 2.19396 5.94275 2.87416 5.06299L2.97164 4.93691L2.93211 4.78252C2.75725 4.09974 2.77066 3.40136 2.83916 2.85703L2.84353 2.82383L2.84353 2.82384L2.84378 2.82188C2.87703 2.5568 2.91013 2.29557 2.97616 2.05175C3.0418 1.80933 3.13414 1.60827 3.27001 1.45774C3.43696 1.27305 3.66761 1.21641 3.97983 1.25017C4.27287 1.28186 4.57903 1.38683 4.87804 1.48934C4.90814 1.49966 4.93816 1.50996 4.9681 1.52015L5.1077 1.56769C5.70392 1.78219 6.27204 2.06842 6.79948 2.42021L6.92042 2.50088L7.06127 2.46488C7.87041 2.25808 8.70241 2.15419 9.53756 2.15567H9.53814C10.4019 2.15567 11.234 2.26353 12.0127 2.46386L12.1537 2.50014L12.2749 2.41936C12.8428 2.04086 13.4577 1.73831 14.1041 1.51943L14.1045 1.5193C14.1343 1.50915 14.1643 1.49889 14.1943 1.48862C14.4937 1.3861 14.8 1.28126 15.093 1.24974C15.405 1.21619 15.6355 1.27289 15.8026 1.45767C15.9327 1.60218 16.0275 1.81218 16.0966 2.06966C16.1652 2.32537 16.2013 2.59852 16.2334 2.85493L16.2334 2.85531C16.302 3.39911 16.3164 4.09598 16.1415 4.77893L16.1019 4.93347L16.1996 5.05959C16.8815 5.94023 17.2858 6.98114 17.2858 8.10918C17.2858 9.81477 16.363 11.3162 14.9564 12.3717C14.277 12.8748 13.5236 13.2692 12.723 13.5408L12.3868 13.6549L12.5289 13.9803C12.7032 14.3795 12.8003 14.8214 12.8003 15.286V17.9773C12.8003 18.1287 12.7402 18.2739 12.6331 18.381C12.5261 18.4881 12.3809 18.5482 12.2294 18.5482H6.84683C6.69542 18.5482 6.55021 18.4881 6.44315 18.381C6.33609 18.2739 6.27594 18.1287 6.27594 17.9773V17.0883V16.7197L5.91005 16.7645C5.09945 16.8638 4.44009 16.7734 3.89092 16.5404L3.89086 16.5404C3.31609 16.2966 2.91067 15.9174 2.59586 15.5393L2.59557 15.5389C2.53244 15.4633 2.46193 15.3563 2.3766 15.2191C2.35653 15.1869 2.33563 15.1529 2.31404 15.1179C2.24855 15.0116 2.17679 14.8951 2.10287 14.7844C2.0038 14.636 1.89058 14.482 1.76196 14.351C1.63431 14.221 1.4762 14.0978 1.28388 14.0337L1.28378 14.0336C1.21262 14.0099 1.14683 13.9725 1.09016 13.9233C1.03349 13.8742 0.987048 13.8144 0.953487 13.7474Z" fill="#222222" stroke="#222222" stroke-width="0.652439"/>
</svg>