<svg width="37" height="36" viewBox="0 0 37 36" fill="none" xmlns="http://www.w3.org/2000/svg" class="{{ .class }}">
    <path fill-rule="evenodd" clip-rule="evenodd" d="M18.2383 36C28.1794 36 36.2383 27.9411 36.2383 18C36.2383 8.05887 28.1794 0 18.2383 0C8.29716 0 0.238281 8.05887 0.238281 18C0.238281 27.9411 8.29716 36 18.2383 36ZM22.4152 9.00005C24.2795 9.3031 26.0693 9.82761 27.7223 10.5503C27.7472 10.5503 27.7596 10.5619 27.772 10.5736C30.7177 14.6414 32.1719 19.2221 31.625 24.5021C31.625 24.5254 31.6126 24.5487 31.5877 24.5604C29.3505 26.0989 27.2003 27.0314 25.0625 27.6492C25.0252 27.6608 24.988 27.6492 24.9507 27.6375C24.4659 26.9964 24.0185 26.3204 23.6208 25.6094C23.6084 25.5744 23.6208 25.5162 23.6705 25.5045C24.3789 25.2481 25.0625 24.9567 25.7088 24.5954C25.771 24.572 25.771 24.5021 25.7213 24.4671C25.6529 24.4147 25.5845 24.3652 25.5162 24.3156C25.4478 24.2661 25.3795 24.2166 25.3111 24.1641C25.2863 24.1408 25.249 24.1408 25.2241 24.1524C20.9983 25.9824 16.3872 25.9824 12.1116 24.1524C12.0868 24.1408 12.0495 24.1408 12.0246 24.1641C11.9562 24.2107 11.8879 24.2603 11.8195 24.3098C11.7512 24.3593 11.6828 24.4089 11.6145 24.4555C11.5772 24.4905 11.5772 24.5604 11.6269 24.5837C12.2856 24.9334 12.9568 25.2364 13.6652 25.4928C13.7149 25.5045 13.7398 25.5511 13.7149 25.5977C13.3296 26.3087 12.8822 26.9848 12.385 27.6258C12.3726 27.6492 12.3353 27.6608 12.298 27.6492C10.1727 27.0314 8.0225 26.0989 5.78529 24.5604C5.76043 24.5487 5.748 24.5254 5.748 24.5021C5.28814 19.9331 6.2203 15.3174 9.60097 10.5736C9.6134 10.5619 9.62582 10.5503 9.63825 10.5503C11.3037 9.82761 13.0811 9.3031 14.9454 9.00005C14.9827 9.00005 15.02 9.01171 15.0324 9.03502C15.2686 9.41966 15.5296 9.9092 15.7036 10.3055C17.681 10.0258 19.692 10.0258 21.6694 10.3055C21.8434 9.92085 22.1045 9.41966 22.3282 9.03502C22.3391 9.02358 22.3525 9.01452 22.3675 9.00848C22.3826 9.00244 22.3988 8.99956 22.4152 9.00005ZM12.0122 19.2454C12.0122 20.6091 13.0811 21.7164 14.3612 21.7164C15.6663 21.7164 16.7103 20.6091 16.7103 19.2454C16.7227 17.8933 15.6787 16.7744 14.3612 16.7744C13.0562 16.7744 12.0122 17.8817 12.0122 19.2454ZM20.6751 19.2454C20.6751 20.6091 21.744 21.7164 23.0242 21.7164C24.3417 21.7164 25.3733 20.6091 25.3733 19.2454C25.3857 17.8933 24.3417 16.7744 23.0242 16.7744C21.7192 16.7744 20.6751 17.8817 20.6751 19.2454Z" fill="currentColor"/>
</svg>