<svg width="19" height="22" viewBox="0 0 19 22" fill="none" xmlns="http://www.w3.org/2000/svg" class="{{ .class }}">
<path fill="currentColor" d="M2.41667 21.8334C1.82083 21.8334 1.31058 21.6214 0.885917 21.1975C0.461972 20.7728 0.25 20.2626 0.25 19.6667V4.50008H2.41667V19.6667H14.3333V21.8334H2.41667ZM6.75 17.5001C6.15417 17.5001 5.64428 17.2881 5.22033 16.8642C4.79567 16.4395 4.58333 15.9292 4.58333 15.3334V2.33341C4.58333 1.73758 4.79567 1.22733 5.22033 0.802665C5.64428 0.37872 6.15417 0.166748 6.75 0.166748H16.5C17.0958 0.166748 17.6061 0.37872 18.0307 0.802665C18.4547 1.22733 18.6667 1.73758 18.6667 2.33341V15.3334C18.6667 15.9292 18.4547 16.4395 18.0307 16.8642C17.6061 17.2881 17.0958 17.5001 16.5 17.5001H6.75ZM6.75 15.3334H16.5V2.33341H6.75V15.3334ZM6.75 15.3334V2.33341V15.3334Z"/>
</svg>