<svg xmlns="http://www.w3.org/2000/svg" class="{{ .class }}" viewBox="0 0 17 15" fill="none">
  <path d="M1.42801 14.9997H15.7137C15.9505 14.9997 16.1776 14.9057 16.3451 14.7382C16.5125 14.5708 16.6066 14.3437 16.6066 14.1069V2.94615C16.6066 2.70935 16.5125 2.48225 16.3451 2.3148C16.1776 2.14736 15.9505 2.05329 15.7137 2.05329H8.57087L6.33873 0.267578H1.42801C1.19121 0.267578 0.964111 0.361647 0.796668 0.52909C0.629225 0.696533 0.535156 0.923635 0.535156 1.16044V14.1069C0.535156 14.3437 0.629225 14.5708 0.796668 14.7382C0.964111 14.9057 1.19121 14.9997 1.42801 14.9997ZM10.486 7.7274C10.402 7.64334 10.3548 7.52932 10.3548 7.41044C10.3548 7.29155 10.402 7.17754 10.486 7.09347C10.5701 7.00941 10.6841 6.96218 10.803 6.96218C10.9219 6.96218 11.0359 7.00941 11.12 7.09347L12.9057 8.87919C12.9475 8.92069 12.9807 8.97006 13.0034 9.02446C13.0261 9.07887 13.0377 9.13722 13.0377 9.19615C13.0377 9.25508 13.0261 9.31343 13.0034 9.36784C12.9807 9.42224 12.9475 9.47161 12.9057 9.51311L11.12 11.2988C11.0785 11.3407 11.0291 11.3739 10.9747 11.3965C10.9203 11.4192 10.8619 11.4309 10.803 11.4309C10.7441 11.4309 10.6857 11.4192 10.6313 11.3965C10.5769 11.3739 10.5276 11.3407 10.486 11.2988C10.4442 11.2573 10.411 11.208 10.3883 11.1536C10.3657 11.0991 10.354 11.0408 10.354 10.9819C10.354 10.9229 10.3657 10.8646 10.3883 10.8102C10.411 10.7558 10.4442 10.7064 10.486 10.6649L11.9593 9.19615L10.486 7.7274ZM7.25837 11.2988L9.04408 6.38811C9.08669 6.27999 9.16978 6.19274 9.27569 6.14491C9.3816 6.09708 9.50199 6.09243 9.61128 6.13196C9.72056 6.17149 9.81013 6.25208 9.86094 6.3566C9.91174 6.46112 9.91979 6.58133 9.88337 6.69169L8.09766 11.6024C8.0629 11.6845 8.00435 11.7543 7.92956 11.8029C7.85477 11.8514 7.76716 11.8764 7.67801 11.8747C7.62625 11.8747 7.57489 11.8656 7.52623 11.8479C7.41496 11.8076 7.32425 11.7248 7.27402 11.6177C7.22379 11.5105 7.21816 11.3878 7.25837 11.2765V11.2988ZM4.23605 8.90151L6.02176 7.11579C6.10583 7.03173 6.21984 6.9845 6.33873 6.9845C6.45761 6.9845 6.57163 7.03173 6.65569 7.11579C6.73976 7.19986 6.78698 7.31387 6.78698 7.43276C6.78698 7.55164 6.73976 7.66566 6.65569 7.74972L5.18248 9.19615L6.65569 10.6649C6.69753 10.7064 6.73075 10.7558 6.75341 10.8102C6.77608 10.8646 6.78774 10.9229 6.78774 10.9819C6.78774 11.0408 6.77608 11.0991 6.75341 11.1536C6.73075 11.208 6.69753 11.2573 6.65569 11.2988C6.61419 11.3407 6.56482 11.3739 6.51041 11.3965C6.45601 11.4192 6.39766 11.4309 6.33873 11.4309C6.27979 11.4309 6.22144 11.4192 6.16704 11.3965C6.11264 11.3739 6.06326 11.3407 6.02176 11.2988L4.23605 9.51311C4.19421 9.47161 4.16099 9.42224 4.13833 9.36784C4.11567 9.31343 4.104 9.25508 4.104 9.19615C4.104 9.13722 4.11567 9.07887 4.13833 9.02446C4.16099 8.97006 4.19421 8.92069 4.23605 8.87919V8.90151Z" fill="#756DF3"/>
</svg>