<svg xmlns="http://www.w3.org/2000/svg" class="{{ .class }}" viewBox="0 0 22 15" fill="none">
<path d="M13.9628 7.1177C14.3353 8.285 15.415 9.12918 16.6892 9.12918C18.2717 9.12918 19.5546 7.82713 19.5546 6.22098C19.5546 4.61481 18.2717 3.31277 16.6892 3.31277C16.0476 3.31277 15.4552 3.52684 14.9776 3.88842C14.99 4.02227 14.9966 4.15779 14.9966 4.29486C14.9966 5.37233 14.6066 6.35893 13.9628 7.1177ZM4.7631 9.12918C6.03862 9.12918 7.11929 8.28323 7.49065 7.11405C6.84875 6.3558 6.46011 5.37066 6.46011 4.29486C6.46011 4.15883 6.46662 4.02435 6.47877 3.8915C6.00049 3.52806 5.40657 3.31278 4.7631 3.31278C3.18057 3.31278 1.89769 4.61483 1.89769 6.22099C1.89769 7.82713 3.18058 9.12918 4.7631 9.12918ZM17.7752 9.80489H16.0841C16.8611 10.7549 17.2841 11.9389 17.2841 13.189V13.8569C17.2841 14.2843 17.1461 14.6795 16.9134 14.9996H20.5072C21.0171 14.9996 21.4305 14.58 21.4305 14.0625V13.5148C21.4305 11.4659 19.794 9.80489 17.7752 9.80489ZM4.14841 13.189C4.14841 11.9389 4.57142 10.7549 5.34835 9.80489H3.65722C1.63847 9.80489 0.00195312 11.4659 0.00195312 13.5148V14.0625C0.00195312 14.58 0.415321 14.9996 0.925246 14.9996H4.51912C4.28635 14.6795 4.14842 14.2843 4.14842 13.8569V13.189H4.14841ZM12.0527 8.66512H9.3798C6.91811 8.66512 4.92252 10.6905 4.92252 13.189V13.8569C4.92252 14.488 5.4266 14.9996 6.0484 14.9996H15.3841C16.0059 14.9996 16.5099 14.488 16.5099 13.8569V13.189C16.51 10.6905 14.5144 8.66512 12.0527 8.66512ZM10.7283 7.84115C12.6581 7.84115 14.2225 6.2534 14.2225 4.29485C14.2225 2.33627 12.6581 0.748535 10.7283 0.748535C8.79859 0.748535 7.23421 2.33627 7.23421 4.29485C7.23421 6.25342 8.79859 7.84115 10.7283 7.84115Z" fill="#2A8C82"/>
</svg>