<svg width="30" height="29" viewBox="0 0 30 29" fill="none" xmlns="http://www.w3.org/2000/svg"  class="{{ .class }}">
    <path fill="currentColor" d="M1.76168 0.589436L28.6329 13.8299C28.7795 13.9021 28.9029 14.0139 28.9891 14.1526C29.0754 14.2914 29.1212 14.4515 29.1212 14.6148C29.1212 14.7782 29.0754 14.9383 28.9891 15.077C28.9029 15.2157 28.7795 15.3275 28.6329 15.3997L1.75993 28.6402C1.60938 28.7141 1.44075 28.7433 1.27411 28.7241C1.10748 28.7049 0.949865 28.6383 0.820046 28.532C0.690227 28.4258 0.593672 28.2845 0.541882 28.125C0.490092 27.9655 0.485249 27.7944 0.527929 27.6322L3.97368 14.6227L0.526179 1.59919C0.482792 1.43664 0.487186 1.26503 0.538836 1.10491C0.590486 0.944795 0.6872 0.802964 0.817394 0.696408C0.947588 0.589853 1.10574 0.52309 1.27291 0.504117C1.44007 0.485145 1.60917 0.514767 1.75993 0.589436H1.76168ZM2.71193 3.00969L5.52943 13.6532L5.63793 13.6322L5.74993 13.6252H17.9999C18.2186 13.6248 18.4295 13.7063 18.591 13.8536C18.7526 14.0009 18.8532 14.2034 18.873 14.4211C18.8927 14.6389 18.8302 14.8562 18.6978 15.0301C18.5654 15.2041 18.3726 15.3222 18.1574 15.3612L17.9999 15.3752H5.74993C5.69595 15.3754 5.64206 15.3707 5.58893 15.3612L2.71368 26.2217L26.2652 14.6157L2.71193 3.00969Z"/>
</svg>