<svg class="{{ .class }}" viewBox="0 0 36 36" fill="none" xmlns="http://www.w3.org/2000/svg">
    <path d="M36 18.45C36 22.4712 34.8552 26.0874 32.5656 29.2986C30.2778 32.5098 27.3204 34.731 23.6952 35.964C23.274 36.045 22.9644 35.9892 22.77 35.7966C22.6741 35.7033 22.5985 35.5911 22.548 35.4672C22.4975 35.3433 22.4732 35.2103 22.4766 35.0766V30.006C22.4766 28.4526 22.0698 27.315 21.258 26.595C22.069 26.5136 22.8724 26.3691 23.661 26.163C24.3702 25.9704 25.1046 25.659 25.8624 25.227C26.591 24.8193 27.2354 24.2769 27.7614 23.6286C28.269 22.995 28.683 22.1544 29.0034 21.105C29.3238 20.0556 29.484 18.8514 29.484 17.4906C29.484 15.552 28.8666 13.9014 27.6336 12.5406C28.2096 11.0826 28.1484 9.44996 27.4446 7.63916C27.0072 7.49516 26.3754 7.58516 25.5474 7.90376C24.7963 8.18589 24.0742 8.53973 23.391 8.96036L22.5 9.53636C21.0366 9.11913 19.5218 8.90948 18 8.91356C16.4782 8.91006 14.9634 9.12032 13.5 9.53816C13.1745 9.3127 12.8425 9.09661 12.5046 8.89016C12.0906 8.63276 11.4372 8.32496 10.5462 7.96496C9.657 7.60496 8.9838 7.49696 8.5302 7.64096C7.8444 9.44996 7.7886 11.0826 8.3682 12.5406C7.1334 13.9014 6.5142 15.552 6.5142 17.4906C6.5142 18.8514 6.6762 20.052 6.9966 21.0942C7.317 22.1346 7.7274 22.9752 8.226 23.616C8.74302 24.271 9.38403 24.8178 10.1124 25.2252C10.8702 25.6572 11.6064 25.9704 12.3156 26.1612C13.0266 26.3556 13.8276 26.4996 14.7186 26.595C14.094 27.171 13.7106 27.9972 13.5702 29.07C13.2346 29.2325 12.8804 29.3534 12.5154 29.43C12.0756 29.5163 11.628 29.5567 11.1798 29.5506C10.6632 29.5506 10.1538 29.3778 9.6444 29.034C9.1368 28.6884 8.703 28.188 8.343 27.5328C8.06178 27.0372 7.6738 26.6105 7.2072 26.2836C6.7464 25.9632 6.3594 25.7706 6.0462 25.7076L5.5782 25.6356C5.2506 25.6356 5.0238 25.6716 4.8978 25.7436C4.7718 25.8156 4.7358 25.9056 4.7808 26.019C4.83374 26.1411 4.90473 26.2545 4.9914 26.3556C5.08132 26.4636 5.18408 26.5603 5.2974 26.6436L5.4594 26.7624C5.805 26.9244 6.1434 27.2286 6.48 27.6768C6.8166 28.125 7.0632 28.5336 7.218 28.9008L7.452 29.4534C7.6554 30.0618 7.9992 30.555 8.4852 30.9312C8.9694 31.3092 9.4932 31.5486 10.0548 31.6512C10.6164 31.7556 11.16 31.8132 11.6838 31.8204C12.2058 31.8276 12.6414 31.8006 12.9852 31.7358L13.5234 31.6404C13.5234 32.2488 13.527 32.9616 13.536 33.7788L13.5468 35.0748C13.5468 35.3628 13.446 35.604 13.2408 35.7948C13.0392 35.9892 12.726 36.045 12.3048 35.964C8.6796 34.731 5.7222 32.508 3.4344 29.2986C1.1448 26.0874 0 22.4712 0 18.45C0 15.102 0.8046 12.0168 2.4138 9.18896C3.97167 6.41544 6.23115 4.10009 8.9658 2.47496C11.6919 0.833919 14.8182 -0.0225508 18 -4.31461e-05C21.1824 -0.0228827 24.3094 0.833599 27.036 2.47496C29.77 4.10034 32.0288 6.41566 33.5862 9.18896C35.1954 12.015 36 15.1038 36 18.45Z" fill="currentColor"/>
</svg>
