<svg width="18" height="19" viewBox="0 0 18 19" fill="none" xmlns="http://www.w3.org/2000/svg">
<path d="M16.4824 0H1.31405C0.588666 0 0 0.613542 0 1.36906V17.6291C0 18.3857 0.588666 19 1.31405 19H16.4824C17.2083 19 17.8009 18.3857 17.8009 17.6291V1.36906C17.8009 0.613542 17.2083 0 16.4824 0ZM5.27945 16.1906H2.638V7.12368H5.27945V16.1906ZM3.95872 5.88393C3.75767 5.88393 3.55858 5.84164 3.37284 5.75949C3.1871 5.67733 3.01835 5.55692 2.87623 5.40513C2.73411 5.25333 2.6214 5.07313 2.54455 4.87483C2.4677 4.67653 2.42821 4.464 2.42834 4.2494C2.42834 3.81621 2.58956 3.40077 2.87654 3.09446C3.16352 2.78815 3.55275 2.61606 3.9586 2.61606C4.36445 2.61606 4.75368 2.78815 5.04066 3.09446C5.32764 3.40077 5.48886 3.81621 5.48886 4.2494C5.48886 4.68268 5.32769 5.09823 5.04077 5.40472C4.75385 5.71122 4.36466 5.88358 3.95872 5.88393ZM15.1679 16.1906H12.5306V11.7816C12.5306 10.7297 12.5113 9.37729 11.1582 9.37729C9.78407 9.37729 9.57467 10.5228 9.57467 11.7053V16.1909H6.93543V7.12368H9.46835V8.36185H9.50445C9.85701 7.64935 10.7184 6.89753 12.003 6.89753C14.6746 6.89753 15.1681 8.77483 15.1681 11.2171V16.1906H15.1679Z" fill="#222222"/>
</svg>
