<svg viewBox="0 0 107 145" fill="none" xmlns="http://www.w3.org/2000/svg">
<path d="M21.6007 136.376H19V134H26.991V136.376H24.3904V144.399H21.5971V136.376H21.6007Z" fill="black"/>
<path d="M32.9266 134H40.2363V136.319H35.7199V137.938H39.3016V140.225H35.7199V142.084H40.2363V144.403H32.9266V134Z" fill="black"/>
<path d="M52.636 142.259H49.5752L49.0258 144.399H46.1718L49.3076 134H52.9928L56.1571 144.399H53.1854L52.636 142.259ZM52.0724 140.029L51.1056 136.269L50.1388 140.029H52.0688H52.0724Z" fill="black"/>
<path d="M62.0962 134H65.2463L67.5794 139.465L69.9125 134H73.0304V144.399H70.3263V138.413L68.3785 143.136H66.684L64.7361 138.413V144.399H62.0927V134H62.0962Z" fill="black"/>
<path d="M78.966 142.38V140.953H81.7593V141.906C81.7593 142.112 81.82 142.173 82.0269 142.173H83.9426C84.1495 142.173 84.2101 142.112 84.2101 141.906V140.999C84.2101 140.835 84.1352 140.792 83.8998 140.732L81.135 139.976C79.6795 139.576 78.9946 139.323 78.9946 137.835V136.023C78.9946 134.657 79.6474 134.004 81.0137 134.004H84.8023C86.1687 134.004 86.8215 134.657 86.8215 136.023V137.346H84.0282V136.501C84.0282 136.294 83.9676 136.233 83.7607 136.233H82.0519C81.8449 136.233 81.7843 136.294 81.7843 136.501V137.304C81.7843 137.468 81.8271 137.51 82.0947 137.585L84.8594 138.327C86.3149 138.713 86.9999 138.98 86.9999 140.468V142.384C86.9999 143.75 86.347 144.403 84.9807 144.403H80.9852C79.6189 144.403 78.966 143.75 78.966 142.384V142.38Z" fill="black"/>
<path d="M48.1886 43.5368C48.7381 46.1048 48.0709 48.3962 46.5795 48.9888C45.4805 49.4234 44.1854 48.9888 43.008 47.8826C42.9687 47.8036 42.8902 47.7641 42.8117 47.7246C42.8117 47.7246 42.8117 47.7246 42.7725 47.6851C42.0268 46.9344 41.3596 45.9072 40.8886 44.722C40.2607 43.1812 40.0644 41.6009 40.2999 40.2182C40.5354 38.954 41.1241 38.0453 42.0268 37.6897C42.7725 37.3737 43.7144 37.4922 44.6171 38.0453C44.8133 38.3614 44.9703 38.6379 45.1273 38.8749C44.5779 39.2305 44.2639 40.2577 44.2639 41.6009L44.6956 41.838L46.187 42.7071L44.4994 42.9047H44.3816C44.4209 43.0627 44.4209 43.2207 44.4601 43.3788C44.8918 45.7887 46.0692 47.5665 47.0112 47.369C47.8746 47.211 48.3063 45.4331 48.0316 43.2998C48.1493 43.4578 48.1886 43.4973 48.1886 43.5368Z" fill="white"/>
<path d="M65.4573 45.0778C65.0256 45.9865 64.4761 46.7371 63.8482 47.3692C63.8482 47.3692 63.8482 47.3692 63.8089 47.3692C63.7304 47.4087 63.6912 47.4877 63.6519 47.5272C62.4745 48.5939 61.1794 49.068 60.0805 48.6334C58.5891 48.0013 57.9219 45.7494 58.4713 43.1815C58.6676 42.9444 58.903 42.6679 59.0993 42.4308C59.7665 41.5617 60.3159 40.653 60.8261 39.7443L60.9831 39.4678C61.1401 39.2307 61.2579 38.9542 61.4149 38.7171C61.5718 38.4406 61.7681 38.1245 62.0036 37.769C62.4745 37.4924 62.9062 37.3344 63.338 37.2554C63.0632 37.8875 63.024 38.6381 63.024 39.3097L63.4557 39.5468L64.9471 40.4159L63.2595 40.6135H63.1417C63.181 40.7715 63.181 40.9295 63.2202 41.1271C63.6519 43.221 64.5939 44.8803 65.4573 45.0778Z" fill="white"/>
<path d="M68.2831 44.1688C68.0868 44.0108 67.7729 44.0503 67.6159 44.2479C67.1842 44.801 66.674 45.3146 66.1245 45.7886C66.2815 45.4726 66.4777 45.117 66.5955 44.7615C67.3019 43.0626 67.4981 41.2848 67.2234 39.744C66.9094 38.1242 66.1245 36.9785 64.9471 36.5044C64.3976 36.2674 63.7697 36.2279 63.1025 36.3464C63.6912 35.7538 64.4761 35.2007 65.4573 35.0032C66.5562 34.8056 67.6944 35.2007 68.2046 35.9909C68.3616 36.1884 68.6363 36.2674 68.8718 36.1094C69.068 35.9513 69.1465 35.6748 68.9895 35.4773C68.2438 34.3711 66.7524 33.818 65.3003 34.134C63.8089 34.4106 62.71 35.4378 62.0428 36.2279C61.7681 36.544 61.5326 36.8995 61.2971 37.2156C61.0224 37.6107 60.8261 37.9662 60.6299 38.3218C60.4729 38.5983 60.3159 38.8354 60.1982 39.0724L60.0412 39.349C59.531 40.2181 59.0208 41.1268 58.3928 41.9169C57.6079 42.9441 56.8229 43.6553 55.9202 44.1688C55.9987 43.4972 56.195 42.8651 56.5089 42.2725C56.6267 42.0355 56.5482 41.7589 56.3127 41.6404C56.0772 41.5219 55.8025 41.6009 55.6847 41.8379C55.2923 42.5886 55.0568 43.3787 54.9783 44.2084C54.9783 44.3269 54.9391 44.6824 55.1745 44.959C55.3315 45.117 55.4885 45.196 55.724 45.196C55.9202 45.196 56.1165 45.1565 56.3127 44.9985C56.6659 44.801 57.0192 44.5639 57.3724 44.2874C57.1369 46.7763 58.0396 48.8702 59.7272 49.5813C60.1197 49.7394 60.5121 49.8184 60.9046 49.8184C62.0428 49.8184 63.2595 49.2258 64.3191 48.1986C65.8498 47.3689 67.2234 46.2627 68.2831 44.88C68.5186 44.6429 68.4793 44.3269 68.2831 44.1688ZM53.0944 11.5359C65.2218 11.5359 75.1121 27.2203 75.1121 46.4603C75.1121 65.7003 65.2218 81.3847 53.0944 81.3847C40.9278 81.3847 31.0768 65.7003 31.0768 46.4603C31.0768 27.2203 40.9671 11.5359 53.0944 11.5359ZM66.203 61.0779C66.3207 60.9989 66.3207 60.8409 66.2422 60.7619C66.1637 60.6434 66.0068 60.6434 65.9283 60.7224L49.4445 73.3252C49.3267 73.4042 49.3267 73.5622 49.4052 73.6412C49.4445 73.6807 49.5229 73.7202 49.6014 73.7202C49.6407 73.7202 49.7192 73.7203 49.7584 73.6807L66.203 61.0779ZM60.4729 70.7177C60.5906 70.6387 60.5906 70.4807 60.5121 70.4016C60.4337 70.2831 60.2767 70.2831 60.1982 70.3621L55.9987 73.4832C55.881 73.5622 55.881 73.7203 55.9595 73.7993C55.9987 73.8783 56.0772 73.9178 56.1557 73.9178C56.195 73.9178 56.2342 73.8783 56.2735 73.8783L60.4729 70.7177ZM59.2955 16.9089C59.4132 16.8299 59.4132 16.6718 59.3347 16.5928C59.2562 16.4743 59.0993 16.4743 59.0208 16.5533L42.537 29.1166C42.4192 29.1956 42.4192 29.3536 42.4977 29.4327C42.537 29.4722 42.6154 29.5117 42.6939 29.5117C42.7332 29.5117 42.8117 29.5117 42.8117 29.4722L59.2955 16.9089ZM57.4509 29.7487C57.5686 29.6697 57.5686 29.5117 57.4901 29.4327C57.4116 29.3141 57.2546 29.3141 57.1761 29.3932L52.9767 32.4747C52.859 32.5537 52.859 32.7118 52.9374 32.7908C52.9767 32.8698 53.0552 32.8698 53.1337 32.8698C53.1729 32.8698 53.2122 32.8698 53.2514 32.8303L57.4509 29.7487ZM57.2154 58.1939C57.3331 58.1149 57.3331 57.9569 57.2546 57.8779C57.1761 57.7593 57.0192 57.7593 56.9407 57.8383L48.0316 64.6731C47.9138 64.7521 47.9138 64.9101 47.9923 64.9892C48.0316 65.0287 48.11 65.0682 48.1885 65.0682C48.2278 65.0682 48.267 65.0682 48.3063 65.0287L57.2154 58.1939ZM56.1557 55.0333C56.2735 54.9543 56.2735 54.7963 56.195 54.7173C56.1165 54.5988 55.9595 54.5988 55.881 54.6778L51.6815 57.7988C51.5638 57.8779 51.5638 58.0359 51.6423 58.1149C51.6815 58.1939 51.76 58.2334 51.8385 58.2334C51.8778 58.2334 51.9563 58.1939 51.9563 58.1939L56.1557 55.0333ZM54.4681 17.1064C54.5858 17.0274 54.5858 16.8694 54.5073 16.7903C54.4288 16.6718 54.2719 16.6718 54.1934 16.7508L45.2843 23.6251C45.1665 23.7041 45.1665 23.8621 45.245 23.9412C45.2843 23.9807 45.3627 24.0202 45.4412 24.0202C45.4805 24.0202 45.559 24.0202 45.5982 23.9807L54.4681 17.1064ZM51.4853 45.2355C51.7208 44.959 51.6815 44.6034 51.6815 44.4849C51.603 43.6553 51.3676 42.8256 51.0143 42.075C50.8966 41.8379 50.6219 41.7589 50.3864 41.8774C50.1509 41.996 50.0724 42.2725 50.1901 42.5095C50.5041 43.1022 50.7004 43.7738 50.7789 44.4059C49.9154 43.8923 49.0912 43.1417 48.3063 42.154C47.6783 41.3243 47.1289 40.4157 46.6579 39.586L46.4617 39.27C46.3047 39.0329 46.1869 38.7564 46.0299 38.5193C45.8337 38.2033 45.6375 37.8082 45.3627 37.4131C45.3627 37.4131 45.3627 37.4131 45.3627 37.3736C45.1665 37.0576 44.8918 36.702 44.6171 36.3859C43.9498 35.5958 42.8509 34.6081 41.3595 34.292C39.9074 34.0155 38.416 34.5686 37.6703 35.6353C37.5133 35.8328 37.5918 36.1489 37.788 36.2674C37.9843 36.4254 38.2983 36.3464 38.416 36.1489C38.9655 35.3587 40.1036 34.9637 41.1633 35.1612C42.1445 35.3587 42.9294 35.9513 43.5181 36.5044C42.8902 36.3859 42.2622 36.4649 41.6735 36.6625C40.4961 37.1366 39.7112 38.2823 39.3972 39.9021C39.1224 41.4429 39.3579 43.2207 40.0251 44.9195C40.1821 45.2751 40.3391 45.6306 40.4961 45.9467C39.9466 45.4726 39.4364 44.959 39.0047 44.4059C38.8477 44.2084 38.5337 44.1688 38.3375 44.3269C38.1413 44.4849 38.102 44.801 38.259 44.9985C39.3579 46.3417 40.7316 47.4875 42.223 48.3171C43.2826 49.3443 44.4993 49.8974 45.6767 49.8974C46.0692 49.8974 46.5009 49.8184 46.8541 49.6604C48.5418 48.9492 49.4052 46.8948 49.209 44.3664C49.5622 44.6429 49.8762 44.88 50.2686 45.0775C50.4649 45.196 50.6611 45.2355 50.8573 45.2355C51.1713 45.4726 51.3676 45.3936 51.4853 45.2355Z" fill="#E4E3FD"/>
<path d="M72.9144 20.4252C76.8783 27.6946 79.0369 36.8997 79.0369 46.5C79.0369 63.1325 72.4434 78.1058 62.5139 84.0714C62.5924 84.3479 62.6709 84.664 62.6709 84.98C62.6709 86.6393 61.2972 88.0221 59.6488 88.0221C59.0601 88.0221 58.4714 87.8641 58.0005 87.548C58.0397 87.706 58.0397 87.9036 58.0397 88.0616C58.0397 90.7876 55.8419 93 53.1338 93C50.4258 93 48.2279 90.7876 48.2279 88.0616C48.2279 87.9036 48.2279 87.706 48.2672 87.548C47.7962 87.8641 47.2075 88.0221 46.6188 88.0221C44.9704 88.0221 43.5967 86.6788 43.5967 84.98C43.5967 84.664 43.636 84.3479 43.7537 84.0714C33.785 78.0663 27.1522 63.093 27.1522 46.5C27.1522 36.8207 29.35 27.5365 33.3925 20.2277C33.1963 20.1092 33.0785 19.9511 32.9215 19.7931C31.5871 18.2918 30.8414 16.2375 30.6452 14.0646C30.5667 12.5238 30.7629 10.9435 31.3124 9.52124C31.3909 9.2842 31.6656 8.61257 32.3328 8.53356C33.0393 8.45455 33.471 9.04715 33.8635 9.60026C34.0204 9.79779 34.1774 9.99533 34.2559 10.1138C35.0016 10.825 35.9436 11.4176 37.1602 11.9707C37.7489 12.2472 38.3769 12.4843 38.9656 12.6818C40.457 11.1805 42.0269 9.91631 43.6752 8.92863C43.5967 8.61257 43.5183 8.33602 43.5183 8.01997C43.5183 6.36066 44.8919 4.97791 46.5403 4.97791C47.129 4.97791 47.7177 5.13594 48.1887 5.452C48.1887 5.29397 48.1494 5.09643 48.1494 4.9384C48.1494 2.2124 50.3473 0 53.0553 0C55.7634 0 57.9612 2.2124 57.9612 4.9384C57.9612 5.09643 57.9612 5.29397 57.922 5.452C58.3929 5.13594 58.9816 4.97791 59.5703 4.97791C61.258 4.97791 62.5924 6.36066 62.5924 8.01997C62.5924 8.33602 62.5531 8.65208 62.4354 8.92863C64.123 9.95582 65.7714 11.2596 67.302 12.8398C67.93 12.6423 68.5187 12.4053 69.1466 12.1287C70.3633 11.5756 71.3052 10.983 72.0509 10.2719C72.1687 10.1534 72.3257 9.95582 72.4434 9.75828C72.8359 9.20518 73.2676 8.61257 73.974 8.69159C74.6413 8.7706 74.916 9.44223 74.9945 9.67927C75.5439 11.1015 75.7402 12.6818 75.6224 14.2226C75.4654 16.356 74.6805 18.4499 73.3461 19.9511C73.3068 20.0697 73.1499 20.2672 72.9144 20.4252ZM75.1122 46.5C75.1122 27.2205 65.2219 11.5756 53.0946 11.5756C40.9279 11.5756 31.0769 27.26 31.0769 46.5C31.0769 65.74 40.9672 81.4244 53.0946 81.4244C65.2612 81.4244 75.1122 65.74 75.1122 46.5Z" fill="black"/>
<path d="M60.1983 70.3624C60.316 70.2834 60.4338 70.3229 60.5123 70.4019C60.5908 70.5204 60.5515 70.639 60.473 70.718L56.2736 73.839C56.2343 73.8785 56.1951 73.8786 56.1558 73.8786C56.0773 73.8786 55.9988 73.839 55.9596 73.76C55.8811 73.6415 55.9203 73.523 55.9988 73.444L60.1983 70.3624Z" fill="black"/>
<path d="M63.8483 47.369C64.437 46.7764 64.9864 45.9863 65.4574 45.0776C64.594 44.8406 63.652 43.2208 63.2595 41.0874C63.2203 40.9294 63.1811 40.7713 63.1811 40.5738H63.2988L64.9864 40.3762L63.495 39.5071L63.0633 39.27C63.0633 38.5984 63.1026 37.8478 63.3773 37.2157C62.9456 37.2947 62.4746 37.4527 62.0429 37.7293C61.8074 38.0453 61.6112 38.4009 61.4542 38.6774C61.2972 38.954 61.1402 39.191 61.0225 39.4281L60.8655 39.7046C60.3553 40.5738 59.8058 41.522 59.1386 42.3911C58.9424 42.6677 58.7069 42.9047 58.5106 43.1418C57.9612 45.7097 58.6284 47.9616 60.1198 48.5938C61.2187 49.0283 62.5139 48.5542 63.6913 47.4875C63.6913 47.4875 63.7698 47.4085 63.8483 47.369ZM69.0289 35.4378C69.1859 35.6354 69.1466 35.9514 68.9111 36.07C68.7149 36.228 68.4009 36.1885 68.2439 35.9514C67.6945 35.1613 66.5563 34.7662 65.4966 34.9638C64.5155 35.1613 63.7305 35.7539 63.1418 36.307C63.7698 36.1885 64.3977 36.2675 64.9864 36.465C66.1638 36.9391 66.988 38.0848 67.2628 39.7046C67.5375 41.2454 67.302 43.0232 66.6348 44.722C66.4778 45.0776 66.3208 45.4332 66.1638 45.7492C66.7133 45.2751 67.2235 44.7615 67.6552 44.2084C67.8122 44.0109 68.1262 43.9714 68.3224 44.1294C68.5187 44.2875 68.5579 44.6035 68.4009 44.8011C67.302 46.1838 65.9284 47.29 64.437 48.1197C63.3773 49.1469 62.1606 49.7395 61.0225 49.7395C60.5907 49.7395 60.1983 49.6604 59.845 49.5024C58.1574 48.7913 57.294 46.7369 57.4902 44.2084C57.137 44.485 56.7838 44.722 56.4305 44.9196C56.2343 45.0381 55.9988 45.1171 55.8418 45.1171C55.6456 45.1171 55.4494 45.0381 55.2924 44.8801C55.0569 44.6035 55.0961 44.248 55.0961 44.1294C55.1746 43.2998 55.4101 42.5096 55.8026 41.759C55.9203 41.522 56.1951 41.4429 56.4305 41.5615C56.666 41.68 56.7445 41.9565 56.6268 42.1936C56.3128 42.7862 56.1166 43.4578 56.0381 44.0899C56.9015 43.5763 57.7257 42.8257 58.5106 41.838C59.1386 41.0084 59.6881 40.1392 60.159 39.27L60.316 38.9935C60.473 38.7169 60.63 38.4799 60.7477 38.2429C60.944 37.9268 61.1402 37.5317 61.4149 37.1367C61.6504 36.8206 61.8859 36.465 62.1606 36.149C62.8278 35.3588 63.966 34.3712 65.4181 34.0551C66.7918 33.7785 68.2832 34.3316 69.0289 35.4378Z" fill="black"/>
<path d="M57.451 29.7485L53.2123 32.8696C53.173 32.9091 53.1338 32.9091 53.0946 32.9091C53.0161 32.9091 52.9376 32.8696 52.8983 32.8301C52.8198 32.7115 52.8591 32.593 52.9376 32.514L57.137 29.3929C57.2547 29.3139 57.3725 29.3534 57.451 29.4324C57.608 29.5114 57.5687 29.6695 57.451 29.7485Z" fill="black"/>
<path d="M55.8812 54.638C55.9989 54.559 56.1166 54.5985 56.1951 54.6775C56.2736 54.7961 56.2344 54.9146 56.1559 54.9936L51.9564 58.1147C51.9172 58.1542 51.8779 58.1542 51.8387 58.1542C51.7602 58.1542 51.6817 58.1147 51.6425 58.0357C51.564 57.9171 51.6032 57.7986 51.6817 57.7196L55.8812 54.638Z" fill="black"/>
<path d="M65.9284 60.7228C66.0461 60.6437 66.1639 60.6833 66.2424 60.7623C66.3208 60.8808 66.2816 60.9993 66.2031 61.0783L49.7193 73.6811C49.6801 73.7206 49.6408 73.7206 49.5623 73.7206C49.4838 73.7206 49.4053 73.6811 49.3661 73.6416C49.2876 73.5231 49.2876 73.4046 49.4053 73.3256L65.9284 60.7228Z" fill="black"/>
<path d="M56.9407 57.7992C57.0585 57.7202 57.1762 57.7597 57.2547 57.8387C57.3332 57.9572 57.3332 58.0757 57.2154 58.1547L48.3063 65.029C48.2671 65.0685 48.2278 65.0685 48.1886 65.0685C48.1101 65.0685 48.0316 65.029 47.9924 64.9895C47.9139 64.871 47.9139 64.7524 48.0316 64.6734L56.9407 57.7992Z" fill="black"/>
<path d="M54.1935 16.7508C54.3112 16.6718 54.429 16.7113 54.5074 16.7903C54.5859 16.9089 54.5859 17.0274 54.4682 17.1064L45.5983 23.9807C45.5591 24.0202 45.5198 24.0202 45.4414 24.0202C45.3629 24.0202 45.3236 23.9807 45.2451 23.9411C45.1666 23.8226 45.2059 23.7041 45.2844 23.6251L54.1935 16.7508Z" fill="black"/>
<path d="M42.537 29.1163L59.0208 16.5135C59.0993 16.4345 59.2563 16.474 59.3348 16.553C59.4133 16.6716 59.374 16.7901 59.2955 16.8691L42.8117 29.4719C42.7725 29.5114 42.7332 29.5114 42.694 29.5114C42.6155 29.5114 42.537 29.4719 42.4977 29.4324C42.4192 29.3534 42.4192 29.1953 42.537 29.1163Z" fill="black"/>
<path d="M46.6187 48.9889C48.1101 48.3963 48.7773 46.1049 48.2278 43.5369C48.1886 43.4974 48.1493 43.4579 48.1101 43.4184C48.3848 45.5518 47.9531 47.3296 47.0896 47.4877C46.1085 47.6852 44.9703 45.8679 44.5386 43.4974C44.4993 43.3394 44.4993 43.1814 44.4601 43.0233H44.5778L46.2655 42.8258L44.7741 41.9566L44.3423 41.7196C44.3423 40.3764 44.6563 39.3492 45.2058 38.9936C45.0488 38.7171 44.8918 38.4405 44.6956 38.1639C43.7536 37.6108 42.851 37.4923 42.1053 37.8084C41.2418 38.1639 40.6139 39.0726 40.3784 40.3368C40.1429 41.6801 40.3391 43.2999 40.9671 44.8407C41.4381 46.0259 42.1053 47.0531 42.851 47.8037C42.851 47.8037 42.8902 47.8037 42.8902 47.8432C42.9687 47.8827 43.0472 47.9617 43.0864 48.0012C44.1854 48.9494 45.5198 49.4235 46.6187 48.9889ZM41.3596 34.4108C42.851 34.6873 43.9499 35.7145 44.6171 36.5046C44.8918 36.8207 45.1273 37.1763 45.3628 37.4923C45.3628 37.4923 45.3628 37.4923 45.3628 37.5318C45.6375 37.9269 45.8337 38.2825 46.03 38.638C46.187 38.8751 46.3047 39.1121 46.4617 39.3887L46.6579 39.7047C47.1681 40.5739 47.6784 41.443 48.3063 42.2727C49.0913 43.2604 49.8762 44.011 50.7789 44.5246C50.7004 43.853 50.5042 43.2209 50.1902 42.6283C50.0724 42.3912 50.1509 42.1147 50.3864 41.9961C50.6219 41.8776 50.8966 41.9566 51.0144 42.1937C51.4068 42.9443 51.6423 43.7345 51.6816 44.6036C51.6816 44.7221 51.7208 45.0777 51.4853 45.3543C51.3283 45.5123 51.1321 45.5913 50.9359 45.5913C50.7396 45.5913 50.5434 45.5123 50.3472 45.4333C49.9939 45.2357 49.6407 44.9987 49.2875 44.7221C49.523 47.2111 48.6203 49.305 46.9327 50.0161C46.5402 50.1741 46.1477 50.2532 45.7552 50.2532C44.6171 50.2532 43.4004 49.6606 42.3015 48.6729C40.7709 47.8432 39.3972 46.6975 38.3375 45.3543C38.1805 45.1567 38.2198 44.8407 38.416 44.6826C38.6123 44.5246 38.9262 44.5641 39.0832 44.7617C39.5149 45.3148 40.0252 45.8284 40.5746 46.3024C40.4176 45.9864 40.2214 45.6308 40.1037 45.2752C39.4365 43.5764 39.201 41.7986 39.4757 40.2578C39.7504 38.638 40.5746 37.4923 41.752 37.0182C42.3015 36.7812 42.9295 36.7417 43.5967 36.8602C43.0079 36.2676 42.223 35.675 41.2418 35.517C40.1429 35.3194 39.0047 35.7145 38.4945 36.5046C38.3375 36.7022 38.0628 36.7812 37.8666 36.6232C37.6703 36.4651 37.5918 36.1886 37.7488 35.9911C38.416 34.6478 39.9074 34.1342 41.3596 34.4108Z" fill="black"/>
<path d="M23.6128 111.543V124.329H18.1684V112.826C18.1684 112.367 18.0166 112.216 17.4956 112.216C16.395 112.216 15.5981 112.492 14.5285 113.071V124.326H9.08416V112.826C9.08416 112.367 8.93236 112.216 8.41138 112.216C7.31079 112.216 6.5138 112.492 5.44425 113.071V124.326H-9.15527e-05V107.81H5.44425V109.735C6.26884 108.786 7.37289 107.624 10.0019 107.624C12.5412 107.624 13.8868 108.389 14.3457 109.98C15.1116 108.879 16.5158 107.624 19.0862 107.624C22.3569 107.627 23.6128 108.883 23.6128 111.543Z" fill="black"/>
<path d="M26.4902 102H32.1795V106.188H26.4902V102ZM26.611 107.81H32.0553V124.326H26.611V107.81Z" fill="black"/>
<path d="M35.1743 107.81H40.6186V109.922C41.3224 108.973 42.5162 107.81 44.5035 107.81H46.2148V112.551H44.1964C42.7887 112.551 41.5984 112.764 40.6186 113.406V124.326H35.1743V107.81Z" fill="black"/>
<path d="M48.4197 107.81H53.8641V109.922C54.5679 108.973 55.7617 107.81 57.749 107.81H59.4602V112.551H57.4419C56.0342 112.551 54.8439 112.764 53.8641 113.406V124.326H48.4197V107.81Z" fill="black"/>
<path d="M60.8985 120.413V111.726C60.8985 109.066 62.1509 107.81 64.8144 107.81H71.5422C74.2023 107.81 75.4582 109.062 75.4582 111.726V120.413C75.4582 123.074 74.2057 124.329 71.5422 124.329H64.8144C62.1544 124.326 60.8985 123.074 60.8985 120.413ZM69.5239 120.044C69.9828 120.044 70.1346 119.893 70.1346 119.434V112.706C70.1346 112.247 69.9828 112.095 69.5239 112.095H66.8328C66.3739 112.095 66.2221 112.247 66.2221 112.706V119.434C66.2221 119.893 66.3739 120.044 66.8328 120.044H69.5239Z" fill="black"/>
<path d="M78.3048 107.81H83.7491V109.922C84.453 108.973 85.6467 107.81 87.634 107.81H89.3453V112.551H87.3269C85.9193 112.551 84.729 112.764 83.7491 113.406V124.326H78.3048V107.81Z" fill="black"/>
<path d="M104.899 123.222C104.909 123.45 104.999 123.964 104.833 124.154C104.629 124.385 104.102 124.323 103.833 124.316C102.801 124.285 101.769 124.302 100.738 124.316C100.693 123.615 100.638 122.918 100.607 122.218C100.607 122.166 100.6 122.118 100.586 122.073C100.551 121.918 100.458 121.807 100.344 121.732C100.337 121.725 100.327 121.721 100.32 121.714C100.313 121.711 100.31 121.707 100.303 121.704C100.127 121.594 99.9028 121.563 99.6992 121.694C99.6233 121.735 99.5578 121.79 99.5095 121.859C98.1053 123.222 96.3871 124.468 94.3722 124.602C93.5027 124.657 92.447 124.561 91.8915 123.795C91.3843 123.098 91.3705 122.135 91.3395 121.311C91.2636 119.103 91.1532 116.891 91.1256 114.679C91.1049 112.778 91.4913 110.581 93.6201 110.036C94.7379 109.749 95.904 109.998 96.9874 110.322C97.9224 110.605 98.985 110.95 99.5992 111.761C99.7958 112.085 100.279 112.133 100.534 111.899C100.731 111.757 100.827 111.516 100.689 111.264C100.634 110.042 100.579 108.821 100.524 107.596C100.496 106.965 100.465 106.334 100.438 105.702C100.424 105.402 100.41 105.102 100.4 104.802C100.389 104.605 100.272 104.108 100.382 103.946C100.455 103.836 101.624 103.918 101.859 103.915C102.518 103.905 103.177 103.887 103.836 103.891C103.991 103.891 104.309 103.853 104.433 103.984C104.564 104.122 104.516 104.491 104.519 104.667C104.536 105.343 104.536 106.016 104.533 106.692C104.523 109.314 104.374 111.94 104.471 114.562C104.564 117.091 104.747 119.613 104.854 122.142C104.868 122.501 104.885 122.863 104.899 123.222ZM100.517 117.15C100.589 116.173 100.614 115.197 100.593 114.217C100.589 114.141 100.576 114.076 100.551 114.017C100.548 113.927 100.52 113.834 100.455 113.741C100.065 113.155 99.4646 112.906 98.7849 112.82C98.126 112.734 97.3807 112.716 96.7528 112.972C95.2727 113.579 95.3693 115.532 95.2968 116.863C95.2244 118.188 94.8932 120.21 96.3698 120.914C97.084 121.255 97.8568 121.169 98.609 121.004C99.3094 120.845 99.9718 120.593 100.189 119.837C100.31 119.423 100.331 118.965 100.382 118.54C100.438 118.078 100.482 117.616 100.517 117.15Z" fill="#E4E3FD"/>
<path d="M100.593 114.217C100.614 115.197 100.59 116.174 100.517 117.15C100.483 117.616 100.438 118.078 100.383 118.54C100.331 118.965 100.31 119.424 100.189 119.838C99.972 120.593 99.3095 120.845 98.6092 121.004C97.857 121.169 97.0842 121.256 96.37 120.914C94.8933 120.21 95.2246 118.189 95.297 116.864C95.3695 115.532 95.2729 113.579 96.753 112.972C97.3809 112.717 98.1261 112.734 98.7851 112.82C99.4648 112.906 100.065 113.155 100.455 113.741C100.521 113.834 100.548 113.928 100.552 114.017C100.576 114.076 100.59 114.141 100.593 114.217ZM99.2474 118.126C99.382 116.857 99.4337 115.584 99.4096 114.311C99.1543 113.976 98.5885 113.969 98.2089 113.955C97.7294 113.941 97.1014 113.914 96.8254 114.39C96.5839 114.807 96.5874 115.37 96.5494 115.835C96.4977 116.474 96.4597 117.116 96.439 117.754C96.4252 118.271 96.3424 118.875 96.5011 119.379C96.646 119.851 97.0911 119.986 97.55 119.976C97.8467 119.969 98.133 119.9 98.4194 119.834C98.5816 119.796 98.8645 119.776 98.9887 119.644C99.1232 119.503 99.1163 119.189 99.1405 119.006C99.1819 118.713 99.2164 118.42 99.2474 118.126Z" fill="black"/>
<path d="M100.344 121.732C100.458 121.808 100.551 121.918 100.586 122.073C100.599 122.118 100.606 122.166 100.606 122.218C100.637 122.918 100.693 123.615 100.737 124.316C101.769 124.302 102.801 124.285 103.832 124.316C104.101 124.323 104.629 124.385 104.833 124.154C104.998 123.964 104.909 123.45 104.898 123.222C104.884 122.863 104.867 122.501 104.853 122.142C104.746 119.613 104.564 117.091 104.47 114.562C104.374 111.94 104.522 109.314 104.533 106.692C104.536 106.016 104.536 105.343 104.519 104.667C104.515 104.491 104.564 104.122 104.433 103.984C104.308 103.853 103.991 103.891 103.836 103.891C103.177 103.887 102.518 103.905 101.859 103.915C101.624 103.918 100.455 103.836 100.382 103.946C100.272 104.108 100.389 104.605 100.399 104.802C100.41 105.102 100.423 105.402 100.437 105.702C100.465 106.334 100.496 106.965 100.523 107.596C100.579 108.821 100.634 110.042 100.689 111.264C100.827 111.516 100.731 111.757 100.534 111.899C100.279 112.133 99.7955 112.085 99.5989 111.761C98.9847 110.95 97.9221 110.605 96.9871 110.322C95.9037 109.998 94.7376 109.749 93.6197 110.036C91.491 110.581 91.1046 112.778 91.1253 114.679C91.1529 116.891 91.2633 119.103 91.3392 121.311C91.3702 122.135 91.384 123.098 91.8912 123.795C92.4467 124.561 93.5024 124.657 94.3719 124.602C96.3868 124.468 98.1049 123.222 99.5092 121.859C99.5575 121.79 99.623 121.735 99.6989 121.694C99.9025 121.563 100.127 121.594 100.303 121.704C100.31 121.707 100.313 121.711 100.32 121.714C100.327 121.721 100.337 121.725 100.344 121.732ZM106.02 121.783C106.047 122.47 106.133 123.181 106.089 123.867C106.009 125.116 105.064 125.52 103.943 125.499C102.69 125.478 101.438 125.492 100.185 125.503C99.8542 125.506 99.6092 125.23 99.5954 124.913C99.5747 124.426 99.5368 123.94 99.5023 123.457C97.7289 124.947 95.5518 126.079 93.1781 125.734C92.1155 125.579 91.1563 125.033 90.6699 124.047C90.2006 123.088 90.1834 121.994 90.1489 120.952C90.1006 119.565 90.0557 118.178 90.0109 116.794C89.966 115.532 89.866 114.252 90.0316 112.996C90.1799 111.902 90.5664 110.819 91.3426 110.011C92.1224 109.194 93.2333 108.807 94.3443 108.738C95.5656 108.666 96.8146 108.994 97.96 109.397C98.4914 109.58 98.9985 109.804 99.454 110.094C99.3988 108.873 99.3435 107.648 99.2883 106.427C99.2538 105.633 99.1538 104.815 99.1883 104.022C99.2228 103.328 99.6265 102.842 100.33 102.766C101.069 102.687 101.835 102.735 102.576 102.725C103.211 102.714 103.918 102.618 104.539 102.763C105.971 103.097 105.713 104.836 105.716 105.957C105.726 109.004 105.537 112.057 105.675 115.104C105.74 116.553 105.847 117.999 105.92 119.444C105.957 120.224 105.985 121.004 106.02 121.783Z" fill="black"/>
</svg>