<svg viewBox="0 0 107 126" fill="none" xmlns="http://www.w3.org/2000/svg">
    <g clip-path="url(#clip0_674_813)">
    <path d="M48.109 43.7283C48.6593 46.3005 47.991 48.5958 46.4971 49.1894C45.3964 49.6247 44.0991 49.1894 42.9197 48.0813C42.8804 48.0022 42.8017 47.9626 42.7231 47.923C42.7231 47.923 42.7231 47.923 42.6838 47.8835C41.9369 47.1316 41.2685 46.1027 40.7968 44.9155C40.1678 43.3721 39.9712 41.7892 40.2071 40.4041C40.443 39.1378 41.0327 38.2276 41.9369 37.8714C42.6838 37.5548 43.6273 37.6735 44.5315 38.2276C44.7281 38.5442 44.8853 38.8212 45.0426 39.0586C44.4922 39.4148 44.1777 40.4437 44.1777 41.7892L44.6101 42.0266L46.104 42.8972L44.4136 43.0951H44.2956C44.3349 43.2534 44.3349 43.4117 44.3743 43.57C44.8067 45.9839 45.9861 47.7647 46.9296 47.5669C47.7945 47.4086 48.2269 45.6278 47.9517 43.4908C48.0697 43.6491 48.109 43.6887 48.109 43.7283Z" fill="white"/>
    <path d="M65.4065 45.2716C64.9741 46.1817 64.4237 46.9336 63.7947 47.5668C63.7947 47.5668 63.7947 47.5668 63.7554 47.5668C63.6768 47.6064 63.6375 47.6855 63.5982 47.7251C62.4188 48.7936 61.1214 49.2685 60.0207 48.8332C58.5268 48.2 57.8585 45.9443 58.4089 43.372C58.6054 43.1346 58.8413 42.8576 59.0379 42.6201C59.7062 41.7495 60.2566 40.8393 60.7676 39.9292L60.9249 39.6521C61.0821 39.4147 61.2001 39.1377 61.3573 38.9002C61.5146 38.6232 61.7111 38.3066 61.947 37.9505C62.4188 37.6735 62.8512 37.5152 63.2837 37.436C63.0085 38.0692 62.9692 38.8211 62.9692 39.4938L63.4016 39.7313L64.8955 40.6019L63.205 40.7998H63.0871C63.1264 40.9581 63.1264 41.1164 63.1657 41.3142C63.5982 43.4116 64.5417 45.0737 65.4065 45.2716Z" fill="white"/>
    <path d="M68.2371 44.3614C68.0405 44.2031 67.726 44.2427 67.5688 44.4405C67.1363 44.9946 66.6252 45.509 66.0749 45.9839C66.2321 45.6673 66.4287 45.3112 66.5466 44.955C67.2542 43.2533 67.4508 41.4725 67.1756 39.9292C66.8611 38.3067 66.0749 37.1591 64.8955 36.6842C64.3451 36.4467 63.7161 36.4072 63.0478 36.5259C63.6375 35.9323 64.4237 35.3783 65.4065 35.1804C66.5073 34.9825 67.6474 35.3783 68.1584 36.1697C68.3157 36.3676 68.5909 36.4467 68.8268 36.2884C69.0233 36.1301 69.102 35.8531 68.9447 35.6553C68.1978 34.5472 66.7039 33.9932 65.2493 34.3098C63.7554 34.5868 62.6546 35.6157 61.9863 36.4072C61.7111 36.7237 61.4753 37.0799 61.2394 37.3965C60.9642 37.7922 60.7676 38.1484 60.5711 38.5045C60.4138 38.7816 60.2566 39.019 60.1386 39.2564L59.9814 39.5335C59.4703 40.4041 58.9592 41.3143 58.3302 42.1057C57.544 43.1346 56.7577 43.8469 55.8535 44.3614C55.9322 43.6887 56.1287 43.0555 56.4432 42.4619C56.5612 42.2244 56.4825 41.9474 56.2467 41.8287C56.0108 41.71 55.7356 41.7891 55.6177 42.0266C55.2245 42.7785 54.9886 43.5699 54.91 44.401C54.91 44.5197 54.8707 44.8759 55.1066 45.1529C55.2638 45.3112 55.4211 45.3903 55.657 45.3903C55.8535 45.3903 56.0501 45.3507 56.2467 45.1924C56.6005 44.9946 56.9543 44.7571 57.3081 44.4801C57.0722 46.9732 57.9764 49.0706 59.6669 49.7829C60.06 49.9412 60.4531 50.0204 60.8463 50.0204C61.9863 50.0204 63.205 49.4268 64.2665 48.3979C65.7997 47.5668 67.1756 46.4588 68.2371 45.0737C68.4729 44.8363 68.4336 44.5197 68.2371 44.3614ZM53.023 11.6738C65.1707 11.6738 75.0775 27.3844 75.0775 46.6567C75.0775 65.9289 65.1707 81.6395 53.023 81.6395C40.836 81.6395 30.9685 65.9289 30.9685 46.6567C30.9685 27.3844 40.8753 11.6738 53.023 11.6738ZM66.1535 61.2988C66.2714 61.2196 66.2714 61.0613 66.1928 60.9822C66.1142 60.8635 65.9569 60.8635 65.8783 60.9426L49.3669 73.5665C49.249 73.6457 49.249 73.804 49.3276 73.8831C49.3669 73.9227 49.4455 73.9622 49.5242 73.9622C49.5635 73.9622 49.6421 73.9623 49.6814 73.9227L66.1535 61.2988ZM60.4138 70.9547C60.5318 70.8755 60.5318 70.7172 60.4531 70.6381C60.3745 70.5194 60.2173 70.5194 60.1386 70.5985L55.9322 73.7248C55.8142 73.804 55.8142 73.9623 55.8928 74.0414C55.9322 74.1205 56.0108 74.1601 56.0894 74.1601C56.1287 74.1601 56.168 74.1205 56.2073 74.1205L60.4138 70.9547ZM59.2344 17.0558C59.3524 16.9767 59.3524 16.8184 59.2737 16.7392C59.1951 16.6205 59.0379 16.6205 58.9592 16.6996L42.4479 29.284C42.3299 29.3631 42.3299 29.5214 42.4085 29.6005C42.4479 29.6401 42.5265 29.6797 42.6051 29.6797C42.6444 29.6797 42.723 29.6797 42.723 29.6401L59.2344 17.0558ZM57.3867 29.9171C57.5047 29.838 57.5047 29.6797 57.426 29.6005C57.3474 29.4818 57.1902 29.4818 57.1115 29.561L52.9051 32.6477C52.7871 32.7268 52.7871 32.8851 52.8658 32.9643C52.9051 33.0434 52.9837 33.0434 53.0623 33.0434C53.1016 33.0434 53.1409 33.0434 53.1803 33.0039L57.3867 29.9171ZM57.1509 58.4099C57.2688 58.3308 57.2688 58.1725 57.1902 58.0933C57.1115 57.9746 56.9543 57.9746 56.8757 58.0538L47.9516 64.9C47.8337 64.9791 47.8337 65.1374 47.9123 65.2165C47.9516 65.2561 48.0303 65.2957 48.1089 65.2957C48.1482 65.2957 48.1875 65.2957 48.2268 65.2561L57.1509 58.4099ZM56.0894 55.2441C56.2073 55.1649 56.2073 55.0066 56.1287 54.9275C56.0501 54.8088 55.8928 54.8088 55.8142 54.8879L51.6077 58.0142C51.4898 58.0933 51.4898 58.2516 51.5684 58.3308C51.6077 58.4099 51.6864 58.4495 51.765 58.4495C51.8043 58.4495 51.8829 58.4099 51.8829 58.4099L56.0894 55.2441ZM54.399 17.2537C54.5169 17.1745 54.5169 17.0162 54.4383 16.9371C54.3596 16.8184 54.2024 16.8184 54.1238 16.8975L45.1998 23.7833C45.0818 23.8624 45.0818 24.0207 45.1604 24.0999C45.1997 24.1394 45.2784 24.179 45.357 24.179C45.3963 24.179 45.4749 24.179 45.5143 24.1394L54.399 17.2537ZM51.4112 45.4299C51.6471 45.1529 51.6077 44.7967 51.6077 44.678C51.5291 43.8469 51.2932 43.0159 50.9394 42.264C50.8215 42.0266 50.5463 41.9474 50.3104 42.0661C50.0745 42.1849 49.9959 42.4619 50.1139 42.6993C50.4284 43.2929 50.6249 43.9657 50.7035 44.5988C49.8387 44.0844 49.0131 43.3325 48.2268 42.3432C47.5978 41.5121 47.0475 40.6019 46.5757 39.7709L46.3791 39.4543C46.2219 39.2169 46.1039 38.9399 45.9467 38.7024C45.7501 38.3858 45.5536 37.9901 45.2784 37.5944C45.2784 37.5944 45.2784 37.5944 45.2784 37.5548C45.0818 37.2382 44.8066 36.882 44.5314 36.5655C43.8631 35.774 42.7624 34.7847 41.2685 34.4681C39.8139 34.1911 38.32 34.7451 37.5731 35.8136C37.4158 36.0114 37.4944 36.328 37.691 36.4467C37.8876 36.605 38.2021 36.5259 38.32 36.328C38.8704 35.5365 40.0105 35.1408 41.0719 35.3387C42.0547 35.5365 42.841 36.1301 43.4307 36.6842C42.8017 36.5655 42.1727 36.6446 41.583 36.8425C40.4036 37.3173 39.6173 38.465 39.3028 40.0875C39.0276 41.6308 39.2635 43.4116 39.9318 45.1133C40.0891 45.4695 40.2463 45.8256 40.4036 46.1422C39.8532 45.6673 39.3421 45.1529 38.9097 44.5988C38.7524 44.401 38.4379 44.3614 38.2414 44.5197C38.0448 44.678 38.0055 44.9946 38.1628 45.1924C39.2635 46.5379 40.6395 47.6856 42.1333 48.5166C43.1948 49.5455 44.4135 50.0995 45.5929 50.0995C45.986 50.0995 46.4184 50.0204 46.7723 49.8621C48.4627 49.1498 49.3276 47.092 49.131 44.5593C49.4848 44.8363 49.7994 45.0737 50.1925 45.2716C50.389 45.3903 50.5856 45.4299 50.7822 45.4299C51.0967 45.6673 51.2932 45.5882 51.4112 45.4299Z" fill="#E4E3FD"/>
    <path d="M72.876 20.5781C76.8466 27.8596 79.0088 37.0801 79.0088 46.6965C79.0088 63.3568 72.4042 78.3551 62.4581 84.3307C62.5367 84.6077 62.6153 84.9243 62.6153 85.2409C62.6153 86.903 61.2394 88.288 59.5883 88.288C58.9986 88.288 58.4089 88.1297 57.9371 87.8131C57.9764 87.9714 57.9764 88.1693 57.9764 88.3276C57.9764 91.0582 55.7749 93.2743 53.0623 93.2743C50.3497 93.2743 48.1482 91.0582 48.1482 88.3276C48.1482 88.1693 48.1482 87.9714 48.1875 87.8131C47.7158 88.1297 47.1261 88.288 46.5364 88.288C44.8853 88.288 43.5093 86.9425 43.5093 85.2409C43.5093 84.9243 43.5486 84.6077 43.6666 84.3307C33.6811 78.3156 27.0372 63.3173 27.0372 46.6965C27.0372 37.001 29.2387 27.7013 33.288 20.3802C33.0914 20.2615 32.9735 20.1032 32.8162 19.9449C31.4796 18.4411 30.7326 16.3833 30.5361 14.2068C30.4574 12.6634 30.654 11.0805 31.2044 9.65582C31.283 9.41838 31.5582 8.74564 32.2265 8.66649C32.9342 8.58735 33.3666 9.18095 33.7597 9.73497C33.917 9.93284 34.0742 10.1307 34.1529 10.2494C34.8998 10.9617 35.8433 11.5553 37.062 12.1094C37.6517 12.3864 38.2807 12.6238 38.8704 12.8217C40.3643 11.3179 41.9368 10.0516 43.5879 9.06223C43.5093 8.74564 43.4307 8.46863 43.4307 8.15204C43.4307 6.48996 44.8066 5.10489 46.4578 5.10489C47.0475 5.10489 47.6372 5.26319 48.1089 5.57977C48.1089 5.42148 48.0696 5.22361 48.0696 5.06532C48.0696 2.33476 50.2711 0.118652 52.9837 0.118652C55.6963 0.118652 57.8978 2.33476 57.8978 5.06532C57.8978 5.22361 57.8978 5.42148 57.8585 5.57977C58.3302 5.26319 58.9199 5.10489 59.5096 5.10489C61.2001 5.10489 62.5367 6.48996 62.5367 8.15204C62.5367 8.46863 62.4974 8.78521 62.3795 9.06223C64.0699 10.0911 65.7211 11.3971 67.2543 12.98C67.8833 12.7821 68.4729 12.5447 69.102 12.2677C70.3207 11.7136 71.2642 11.12 72.0111 10.4077C72.129 10.289 72.2863 10.0911 72.4042 9.89326C72.7974 9.33924 73.2298 8.74564 73.9374 8.82479C74.6058 8.90393 74.8809 9.57668 74.9596 9.81412C75.5099 11.2388 75.7065 12.8217 75.5886 14.3651C75.4313 16.502 74.6451 18.5994 73.3084 20.1032C73.2691 20.2219 73.1119 20.4198 72.876 20.5781ZM75.0775 46.6965C75.0775 27.3847 65.1707 11.7136 53.023 11.7136C40.836 11.7136 30.9685 27.4242 30.9685 46.6965C30.9685 65.9687 40.8753 81.6793 53.023 81.6793C65.21 81.6793 75.0775 65.9687 75.0775 46.6965Z" fill="black"/>
    <path d="M60.1386 70.5988C60.2566 70.5197 60.3745 70.5592 60.4531 70.6384C60.5317 70.7571 60.4924 70.8758 60.4138 70.955L56.2073 74.0813C56.168 74.1208 56.1287 74.1208 56.0894 74.1208C56.0108 74.1208 55.9321 74.0813 55.8928 74.0021C55.8142 73.8834 55.8535 73.7647 55.9321 73.6855L60.1386 70.5988Z" fill="black"/>
    <path d="M63.7946 47.5672C64.3843 46.9736 64.9347 46.1821 65.4064 45.272C64.5416 45.0345 63.598 43.412 63.2049 41.275C63.1656 41.1168 63.1263 40.9585 63.1263 40.7606H63.2442L64.9347 40.5627L63.4408 39.6921L63.0083 39.4547C63.0083 38.7819 63.0477 38.03 63.3229 37.3969C62.8904 37.476 62.4187 37.6343 61.9862 37.9113C61.7503 38.2279 61.5538 38.5841 61.3965 38.8611C61.2393 39.1381 61.082 39.3755 60.9641 39.613L60.8068 39.89C60.2958 40.7606 59.7454 41.7104 59.0771 42.581C58.8805 42.858 58.6446 43.0954 58.4481 43.3329C57.8977 45.9051 58.566 48.1608 60.0599 48.794C61.1606 49.2293 62.458 48.7544 63.6374 47.6859C63.6374 47.6859 63.716 47.6068 63.7946 47.5672ZM68.9839 35.6161C69.1412 35.8139 69.1018 36.1305 68.866 36.2492C68.6694 36.4075 68.3549 36.368 68.1976 36.1305C67.6473 35.339 66.5072 34.9433 65.4457 35.1412C64.4629 35.339 63.6767 35.9326 63.087 36.4867C63.716 36.368 64.345 36.4471 64.9347 36.645C66.1141 37.1198 66.9396 38.2675 67.2148 39.89C67.49 41.4333 67.2541 43.2141 66.5858 44.9158C66.4286 45.272 66.2713 45.6281 66.1141 45.9447C66.6644 45.4698 67.1755 44.9554 67.608 44.4013C67.7652 44.2035 68.0797 44.1639 68.2763 44.3222C68.4728 44.4805 68.5121 44.7971 68.3549 44.9949C67.2541 46.38 65.8782 47.4881 64.3843 48.3191C63.3229 49.348 62.1042 49.9416 60.9641 49.9416C60.5316 49.9416 60.1385 49.8625 59.7847 49.7042C58.0942 48.9918 57.2294 46.934 57.4259 44.4013C57.0721 44.6783 56.7183 44.9158 56.3645 45.1137C56.1679 45.2324 55.932 45.3115 55.7748 45.3115C55.5782 45.3115 55.3817 45.2324 55.2244 45.0741C54.9885 44.7971 55.0278 44.4409 55.0278 44.3222C55.1065 43.4912 55.3423 42.6997 55.7355 41.9478C55.8534 41.7104 56.1286 41.6312 56.3645 41.7499C56.6004 41.8686 56.679 42.1457 56.561 42.3831C56.2465 42.9767 56.05 43.6494 55.9714 44.2826C56.8362 43.7682 57.6618 43.0163 58.4481 42.0269C59.0771 41.1959 59.6274 40.3253 60.0992 39.4547L60.2565 39.1777C60.4137 38.9006 60.571 38.6632 60.6889 38.4258C60.8855 38.1092 61.082 37.7134 61.3572 37.3177C61.5931 37.0011 61.829 36.645 62.1042 36.3284C62.7725 35.5369 63.9125 34.5476 65.3671 34.231C66.7431 33.954 68.237 34.508 68.9839 35.6161Z" fill="black"/>
    <path d="M57.3866 29.9174L53.1408 33.0437C53.1015 33.0832 53.0622 33.0832 53.0229 33.0832C52.9442 33.0832 52.8656 33.0437 52.8263 33.0041C52.7477 32.8854 52.787 32.7666 52.8656 32.6875L57.0721 29.5612C57.19 29.4821 57.308 29.5216 57.3866 29.6008C57.5438 29.6799 57.5045 29.8382 57.3866 29.9174Z" fill="black"/>
    <path d="M65.8783 60.9428C65.9963 60.8637 66.1142 60.9032 66.1928 60.9824C66.2715 61.1011 66.2321 61.2198 66.1535 61.299L49.6421 73.9229C49.6028 73.9624 49.5635 73.9624 49.4849 73.9624C49.4063 73.9624 49.3276 73.9228 49.2883 73.8833C49.2097 73.7646 49.2097 73.6458 49.3276 73.5667L65.8783 60.9428Z" fill="black"/>
    <path d="M56.8758 58.0146C56.9937 57.9354 57.1117 57.975 57.1903 58.0541C57.2689 58.1729 57.2689 58.2916 57.151 58.3707L48.227 65.2565C48.1877 65.2961 48.1483 65.2961 48.109 65.2961C48.0304 65.2961 47.9518 65.2565 47.9125 65.2169C47.8338 65.0982 47.8338 64.9795 47.9518 64.9003L56.8758 58.0146Z" fill="black"/>
    <path d="M54.1239 16.8979C54.2418 16.8187 54.3597 16.8583 54.4384 16.9375C54.517 17.0562 54.517 17.1749 54.399 17.254L45.5143 24.1398C45.475 24.1794 45.4357 24.1794 45.3571 24.1794C45.2785 24.1794 45.2392 24.1398 45.1605 24.1002C45.0819 23.9815 45.1212 23.8628 45.1998 23.7836L54.1239 16.8979Z" fill="black"/>
    <path d="M42.4479 29.2842L58.9593 16.6603C59.0379 16.5812 59.1951 16.6208 59.2738 16.6999C59.3524 16.8186 59.3131 16.9373 59.2344 17.0165L42.7231 29.6404C42.6837 29.68 42.6444 29.68 42.6051 29.68C42.5265 29.68 42.4479 29.6404 42.4086 29.6008C42.3299 29.5217 42.3299 29.3634 42.4479 29.2842Z" fill="black"/>
    <path d="M46.5363 49.1892C48.0302 48.5956 48.6986 46.3004 48.1482 43.7281C48.1089 43.6885 48.0695 43.649 48.0302 43.6094C48.3054 45.7463 47.873 47.5271 47.0081 47.6854C46.0253 47.8833 44.8852 46.0629 44.4528 43.6885C44.4135 43.5302 44.4135 43.3719 44.3741 43.2136H44.4921L46.1825 43.0158L44.6886 42.1452L44.2562 41.9077C44.2562 40.5622 44.5707 39.5333 45.1211 39.1772C44.9638 38.9002 44.8066 38.6231 44.61 38.3461C43.6665 37.7921 42.7623 37.6734 42.0154 37.99C41.1505 38.3461 40.5215 39.2563 40.2856 40.5227C40.0497 41.8682 40.2463 43.4907 40.8753 45.034C41.3471 46.2212 42.0154 47.2501 42.7623 48.002C42.7623 48.002 42.8016 48.002 42.8016 48.0416C42.8803 48.0812 42.9589 48.1603 42.9982 48.1999C44.0989 49.1496 45.4356 49.6245 46.5363 49.1892ZM41.2684 34.5867C42.7623 34.8637 43.8631 35.8926 44.5314 36.684C44.8066 37.0006 45.0425 37.3568 45.2783 37.6734C45.2783 37.6734 45.2783 37.6734 45.2783 37.713C45.5535 38.1087 45.7501 38.4649 45.9467 38.821C46.1039 39.0585 46.2218 39.2959 46.3791 39.5729L46.5757 39.8895C47.0867 40.7601 47.5978 41.6307 48.2268 42.4618C49.0131 43.4511 49.7993 44.203 50.7035 44.7174C50.6249 44.0447 50.4283 43.4115 50.1138 42.8179C49.9959 42.5805 50.0745 42.3035 50.3104 42.1847C50.5463 42.066 50.8214 42.1452 50.9394 42.3826C51.3325 43.1345 51.5684 43.926 51.6077 44.7966C51.6077 44.9153 51.647 45.2715 51.4111 45.5485C51.2539 45.7068 51.0573 45.7859 50.8608 45.7859C50.6642 45.7859 50.4676 45.7068 50.2711 45.6276C49.9172 45.4298 49.5634 45.1923 49.2096 44.9153C49.4455 47.4084 48.5413 49.5058 46.8508 50.2181C46.4577 50.3764 46.0646 50.4556 45.6715 50.4556C44.5314 50.4556 43.3127 49.862 42.2119 48.8726C40.6787 48.0416 39.3028 46.894 38.2413 45.5485C38.0841 45.3506 38.1234 45.034 38.32 44.8757C38.5165 44.7174 38.831 44.757 38.9883 44.9549C39.4207 45.5089 39.9318 46.0234 40.4822 46.4982C40.3249 46.1817 40.1284 45.8255 40.0104 45.4693C39.3421 43.7677 39.1062 41.9869 39.3814 40.4435C39.6566 38.821 40.4822 37.6734 41.6616 37.1985C42.2119 36.9611 42.8409 36.9215 43.5093 37.0402C42.9196 36.4466 42.1333 35.853 41.1505 35.6947C40.0497 35.4969 38.9097 35.8926 38.3986 36.684C38.2413 36.8819 37.9661 36.9611 37.7696 36.8028C37.573 36.6445 37.4944 36.3675 37.6516 36.1696C38.32 34.8241 39.8139 34.3097 41.2684 34.5867Z" fill="black"/>
    </g>
    <path d="M23.6127 111.523V124.309H18.1684V112.806C18.1684 112.347 18.0166 112.196 17.4956 112.196C16.395 112.196 15.598 112.472 14.5285 113.051V124.306H9.08413V112.806C9.08413 112.347 8.93233 112.196 8.41135 112.196C7.31075 112.196 6.51377 112.472 5.44422 113.051V124.306H-0.00012207V107.79H5.44422V109.715C6.26881 108.766 7.37286 107.604 10.0019 107.604C12.5412 107.604 13.8868 108.369 14.3456 109.96C15.1116 108.859 16.5158 107.604 19.0861 107.604C22.3569 107.607 23.6127 108.863 23.6127 111.523Z" fill="black"/>
    <path d="M26.4902 101.98H32.1795V106.168H26.4902V101.98ZM26.611 107.79H32.0553V124.306H26.611V107.79Z" fill="black"/>
    <path d="M35.1742 107.79H40.6185V109.902C41.3224 108.953 42.5161 107.79 44.5034 107.79H46.2147V112.531H44.1964C42.7887 112.531 41.5984 112.744 40.6185 113.386V124.306H35.1742V107.79Z" fill="black"/>
    <path d="M48.4197 107.79H53.864V109.902C54.5679 108.953 55.7616 107.79 57.7489 107.79H59.4602V112.531H57.4418C56.0342 112.531 54.8439 112.744 53.864 113.386V124.306H48.4197V107.79Z" fill="black"/>
    <path d="M60.8984 120.393V111.706C60.8984 109.046 62.1508 107.79 64.8144 107.79H71.5422C74.2022 107.79 75.4581 109.042 75.4581 111.706V120.393C75.4581 123.054 74.2057 124.309 71.5422 124.309H64.8144C62.1543 124.306 60.8984 123.054 60.8984 120.393ZM69.5238 120.024C69.9827 120.024 70.1345 119.872 70.1345 119.414V112.686C70.1345 112.227 69.9827 112.075 69.5238 112.075H66.8327C66.3738 112.075 66.222 112.227 66.222 112.686V119.414C66.222 119.872 66.3738 120.024 66.8327 120.024H69.5238Z" fill="black"/>
    <path d="M78.3048 107.79H83.7492V109.902C84.453 108.953 85.6467 107.79 87.634 107.79H89.3453V112.531H87.327C85.9193 112.531 84.729 112.744 83.7492 113.386V124.306H78.3048V107.79Z" fill="black"/>
    <path d="M104.899 123.202C104.909 123.43 104.999 123.944 104.833 124.134C104.629 124.365 104.102 124.303 103.832 124.296C102.801 124.265 101.769 124.282 100.738 124.296C100.693 123.595 100.638 122.898 100.607 122.198C100.607 122.146 100.6 122.098 100.586 122.053C100.551 121.898 100.458 121.787 100.344 121.712C100.337 121.705 100.327 121.701 100.32 121.694C100.313 121.691 100.31 121.687 100.303 121.684C100.127 121.574 99.9027 121.543 99.6992 121.674C99.6233 121.715 99.5577 121.77 99.5094 121.839C98.1052 123.202 96.387 124.448 94.3721 124.582C93.5027 124.637 92.4469 124.541 91.8915 123.775C91.3843 123.078 91.3705 122.115 91.3394 121.291C91.2635 119.083 91.1531 116.871 91.1255 114.659C91.1048 112.758 91.4912 110.561 93.62 110.016C94.7378 109.729 95.904 109.978 96.9873 110.302C97.9223 110.585 98.985 110.93 99.5991 111.741C99.7958 112.065 100.279 112.113 100.534 111.879C100.731 111.737 100.827 111.496 100.689 111.244C100.634 110.022 100.579 108.801 100.524 107.576C100.496 106.945 100.465 106.314 100.437 105.682C100.424 105.382 100.41 105.082 100.4 104.782C100.389 104.585 100.272 104.088 100.382 103.926C100.455 103.816 101.624 103.898 101.859 103.895C102.518 103.885 103.177 103.867 103.836 103.871C103.991 103.871 104.309 103.833 104.433 103.964C104.564 104.102 104.516 104.471 104.519 104.647C104.536 105.323 104.536 105.996 104.533 106.672C104.522 109.294 104.374 111.92 104.471 114.542C104.564 117.071 104.747 119.593 104.854 122.122C104.867 122.481 104.885 122.843 104.899 123.202ZM100.517 117.13C100.589 116.153 100.613 115.177 100.593 114.197C100.589 114.121 100.575 114.056 100.551 113.997C100.548 113.907 100.52 113.814 100.455 113.721C100.065 113.134 99.4646 112.886 98.7849 112.8C98.1259 112.714 97.3807 112.696 96.7527 112.952C95.2726 113.559 95.3692 115.512 95.2968 116.843C95.2243 118.168 94.8931 120.19 96.3698 120.894C97.0839 121.235 97.8568 121.149 98.6089 120.984C99.3093 120.825 99.9717 120.573 100.189 119.817C100.31 119.403 100.331 118.945 100.382 118.52C100.437 118.058 100.482 117.596 100.517 117.13Z" fill="#E4E3FD"/>
    <path d="M100.593 114.197C100.614 115.177 100.589 116.154 100.517 117.13C100.483 117.596 100.438 118.058 100.382 118.52C100.331 118.945 100.31 119.404 100.189 119.818C99.9719 120.573 99.3094 120.825 98.6091 120.984C97.8569 121.149 97.0841 121.236 96.3699 120.894C94.8933 120.19 95.2245 118.168 95.2969 116.844C95.3694 115.512 95.2728 113.559 96.7529 112.952C97.3808 112.697 98.126 112.714 98.785 112.8C99.4647 112.886 100.065 113.135 100.455 113.721C100.52 113.814 100.548 113.908 100.552 113.997C100.576 114.056 100.589 114.121 100.593 114.197ZM99.2473 118.106C99.3819 116.837 99.4337 115.564 99.4095 114.291C99.1542 113.956 98.5884 113.949 98.2088 113.935C97.7293 113.921 97.1014 113.894 96.8253 114.37C96.5838 114.787 96.5873 115.35 96.5493 115.815C96.4976 116.454 96.4596 117.095 96.4389 117.734C96.4251 118.251 96.3423 118.855 96.501 119.359C96.6459 119.831 97.091 119.966 97.5499 119.956C97.8466 119.949 98.133 119.88 98.4193 119.814C98.5815 119.776 98.8644 119.756 98.9886 119.624C99.1231 119.483 99.1162 119.169 99.1404 118.986C99.1818 118.693 99.2163 118.4 99.2473 118.106Z" fill="black"/>
    <path d="M100.344 121.712C100.458 121.787 100.551 121.898 100.586 122.053C100.599 122.098 100.606 122.146 100.606 122.198C100.637 122.898 100.693 123.595 100.737 124.296C101.769 124.282 102.801 124.265 103.832 124.296C104.101 124.303 104.629 124.365 104.833 124.134C104.998 123.944 104.909 123.43 104.898 123.202C104.884 122.843 104.867 122.481 104.853 122.122C104.746 119.593 104.564 117.071 104.47 114.542C104.374 111.92 104.522 109.294 104.533 106.672C104.536 105.996 104.536 105.323 104.519 104.647C104.515 104.471 104.564 104.102 104.432 103.964C104.308 103.833 103.991 103.871 103.836 103.871C103.177 103.867 102.518 103.885 101.859 103.895C101.624 103.898 100.454 103.816 100.382 103.926C100.272 104.088 100.389 104.585 100.399 104.782C100.41 105.082 100.423 105.382 100.437 105.682C100.465 106.314 100.496 106.945 100.523 107.576C100.579 108.801 100.634 110.022 100.689 111.244C100.827 111.496 100.73 111.737 100.534 111.879C100.279 112.113 99.7955 112.065 99.5988 111.741C98.9847 110.93 97.922 110.585 96.9871 110.302C95.9037 109.978 94.7376 109.729 93.6197 110.016C91.491 110.561 91.1045 112.758 91.1252 114.659C91.1528 116.871 91.2632 119.083 91.3392 121.291C91.3702 122.115 91.384 123.078 91.8912 123.775C92.4467 124.541 93.5024 124.637 94.3718 124.582C96.3867 124.448 98.1049 123.202 99.5091 121.839C99.5574 121.77 99.623 121.715 99.6989 121.674C99.9024 121.543 100.127 121.574 100.303 121.684C100.31 121.687 100.313 121.691 100.32 121.694C100.327 121.701 100.337 121.705 100.344 121.712ZM106.02 121.763C106.047 122.45 106.133 123.161 106.089 123.847C106.009 125.096 105.064 125.5 103.943 125.479C102.69 125.458 101.438 125.472 100.185 125.483C99.8541 125.486 99.6092 125.21 99.5954 124.893C99.5747 124.406 99.5367 123.92 99.5022 123.437C97.7288 124.927 95.5518 126.059 93.1781 125.714C92.1154 125.559 91.1563 125.013 90.6698 124.027C90.2006 123.067 90.1834 121.974 90.1489 120.932C90.1006 119.545 90.0557 118.158 90.0109 116.774C89.966 115.512 89.8659 114.232 90.0316 112.976C90.1799 111.882 90.5663 110.799 91.3426 109.991C92.1223 109.174 93.2333 108.787 94.3442 108.718C95.5656 108.646 96.8145 108.974 97.96 109.377C98.4913 109.56 98.9985 109.784 99.4539 110.074C99.3987 108.853 99.3435 107.628 99.2883 106.407C99.2538 105.613 99.1538 104.795 99.1883 104.002C99.2228 103.308 99.6264 102.822 100.33 102.746C101.069 102.667 101.835 102.715 102.576 102.705C103.211 102.694 103.918 102.598 104.539 102.743C105.971 103.077 105.713 104.816 105.716 105.937C105.726 108.984 105.537 112.037 105.675 115.084C105.74 116.533 105.847 117.979 105.92 119.424C105.957 120.204 105.985 120.984 106.02 121.763Z" fill="black"/>
    <defs>
    <clipPath id="clip0_674_813">
    <rect width="52.1681" height="93.3535" fill="white" transform="translate(26.9586)"/>
    </clipPath>
    </defs>
</svg>