<svg class="w-full h-auto" viewBox="0 0 86 87" fill="none" xmlns="http://www.w3.org/2000/svg">
<g filter="url(#filter0_d_596_1884)">
<rect x="0.398438" y="42.3145" width="59.3814" height="60.9807" rx="4.97215" transform="rotate(-45 0.398438 42.3145)" fill="#E4E3FD"/>
<rect x="1.57674" y="42.3145" width="57.715" height="59.3144" rx="4.13897" transform="rotate(-45 1.57674 42.3145)" stroke="black" stroke-width="1.66637"/>
</g>
<path d="M25.3543 54.1549C24.3538 54.1549 23.0174 54.0816 22.0302 53.2785C20.6934 52.1907 20.5698 50.3859 20.5587 48.7788C20.5425 46.3798 20.528 43.2919 20.5135 40.2048C20.4986 37.1348 20.4841 34.0648 20.4683 31.6717C20.2897 30.2028 20.6265 28.9922 21.4697 28.0723C24.0708 25.2351 31.0735 25.5121 40.7635 25.8941C45.5348 26.0833 50.9428 26.2982 56.5483 26.1439C58.273 26.0987 60.2219 26.0458 61.7194 27.1874C63.5899 28.6145 63.8661 31.1491 63.8857 33.6752L63.9931 47.3167C64.0068 49.0704 63.9317 50.7525 62.8746 52.0534C61.4883 53.7585 59.1451 53.9205 57.0581 53.9393C53.0346 53.9742 47.3004 54.0092 41.5491 54.045C35.6819 54.0808 29.7968 54.1174 25.6931 54.1532C25.5857 54.1541 25.4723 54.1549 25.3543 54.1549ZM32.2667 26.9683C27.4391 26.9683 23.876 27.3852 22.4352 28.9572C21.8486 29.5975 21.6316 30.4441 21.7723 31.5464C21.7753 31.572 21.7774 31.5984 21.7774 31.6248C21.7936 34.022 21.8081 37.1068 21.8226 40.1913L21.8226 40.1989C21.8238 40.4404 21.8249 40.682 21.8261 40.9232C21.8398 43.764 21.8533 46.559 21.8682 48.7703C21.8772 50.0781 21.9616 51.5342 22.8563 52.2623C23.5379 52.8173 24.5831 52.8557 25.6812 52.8437C29.7862 52.8079 35.6726 52.7713 41.541 52.7355C41.9195 52.7331 42.2979 52.7308 42.6757 52.7284C48.0383 52.6951 53.2891 52.6624 57.0466 52.6297C58.8357 52.6136 60.831 52.4908 61.8584 51.2273C62.6418 50.2639 62.6955 48.8325 62.6836 47.3269L62.5762 33.6854C62.56 31.6428 62.4176 29.3673 60.9248 28.2292C59.7948 27.3664 58.163 27.4107 56.5837 27.4534C50.936 27.606 45.5032 27.3928 40.7119 27.2027C37.6351 27.0808 34.7795 26.9683 32.2667 26.9683Z" fill="black"/>
<path d="M32.2667 26.9683C27.4391 26.9683 23.876 27.3852 22.4352 28.9572C21.8486 29.5975 21.6316 30.4441 21.7723 31.5464C21.7753 31.572 21.7774 31.5984 21.7774 31.6248C21.7936 34.022 21.8081 37.1068 21.8226 40.1913L21.8226 40.1989L21.8261 40.9232C21.8398 43.764 21.8533 46.559 21.8682 48.7703C21.8772 50.0781 21.9616 51.5342 22.8563 52.2623C23.5379 52.8173 24.5831 52.8557 25.6812 52.8437C29.7862 52.8079 35.6726 52.7713 41.541 52.7355L42.6757 52.7284C48.0383 52.6951 53.2891 52.6624 57.0466 52.6297C58.8357 52.6136 60.831 52.4908 61.8584 51.2273C62.6418 50.2639 62.6955 48.8325 62.6836 47.3269L62.5762 33.6854C62.56 31.6428 62.4176 29.3673 60.9248 28.2292C59.7948 27.3664 58.163 27.4107 56.5837 27.4534C50.936 27.606 45.5032 27.3928 40.7119 27.2027C37.6351 27.0808 34.7795 26.9683 32.2667 26.9683Z" fill="#756DF3"/>
<path d="M63.045 49.3642H21.3579C20.9964 49.3642 20.7031 49.0709 20.7031 48.7094C20.7031 48.348 20.9964 48.0547 21.3579 48.0547H63.045C63.4065 48.0547 63.6997 48.348 63.6997 48.7094C63.6997 49.0709 63.4065 49.3642 63.045 49.3642Z" fill="black"/>
<path d="M51.4894 62.3141C51.4647 62.3141 51.44 62.3141 51.4161 62.3141L32.9778 62.2723C32.5195 62.2715 30.9756 62.1905 30.34 61.199C30.1209 60.8571 29.9359 60.2816 30.3008 59.4837C30.7961 58.3975 32.0396 57.8221 33.6261 57.9593C36.9532 58.2304 40.4256 58.1256 43.4896 58.0309C45.5481 57.9687 47.4441 57.8647 49.286 57.7129L49.3397 58.3651L49.3457 57.7078C50.0636 57.6473 50.8074 57.5859 51.5657 57.7368C52.5338 57.9286 53.3173 58.4572 53.7158 59.1887C54.2342 60.1393 53.9806 61.3703 53.1502 61.9305C52.6063 62.2971 51.972 62.3141 51.4894 62.3141ZM33.2063 59.2518C32.676 59.2518 31.7974 59.3583 31.4918 60.0276C31.3473 60.3439 31.4189 60.4556 31.4424 60.4922C31.6103 60.7548 32.2859 60.9611 32.9808 60.9628L51.4187 61.0046C51.8509 61.0234 52.197 60.9944 52.4178 60.8452C52.689 60.6619 52.7597 60.1708 52.5658 59.8153C52.3573 59.4325 51.8884 59.135 51.3112 59.0207C50.7332 58.9074 50.1121 58.9585 49.4544 59.0122C49.454 59.0122 49.3939 59.0173 49.3935 59.0173C47.5289 59.1716 45.6107 59.2774 43.5293 59.3404C40.4307 59.4334 36.9191 59.5425 33.5191 59.2637C33.4445 59.2577 33.3358 59.2518 33.2063 59.2518Z" fill="black"/>
<path d="M37.0927 58.872C36.9099 58.872 36.7278 58.7961 36.5983 58.6469C36.3608 58.3741 36.3898 57.9606 36.6626 57.7236C37.8182 56.7176 38.2091 55.0935 37.6141 53.7738C37.4653 53.4439 37.6119 53.056 37.9419 52.9076C38.2726 52.7593 38.6593 52.9051 38.8076 53.235C39.6384 55.0782 39.1098 57.3298 37.522 58.7109C37.3979 58.8191 37.2449 58.872 37.0927 58.872Z" fill="black"/>
<path d="M46.8313 58.872C46.6791 58.872 46.5261 58.8191 46.402 58.7109C44.8142 57.3298 44.2856 55.0782 45.1164 53.235C45.2647 52.9051 45.6522 52.7593 45.9822 52.9076C46.3121 53.056 46.4587 53.4439 46.31 53.7738C45.7149 55.0935 46.1058 56.7176 47.2614 57.7236C47.5342 57.9606 47.5632 58.3741 47.3258 58.6469C47.1962 58.7961 47.0142 58.872 46.8313 58.872Z" fill="black"/>
<path d="M34.0411 36.8714C33.6856 36.8714 33.394 36.5866 33.3868 36.2294C33.3599 34.8816 33.3719 33.5209 33.4222 32.1645C33.3169 32.2932 33.2146 32.4237 33.1148 32.5558C32.8974 32.8448 32.4874 32.9037 32.1979 32.6837C31.9093 32.4654 31.8518 32.0554 32.0696 31.7664C32.5615 31.115 33.117 30.502 33.7197 29.9453C33.9171 29.7637 34.2035 29.7203 34.4448 29.8345C34.6865 29.9496 34.834 30.1994 34.8173 30.4671C34.6993 32.37 34.6583 34.3001 34.6963 36.2038C34.7035 36.5653 34.4162 36.8637 34.0548 36.8714C34.0501 36.8714 34.0458 36.8714 34.0411 36.8714Z" fill="#FAFAFD"/>
<path d="M37.8585 37.1841C37.1031 37.1841 36.3499 36.7203 35.9193 35.9829C35.5344 35.3238 35.4466 34.5753 35.4138 33.9964C35.3814 33.4295 35.3776 32.6852 35.638 31.9623C35.9334 31.1413 36.6657 30.4482 37.5034 30.1967C38.2187 29.9835 38.931 30.1037 39.5094 30.536C40.931 31.6008 40.4873 33.9325 40.2302 34.8856C40.0665 35.4926 39.85 35.9488 39.5486 36.3205C39.1262 36.8397 38.5413 37.1534 37.9437 37.1824C37.9156 37.1841 37.887 37.1841 37.8585 37.1841ZM38.1909 31.403C38.0912 31.403 37.9872 31.4192 37.8798 31.4516C37.4399 31.5829 37.0247 31.9759 36.8699 32.4056C36.7293 32.7961 36.6832 33.2641 36.7212 33.9214C36.7459 34.3537 36.8056 34.9044 37.0498 35.323C37.2476 35.6606 37.5797 35.8703 37.8819 35.8746C38.104 35.8635 38.3474 35.722 38.532 35.4944C38.7136 35.271 38.8517 34.9692 38.9659 34.5446C39.2536 33.4781 39.3628 32.0629 38.7242 31.5846C38.5631 31.4635 38.3845 31.403 38.1909 31.403Z" fill="#FAFAFD"/>
<path d="M42.8849 36.8714C42.5294 36.8714 42.2378 36.5866 42.2305 36.2294C42.2037 34.8816 42.2156 33.5209 42.2659 32.1645C42.1606 32.2932 42.0583 32.4237 41.9586 32.5558C41.7416 32.8448 41.3307 32.9037 41.0417 32.6837C40.7531 32.4654 40.6955 32.0554 40.9134 31.7664C41.4053 31.115 41.9607 30.502 42.5635 29.9453C42.7604 29.7637 43.0477 29.7203 43.2885 29.8345C43.5302 29.9496 43.6777 30.1994 43.6611 30.4671C43.543 32.37 43.5021 34.3001 43.54 36.2038C43.5473 36.5653 43.26 36.8637 42.8985 36.8714C42.8938 36.8714 42.8895 36.8714 42.8849 36.8714Z" fill="#FAFAFD"/>
<path d="M46.6714 37.185C45.916 37.185 45.1628 36.7212 44.7314 35.9846C44.3469 35.3247 44.2591 34.5762 44.2263 33.9973C44.1939 33.4304 44.1901 32.6861 44.4505 31.9631C44.7459 31.1422 45.4778 30.449 46.3154 30.1984C47.0312 29.9818 47.7439 30.1046 48.3219 30.5368C49.7427 31.6008 49.2993 33.9334 49.0427 34.8865C48.879 35.4935 48.6625 35.9496 48.3611 36.3213C47.9387 36.8405 47.3538 37.1543 46.7562 37.1833C46.7281 37.185 46.6995 37.185 46.6714 37.185ZM47.003 31.4039C46.9033 31.4039 46.7993 31.4201 46.6918 31.4525C46.2524 31.5838 45.8372 31.9768 45.6824 32.4065C45.5418 32.7969 45.4957 33.265 45.5337 33.9223C45.5584 34.3554 45.6181 34.9053 45.8623 35.3239C46.0597 35.6623 46.3986 35.8712 46.6944 35.8755C46.9165 35.8644 47.1599 35.7229 47.3445 35.4952C47.5261 35.2719 47.6642 34.9701 47.7784 34.5455C48.0657 33.479 48.1748 32.0629 47.5367 31.5855C47.3756 31.4644 47.197 31.4039 47.003 31.4039Z" fill="#FAFAFD"/>
<path d="M51.6895 36.8714C51.334 36.8714 51.0425 36.5866 51.0352 36.2294C51.0084 34.8816 51.0203 33.52 51.0706 32.1645C50.9653 32.2932 50.863 32.4237 50.7633 32.555C50.5459 32.8448 50.1358 32.9037 49.8463 32.6837C49.5578 32.4663 49.5002 32.0554 49.718 31.7672C50.2087 31.1159 50.7637 30.5029 51.3681 29.9453C51.5651 29.7637 51.8528 29.7203 52.0932 29.8345C52.3349 29.9496 52.4824 30.1994 52.4658 30.4671C52.3477 32.37 52.3068 34.3001 52.3447 36.2038C52.352 36.5653 52.0647 36.8637 51.7032 36.8714C51.6985 36.8714 51.6942 36.8714 51.6895 36.8714Z" fill="#FAFAFD"/>
<path d="M34.0411 45.4087C33.6856 45.4087 33.394 45.124 33.3868 44.7667C33.3599 43.4189 33.3719 42.0582 33.4222 40.7018C33.3169 40.8306 33.2146 40.961 33.1148 41.0932C32.8974 41.3822 32.4874 41.441 32.1979 41.221C31.9093 41.0028 31.8518 40.5927 32.0696 40.3037C32.5615 39.6524 33.117 39.0394 33.7197 38.4827C33.9171 38.3002 34.2035 38.2576 34.4448 38.3718C34.6865 38.4869 34.834 38.7367 34.8173 39.0044C34.6993 40.9073 34.6583 42.8374 34.6963 44.7412C34.7035 45.1026 34.4162 45.401 34.0548 45.4087C34.0501 45.4087 34.0458 45.4087 34.0411 45.4087Z" fill="#FAFAFD"/>
<path d="M37.8576 45.6919C37.1035 45.6919 36.3499 45.2281 35.9193 44.4907C35.5344 43.8317 35.4466 43.0831 35.4138 42.5042C35.3814 41.9373 35.3776 41.1939 35.638 40.4701C35.9334 39.6491 36.6653 38.956 37.5034 38.7045C38.2187 38.4913 38.931 38.6115 39.5094 39.0438C40.931 40.1086 40.4873 42.4403 40.2302 43.3934C40.0661 44.0022 39.8496 44.4583 39.5482 44.8291C39.1253 45.3483 38.5401 45.6629 37.9424 45.6902C37.9143 45.6919 37.8857 45.6919 37.8576 45.6919ZM36.8699 40.9134C36.7293 41.3047 36.6837 41.7719 36.7212 42.4292C36.7459 42.8615 36.8056 43.4122 37.0498 43.8308C37.2476 44.1684 37.5797 44.3841 37.8819 44.3824C38.104 44.3722 38.347 44.2298 38.532 44.0022C38.7136 43.7797 38.8512 43.4779 38.9659 43.0524C39.2536 41.9859 39.3628 40.5707 38.7242 40.0924C38.4795 39.9091 38.1961 39.8648 37.8798 39.9594C37.4399 40.0907 37.0247 40.4837 36.8699 40.9134Z" fill="#FAFAFD"/>
<path d="M42.8849 45.4087C42.5294 45.4087 42.2378 45.124 42.2305 44.7667C42.2037 43.4189 42.2156 42.0582 42.2659 40.7018C42.1606 40.8306 42.0583 40.961 41.9586 41.0932C41.7416 41.3822 41.3307 41.441 41.0417 41.221C40.7531 41.0028 40.6955 40.5927 40.9134 40.3037C41.4053 39.6524 41.9607 39.0394 42.5635 38.4827C42.7604 38.3002 43.0477 38.2576 43.2885 38.3718C43.5302 38.4869 43.6777 38.7367 43.6611 39.0044C43.543 40.9073 43.5021 42.8374 43.54 44.7412C43.5473 45.1026 43.26 45.401 42.8985 45.4087C42.8938 45.4087 42.8895 45.4087 42.8849 45.4087Z" fill="#FAFAFD"/>
<path d="M46.6701 45.6928C45.916 45.6928 45.1628 45.229 44.7314 44.4924C44.3469 43.8325 44.2591 43.084 44.2263 42.5051C44.1939 41.9382 44.1901 41.1948 44.4505 40.471C44.7455 39.65 45.4778 38.9568 46.3154 38.7062C47.0312 38.4897 47.7439 38.6124 48.3219 39.0447C49.7427 40.1086 49.2993 42.4412 49.0427 43.3943C48.8786 44.003 48.6621 44.4591 48.3607 44.83C47.9378 45.3492 47.3526 45.6638 46.7549 45.6911C46.7268 45.6928 46.6987 45.6928 46.6701 45.6928ZM45.6824 40.9143C45.5418 41.3056 45.4962 41.7728 45.5337 42.4301C45.5584 42.8632 45.6181 43.4131 45.8623 43.8317C46.0597 44.1701 46.3986 44.3833 46.6944 44.3833C46.9165 44.373 47.1595 44.2307 47.3445 44.003C47.5261 43.7805 47.6637 43.4787 47.7784 43.0533C48.0657 41.9868 48.1748 40.5707 47.5367 40.0933C47.2929 39.91 47.0086 39.8657 46.6918 39.9603C46.2524 40.0916 45.8372 40.4846 45.6824 40.9143Z" fill="#FAFAFD"/>
<defs>
<filter id="filter0_d_596_1884" x="2.45801" y="2.38477" width="80.9897" height="84.323" filterUnits="userSpaceOnUse" color-interpolation-filters="sRGB">
<feFlood flood-opacity="0" result="BackgroundImageFix"/>
<feColorMatrix in="SourceAlpha" type="matrix" values="0 0 0 0 0 0 0 0 0 0 0 0 0 0 0 0 0 0 127 0" result="hardAlpha"/>
<feOffset dy="3.33274"/>
<feComposite in2="hardAlpha" operator="out"/>
<feColorMatrix type="matrix" values="0 0 0 0 0 0 0 0 0 0 0 0 0 0 0 0 0 0 1 0"/>
<feBlend mode="normal" in2="BackgroundImageFix" result="effect1_dropShadow_596_1884"/>
<feBlend mode="normal" in="SourceGraphic" in2="effect1_dropShadow_596_1884" result="shape"/>
</filter>
</defs>
</svg>
