<svg class="{{ .class }} fill-current text-current" viewBox="0 0 114 96" fill="none" xmlns="http://www.w3.org/2000/svg">
<ellipse cx="56.7273" cy="85.091" rx="56.7273" ry="10.9091" fill="black"/>
<g clip-path="url(#clip0_402_2348)">
<path d="M67.1785 59.8428C67.1785 71.3725 55.1535 80.7202 40.3197 80.7202C38.7062 80.7211 37.0946 80.6088 35.4969 80.3839L26.2588 84.8065C25.6885 85.0797 25.0566 85.1993 24.4259 85.1534C23.7951 85.1076 23.1872 84.8979 22.6623 84.5452L19.6487 82.5203L19.6542 82.5166L25.6832 77.3503C22.8159 75.9293 20.2461 73.9743 18.1118 71.59C15.1768 68.242 13.459 64.1995 13.459 59.8428C13.459 48.313 25.484 38.9653 40.3197 38.9653C47.4305 38.9653 53.898 41.1145 58.7007 44.6233C63.9201 48.43 67.1785 53.8412 67.1785 59.8428Z" fill="#AEA9FF"/>
<path d="M63.2165 56.27C63.2165 67.7997 51.1897 77.1474 36.3558 77.1474C34.858 77.1485 33.3617 77.0514 31.8766 76.8568L19.6542 82.5166L19.6487 82.5185L18.1118 71.59C15.1768 68.242 13.459 64.1995 13.459 59.8428C13.459 48.313 25.484 38.9653 40.3197 38.9653C47.4305 38.9653 53.898 41.1145 58.7007 44.6233C62.6207 49.8993 63.2165 56.27 63.2165 56.27Z" fill="#AEA9FF"/>
<path d="M98.2557 21.2434C98.2557 25.273 96.7864 29.0359 94.2388 32.2267C94.014 32.5118 93.7795 32.7914 93.5352 33.0655C91.4144 35.4164 88.8685 37.3454 86.0315 38.7509L92.0659 43.9209L89.0524 45.9458C88.5275 46.2986 87.9196 46.5082 87.2888 46.5541C86.658 46.5999 86.0262 46.4803 85.4558 46.2071L76.2178 41.7864C74.6199 42.0103 73.0084 42.1227 71.395 42.1227C56.5611 42.1227 44.5361 32.775 44.5361 21.2434C44.5361 15.4685 47.5515 10.2418 52.4273 6.46253C57.2848 2.69604 63.9918 0.365967 71.395 0.365967C86.2307 0.365967 98.2557 9.71366 98.2557 21.2434Z" fill="#D3D3FF"/>
<path d="M98.2542 21.2434C98.2542 25.273 96.7849 29.0359 94.2374 32.2267C94.0126 32.5118 93.778 32.7914 93.5338 33.0655L92.0645 43.9209L79.8366 38.2575C78.3516 38.4529 76.8552 38.55 75.3574 38.548C60.5235 38.548 48.4967 29.2004 48.4967 17.6706C48.4967 17.6706 48.102 11.501 52.4259 6.46253C57.2834 2.69604 63.9903 0.365967 71.3935 0.365967C86.2292 0.365967 98.2542 9.71366 98.2542 21.2434Z" fill="#EEECFF"/>
<path d="M56.6901 15.6929H89.7679C90.3496 15.6929 90.9074 15.4619 91.3186 15.0506C91.7299 14.6393 91.9609 14.0815 91.9609 13.4999C91.9609 12.9183 91.7299 12.3605 91.3186 11.9492C90.9074 11.5379 90.3496 11.3069 89.7679 11.3069H56.6901C56.1085 11.3069 55.5507 11.5379 55.1394 11.9492C54.7281 12.3605 54.4971 12.9183 54.4971 13.4999C54.4971 14.0815 54.7281 14.6393 55.1394 15.0506C55.5507 15.4619 56.1085 15.6929 56.6901 15.6929Z" fill="#444083"/>
<path d="M89.7679 20.5881H56.6901C56.1085 20.5881 55.5507 20.8192 55.1394 21.2305C54.7281 21.6417 54.4971 22.1995 54.4971 22.7811C54.4971 23.3628 54.7281 23.9206 55.1394 24.3318C55.5507 24.7431 56.1085 24.9741 56.6901 24.9741H89.7679C90.3496 24.9741 90.9074 24.7431 91.3186 24.3318C91.7299 23.9206 91.9609 23.3628 91.9609 22.7811C91.9609 22.1995 91.7299 21.6417 91.3186 21.2305C90.9074 20.8192 90.3496 20.5881 89.7679 20.5881Z" fill="#444083"/>
<path d="M21.5661 55.7224H54.6439C55.2255 55.7224 55.7833 55.4914 56.1946 55.0801C56.6059 54.6689 56.8369 54.1111 56.8369 53.5294C56.8369 52.9478 56.6059 52.39 56.1946 51.9787C55.7833 51.5675 55.2255 51.3364 54.6439 51.3364H21.5661C20.9844 51.3364 20.4266 51.5675 20.0154 51.9787C19.6041 52.39 19.373 52.9478 19.373 53.5294C19.373 54.1111 19.6041 54.6689 20.0154 55.0801C20.4266 55.4914 20.9844 55.7224 21.5661 55.7224Z" fill="white"/>
<path d="M42.3422 60.6177H21.5661C20.9844 60.6177 20.4266 60.8487 20.0154 61.26C19.6041 61.6713 19.373 62.2291 19.373 62.8107C19.373 63.3923 19.6041 63.9501 20.0154 64.3614C20.4266 64.7726 20.9844 65.0037 21.5661 65.0037H42.3422C42.9239 65.0037 43.4817 64.7726 43.8929 64.3614C44.3042 63.9501 44.5352 63.3923 44.5352 62.8107C44.5352 62.2291 44.3042 61.6713 43.8929 61.26C43.4817 60.8487 42.9239 60.6177 42.3422 60.6177Z" fill="white"/>
<path d="M40.3204 38.6006C25.3078 38.6006 13.0942 48.1301 13.0942 59.8435C13.0942 64.142 14.7302 68.2767 17.8231 71.8097L19.2873 82.5685C19.2882 82.5755 19.2911 82.5821 19.2924 82.5888C19.2951 82.603 19.2985 82.617 19.3028 82.6307C19.3067 82.6426 19.3112 82.6539 19.3162 82.6654C19.3225 82.6804 19.3299 82.695 19.3383 82.7091C19.3432 82.7175 19.3491 82.725 19.3547 82.7328C19.3654 82.7483 19.3773 82.7629 19.3902 82.7765C19.3944 82.7805 19.3991 82.784 19.4035 82.788C19.4166 82.8013 19.4308 82.8135 19.4457 82.8246L22.4593 84.8495C23.0376 85.236 23.7063 85.4657 24.4 85.5161C25.0938 85.5664 25.7887 85.4358 26.4168 85.1369L35.5554 80.7619C37.1342 80.9785 38.726 81.087 40.3197 81.0864C55.3314 81.0864 67.5441 71.5569 67.5441 59.8435C67.5441 48.1301 55.3321 38.6006 40.3204 38.6006ZM40.3204 80.3554C38.7241 80.3561 37.1296 80.2449 35.5488 80.0228C35.4775 80.0127 35.4047 80.0239 35.3397 80.055L26.1017 84.4776C25.5883 84.7218 25.0203 84.8285 24.4533 84.7874C23.8863 84.7462 23.3397 84.5584 22.867 84.2425L19.9898 82.3092L18.5334 71.607V71.6057C18.5334 71.6008 18.5309 71.5964 18.53 71.5915C18.5269 71.5729 18.5225 71.5545 18.5166 71.5366C18.5128 71.5257 18.5073 71.5156 18.5026 71.5052C18.4978 71.4948 18.4931 71.4823 18.4867 71.4714C18.4785 71.4587 18.4696 71.4465 18.46 71.4348C18.4547 71.4281 18.4508 71.4208 18.445 71.4142C15.4227 67.9964 13.8252 63.9958 13.8252 59.8435C13.8252 48.5333 25.711 39.3316 40.3204 39.3316C54.9299 39.3316 66.8138 48.5333 66.8138 59.8435C66.8138 71.1538 54.929 80.3554 40.3204 80.3554Z" fill="black"/>
<path d="M36.3569 76.7827C34.875 76.7834 33.3947 76.6874 31.9254 76.4952C31.8568 76.4863 31.7871 76.497 31.7243 76.5259L24.1846 80.0165C24.141 80.0366 24.1019 80.0652 24.0693 80.1005C24.0368 80.1358 24.0116 80.1772 23.995 80.2222C23.9785 80.2673 23.971 80.3152 23.973 80.3631C23.9749 80.4111 23.9863 80.4582 24.0065 80.5018C24.0267 80.5453 24.0552 80.5845 24.0905 80.617C24.1258 80.6495 24.1672 80.6748 24.2123 80.6913C24.2573 80.7079 24.3052 80.7154 24.3532 80.7134C24.4011 80.7114 24.4482 80.7 24.4918 80.6799L31.9361 77.2337C33.4029 77.4209 34.8801 77.5144 36.3587 77.5137C51.3713 77.5137 63.5849 67.9842 63.5849 56.2708C63.5849 56.1738 63.5464 56.0809 63.4778 56.0123C63.4093 55.9438 63.3163 55.9053 63.2194 55.9053C63.1224 55.9053 63.0295 55.9438 62.9609 56.0123C62.8924 56.0809 62.8539 56.1738 62.8539 56.2708C62.8521 67.5812 50.9663 76.7827 36.3569 76.7827Z" fill="black"/>
<path d="M71.3957 0.0012207C56.3841 0.0012207 44.1714 9.53075 44.1714 21.2442C44.1714 32.9576 56.3841 42.4889 71.3957 42.4889C72.9893 42.4886 74.581 42.3801 76.1599 42.1642L85.2994 46.5376C85.9276 46.8366 86.6226 46.9672 87.3164 46.9168C88.0103 46.8664 88.6791 46.6366 89.2574 46.2499L92.271 44.225C92.2759 44.2217 92.2798 44.2174 92.2845 44.2139C92.2961 44.2054 92.3071 44.1963 92.3176 44.1865C92.3247 44.1797 92.3313 44.173 92.3377 44.1658C92.3441 44.1587 92.3547 44.1457 92.3625 44.1351C92.3704 44.1245 92.3739 44.1192 92.3788 44.1108C92.3855 44.0997 92.3916 44.0882 92.3971 44.0765C92.4013 44.0675 92.4055 44.0582 92.409 44.0492C92.4132 44.0376 92.4167 44.0258 92.4196 44.0138C92.4223 44.0032 92.4252 43.9929 92.4271 43.9823C92.4271 43.9789 92.4289 43.9759 92.4292 43.9725L93.9516 33.1463C97.006 29.6293 98.6219 25.5165 98.6219 21.2442C98.6219 9.53075 86.4083 0.0012207 71.3957 0.0012207ZM93.3289 32.7501C93.3229 32.7571 93.3187 32.7649 93.3132 32.7722C93.3042 32.7833 93.2959 32.7949 93.2884 32.807C93.2825 32.8179 93.2772 32.8292 93.2725 32.8408C93.2677 32.8512 93.2622 32.8611 93.2584 32.872C93.2536 32.8872 93.2498 32.9026 93.2471 32.9183C93.2456 32.9258 93.2427 32.9327 93.2418 32.9404L91.7275 43.7091L88.8492 45.643C88.3765 45.9589 87.8299 46.1467 87.2629 46.1879C86.6958 46.2291 86.1278 46.1223 85.6145 45.878L76.3764 41.4573C76.3117 41.4263 76.2392 41.415 76.1681 41.4249C74.587 41.6461 72.9924 41.7573 71.3959 41.7577C56.7874 41.7577 44.9026 32.5553 44.9026 21.244C44.9026 9.93262 56.7872 0.732223 71.3957 0.732223C86.0043 0.732223 97.8909 9.9339 97.8909 21.2442C97.8909 25.371 96.3134 29.3499 93.3289 32.7501Z" fill="black"/>
<path d="M86.7656 41.064L79.991 37.9263C79.9283 37.8972 79.8585 37.8865 79.79 37.8956C78.3209 38.0887 76.8407 38.1847 75.359 38.1831C60.7495 38.1831 48.8638 28.9816 48.8638 17.6712C48.8638 17.5742 48.8253 17.4813 48.7568 17.4127C48.6882 17.3442 48.5953 17.3057 48.4983 17.3057C48.4014 17.3057 48.3084 17.3442 48.2399 17.4127C48.1713 17.4813 48.1328 17.5742 48.1328 17.6712C48.1328 29.3855 60.3464 38.9141 75.359 38.9141C76.8374 38.9156 78.3143 38.8221 79.7806 38.6341L86.4591 41.7274C86.5471 41.7681 86.6476 41.7723 86.7386 41.7389C86.8297 41.7055 86.9037 41.6373 86.9445 41.5494C86.9852 41.4614 86.9894 41.3608 86.956 41.2698C86.9226 41.1788 86.8544 41.1047 86.7665 41.064H86.7656Z" fill="black"/>
<path d="M89.7692 10.9426H56.6913C56.0128 10.9426 55.362 11.2122 54.8822 11.692C54.4024 12.1718 54.1328 12.8226 54.1328 13.5011C54.1328 14.1797 54.4024 14.8305 54.8822 15.3103C55.362 15.7901 56.0128 16.0596 56.6913 16.0596H89.7692C90.4477 16.0596 91.0985 15.7901 91.5783 15.3103C92.0581 14.8305 92.3277 14.1797 92.3277 13.5011C92.3277 12.8226 92.0581 12.1718 91.5783 11.692C91.0985 11.2122 90.4477 10.9426 89.7692 10.9426ZM89.7692 15.3286H56.6913C56.2066 15.3286 55.7418 15.1361 55.3991 14.7934C55.0564 14.4507 54.8638 13.9858 54.8638 13.5011C54.8638 13.0165 55.0564 12.5516 55.3991 12.2089C55.7418 11.8662 56.2066 11.6736 56.6913 11.6736H89.7692C90.2539 11.6736 90.7187 11.8662 91.0614 12.2089C91.4041 12.5516 91.5967 13.0165 91.5967 13.5011C91.5967 13.9858 91.4041 14.4507 91.0614 14.7934C90.7187 15.1361 90.2539 15.3286 89.7692 15.3286Z" fill="black"/>
<path d="M89.7692 20.2222H56.6913C56.0128 20.2222 55.362 20.4917 54.8822 20.9715C54.4024 21.4514 54.1328 22.1021 54.1328 22.7807C54.1328 23.4592 54.4024 24.11 54.8822 24.5898C55.362 25.0696 56.0128 25.3392 56.6913 25.3392H89.7692C90.4477 25.3392 91.0985 25.0696 91.5783 24.5898C92.0581 24.11 92.3277 23.4592 92.3277 22.7807C92.3277 22.1021 92.0581 21.4514 91.5783 20.9715C91.0985 20.4917 90.4477 20.2222 89.7692 20.2222ZM89.7692 24.6082H56.6913C56.2066 24.6082 55.7418 24.4156 55.3991 24.0729C55.0564 23.7302 54.8638 23.2654 54.8638 22.7807C54.8638 22.296 55.0564 21.8312 55.3991 21.4884C55.7418 21.1457 56.2066 20.9532 56.6913 20.9532H89.7692C90.2539 20.9532 90.7187 21.1457 91.0614 21.4884C91.4041 21.8312 91.5967 22.296 91.5967 22.7807C91.5967 23.2654 91.4041 23.7302 91.0614 24.0729C90.7187 24.4156 90.2539 24.6082 89.7692 24.6082Z" fill="black"/>
<path d="M21.5673 56.0892H54.6452C55.3237 56.0892 55.9745 55.8196 56.4543 55.3398C56.9341 54.86 57.2037 54.2092 57.2037 53.5307C57.2037 52.8521 56.9341 52.2013 56.4543 51.7215C55.9745 51.2417 55.3237 50.9722 54.6452 50.9722H21.5673C20.8887 50.9722 20.238 51.2417 19.7582 51.7215C19.2783 52.2013 19.0088 52.8521 19.0088 53.5307C19.0088 54.2092 19.2783 54.86 19.7582 55.3398C20.238 55.8196 20.8887 56.0892 21.5673 56.0892ZM21.5673 51.7032H54.6452C55.1298 51.7032 55.5947 51.8957 55.9374 52.2384C56.2801 52.5812 56.4727 53.046 56.4727 53.5307C56.4727 54.0154 56.2801 54.4802 55.9374 54.8229C55.5947 55.1656 55.1298 55.3582 54.6452 55.3582H21.5673C21.0826 55.3582 20.6178 55.1656 20.2751 54.8229C19.9323 54.4802 19.7398 54.0154 19.7398 53.5307C19.7398 53.046 19.9323 52.5812 20.2751 52.2384C20.6178 51.8957 21.0826 51.7032 21.5673 51.7032Z" fill="black"/>
<path d="M44.902 62.8119C44.9013 62.1336 44.6315 61.4832 44.1518 61.0036C43.6722 60.5239 43.0218 60.2541 42.3435 60.2534H21.5673C20.8887 60.2534 20.238 60.523 19.7582 61.0028C19.2783 61.4826 19.0088 62.1334 19.0088 62.8119C19.0088 63.4905 19.2783 64.1413 19.7582 64.6211C20.238 65.1009 20.8887 65.3704 21.5673 65.3704H42.3435C43.0218 65.3697 43.6722 65.0999 44.1518 64.6203C44.6315 64.1406 44.9013 63.4903 44.902 62.8119ZM19.7398 62.8119C19.7403 62.3274 19.933 61.8629 20.2756 61.5203C20.6183 61.1777 21.0828 60.985 21.5673 60.9844H42.3435C42.8282 60.9844 43.293 61.177 43.6357 61.5197C43.9784 61.8624 44.171 62.3272 44.171 62.8119C44.171 63.2966 43.9784 63.7614 43.6357 64.1042C43.293 64.4469 42.8282 64.6394 42.3435 64.6394H21.5673C21.0828 64.6389 20.6183 64.4462 20.2756 64.1036C19.933 63.761 19.7403 63.2964 19.7398 62.8119Z" fill="black"/>
</g>
<defs>
<clipPath id="clip0_402_2348">
<rect width="85.5273" height="85.5273" fill="white" transform="translate(13.0908)"/>
</clipPath>
</defs>
</svg>
