<svg width="495" height="478" viewBox="0 0 495 478" fill="none" xmlns="http://www.w3.org/2000/svg">
<path d="M119.954 40.0187C130.129 56.171 137.613 64.1344 138.857 63.7323C139.948 63.508 134.164 54.2694 123.496 37.3564C112.971 20.3316 101.546 4.19929 101.008 5.19438C100.206 6.28105 109.92 23.7546 119.954 40.0187Z" fill="black"/>
<path d="M82.1328 78.1987C99.9032 86.8016 111.012 89.766 111.994 88.7768C112.92 88.0198 102.79 83.0803 84.1709 74.0787C65.6313 64.9074 46.6824 56.9681 46.6684 58.1013C46.4499 59.4492 64.4421 69.4259 82.1328 78.1987Z" fill="black"/>
<path d="M62.4422 129.621C79.1787 132.11 89.2267 131.729 89.9006 130.691C90.5653 129.854 81.019 128.406 63.4851 125.807C45.9906 123.052 28.356 121.388 28.5385 122.301C28.5823 123.438 45.7451 126.975 62.4422 129.621Z" fill="black"/>
<path d="M54.216 186.719C70.9919 184.511 80.5479 181.382 80.9103 180.198C81.319 179.21 71.7427 180.443 54.1701 182.766C36.5925 184.928 19.1801 188.177 19.6066 189.005C19.9611 190.085 37.435 188.767 54.216 186.719Z" fill="black"/>
<path d="M356.977 385.441C349.756 396.537 341.071 409.833 331.525 424.483C326.838 431.822 321.943 439.363 316.035 444.391C313.11 446.909 309.962 448.607 306.697 449.189C303.42 449.847 299.887 449.523 296.962 447.962C290.959 445.05 287.259 437.247 287.007 428.813C286.864 426.75 287.031 424.58 287.243 422.495C287.446 421.586 287.576 421.136 287.836 420.236L288.963 417.197C290.628 412.989 292.568 408.903 294.45 404.807C302.171 388.691 309.671 374.345 315.867 362.302C328.327 338.15 337.674 321.668 336.866 320.834C336.012 319.914 325.001 335.034 311.286 358.204C304.451 369.831 296.427 383.781 288.153 400.045C286.099 404.113 284.066 408.42 282.099 413.051L280.679 416.828C280.219 418.245 279.675 420.199 279.433 421.73C279.099 424.58 278.811 427.515 279.005 430.37C279.161 442.006 284.515 453.837 293.468 458.157C302.281 462.611 312.532 459.841 320.061 453.108C327.578 446.453 332.63 437.917 337.296 430.339C341.893 422.829 346.269 415.598 350.376 408.952C354.45 402.144 358.165 395.75 361.509 389.846C374.871 366.307 384.472 346.179 383.594 345.413C383.583 345.404 383.572 345.398 383.559 345.394C382.362 345.024 371.219 363.402 356.977 385.441Z" fill="black"/>
<path d="M331.525 424.483C341.071 409.833 349.756 396.537 356.977 385.441C371.219 363.402 382.362 345.024 383.559 345.394L336.866 320.834C337.674 321.668 328.327 338.15 315.867 362.302C309.671 374.345 302.171 388.691 294.45 404.807C292.568 408.903 290.628 412.989 288.963 417.197L287.836 420.236C287.576 421.136 287.446 421.586 287.243 422.495C287.031 424.58 286.864 426.75 287.007 428.813C287.259 437.247 290.959 445.05 296.962 447.962C299.887 449.523 303.42 449.847 306.697 449.189C309.962 448.607 313.11 446.909 316.035 444.391C321.943 439.363 326.838 431.822 331.525 424.483Z" fill="#D3E5E4"/>
<path d="M465.041 228.371C454.707 213.944 439.96 205.031 425.92 198.168C418.865 194.767 411.774 191.829 404.871 189.038C402.486 188.057 400.095 187.142 397.77 186.232L396.417 185.662L394.744 184.935L391.209 183.334C387.531 181.855 384.021 179.923 380.572 178.062C353.006 162.845 331.573 143.111 315.146 125.755C298.805 108.14 287.738 91.9937 281.124 80.246C280.07 78.3694 279.139 76.6352 278.269 74.9722C277.861 70.7507 277.25 66.5802 276.242 62.3791C274.709 56.3421 272.516 50.2544 268.949 44.7265C265.24 39.3206 260.315 34.1542 253.886 31.2666C247.578 28.5215 240.559 27.2516 234.038 28.1483C232.426 28.3572 230.758 28.4287 229.14 28.7038L224.522 29.9459C221.344 30.6333 218.521 31.88 215.638 33.0556C204.22 37.9665 194.436 44.9979 185.486 52.4259C167.952 67.709 153.719 85.0411 142.061 102.637C118.804 137.9 104.296 173.568 97.3201 204.693C90.3489 235.751 91.2045 262.754 98.3596 279.598C101.83 288.111 107.157 293.242 110.855 296.186C114.991 298.632 117.321 299.475 117.402 299.282C117.414 299.257 117.413 299.225 117.399 299.186C117.261 298.794 115.833 297.689 113.434 295.834C112.998 295.496 112.529 295.134 112.03 294.746C108.952 291.517 104.485 286.452 101.716 278.325C96.0363 262.193 96.0964 236.258 103.79 206.187C111.352 176.105 126.246 141.464 149.213 107.376C160.694 90.3648 174.667 73.8109 191.408 59.3316C199.925 52.3361 209.135 45.8592 219.246 41.5132C229.214 37.2893 240.606 35.3031 249.915 39.6751C254.61 41.7645 258.177 45.5631 261.179 49.784C264.033 54.1931 265.967 59.3298 267.29 64.6192C269.933 75.2641 270.195 86.5911 269.358 97.5013C267.73 118.727 262.323 138.93 255.639 157.573L254.8 157.243C252.79 156.556 250.781 155.87 248.772 155.184C244.748 153.878 240.852 152.648 236.941 151.616C229.194 149.426 221.813 147.663 214.875 146.199C207.998 144.807 201.315 143.497 195.023 143.147C188.736 142.731 182.902 143.348 177.984 145.033C173.066 146.718 169.262 149.485 166.984 152.304C162.463 158.018 163.356 162.556 163.8 162.768C163.819 162.777 163.837 162.779 163.854 162.772C163.86 162.772 163.867 162.773 163.873 162.774C164.648 162.832 164.985 158.897 169.584 154.831C174.095 150.654 183.076 148.017 194.455 149.688C200.121 150.389 206.321 151.928 213.168 153.717C219.953 155.435 227.115 157.447 234.582 159.816C238.285 160.964 242.111 162.255 245.997 163.618C247.94 164.299 249.878 165.046 251.821 165.727C252.014 165.808 252.014 165.808 251.943 165.869C248.959 172.691 245.884 179.838 242.671 187.041C239.046 195.276 234.409 202.835 230.566 210.455C229.707 212.119 228.466 214.418 227.607 216.081C227.22 216.783 226.763 217.546 226.31 218.243L226.244 218.238L225.023 217.679C223.228 216.81 221.503 215.879 219.708 215.01C205.887 207.898 194.171 200.215 185.309 192.618C176.519 184.96 170.083 177.816 167.248 172.277C165.469 168.904 164.889 166.175 164.537 164.521C164.308 163.444 164.176 162.823 163.873 162.774C163.867 162.773 163.86 162.772 163.854 162.772C163.837 162.766 163.819 162.765 163.8 162.768C163.229 162.868 161.695 166.948 163.882 173.682C166.147 180.573 172.166 188.817 180.814 197.461C189.595 206.116 201.499 214.811 215.6 222.61C216.495 223.078 217.389 223.562 218.283 224.046C219.177 224.53 220.071 225.015 220.966 225.482L221.607 225.797C214.886 236.256 207.777 245.688 200.745 254.128C181.412 277.254 161.173 292.263 145.05 297.811C144.308 297.953 143.565 298.096 142.889 298.244C138.159 299.211 134.573 300 132.061 300.672C128.984 300.902 126.329 300.831 124.162 300.466C122.472 300.157 121.088 299.852 120.013 299.616C118.597 299.304 117.72 299.111 117.399 299.186C117.331 299.202 117.287 299.23 117.27 299.272C117.188 299.465 119.274 300.889 123.821 302.302C128.374 303.649 135.724 304.079 144.543 301.829C145.626 301.58 146.791 301.137 147.95 300.76C157.268 299.812 169.607 298.497 184.479 297.975C201.955 297.32 223.038 298.205 246.222 302.909C257.809 305.328 269.946 308.387 282.316 312.728C288.552 314.669 294.743 317.206 301.142 319.625C304.377 320.805 307.455 322.304 310.68 323.616L315.507 325.715C317.114 326.437 316.567 325.644 317.325 326.167L324.958 327.371C324.673 327.616 325.237 327.193 324.958 327.371C327.618 329.105 332.613 330.752 338.331 333.385C349.328 338.286 366.013 344.487 387.945 346.436C398.86 347.206 411.189 346.888 423.848 343.136C436.497 339.517 449.297 331.32 458.516 319.523C467.663 307.787 474.246 293.061 476.282 276.922C478.308 260.915 475.43 242.936 465.041 228.371ZM314.228 315.508C310.937 314.191 307.727 312.681 304.421 311.563C297.89 309.133 291.496 306.648 285.056 304.757C272.344 300.523 259.73 297.627 247.797 295.381C223.784 291.079 202.05 290.875 184.315 292.309C175.948 292.997 168.497 293.889 161.9 294.913C175.84 287.469 191.152 275.141 205.868 258.445C213.449 249.781 221.183 239.998 228.398 229.178L229.43 227.666C232.053 222.946 235.761 219.899 238.471 214.919C242.523 207.182 247.302 199.501 251.079 191.011C252.619 187.404 254.089 183.859 255.619 180.385C256.981 177.363 258.288 174.204 259.589 171.112C260.723 168.472 261.856 165.832 262.919 163.253L263.564 161.772L263.885 161.065C263.895 160.933 264.037 160.811 264.042 160.745L263.783 160.658C270.904 141.517 276.626 120.673 278.544 98.2722C278.904 93.5776 279.01 88.7303 278.917 83.8679C284.825 96.16 295.077 112.51 310.35 130.176C326.565 148.579 347.931 169.174 376.469 185.596C380.106 187.604 383.677 189.607 387.604 191.305L389.084 191.951L389.725 192.266C389.725 192.266 389.858 192.276 389.786 192.337C389.776 192.469 389.797 192.205 389.695 192.663L389.258 195.755C388.034 203.909 386.398 212.23 384.234 220.511C379.904 237.073 373.311 253.661 364.139 269.186C352.603 288.654 337.638 305.132 321.578 318.532C320.74 318.202 319.968 317.878 319.196 317.553L319.193 317.551L314.228 315.508ZM467.249 275.896C465.614 290.271 459.86 303.73 451.795 314.352C443.726 325.04 433.006 332.133 421.614 335.848C410.221 339.564 398.726 340.279 388.376 339.95C367.502 338.948 350.858 333.947 339.775 330.171C334.464 328.3 330.4 326.658 327.424 325.565C344.317 311.696 360.066 294.547 372.212 274.062C381.918 257.646 388.775 240.214 393.161 222.925C395.422 214.252 397.012 205.661 398.129 197.167C398.159 196.77 398.251 196.445 398.281 196.048C398.347 196.053 398.408 196.124 398.475 196.129L398.541 196.135L399.054 196.373L401.633 197.436C408.404 200.217 415.296 203.14 422.021 206.515C435.415 213.129 448.738 221.534 457.565 233.917C466.22 245.954 468.944 261.594 467.249 275.896Z" fill="black"/>
<path d="M467.249 275.896C465.614 290.271 459.86 303.73 451.795 314.352C443.726 325.04 433.006 332.133 421.614 335.848C410.221 339.564 398.726 340.279 388.376 339.95C367.502 338.948 350.858 333.947 339.775 330.171C334.464 328.3 330.4 326.658 327.424 325.565C344.317 311.696 360.066 294.547 372.212 274.062C381.918 257.646 388.775 240.214 393.161 222.925C395.422 214.252 397.012 205.661 398.129 197.167C398.159 196.77 398.251 196.445 398.281 196.048C398.347 196.053 398.408 196.124 398.475 196.129L398.541 196.135L399.054 196.373L401.633 197.436C408.404 200.217 415.296 203.14 422.021 206.515C435.415 213.129 448.738 221.534 457.565 233.917C466.22 245.954 468.944 261.594 467.249 275.896Z" fill="#D3E5E4"/>
<path d="M314.228 315.508C310.937 314.191 307.727 312.681 304.421 311.563C297.89 309.133 291.496 306.648 285.056 304.757C272.344 300.523 259.73 297.627 247.797 295.381C223.784 291.079 202.05 290.875 184.315 292.309C175.948 292.997 168.497 293.889 161.9 294.913C175.84 287.469 191.152 275.141 205.868 258.445C213.449 249.781 221.183 239.998 228.398 229.178L229.43 227.666C232.053 222.946 235.761 219.899 238.471 214.919C242.523 207.182 247.302 199.501 251.079 191.011C252.619 187.404 254.089 183.859 255.619 180.385C256.981 177.363 258.288 174.204 259.589 171.112C260.723 168.472 261.856 165.832 262.919 163.253L263.564 161.772L263.885 161.065C263.895 160.933 264.037 160.811 264.042 160.745L263.783 160.658C270.904 141.517 276.626 120.673 278.544 98.2722C278.904 93.5776 279.01 88.7303 278.917 83.8679C284.825 96.16 295.077 112.51 310.35 130.176C326.565 148.579 347.931 169.174 376.469 185.596C380.106 187.604 383.677 189.607 387.604 191.305L389.084 191.951L389.725 192.266C389.725 192.266 389.858 192.276 389.786 192.337C389.776 192.469 389.797 192.205 389.695 192.663L389.258 195.755C388.034 203.909 386.398 212.23 384.234 220.511C379.904 237.073 373.311 253.661 364.139 269.186C352.603 288.654 337.638 305.132 321.578 318.532C320.74 318.202 319.968 317.878 319.196 317.553L319.193 317.551L314.228 315.508Z" fill="#D3E5E4"/>
<path fill-rule="evenodd" clip-rule="evenodd" d="M113.434 295.834C112.998 295.496 112.529 295.134 112.03 294.746C108.952 291.517 104.485 286.452 101.716 278.325C96.0363 262.193 96.0964 236.258 103.79 206.187C111.352 176.105 126.246 141.464 149.213 107.376C160.694 90.3648 174.667 73.8109 191.408 59.3316C199.925 52.3361 209.135 45.8592 219.246 41.5132C229.214 37.2893 240.606 35.3031 249.915 39.6751C254.61 41.7645 258.177 45.5631 261.179 49.784C264.033 54.1931 265.967 59.3298 267.29 64.6192C269.933 75.2641 270.195 86.5911 269.358 97.5013C267.73 118.727 262.323 138.93 255.639 157.573L254.8 157.243L248.772 155.184C244.748 153.878 240.852 152.648 236.941 151.616C229.194 149.426 221.813 147.663 214.875 146.199C207.998 144.807 201.315 143.497 195.023 143.147C188.736 142.731 182.902 143.348 177.984 145.033C173.066 146.718 169.262 149.485 166.984 152.304C162.463 158.018 163.356 162.556 163.8 162.768C163.229 162.868 161.695 166.948 163.882 173.682C166.147 180.573 172.166 188.817 180.814 197.461C189.595 206.116 201.499 214.811 215.6 222.61C216.495 223.078 217.389 223.562 218.283 224.046C219.177 224.53 220.071 225.015 220.966 225.482L221.607 225.797C214.886 236.256 207.777 245.688 200.745 254.128C181.412 277.254 161.173 292.263 145.05 297.811C144.308 297.953 143.565 298.096 142.889 298.244C138.159 299.211 134.573 300 132.061 300.672C128.984 300.902 126.329 300.831 124.162 300.466C122.472 300.157 121.088 299.852 120.013 299.616C118.597 299.304 117.72 299.111 117.399 299.186C117.261 298.794 115.833 297.689 113.434 295.834ZM163.8 162.768C163.819 162.765 163.837 162.766 163.854 162.772C163.837 162.779 163.819 162.777 163.8 162.768Z" fill="#ACACAC"/>
<path d="M194.455 149.688C183.076 148.017 174.095 150.654 169.584 154.831C164.985 158.897 164.648 162.832 163.873 162.774C164.176 162.823 164.308 163.444 164.537 164.521C164.889 166.175 165.469 168.904 167.248 172.277C170.083 177.816 176.519 184.96 185.309 192.618C194.171 200.215 205.887 207.898 219.708 215.01C221.503 215.879 223.228 216.81 225.023 217.679L226.244 218.238L226.31 218.243C226.763 217.546 227.22 216.783 227.607 216.081C228.466 214.418 229.707 212.119 230.566 210.455C234.409 202.835 239.046 195.276 242.671 187.041C245.884 179.838 248.959 172.691 251.943 165.869C252.014 165.808 252.014 165.808 251.821 165.727C249.878 165.046 247.94 164.299 245.997 163.618C242.111 162.255 238.285 160.964 234.582 159.816C227.115 157.447 219.953 155.435 213.168 153.717C206.321 151.928 200.121 150.389 194.455 149.688Z" fill="#D3E5E4"/>
</svg>
