<?xml version="1.0" encoding="UTF-8"?><svg id="Layer_1" xmlns="http://www.w3.org/2000/svg" viewBox="0 0 726.42 710.16"><defs><style>.cls-1{fill:#d3e5e4;}.cls-2{fill:#f46262;}.cls-3{fill:#b2b2b2;}</style></defs><path d="M646.5,240.87c.16,1.83,.27,3.71,.27,5.56,0,30.99-23.22,56.58-53.17,60.51,5.81,21.34,8.78,43.39,8.78,65.68,0,137.94-112.24,250.14-250.14,250.14s-250.14-112.21-250.14-250.14c0-56.25,19.02-110.82,53.69-154.78-.08-.08-.16-.14-.25-.22l-1.96-1.72c-1.36-1.23-2.75-2.62-4.06-4.06-.3-.33-.6-.65-.9-1.01l-.33-.35c-2.83-3.27-5.31-6.87-7.36-10.68-.46-.9-.93-1.77-1.34-2.67-1.04-2.02-1.99-4.36-2.81-6.79-.35-1.09-.68-2.13-.98-3.27-.27-.93-.52-1.91-.74-2.97-.38-1.58-.71-3.43-1.01-5.78-.14-1.06-.25-2.04-.3-3.03-.14-1.23-.19-2.89-.19-4.58,0-1.85,.11-3.71,.27-5.51,2.86-31.7,29-55.57,60.81-55.57,23.77,0,45.16,13.9,55.11,34.83,28.1-12.67,58.03-19.98,89.12-21.61,4.77-.25,9.13-.35,13.35-.35,72.06,0,139.57,30.55,187.08,84.16,11.47-13.35,28.37-21.31,46.39-21.31,31.81,0,57.97,23.88,60.81,55.52Zm-19-5.51c-4.93-18.53-22.08-32.24-41.81-32.24-13.85,0-26.71,6.62-34.83,17.55,6.21,8.09,11.94,16.57,17.09,25.35,9.48-9.68,22.59-15.73,37.2-15.73,8.01,0,15.56,1.83,22.35,5.07Zm-42.93,137.26c0-24.37-3.76-48.38-11.17-71.41-4.82-14.99-11.28-29.65-19.21-43.58-6.16-10.82-13.27-21.18-21.1-30.85-44.37-54.97-110.27-86.51-180.86-86.51-2.48,0-5.07,.05-7.74,.16-12.86,21.86-71.68,129.02-77.81,269.3,27.58,2.18,52.68,12.89,52.68,31.42s-24.67,29.03-51.81,31.4c.57,14.69,1.34,29.24,2.26,43.36,34.45,2.26,77.54-.03,102.75-20.36,3.84-3.11,9.43-2.48,12.51,1.34,3.08,3.82,2.48,9.4-1.34,12.48-24.04,19.41-59.72,25.1-93.35,25.1-5.81,0-11.53-.16-17.14-.46,3.54,23.28,12.65,45.79,26.38,64.87,16.93,3.92,34.5,6.08,52.6,6.08,128.12,0,232.35-104.22,232.35-232.35Zm-327.47,82.66c28.86-.22,44.48-10.11,44.48-14.12s-15.84-14.01-45.16-14.09h-.3c-29.54,0-45.46,10-45.46,14.09s15.92,14.12,45.46,14.12h.98Zm66.01-313.13c-25.92,3.22-50.86,10.66-74.27,22.35l-1.91,.93c-9.16,4.66-17.99,9.95-26.25,15.67-16.79,11.5-32,25.21-45.22,40.69-35.87,41.97-55.6,95.53-55.6,150.83,0,99.45,62.82,184.49,150.86,217.57-9.38-18.02-15.59-37.75-18.07-57.86-9.27-1.01-17.85-2.23-25.29-3.49-4.82-.82-8.09-5.42-7.28-10.25,.82-4.85,5.42-8.12,10.25-7.28,5.78,.95,13.16,2.07,21.56,3.03-.84-13.55-1.58-27.42-2.15-41.43-29.19-1.39-56.85-12.21-56.85-31.75s27.09-30.09,55.98-31.64c5.51-128.4,54.02-230.17,74.24-267.37Zm-89.34,10.11c-7-14.91-22.24-24.83-39.14-24.83-19.73,0-36.85,13.68-41.81,32.22,6.79-3.22,14.34-5.07,22.35-5.07,13.08,0,24.99,4.85,34.15,12.81,.44-.3,.82-.63,1.25-.93,7.36-5.1,15.15-9.87,23.19-14.2Z"/><path class="cls-1" d="M585.7,203.12c19.73,0,36.88,13.71,41.81,32.24-6.79-3.24-14.34-5.07-22.35-5.07-14.61,0-27.72,6.05-37.2,15.73-5.15-8.78-10.87-17.25-17.09-25.35,8.12-10.93,20.99-17.55,34.83-17.55Z"/><path class="cls-1" d="M573.4,301.21c7.41,23.03,11.17,47.04,11.17,71.41,0,128.12-104.22,232.35-232.35,232.35-18.1,0-35.68-2.15-52.6-6.08-13.74-19.08-22.84-41.59-26.38-64.87,5.61,.3,11.34,.46,17.14,.46,33.63,0,69.31-5.7,93.35-25.1,3.82-3.08,4.42-8.67,1.34-12.48-3.08-3.82-8.67-4.44-12.51-1.34-25.21,20.33-68.3,22.62-102.75,20.36-.93-14.12-1.69-28.67-2.26-43.36,27.15-2.37,51.81-13.08,51.81-31.4s-25.1-29.24-52.68-31.42c6.13-140.28,64.95-247.45,77.81-269.3,2.67-.11,5.26-.16,7.74-.16,70.59,0,136.49,31.53,180.86,86.51,7.82,9.68,14.94,20.03,21.1,30.85,7.93,13.93,14.39,28.59,19.21,43.58Zm-201.77,39.9l30.06-12.59c-2.07-30.01-14.72-53.09-30.06-53.09-16.79,0-30.39,27.64-30.39,61.7,0,23.25,6.35,43.47,15.7,53.99-8.07,1.55-15.81,4.85-21.99,9.29,20.71,.41,38.54-3.46,58.84,0-2.92-2.97-6.27-5.23-9.89-6.87,7.82-7.03,13.93-20.6,16.63-37.31l-28.89-15.13Zm-13.63-168.05c3.19-3.19,3.19-8.37,0-11.56-3.19-3.19-8.37-3.19-11.56,0s-3.19,8.37,0,11.56,8.37,3.19,11.56,0Zm-25.62,57.29c3.19-3.19,3.19-8.37,0-11.56s-8.37-3.19-11.56,0c-3.19,3.19-3.19,8.37,0,11.56,3.19,3.19,8.37,3.19,11.56,0Zm-25.05,76.48c3.19-3.19,3.19-8.37,0-11.56s-8.34-3.19-11.53,0-3.19,8.37,0,11.56,8.34,3.19,11.53,0Zm0,270.59c3.19-3.19,3.19-8.37,0-11.56s-8.37-3.19-11.56,0-3.19,8.37,0,11.56,8.37,3.19,11.56,0Zm-13.52-199.01c3.19-3.19,3.19-8.37,0-11.56-3.19-3.19-8.37-3.19-11.56,0-3.19,3.19-3.19,8.37,0,11.56s8.37,3.19,11.56,0Zm-3.22,121.94c3.19-3.19,3.19-8.37,0-11.56s-8.37-3.19-11.56,0-3.19,8.37,0,11.56,8.37,3.19,11.56,0Z"/><path d="M401.7,328.52l-30.06,12.59,28.89,15.13c-2.7,16.71-8.8,30.28-16.63,37.31,3.62,1.64,6.98,3.9,9.89,6.87-20.3-3.46-38.13,.41-58.84,0,6.19-4.44,13.93-7.74,21.99-9.29-9.35-10.52-15.7-30.74-15.7-53.99,0-34.07,13.6-61.7,30.39-61.7,15.34,0,27.99,23.08,30.06,53.09Z"/><circle cx="352.23" cy="167.28" r="8.17"/><circle cx="326.61" cy="224.57" r="8.17"/><ellipse cx="301.58" cy="301.05" rx="8.16" ry="8.17"/><circle cx="301.57" cy="571.63" r="8.17"/><circle cx="288.05" cy="372.62" r="8.17"/><path class="cls-2" d="M301.59,441.16c0,4.01-15.62,13.9-44.48,14.12h-.98c-29.54,0-45.46-10-45.46-14.12s15.92-14.09,45.46-14.09h.3c29.33,.08,45.16,10.03,45.16,14.09Z"/><circle cx="284.83" cy="494.56" r="8.17"/><path class="cls-3" d="M248.85,164.5c23.41-11.69,48.35-19.13,74.27-22.35-20.22,37.2-68.74,138.97-74.24,267.37-28.89,1.55-55.98,12.35-55.98,31.64s27.66,30.36,56.85,31.75c.57,14.01,1.31,27.88,2.15,41.43-8.39-.95-15.78-2.07-21.56-3.03-4.82-.84-9.43,2.43-10.25,7.28-.82,4.82,2.45,9.43,7.28,10.25,7.44,1.25,16.03,2.48,25.29,3.49,2.48,20.11,8.69,39.85,18.07,57.86-88.03-33.09-150.86-118.12-150.86-217.57,0-55.3,19.73-108.86,55.6-150.83,13.22-15.48,28.43-29.19,45.22-40.69,8.26-5.72,17.09-11.01,26.25-15.67l1.91-.93Zm-54.05,160.15l30.06-12.62c-2.07-29.98-14.72-53.07-30.06-53.07-16.76,0-30.39,27.61-30.39,61.68,0,23.66,6.57,44.18,16.19,54.54-8.01,1.72-15.75,4.77-22.32,8.75,23.17,.44,43.8-3.49,66.58,0-4.77-4.06-10.28-6.79-16.16-8.39,7.06-7.39,12.51-20.22,14.99-35.76l-28.89-15.13Z"/><path d="M224.87,312.03l-30.06,12.62,28.89,15.13c-2.48,15.54-7.93,28.37-14.99,35.76,5.89,1.61,11.39,4.33,16.16,8.39-22.78-3.49-43.42,.44-66.58,0,6.57-3.98,14.31-7.03,22.32-8.75-9.62-10.36-16.19-30.88-16.19-54.54,0-34.07,13.63-61.68,30.39-61.68,15.34,0,27.99,23.08,30.06,53.07Z"/><path class="cls-3" d="M194.65,127.43c16.9,0,32.13,9.92,39.14,24.83-8.04,4.33-15.84,9.1-23.19,14.2-.44,.3-.82,.63-1.25,.93-9.16-7.96-21.07-12.81-34.15-12.81-8.01,0-15.56,1.85-22.35,5.07,4.96-18.53,22.08-32.22,41.81-32.22Z"/></svg>