<svg width="100%" height="auto" viewBox="0 0 558 511" fill="none" xmlns="http://www.w3.org/2000/svg">
<path d="M483.078 403.849C483.078 403.849 483.518 403.299 483.738 402.859C484.399 401.428 485.059 399.887 485.829 398.457C486.709 396.586 487.37 394.826 487.37 392.735C487.37 389.214 486.489 385.692 487.26 382.061C487.26 382.061 487.15 381.951 487.039 381.731C486.819 382.281 486.489 382.611 486.379 383.051C486.159 384.262 486.049 385.582 485.829 386.793C485.609 388.003 485.169 389.104 483.958 389.874C480.767 392.295 479.997 395.376 481.427 399.117C482.088 400.658 482.528 402.308 483.078 403.849ZM483.518 380.3H483.408C480.437 384.152 477.576 387.673 474.715 391.414C474.055 392.295 473.615 393.505 473.505 394.716C472.844 399.117 472.404 403.629 471.744 408.361C474.165 408.801 476.586 409.131 479.007 409.571C479.117 409.021 479.117 408.581 479.337 408.251C480.767 405.39 481.097 402.639 478.897 399.888C478.786 399.777 478.786 399.667 478.676 399.447C477.906 397.467 477.466 395.486 478.346 393.505C479.117 391.634 480.327 389.984 481.978 388.773C482.748 388.113 483.408 387.563 483.408 386.463V380.41H483.518V380.3ZM482.088 378.43C480.767 378.21 479.557 378.43 478.676 379.64C475.815 383.602 472.844 387.563 470.093 391.634C469.433 392.515 468.883 393.725 468.773 394.826C468.333 398.457 468.223 401.978 468.113 405.61C468.113 406.05 468.443 406.49 468.773 407.37C469.103 406.6 469.213 406.38 469.213 406.05C469.543 403.519 469.983 400.988 470.093 398.457C470.313 393.505 471.964 389.214 475.485 385.582C477.356 383.822 479.117 381.841 480.987 379.86C481.427 379.42 481.758 378.87 482.088 378.43ZM432.9 377.549C432.9 377.549 433.34 378.43 433.78 378.87C437.411 383.051 439.392 387.783 438.622 393.395C438.512 394.385 438.622 395.486 438.512 396.476C438.402 406.6 438.842 416.614 437.521 426.737H441.703C441.703 426.737 441.923 426.297 441.923 426.187C442.033 417.274 442.253 408.361 442.033 399.557C442.033 395.706 441.593 391.855 440.712 388.113C439.722 383.491 437.301 379.75 432.9 377.549ZM319.888 239.228C320.438 238.678 321.098 238.238 321.428 237.578C322.529 235.707 323.739 233.836 324.51 231.856C327.921 223.823 330.562 215.57 331.662 206.876C332.322 201.924 331.442 197.083 327.371 193.451C327.371 193.451 327.261 193.231 327.261 193.121H327.04C327.04 193.121 327.261 193.341 327.261 193.451C327.371 194.112 327.481 194.772 327.811 195.322C330.342 201.264 331.222 207.206 329.351 213.589C326.93 221.732 324.179 229.765 320.438 237.468C320.108 238.018 319.998 238.678 319.778 239.228H319.888ZM318.567 241.099H318.457L318.347 241.319H318.457C318.457 241.319 318.457 241.099 318.567 241.099ZM153.396 226.243C151.086 223.823 148.665 221.622 146.464 219.091C143.273 215.459 141.182 211.278 140.412 206.436C139.861 203.025 139.311 199.504 139.091 196.092C138.651 188.72 140.632 181.897 142.723 174.965C144.263 170.013 146.134 165.391 148.995 161.099C150.976 158.348 153.286 156.148 156.368 154.717C158.128 153.947 159.999 153.287 161.87 152.846C165.501 152.076 168.802 150.536 171.993 148.555C172.654 148.225 173.204 147.785 173.754 147.344C176.395 145.364 179.366 144.703 182.557 145.584C183.438 145.804 184.318 145.694 185.198 146.024C187.399 146.574 189.27 146.354 190.81 143.933C188.389 136.78 189.05 129.738 193.231 123.025C196.092 118.404 199.944 114.882 205.116 113.012C215.349 109.05 227.894 112.461 233.836 122.475C237.357 122.035 240.989 121.375 244.62 121.045C253.974 120.164 263.327 120.604 272.57 122.475C274.111 122.805 275.652 122.915 277.192 123.135C278.513 123.686 279.943 124.456 281.374 124.896C288.856 127.207 295.789 130.398 302.391 134.58C303.052 135.02 303.932 135.24 304.812 135.57C305.693 136.01 306.683 136.34 307.563 136.89C313.175 140.962 318.457 145.474 323.189 150.536C323.409 150.756 323.739 150.976 323.959 151.196C326.49 149.765 328.911 148.225 331.442 146.904C337.054 144.263 342.886 143.933 348.719 146.244C361.043 151.306 365.115 163.85 359.172 175.405C356.421 180.797 352.24 184.868 346.958 187.509C345.197 188.389 345.197 188.5 345.417 190.26C345.417 191.361 345.857 192.351 346.078 193.341C348.058 200.274 349.489 207.316 349.599 214.579C349.599 216.89 349.049 219.201 348.829 221.512C350.809 222.722 352.13 224.263 352.02 226.684C352.02 229.435 350.919 231.525 348.388 232.626C347.288 233.066 346.848 233.726 346.628 234.937C345.637 239.118 344.537 243.19 343.437 247.591C343.767 247.811 344.097 248.142 344.537 248.362C350.919 252.103 356.641 256.725 361.593 262.117C376.889 278.953 382.391 298.32 376.119 320.438C374.688 325.61 372.597 330.562 368.966 334.633C368.196 335.624 367.205 336.504 366.215 337.384C366.875 338.485 367.425 339.585 367.976 340.576C373.368 351.69 373.478 362.914 369.296 374.358C367.425 379.42 365.225 384.262 361.813 388.553C357.192 394.275 351.47 398.127 344.207 399.667C343.437 399.777 342.776 399.998 342.116 400.108C342.006 400.108 341.896 400.218 341.566 400.438C342.226 400.988 342.666 401.648 343.327 402.198C348.058 406.71 352.9 411.222 357.632 415.733C362.474 420.245 366.985 424.977 370.176 430.699C371.277 432.57 372.157 434.55 373.368 436.861C373.918 432.349 373.918 428.168 375.018 424.096H390.204C387.453 421.676 384.922 419.475 382.501 417.384C381.07 417.824 379.53 418.264 377.989 418.704C375.238 419.585 372.817 418.704 370.507 417.274C366.655 414.633 364.344 411.002 363.794 406.38C363.464 403.849 364.344 401.318 365.775 399.117C366.545 397.797 367.866 397.687 369.186 398.897C371.057 400.438 372.707 402.088 374.468 403.739C374.798 404.069 375.018 404.509 375.568 404.949C377.549 403.629 379.53 402.308 381.621 400.988C380.41 399.117 379.31 397.467 378.209 395.706C377.439 394.165 376.669 392.735 376.119 391.194C375.568 389.654 376.009 388.883 377.549 388.553C381.07 387.783 384.482 388.223 387.783 389.764C389.874 390.644 391.194 392.295 392.185 394.275C393.505 396.916 394.055 399.667 393.835 402.639C393.835 403.409 393.725 404.179 393.725 405.059C396.806 407.92 399.777 410.782 402.748 413.533C402.858 413.753 403.079 413.863 403.189 413.973C403.189 413.973 402.969 413.533 402.858 413.422C402.418 412.432 401.978 411.552 401.538 410.561C398.897 405.28 396.036 399.998 394.605 394.165C394.495 393.725 394.275 393.395 394.055 393.065C392.075 390.974 392.735 388.883 393.835 386.683C394.165 386.022 394.605 385.472 395.046 384.812C394.826 384.262 394.495 383.602 394.165 382.941C391.744 378.099 389.213 373.258 386.903 368.416C386.132 366.875 385.252 365.335 383.931 364.124C382.061 362.254 380.41 360.163 378.65 358.182C378.319 357.852 377.879 357.302 377.769 356.862C376.669 353.78 377.879 350.919 379.09 348.389C380.08 346.188 382.501 345.637 384.812 345.417C385.362 345.417 386.132 345.858 386.572 346.408C388.553 348.829 390.534 351.36 392.295 354.001C392.955 354.881 393.285 356.201 393.175 357.192C392.625 361.373 393.945 364.895 395.926 368.526C398.237 372.597 400.107 376.889 402.088 381.181C403.849 380.961 405.499 380.3 407.04 381.401C408.581 382.501 409.021 384.042 409.351 385.912C409.681 385.142 410.011 384.482 410.341 383.712C411.442 380.961 412.872 378.32 415.513 376.779C419.034 374.578 422.886 373.148 426.957 372.818C431.579 372.377 435.761 373.918 439.062 377.439C439.722 377.989 440.272 378.65 440.823 379.31C455.788 374.248 471.084 371.057 486.049 366.875C487.15 359.062 494.632 355.211 500.244 354.551C503.326 354.111 506.407 354.331 509.378 355.431C514.22 357.082 517.191 360.273 517.961 365.445L518.291 367.095C518.291 367.095 518.401 367.646 518.621 368.416C519.281 365.885 519.832 363.904 520.382 361.813C520.602 360.603 520.932 359.393 521.372 358.182C522.913 353.56 522.693 353.45 527.645 354.111C532.596 354.771 537.438 356.201 542.28 357.302C543.93 357.742 544.261 359.062 544.371 360.493C544.481 363.354 544.041 366.215 543.38 368.966C542.61 372.047 541.95 375.018 541.289 378.099C539.089 387.893 536.998 397.797 534.907 407.59C534.797 408.141 534.797 408.691 534.687 409.461C535.237 409.461 535.788 409.571 536.338 409.681C541.51 410.121 546.792 410.561 552.073 411.002C554.274 411.222 555.045 412.872 554.054 414.963C553.944 415.403 553.724 415.843 553.724 416.284C553.834 427.068 553.944 437.852 553.834 448.635C553.834 459.53 553.504 470.424 553.394 481.318C553.284 482.638 553.394 484.069 553.394 485.389C553.504 487.81 552.954 488.47 550.643 489.13C547.562 489.901 544.591 490.671 541.51 491.441C523.243 496.063 504.866 500.685 486.489 505.196C482.748 506.187 478.786 506.627 475.045 507.507C471.634 508.277 468.333 507.837 465.031 507.727C461.73 507.507 458.429 507.287 455.238 507.067C442.363 506.407 429.488 505.747 416.614 504.976C406.93 504.426 397.136 503.766 387.453 503.106C383.271 502.775 379.09 502.115 374.908 501.455C372.597 501.125 372.377 500.905 372.377 498.484C372.487 495.293 372.487 492.102 372.487 488.91C372.487 488.14 372.707 487.26 371.717 487.15C362.033 492.542 351.91 496.723 341.126 498.814C327.921 501.455 314.606 502.005 301.291 501.565C290.947 501.235 280.713 500.024 270.92 496.503C266.628 494.963 262.447 493.202 258.485 490.781C255.294 488.91 252.653 486.489 250.672 483.188C249.682 481.648 249.132 479.887 248.912 478.126C248.251 474.165 248.141 470.093 248.472 466.132C248.692 464.811 248.802 463.601 249.022 462.28C249.792 458.099 250.562 453.807 251.773 449.736C255.734 436.311 264.207 426.847 276.972 421.235C285.005 417.604 293.478 415.183 302.061 413.533C302.612 413.423 303.162 413.202 303.932 412.982C303.052 412.212 302.391 411.772 301.841 411.112C287.316 396.586 275.542 380.19 269.049 360.493C266.408 352.46 265.418 344.097 266.078 335.624C266.738 328.251 268.279 320.988 270.15 313.836C270.59 312.295 271.03 310.755 271.36 309.214C270.59 308.444 269.819 308.884 269.049 308.994C261.896 310.204 254.634 310.755 247.371 310.094C242.309 309.544 237.247 308.444 232.186 307.453C227.564 306.573 223.162 305.033 218.761 303.162C218.43 303.052 218.1 302.942 217.55 302.832C217.22 303.712 216.89 304.482 216.56 305.363C213.699 314.386 210.508 323.299 208.857 332.763C207.867 338.045 207.206 343.437 206.546 348.829C206.106 353.56 205.776 358.402 205.666 363.244C205.116 377.439 207.206 391.414 210.618 405.169C213.259 415.733 215.789 426.297 218.32 436.861C219.531 442.143 220.081 447.425 220.301 452.817C220.411 456.118 220.301 459.309 219.751 462.391C218.54 469.653 215.569 476.366 210.838 482.528C209.297 484.509 207.426 486.269 205.556 488.03C203.905 489.571 201.924 490.231 199.724 490.561C197.743 490.891 195.762 491.111 193.781 491.111C188.169 491.001 182.557 491.001 176.945 490.671C169.682 490.121 162.53 489.24 155.377 487.59C145.033 485.169 135.13 481.318 125.776 476.036C117.523 471.414 109.6 466.132 102.338 459.97C95.6252 454.248 90.0131 447.645 86.3818 439.502C83.3006 432.68 81.8701 425.527 82.7504 418.044C83.5207 411.882 86.0516 406.49 90.1231 401.978C97.936 393.395 107.51 388.113 118.954 386.132C131.278 383.932 142.943 386.132 154.387 390.644C162.31 393.725 169.903 397.687 177.165 402.198C177.936 402.639 178.596 402.969 179.586 403.629C179.366 401.648 179.256 399.887 179.036 398.237C178.486 391.634 178.486 385.142 179.036 378.54C179.586 372.928 179.916 367.095 180.687 361.483C182.337 348.388 184.978 335.514 189.05 322.969C191.801 314.826 194.772 306.793 198.843 299.2C199.614 297.77 200.494 296.339 201.484 294.799C193.781 289.627 187.069 283.685 181.127 276.862C175.295 269.93 170.563 262.227 166.711 253.864C162.42 254.854 158.238 254.854 154.057 254.414C147.124 253.754 140.302 252.433 133.479 250.783C110.151 245.06 90.4533 232.956 73.397 216.23C69.7656 212.818 66.5744 208.967 64.8138 204.125C59.4218 205.226 54.2499 204.345 48.8579 203.575C48.6378 204.235 48.4178 204.786 48.3077 205.446C47.4274 212.158 46.6571 218.871 45.7768 225.693C45.1165 230.315 44.4563 234.937 43.7961 239.668C43.686 240.219 43.4659 240.769 43.3559 241.319C42.5856 244.73 40.3848 246.711 37.0836 247.261C35.543 247.591 34.0024 247.701 32.4619 247.701C27.9502 247.481 23.4385 247.261 18.8168 246.931C16.9462 246.711 15.0755 246.381 13.3148 245.721C10.5638 244.84 9.57343 242.86 10.2337 240.109C11.004 236.257 11.9943 232.516 13.0947 228.774C16.8361 216.45 19.4771 204.015 22.2281 191.471L23.5486 186.519C21.1277 186.299 18.8168 186.409 16.616 185.969C11.8843 185.088 7.81278 182.887 4.95173 178.926C2.75092 175.845 1.98063 172.324 3.08104 168.472C3.85132 166.161 5.39189 164.511 7.48266 163.3C4.84169 158.568 4.40152 153.837 6.71238 148.995C9.02323 144.373 12.3244 141.072 18.1566 140.852C18.7068 135.68 21.0177 131.388 25.0892 128.087C29.1607 124.786 33.5623 122.695 39.0643 122.585L40.3848 116.313C42.9157 104.098 45.4467 91.8839 47.9776 79.7794C49.188 74.0573 50.1784 68.2252 50.3985 62.393C50.6186 60.0822 50.3985 57.6613 50.0684 55.2404C49.5182 51.609 47.5374 48.858 44.2362 46.8773C41.2651 45.1166 37.9639 44.2363 34.5526 43.466C33.2322 43.1359 31.8016 42.9158 30.3711 42.5857C28.7205 42.2556 26.9598 41.8154 25.1992 42.3656C24.4289 42.5857 23.4385 42.2556 22.5582 42.1455C18.2666 41.1552 14.1951 39.6146 10.3437 37.4138C7.92282 35.9833 6.82242 34.0025 6.60234 31.4716C5.50193 21.788 8.1429 13.3149 14.9654 6.16227C15.8457 5.1719 17.1662 4.29158 18.2666 3.5213C19.257 2.75101 20.2474 2.42089 21.4578 2.97109C21.7879 3.08113 22.3381 3.19117 22.7783 3.08113C25.6394 2.31085 28.3904 2.86105 31.0313 3.85142C34.1125 4.95182 36.0932 7.15264 36.2033 10.5639C36.2033 11.5543 36.5334 11.9944 37.3037 12.5446C38.184 13.2049 39.1744 13.9752 40.0547 14.8555C43.7961 18.3768 48.1977 20.0274 53.2595 20.4675C56.6708 20.7977 60.1921 21.1278 63.7134 21.3479C76.8082 22.1182 88.2524 27.07 98.4862 34.8829C113.232 46.217 121.265 61.6227 125.446 79.4493C126.106 82.4204 126.657 85.3915 127.097 88.3626C127.207 89.573 127.097 90.7835 126.877 91.9939C126.547 94.1947 125.226 95.7353 123.025 96.3956C119.944 97.2759 116.863 97.496 113.782 96.9458C112.902 96.8357 112.351 96.9458 111.581 97.3859C108.61 99.1466 105.309 99.8068 101.897 99.4767C98.2661 99.1466 96.6155 97.1658 96.1754 93.5345C95.9553 91.3337 95.8452 89.2429 95.4051 87.1521C94.3047 81.8702 91.7737 77.2485 88.8026 72.8469C86.932 70.0959 84.8412 67.5649 82.7504 64.8139C74.4974 82.7505 69.5455 101.237 66.3544 120.494C67.7849 120.935 69.2154 121.375 70.5359 121.925C76.0379 124.236 80.6596 127.867 84.1809 132.599C89.3529 139.311 92.7641 146.904 92.9842 155.487C93.0942 159.339 92.6541 163.3 92.1039 167.152C91.4436 173.314 90.1231 179.366 89.793 185.528C89.793 186.629 90.0131 187.399 90.7834 188.169C95.8452 193.341 101.347 197.963 107.069 202.365C120.274 212.488 134.8 220.301 150.535 225.693C151.416 226.023 152.406 226.023 153.286 226.243H153.396ZM551.083 416.284C550.313 416.394 549.653 416.394 549.102 416.504C536.558 419.035 524.123 421.676 511.579 424.206C501.235 426.297 490.781 428.388 480.327 430.369C478.786 430.699 477.246 430.809 475.925 430.919C476.476 455.788 475.155 480.327 474.935 505.086C499.474 497.383 524.233 491.661 548.772 484.949C548.882 484.069 548.992 483.518 548.992 482.858C549.212 472.734 549.433 462.721 549.653 452.597C549.983 442.693 550.313 432.68 550.643 422.666C550.753 420.575 550.863 418.594 551.083 416.284ZM540.079 366.985C540.739 365.005 541.29 363.134 541.95 361.263C536.118 359.503 530.396 357.852 524.673 356.201C524.563 356.421 524.453 356.642 524.453 356.972C523.793 360.713 523.353 364.454 522.583 368.086C519.171 384.372 515.54 400.768 512.019 417.054C511.799 418.044 511.689 419.035 511.469 420.245C517.301 419.035 522.693 417.934 528.195 416.724C528.635 416.614 529.185 415.843 529.295 415.403C529.955 413.202 530.396 411.112 530.946 408.911C529.405 408.031 527.534 407.92 526.764 405.94C527.975 403.959 529.955 405.169 531.826 404.729L533.807 395.156C532.816 394.826 531.936 394.606 531.166 394.275C530.396 394.055 529.735 393.505 530.065 392.735C530.285 392.295 531.056 391.965 531.606 391.855C532.486 391.745 533.477 391.855 534.577 391.855C535.237 388.663 535.898 385.692 536.448 382.611C534.797 381.841 532.816 381.951 532.376 379.42H537.218C537.878 376.339 538.649 373.258 539.309 370.397C537.035 369.443 535.971 368.306 536.118 366.985H540.079ZM514.99 385.252C515.76 381.841 516.861 378.43 515.76 374.908C515.65 374.688 515.65 374.468 515.65 374.138C515.32 371.497 515.1 368.746 514.66 366.105C513.999 362.474 511.909 360.053 508.277 358.842V359.172C508.277 359.172 508.828 359.833 509.048 360.163C512.349 364.124 513.779 368.526 512.459 373.698C512.459 374.248 512.459 374.798 512.459 375.348C512.569 376.889 512.679 378.32 512.789 379.86V392.515C512.789 392.515 513.119 392.515 513.339 392.515C513.889 390.094 514.44 387.563 514.99 385.142V385.252ZM509.488 376.449C509.488 374.138 509.708 371.827 509.378 369.516C508.607 364.014 505.856 360.823 501.015 359.723C496.283 358.622 491.661 361.153 490.011 365.885C491.221 365.665 492.321 365.225 493.532 365.005C494.742 364.785 495.953 364.564 497.273 364.454C501.015 364.454 503.766 366.985 504.206 370.947C504.646 375.128 502.995 377.659 499.034 378.54C497.493 378.98 495.843 379.42 494.192 379.86C494.852 383.602 495.513 387.013 496.173 390.424C496.723 393.175 497.493 395.926 496.723 398.677C495.072 404.069 493.312 409.351 491.661 414.633C491.551 415.183 491.221 415.623 491.331 416.063C491.991 418.704 492.762 421.345 493.532 424.096C497.823 423.106 501.785 422.336 505.746 421.455C506.627 421.345 507.177 420.795 507.287 419.915C508.607 414.413 509.818 408.911 511.138 403.079C509.378 402.418 509.488 400.878 509.488 399.447C509.488 391.744 509.378 384.042 509.488 376.449ZM500.024 374.028C500.464 370.727 499.804 369.296 497.603 368.086C478.897 372.267 460.74 377.329 442.363 380.74C443.463 383.822 444.454 386.683 445.554 389.654C445.884 389.544 446.325 389.544 446.875 389.324C454.468 387.013 462.06 384.592 469.653 382.391C472.624 381.511 475.485 380.74 477.136 377.879C477.136 377.769 477.246 377.659 477.246 377.659C479.007 376.009 480.987 375.238 483.298 375.679C483.958 375.899 484.619 376.009 485.169 376.009C486.269 376.009 486.819 376.559 487.039 377.439C488.58 376.889 489.791 376.119 491.111 376.119C494.302 376.119 497.163 374.688 500.024 374.028ZM492.432 398.677C492.872 397.247 493.202 396.036 492.762 394.495C492.321 392.845 492.321 391.194 492.211 389.544C491.881 386.463 491.551 383.491 491.331 380.52C491.331 379.31 490.561 379.09 489.57 379.09C489.46 381.511 489.46 383.712 489.24 385.912C489.02 387.563 489.24 389.104 489.681 390.754C490.891 395.486 489.35 399.557 485.829 402.859C485.499 403.189 485.059 403.519 485.059 403.959C484.509 406.16 484.068 408.471 483.628 410.782C485.279 411.332 486.929 411.772 488.69 412.322C488.91 411.552 489.13 411.002 489.35 410.341C490.341 406.49 491.331 402.528 492.432 398.677ZM482.418 426.627C485.059 425.967 487.7 425.417 490.341 424.757C489.791 421.345 489.13 418.264 488.58 415.073C482.198 413.312 475.815 411.552 469.103 409.681C464.591 414.963 461.18 421.015 457.769 427.398C460.85 427.618 463.601 427.728 466.242 427.838C466.682 427.838 467.232 427.728 467.562 427.508C468.993 426.517 470.313 425.527 471.524 424.427C473.064 423.106 474.385 421.676 475.925 420.245C476.586 419.585 477.136 418.814 478.346 419.145C479.667 421.565 480.987 423.986 482.418 426.627ZM479.337 427.068C478.236 425.747 477.136 424.427 476.146 423.106C474.385 424.647 472.844 426.187 471.084 427.838C474.055 428.938 476.696 428.718 479.337 427.068ZM472.734 431.909C471.744 431.799 470.974 431.689 470.093 431.689C467.562 431.469 464.921 431.579 462.5 431.029C458.869 430.039 455.128 429.929 451.496 429.819C446.324 429.598 441.153 429.488 435.761 428.058C435.541 426.517 435.1 424.977 435.1 423.546C434.99 418.594 434.88 413.643 434.88 408.691C434.88 403.189 435.1 397.797 434.99 392.295C434.99 388.003 433.67 384.042 430.699 380.74C426.847 376.559 420.355 377.219 417.384 379.75C414.083 382.501 412.432 386.242 412.212 390.204C411.662 399.117 411.662 407.92 411.442 416.834C411.332 419.805 411.112 422.776 410.671 425.637C410.451 427.948 409.131 428.938 406.82 428.828C402.198 428.608 397.577 428.278 392.845 427.948C387.453 427.618 382.061 427.288 376.779 426.957C376.889 430.699 377.109 434.66 376.999 438.512C376.889 457.659 376.669 476.916 376.559 496.063C376.449 497.053 376.449 498.154 376.449 499.254C377.219 499.254 377.659 499.364 378.099 499.364C386.793 499.694 395.376 499.804 403.959 500.245C416.173 500.795 428.388 501.565 440.602 502.335C443.794 502.445 446.985 502.665 450.176 502.885C456.558 503.326 462.831 503.766 469.103 504.096C469.543 504.096 469.983 503.986 470.754 503.986C471.524 479.887 471.414 456.008 472.734 431.909ZM467.342 390.314C468.443 388.993 469.433 387.563 470.643 385.912C462.17 387.783 454.027 389.544 445.884 391.304V409.131C449.076 407.48 451.827 405.83 454.688 404.509C455.458 404.069 456.448 403.959 457.329 403.849C459.86 403.739 462.28 403.629 464.701 403.519C464.701 401.648 464.811 399.998 464.701 398.347C464.481 395.266 465.362 392.735 467.342 390.314ZM466.792 408.581C466.792 408.581 467.232 407.59 467.342 407.15C463.601 409.791 454.027 423.876 453.367 427.068C454.468 427.508 455.128 427.398 455.678 426.297C456.558 424.537 457.549 422.886 458.539 421.235C461.07 416.834 463.491 412.432 466.792 408.581ZM408.14 415.733L408.801 388.993C405.72 392.845 401.978 394.716 396.916 394.385C398.237 397.136 399.447 399.557 400.658 401.868C401.868 404.289 402.969 406.6 404.179 408.911C405.389 411.222 406.38 413.753 408.14 415.733ZM407.81 424.867C408.25 423.546 408.03 422.776 407.15 422.116C401.758 418.044 397.466 412.982 392.955 408.251C392.074 407.26 391.634 406.16 391.524 404.729C391.524 402.638 391.304 400.438 390.864 398.347C390.204 395.816 388.883 393.505 386.242 392.295C384.262 391.414 382.281 391.194 379.86 390.974C380.63 391.855 381.18 392.515 381.841 393.175C383.161 394.606 384.042 396.256 384.592 398.127C385.032 399.888 384.702 401.318 383.271 402.418C381.181 404.289 379.09 405.94 376.119 406.49C374.688 406.71 373.698 406.49 372.707 405.61C371.497 404.399 370.286 403.299 368.856 401.868C368.856 403.079 368.746 403.959 368.856 404.839C369.186 410.782 373.808 414.303 379.53 412.762C381.841 412.102 383.601 412.322 385.252 413.753C386.352 414.523 387.453 415.183 388.443 415.953L397.687 423.546C397.687 423.546 398.567 424.427 399.117 424.427C401.978 424.647 404.949 424.757 407.81 424.867ZM405.609 386.903C406.82 385.032 406.16 384.042 403.519 383.932V387.343C402.418 388.003 401.098 388.773 399.777 389.324C398.347 389.874 397.797 389.434 397.026 387.893C396.916 387.563 396.696 387.233 396.476 386.793C395.596 387.893 395.706 388.993 396.036 390.094C396.366 391.084 397.026 391.524 398.017 391.414C401.098 390.864 403.739 389.544 405.609 386.903ZM399.887 387.123C400.548 386.793 401.098 386.573 401.868 386.132C401.098 384.702 400.438 383.602 399.777 382.391C397.026 376.559 394.275 370.837 391.414 365.005C391.194 364.564 390.974 364.014 390.974 363.464C390.644 361.153 390.204 358.952 389.984 356.642C389.984 355.211 389.544 354.001 388.663 352.9C388.223 352.46 387.783 351.91 387.453 351.47C384.812 348.278 385.582 348.939 382.171 350.039C382.171 350.149 381.951 350.259 381.841 350.479C381.951 351.8 382.281 353.12 382.171 354.441C382.171 355.651 382.611 356.531 383.381 357.412C385.252 359.503 387.343 361.593 388.773 364.124C390.864 367.756 392.405 371.827 394.165 375.679C395.816 379.31 397.577 382.941 399.227 386.463C399.337 386.793 399.667 386.903 399.887 387.123ZM373.038 317.027C375.899 305.033 375.128 293.258 370.176 282.034C364.564 269.489 355.651 259.696 343.877 252.653C343.216 252.323 342.336 252.323 341.456 252.103C339.805 258.045 336.614 262.777 333.203 267.509C333.863 268.169 334.413 268.609 334.853 269.049C340.355 274.001 344.867 279.503 347.288 286.436C350.919 296.449 350.589 306.023 344.317 315.046C342.336 317.797 339.805 320.108 336.834 321.649C335.404 322.529 333.863 323.299 332.102 322.419C329.571 321.208 326.93 320.658 324.179 320.548C317.577 320.108 311.635 321.539 307.013 326.6C304.702 329.131 302.612 331.882 301.951 335.404C301.621 336.944 301.511 338.485 302.391 340.135C302.832 339.805 303.162 339.475 303.492 339.365C305.363 338.265 307.123 337.054 309.104 336.064C309.984 335.624 311.195 335.514 312.295 335.294C312.955 335.184 313.726 335.184 313.836 336.064C313.836 336.394 313.285 336.944 312.955 337.274C312.515 337.605 311.965 337.825 311.415 338.045C306.463 340.025 302.832 343.437 300.741 348.389C299.64 351.029 298.21 353.56 298.21 356.532C298.21 356.752 297.88 356.862 297.44 357.082C297.22 356.201 296.889 355.321 296.779 354.551C296.559 351.58 297.44 348.829 298.65 346.188C299.2 344.977 299.971 343.657 300.411 341.786C298.65 342.666 297.22 343.107 296.009 343.987C292.158 346.848 289.187 350.259 287.096 354.551C285.995 357.082 285.555 359.723 285.995 362.474C286.656 367.646 289.077 371.827 292.818 375.348C296.449 378.76 300.741 380.85 306.023 380.08C306.573 379.97 307.123 380.08 307.783 380.08C307.673 380.63 307.563 381.071 307.563 381.401C307.673 384.702 307.783 388.113 310.644 390.424C314.936 394.055 319.778 396.256 325.61 395.046C326.82 394.716 328.031 394.496 329.241 394.385C329.792 394.275 330.562 394.275 331.662 394.275C331.112 395.486 330.672 396.256 330.232 397.247C330.892 397.357 331.222 397.467 331.552 397.467C333.863 397.247 336.064 397.247 338.265 396.916C346.078 396.036 352.79 393.175 357.852 387.123C361.153 383.271 363.244 378.76 365.115 374.138C367.535 367.536 368.966 360.823 367.976 353.67C367.425 349.929 366.545 346.298 364.894 342.886C363.684 340.246 363.794 337.935 365.335 335.294C368.636 329.462 371.497 323.519 373.038 317.027ZM372.707 467.342C372.927 461.84 373.038 456.228 372.267 450.616C370.837 441.923 367.976 433.67 362.143 426.847C359.503 423.766 356.641 420.905 353.67 418.044C348.058 412.542 342.226 407.15 336.504 401.648C335.624 400.768 334.633 400.108 333.203 399.888C331.882 399.667 330.452 399.227 329.131 398.677C328.031 398.127 327.04 398.127 325.94 398.457C323.959 399.117 321.979 399.227 319.998 398.897C316.257 398.347 312.845 396.806 309.764 394.606C306.243 392.075 304.812 388.663 305.032 384.372C305.032 383.822 305.032 383.161 305.032 382.501C300.851 382.941 299.09 382.721 296.669 381.621C290.837 378.98 286.656 374.688 284.125 368.746C282.034 363.464 281.484 358.182 283.905 352.9C285.225 349.929 287.426 347.398 289.737 345.087C290.397 344.537 291.167 344.097 291.828 343.657C289.407 337.825 287.756 332.323 287.096 326.49C286.546 320.768 287.206 315.156 287.646 308.994C283.244 311.415 278.733 311.855 274.111 312.185C273.341 315.596 272.57 318.898 272.02 322.199C271.25 327.261 270.37 332.433 270.039 337.605C269.489 347.288 271.8 356.421 275.431 365.335C280.493 377.769 287.866 388.883 296.559 399.117C299.86 403.079 303.382 406.82 306.683 410.782C307.563 411.882 308.554 412.542 309.874 412.982C312.735 413.753 315.706 414.413 318.897 415.293C317.797 416.284 316.697 416.174 315.596 416.063C313.065 415.843 310.644 415.843 308.114 416.284C297.77 417.714 287.866 420.685 278.403 424.977C266.738 430.149 259.145 438.952 255.514 451.166C253.643 457.439 252.653 463.931 252.213 470.424C252.103 472.404 252.213 474.275 252.213 476.256C256.064 478.346 259.806 480.217 263.767 481.648C276.422 486.489 289.627 488.03 302.942 488.69C311.525 489.13 319.998 488.91 328.581 487.92C338.155 486.93 347.618 485.059 356.972 482.418C361.703 481.097 366.215 479.337 370.397 476.916C371.497 476.256 372.047 475.595 372.047 474.275C372.157 471.964 372.487 469.653 372.597 467.342H372.707ZM356.091 159.999C356.091 159.999 356.421 160.109 356.862 160.219C354.881 155.377 351.8 151.966 347.178 150.205C339.585 147.234 332.983 149.875 326.6 154.277C328.581 156.808 330.232 159.009 332.102 161.319C332.543 160.989 332.983 160.769 333.313 160.439C335.624 158.679 338.045 157.138 340.906 156.478C346.518 154.937 351.8 155.267 356.091 159.999ZM336.064 317.577C343.877 311.745 346.408 303.712 345.087 294.359C343.987 286.326 339.915 279.833 334.303 274.221C333.203 273.121 331.882 272.13 330.562 270.92C325.39 277.963 319.558 284.125 312.955 289.407C306.353 294.799 299.09 299.09 291.057 302.612C290.947 308.664 290.727 314.496 290.727 320.328C290.617 327.041 292.158 333.423 294.689 339.585C294.909 340.135 295.239 340.576 295.459 340.906C296.779 340.796 297.99 340.576 299.2 340.466C297.99 337.825 297.66 335.184 298.65 332.653C302.281 323.629 308.884 318.347 318.567 317.027C323.849 316.367 328.911 317.247 333.643 319.668C334.083 319.338 334.413 319.008 334.743 318.678C335.184 318.347 335.624 317.907 336.064 317.577ZM344.867 219.091C345.307 207.427 343.657 195.982 339.695 184.978C332.983 166.381 321.759 151.306 305.252 140.192C304.592 139.752 303.712 139.311 303.382 138.761C302.611 137.111 301.181 136.56 299.75 135.79C292.598 131.829 285.005 128.747 277.192 126.657C275.872 126.327 274.771 126.437 273.671 127.427L267.398 132.379C259.696 138.541 252.323 145.144 246.161 152.956L241.539 158.899C242.089 159.229 242.419 159.449 242.859 159.559C251.223 161.98 259.476 164.621 267.839 166.822C280.493 170.343 293.038 173.754 305.252 178.376C312.405 181.127 319.338 184.098 325.61 188.389C329.571 191.141 332.763 194.442 333.863 199.394C334.963 203.795 334.963 208.087 333.973 212.378C333.423 214.909 332.873 217.33 332.322 219.971C336.394 220.851 340.465 221.402 344.537 221.402C344.537 220.851 344.757 220.741 344.757 220.631C344.757 220.081 344.867 219.641 344.867 219.091ZM342.776 233.286L329.241 230.645C327.811 233.396 326.27 236.367 324.51 239.228C323.629 240.879 322.309 242.529 320.878 243.52C314.276 248.031 307.123 251.223 299.53 253.644C291.938 256.064 284.235 257.715 276.422 258.705C270.37 259.476 264.317 260.026 258.265 258.926C246.601 256.945 235.817 252.873 226.573 245.28C226.133 244.84 225.473 244.51 224.813 244.07C224.483 249.132 222.502 251.443 217.88 252.323C215.019 252.983 212.048 252.763 209.297 252.213C207.206 251.883 205.226 251.333 203.245 250.893C202.585 253.313 202.365 256.725 202.695 258.375C207.316 259.586 212.048 259.806 216.67 259.256C222.282 258.485 227.894 257.385 233.506 256.395C235.597 256.064 237.798 255.734 239.888 255.734C242.969 255.734 244.95 257.605 245.61 260.686C245.941 262.117 245.941 263.657 245.831 265.198C245.5 270.7 243.52 275.542 239.998 279.833C237.247 283.024 233.946 284.895 229.655 285.005C222.722 285.335 215.9 284.125 209.407 281.924C207.096 281.154 204.785 280.163 202.365 279.283C202.585 283.244 202.805 287.096 203.025 290.947C228.444 308.554 265.418 312.515 296.999 295.569C325.28 280.383 340.245 252.543 342.776 233.286ZM326.93 212.048C327.591 209.737 327.921 207.316 327.481 204.896C326.05 195.212 321.098 188.059 311.965 184.098C303.602 180.467 295.129 177.495 286.546 174.965C277.522 172.324 268.499 170.123 259.586 167.372C233.726 159.559 207.646 152.406 181.017 147.785C179.256 147.564 177.936 147.785 176.395 148.665C173.094 150.536 169.793 152.406 166.381 154.277C169.022 154.827 171.553 155.267 174.194 155.817C181.897 157.468 189.6 158.899 197.303 160.769C204.895 162.64 212.268 165.281 219.751 167.262C242.419 173.314 264.537 180.577 286.105 189.49C290.177 191.141 294.138 193.121 297.88 195.322C301.621 197.413 304.592 200.494 305.693 204.896C306.463 208.087 306.463 211.278 305.693 214.359C304.042 220.741 301.071 226.684 297.88 232.296C292.488 241.539 285.335 249.022 275.652 253.754C274.001 254.524 272.35 255.404 270.81 256.285C276.532 255.734 282.034 254.854 287.646 253.864C290.837 253.203 294.028 252.543 297.109 251.333C300.741 249.792 304.262 247.921 307.783 246.051C312.405 243.52 316.036 239.999 318.457 235.157C321.979 227.674 324.84 219.971 326.93 212.048ZM303.272 211.278C304.042 206.326 302.501 202.145 298.65 198.843C295.019 195.872 290.727 194.112 286.436 192.241C272.13 186.189 257.385 181.017 242.419 176.395C232.846 173.424 223.272 171.003 213.699 168.252C207.536 166.491 201.484 164.401 195.322 162.97C184.098 160.329 172.764 158.128 161.429 155.817C159.449 155.377 157.688 155.817 156.037 157.028C153.947 158.458 152.296 160.329 150.976 162.42C148.225 166.822 146.464 171.663 145.033 176.725C143.383 182.557 141.732 188.389 141.732 194.552C141.842 196.533 142.062 198.513 142.282 200.494C142.943 207.537 145.584 213.589 150.315 218.981C155.157 224.483 161.319 227.344 168.142 228.994C169.022 229.215 169.903 229.215 170.783 229.105C175.295 228.774 179.586 227.784 183.548 225.363C187.069 223.052 190.59 220.631 194.111 218.431C197.193 216.56 200.164 214.469 203.465 212.929C207.646 210.948 211.608 211.828 215.129 214.909C218.21 217.44 219.861 220.962 220.521 224.813C221.071 228.224 221.181 231.635 221.512 235.047C221.512 235.927 221.622 236.587 222.282 237.137C226.023 240.109 229.435 243.3 233.286 246.051C240.108 251.003 248.031 253.534 256.064 255.624C257.605 255.954 259.256 256.174 260.796 256.064C263.987 255.624 267.068 254.964 269.929 253.423C273.011 251.663 276.202 250.122 279.173 248.252C281.814 246.381 284.455 244.29 286.656 241.979C293.368 235.267 297.99 227.124 301.291 218.321C302.171 216.12 302.832 213.699 303.272 211.278ZM271.47 125.776C265.638 122.915 244.51 123.245 232.406 126.327C217.66 130.068 204.565 136.78 193.011 147.014C208.197 150.756 223.052 154.277 238.128 158.018C247.041 145.144 258.595 134.91 271.47 125.776ZM240.769 271.91C239.998 271.91 239.448 271.91 238.898 271.91C235.267 271.91 232.075 273.341 228.994 275.212C227.564 276.092 226.243 277.082 224.813 277.852C224.373 278.073 223.822 278.073 223.272 278.073C223.272 276.202 224.593 275.322 225.693 274.441C226.684 273.451 227.894 272.791 229.104 271.91C220.851 269.709 214.029 272.24 207.757 277.412C208.307 277.742 208.637 277.852 208.967 277.963C214.909 280.273 221.071 281.484 227.454 281.594C233.836 281.704 238.348 278.513 240.769 272.02V271.91ZM229.104 123.796C229.104 123.796 229.875 123.355 230.205 123.135C222.502 111.801 204.895 112.902 198.513 123.025C200.824 122.805 202.695 122.475 204.675 122.365C209.187 122.365 213.259 123.686 216.89 126.107C217.77 126.767 218.54 127.207 219.751 126.767C222.832 125.666 225.913 124.786 229.104 123.796ZM217.77 248.472C220.961 247.591 221.842 245.611 220.191 242.75C219.421 241.319 218.32 240.109 217.22 239.008C213.038 235.157 208.197 232.736 202.805 231.085C200.384 230.315 197.963 229.655 195.102 229.765C193.231 229.545 191.36 230.095 189.6 231.085C187.179 232.406 186.739 233.726 188.059 236.147C188.279 236.587 188.499 237.027 188.83 237.358C191.691 241.209 195.432 243.96 199.834 245.501C203.685 246.931 207.646 247.811 211.608 248.692C213.699 249.242 215.789 249.132 217.77 248.472ZM217.66 234.386C217.77 230.645 217.55 227.124 216.67 223.602C216.12 221.402 215.129 219.421 213.589 217.77C213.038 217.11 212.268 216.67 211.388 215.79C209.847 220.411 208.527 224.593 207.206 228.774C210.838 230.645 214.139 232.516 217.66 234.386ZM215.679 457.659C216.01 451.497 215.459 445.334 214.029 439.282C211.608 428.608 208.967 417.824 206.436 407.15C204.015 397.247 202.034 387.343 201.484 377.109C200.714 364.124 201.484 351.25 203.355 338.375C205.005 327.921 207.757 317.797 211.828 308.004C212.048 307.453 212.158 306.903 212.268 306.463C208.857 304.702 205.556 302.942 202.144 301.181C201.814 301.841 201.484 302.502 201.264 303.162C196.532 313.726 192.681 324.62 189.93 335.954C186.519 349.269 184.428 362.804 183.658 376.559C183.107 386.353 183.217 396.146 182.997 405.72C185.198 407.48 187.179 409.021 189.05 410.671C189.71 411.222 190.59 411.662 190.04 412.982C188.719 412.102 187.509 411.332 186.189 410.561C176.835 404.729 167.262 399.227 157.028 395.046C147.674 391.194 137.991 388.663 127.757 388.883C119.284 389.104 111.361 391.304 104.098 395.706C102.668 396.586 101.127 397.247 100.027 398.677C100.247 398.897 100.357 399.117 100.577 399.227C109.6 405.169 116.423 413.092 121.485 422.556C126.437 431.579 131.939 440.272 138.101 448.525C141.952 453.697 145.584 458.869 150.315 463.271C155.927 468.333 162.09 472.624 168.802 476.146C173.534 478.677 178.486 480.327 183.768 480.767C191.14 481.318 198.403 481.868 205.886 482.418C207.536 479.557 209.407 476.806 211.058 473.835C213.699 468.773 215.459 463.381 215.679 457.659ZM203.685 227.674L207.646 215.459C206.326 214.909 205.336 215.459 204.565 215.9C201.484 217.66 198.513 219.531 195.542 221.402C191.471 223.823 187.619 226.574 183.548 228.774C177.715 231.856 171.553 233.066 164.951 231.635C164.731 231.525 164.401 231.745 163.96 231.745C166.271 243.08 170.233 253.644 176.175 263.327C182.447 273.561 195.102 286.436 199.503 287.976C199.503 286.986 199.503 286.106 199.283 285.225C199.063 283.134 198.623 281.044 198.513 278.843C198.403 277.522 197.853 276.752 196.642 276.092C194.992 275.101 193.231 274.001 191.581 272.901C186.959 269.489 182.777 265.528 180.026 260.356C178.376 257.275 178.376 254.304 180.797 251.223C181.457 251.443 182.227 251.663 182.887 251.993C185.528 252.983 188.059 254.084 190.7 255.074C193.231 255.954 195.652 257.055 198.623 257.385C198.953 254.524 199.173 251.883 199.503 249.132C197.413 248.362 195.762 247.701 194.111 246.821C189.93 244.84 186.739 241.869 184.648 237.688C182.117 232.846 184.098 228.554 189.27 227.014C191.581 226.243 194.111 226.133 196.532 226.464C198.843 226.794 201.154 227.234 203.685 227.674ZM158.568 250.562C160.769 250.672 162.97 250.452 165.281 250.452C164.18 247.041 163.08 244.07 162.2 240.989C161.539 238.788 161.099 236.477 160.659 234.276C160.439 233.176 159.999 232.736 159.009 232.516C156.698 232.076 154.387 231.415 152.076 230.755C130.948 223.933 112.351 212.819 95.8452 198.183C93.6444 196.202 91.5537 193.892 89.5729 191.581C86.4918 187.949 85.5014 183.548 85.8316 178.816C86.0516 177.385 86.2717 175.845 86.4918 174.304C87.152 169.242 88.0324 164.071 88.4725 158.899C89.1328 148.885 85.1713 140.522 78.6789 133.149C75.7078 129.848 72.0765 127.317 67.8949 125.886C61.7327 123.576 55.0202 125.556 51.1688 130.838C48.7479 134.139 48.0876 137.771 49.6282 141.732C51.3889 146.024 54.0298 149.435 57.8812 151.966C59.4218 152.956 60.9624 153.837 62.3929 154.827C64.3736 156.258 66.0243 158.238 66.7945 160.659C67.4548 162.75 67.7849 164.731 66.3544 167.152C65.8042 166.381 65.364 165.831 65.0339 165.281C64.7038 164.511 64.4837 163.74 64.1536 163.08C62.613 159.449 59.7519 157.358 56.2306 155.928C54.58 170.673 52.2692 185.198 49.2981 199.724C49.7382 199.724 50.1784 199.944 50.5085 199.944C54.47 200.274 58.3214 200.604 62.1728 200.934C64.4837 201.044 66.6845 201.154 67.5648 203.905C67.6749 204.235 67.8949 204.455 68.115 204.676C73.397 211.498 79.7793 217.22 86.4918 222.502C107.51 239.448 131.608 248.582 158.568 250.562ZM162.86 484.949C162.86 484.949 162.97 484.729 162.97 484.619C161.539 483.848 159.999 483.188 158.568 482.418C147.894 476.806 139.201 468.883 131.278 459.97C124.786 452.707 119.284 444.564 114.112 436.421C110.371 430.479 106.629 424.647 102.668 418.925C100.907 416.394 98.8163 414.083 96.7256 411.772C95.185 410.011 93.2043 408.801 91.1135 407.7C88.3625 411.772 86.932 416.174 86.7119 420.795C86.3818 426.517 87.5922 431.909 89.793 437.191C93.2043 445.114 98.5963 451.386 105.089 456.778C112.791 463.271 121.155 468.663 129.958 473.395C139.091 478.456 148.665 482.088 158.788 484.289C160.109 484.509 161.539 484.729 162.86 484.949ZM123.245 89.573C123.245 88.6927 123.135 87.7023 123.025 86.712C121.595 76.5882 118.404 67.0147 113.672 57.9914C111.361 53.4797 108.72 49.1881 104.979 45.6668C101.677 42.3656 98.2661 39.0644 94.4147 36.4234C84.9512 29.6009 74.4974 25.6395 62.8331 25.1993C59.2017 24.9792 55.5704 24.6491 52.0491 24.2089C45.6667 23.4386 40.2748 20.9077 36.5334 15.4057C36.4233 15.1856 36.2033 14.9655 35.9832 14.7454C34.5526 16.9462 34.7727 19.9173 32.4619 21.4579C31.3615 20.9077 31.4715 20.0274 31.5815 19.2571C31.5815 16.8362 31.9117 14.4153 32.2418 11.8844C32.3518 10.3438 32.1318 9.02333 31.0313 7.92292C29.8209 6.82251 25.3092 5.39199 23.7687 5.39199C25.6394 17.2764 20.9076 26.9599 14.3052 36.5335C17.1662 37.1937 20.0273 37.964 22.8883 38.6242C25.6394 39.1744 26.2996 38.7343 27.29 35.9833C27.6201 34.9929 27.8402 34.0025 28.2803 33.0122C28.6105 32.1318 29.0506 31.3616 29.7109 30.0411C31.3615 33.5624 29.9309 36.5335 29.7109 39.7246C30.8113 39.7246 31.9117 39.6146 32.902 39.7246C37.9639 39.9447 42.6956 40.9351 47.0973 43.6861C50.7286 45.997 53.1495 49.1881 54.0298 53.4797C54.6901 56.5609 55.0202 59.532 54.6901 62.6131C54.6901 63.6035 54.58 64.7039 54.58 65.9143C56.0106 65.5842 57.221 65.3641 58.2114 65.034C58.5415 62.6131 58.9817 60.5223 59.2017 58.2115C60.3021 48.858 57.7712 46.5472 51.829 43.0259H51.6089C49.078 41.3753 46.5471 39.8347 44.1262 38.2941C43.4659 37.854 43.0258 37.3038 42.0354 36.4234C43.0258 36.4234 43.3559 36.3134 43.576 36.4234C48.0876 38.2941 52.7093 40.1648 56.8909 42.9158C60.0821 45.0066 61.9527 47.8677 62.723 51.609C63.6034 55.5705 63.0532 59.4219 61.7327 63.1633C61.6226 63.7135 61.4025 64.2637 61.2925 64.7039C64.1536 65.144 66.6845 65.3641 69.2154 66.0244C71.8564 66.6846 74.3873 67.785 77.0283 68.6653C78.899 65.5842 79.9994 61.6227 82.8605 58.8717C84.291 59.9721 83.1906 61.2926 83.4107 62.1729C91.7737 68.2252 97.2758 76.1481 99.8067 86.0517C100.357 88.1425 100.467 90.3433 100.577 92.4341C100.907 94.965 101.237 95.4052 103.768 95.2951C104.979 95.2951 106.189 95.0751 107.289 94.7449C109.6 94.3048 110.151 93.5345 110.151 91.1136C110.151 90.6734 110.151 90.2333 109.93 89.6831C109.38 84.8413 107.62 80.3296 105.199 76.038C104.208 74.1674 103.218 72.4067 102.228 70.536C101.897 69.9858 101.787 69.3256 101.567 68.5553C103.108 68.2252 103.658 69.3256 104.318 69.9858C110.701 76.5882 113.452 84.6212 114.222 93.7546C116.423 93.4245 118.514 93.2044 120.494 92.8742C122.805 92.4341 123.245 91.8839 123.245 89.573ZM73.507 77.1385C74.1673 75.4878 74.8275 73.9473 75.4877 72.2967C68.6652 68.7754 61.6226 67.895 54.3599 68.0051C53.9198 70.6461 53.5897 73.0669 53.2595 75.3778C56.7808 75.3778 60.0821 75.0477 63.3833 75.3778C66.7945 75.7079 70.0957 76.4782 73.507 77.1385ZM62.3929 120.164C64.0435 108.61 66.7945 97.606 70.0957 86.3819C63.9335 84.4011 57.9913 83.0806 51.6089 83.4108C47.8676 101.127 44.2362 118.734 40.6049 136.23C41.9254 137.331 43.2458 138.431 44.6764 139.531C44.0161 134.25 45.7768 129.848 49.2981 126.107C52.9294 122.365 57.4411 120.715 62.3929 120.164ZM51.719 162.2C52.1591 159.339 52.8194 156.588 53.3696 154.167C50.9487 151.196 48.7479 148.445 46.437 145.584C46.327 150.756 43.576 154.057 39.0643 156.258C40.0547 161.76 36.9735 165.171 33.0121 168.032C37.0836 174.854 34.5526 181.457 26.9598 185.418C26.8498 186.739 26.8498 188.169 26.5197 189.6C24.649 198.953 22.7783 208.417 20.5775 217.66C18.8168 224.923 16.616 232.186 14.6353 239.338C14.3052 240.329 13.9751 241.319 14.4152 242.309C18.0466 243.3 28.2803 244.18 33.3422 244.07C37.9639 243.96 39.5045 242.86 40.1647 238.238C41.4852 228.554 42.6956 218.761 44.1262 209.077C44.5663 205.446 44.4563 201.814 45.3366 198.183C46.437 193.892 47.0973 189.49 47.7575 185.088C49.078 177.385 50.2884 169.793 51.719 162.2ZM40.2748 150.646C42.0354 148.995 42.8057 146.904 42.2555 144.373C41.7053 141.952 40.1647 140.302 38.294 138.981C36.4233 137.771 35.9832 136.23 36.6434 134.25C36.9735 132.819 37.3037 131.388 37.6338 130.068C37.9639 128.197 38.4041 126.327 38.8442 124.126C33.3422 126.327 28.6105 128.858 24.9791 133.259C19.6972 139.752 22.2281 148.005 28.8305 151.746C32.4619 153.837 37.3037 153.287 40.2748 150.646ZM33.5623 162.53C34.8828 161.099 35.653 159.449 35.653 157.358C25.8594 157.028 20.1373 151.966 18.1566 142.393C14.1951 144.593 11.114 147.344 9.68347 151.636C8.36299 155.487 9.13327 159.119 11.7742 162.2C17.0562 168.472 27.9502 168.582 33.5623 162.53ZM27.6201 180.246C31.3615 177.605 32.0217 173.754 29.6008 169.683C21.7879 172.214 14.8554 170.783 8.80315 164.951C5.50193 168.142 5.17181 172.544 7.5927 176.175C9.90355 179.696 13.3148 181.457 17.2763 182.227C21.0177 182.887 24.539 182.447 27.6201 180.246ZM20.3574 12.9848C20.7976 10.2338 20.6875 7.5928 19.5871 4.73174C13.2048 11.4442 9.68347 21.0177 10.4538 29.711C10.4538 30.7013 10.8939 31.8017 11.224 33.4523C12.3244 32.1318 13.0947 31.3616 13.6449 30.4812C16.9462 25.0893 19.367 19.2571 20.3574 12.9848Z" fill="#222222"/>
<path d="M549.102 416.504C549.653 416.504 550.313 416.504 551.083 416.284C550.863 418.594 550.753 420.575 550.643 422.666C550.313 432.68 549.983 442.693 549.653 452.597C549.433 462.721 549.212 472.734 548.992 482.858C548.992 483.518 548.882 484.069 548.772 484.949C524.233 491.661 499.474 497.383 474.935 505.086C475.155 480.327 476.476 455.788 475.925 430.919C477.246 430.809 478.786 430.699 480.327 430.369C490.781 428.388 501.235 426.297 511.579 424.206C524.123 421.675 536.558 419.035 549.102 416.504Z" fill="white"/>
<path d="M541.95 361.263C541.29 363.134 540.739 365.005 540.079 366.985H536.118C535.971 368.306 537.035 369.443 539.309 370.397C538.649 373.258 537.878 376.339 537.218 379.42H532.376C532.816 381.951 534.797 381.841 536.448 382.611C535.898 385.692 535.237 388.663 534.577 391.855C533.477 391.855 532.486 391.744 531.606 391.855C531.056 391.965 530.285 392.295 530.065 392.735C529.735 393.505 530.395 394.055 531.166 394.275C531.936 394.606 532.816 394.826 533.807 395.156L531.826 404.729C529.955 405.169 527.975 403.959 526.764 405.94C527.534 407.92 529.405 408.03 530.946 408.911C530.395 411.112 529.955 413.202 529.295 415.403C529.185 415.843 528.635 416.614 528.195 416.724C522.693 417.934 517.301 419.035 511.469 420.245C511.689 419.035 511.799 418.044 512.019 417.054C515.54 400.768 519.171 384.372 522.583 368.086C523.353 364.454 523.793 360.713 524.453 356.972C524.453 356.642 524.563 356.421 524.673 356.201C530.395 357.852 536.118 359.503 541.95 361.263Z" fill="#F36869"/>
<path d="M515.76 374.908C516.861 378.43 515.76 381.841 514.99 385.252C514.44 387.673 513.889 390.204 513.339 392.625C513.119 392.625 512.899 392.625 512.789 392.625V379.97C512.679 378.43 512.569 376.999 512.459 375.458C512.459 374.908 512.459 374.358 512.459 373.808C513.779 368.636 512.459 364.234 509.048 360.273C508.828 359.943 508.497 359.613 508.277 359.283V358.952C511.909 360.163 513.999 362.584 514.66 366.215C515.1 368.856 515.32 371.607 515.65 374.248C515.65 374.578 515.65 374.798 515.76 375.018V374.908Z" fill="#D3E5E4"/>
<path d="M509.378 369.516C509.708 371.827 509.488 374.138 509.488 376.449C509.378 384.042 509.488 391.744 509.488 399.447C509.488 400.878 509.378 402.418 511.139 403.079C509.818 408.911 508.608 414.413 507.287 419.915C507.177 420.795 506.627 421.345 505.747 421.455C501.785 422.336 497.824 423.106 493.532 424.096C492.762 421.345 491.992 418.704 491.331 416.063C491.331 415.623 491.551 415.183 491.661 414.633C493.312 409.351 495.073 404.069 496.723 398.677C497.494 395.926 496.723 393.175 496.173 390.424C495.513 387.013 494.853 383.601 494.192 379.86C495.843 379.42 497.493 378.98 499.034 378.54C502.996 377.659 504.646 375.128 504.206 370.947C503.766 366.985 501.015 364.454 497.273 364.454C495.953 364.564 494.742 364.785 493.532 365.005C492.322 365.225 491.221 365.665 490.011 365.885C491.661 361.153 496.283 358.622 501.015 359.723C505.857 360.823 508.608 364.014 509.378 369.516Z" fill="white"/>
<path d="M497.603 368.086C499.804 369.296 500.464 370.727 500.024 374.028C497.163 374.688 494.302 376.009 491.111 376.119C489.791 376.119 488.58 376.889 487.039 377.439C486.819 376.559 486.269 376.009 485.169 376.009C484.619 376.009 483.958 375.899 483.298 375.679C480.987 375.238 479.007 376.009 477.246 377.659C477.246 377.659 477.136 377.769 477.136 377.879C475.485 380.74 472.624 381.511 469.653 382.391C462.06 384.592 454.467 387.013 446.875 389.324C446.324 389.544 445.884 389.544 445.554 389.654C444.454 386.683 443.463 383.822 442.363 380.74C460.74 377.329 478.897 372.267 497.603 368.086Z" fill="#D3E5E4"/>
<path d="M492.762 394.495C493.202 396.036 492.872 397.246 492.432 398.677C491.331 402.528 490.341 406.49 489.351 410.341C489.13 411.002 488.91 411.552 488.69 412.322C486.93 411.772 485.279 411.332 483.628 410.782C484.069 408.471 484.509 406.16 485.059 403.959C485.059 403.519 485.499 403.189 485.829 402.859C489.351 399.557 490.891 395.486 489.681 390.754C489.24 389.103 489.02 387.563 489.24 385.912C489.461 383.712 489.461 381.511 489.571 379.09C490.561 379.09 491.221 379.31 491.331 380.52C491.551 383.491 491.881 386.463 492.212 389.544C492.322 391.194 492.322 392.845 492.762 394.495Z" fill="#ACACAC"/>
<path d="M490.341 424.757C487.7 425.417 485.059 425.967 482.418 426.627C480.987 423.986 479.667 421.565 478.346 419.145C477.136 418.814 476.586 419.585 475.926 420.245C474.385 421.676 473.064 423.106 471.524 424.427C470.313 425.527 468.993 426.517 467.562 427.508C467.232 427.728 466.682 427.838 466.242 427.838C463.601 427.728 460.85 427.618 457.769 427.398C461.18 421.015 464.591 414.963 469.103 409.681C475.815 411.552 482.198 413.312 488.58 415.073C489.13 418.264 489.791 421.345 490.341 424.757Z" fill="#F36869"/>
<path d="M483.517 380.3L483.408 380.409V380.3H483.517Z" fill="#222222"/>
<path d="M483.408 380.41V386.463C483.408 387.563 482.748 388.113 481.978 388.773C480.327 389.984 479.117 391.634 478.346 393.505C477.466 395.486 477.906 397.467 478.676 399.447C478.787 399.667 478.787 399.777 478.897 399.887C481.097 402.639 480.767 405.39 479.337 408.251C479.117 408.581 479.117 409.021 479.007 409.571C476.586 409.131 474.165 408.801 471.744 408.361C472.404 403.629 472.844 399.117 473.505 394.716C473.615 393.505 474.055 392.295 474.715 391.414C477.576 387.673 480.437 384.152 483.408 380.41Z" fill="#ACACAC"/>
<path d="M482.088 378.43C482.088 378.43 481.427 379.42 480.987 379.86C479.117 381.841 477.356 383.822 475.485 385.582C471.964 389.214 470.313 393.505 470.093 398.457C469.983 400.988 469.543 403.519 469.213 406.05C469.213 406.38 469.103 406.6 468.773 407.37C468.443 406.49 468.113 406.05 468.113 405.61C468.223 401.978 468.333 398.457 468.773 394.826C468.883 393.725 469.433 392.515 470.093 391.634C472.844 387.563 475.815 383.601 478.676 379.64C479.557 378.43 480.767 378.209 482.088 378.43Z" fill="#ACACAC"/>
<path d="M476.146 423.106C477.136 424.427 478.236 425.747 479.337 427.068C476.696 428.718 474.055 428.938 471.084 427.838C472.844 426.187 474.385 424.647 476.146 423.106Z" fill="#222222"/>
<path d="M470.093 431.689C470.974 431.689 471.744 431.799 472.734 431.909C471.414 456.008 471.524 479.887 470.754 503.986C469.983 503.986 469.543 504.096 469.103 504.096C462.831 503.766 456.558 503.326 450.176 502.885C446.985 502.665 443.794 502.445 440.602 502.335C428.388 501.565 416.173 500.795 403.959 500.245C395.376 499.804 386.793 499.694 378.099 499.364C377.659 499.364 377.219 499.254 376.449 499.254C376.449 498.154 376.449 497.053 376.559 496.063C376.559 476.916 376.889 457.659 376.999 438.512C377.109 434.66 376.889 430.699 376.779 426.957C382.061 427.288 387.453 427.618 392.845 427.948C397.577 428.278 402.198 428.608 406.82 428.828C409.131 428.938 410.451 427.948 410.671 425.637C411.112 422.776 411.332 419.805 411.442 416.834C411.662 407.92 411.662 399.117 412.212 390.204C412.432 386.242 414.083 382.501 417.384 379.75C420.355 377.219 426.847 376.559 430.699 380.74C433.67 384.042 434.99 388.003 434.99 392.295C435.1 397.797 434.88 403.189 434.88 408.691C434.88 413.643 434.99 418.594 435.1 423.546C435.1 424.977 435.541 426.517 435.761 428.058C441.153 429.488 446.324 429.598 451.496 429.819C455.128 429.929 458.869 430.039 462.5 431.029C464.921 431.579 467.562 431.469 470.093 431.689ZM430.699 390.864C430.699 387.453 428.388 384.372 425.197 383.712C421.565 382.941 418.594 384.482 417.164 387.893C416.834 388.553 416.614 389.324 416.393 389.984C414.853 393.615 418.154 397.907 421.345 398.677C425.967 399.667 430.699 395.816 430.699 390.864Z" fill="white"/>
<path d="M467.342 407.15C467.342 407.15 467.122 408.141 466.792 408.581C463.491 412.432 461.07 416.834 458.539 421.235C457.549 422.886 456.558 424.537 455.678 426.297C455.128 427.398 454.468 427.508 453.367 427.068C454.027 423.876 463.601 409.791 467.342 407.15Z" fill="#F36869"/>
<path d="M442.033 399.557C442.253 408.361 442.033 417.274 441.923 426.187C441.923 426.297 441.813 426.407 441.703 426.737H437.521C438.842 416.614 438.402 406.6 438.512 396.476C438.622 395.486 438.512 394.385 438.622 393.395C439.392 387.783 437.411 383.051 433.78 378.87C433.34 378.43 433.12 377.989 432.9 377.549C437.301 379.75 439.722 383.491 440.713 388.113C441.593 391.855 442.033 395.706 442.033 399.557Z" fill="#D3E5E4"/>
<path d="M425.197 383.712C428.388 384.372 430.809 387.453 430.699 390.864C430.699 395.816 425.967 399.667 421.345 398.677C418.154 397.907 414.853 393.615 416.393 389.984C416.614 389.324 416.834 388.553 417.164 387.893C418.594 384.482 421.565 382.941 425.197 383.712ZM426.627 390.974C426.737 388.993 425.197 387.453 423.326 387.453C421.125 387.453 419.144 389.214 419.144 391.194C419.254 393.175 421.015 395.156 422.666 395.156C424.646 395.156 426.627 393.065 426.627 390.974Z" fill="#222222"/>
<path d="M408.801 388.993L408.14 415.733C406.38 413.753 405.389 411.222 404.179 408.911C402.968 406.6 401.868 404.289 400.658 401.868C399.447 399.557 398.237 397.136 396.916 394.385C401.978 394.716 405.72 392.845 408.801 388.993Z" fill="#F36869"/>
<path d="M407.15 422.116C408.03 422.776 408.251 423.546 407.81 424.867C404.949 424.757 401.978 424.647 399.117 424.427C398.567 424.427 398.127 423.876 397.687 423.546L388.443 415.953C387.453 415.183 386.352 414.523 385.252 413.753C383.601 412.322 381.841 412.102 379.53 412.762C373.808 414.303 369.186 410.782 368.856 404.839C368.746 403.959 368.856 403.079 368.856 401.868C370.287 403.299 371.497 404.399 372.707 405.61C373.698 406.49 374.688 406.71 376.119 406.49C379.09 405.94 381.181 404.289 383.271 402.418C384.702 401.318 385.032 399.887 384.592 398.127C384.042 396.256 383.161 394.606 381.841 393.175C381.181 392.515 380.63 391.855 379.86 390.974C382.281 391.194 384.262 391.414 386.242 392.295C388.883 393.505 390.204 395.816 390.864 398.347C391.304 400.438 391.524 402.638 391.524 404.729C391.634 406.16 392.075 407.26 392.955 408.251C397.467 412.982 401.758 418.044 407.15 422.116Z" fill="#ACACAC"/>
<path d="M403.519 383.932C406.16 384.042 406.82 385.032 405.61 386.903C403.739 389.544 401.098 390.864 398.017 391.414C397.026 391.524 396.366 391.084 396.036 390.094C395.706 388.993 395.596 387.893 396.476 386.793C396.696 387.233 396.916 387.563 397.026 387.893C397.797 389.434 398.347 389.874 399.777 389.324C401.098 388.773 402.418 388.003 403.519 387.343V383.932Z" fill="#F36869"/>
<path d="M401.868 386.132C401.098 386.573 400.548 386.793 399.887 387.123C399.667 386.903 399.337 386.793 399.227 386.463C397.577 382.941 395.816 379.31 394.165 375.679C392.405 371.827 390.864 367.756 388.773 364.124C387.343 361.593 385.252 359.503 383.381 357.412C382.611 356.532 382.171 355.651 382.171 354.441C382.281 353.12 381.951 351.8 381.841 350.479C381.951 350.259 382.061 350.149 382.171 350.039C385.582 348.939 384.812 348.278 387.453 351.47C387.783 351.91 388.223 352.46 388.663 352.9C389.544 354.001 389.984 355.211 389.984 356.642C390.204 358.952 390.644 361.153 390.974 363.464C390.974 364.014 391.194 364.564 391.414 365.005C394.275 370.837 397.026 376.559 399.777 382.391C400.438 383.601 401.098 384.702 401.868 386.132Z" fill="#D3E5E4"/>
<path d="M370.176 282.034C375.128 293.258 375.898 305.033 373.037 317.027C371.497 323.519 368.636 329.462 365.335 335.294C363.794 337.935 363.684 340.245 364.894 342.886C366.545 346.298 367.425 349.929 367.976 353.67C368.966 360.823 367.535 367.536 365.115 374.138C363.244 378.76 361.153 383.271 357.852 387.123C352.79 393.175 346.077 396.036 338.265 396.916C336.064 397.247 333.863 397.247 331.552 397.467C331.222 397.467 330.892 397.357 330.232 397.247C330.672 396.256 331.112 395.486 331.662 394.275C330.562 394.275 329.791 394.275 329.241 394.385C328.031 394.385 326.82 394.716 325.61 395.046C319.778 396.256 314.936 394.055 310.644 390.424C307.783 388.113 307.673 384.702 307.563 381.401C307.563 381.071 307.673 380.63 307.783 380.08C307.123 380.08 306.573 379.97 306.023 380.08C300.741 380.85 296.449 378.76 292.818 375.348C289.076 371.827 286.656 367.646 285.995 362.474C285.555 359.723 285.995 357.082 287.096 354.551C289.187 350.259 292.158 346.848 296.009 343.987C297.219 343.107 298.65 342.666 300.411 341.786C299.97 343.657 299.2 344.977 298.65 346.188C297.44 348.829 296.559 351.58 296.779 354.551C296.779 355.321 297.219 356.201 297.44 357.082C297.88 356.862 298.21 356.752 298.21 356.532C298.21 353.56 299.64 351.029 300.741 348.388C302.832 343.437 306.463 340.025 311.415 338.045C311.965 337.825 312.515 337.605 312.955 337.274C313.285 336.944 313.836 336.394 313.836 336.064C313.726 335.184 312.955 335.184 312.295 335.294C311.195 335.514 309.984 335.624 309.104 336.064C307.123 337.054 305.362 338.265 303.492 339.365C303.162 339.365 302.832 339.805 302.391 340.135C301.511 338.485 301.621 336.944 301.951 335.404C302.611 331.882 304.702 329.131 307.013 326.6C311.635 321.539 317.577 320.108 324.179 320.548C326.93 320.658 329.571 321.208 332.102 322.419C333.863 323.299 335.404 322.529 336.834 321.649C339.805 320.108 342.336 317.797 344.317 315.046C350.589 306.023 350.919 296.449 347.288 286.436C344.867 279.503 340.355 274.001 334.853 269.049C334.413 268.609 333.863 268.169 333.203 267.509C336.614 262.777 339.805 258.045 341.456 252.103C342.336 252.323 343.216 252.323 343.877 252.653C355.651 259.696 364.564 269.489 370.176 282.034Z" fill="#D3E5E4"/>
<path d="M372.267 450.616C373.038 456.228 372.928 461.84 372.707 467.342C372.597 469.653 372.267 471.964 372.157 474.275C372.157 475.595 371.607 476.256 370.507 476.916C366.325 479.337 361.813 481.097 357.082 482.418C347.728 485.059 338.265 486.93 328.691 487.92C320.108 488.91 311.635 489.13 303.052 488.69C289.737 488.03 276.532 486.489 263.877 481.648C259.916 480.217 256.174 478.346 252.323 476.256C252.323 474.275 252.213 472.404 252.323 470.423C252.763 463.931 253.754 457.439 255.624 451.166C259.256 438.952 266.848 430.149 278.513 424.977C287.976 420.685 297.88 417.714 308.224 416.284C310.755 415.843 313.176 415.843 315.706 416.063C316.807 416.174 317.907 416.284 319.008 415.293C315.816 414.413 312.845 413.753 309.984 412.982C308.664 412.542 307.673 411.882 306.793 410.782C303.492 406.82 299.971 403.079 296.669 399.117C287.976 388.883 280.604 377.769 275.542 365.335C271.91 356.421 269.599 347.288 270.15 337.605C270.48 332.433 271.36 327.261 272.13 322.199C272.681 318.898 273.451 315.596 274.221 312.185C278.843 311.855 283.355 311.415 287.756 308.994C287.316 315.156 286.656 320.768 287.206 326.49C287.866 332.323 289.517 337.825 291.938 343.657C291.277 344.097 290.507 344.537 289.847 345.087C287.536 347.398 285.335 349.929 284.015 352.9C281.594 358.182 282.144 363.464 284.235 368.746C286.766 374.688 290.947 378.98 296.779 381.621C299.2 382.721 300.961 382.941 305.143 382.501C305.143 383.161 305.143 383.822 305.143 384.372C304.922 388.663 306.353 392.075 309.874 394.606C312.955 396.806 316.367 398.347 320.108 398.897C322.089 399.227 324.07 399.117 326.05 398.457C327.151 398.127 328.141 398.127 329.241 398.677C330.562 399.227 331.992 399.667 333.313 399.887C334.743 400.108 335.734 400.768 336.614 401.648C342.336 407.15 348.168 412.542 353.781 418.044C356.752 420.905 359.613 423.766 362.254 426.847C368.086 433.67 370.947 441.923 372.377 450.616H372.267Z" fill="#D3E5E4"/>
<path d="M356.862 160.219C356.862 160.219 356.201 160.109 356.091 159.999C351.8 155.267 346.518 154.937 340.906 156.478C338.045 157.138 335.624 158.679 333.313 160.439C332.983 160.769 332.543 160.989 332.102 161.319C330.232 159.009 328.581 156.808 326.6 154.277C332.983 149.875 339.585 147.234 347.178 150.205C351.8 151.966 354.881 155.377 356.862 160.219Z" fill="#D3E5E4"/>
<path d="M339.695 184.978C343.657 195.982 345.307 207.426 344.867 219.091C344.867 219.641 344.757 220.081 344.757 220.631C344.757 220.741 344.647 220.851 344.537 221.402C340.466 221.402 336.394 220.851 332.323 219.971C332.873 217.33 333.423 214.909 333.973 212.378C334.964 208.087 334.964 203.795 333.863 199.394C332.763 194.442 329.572 191.14 325.61 188.389C319.338 184.098 312.405 181.127 305.253 178.376C293.038 173.754 280.493 170.343 267.839 166.822C259.476 164.621 251.223 161.98 242.86 159.559C242.419 159.559 242.089 159.229 241.539 158.899L246.161 152.956C252.323 145.144 259.696 138.541 267.399 132.379L273.671 127.427C274.771 126.437 275.872 126.327 277.192 126.657C285.005 128.747 292.598 131.829 299.751 135.79C301.181 136.56 302.612 137.111 303.382 138.761C303.712 139.311 304.592 139.752 305.253 140.192C321.759 151.306 332.983 166.381 339.695 184.978ZM270.48 140.632C270.48 139.201 269.93 138.541 268.609 138.541C266.958 138.431 265.638 139.641 265.638 141.292C265.638 142.613 266.628 143.603 267.839 143.493C269.269 143.493 270.48 142.282 270.48 140.632ZM256.615 158.018C256.615 156.698 255.734 155.817 254.524 155.817C253.423 155.817 251.883 157.468 251.883 158.789C251.883 159.889 252.873 160.879 253.974 160.879C255.404 160.989 256.615 159.559 256.615 158.018Z" fill="#D3E5E4"/>
<path d="M329.241 230.645L342.776 233.286C340.245 252.543 325.28 280.383 296.999 295.569C265.418 312.515 228.444 308.554 203.025 290.947C202.805 287.096 202.585 283.244 202.365 279.283C204.785 280.163 207.096 281.154 209.407 281.924C215.9 284.125 222.722 285.335 229.655 285.005C233.946 284.895 237.247 283.024 239.998 279.833C243.52 275.542 245.5 270.7 245.831 265.198C245.941 263.657 245.941 262.117 245.61 260.686C244.95 257.605 242.969 255.844 239.888 255.734C237.798 255.734 235.597 256.064 233.506 256.395C227.894 257.385 222.282 258.485 216.67 259.256C212.048 259.806 207.316 259.586 202.695 258.375C202.365 256.725 202.695 253.313 203.245 250.893C205.226 251.333 207.206 251.883 209.297 252.213C212.048 252.763 215.019 252.983 217.88 252.323C222.502 251.443 224.483 249.132 224.813 244.07C225.473 244.51 226.133 244.84 226.573 245.28C235.817 252.873 246.601 256.945 258.265 258.926C264.317 260.026 270.37 259.476 276.422 258.705C284.235 257.715 291.938 256.064 299.53 253.644C307.123 251.223 314.276 248.031 320.878 243.52C322.309 242.529 323.629 240.879 324.51 239.228C326.27 236.367 327.811 233.396 329.241 230.645ZM208.637 287.536C208.637 286.436 207.646 285.445 206.656 285.445C205.666 285.445 204.785 286.436 204.675 287.536C204.675 288.636 205.556 289.627 206.656 289.517C207.646 289.517 208.527 288.526 208.637 287.536Z" fill="#D3E5E4"/>
<path d="M327.371 193.451C331.442 197.083 332.323 201.924 331.662 206.876C330.562 215.569 327.921 223.823 324.51 231.856C323.739 233.836 322.529 235.707 321.429 237.578C321.098 238.238 320.438 238.678 319.888 239.228C320.108 238.678 320.218 238.018 320.548 237.468C324.29 229.765 327.041 221.732 329.461 213.589C331.332 207.206 330.452 201.264 327.921 195.322C327.591 194.772 327.481 194.112 327.371 193.451Z" fill="white"/>
<path d="M327.481 204.896C327.921 207.316 327.591 209.737 326.931 212.048C324.84 219.971 321.979 227.674 318.457 235.157C316.037 239.999 312.405 243.52 307.783 246.051C304.262 247.921 300.741 249.792 297.11 251.333C294.028 252.543 290.837 253.203 287.646 253.864C282.034 254.854 276.532 255.734 270.81 256.285C272.35 255.404 274.001 254.524 275.652 253.754C285.335 249.022 292.488 241.539 297.88 232.296C301.071 226.684 304.042 220.741 305.693 214.359C306.463 211.278 306.463 208.087 305.693 204.896C304.592 200.494 301.621 197.413 297.88 195.322C294.138 193.121 290.177 191.14 286.106 189.49C264.538 180.577 242.419 173.314 219.751 167.262C212.268 165.281 204.896 162.64 197.303 160.769C189.6 158.899 181.897 157.468 174.194 155.817C171.553 155.267 169.022 154.827 166.381 154.277C169.793 152.406 173.094 150.536 176.395 148.665C177.936 147.785 179.256 147.564 181.017 147.785C207.647 152.406 233.726 159.559 259.586 167.372C268.499 170.123 277.522 172.324 286.546 174.965C295.129 177.495 303.602 180.467 311.965 184.098C321.098 188.059 326.05 195.212 327.481 204.896ZM318.678 228.114C320.768 224.703 321.649 220.962 321.759 216.78C319.228 216.78 317.797 217.77 317.027 219.971C316.587 221.512 315.816 222.942 315.266 224.483C314.936 225.253 314.716 226.133 314.716 227.014C314.716 228.004 315.156 228.884 316.257 229.104C317.357 229.435 318.127 228.994 318.678 228.114Z" fill="white"/>
<path d="M327.261 193.121C327.261 193.121 327.371 193.341 327.371 193.451C327.371 193.451 327.261 193.451 327.151 193.231L327.371 193.121H327.261Z" fill="#222222"/>
<path d="M321.759 216.78C321.649 220.962 320.768 224.703 318.678 228.114C318.127 228.994 317.357 229.435 316.257 229.104C315.156 228.884 314.716 228.004 314.716 227.014C314.716 226.133 314.936 225.253 315.266 224.483C315.816 222.942 316.587 221.512 317.027 219.971C317.797 217.77 319.228 216.89 321.759 216.78Z" fill="#222222"/>
<path d="M318.566 241.099L318.457 241.208C318.457 241.208 318.457 241.099 318.566 241.099Z" fill="#222222"/>
<path d="M318.456 241.209L318.347 241.318C318.347 241.318 318.347 241.209 318.456 241.209Z" fill="#222222"/>
<path d="M298.65 198.843C302.501 202.145 304.042 206.326 303.272 211.278C302.832 213.699 302.171 216.12 301.291 218.321C297.99 227.124 293.368 235.267 286.656 241.979C284.455 244.29 281.814 246.381 279.173 248.252C276.202 250.122 273.011 251.663 269.929 253.423C267.068 254.964 263.987 255.624 260.796 256.064C259.256 256.174 257.605 255.954 256.064 255.624C248.031 253.534 240.108 251.003 233.286 246.051C229.435 243.3 226.023 240.109 222.282 237.137C221.622 236.587 221.512 235.927 221.512 235.047C221.181 231.635 221.071 228.224 220.521 224.813C219.861 220.962 218.21 217.44 215.129 214.909C211.608 211.828 207.646 210.948 203.465 212.929C200.164 214.469 197.193 216.56 194.111 218.431C190.59 220.631 187.069 223.052 183.548 225.363C179.586 227.784 175.295 228.774 170.783 229.104C169.903 229.104 169.022 229.104 168.142 228.994C161.319 227.344 155.157 224.483 150.315 218.981C145.584 213.589 142.943 207.537 142.282 200.494C142.062 198.513 141.842 196.532 141.732 194.552C141.732 188.389 143.383 182.557 145.033 176.725C146.464 171.663 148.225 166.822 150.976 162.42C152.296 160.329 153.947 158.458 156.037 157.028C157.688 155.817 159.449 155.377 161.429 155.817C172.764 158.128 184.098 160.329 195.322 162.97C201.484 164.401 207.536 166.491 213.699 168.252C223.272 171.003 232.846 173.424 242.419 176.395C257.385 181.017 272.13 186.189 286.436 192.241C290.727 194.112 295.019 195.872 298.65 198.843ZM298.32 217.55C299.75 213.479 299.971 209.297 298.76 205.116C298.32 203.795 297.66 202.585 296.999 201.484C296.559 200.714 296.009 199.944 294.909 200.274C294.689 200.274 294.358 200.054 294.138 199.944C291.167 198.293 288.306 196.532 285.335 194.992C276.532 190.15 267.399 185.969 257.715 183.108C248.472 180.246 239.118 177.495 229.875 174.634C209.957 168.582 189.82 163.52 169.352 159.999C160.879 158.568 154.277 161.32 150.866 169.352C149.655 172.103 148.665 175.075 147.894 178.156C146.244 184.428 145.033 190.7 144.813 197.743C144.813 199.283 145.033 201.374 145.253 203.465C145.804 207.427 146.904 211.278 149.435 214.469C150.976 216.34 152.406 218.321 154.057 219.971C159.669 225.693 170.013 228.884 178.596 224.593C181.457 223.272 184.208 221.512 186.849 219.861C191.581 216.89 196.092 213.809 200.714 210.838C203.135 209.297 205.556 207.977 208.087 206.656C210.508 205.446 212.818 205.996 215.019 207.647C217.99 209.957 220.081 212.929 221.071 216.56C221.952 220.081 222.722 223.602 223.492 227.124C224.153 230.205 224.813 233.286 226.794 235.927C231.085 241.759 236.367 246.161 243.19 248.912C247.371 250.562 251.663 251.443 256.064 252.103C259.476 252.653 262.777 252.763 266.078 251.883C272.57 250.012 278.072 246.601 282.474 241.539C285.225 238.458 287.866 235.267 290.397 231.966C293.808 227.564 296.669 222.942 298.32 217.55Z" fill="white"/>
<path d="M194.882 210.838C195.762 210.288 196.862 209.847 197.743 209.187C200.274 207.757 202.805 206.216 205.336 204.675C207.536 203.465 209.847 202.805 212.488 203.135C212.818 202.475 213.038 201.814 213.369 201.154C212.048 201.044 211.278 202.365 209.737 201.924C211.058 200.934 211.828 200.164 212.928 199.504C214.909 198.403 215.789 196.753 216.23 194.662C214.689 195.212 213.258 195.762 211.608 196.422C211.388 195.432 212.048 194.882 212.598 194.442C214.029 193.561 215.459 192.571 216.89 191.801C217.88 191.251 218.65 190.48 219.201 189.38C221.181 185.528 223.272 181.677 225.363 177.826C225.693 177.385 225.803 176.835 226.133 176.175C219.421 174.414 212.928 172.214 206.436 170.673C206.546 173.094 206.876 175.295 206.656 177.385C206.326 180.357 205.666 183.328 205.115 186.299C204.895 187.729 204.125 188.61 202.915 189.49C199.944 191.251 196.972 193.341 194.221 195.432C192.351 196.753 192.461 198.183 194.442 199.284C195.432 199.944 196.642 200.384 197.743 200.824C198.403 201.264 199.173 201.594 200.054 202.035C198.843 205.556 196.862 208.197 194.882 210.838ZM298.76 205.116C299.97 209.297 299.75 213.479 298.32 217.55C296.669 222.942 293.808 227.564 290.397 231.966C287.866 235.267 285.225 238.458 282.474 241.539C278.072 246.601 272.57 250.012 266.078 251.883C262.777 252.763 259.476 252.653 256.064 252.103C251.663 251.443 247.371 250.562 243.19 248.912C236.367 246.161 231.085 241.759 226.793 235.927C224.813 233.286 224.152 230.205 223.492 227.124C222.722 223.602 221.952 220.081 221.071 216.56C220.081 212.929 217.99 209.957 215.019 207.647C212.818 205.996 210.507 205.446 208.087 206.656C205.556 207.977 203.135 209.297 200.714 210.838C196.092 213.809 191.58 216.89 186.849 219.861C184.208 221.512 181.457 223.272 178.596 224.593C170.013 228.884 159.669 225.693 154.057 219.971C152.406 218.321 150.976 216.34 149.435 214.469C146.904 211.278 145.804 207.427 145.253 203.465C145.033 201.374 144.923 199.283 144.813 197.743C145.033 190.7 146.244 184.428 147.894 178.156C148.665 175.075 149.655 172.103 150.865 169.352C154.277 161.32 160.879 158.568 169.352 159.999C189.82 163.52 209.957 168.582 229.875 174.634C239.118 177.495 248.471 180.246 257.715 183.108C267.398 185.969 276.532 190.15 285.335 194.992C288.306 196.532 291.167 198.293 294.138 199.944C294.358 200.054 294.689 200.274 294.909 200.274C296.009 199.944 296.559 200.714 296.999 201.484C297.66 202.585 298.32 203.795 298.76 205.116ZM295.129 217.44C297.109 212.048 296.339 206.876 294.358 201.594C291.387 201.484 288.966 199.944 286.546 198.733C280.493 195.762 274.551 192.681 268.499 189.71C267.839 189.38 267.068 189.27 265.968 188.83C268.499 192.131 268.609 195.432 268.389 198.953C268.059 201.594 267.729 204.345 267.508 206.986C267.288 209.077 266.518 210.728 264.868 211.938C262.997 213.259 261.236 214.469 259.365 215.79C258.375 216.56 257.495 217.44 256.284 218.431C257.605 219.201 258.595 219.751 259.696 220.301C261.676 221.512 262.227 222.832 261.786 225.143C261.566 225.913 261.346 226.574 261.126 227.234C260.246 229.655 258.925 231.966 256.945 233.946C257.825 234.496 258.485 234.937 259.365 235.487C257.165 236.257 255.844 235.377 254.524 234.937C250.562 233.506 246.601 231.966 242.199 231.966C241.539 231.966 240.659 231.966 240.108 230.865C240.659 230.425 241.099 230.095 241.539 229.655C240.659 226.133 240.549 222.502 241.099 218.761C241.869 213.259 243.3 208.087 245.17 202.805C246.271 199.504 247.811 196.312 250.012 193.561C252.543 190.26 255.734 188.169 259.806 187.619C260.356 187.509 260.906 187.399 262.006 187.289C260.906 186.849 260.246 186.629 259.696 186.409C254.634 184.868 249.572 183.218 244.4 181.567C242.969 181.127 241.649 180.467 239.998 180.907C239.558 181.127 238.898 180.797 238.458 180.467C235.927 178.376 232.736 178.486 229.765 177.275C228.224 180.026 226.793 182.557 225.363 185.198C224.813 186.189 224.483 187.289 223.932 188.389C224.593 188.5 225.363 188.61 226.133 188.72C226.133 188.94 226.133 189.05 226.243 189.27C225.253 189.82 224.373 190.48 223.492 190.92C221.622 191.801 221.071 193.231 220.631 194.992C226.133 192.571 231.415 190.15 236.697 187.839C237.798 187.399 238.788 187.069 239.888 186.739C240.218 186.629 240.659 186.959 241.099 187.179C240.989 187.509 240.879 187.949 240.659 188.169C239.778 188.72 238.788 189.38 237.798 189.82C232.075 192.461 226.243 194.992 220.521 197.523C219.861 197.853 218.981 198.183 218.65 198.843C217.66 200.714 216.78 202.695 215.899 204.675C220.851 207.867 223.492 212.268 224.813 217.55C225.583 220.411 226.133 223.272 226.904 226.133C227.454 228.664 227.784 231.195 229.324 233.396C232.185 237.468 235.487 241.099 239.668 243.85C245.28 247.371 251.443 248.692 257.825 249.462C264.097 250.232 269.489 248.252 274.441 244.84C276.312 243.52 277.962 242.089 279.503 240.439C281.814 238.018 284.015 235.487 286.105 232.846C289.957 228.224 293.148 223.162 295.129 217.44ZM192.791 169.242L194.331 167.702C188.829 166.271 183.658 164.951 178.156 163.52C175.955 167.482 173.644 171.223 171.663 175.075C167.041 184.318 164.18 194.222 163.08 204.565C162.53 209.847 162.75 215.129 162.53 220.411C162.53 221.732 163.08 222.392 164.4 222.722C166.931 223.382 169.462 223.933 172.103 223.602C175.405 223.162 178.266 221.952 181.017 220.301C184.318 218.321 187.509 216.12 190.59 213.919C190.92 213.809 191.14 213.479 191.58 212.929C189.38 212.268 187.399 211.938 185.528 211.168C183.658 210.508 181.567 211.498 179.806 210.178C180.686 209.297 181.017 208.344 180.797 207.316C180.026 204.125 180.136 200.824 180.576 197.523C181.347 191.361 183.548 185.528 185.748 179.696C187.399 175.625 189.6 172.103 192.791 169.242ZM174.634 162.75C173.314 161.87 172.103 161.43 170.783 161.54C168.362 161.65 165.941 161.76 163.63 162.09C158.898 162.75 155.487 165.281 153.727 169.793C153.506 170.233 153.286 170.673 153.176 171.113C149.875 180.687 147.564 190.37 148.114 200.604C148.445 205.886 149.875 210.728 153.396 214.689C154.717 216.23 156.147 217.66 157.468 219.091C157.908 219.421 158.348 219.641 159.008 219.971C157.798 198.953 163.52 180.136 174.634 162.75Z" fill="#222222"/>
<path d="M294.359 201.594C296.339 206.876 297.11 212.048 295.129 217.44C293.148 223.162 289.957 228.224 286.106 232.846C284.015 235.487 281.814 238.018 279.503 240.439C277.963 242.089 276.312 243.52 274.441 244.84C269.489 248.252 264.097 250.232 257.825 249.462C251.443 248.692 245.28 247.371 239.668 243.85C235.487 241.099 232.186 237.468 229.325 233.396C227.784 231.195 227.454 228.664 226.904 226.133C226.133 223.272 225.583 220.411 224.813 217.55C223.492 212.268 220.851 207.867 215.9 204.675C216.78 202.695 217.66 200.714 218.651 198.843C218.981 198.183 219.861 197.853 220.521 197.523C226.243 194.992 232.076 192.461 237.798 189.82C238.788 189.38 239.778 188.72 240.659 188.169C240.879 187.949 240.989 187.509 241.099 187.179C240.659 186.959 240.219 186.629 239.888 186.739C238.788 187.069 237.798 187.399 236.697 187.839C231.415 190.15 226.133 192.571 220.631 194.992C221.072 193.231 221.622 191.801 223.492 190.92C224.373 190.48 225.253 189.82 226.243 189.27C226.133 189.05 226.133 188.94 226.133 188.72C225.363 188.61 224.593 188.5 223.933 188.389C224.483 187.289 224.813 186.189 225.363 185.198C226.794 182.557 228.224 180.026 229.765 177.275C232.736 178.486 235.927 178.376 238.458 180.467C238.898 180.797 239.558 181.127 239.999 180.907C241.649 180.467 242.97 181.127 244.4 181.567C249.572 183.218 254.634 184.868 259.696 186.409C260.246 186.629 260.906 186.849 262.007 187.289C260.906 187.399 260.356 187.509 259.806 187.619C255.734 188.169 252.543 190.26 250.012 193.561C247.811 196.312 246.271 199.504 245.17 202.805C243.3 208.087 241.869 213.259 241.099 218.761C240.549 222.502 240.659 226.133 241.539 229.655C241.099 230.095 240.659 230.425 240.109 230.865C240.659 231.855 241.539 231.966 242.199 231.966C246.601 231.966 250.562 233.506 254.524 234.937C255.844 235.377 257.165 236.257 259.366 235.487C258.485 234.937 257.825 234.496 256.945 233.946C258.926 231.966 260.246 229.655 261.126 227.234C261.346 226.574 261.566 225.913 261.787 225.143C262.227 222.832 261.677 221.512 259.696 220.301C258.595 219.751 257.605 219.201 256.285 218.431C257.495 217.44 258.375 216.56 259.366 215.79C261.236 214.469 262.997 213.259 264.868 211.938C266.518 210.728 267.289 209.077 267.509 206.986C267.729 204.345 268.059 201.594 268.389 198.953C268.609 195.432 268.389 192.131 265.968 188.83C267.069 189.27 267.839 189.38 268.499 189.71C274.551 192.681 280.493 195.762 286.546 198.733C288.967 199.944 291.387 201.484 294.359 201.594ZM229.215 201.154C229.215 199.834 228.334 198.843 227.014 198.843C225.693 198.843 224.483 200.054 224.483 201.484C224.373 202.695 225.363 203.685 226.684 203.795C228.004 203.795 229.105 202.585 229.215 201.154Z" fill="#D3E5E4"/>
<path d="M268.609 138.541C269.93 138.541 270.48 139.201 270.48 140.632C270.48 142.282 269.269 143.493 267.839 143.493C266.628 143.603 265.638 142.613 265.638 141.292C265.638 139.641 266.958 138.431 268.609 138.541Z" fill="#222222"/>
<path d="M232.406 126.327C244.51 123.245 265.638 122.915 271.47 125.776C258.595 134.91 247.041 145.144 238.128 158.018C223.052 154.277 208.197 150.756 193.011 147.014C204.565 136.78 217.66 130.068 232.406 126.327Z" fill="#ACACAC"/>
<path d="M254.524 155.817C255.734 155.817 256.615 156.698 256.615 158.018C256.615 159.559 255.404 160.989 253.974 160.879C252.873 160.879 251.883 159.889 251.883 158.789C251.883 157.468 253.423 155.817 254.524 155.817Z" fill="#222222"/>
<path d="M238.898 271.8C239.448 271.8 239.998 271.8 240.769 271.8C238.348 278.293 233.836 281.484 227.454 281.374C221.072 281.264 214.909 280.053 208.967 277.742C208.637 277.742 208.307 277.522 207.757 277.192C214.029 272.02 220.851 269.489 229.104 271.69C227.894 272.571 226.684 273.231 225.693 274.221C224.593 275.101 223.382 275.982 223.272 277.852C223.823 277.852 224.373 277.852 224.813 277.632C226.243 276.862 227.564 275.872 228.994 274.991C232.076 273.121 235.267 271.8 238.898 271.69V271.8Z" fill="#F36869"/>
<path d="M230.205 123.135C230.205 123.135 229.435 123.576 229.104 123.796C225.913 124.786 222.832 125.666 219.751 126.767C218.541 127.207 217.77 126.767 216.89 126.107C213.259 123.686 209.187 122.365 204.675 122.365C202.695 122.475 200.824 122.805 198.513 123.025C204.896 112.902 222.502 111.801 230.205 123.135Z" fill="#ACACAC"/>
<path d="M227.014 198.843C228.334 198.843 229.214 199.834 229.214 201.154C229.104 202.585 228.004 203.795 226.684 203.795C225.363 203.685 224.373 202.695 224.483 201.484C224.483 200.054 225.693 198.843 227.014 198.843Z" fill="#222222"/>
<path d="M209.737 201.924C211.278 202.365 212.048 201.044 213.369 201.154C213.039 201.814 212.819 202.475 212.488 203.135C209.847 202.805 207.537 203.465 205.336 204.675C202.805 206.216 200.274 207.757 197.743 209.187C196.863 209.847 195.762 210.288 194.882 210.838C196.863 208.197 198.843 205.556 200.054 202.035C199.173 201.594 198.403 201.264 197.743 200.824C196.643 200.384 195.432 199.944 194.442 199.284C192.461 198.183 192.351 196.753 194.222 195.432C196.973 193.341 199.944 191.251 202.915 189.49C204.125 188.61 204.896 187.729 205.116 186.299C205.666 183.328 206.326 180.357 206.656 177.385C206.876 175.295 206.546 173.094 206.436 170.673C212.929 172.214 219.421 174.414 226.133 176.175C225.803 176.835 225.693 177.385 225.363 177.826C223.272 181.677 221.182 185.528 219.201 189.38C218.651 190.48 217.88 191.251 216.89 191.801C215.459 192.571 214.029 193.561 212.598 194.442C212.048 194.882 211.388 195.432 211.608 196.422C213.259 195.762 214.689 195.212 216.23 194.662C215.79 196.753 214.909 198.403 212.929 199.504C211.828 200.164 211.058 200.934 209.737 201.924Z" fill="#ACACAC"/>
<path d="M220.191 242.75C221.842 245.611 220.961 247.591 217.77 248.472C215.789 249.132 213.699 249.242 211.608 248.692C207.646 247.811 203.685 246.931 199.834 245.501C195.432 243.96 191.691 241.209 188.829 237.358C188.499 237.027 188.279 236.587 188.059 236.147C186.739 233.726 187.179 232.406 189.6 231.085C191.36 230.095 193.231 229.545 195.102 229.765C197.963 229.655 200.384 230.315 202.805 231.085C208.197 232.736 213.038 235.157 217.22 239.008C218.32 240.109 219.421 241.319 220.191 242.75Z" fill="#F36869"/>
<path d="M216.67 223.602C217.55 227.124 217.77 230.645 217.66 234.386C214.139 232.516 210.838 230.645 207.206 228.774C208.527 224.593 209.847 220.411 211.388 215.79C212.268 216.67 213.038 217.11 213.589 217.77C215.129 219.421 216.12 221.402 216.67 223.602Z" fill="#D3E5E4"/>
<path d="M214.029 439.282C215.459 445.334 216.01 451.497 215.68 457.659C215.459 463.381 213.699 468.773 211.058 473.835C209.407 476.806 207.536 479.557 205.886 482.418C198.403 481.868 191.14 481.317 183.768 480.767C178.486 480.327 173.534 478.677 168.802 476.146C162.09 472.624 155.927 468.333 150.315 463.271C145.584 458.869 141.952 453.697 138.101 448.525C131.939 440.272 126.437 431.579 121.485 422.556C116.423 413.092 109.6 405.169 100.577 399.227C100.357 399.117 100.247 398.897 100.027 398.677C101.127 397.247 102.668 396.586 104.098 395.706C111.361 391.304 119.284 389.104 127.757 388.883C137.991 388.663 147.674 391.194 157.028 395.046C167.262 399.227 176.835 404.729 186.189 410.561C187.509 411.332 188.72 412.102 190.04 412.982C190.59 411.662 189.71 411.222 189.05 410.671C187.179 409.021 185.198 407.48 182.997 405.72C183.218 396.146 183.108 386.353 183.658 376.559C184.428 362.804 186.519 349.269 189.93 335.954C192.681 324.62 196.532 313.726 201.264 303.162C201.484 302.502 201.814 301.841 202.145 301.181C205.556 302.942 208.857 304.702 212.268 306.463C212.158 306.903 212.048 307.453 211.828 308.004C207.757 317.797 205.006 327.921 203.355 338.375C201.484 351.25 200.714 364.124 201.484 377.109C202.034 387.343 204.015 397.247 206.436 407.15C208.967 417.824 211.608 428.608 214.029 439.282Z" fill="#ACACAC"/>
<path d="M207.647 215.459L203.685 227.674C201.154 227.234 198.843 226.794 196.532 226.464C194.112 226.133 191.581 226.243 189.27 227.014C184.098 228.554 182.117 232.846 184.648 237.688C186.739 241.869 189.93 244.84 194.112 246.821C195.762 247.701 197.413 248.362 199.504 249.132C199.173 251.883 198.953 254.524 198.623 257.385C195.652 257.055 193.231 255.954 190.7 255.074C188.059 254.084 185.528 252.983 182.887 251.993C182.227 251.663 181.457 251.443 180.797 251.223C178.376 254.304 178.376 257.275 180.026 260.356C182.777 265.528 186.959 269.489 191.581 272.901C193.231 274.001 194.992 275.101 196.643 276.092C197.853 276.752 198.403 277.522 198.513 278.843C198.513 281.044 199.063 283.134 199.283 285.225C199.394 286.106 199.504 286.986 199.504 287.976C195.102 286.436 182.447 273.561 176.175 263.327C170.233 253.644 166.271 243.08 163.96 231.745C164.401 231.745 164.731 231.525 164.951 231.635C171.553 233.066 177.716 231.856 183.548 228.774C187.619 226.574 191.471 223.823 195.542 221.402C198.513 219.531 201.484 217.66 204.565 215.9C205.336 215.459 206.326 214.909 207.647 215.459Z" fill="#ACACAC"/>
<path d="M206.656 285.445C207.646 285.445 208.637 286.436 208.637 287.536C208.637 288.526 207.646 289.517 206.656 289.517C205.556 289.627 204.675 288.636 204.675 287.536C204.785 286.436 205.666 285.445 206.656 285.445Z" fill="#222222"/>
<path d="M194.332 167.702L192.791 169.242C189.6 172.103 187.399 175.625 185.748 179.696C183.548 185.528 181.347 191.361 180.576 197.523C180.136 200.824 180.026 204.125 180.797 207.316C181.017 208.344 180.686 209.297 179.806 210.178C181.567 211.498 183.658 210.508 185.528 211.168C187.399 211.938 189.38 212.268 191.58 212.929C191.14 213.479 190.92 213.809 190.59 213.919C187.509 216.12 184.318 218.321 181.017 220.301C178.266 221.952 175.405 223.162 172.103 223.602C169.462 223.933 166.931 223.382 164.4 222.722C163.08 222.392 162.53 221.732 162.53 220.411C162.75 215.129 162.53 209.847 163.08 204.565C164.18 194.222 167.041 184.318 171.663 175.075C173.644 171.223 175.955 167.482 178.156 163.52C183.658 164.951 188.829 166.271 194.332 167.702Z" fill="#ACACAC"/>
<path d="M165.281 250.452C162.97 250.452 160.769 250.672 158.568 250.562C131.609 248.582 107.51 239.448 86.4919 222.502C79.7794 217.22 73.3971 211.498 68.1151 204.676C67.895 204.455 67.6749 204.235 67.5649 203.905C66.6846 201.154 64.4838 201.044 62.1729 200.934C58.3215 200.604 54.4701 200.274 50.5086 199.944C50.1785 199.944 49.7383 199.834 49.2982 199.724C52.2693 185.198 54.5801 170.673 56.2307 155.928C59.752 157.358 62.6131 159.449 64.1537 163.08C64.4838 163.74 64.7039 164.511 65.034 165.281C65.3641 165.831 65.8043 166.381 66.3545 167.152C67.785 164.731 67.4549 162.75 66.7946 160.659C66.0243 158.238 64.3737 156.258 62.393 154.827C60.9625 153.837 59.4219 152.956 57.8813 151.966C54.0299 149.435 51.3889 146.024 49.6283 141.732C48.0877 137.771 48.748 134.139 51.1689 130.838C55.0203 125.556 61.7328 123.576 67.895 125.886C72.0766 127.317 75.7079 129.848 78.679 133.149C85.1714 140.522 89.1329 148.885 88.4726 158.899C88.0325 164.071 87.1521 169.242 86.4919 174.304C86.2718 175.845 86.0517 177.385 85.8316 178.816C85.5015 183.548 86.4919 187.949 89.573 191.581C91.5538 193.892 93.6445 196.202 95.8453 198.183C112.351 212.819 130.948 223.933 152.076 230.755C154.387 231.415 156.698 232.076 159.009 232.516C159.999 232.736 160.439 233.176 160.659 234.276C161.099 236.477 161.54 238.788 162.2 240.989C163.08 244.07 164.181 247.041 165.281 250.452Z" fill="#ACACAC"/>
<path d="M162.97 484.619C162.97 484.619 162.97 484.839 162.86 484.949C161.54 484.729 160.109 484.509 158.789 484.289C148.665 482.088 139.091 478.456 129.958 473.395C121.155 468.663 112.792 463.271 105.089 456.778C98.5963 451.386 93.2043 445.114 89.7931 437.191C87.5923 431.909 86.3818 426.517 86.712 420.795C86.932 416.174 88.3626 411.772 91.1136 407.7C93.2043 408.801 95.1851 410.011 96.7256 411.772C98.8164 414.083 100.907 416.394 102.668 418.924C106.629 424.647 110.371 430.479 114.112 436.421C119.284 444.564 124.786 452.707 131.278 459.97C139.201 468.883 147.895 476.806 158.568 482.418C159.999 483.188 161.54 483.848 162.97 484.619Z" fill="#595959"/>
<path d="M123.025 86.712C123.135 87.7024 123.245 88.6927 123.245 89.5731C123.245 91.8839 122.805 92.4341 120.494 92.8743C118.514 93.2044 116.423 93.4245 114.222 93.7546C113.452 84.6212 110.701 76.5883 104.318 69.9858C103.658 69.3256 103.108 68.2252 101.567 68.5553C101.787 69.3256 101.897 69.9858 102.228 70.536C103.218 72.4067 104.208 74.1674 105.199 76.0381C107.62 80.3296 109.38 84.8413 109.93 89.6831C110.04 90.2333 110.151 90.6735 110.151 91.1136C110.151 93.5345 109.6 94.3048 107.289 94.745C106.189 95.0751 104.979 95.1851 103.768 95.2952C101.237 95.4052 100.907 94.965 100.577 92.4341C100.467 90.3433 100.357 88.1425 99.8067 86.0518C97.2758 76.1481 91.7738 68.2252 83.4107 62.1729C83.1906 61.2926 84.291 59.9721 82.8605 58.8717C79.9994 61.6227 78.899 65.5842 77.0283 68.6653C74.3873 67.785 71.8564 66.6846 69.2154 66.0244C66.6845 65.3641 64.1536 65.144 61.2925 64.7039C61.4026 64.2637 61.6226 63.7135 61.7327 63.1633C63.0532 59.4219 63.6034 55.5705 62.723 51.609C61.9527 47.8677 60.0821 45.0066 56.8909 42.9158C52.7093 40.1648 48.0876 38.2941 43.576 36.4234C43.3559 36.3134 43.0258 36.4234 42.0354 36.4234C43.0258 37.3038 43.4659 37.854 44.1262 38.2941C46.5471 39.8347 49.078 41.3753 51.6089 43.0259H51.829C57.7712 46.5472 60.3021 48.858 59.2017 58.2115C58.9817 60.5223 58.5415 62.6131 58.2114 65.034C57.221 65.3641 56.0106 65.5842 54.58 65.9143C54.58 64.7039 54.6901 63.6035 54.6901 62.6131C55.0202 59.532 54.6901 56.5609 54.0298 53.4797C53.1495 49.1882 50.7286 45.997 47.0973 43.6861C42.6957 40.9351 37.9639 39.9447 32.902 39.7247C31.9117 39.6146 30.8113 39.7247 29.7109 39.7247C29.9309 36.5335 31.3615 33.5624 29.7109 30.0411C29.0506 31.3616 28.6105 32.1319 28.2803 33.0122C27.8402 34.0026 27.6201 34.9929 27.29 35.9833C26.2996 38.7343 25.6394 39.1745 22.8883 38.6243C20.0273 37.964 17.1662 37.1937 14.3052 36.5335C20.9076 26.96 25.6394 17.2764 23.7687 5.392C25.3092 5.392 29.8209 6.82253 31.0313 7.92293C32.1318 9.02334 32.3518 10.3438 32.2418 11.8844C31.9117 14.4153 31.6916 16.8362 31.5815 19.2571C31.4715 20.0274 31.3615 20.9077 32.4619 21.4579C34.7727 19.9174 34.5526 16.9463 35.9832 14.7454C36.2033 14.9655 36.4233 15.1856 36.5334 15.4057C40.2748 20.9077 45.6667 23.4387 52.0491 24.2089C55.5704 24.6491 59.2017 24.9792 62.8331 25.1993C74.4974 25.6395 84.9512 29.6009 94.4147 36.4234C98.2661 39.0644 101.677 42.3656 104.979 45.6669C108.72 49.1882 111.361 53.4797 113.672 57.9914C118.404 67.0147 121.595 76.5883 123.025 86.712Z" fill="#ACACAC"/>
<path d="M75.4877 72.2967C74.8275 73.9473 74.1672 75.4879 73.507 77.1385C70.0957 76.4782 66.7945 75.7079 63.3833 75.3778C60.082 75.0477 56.7808 75.3778 53.2595 75.3778C53.5896 73.067 53.9198 70.6461 54.3599 68.0051C61.6226 67.895 68.6652 68.7754 75.4877 72.2967Z" fill="#595959"/>
<path d="M70.0959 86.3819C66.7946 97.606 64.0436 108.61 62.393 120.164C57.4412 120.715 52.9295 122.365 49.2982 126.107C45.7769 129.848 44.0162 134.25 44.6765 139.531C43.246 138.431 41.9255 137.331 40.605 136.23C44.2363 118.734 47.8677 101.127 51.609 83.4108C57.9914 83.0806 63.9336 84.4011 70.0959 86.3819Z" fill="white"/>
<path d="M53.3696 154.167C52.8194 156.588 52.1592 159.339 51.719 162.2C50.2885 169.793 49.0781 177.385 47.7576 185.088C47.0973 189.49 46.4371 193.892 45.3367 198.183C44.4564 201.814 44.5664 205.446 44.1262 209.077C42.6957 218.761 41.4853 228.554 40.1648 238.238C39.5045 242.86 37.964 243.96 33.3423 244.07C28.2804 244.18 18.0466 243.3 14.4153 242.309C13.9751 241.319 14.3052 240.329 14.6354 239.338C16.6161 232.186 18.8169 224.923 20.5775 217.66C22.7784 208.417 24.6491 198.953 26.5197 189.6C26.8499 188.169 26.8499 186.739 26.9599 185.418C34.5527 181.457 37.0836 174.854 33.0121 168.032C36.9736 165.171 40.0547 161.76 39.0644 156.258C43.576 154.057 46.327 150.756 46.4371 145.584C48.7479 148.445 50.9487 151.196 53.3696 154.167Z" fill="white"/>
<path d="M42.2554 144.373C42.8056 146.904 42.0353 148.995 40.2746 150.646C37.3035 153.287 32.4618 153.837 28.8304 151.746C22.228 148.005 19.697 139.752 24.979 133.259C28.6103 128.858 33.3421 126.327 38.8441 124.126C38.4039 126.327 37.9638 128.197 37.6337 130.068C37.3035 131.388 36.9734 132.819 36.6433 134.25C35.9831 136.23 36.4232 137.771 38.2939 138.981C40.1646 140.302 41.7052 141.952 42.2554 144.373Z" fill="#ACACAC"/>
<path d="M35.653 157.358C35.653 159.449 34.8827 161.099 33.5622 162.53C27.9501 168.582 17.0561 168.472 11.7742 162.2C9.13318 159.119 8.3629 155.487 9.68338 151.636C11.1139 147.344 14.195 144.593 18.1565 142.393C20.1372 151.966 25.8594 157.028 35.653 157.358Z" fill="#ACACAC"/>
<path d="M29.6008 169.683C32.0217 173.754 31.3615 177.605 27.6201 180.246C24.539 182.447 21.0177 182.887 17.2763 182.227C13.3148 181.457 9.90356 179.696 7.5927 176.175C5.17181 172.544 5.50193 168.142 8.80315 164.951C14.8554 170.783 21.7879 172.214 29.6008 169.683Z" fill="#ACACAC"/>
<path d="M19.5872 4.73175C20.6876 7.59281 20.7977 10.2338 20.3575 12.9848C19.3672 19.2571 16.9463 25.0893 13.645 30.4812C13.0948 31.3616 12.3246 32.1319 11.2242 33.4523C10.894 31.8017 10.5639 30.7013 10.4539 29.711C9.68359 21.0178 13.2049 11.4442 19.5872 4.73175Z" fill="#595959"/>
<path opacity="0.35" d="M295.679 207.316C295.349 205.996 295.679 204.896 295.129 203.795C294.689 203.025 295.679 201.814 294.579 202.035C294.359 202.035 294.029 201.704 293.808 201.594C290.837 199.944 287.646 199.614 284.675 198.073C275.872 193.231 266.298 188.5 256.615 185.528C247.371 182.667 238.568 180.136 229.215 177.275C209.297 171.223 193.011 165.831 172.544 162.31C164.071 160.879 157.028 162.31 153.617 170.343C152.406 173.204 151.306 177.165 150.536 180.136C148.885 186.409 148.335 190.81 148.115 197.853C148.225 199.394 148.115 202.475 148.445 204.565C148.995 208.527 149.875 210.288 152.406 213.589C153.837 215.459 155.047 216.67 156.808 218.431C162.42 224.153 170.893 225.583 179.476 221.402C182.337 219.971 183.878 218.651 186.519 217C191.141 214.029 194.882 211.168 199.614 208.197C201.925 206.656 205.776 204.896 208.307 203.685C210.728 202.475 215.57 204.565 217.77 206.216C220.852 208.527 223.603 212.818 224.593 216.45C225.473 219.971 226.354 223.823 227.124 227.344C227.784 230.535 228.554 232.516 230.535 235.157C234.827 240.879 237.358 243.41 244.07 246.161C248.252 247.811 252.323 248.692 256.725 249.352C260.026 249.792 263.327 249.902 266.738 248.912C273.231 247.151 275.872 244.73 280.384 239.668C283.135 236.587 285.115 234.717 287.646 231.415C291.057 227.014 293.698 223.052 295.349 217.66C296.67 213.479 297.11 211.718 295.899 207.537L295.679 207.316Z" fill="white"/>
</svg>
