<svg width="153" height="61" viewBox="0 0 153 61" fill="none" xmlns="http://www.w3.org/2000/svg">
<path d="M105.039 18.0394C105.147 18.0318 105.256 18.0166 105.364 18.009C105.364 17.9559 105.364 17.9105 105.364 17.8574L105.039 17.8574C105.039 17.9181 105.039 17.9787 105.039 18.0394Z" fill="#FBFBFD"/>
<path d="M41.9585 48.0467C39.7971 51.9285 44.3639 44.5668 41.9585 48.0467V48.0467Z" fill="#FBFBFD"/>
<path d="M48.3564 20.5337C48.2818 20.5716 48.2073 20.6095 48.1328 20.6474C48.2006 20.7157 48.2615 20.7763 48.3293 20.8446L48.3564 20.5413L48.3564 20.5337Z" fill="#FBFBFD"/>
<path d="M48.3034 45.3402C48.3373 45.2719 48.3711 45.2037 48.405 45.143L48.1001 44.7261C48.0459 44.8398 47.9917 44.9535 47.9375 45.0748C48.0595 45.1658 48.1814 45.2567 48.3102 45.3477L48.3034 45.3402Z" fill="#FBFBFD"/>
<path d="M44.3277 49.3281C43.7179 49.6162 42.7693 49.3585 42.7422 50.6019C43.3588 50.3138 44.3006 50.5715 44.3277 49.3281Z" fill="#FBFBFD"/>
<path d="M43.3086 26.7656C43.5728 26.2197 43.7083 25.9316 43.9455 25.4388C43.5525 25.363 43.3425 25.3251 42.9766 25.2568C43.0918 25.7875 43.1663 26.1287 43.3086 26.7656Z" fill="#FBFBFD"/>
<path d="M69.913 43.8541C70.0011 43.9223 70.0892 43.983 70.1773 44.0512C70.1976 43.8541 70.2247 43.6493 70.245 43.4522C70.1908 43.4295 70.1298 43.4143 70.0756 43.3916C70.0214 43.5432 69.9672 43.7024 69.9062 43.8541L69.913 43.8541Z" fill="#FBFBFD"/>
<path d="M47.9766 29.7376C48.085 29.6467 48.2137 29.5936 48.2137 29.5329C48.2137 29.4116 48.1527 29.2752 48.0308 28.8354C48.0037 29.3586 47.9901 29.5329 47.9766 29.7376Z" fill="#FBFBFD"/>
<path d="M50.6637 49.3283C50.4469 48.972 49.4644 49.9424 49.8709 50.602C50.0878 50.9583 51.0702 49.9879 50.6637 49.3283Z" fill="#FBFBFD"/>
<path d="M48.8052 16.9776C48.8459 16.9625 48.8866 16.9473 48.9272 16.9397C48.9069 16.7881 48.8865 16.6365 48.8662 16.4849C48.8323 16.5 48.7917 16.5076 48.7578 16.5228C48.7714 16.6744 48.7917 16.8336 48.8052 16.9852L48.8052 16.9776Z" fill="#FBFBFD"/>
<path d="M79.3064 24.37C78.8185 23.6017 78.2607 23.3414 77.6328 23.5891C78.2088 24.0288 78.6898 24.4003 79.1709 24.7718C79.2184 24.6353 79.2657 24.5064 79.3064 24.37Z" fill="#FBFBFD"/>
<path d="M78.7589 33.1873L78.6641 33.1494L78.6912 33.3238L78.7589 33.1873Z" fill="#FBFBFD"/>
<path d="M94.3655 43.5132C94.1352 43.9226 93.9658 44.2107 93.7422 44.6049C94.2752 44.6555 94.483 44.2916 94.3655 43.5132Z" fill="#FBFBFD"/>
<path d="M96.789 42.937C96.8093 43.2099 96.8296 43.4981 96.8703 43.953C97.1752 43.4981 97.2904 43.3237 97.4869 43.0356C97.4123 42.9749 97.3717 42.9294 97.3107 42.8839C97.0329 40.1773 93.8144 36 93.3672 37.8499C94.824 39.0326 94.6885 42.8006 96.789 42.9446L96.789 42.937Z" fill="#FBFBFD"/>
<path d="M70.9844 13.4829C71.0318 13.6194 71.0792 13.7634 70.9844 13.4829V13.4829Z" fill="#FBFBFD"/>
<path d="M75.9453 14.5291C76.0063 14.5746 76.074 14.6125 76.135 14.658C76.257 14.4457 76.3789 14.2334 76.5212 13.9984C76.3315 13.8544 76.2502 13.8013 76.0673 13.6572C76.0198 13.9756 75.986 14.2562 75.9453 14.5291Z" fill="#FBFBFD"/>
<path d="M71.2225 48.0468C67.4417 44.4987 69.305 52.2318 71.2225 48.0468V48.0468Z" fill="#FBFBFD"/>
<path d="M62.5213 32.7321C62.5552 31.375 62.1486 29.4948 61.7285 31.4584C61.6947 32.8155 62.1012 34.7033 62.5213 32.7321Z" fill="#FBFBFD"/>
<path d="M65.8766 13.7934C65.9918 13.7782 66.1138 13.7555 66.2289 13.7403C66.168 13.4825 66.1137 13.2248 66.0528 12.9746C65.9782 13.0049 65.9037 13.0277 65.8359 13.058C65.8495 13.3006 65.863 13.5508 65.8834 13.7934L65.8766 13.7934Z" fill="#FBFBFD"/>
<path d="M62.4657 38.5928L62.4453 38.7292L62.5741 38.6762L62.4657 38.5928Z" fill="#FBFBFD"/>
<path d="M67.2652 28.9111C67.2585 27.6222 65.8762 27.3038 65.6797 28.9111C66.5673 28.7822 66.9129 30.7686 67.2652 28.9111Z" fill="#FBFBFD"/>
<path d="M65.6871 46.7731C65.4703 46.4168 64.4878 47.3872 64.8944 48.0468C65.1112 48.4031 66.0937 47.4327 65.6871 46.7731Z" fill="#FBFBFD"/>
<path d="M68.2031 29.6693C68.3319 29.6466 68.4064 29.6238 68.2031 29.6693V29.6693Z" fill="#FBFBFD"/>
<path d="M67.8422 32.8004C67.9438 32.7625 68.0455 32.7246 68.1471 32.6791C68.1065 32.4138 68.0658 32.1484 68.0252 31.8906C67.9439 31.9134 67.8626 31.9285 67.7812 31.9437C67.8016 32.2318 67.8219 32.5123 67.8422 32.8004Z" fill="#FBFBFD"/>
<path d="M68.2031 29.6694C68.3319 29.6915 68.4064 29.6989 68.2031 29.6694V29.6694Z" fill="#FBFBFD"/>
<path d="M71.3272 15.4161C71.3272 15.363 71.3069 15.3099 71.2933 15.2645C71.2662 15.2796 71.2187 15.2948 71.2187 15.3175C71.2187 15.3706 71.2323 15.4161 71.2459 15.4692C71.273 15.454 71.3272 15.4388 71.3272 15.4237L71.3272 15.4161Z" fill="#FBFBFD"/>
<path d="M61.4531 21.2311C61.5683 21.3827 61.6767 21.5343 61.7919 21.6784L62.002 21.3069C61.8529 21.2008 61.7038 21.1022 61.5548 20.996C61.5209 21.0718 61.4938 21.1552 61.4599 21.2311L61.4531 21.2311Z" fill="#FBFBFD"/>
<path d="M62.0725 14.3018C62.0115 14.3245 61.9438 14.3396 61.8828 14.3624C61.9099 14.5822 61.937 14.7946 61.9709 15.0144C62.0387 14.9917 62.1132 14.9689 62.1809 14.9462C62.1471 14.7339 62.1132 14.5216 62.0725 14.3018Z" fill="#FBFBFD"/>
<path d="M64.6719 26.6747C64.7261 26.5534 64.7667 26.4776 64.7938 26.3942C64.7938 26.379 64.7396 26.326 64.7057 26.2881C64.6922 26.4018 64.6854 26.5155 64.6719 26.6823L64.6719 26.6747Z" fill="#FBFBFD"/>
<path d="M148.784 42.2623C149.245 42.5959 149.8 42.6641 150.607 42.9446C150.979 42.6186 151.833 42.2926 151.914 41.7316C152.118 40.3745 151.237 40.1395 150.471 39.9727C150.071 39.8893 149.624 39.5481 149.292 39.7073C148.784 39.9499 148.35 40.511 147.883 40.9431C148.181 41.3904 148.418 41.9894 148.784 42.2547L148.784 42.2623Z" fill="#FBFBFD"/>
<path d="M147.942 45.4995L145.57 45.4995L145.57 49.3282L147.149 49.3282C147.19 47.6981 148.165 47.5617 147.942 45.4995Z" fill="#FBFBFD"/>
<path d="M137.906 12.6033C138.198 12.5199 138.408 12.4593 138.862 12.3304C138.462 11.8982 138.238 11.6632 137.906 11.2993L137.906 12.6033Z" fill="#FBFBFD"/>
<path d="M125 11.0415C125.888 10.9126 126.233 12.8989 126.579 11.0415C126.572 9.75261 125.196 9.43418 125 11.0415Z" fill="#FBFBFD"/>
<path d="M58.4297 16.1061C58.4297 16.1061 58.4975 16.0985 58.5246 16.0909C58.5246 16.0227 58.5178 15.9545 58.511 15.8862C58.4839 15.8862 58.4297 15.8862 58.4297 15.8938C58.4297 15.9621 58.4297 16.0303 58.4297 16.1061Z" fill="#FBFBFD"/>
<path d="M59.7293 18.5244C59.6818 18.5244 59.6344 18.5244 59.5938 18.5244L59.5937 19.1689C59.6412 19.1689 59.6886 19.1689 59.7293 19.1689L59.7293 18.5244Z" fill="#FBFBFD"/>
<path d="M59.958 29.616C59.8496 29.616 59.7412 29.6008 59.6328 29.5933C59.6328 29.6388 59.6328 29.6842 59.6328 29.7221C59.7412 29.7297 59.8496 29.7373 59.958 29.7449C59.958 29.6994 59.958 29.6539 59.958 29.6084L59.958 29.616Z" fill="#FBFBFD"/>
<path d="M59.5943 12.8003C59.574 12.9368 59.5604 13.005 59.5469 13.0808C59.574 13.0656 59.6146 13.0581 59.6146 13.0353C59.6146 12.9822 59.6079 12.9216 59.5875 12.8003L59.5943 12.8003Z" fill="#FBFBFD"/>
<path d="M61.7344 60.814L62.5272 60.814C62.3781 59.3659 61.7344 60.1013 61.7344 60.814Z" fill="#FBFBFD"/>
<path d="M64.6406 58.8354C64.6406 58.9037 64.6474 58.9643 64.6541 59.0326L64.9929 58.9567C64.9929 58.9188 64.9929 58.8809 64.9862 58.843L64.6406 58.843L64.6406 58.8354Z" fill="#FBFBFD"/>
<path d="M73.5937 60.8141L74.3865 60.8141C74.2375 59.366 73.5937 60.1015 73.5937 60.8141Z" fill="#FBFBFD"/>
<path d="M55.4012 51.8755C55.2725 53.3615 55.5774 54.1424 56.194 54.4305C55.6587 57.2205 53.565 52.012 53.0297 50.6018C52.1014 50.8065 52.3589 52.9294 52.2369 54.4305C49.9196 54.7641 49.8045 51.5419 47.4939 51.8755C47.311 49.6162 48.2934 45.4843 45.9152 46.7731C43.5098 48.3425 46.7757 51.1629 45.9152 54.4305C43.8282 55.9468 43.8757 48.2971 43.5436 54.4305C42.6154 52.52 40.2574 52.9293 40.3794 49.3281C39.3698 49.6162 39.3427 53.1341 40.3794 53.1568C39.8238 54.7944 35.8329 52.2167 35.6364 54.4305C34.4845 53.8619 35.7177 53.3084 35.6364 51.8755C34.349 51.9513 31.1915 58.1833 30.8866 51.8755C29.2739 52.7929 27.7562 55.8786 26.1435 53.1492C24.2463 52.6413 26.584 58.9642 23.772 56.9779C23.623 55.8937 24.0769 55.7724 24.5648 55.7042C21.8274 50.7231 19.4287 56.4396 17.4435 59.5328C15.8037 58.949 15.8851 57.6375 16.1967 55.9544C16.2103 55.9544 16.2171 55.9544 16.2306 55.9468C16.2238 55.9316 16.217 55.9165 16.2035 55.9013C16.3593 55.0598 16.5694 54.1348 16.6439 53.1492C15.1736 53.3236 14.0014 53.9908 13.4797 55.7042C12.1652 54.9991 12.9647 53.5055 13.3035 52.0044L13.3645 51.9816L13.317 51.9361C13.5203 50.9885 13.5339 50.0484 12.6869 49.313C11.5147 49.8664 12.9986 50.943 12.6869 53.1416C11.1014 52.7095 10.2138 53.407 10.3154 55.6966C9.12964 51.6481 5.77564 61.1174 5.57237 54.4229C4.76606 55.6663 3.9733 56.9475 3.20086 58.2515C2.42843 58.2136 2.59101 56.6898 2.40807 55.6966C1.40526 59.7148 -0.268351 54.6806 0.0365564 60.7989L2.40807 60.7989C2.41484 59.5101 3.79033 59.1916 3.98683 60.7989L14.2656 60.7989C14.0895 58.6306 15.1601 57.645 15.0584 60.7989L21.3869 60.7989C21.4005 59.1234 23.5823 59.1689 23.7585 60.7989L32.4585 60.7989C32.4653 59.5101 33.8475 59.1916 34.044 60.7989L38.0011 60.7989C38.0146 59.1234 40.1964 59.1689 40.3726 60.7989L44.3296 60.7989C44.3296 60.0863 44.9666 59.3509 45.1224 60.7989L49.8654 60.7989C50.0958 57.8194 52.0066 57.8194 52.2369 60.7989L53.8157 60.7989L53.8157 56.9703C54.7846 57.1143 55.6858 57.3494 55.4012 59.5252C56.3227 57.6071 57.6846 56.4017 57.7727 53.1416C60.0019 54.4305 57.5559 58.5624 57.7727 60.7989L59.3515 60.7989C59.7851 58.9415 58.43 54.203 60.1442 54.4153C62.78 53.5359 61.4181 57.0537 60.937 58.244C61.9127 57.6905 62.5632 56.614 62.5225 54.4153C59.8054 52.2622 59.0872 49.7224 55.408 51.8604L55.4012 51.8755Z" fill="#FBFBFD"/>
<path d="M22.1863 56.9854C21.773 56.3258 22.7555 55.3554 22.9791 55.7117C23.3924 56.3713 22.4099 57.3418 22.1863 56.9854Z" fill="#FBFBFD"/>
<path d="M66.4726 51.8757C64.5144 51.6862 62.6376 51.6331 62.5156 54.4307C63.5523 55.7347 65.4292 55.6816 66.4726 56.9856C68.4376 56.7961 66.703 52.6641 66.4726 51.8832L66.4726 51.8757Z" fill="#FBFBFD"/>
<path d="M70.4329 54.4304C68.3934 54.7337 71.5171 56.629 70.4329 59.5327C69.8909 58.5472 65.7238 56.212 66.4827 60.8064L71.2257 60.8064C71.1037 56.7882 75.6367 60.2682 74.39 54.4228C74.2003 50.6321 71.4493 59.5403 70.4329 54.4228L70.4329 54.4304Z" fill="#FBFBFD"/>
<path d="M112.016 22.6869C112.036 22.8764 112.056 23.0735 112.077 23.263C112.151 23.2479 112.219 23.2252 112.293 23.21C112.266 23.0205 112.239 22.8309 112.219 22.6338C112.151 22.649 112.083 22.6717 112.016 22.6869Z" fill="#FBFBFD"/>
<path d="M114.727 52.7778C114.74 52.8688 114.76 52.9598 114.774 53.0508L115.194 52.9067C115.181 52.8157 115.167 52.7248 115.153 52.6338C115.011 52.6793 114.869 52.7248 114.733 52.7703L114.727 52.7778Z" fill="#FBFBFD"/>
<path d="M85.4536 58.2593C86.0025 53.4374 86.4903 52.0652 85.4536 48.047C80.365 47.6527 78.7795 49.2145 75.1748 53.1493C74.7818 57.1675 76.8959 58.138 75.1748 60.8066L75.9676 60.8066C76.137 59.3737 76.8484 58.8203 77.5531 58.2517C77.5531 59.533 76.9094 59.768 76.7603 60.8066L80.0534 60.8066C80.0059 60.6853 79.9517 60.5716 79.9043 60.4503C79.9043 60.4655 79.8908 60.4807 79.884 60.4958C79.6875 58.3806 77.7903 59.0174 78.3391 55.7043C80.8122 57.0993 80.8664 57.0083 80.7106 51.8757C82.7975 50.3518 82.7501 58.0091 83.0821 51.8757C86.1515 53.4602 82.5672 58.3957 85.4536 60.8066L87.0392 60.8066C86.6868 59.6694 86.3412 58.5246 85.4536 58.2517L85.4536 58.2593Z" fill="#FBFBFD"/>
<path d="M88.625 60.8139L90.2105 60.8139C90.014 59.2066 88.6386 59.5251 88.625 60.8139Z" fill="#FBFBFD"/>
<path d="M90.1484 59.1308C90.1959 59.3355 90.2365 59.5402 90.284 59.7449C90.3449 59.7222 90.4059 59.6918 90.4737 59.6691C90.433 59.4644 90.3856 59.2596 90.345 59.0474C90.2772 59.0777 90.2162 59.1005 90.1484 59.1308Z" fill="#FBFBFD"/>
<path d="M81.5 58.2591C81.5068 59.5479 82.889 59.8663 83.0855 58.2591C82.1979 58.3879 81.8523 56.4016 81.5 58.2591Z" fill="#FBFBFD"/>
<path d="M94.1608 53.1567C94.398 50.6472 93.0903 50.6244 92.5821 49.328C92.7583 47.7207 93.8153 46.7199 91.7893 46.773C92.3856 51.5645 88.7673 49.5554 88.625 53.1491C90.9152 53.8617 87.4122 55.143 87.8323 56.9777C91.6199 57.516 90.6578 49.6313 94.1608 53.1491L94.1608 53.1567Z" fill="#FBFBFD"/>
<path d="M106.539 33.2707C106.6 33.2858 106.661 33.3086 106.756 33.3313C106.688 33.2555 106.647 33.2025 106.6 33.1646C106.593 33.1646 106.559 33.2327 106.539 33.2707Z" fill="#FBFBFD"/>
<path d="M132.115 50.6021C131.939 54.7112 133.511 56.0001 132.908 60.8143L135.28 60.8143C134.148 57.5391 133.965 52.7325 132.115 50.6021Z" fill="#FBFBFD"/>
<path d="M152.689 46.773C149.396 46.5683 151.11 54.4303 148.739 55.704C148.549 53.4599 147.377 52.7927 145.574 53.149C146.184 58.8048 142.274 57.1824 141.617 60.8063L151.903 60.8063C151.564 58.8048 149.416 59.7146 150.324 55.704C151.361 57.2355 151.571 56.2044 152.696 55.704C152.045 51.1248 154.478 49.5326 152.696 46.773L152.689 46.773Z" fill="#FBFBFD"/>
<path d="M143.194 54.4305C143.045 53.3994 142.401 53.1568 142.401 51.8755C140.768 53.9149 141.27 59.4039 138.444 59.5328L138.444 55.7041C137.469 55.9392 137.049 60.1697 136.899 56.8035C136.954 56.8717 137.008 56.9323 137.042 57.0005C137.164 56.6897 137.292 56.3789 137.469 55.9392C137.326 55.7951 137.204 55.6662 137.082 55.5449C137.021 55.6738 136.94 55.7951 136.872 55.924C136.872 55.8482 136.872 55.7875 136.872 55.7041C134.569 56.811 135.985 57.6147 136.08 60.8065L140.829 60.8065C139.989 56.0529 142.496 56.6897 143.201 54.4229L143.194 54.4305Z" fill="#FBFBFD"/>
<path d="M130.541 55.7043C130.474 59.1842 131.856 58.2744 130.541 60.8066L132.12 60.8066C131.937 58.5473 132.92 54.4154 130.541 55.7043Z" fill="#FBFBFD"/>
<path d="M120.328 20.5031C120.525 20.0937 120.579 19.98 120.633 19.8738C120.572 19.8132 120.504 19.7525 120.443 19.6919C120.423 19.8511 120.403 20.0103 120.335 20.5031L120.328 20.5031Z" fill="#FBFBFD"/>
<path d="M124.999 55.7043C124.647 57.5618 124.308 55.5754 123.414 55.7043C123.516 57.9939 122.445 58.3957 122.621 60.8066L124.993 60.8066C124.234 58.4261 127.364 56.5383 124.993 55.7043L124.999 55.7043Z" fill="#FBFBFD"/>
<path d="M139.242 53.1569C139.242 53.8619 139.886 54.6049 140.035 53.1569C140.035 52.4518 139.391 51.7088 139.242 53.1569Z" fill="#FBFBFD"/>
<path d="M140.027 28.9114C141.254 24.3777 137.344 28.1381 137.656 25.0828C137.757 23.4072 137.778 15.8485 136.863 19.9804C137.324 24.1199 136.328 25.9167 136.07 28.9114C138.035 28.7674 138.523 26.5232 140.027 28.9114Z" fill="#FBFBFD"/>
<path d="M136.871 54.4306C137.088 54.7869 138.07 53.8165 137.664 53.1569C137.447 52.8006 136.464 53.771 136.871 54.4306Z" fill="#FBFBFD"/>
<path d="M137.662 14.8703C137.696 13.5132 137.289 11.6254 136.869 13.589C136.835 14.9461 137.242 16.8339 137.662 14.8703Z" fill="#FBFBFD"/>
<path d="M123.611 15.3479C123.618 15.1205 123.625 14.8854 123.638 14.658C123.598 14.658 123.55 14.6428 123.509 14.6353L123.367 15.2039C123.448 15.2494 123.53 15.3024 123.618 15.3479L123.611 15.3479Z" fill="#FBFBFD"/>
<path d="M141.621 49.328C141.838 49.6844 142.82 48.714 142.414 48.0544C142.197 47.698 141.214 48.6685 141.621 49.328Z" fill="#FBFBFD"/>
<path d="M143.199 44.2181C142.027 43.134 141.498 41.0036 141.613 37.8345C139.133 38.441 139.526 34.4001 137.656 34.0059C136.809 38.7746 139.621 37.645 139.235 41.6632C138.307 43.5737 138.252 46.8868 136.863 48.0468C136.823 46.7048 135.854 47.0461 136.071 49.3205C136.863 50.2303 139.262 47.9027 140.82 48.0468C140.014 39.6995 142.453 46.5002 143.192 44.2181L143.199 44.2181Z" fill="#FBFBFD"/>
<path d="M140.495 16.8795C140.427 16.8568 140.366 16.8416 140.299 16.8188C140.251 17.0842 140.204 17.3496 140.156 17.6149L140.407 17.6907C140.434 17.4178 140.461 17.1524 140.488 16.8795L140.495 16.8795Z" fill="#FBFBFD"/>
<path d="M99.6959 44.2183C99.0794 44.5064 98.1375 44.2562 98.1172 45.4919C98.727 45.2039 99.6756 45.454 99.6959 44.2183Z" fill="#FBFBFD"/>
<path d="M97.3205 58.2593C95.7621 57.3723 97.517 51.1403 95.7418 50.6021C95.8637 53.7787 94.5018 54.552 94.1562 56.9857C96.2838 56.1062 95.6876 59.624 96.5278 60.8143L98.8993 60.8143C100.146 57.4405 99.7801 56.8492 97.3205 58.2593Z" fill="#FBFBFD"/>
<path d="M99.6953 48.0469C99.6953 48.752 100.339 49.495 100.488 48.0469C100.488 47.3342 99.8444 46.5988 99.6953 48.0469Z" fill="#FBFBFD"/>
<path d="M87.8293 50.6019C84.7124 50.9658 87.9784 56.2273 87.8293 50.6019V50.6019Z" fill="#FBFBFD"/>
<path d="M75.1169 15.7646C74.9949 15.8026 74.8798 15.8404 74.7578 15.8783C74.7849 15.9996 74.812 16.121 74.8391 16.2423C74.9475 16.1816 75.0627 16.1209 75.1711 16.0603C75.1508 15.9617 75.1372 15.8632 75.1169 15.7646Z" fill="#FBFBFD"/>
<path d="M90.9922 60.8139L94.9492 60.8139L94.9492 59.5402C93.9397 57.8041 91.0735 57.569 90.9922 60.8139Z" fill="#FBFBFD"/>
<path d="M91.4375 54.2258L92.1286 54.2258C92.1286 54.1121 92.1422 53.9983 92.1489 53.877L91.4849 53.6875C91.4714 53.8619 91.4578 54.0438 91.4443 54.2182L91.4375 54.2258Z" fill="#FBFBFD"/>
<path d="M76.6193 30.1851C76.1044 29.7074 75.6843 29.3208 75.1016 28.7749C75.1693 29.4497 75.2303 30.0259 75.298 30.7234C75.8198 30.5111 76.1789 30.3594 76.6193 30.1851Z" fill="#FBFBFD"/>
<path d="M126.579 21.2461L125 21.2461L125 23.8011L126.579 23.8011L126.579 21.2461Z" fill="#FBFBFD"/>
<path d="M128.164 60.814L128.957 60.814C128.808 59.3659 128.164 60.1013 128.164 60.814Z" fill="#FBFBFD"/>
<path d="M125 44.2184C126.911 50.784 127.046 39.8287 125 44.2184V44.2184Z" fill="#FBFBFD"/>
<path d="M127.379 28.9111C127.596 29.2674 128.578 28.297 128.172 27.6374C127.955 27.281 126.972 28.2515 127.379 28.9111Z" fill="#FBFBFD"/>
<path d="M126.586 56.9853C127.474 56.8564 127.819 58.8428 128.171 56.9853C128.165 55.6965 126.782 55.378 126.586 56.9853Z" fill="#FBFBFD"/>
<path d="M121.117 17.5239C121.117 17.5846 121.117 17.6452 121.124 17.7059C121.239 17.6907 121.361 17.668 121.476 17.6528C121.476 17.6073 121.476 17.5618 121.476 17.5239L121.117 17.5239Z" fill="#FBFBFD"/>
<path d="M123.423 37.8423C120.76 33.9681 121.024 42.558 123.423 37.8423V37.8423Z" fill="#FBFBFD"/>
<path d="M129.755 35.2871C129.525 36.068 127.79 40.1999 129.755 40.3894C129.985 39.6086 131.72 35.4766 129.755 35.2871Z" fill="#FBFBFD"/>
<path d="M131.33 45.4994C131.296 46.8565 131.703 48.7443 132.123 46.7731C132.157 45.416 131.75 43.5282 131.33 45.4994Z" fill="#FBFBFD"/>
<path d="M134.497 12.3153C134.633 10.8293 135.744 10.9278 136.869 11.0415C137.458 7.11432 134.7 8.59272 135.29 4.65792C136.388 0.791359 137.533 4.97636 138.454 0.829276C137.092 -1.38452 134.741 1.30691 133.711 3.38424C133.406 1.90584 129.869 1.90584 132.126 3.38424C133.4 2.83837 134.782 8.1454 132.918 8.48657C131.014 9.00969 131.197 6.15906 128.968 7.21288C128.792 8.20606 128.304 8.69885 127.383 8.48657C127.01 12.4972 128.372 13.7027 129.754 14.8702C129.89 12.9597 129.47 10.1621 130.547 9.76785C130.513 15.5753 133.515 5.93919 134.504 12.3228L134.497 12.3153Z" fill="#FBFBFD"/>
<path d="M128.164 53.1567C128.333 54.7033 129.045 53.9452 129.743 53.1567C129.736 51.8678 128.354 51.5494 128.164 53.1567Z" fill="#FBFBFD"/>
<path d="M101.987 16.25L101.594 16.3031L101.675 16.7276C101.797 16.6367 101.912 16.5533 102.034 16.4699C102.021 16.4017 102.007 16.3258 101.994 16.2576L101.987 16.25Z" fill="#FBFBFD"/>
<path d="M101.279 50.6021C99.8158 52.8538 101.483 54.552 102.858 55.7044C103.082 52.7931 102.668 50.9053 101.279 50.6021Z" fill="#FBFBFD"/>
<path d="M102.862 56.9856C102.638 59.0478 103.607 59.1842 103.654 60.8142L104.447 60.8142C104.467 59.5709 105.416 59.8211 106.033 59.5406L106.033 56.9856C103.871 57.0993 104.44 54.8628 102.868 56.9856L102.862 56.9856Z" fill="#FBFBFD"/>
<path d="M105.734 15.1434C105.734 15.1964 105.734 15.2419 105.741 15.295L106.06 15.295C106.06 15.2344 106.06 15.1661 106.06 15.1055L105.734 15.151L105.734 15.1434Z" fill="#FBFBFD"/>
<path d="M101.531 20.8672C101.599 20.8747 101.674 20.8899 101.741 20.8975C101.741 20.3592 101.741 19.8133 101.735 19.2751C101.735 19.2447 101.619 19.222 101.531 19.1841L101.531 20.8672Z" fill="#FBFBFD"/>
<path d="M108.457 21.1554C108.023 20.5641 107.691 20.1167 107.359 19.6694C107.527 20.6095 107.892 21.1049 108.457 21.1554Z" fill="#FBFBFD"/>
<path d="M94.1264 19.3357C93.6725 18.6003 93.3743 18.1227 93.0762 17.6526C93.0017 17.7815 92.9271 17.918 92.8594 18.0469C93.0559 18.7595 93.2388 19.4873 94.1332 19.3357L94.1264 19.3357Z" fill="#FBFBFD"/>
<path d="M96.5309 26.3561C96.3141 25.9998 95.3316 26.9702 95.7381 27.6298C95.955 27.9861 96.9375 27.0157 96.5309 26.3561Z" fill="#FBFBFD"/>
<path d="M98.1168 27.63C97.9 27.2737 96.9175 28.2441 97.3241 28.9037C97.5409 29.2601 98.5234 28.2896 98.1168 27.63Z" fill="#FBFBFD"/>
<path d="M93.3672 32.7324C93.3672 33.4375 94.0109 34.1805 94.16 32.7324C94.16 32.0198 93.523 31.2844 93.3672 32.7324Z" fill="#FBFBFD"/>
<path d="M97.5168 21.5343C97.5778 21.4736 97.6456 21.413 97.7065 21.3523C97.6388 21.1552 97.571 20.9581 97.5033 20.7686C97.4423 20.8292 97.3813 20.8823 97.3203 20.9429C97.3881 21.14 97.449 21.3372 97.5168 21.5343Z" fill="#FBFBFD"/>
<path d="M78.3433 22.5273C78.3365 21.2384 76.9543 20.92 76.7578 22.5273C76.9272 24.0663 77.6386 23.3082 78.3433 22.5273Z" fill="#FBFBFD"/>
<path d="M77.5506 18.6989C77.7675 19.0552 78.7499 18.0848 78.3434 17.4252C78.1266 17.0689 77.1441 18.0393 77.5506 18.6989Z" fill="#FBFBFD"/>
<path d="M88.0409 13.9983L87.6953 13.9983C87.6953 14.1348 87.6953 14.2637 87.6953 14.4002C87.8173 14.3547 87.9393 14.3092 88.0612 14.2713C88.0545 14.1803 88.0409 14.0893 88.0341 13.9983L88.0409 13.9983Z" fill="#FBFBFD"/>
<path d="M90.2031 28.9111C91.0907 28.7822 91.4363 30.7686 91.7819 28.9111C91.7751 27.6222 90.3996 27.3038 90.2031 28.9111Z" fill="#FBFBFD"/>
<path d="M87.7829 16.3032C87.7355 16.3032 87.6881 16.3032 87.6406 16.3032L87.6406 18.9264C87.7152 18.9492 87.7964 18.9795 87.871 19.0022C87.8439 18.1 87.81 17.1979 87.7829 16.2881L87.7829 16.3032Z" fill="#FBFBFD"/>
<path d="M80.7188 5.93919C82.0807 10.9733 83.9982 15.1128 86.2545 18.6989C84.9333 13.5965 83.5781 8.56239 80.7188 5.93919Z" fill="#FBFBFD"/>
<path d="M86.3418 57.395C86.5654 57.0917 86.9381 56.8112 86.972 56.4777C87.0262 55.9242 86.8568 55.3252 86.701 54.1729C86.2741 54.9992 85.9556 55.3404 85.9692 55.6588C85.9895 56.2426 86.2063 56.8188 86.3486 57.395L86.3418 57.395Z" fill="#FBFBFD"/>
<path d="M60.1403 46.7731C59.9234 46.4168 58.941 47.3872 59.3475 48.0468C59.5643 48.4031 60.5468 47.4327 60.1403 46.7731Z" fill="#FBFBFD"/>
<path d="M54.609 49.3283C54.3922 48.972 53.4097 49.9424 53.8163 50.602C54.0331 50.9583 55.0156 49.9879 54.609 49.3283Z" fill="#FBFBFD"/>
<path d="M54.5156 37.3112C54.5156 37.3112 54.5698 37.3719 54.6037 37.4098C54.6037 37.3037 54.6172 37.1975 54.624 37.0459C54.5766 37.1596 54.5427 37.2278 54.5156 37.3112Z" fill="#FBFBFD"/>
<path d="M53.8199 42.9445C53.6031 42.5882 52.6206 43.5586 53.0272 44.2182C53.244 44.5745 54.2265 43.6041 53.8199 42.9445Z" fill="#FBFBFD"/>
<path d="M58.4928 44.0059C58.5064 44.0817 58.5267 44.1499 58.5674 44.2181C58.7842 44.5745 59.7667 43.604 59.3601 42.9444C59.2246 42.7246 58.791 43.0203 58.5809 43.4297C58.4996 43.5434 58.4251 43.6571 58.3437 43.7708C58.3912 43.8542 58.4318 43.9376 58.4793 44.021C58.4793 44.021 58.4861 44.0059 58.4928 43.9983L58.4928 44.0059Z" fill="#FBFBFD"/>
<path d="M58.7587 18.3423C58.7249 18.2058 58.691 18.0618 58.6503 17.9253L58.2031 18.3499L58.2912 18.5849C58.4471 18.5015 58.5961 18.4257 58.752 18.3423L58.7587 18.3423Z" fill="#FBFBFD"/>
</svg>
