<svg width="267" height="106" viewBox="0 0 267 106" fill="none" xmlns="http://www.w3.org/2000/svg">
<path d="M83.9219 74.2928C83.7336 74.306 83.5453 74.3324 83.357 74.3455C83.357 74.4377 83.357 74.5167 83.357 74.6088L83.9219 74.6088C83.9219 74.5035 83.9219 74.3982 83.9219 74.2928Z" fill="#FBFBFD"/>
<path d="M193.483 22.1747C197.237 15.4328 189.305 28.2187 193.483 22.1747V22.1747Z" fill="#FBFBFD"/>
<path d="M182.377 69.9606C182.507 69.8948 182.636 69.8289 182.766 69.7631C182.648 69.6446 182.542 69.5392 182.424 69.4207L182.377 69.9475L182.377 69.9606Z" fill="#FBFBFD"/>
<path d="M182.466 26.8755C182.407 26.994 182.348 27.1125 182.29 27.2179L182.819 27.9421C182.913 27.7446 183.007 27.5471 183.102 27.3364C182.89 27.1784 182.678 27.0204 182.454 26.8624L182.466 26.8755Z" fill="#FBFBFD"/>
<path d="M189.363 19.9493C190.423 19.4489 192.07 19.8965 192.117 17.737C191.046 18.2374 189.411 17.7898 189.363 19.9493Z" fill="#FBFBFD"/>
<path d="M191.134 59.1366C190.675 60.0847 190.44 60.5851 190.028 61.441C190.711 61.5727 191.075 61.6386 191.711 61.7571C191.511 60.8353 191.381 60.2427 191.134 59.1366Z" fill="#FBFBFD"/>
<path d="M144.926 29.4564C144.773 29.3379 144.62 29.2326 144.467 29.1141C144.432 29.4564 144.385 29.812 144.349 30.1544C144.443 30.1939 144.549 30.2201 144.644 30.2596C144.738 29.9963 144.832 29.7198 144.938 29.4564L144.926 29.4564Z" fill="#FBFBFD"/>
<path d="M183.031 53.9749C182.843 54.1329 182.619 54.2251 182.619 54.3305C182.619 54.5411 182.725 54.7781 182.937 55.5419C182.984 54.6333 183.008 54.3304 183.031 53.9749Z" fill="#FBFBFD"/>
<path d="M178.368 19.9493C178.744 20.5682 180.451 18.8826 179.745 17.737C179.368 17.1181 177.662 18.8037 178.368 19.9493Z" fill="#FBFBFD"/>
<path d="M181.597 76.1363C181.527 76.1626 181.456 76.189 181.385 76.2021C181.421 76.4655 181.456 76.7288 181.491 76.9922C181.55 76.9658 181.621 76.9527 181.68 76.9263C181.656 76.663 181.621 76.3865 181.597 76.1231L181.597 76.1363Z" fill="#FBFBFD"/>
<path d="M128.617 63.2977C129.464 64.632 130.433 65.0841 131.523 64.6539C130.523 63.8902 129.688 63.245 128.852 62.5998C128.77 62.8368 128.687 63.0607 128.617 63.2977Z" fill="#FBFBFD"/>
<path d="M129.562 47.9835L129.727 48.0493L129.679 47.7465L129.562 47.9835Z" fill="#FBFBFD"/>
<path d="M102.464 30.0489C102.864 29.3379 103.159 28.8375 103.547 28.1528C102.621 28.065 102.26 28.697 102.464 30.0489Z" fill="#FBFBFD"/>
<path d="M98.2522 31.0498C98.2169 30.5757 98.1816 30.0753 98.111 29.2853C97.5814 30.0753 97.3814 30.3782 97.0401 30.8786C97.1696 30.9839 97.2402 31.063 97.3461 31.142C97.8286 35.8429 103.419 43.0983 104.195 39.8853C101.665 37.8312 101.9 31.2868 98.2522 31.0366L98.2522 31.0498Z" fill="#FBFBFD"/>
<path d="M143.07 82.2066C142.988 81.9696 142.906 81.7194 143.07 82.2066V82.2066Z" fill="#FBFBFD"/>
<path d="M134.461 80.3895C134.355 80.3105 134.237 80.2447 134.131 80.1657C133.92 80.5344 133.708 80.9031 133.461 81.3113C133.79 81.5615 133.931 81.6537 134.249 81.9038C134.331 81.3508 134.39 80.8635 134.461 80.3895Z" fill="#FBFBFD"/>
<path d="M142.655 22.1746C149.222 28.3371 145.985 14.906 142.655 22.1746V22.1746Z" fill="#FBFBFD"/>
<path d="M157.768 48.7735C157.709 51.1306 158.415 54.3962 159.145 50.9857C159.204 48.6287 158.498 45.3499 157.768 48.7735Z" fill="#FBFBFD"/>
<path d="M151.945 81.6668C151.745 81.6932 151.533 81.7327 151.333 81.759C151.439 82.2067 151.533 82.6544 151.639 83.0889C151.768 83.0362 151.898 82.9967 152.016 82.9441C151.992 82.5227 151.969 82.0882 151.933 81.6668L151.945 81.6668Z" fill="#FBFBFD"/>
<path d="M157.863 38.5949L157.898 38.3579L157.675 38.4501L157.863 38.5949Z" fill="#FBFBFD"/>
<path d="M149.527 55.4102C149.539 57.6488 151.94 58.2018 152.281 55.4102C150.74 55.6341 150.139 52.1841 149.527 55.4102Z" fill="#FBFBFD"/>
<path d="M152.274 24.3869C152.651 25.0058 154.357 23.3203 153.651 22.1747C153.274 21.5558 151.568 23.2413 152.274 24.3869Z" fill="#FBFBFD"/>
<path d="M147.898 54.0935C147.675 54.133 147.545 54.1725 147.898 54.0935V54.0935Z" fill="#FBFBFD"/>
<path d="M148.527 48.6551C148.35 48.7209 148.174 48.7867 147.997 48.8658C148.068 49.3266 148.139 49.7876 148.209 50.2353C148.35 50.1958 148.492 50.1694 148.633 50.1431C148.598 49.6427 148.562 49.1555 148.527 48.6551Z" fill="#FBFBFD"/>
<path d="M147.898 54.0934C147.675 54.055 147.545 54.0422 147.898 54.0934V54.0934Z" fill="#FBFBFD"/>
<path d="M142.476 78.8489C142.476 78.941 142.511 79.0332 142.535 79.1122C142.582 79.0859 142.664 79.0596 142.664 79.0201C142.664 78.9279 142.64 78.8489 142.617 78.7567C142.57 78.783 142.476 78.8094 142.476 78.8357L142.476 78.8489Z" fill="#FBFBFD"/>
<path d="M159.625 68.7492C159.425 68.4859 159.237 68.2225 159.037 67.9723L158.672 68.6175C158.931 68.8018 159.19 68.9731 159.448 69.1574C159.507 69.0257 159.554 68.8809 159.613 68.7492L159.625 68.7492Z" fill="#FBFBFD"/>
<path d="M158.546 80.7845C158.651 80.745 158.769 80.7187 158.875 80.6792C158.828 80.2974 158.781 79.9286 158.722 79.5467C158.604 79.5862 158.475 79.6258 158.357 79.6653C158.416 80.034 158.475 80.4026 158.546 80.7845Z" fill="#FBFBFD"/>
<path d="M154.039 59.2948C153.945 59.5054 153.874 59.6371 153.827 59.782C153.827 59.8083 153.921 59.9004 153.98 59.9662C154.004 59.7687 154.015 59.5713 154.039 59.2816L154.039 59.2948Z" fill="#FBFBFD"/>
<path d="M7.9426 32.2216C7.14235 31.6423 6.17734 31.5238 4.77691 31.0366C4.12965 31.6028 2.64685 32.169 2.50563 33.1434C2.15258 35.5004 3.68247 35.9087 5.01229 36.1983C5.70662 36.3432 6.48333 36.9358 7.05997 36.6593C7.9426 36.2379 8.6958 35.2635 9.50781 34.5129C8.99 33.736 8.57809 32.6957 7.9426 32.2348L7.9426 32.2216Z" fill="#FBFBFD"/>
<path d="M9.40427 26.599L13.5232 26.599L13.5232 19.9493L10.7812 19.9493C10.7106 22.7804 9.01591 23.0174 9.40427 26.599Z" fill="#FBFBFD"/>
<path d="M26.844 83.7342C26.338 83.879 25.9732 83.9843 25.1847 84.2082C25.879 84.9588 26.2673 85.3669 26.844 85.999L26.844 83.7342Z" fill="#FBFBFD"/>
<path d="M49.2578 86.4468C47.7162 86.6706 47.116 83.2207 46.5158 86.4468C46.5275 88.6853 48.9165 89.2384 49.2578 86.4468Z" fill="#FBFBFD"/>
<path d="M164.875 77.6506C164.875 77.6506 164.757 77.6637 164.71 77.6769C164.71 77.7954 164.722 77.914 164.734 78.0325C164.781 78.0325 164.875 78.0325 164.875 78.0193C164.875 77.9008 164.875 77.7822 164.875 77.6506Z" fill="#FBFBFD"/>
<path d="M162.616 73.4501C162.699 73.4501 162.781 73.4501 162.852 73.4501L162.852 72.3308C162.769 72.3308 162.687 72.3308 162.616 72.3308L162.616 73.4501Z" fill="#FBFBFD"/>
<path d="M162.217 54.1856C162.405 54.1856 162.593 54.2119 162.781 54.225C162.781 54.146 162.781 54.067 162.781 54.0012C162.593 53.988 162.405 53.9748 162.217 53.9617C162.217 54.0407 162.217 54.1197 162.217 54.1987L162.217 54.1856Z" fill="#FBFBFD"/>
<path d="M162.855 83.3918C162.891 83.1548 162.914 83.0363 162.938 82.9046C162.891 82.9309 162.82 82.9441 162.82 82.9836C162.82 83.0758 162.832 83.1811 162.867 83.3918L162.855 83.3918Z" fill="#FBFBFD"/>
<path d="M159.141 -1.4782e-05L157.764 -1.46616e-05C158.023 2.51504 159.141 1.23776 159.141 -1.4782e-05Z" fill="#FBFBFD"/>
<path d="M154.086 3.4368C154.086 3.31829 154.074 3.21293 154.062 3.09442L153.474 3.22615C153.474 3.29199 153.474 3.35778 153.486 3.42362L154.086 3.42362L154.086 3.4368Z" fill="#FBFBFD"/>
<path d="M138.539 -1.4782e-05L137.162 -1.46616e-05C137.421 2.51504 138.539 1.23776 138.539 -1.4782e-05Z" fill="#FBFBFD"/>
<path d="M170.137 15.5248C170.36 12.9439 169.831 11.5877 168.76 11.0873C169.689 6.24153 173.326 15.2878 174.256 17.737C175.868 17.3815 175.421 13.6945 175.632 11.0873C179.657 10.5079 179.857 16.1042 183.87 15.5248C184.188 19.4488 182.482 26.6254 186.612 24.3868C190.79 21.6611 185.118 16.7626 186.612 11.0873C190.237 8.45372 190.155 21.74 190.731 11.0873C192.344 14.4056 196.439 13.6946 196.227 19.9493C197.981 19.4489 198.028 13.339 196.227 13.2995C197.192 10.4552 204.124 14.9323 204.465 11.0873C206.466 12.0749 204.324 13.0361 204.465 15.5248C206.701 15.3931 212.185 4.5692 212.715 15.5248C215.515 13.9315 218.151 8.57223 220.952 13.3126C224.248 14.1949 220.187 3.21294 225.071 6.66291C225.33 8.54591 224.542 8.75658 223.694 8.8751C228.449 17.5263 232.615 7.59783 236.063 2.22536C238.911 3.23928 238.77 5.51728 238.228 8.44053C238.205 8.44053 238.193 8.44055 238.169 8.45371C238.181 8.48005 238.193 8.50638 238.217 8.53272C237.946 9.99435 237.581 11.6008 237.452 13.3126C240.005 13.0098 242.041 11.851 242.947 8.87509C245.23 10.0997 243.842 12.6938 243.253 15.301L243.147 15.3405L243.23 15.4195C242.877 17.0655 242.853 18.6983 244.324 19.9756C246.36 19.0143 243.783 17.1445 244.324 13.3258C247.078 14.0764 248.62 12.865 248.443 8.88827C250.503 15.9199 256.328 -0.526725 256.681 11.1005C258.082 8.94093 259.458 6.71559 260.8 4.45072C262.142 4.51656 261.859 7.16329 262.177 8.88827C263.919 1.90933 266.825 10.6528 266.296 0.0263557L262.177 0.0263561C262.165 2.26489 259.776 2.81793 259.435 0.0263563L241.582 0.0263579C241.888 3.79235 240.029 5.50417 240.205 0.026358L229.214 0.026359C229.19 2.93645 225.401 2.85744 225.095 0.0263594L209.984 0.0263607C209.972 2.26489 207.572 2.81794 207.23 0.0263609L200.358 0.0263615C200.334 2.93645 196.545 2.85744 196.239 0.0263619L189.366 0.0263625C189.366 1.26414 188.26 2.54142 187.989 0.0263626L179.751 0.0263633C179.351 5.20131 176.033 5.20132 175.632 0.0263637L172.89 0.0263639L172.89 6.6761C171.208 6.42591 169.642 6.01771 170.137 2.23855C168.536 5.57 166.171 7.66367 166.018 13.3258C162.146 11.0873 166.394 3.91087 166.018 0.0263645L163.276 0.0263648C162.522 3.25248 164.876 11.4823 161.899 11.1136C157.321 12.6411 159.686 6.53126 160.522 4.46391C158.827 5.42517 157.697 7.29498 157.768 11.1136C162.487 14.8533 163.735 19.2645 170.125 15.5512L170.137 15.5248Z" fill="#FBFBFD"/>
<path d="M227.826 6.64974C228.544 7.79534 226.837 9.48081 226.449 8.86192C225.731 7.71632 227.437 6.03085 227.826 6.64974Z" fill="#FBFBFD"/>
<path d="M150.909 15.5249C154.31 15.8541 157.569 15.9462 157.781 11.0873C155.981 8.82246 152.721 8.91464 150.909 6.64977C147.496 6.97897 150.508 14.1555 150.909 15.5118L150.909 15.5249Z" fill="#FBFBFD"/>
<path d="M144.034 11.0873C147.576 10.5606 142.151 7.26866 144.034 2.22539C144.975 3.93721 152.213 7.9929 150.895 0.0132055L142.657 0.0132063C142.869 6.99215 134.996 0.9481 137.161 11.1005C137.491 17.6844 142.269 2.21221 144.034 11.1005L144.034 11.0873Z" fill="#FBFBFD"/>
<path d="M71.8125 66.2209C71.7772 65.8917 71.7419 65.5494 71.7066 65.2202C71.5771 65.2466 71.4594 65.286 71.33 65.3123C71.377 65.6415 71.4242 65.9707 71.4595 66.3131C71.5771 66.2868 71.6948 66.2473 71.8125 66.2209Z" fill="#FBFBFD"/>
<path d="M67.1016 13.9578C67.078 13.7998 67.0427 13.6418 67.0192 13.4838L66.2895 13.734C66.3131 13.892 66.3366 14.05 66.3602 14.208C66.6073 14.129 66.8544 14.05 67.0898 13.971L67.1016 13.9578Z" fill="#FBFBFD"/>
<path d="M117.936 4.43758C116.983 12.8123 116.135 15.1957 117.936 22.1747C126.774 22.8594 129.528 20.1468 135.788 13.3127C136.471 6.33373 132.799 4.64828 135.788 0.0132084L134.412 0.0132085C134.117 2.50193 132.882 3.46317 131.658 4.45075C131.658 2.22539 132.776 1.8172 133.035 0.0132086L127.315 0.0132091C127.398 0.223895 127.492 0.421372 127.574 0.632058C127.574 0.605723 127.598 0.57939 127.609 0.553054C127.951 4.22687 131.246 3.12079 130.293 8.87512C125.997 6.45224 125.903 6.61024 126.174 15.5249C122.549 18.1716 122.631 4.87209 122.055 15.5249C116.724 12.7728 122.949 4.20057 117.936 0.01321L115.182 0.0132102C115.794 1.98838 116.394 3.97671 117.936 4.45076L117.936 4.43758Z" fill="#FBFBFD"/>
<path d="M112.437 7.25985e-05L109.684 7.28392e-05C110.025 2.79165 112.414 2.2386 112.437 7.25985e-05Z" fill="#FBFBFD"/>
<path d="M109.789 2.92324C109.707 2.56771 109.636 2.21218 109.554 1.85665C109.448 1.89615 109.342 1.94887 109.224 1.98838C109.295 2.34391 109.377 2.69945 109.448 3.06815C109.565 3.01547 109.671 2.97591 109.789 2.92324Z" fill="#FBFBFD"/>
<path d="M124.805 4.43754C124.793 2.19902 122.392 1.64597 122.051 4.43754C123.593 4.21369 124.193 7.66366 124.805 4.43754Z" fill="#FBFBFD"/>
<path d="M102.822 13.2994C102.41 17.658 104.681 17.6975 105.564 19.9492C105.258 22.7408 103.422 24.4789 106.941 24.3868C105.905 16.0647 112.19 19.5541 112.437 13.3126C108.459 12.0748 114.543 9.84947 113.814 6.66286C107.235 5.72794 108.906 19.4225 102.822 13.3126L102.822 13.2994Z" fill="#FBFBFD"/>
<path d="M81.3127 47.8387C81.2068 47.8124 81.1009 47.7728 80.9361 47.7333C81.0538 47.865 81.1244 47.9571 81.2068 48.023C81.2186 48.023 81.2774 47.9045 81.3127 47.8387Z" fill="#FBFBFD"/>
<path d="M36.89 17.737C37.196 10.6001 34.4657 8.36158 35.5131 2.11033e-05L31.3942 2.14634e-05C33.3595 5.68852 33.6772 14.0369 36.89 17.737Z" fill="#FBFBFD"/>
<path d="M1.16891 24.3868C6.88833 24.7424 3.91096 11.0873 8.02988 8.8751C8.3594 12.7728 10.3953 13.9315 13.5257 13.3126C12.4665 3.48946 19.2569 6.3074 20.3984 0.0131855L2.53408 0.0131871C3.1225 3.48949 6.85309 1.90933 5.27613 8.8751C3.47557 6.2152 3.11075 8.00603 1.1572 8.8751C2.28697 16.8285 -1.93787 19.5937 1.15721 24.3868L1.16891 24.3868Z" fill="#FBFBFD"/>
<path d="M17.6513 11.0873C17.9102 12.8781 19.0282 13.2995 19.0282 15.5248C21.8644 11.9827 20.9935 2.4492 25.9009 2.22535L25.9009 8.87508C27.5956 8.46688 28.3252 1.11922 28.5841 6.96573C28.49 6.84722 28.3958 6.74194 28.337 6.62343C28.1252 7.16332 27.9015 7.70315 27.5956 8.46688C27.8427 8.71707 28.0545 8.94095 28.2664 9.15163C28.3723 8.92778 28.5135 8.7171 28.6312 8.49324C28.6312 8.62492 28.6312 8.73023 28.6312 8.87508C32.6324 6.95258 30.1728 5.55682 30.0081 0.0131646L21.7584 0.0131653C23.2177 8.26939 18.8634 7.16327 17.6395 11.1004L17.6513 11.0873Z" fill="#FBFBFD"/>
<path d="M39.6286 8.87516C39.7463 2.83113 37.3455 4.41129 39.6286 0.0132418L36.8865 0.013242C37.2043 3.93725 35.4979 11.1137 39.6286 8.87516Z" fill="#FBFBFD"/>
<path d="M57.375 70.0132C57.0337 70.7243 56.9396 70.9218 56.8454 71.1062C56.9513 71.2115 57.069 71.3169 57.175 71.4222C57.2103 71.1457 57.2455 70.8692 57.3632 70.0132L57.375 70.0132Z" fill="#FBFBFD"/>
<path d="M49.2572 8.87508C49.8691 5.64896 50.4575 9.09893 52.0109 8.87508C51.8344 4.8984 53.6938 4.20053 53.3878 0.0131626L49.2689 0.013163C50.5869 4.14786 45.1499 7.42662 49.2689 8.87508L49.2572 8.87508Z" fill="#FBFBFD"/>
<path d="M24.5234 13.2995C24.5234 12.0749 23.4055 10.7844 23.1466 13.2995C23.1466 14.5241 24.2645 15.8145 24.5234 13.2995Z" fill="#FBFBFD"/>
<path d="M23.1508 55.4102C21.0207 63.2845 27.811 56.7533 27.2697 62.0599C27.0932 64.97 27.0578 78.0983 28.6466 70.9218C27.8463 63.7322 29.5762 60.6115 30.0234 55.4102C26.6106 55.6604 25.7633 59.558 23.1508 55.4102Z" fill="#FBFBFD"/>
<path d="M28.6432 11.0873C28.2666 10.4684 26.5602 12.1539 27.2663 13.2995C27.6429 13.9184 29.3493 12.2329 28.6432 11.0873Z" fill="#FBFBFD"/>
<path d="M27.2681 79.7969C27.2093 82.1539 27.9154 85.4327 28.645 82.0223C28.7038 79.6652 27.9978 76.3864 27.2681 79.7969Z" fill="#FBFBFD"/>
<path d="M51.6701 78.9674C51.6583 79.3624 51.6465 79.7706 51.623 80.1657C51.6936 80.1657 51.776 80.192 51.8466 80.2051L52.0937 79.2176C51.9525 79.1385 51.8113 79.0464 51.6583 78.9674L51.6701 78.9674Z" fill="#FBFBFD"/>
<path d="M20.3932 19.9493C20.0166 19.3304 18.3102 21.0159 19.0163 22.1615C19.3929 22.7803 21.0993 21.0949 20.3932 19.9493Z" fill="#FBFBFD"/>
<path d="M17.6507 28.8244C19.6867 30.7074 20.6046 34.4075 20.4046 39.9116C24.7118 38.8582 24.0292 45.8766 27.2772 46.5614C28.7483 38.2788 23.8645 40.2409 24.5353 33.2619C26.1475 29.9436 26.2417 24.1893 28.6542 22.1746C28.7248 24.5053 30.4077 23.9127 30.0311 19.9624C28.6542 18.3822 24.4882 22.4248 21.7814 22.1746C23.1819 36.6724 18.9453 24.8608 17.6625 28.8244L17.6507 28.8244Z" fill="#FBFBFD"/>
<path d="M22.3491 76.3075C22.4668 76.347 22.5727 76.3734 22.6904 76.4129C22.7728 75.952 22.8551 75.4911 22.9375 75.0302L22.5021 74.8985C22.455 75.3726 22.4079 75.8335 22.3609 76.3075L22.3491 76.3075Z" fill="#FBFBFD"/>
<path d="M93.2033 28.8244C94.2742 28.324 95.91 28.7586 95.9453 26.6122C94.8862 27.1126 93.2386 26.678 93.2033 28.8244Z" fill="#FBFBFD"/>
<path d="M97.3323 4.43754C100.039 5.97817 96.9911 16.8021 100.074 17.737C99.8625 12.2197 102.228 10.8766 102.828 6.64972C99.1329 8.17719 100.168 2.06734 98.7092 -9.17666e-06L94.5903 -8.81657e-06C92.4249 5.85967 93.0604 6.88675 97.3323 4.43754Z" fill="#FBFBFD"/>
<path d="M93.2109 22.1746C93.2109 20.95 92.093 19.6595 91.8341 22.1746C91.8341 23.4124 92.952 24.6896 93.2109 22.1746Z" fill="#FBFBFD"/>
<path d="M113.815 17.737C119.228 17.1049 113.556 7.96648 113.815 17.737V17.737Z" fill="#FBFBFD"/>
<path d="M135.892 78.2431C136.104 78.1773 136.304 78.1115 136.516 78.0457C136.469 77.835 136.421 77.6242 136.374 77.4136C136.186 77.5189 135.986 77.6243 135.798 77.7296C135.833 77.9008 135.857 78.072 135.892 78.2431Z" fill="#FBFBFD"/>
<path d="M108.32 5.81741e-05L101.448 5.8775e-05L101.448 2.21224C103.201 5.22767 108.179 5.63588 108.32 5.81741e-05Z" fill="#FBFBFD"/>
<path d="M107.547 11.4428L106.346 11.4428C106.346 11.6403 106.323 11.8379 106.311 12.0486L107.464 12.3777C107.488 12.0749 107.512 11.7588 107.535 11.456L107.547 11.4428Z" fill="#FBFBFD"/>
<path d="M133.278 53.198C134.172 54.0276 134.902 54.6991 135.914 55.6472C135.796 54.4753 135.69 53.4745 135.573 52.2631C134.667 52.6318 134.043 52.8952 133.278 53.198Z" fill="#FBFBFD"/>
<path d="M46.5158 68.7228L49.2578 68.7228L49.2578 64.2853L46.5158 64.2853L46.5158 68.7228Z" fill="#FBFBFD"/>
<path d="M43.7578 -1.4782e-05L42.3809 -1.46616e-05C42.6398 2.51504 43.7578 1.23776 43.7578 -1.4782e-05Z" fill="#FBFBFD"/>
<path d="M49.2578 28.8244C45.9391 17.4211 45.7038 36.4486 49.2578 28.8244V28.8244Z" fill="#FBFBFD"/>
<path d="M45.1275 55.4102C44.7509 54.7913 43.0445 56.4768 43.7506 57.6224C44.1272 58.2413 45.8336 56.5558 45.1275 55.4102Z" fill="#FBFBFD"/>
<path d="M46.5 6.64979C44.9583 6.87364 44.3582 3.42368 43.7462 6.64979C43.758 8.88832 46.1587 9.44137 46.5 6.64979Z" fill="#FBFBFD"/>
<path d="M55.9922 75.1882C55.9922 75.0828 55.9922 74.9775 55.9804 74.8722C55.7803 74.8985 55.5685 74.938 55.3684 74.9643C55.3684 75.0433 55.3684 75.1223 55.3684 75.1882L55.9922 75.1882Z" fill="#FBFBFD"/>
<path d="M51.998 39.8985C56.623 46.6272 56.164 31.7081 51.998 39.8985V39.8985Z" fill="#FBFBFD"/>
<path d="M40.9997 44.336C41.3998 42.9797 44.4125 35.8033 40.9997 35.4741C40.5995 36.8304 37.5868 44.0068 40.9997 44.336Z" fill="#FBFBFD"/>
<path d="M38.2544 26.599C38.3132 24.242 37.6071 20.9632 36.8775 24.3868C36.8187 26.7439 37.5247 30.0226 38.2544 26.599Z" fill="#FBFBFD"/>
<path d="M32.7615 84.2345C32.5261 86.8154 30.5961 86.6443 28.6425 86.4467C27.6187 93.2677 32.4084 90.6999 31.3846 97.534C29.4781 104.25 27.4892 96.9809 25.8887 104.184C28.2542 108.029 32.3378 103.354 34.1266 99.7462C34.6561 102.314 40.7993 102.314 36.8804 99.7462C34.6679 100.694 32.2672 91.4768 35.5035 90.8843C38.8104 89.9757 38.4926 94.9268 42.3644 93.0965C42.6704 91.3715 43.5177 90.5156 45.1182 90.8843C45.7655 83.9185 43.4001 81.8248 40.9993 79.7969C40.764 83.1152 41.4936 87.9742 39.6224 88.6589C39.6813 78.5724 34.4679 95.3087 32.7497 84.2214L32.7615 84.2345Z" fill="#FBFBFD"/>
<path d="M43.7578 13.2995C43.4636 10.6133 42.228 11.9301 41.0158 13.2995C41.0276 15.538 43.4283 16.0911 43.7578 13.2995Z" fill="#FBFBFD"/>
<path d="M89.2237 77.4005L89.9062 77.3083L89.765 76.5709C89.5532 76.7289 89.3531 76.8737 89.1413 77.0186C89.1648 77.1371 89.1883 77.2688 89.2119 77.3873L89.2237 77.4005Z" fill="#FBFBFD"/>
<path d="M90.4581 17.737C93.0001 13.8262 90.1051 10.8766 87.7161 8.87512C87.3278 13.9316 88.0456 17.2103 90.4581 17.737Z" fill="#FBFBFD"/>
<path d="M87.7075 6.64978C88.0959 3.06813 86.413 2.83113 86.3306 4.97165e-05L84.9537 4.98369e-05C84.9184 2.15957 83.2709 1.72502 82.2 2.21223L82.2 6.64978C85.9541 6.45226 84.9655 10.3368 87.6958 6.64978L87.7075 6.64978Z" fill="#FBFBFD"/>
<path d="M82.7187 79.3229C82.7187 79.2308 82.7187 79.1517 82.707 79.0596L82.1538 79.0596C82.1538 79.1649 82.1538 79.2834 82.1538 79.3888L82.7187 79.3098L82.7187 79.3229Z" fill="#FBFBFD"/>
<path d="M90.0156 69.3812C89.8979 69.3681 89.7685 69.3418 89.6508 69.3286C89.6508 70.2635 89.6508 71.2115 89.6626 72.1464C89.6626 72.1991 89.8626 72.2386 90.0156 72.3044L90.0156 69.3812Z" fill="#FBFBFD"/>
<path d="M77.9842 68.8809C78.7373 69.908 79.314 70.6849 79.8906 71.4618C79.6003 69.829 78.9649 68.9687 77.9842 68.8809Z" fill="#FBFBFD"/>
<path d="M102.877 72.0412C103.666 73.3184 104.184 74.148 104.702 74.9644C104.831 74.7405 104.96 74.5035 105.078 74.2796C104.737 73.0419 104.419 71.7778 102.866 72.0412L102.877 72.0412Z" fill="#FBFBFD"/>
<path d="M98.7037 59.8477C99.0803 60.4666 100.787 58.7812 100.081 57.6356C99.7041 57.0167 97.9976 58.7021 98.7037 59.8477Z" fill="#FBFBFD"/>
<path d="M95.946 57.6356C96.3225 58.2545 98.0289 56.569 97.3228 55.4234C96.9463 54.8045 95.2399 56.49 95.946 57.6356Z" fill="#FBFBFD"/>
<path d="M104.195 48.7735C104.195 47.5489 103.077 46.2584 102.818 48.7735C102.818 50.0113 103.925 51.2885 104.195 48.7735Z" fill="#FBFBFD"/>
<path d="M96.9869 68.2225C96.881 68.3278 96.7632 68.4331 96.6573 68.5385C96.775 68.8808 96.8927 69.2232 97.0104 69.5524C97.1163 69.4471 97.2222 69.3549 97.3281 69.2496C97.2104 68.9072 97.1046 68.5648 96.9869 68.2225Z" fill="#FBFBFD"/>
<path d="M130.285 66.4975C130.297 68.736 132.698 69.2891 133.039 66.4975C132.745 63.8244 131.509 65.1412 130.285 66.4975Z" fill="#FBFBFD"/>
<path d="M131.667 73.1472C131.29 72.5284 129.584 74.2138 130.29 75.3594C130.666 75.9783 132.373 74.2928 131.667 73.1472Z" fill="#FBFBFD"/>
<path d="M113.447 81.3112L114.047 81.3112C114.047 81.0742 114.047 80.8503 114.047 80.6133C113.835 80.6923 113.623 80.7714 113.411 80.8372C113.423 80.9952 113.447 81.1532 113.458 81.3112L113.447 81.3112Z" fill="#FBFBFD"/>
<path d="M109.695 55.4102C108.154 55.6341 107.553 52.1841 106.953 55.4102C106.965 57.6488 109.354 58.2018 109.695 55.4102Z" fill="#FBFBFD"/>
<path d="M113.901 77.3083C113.984 77.3083 114.066 77.3083 114.148 77.3083L114.148 72.7522C114.019 72.7127 113.878 72.66 113.748 72.6205C113.795 74.1875 113.854 75.7544 113.901 77.3345L113.901 77.3083Z" fill="#FBFBFD"/>
<path d="M126.164 95.3087C123.799 86.5652 120.468 79.3756 116.549 73.1472C118.844 82.0091 121.198 90.7526 126.164 95.3087Z" fill="#FBFBFD"/>
<path d="M116.391 5.93868C116.003 6.46539 115.355 6.95255 115.297 7.53194C115.202 8.49319 115.497 9.5335 115.767 11.535C116.509 10.0997 117.062 9.50713 117.038 8.95408C117.003 7.94016 116.626 6.93944 116.379 5.93868L116.391 5.93868Z" fill="#FBFBFD"/>
<path d="M161.899 24.3869C162.276 25.0058 163.982 23.3203 163.276 22.1747C162.899 21.5558 161.193 23.2413 161.899 24.3869Z" fill="#FBFBFD"/>
<path d="M171.516 19.9493C171.893 20.5682 173.599 18.8826 172.893 17.737C172.517 17.1181 170.81 18.8037 171.516 19.9493Z" fill="#FBFBFD"/>
<path d="M171.672 40.8203C171.672 40.8203 171.578 40.7149 171.519 40.6491C171.519 40.8334 171.495 41.0177 171.484 41.2811C171.566 41.0836 171.625 40.9651 171.672 40.8203Z" fill="#FBFBFD"/>
<path d="M172.883 31.0366C173.26 31.6555 174.966 29.97 174.26 28.8244C173.884 28.2055 172.177 29.891 172.883 31.0366Z" fill="#FBFBFD"/>
<path d="M164.772 29.1931C164.749 29.0614 164.713 28.9429 164.643 28.8244C164.266 28.2055 162.56 29.891 163.266 31.0366C163.501 31.4185 164.254 30.9049 164.619 30.1939C164.761 29.9963 164.89 29.7988 165.031 29.6013C164.949 29.4564 164.878 29.3116 164.796 29.1668C164.796 29.1668 164.784 29.1931 164.772 29.2063L164.772 29.1931Z" fill="#FBFBFD"/>
<path d="M164.308 73.7661C164.367 74.0032 164.426 74.2533 164.497 74.4904L165.273 73.753L165.12 73.3448C164.85 73.4896 164.591 73.6213 164.32 73.7661L164.308 73.7661Z" fill="#FBFBFD"/>
</svg>
