<svg width="562" height="256" viewBox="0 0 562 256" fill="none" xmlns="http://www.w3.org/2000/svg">
<path d="M561.314 1.88149C561.248 1.05565 560.526 0.439237 559.7 0.504689C558.874 0.570141 558.258 1.29267 558.323 2.11851L561.314 1.88149ZM414.048 99.7827L414.211 98.2915L414.163 98.2863L414.115 98.2842L414.048 99.7827ZM166.283 162.005L164.792 161.837L164.785 161.896L164.783 161.955L166.283 162.005ZM198.322 150.524L199.58 149.707L198.322 150.524ZM12.0685 255.675C12.7174 256.19 13.6609 256.081 14.1759 255.433L22.569 244.859C23.084 244.21 22.9755 243.266 22.3267 242.751C21.6778 242.236 20.7343 242.345 20.2192 242.994L12.7588 252.393L3.35976 244.932C2.7109 244.417 1.76737 244.526 1.25233 245.174C0.737286 245.823 0.845773 246.767 1.49464 247.282L12.0685 255.675ZM14.1624 251.239C14.0817 250.415 13.348 249.812 12.5235 249.893C11.699 249.973 11.096 250.707 11.1767 251.532L14.1624 251.239ZM10.6807 245.372C10.7327 246.199 11.4451 246.827 12.2719 246.775C13.0987 246.723 13.7268 246.011 13.6748 245.184L10.6807 245.372ZM13.4055 239.162C13.3839 238.333 12.6949 237.68 11.8668 237.701C11.0386 237.723 10.3849 238.412 10.4066 239.24L13.4055 239.162ZM10.3648 233.039C10.3539 233.867 11.0167 234.548 11.845 234.559C12.6734 234.569 13.3537 233.907 13.3645 233.078L10.3648 233.039ZM13.5664 227.061C13.6114 226.234 12.9773 225.527 12.1501 225.482C11.3229 225.437 10.6158 226.071 10.5708 226.898L13.5664 227.061ZM11.0429 220.715C10.9614 221.539 11.5638 222.273 12.3882 222.355C13.2126 222.436 13.9469 221.834 14.0283 221.009L11.0429 220.715ZM14.7586 215.023C14.8781 214.204 14.3105 213.442 13.4907 213.323C12.671 213.203 11.9095 213.771 11.79 214.591L14.7586 215.023ZM12.8301 208.496C12.6706 209.309 13.2004 210.097 14.0133 210.256C14.8263 210.416 15.6145 209.886 15.774 209.073L12.8301 208.496ZM17.0891 203.169C17.2901 202.366 16.8016 201.551 15.9979 201.35C15.1942 201.149 14.3798 201.638 14.1787 202.441L17.0891 203.169ZM15.8295 196.514C15.5859 197.305 16.0303 198.145 16.8222 198.388C17.614 198.632 18.4533 198.188 18.6969 197.396L15.8295 196.514ZM20.642 191.649C20.9297 190.872 20.533 190.009 19.7562 189.721C18.9793 189.434 18.1163 189.83 17.8287 190.607L20.642 191.649ZM20.1373 184.88C19.8055 185.639 20.1519 186.523 20.911 186.855C21.6701 187.187 22.5544 186.841 22.8862 186.081L20.1373 184.88ZM25.4641 180.628C25.8402 179.89 25.5468 178.987 24.8088 178.611C24.0707 178.234 23.1674 178.528 22.7912 179.266L25.4641 180.628ZM25.7768 173.82C25.3567 174.534 25.595 175.454 26.309 175.874C27.023 176.294 27.9424 176.055 28.3625 175.341L25.7768 173.82ZM31.561 170.265C32.0237 169.578 31.8419 168.645 31.1547 168.183C30.4676 167.72 29.5354 167.902 29.0727 168.589L31.561 170.265ZM32.7041 163.539C32.2 164.197 32.3242 165.138 32.9815 165.643C33.6389 166.147 34.5805 166.022 35.0846 165.365L32.7041 163.539ZM38.8944 160.701C39.4378 160.076 39.3715 159.128 38.7463 158.585C38.121 158.041 37.1736 158.108 36.6301 158.733L38.8944 160.701ZM40.8329 154.184C40.2526 154.775 40.2614 155.725 40.8526 156.305C41.4438 156.886 42.3935 156.877 42.9738 156.286L40.8329 154.184ZM47.3261 152.111C47.9408 151.555 47.9889 150.607 47.4335 149.992C46.8781 149.377 45.9296 149.329 45.3149 149.885L47.3261 152.111ZM50.0378 145.863C49.3917 146.382 49.288 147.326 49.8064 147.972C50.3248 148.618 51.2689 148.722 51.9151 148.204L50.0378 145.863ZM56.7201 144.571C57.3949 144.09 57.5523 143.154 57.0717 142.479C56.5912 141.804 55.6546 141.647 54.9798 142.127L56.7201 144.571ZM60.1284 138.674C59.4278 139.116 59.2184 140.042 59.6606 140.743C60.1028 141.443 61.0292 141.653 61.7297 141.21L60.1284 138.674ZM66.919 138.129C67.6424 137.726 67.9018 136.812 67.4982 136.089C67.0946 135.365 66.1809 135.106 65.4575 135.509L66.919 138.129ZM70.9431 132.637C70.1993 133.002 69.8923 133.9 70.2573 134.644C70.6222 135.388 71.521 135.695 72.2647 135.33L70.9431 132.637ZM77.7507 132.811C78.5121 132.484 78.8647 131.602 78.5383 130.841C78.2119 130.08 77.33 129.727 76.5686 130.053L77.7507 132.811ZM82.3197 127.756C81.543 128.044 81.1469 128.908 81.435 129.684C81.7231 130.461 82.5863 130.857 83.363 130.569L82.3197 127.756ZM89.078 128.606C89.8678 128.356 90.3053 127.513 90.0553 126.724C89.8052 125.934 88.9623 125.496 88.1725 125.746L89.078 128.606ZM94.1087 124.021C93.308 124.234 92.8308 125.055 93.0431 125.856C93.2553 126.656 94.0765 127.134 94.8773 126.921L94.1087 124.021ZM100.761 125.509C101.57 125.335 102.085 124.537 101.911 123.727C101.736 122.917 100.938 122.402 100.129 122.576L100.761 125.509ZM106.206 121.413C105.389 121.55 104.838 122.323 104.975 123.141C105.111 123.958 105.885 124.509 106.702 124.372L106.206 121.413ZM112.683 123.511C113.505 123.411 114.092 122.664 113.992 121.842C113.893 121.019 113.146 120.433 112.323 120.532L112.683 123.511ZM118.477 119.933C117.651 119.994 117.031 120.714 117.092 121.54C117.154 122.366 117.873 122.986 118.699 122.925L118.477 119.933ZM124.746 122.616C125.574 122.594 126.227 121.904 126.204 121.076C126.181 120.247 125.491 119.595 124.663 119.618L124.746 122.616ZM130.85 119.592C130.022 119.576 129.337 120.234 129.321 121.062C129.305 121.891 129.963 122.575 130.792 122.591L130.85 119.592ZM136.819 122.854C137.646 122.91 138.361 122.285 138.417 121.459C138.473 120.632 137.849 119.917 137.022 119.861L136.819 122.854ZM143.189 120.434C142.366 120.336 141.621 120.924 141.523 121.747C141.426 122.57 142.014 123.315 142.836 123.413L143.189 120.434ZM148.821 124.281C149.638 124.421 150.414 123.873 150.554 123.057C150.695 122.24 150.147 121.465 149.33 121.324L148.821 124.281ZM155.411 122.544C154.603 122.358 153.798 122.862 153.613 123.669C153.427 124.477 153.931 125.282 154.738 125.467L155.411 122.544ZM160.562 126.988C161.357 127.221 162.191 126.766 162.424 125.971C162.657 125.176 162.202 124.342 161.407 124.109L160.562 126.988ZM167.295 126.042C166.517 125.758 165.655 126.159 165.372 126.937C165.088 127.715 165.488 128.576 166.267 128.86L167.295 126.042ZM171.843 131.117C172.599 131.456 173.487 131.117 173.825 130.361C174.163 129.604 173.824 128.717 173.068 128.379L171.843 131.117ZM178.664 131.147C177.937 130.75 177.025 131.018 176.629 131.745C176.232 132.472 176.5 133.384 177.227 133.78L178.664 131.147ZM182.353 136.872C183.043 137.332 183.974 137.145 184.433 136.456C184.893 135.766 184.706 134.835 184.017 134.376L182.353 136.872ZM189.053 138.099C188.413 137.574 187.468 137.666 186.942 138.307C186.416 138.947 186.509 139.892 187.149 140.418L189.053 138.099ZM191.526 144.436C192.103 145.03 193.053 145.044 193.647 144.467C194.242 143.89 194.256 142.941 193.679 142.346L191.526 144.436ZM197.776 147.128C197.278 146.465 196.338 146.332 195.675 146.829C195.013 147.326 194.879 148.267 195.377 148.929L197.776 147.128ZM198.53 153.844C198.913 154.578 199.819 154.863 200.554 154.48C201.288 154.097 201.573 153.191 201.19 152.457L198.53 153.844ZM203.478 158.475C203.287 157.669 202.478 157.171 201.672 157.362C200.866 157.554 200.368 158.362 200.559 159.168L203.478 158.475ZM200.98 164.717C200.903 165.542 201.509 166.274 202.333 166.351C203.158 166.429 203.89 165.823 203.967 164.999L200.98 164.717ZM202.182 171.331C202.547 170.587 202.239 169.688 201.495 169.324C200.751 168.96 199.852 169.268 199.488 170.012L202.182 171.331ZM196.237 174.515C195.65 175.1 195.649 176.05 196.234 176.636C196.819 177.223 197.769 177.224 198.355 176.639L196.237 174.515ZM193.141 180.502C193.87 180.107 194.141 179.197 193.747 178.468C193.352 177.74 192.442 177.469 191.713 177.863L193.141 180.502ZM186.425 179.85C185.617 180.032 185.109 180.834 185.291 181.642C185.472 182.451 186.275 182.958 187.083 182.777L186.425 179.85ZM180.588 183.248C181.413 183.318 182.139 182.706 182.21 181.881C182.28 181.055 181.668 180.329 180.842 180.259L180.588 183.248ZM175.56 178.814C174.819 178.443 173.918 178.743 173.547 179.484C173.176 180.225 173.476 181.126 174.217 181.497L175.56 178.814ZM169.029 177.311C169.548 177.956 170.492 178.059 171.138 177.54C171.783 177.021 171.886 176.076 171.367 175.431L169.029 177.311ZM168.81 170.566C168.556 169.777 167.711 169.344 166.922 169.597C166.134 169.851 165.7 170.696 165.954 171.485L168.81 170.566ZM164.82 165.138C164.868 165.965 165.578 166.596 166.405 166.547C167.232 166.498 167.863 165.788 167.814 164.961L164.82 165.138ZM168.144 159.129C168.251 158.307 167.673 157.554 166.851 157.447C166.03 157.339 165.277 157.918 165.169 158.74L168.144 159.129ZM166.064 152.746C165.926 153.563 166.477 154.337 167.294 154.475C168.111 154.612 168.885 154.061 169.022 153.244L166.064 152.746ZM170.109 147.482C170.279 146.671 169.759 145.876 168.948 145.706C168.137 145.536 167.342 146.056 167.172 146.867L170.109 147.482ZM168.555 140.925C168.349 141.727 168.832 142.545 169.635 142.751C170.437 142.957 171.255 142.473 171.461 141.671L168.555 140.925ZM173.05 136.04C173.295 135.248 172.851 134.408 172.06 134.164C171.268 133.919 170.429 134.362 170.184 135.154L173.05 136.04ZM172.139 129.376C171.852 130.153 172.25 131.016 173.027 131.303C173.804 131.59 174.667 131.193 174.954 130.416L172.139 129.376ZM177.146 124.971C177.478 124.212 177.132 123.327 176.373 122.995C175.614 122.663 174.73 123.009 174.398 123.768L177.146 124.971ZM177.005 118.292C176.624 119.028 176.913 119.933 177.649 120.313C178.385 120.693 179.29 120.405 179.67 119.669L177.005 118.292ZM182.555 114.528C182.986 113.821 182.762 112.898 182.054 112.467C181.347 112.036 180.424 112.261 179.993 112.968L182.555 114.528ZM183.318 107.932C182.836 108.606 182.992 109.543 183.666 110.025C184.339 110.507 185.276 110.351 185.758 109.677L183.318 107.932ZM189.376 105.019C189.909 104.386 189.829 103.439 189.195 102.906C188.562 102.372 187.615 102.453 187.082 103.086L189.376 105.019ZM191.194 98.5897C190.61 99.1776 190.614 100.127 191.202 100.711C191.79 101.295 192.739 101.291 193.323 100.703L191.194 98.5897ZM197.599 96.7382C198.229 96.2005 198.305 95.2537 197.767 94.6235C197.229 93.9933 196.282 93.9182 195.652 94.4559L197.599 96.7382ZM200.467 90.6818C199.794 91.1656 199.641 92.1029 200.125 92.7754C200.609 93.4479 201.546 93.601 202.219 93.1172L200.467 90.6818ZM207.104 89.8942C207.813 89.4659 208.041 88.5439 207.612 87.8347C207.184 87.1256 206.262 86.8979 205.553 87.3262L207.104 89.8942ZM210.888 84.3799C210.148 84.7525 209.85 85.6544 210.223 86.3943C210.595 87.1342 211.497 87.4319 212.237 87.0592L210.888 84.3799ZM217.572 84.6119C218.337 84.2935 218.699 83.4154 218.38 82.6506C218.062 81.8858 217.184 81.5239 216.419 81.8423L217.572 84.6119ZM222.101 79.699C221.317 79.9657 220.898 80.8177 221.164 81.602C221.431 82.3864 222.283 82.806 223.067 82.5392L222.101 79.699ZM228.708 80.8149C229.507 80.5967 229.978 79.772 229.76 78.9728C229.542 78.1737 228.717 77.7026 227.918 77.9208L228.708 80.8149ZM233.807 76.4909C232.997 76.6643 232.48 77.4615 232.654 78.2716C232.827 79.0817 233.624 79.5979 234.435 79.4245L233.807 76.4909ZM240.231 78.3383C241.049 78.2059 241.605 77.4357 241.472 76.6179C241.34 75.8001 240.57 75.2445 239.752 75.3768L240.231 78.3383ZM245.762 74.5467C244.939 74.6416 244.348 75.3857 244.443 76.2087C244.538 77.0316 245.282 77.6218 246.105 77.5269L245.762 74.5467ZM251.988 76.9721C252.815 76.9109 253.435 76.1915 253.374 75.3654C253.312 74.5392 252.593 73.9191 251.767 73.9803L251.988 76.9721ZM257.793 73.6476C256.965 73.6782 256.319 74.3742 256.35 75.2021C256.38 76.0299 257.076 76.6762 257.904 76.6455L257.793 73.6476ZM263.854 76.5263C264.683 76.5233 265.352 75.8493 265.349 75.0208C265.346 74.1924 264.672 73.5233 263.844 73.5263L263.854 76.5263ZM269.852 73.5957C269.024 73.574 268.335 74.2277 268.313 75.0558C268.291 75.884 268.945 76.5729 269.773 76.5947L269.852 73.5957ZM275.718 76.8325C276.545 76.8766 277.252 76.2418 277.296 75.4145C277.34 74.5873 276.705 73.8809 275.878 73.8368L275.718 76.8325ZM281.884 74.2318C281.058 74.1675 280.337 74.785 280.272 75.6109C280.208 76.4368 280.826 77.1585 281.651 77.2227L281.884 74.2318ZM287.575 77.7502C288.399 77.8326 289.134 77.2311 289.217 76.4068C289.299 75.5825 288.698 74.8474 287.873 74.7651L287.575 77.7502ZM293.859 75.4243C293.037 75.3256 292.29 75.9123 292.191 76.7349C292.093 77.5574 292.679 78.3042 293.502 78.4029L293.859 75.4243ZM299.403 79.1652C300.223 79.2785 300.98 78.7051 301.094 77.8845C301.207 77.0638 300.634 76.3067 299.813 76.1934L299.403 79.1652ZM305.76 77.064C304.942 76.9376 304.175 77.4988 304.049 78.3175C303.923 79.1363 304.484 79.9025 305.302 80.0289L305.76 77.064ZM311.187 80.9815C312.004 81.1196 312.778 80.5694 312.916 79.7526C313.054 78.9357 312.504 78.1616 311.687 78.0235L311.187 80.9815ZM317.602 79.0632C316.787 78.9147 316.006 79.4551 315.858 80.2701C315.709 81.0851 316.25 81.8661 317.065 82.0146L317.602 79.0632ZM322.921 83.1162C323.734 83.2738 324.521 82.7422 324.679 81.9289C324.836 81.1156 324.305 80.3286 323.492 80.171L322.921 83.1162ZM329.385 81.3435C328.573 81.178 327.781 81.7019 327.616 82.5136C327.45 83.3253 327.974 84.1175 328.786 84.283L329.385 81.3435ZM334.627 85.5C335.438 85.6723 336.234 85.155 336.406 84.3447C336.579 83.5343 336.061 82.7378 335.251 82.5656L334.627 85.5ZM341.11 83.8326C340.301 83.6548 339.501 84.1666 339.323 84.9758C339.145 85.7849 339.657 86.5849 340.466 86.7627L341.11 83.8326ZM346.309 88.0637C347.117 88.2458 347.92 87.7383 348.102 86.9302C348.284 86.122 347.777 85.3192 346.969 85.1371L346.309 88.0637ZM352.783 86.46C351.975 86.2748 351.171 86.7792 350.985 87.5866C350.8 88.3941 351.305 89.1988 352.112 89.384L352.783 86.46ZM357.966 90.7346C358.773 90.9217 359.579 90.419 359.766 89.612C359.953 88.8049 359.45 87.9991 358.643 87.8121L357.966 90.7346ZM364.474 89.1653C363.667 88.978 362.861 89.4803 362.674 90.2873C362.486 91.0943 362.989 91.9003 363.796 92.0876L364.474 89.1653ZM369.596 93.4297C370.403 93.6157 371.208 93.1119 371.394 92.3046C371.58 91.4974 371.077 90.6922 370.269 90.5063L369.596 93.4297ZM376.134 91.8453C375.326 91.6628 374.523 92.1699 374.34 92.9779C374.158 93.786 374.665 94.589 375.473 94.7716L376.134 91.8453ZM381.329 96.0737C382.138 96.2504 382.937 95.7375 383.114 94.9282C383.291 94.1188 382.778 93.3195 381.968 93.1428L381.329 96.0737ZM387.771 94.3783C386.959 94.2105 386.166 94.7321 385.998 95.5434C385.83 96.3546 386.352 97.1483 387.163 97.3161L387.771 94.3783ZM393.065 98.4905C393.879 98.6452 394.664 98.1109 394.819 97.297C394.973 96.4832 394.439 95.698 393.625 95.5433L393.065 98.4905ZM399.509 96.5952C398.692 96.4595 397.92 97.012 397.784 97.8293C397.648 98.6465 398.201 99.419 399.018 99.5547L399.509 96.5952ZM404.997 100.45C405.819 100.558 406.572 99.9792 406.68 99.1578C406.788 98.3364 406.209 97.5831 405.388 97.4753L404.997 100.45ZM411.264 98.1053C410.438 98.0396 409.715 98.6559 409.65 99.4817C409.584 100.307 410.2 101.03 411.026 101.096L411.264 98.1053ZM416.85 101.576C417.674 101.654 418.407 101.049 418.485 100.224C418.563 99.3997 417.958 98.6676 417.133 98.5893L416.85 101.576ZM422.892 99.0559C422.065 99.0006 421.35 99.6258 421.295 100.452C421.239 101.279 421.865 101.994 422.691 102.049L422.892 99.0559ZM428.603 102.359C429.431 102.39 430.128 101.744 430.159 100.917C430.19 100.089 429.544 99.3923 428.716 99.3611L428.603 102.359ZM434.51 99.4923C433.682 99.4862 433.005 100.153 432.999 100.981C432.993 101.81 433.66 102.486 434.488 102.492L434.51 99.4923ZM440.357 102.445C441.185 102.425 441.84 101.737 441.821 100.909C441.801 100.081 441.113 99.4256 440.285 99.4454L440.357 102.445ZM446.104 99.2114C445.277 99.2584 444.644 99.9669 444.691 100.794C444.738 101.621 445.447 102.254 446.274 102.207L446.104 99.2114ZM452.157 101.773C452.982 101.698 453.59 100.968 453.515 100.143C453.44 99.318 452.71 98.7101 451.885 98.7851L452.157 101.773ZM457.629 98.1613C456.807 98.2653 456.225 99.0159 456.329 99.8378C456.433 100.66 457.184 101.242 458.006 101.138L457.629 98.1613ZM463.846 100.29C464.663 100.156 465.217 99.3851 465.083 98.5676C464.949 97.7501 464.178 97.196 463.361 97.33L463.846 100.29ZM469.068 96.2834C468.257 96.4484 467.732 97.2402 467.897 98.0521C468.062 98.8639 468.854 99.3883 469.666 99.2234L469.068 96.2834ZM475.43 97.9345C476.235 97.7378 476.728 96.9259 476.531 96.1212C476.334 95.3165 475.522 94.8236 474.718 95.0203L475.43 97.9345ZM480.302 93.5353C479.506 93.7644 479.047 94.5956 479.276 95.3917C479.505 96.1878 480.336 96.6474 481.132 96.4182L480.302 93.5353ZM486.764 94.6691C487.55 94.4068 487.975 93.5572 487.712 92.7714C487.45 91.9856 486.6 91.5612 485.815 91.8235L486.764 94.6691ZM491.261 89.8744C490.487 90.1705 490.1 91.0377 490.396 91.8114C490.692 92.5851 491.559 92.9723 492.333 92.6763L491.261 89.8744ZM497.815 90.4377C498.575 90.1074 498.923 89.2237 498.592 88.464C498.262 87.7043 497.378 87.3561 496.619 87.6865L497.815 90.4377ZM501.867 85.2607C501.123 85.6256 500.816 86.5243 501.181 87.268C501.545 88.0118 502.444 88.3189 503.188 87.9541L501.867 85.2607ZM508.439 85.2234C509.164 84.8238 509.429 83.9116 509.029 83.1859C508.63 82.4602 507.718 82.1958 506.992 82.5954L508.439 85.2234ZM511.981 79.6896C511.275 80.1238 511.055 81.0478 511.49 81.7533C511.924 82.4588 512.848 82.6786 513.553 82.2444L511.981 79.6896ZM518.517 79.0171C519.2 78.5483 519.373 77.6146 518.905 76.9316C518.436 76.2486 517.502 76.0749 516.819 76.5437L518.517 79.0171ZM521.491 73.1592C520.833 73.6622 520.707 74.6036 521.21 75.2618C521.713 75.92 522.654 76.0458 523.313 75.5428L521.491 73.1592ZM527.925 71.8238C528.556 71.287 528.632 70.3403 528.095 69.7093C527.558 69.0783 526.612 69.002 525.981 69.5388L527.925 71.8238ZM530.271 65.6865C529.669 66.2564 529.644 67.2058 530.214 67.8071C530.784 68.4083 531.733 68.4337 532.335 67.8638L530.271 65.6865ZM536.524 63.6679C537.093 63.0657 537.066 62.1164 536.464 61.5475C535.862 60.9786 534.913 61.0056 534.344 61.6078L536.524 63.6679ZM538.181 57.3092C537.647 57.9427 537.728 58.889 538.361 59.4229C538.995 59.9567 539.941 59.8759 540.475 59.2424L538.181 57.3092ZM544.165 54.5949C544.661 53.9313 544.525 52.9913 543.862 52.4954C543.198 51.9995 542.258 52.1355 541.762 52.7991L544.165 54.5949ZM545.067 48.0871C544.612 48.7795 544.805 49.7095 545.497 50.1644C546.19 50.6193 547.12 50.4268 547.575 49.7345L545.067 48.0871ZM550.68 44.6719C551.09 43.9524 550.84 43.0363 550.12 42.6256C549.401 42.215 548.485 42.4654 548.074 43.1849L550.68 44.6719ZM550.759 38.1059C550.396 38.8507 550.705 39.7485 551.45 40.1114C552.195 40.4742 553.093 40.1646 553.456 39.4198L550.759 38.1059ZM555.875 33.9927C556.187 33.2249 555.816 32.3503 555.049 32.0392C554.281 31.728 553.406 32.0982 553.095 32.866L555.875 33.9927ZM555.061 27.4666C554.806 28.2549 555.239 29.1005 556.027 29.3554C556.815 29.6103 557.661 29.1779 557.916 28.3897L555.061 27.4666ZM559.535 22.6484C559.729 21.843 559.233 21.0329 558.427 20.8391C557.622 20.6452 556.812 21.141 556.618 21.9464L559.535 22.6484ZM557.731 16.334C557.604 17.1526 558.164 17.9194 558.982 18.0469C559.801 18.1743 560.568 17.614 560.695 16.7954L557.731 16.334ZM561.357 10.8639C561.412 10.0374 560.787 9.32256 559.96 9.26741C559.133 9.21227 558.419 9.83764 558.364 10.6642L561.357 10.8639ZM558.476 4.95373C558.499 5.78181 559.19 6.43386 560.018 6.41012C560.846 6.38637 561.498 5.69583 561.474 4.86774L558.476 4.95373ZM14.4912 254.329C14.3721 253.292 14.2625 252.262 14.1624 251.239L11.1767 251.532C11.2784 252.571 11.3898 253.618 11.5109 254.671L14.4912 254.329ZM13.6748 245.184C13.5468 243.148 13.4574 241.141 13.4055 239.162L10.4066 239.24C10.4594 241.256 10.5504 243.3 10.6807 245.372L13.6748 245.184ZM13.3645 233.078C13.3912 231.041 13.4589 229.035 13.5664 227.061L10.5708 226.898C10.4611 228.914 10.392 230.961 10.3648 233.039L13.3645 233.078ZM14.0283 221.009C14.2289 218.979 14.4728 216.984 14.7586 215.023L11.79 214.591C11.4974 216.598 11.2479 218.639 11.0429 220.715L14.0283 221.009ZM15.774 209.073C16.1674 207.067 16.6064 205.099 17.0891 203.169L14.1787 202.441C13.6835 204.421 13.2333 206.439 12.8301 208.496L15.774 209.073ZM18.6969 197.396C19.2992 195.438 19.9482 193.522 20.642 191.649L17.8287 190.607C17.1153 192.534 16.4482 194.503 15.8295 196.514L18.6969 197.396ZM22.8862 186.081C23.7001 184.219 24.5602 182.402 25.4641 180.628L22.7912 179.266C21.8603 181.092 20.9749 182.964 20.1373 184.88L22.8862 186.081ZM28.3625 175.341C29.3852 173.603 30.4523 171.911 31.561 170.265L29.0727 168.589C27.9301 170.286 26.8306 172.029 25.7768 173.82L28.3625 175.341ZM35.0846 165.365C36.3137 163.762 37.5846 162.208 38.8944 160.701L36.6301 158.733C35.2805 160.286 33.9708 161.888 32.7041 163.539L35.0846 165.365ZM42.9738 156.286C44.3878 154.845 45.8396 153.454 47.3261 152.111L45.3149 149.885C43.7844 151.268 42.2894 152.701 40.8329 154.184L42.9738 156.286ZM51.9151 148.204C53.4852 146.944 55.0879 145.733 56.7201 144.571L54.9798 142.127C53.3017 143.322 51.6533 144.568 50.0378 145.863L51.9151 148.204ZM61.7297 141.21C63.4336 140.135 65.1644 139.108 66.919 138.129L65.4575 135.509C63.6563 136.514 61.8788 137.569 60.1284 138.674L61.7297 141.21ZM72.2647 135.33C74.0736 134.442 75.9033 133.603 77.7507 132.811L76.5686 130.053C74.6749 130.865 72.7986 131.726 70.9431 132.637L72.2647 135.33ZM83.363 130.569C85.2545 129.867 87.1606 129.213 89.078 128.606L88.1725 125.746C86.2094 126.368 84.2574 127.038 82.3197 127.756L83.363 130.569ZM94.8773 126.921C96.8314 126.403 98.7937 125.933 100.761 125.509L100.129 122.576C98.1164 123.01 96.1086 123.491 94.1087 124.021L94.8773 126.921ZM106.702 124.372C108.695 124.038 110.69 123.751 112.683 123.511L112.323 120.532C110.286 120.778 108.245 121.072 106.206 121.413L106.702 124.372ZM118.699 122.925C120.722 122.774 122.739 122.672 124.746 122.616L124.663 119.618C122.609 119.674 120.546 119.779 118.477 119.933L118.699 122.925ZM130.792 122.591C132.816 122.631 134.827 122.718 136.819 122.854L137.022 119.861C134.982 119.722 132.923 119.632 130.85 119.592L130.792 122.591ZM142.836 123.413C144.857 123.652 146.853 123.942 148.821 124.281L149.33 121.324C147.31 120.976 145.261 120.679 143.189 120.434L142.836 123.413ZM154.738 125.467C156.717 125.922 158.66 126.429 160.562 126.988L161.407 124.109C159.446 123.534 157.446 123.012 155.411 122.544L154.738 125.467ZM166.267 128.86C168.179 129.557 170.039 130.31 171.843 131.117L173.068 128.379C171.197 127.542 169.271 126.762 167.295 126.042L166.267 128.86ZM177.227 133.78C179.009 134.752 180.719 135.784 182.353 136.872L184.017 134.376C182.306 133.236 180.52 132.159 178.664 131.147L177.227 133.78ZM187.149 140.418C188.705 141.695 190.167 143.035 191.526 144.436L193.679 142.346C192.237 140.861 190.692 139.445 189.053 138.099L187.149 140.418ZM195.377 148.929C195.969 149.718 196.532 150.522 197.064 151.341L199.58 149.707C199.01 148.829 198.408 147.969 197.776 147.128L195.377 148.929ZM197.064 151.341C197.616 152.19 198.103 153.024 198.53 153.844L201.19 152.457C200.717 151.548 200.181 150.632 199.58 149.707L197.064 151.341ZM200.559 159.168C201.025 161.134 201.143 162.989 200.98 164.717L203.967 164.999C204.162 162.931 204.017 160.748 203.478 158.475L200.559 159.168ZM199.488 170.012C198.67 171.683 197.56 173.194 196.237 174.515L198.355 176.639C199.895 175.102 201.207 173.323 202.182 171.331L199.488 170.012ZM191.713 177.863C190.042 178.768 188.249 179.44 186.425 179.85L187.083 182.777C189.178 182.306 191.23 181.536 193.141 180.502L191.713 177.863ZM180.842 180.259C178.968 180.099 177.177 179.624 175.56 178.814L174.217 181.497C176.208 182.494 178.374 183.059 180.588 183.248L180.842 180.259ZM171.367 175.431C170.315 174.123 169.436 172.514 168.81 170.566L165.954 171.485C166.685 173.758 167.731 175.697 169.029 177.311L171.367 175.431ZM167.814 164.961C167.76 164.041 167.748 163.073 167.782 162.055L164.783 161.955C164.747 163.06 164.76 164.121 164.82 165.138L167.814 164.961ZM167.773 162.173C167.889 161.147 168.013 160.132 168.144 159.129L165.169 158.74C165.036 159.761 164.91 160.793 164.792 161.837L167.773 162.173ZM169.022 153.244C169.353 151.277 169.716 149.356 170.109 147.482L167.172 146.867C166.771 148.781 166.401 150.74 166.064 152.746L169.022 153.244ZM171.461 141.671C171.956 139.741 172.486 137.864 173.05 136.04L170.184 135.154C169.605 137.026 169.062 138.949 168.555 140.925L171.461 141.671ZM174.954 130.416C175.646 128.54 176.377 126.726 177.146 124.971L174.398 123.768C173.605 125.578 172.852 127.447 172.139 129.376L174.954 130.416ZM179.67 119.669C180.59 117.888 181.552 116.176 182.555 114.528L179.993 112.968C178.953 114.676 177.956 116.45 177.005 118.292L179.67 119.669ZM185.758 109.677C186.92 108.053 188.127 106.501 189.376 105.019L187.082 103.086C185.781 104.629 184.526 106.244 183.318 107.932L185.758 109.677ZM193.323 100.703C194.705 99.3111 196.132 97.9903 197.599 96.7382L195.652 94.4559C194.122 95.7613 192.635 97.1384 191.194 98.5897L193.323 100.703ZM202.219 93.1172C203.806 91.9751 205.435 90.9017 207.104 89.8942L205.553 87.3262C203.817 88.3744 202.121 89.4919 200.467 90.6818L202.219 93.1172ZM212.237 87.0592C213.979 86.1818 215.759 85.3669 217.572 84.6119L216.419 81.8423C214.541 82.6242 212.696 83.4689 210.888 84.3799L212.237 87.0592ZM223.067 82.5392C224.917 81.9101 226.798 81.3362 228.708 80.8149L227.918 77.9208C225.952 78.4576 224.012 79.0493 222.101 79.699L223.067 82.5392ZM234.435 79.4245C236.343 79.0161 238.276 78.6549 240.231 78.3383L239.752 75.3768C237.749 75.7011 235.766 76.0715 233.807 76.4909L234.435 79.4245ZM246.105 77.5269C248.048 77.3028 250.01 77.1186 251.988 76.9721L251.767 73.9803C249.749 74.1297 247.747 74.3177 245.762 74.5467L246.105 77.5269ZM257.904 76.6455C259.874 76.5726 261.858 76.5336 263.854 76.5263L263.844 73.5263C261.815 73.5337 259.798 73.5733 257.793 73.6476L257.904 76.6455ZM269.773 76.5947C271.745 76.6464 273.728 76.7264 275.718 76.8325L275.878 73.8368C273.862 73.7293 271.852 73.6482 269.852 73.5957L269.773 76.5947ZM281.651 77.2227C283.621 77.3759 285.596 77.5524 287.575 77.7502L287.873 74.7651C285.873 74.5652 283.876 74.3867 281.884 74.2318L281.651 77.2227ZM293.502 78.4029C295.467 78.6387 297.435 78.8934 299.403 79.1652L299.813 76.1934C297.828 75.9193 295.843 75.6623 293.859 75.4243L293.502 78.4029ZM305.302 80.0289C307.266 80.332 309.228 80.6502 311.187 80.9815L311.687 78.0235C309.714 77.69 307.738 77.3695 305.76 77.064L305.302 80.0289ZM317.065 82.0146C319.022 82.3712 320.975 82.7391 322.921 83.1162L323.492 80.171C321.535 79.7919 319.571 79.422 317.602 79.0632L317.065 82.0146ZM328.786 84.283C330.742 84.6818 332.69 85.0882 334.627 85.5L335.251 82.5656C333.306 82.1522 331.35 81.7441 329.385 81.3435L328.786 84.283ZM340.466 86.7627C342.427 87.1935 344.375 87.6278 346.309 88.0637L346.969 85.1371C345.03 84.7002 343.077 84.2647 341.11 83.8326L340.466 86.7627ZM352.112 89.384C354.081 89.8358 356.033 90.2868 357.966 90.7346L358.643 87.8121C356.709 87.364 354.755 86.9124 352.783 86.46L352.112 89.384ZM363.796 92.0876C365.753 92.5418 367.687 92.9902 369.596 93.4297L370.269 90.5063C368.363 90.0673 366.431 89.6194 364.474 89.1653L363.796 92.0876ZM375.473 94.7716C377.457 95.2198 379.41 95.6549 381.329 96.0737L381.968 93.1428C380.059 92.7258 378.113 92.2923 376.134 91.8453L375.473 94.7716ZM387.163 97.3161C389.176 97.7325 391.144 98.1254 393.065 98.4905L393.625 95.5433C391.723 95.1816 389.77 94.7919 387.771 94.3783L387.163 97.3161ZM399.018 99.5547C401.078 99.8967 403.074 100.197 404.997 100.45L405.388 97.4753C403.503 97.2279 401.542 96.9326 399.509 96.5952L399.018 99.5547ZM411.026 101.096C412.036 101.176 413.022 101.238 413.981 101.281L414.115 98.2842C413.193 98.243 412.242 98.183 411.264 98.1053L411.026 101.096ZM413.886 101.274C414.879 101.382 415.867 101.483 416.85 101.576L417.133 98.5893C416.164 98.4973 415.19 98.398 414.211 98.2915L413.886 101.274ZM422.691 102.049C424.682 102.183 426.653 102.286 428.603 102.359L428.716 99.3611C426.795 99.2888 424.854 99.1873 422.892 99.0559L422.691 102.049ZM434.488 102.492C436.466 102.507 438.423 102.491 440.357 102.445L440.285 99.4454C438.383 99.4909 436.458 99.5068 434.51 99.4923L434.488 102.492ZM446.274 102.207C448.259 102.094 450.221 101.949 452.157 101.773L451.885 98.7851C449.983 98.9581 448.056 99.1006 446.104 99.2114L446.274 102.207ZM458.006 101.138C459.98 100.888 461.926 100.605 463.846 100.29L463.361 97.33C461.477 97.6386 459.567 97.9161 457.629 98.1613L458.006 101.138ZM469.666 99.2234C471.617 98.8269 473.539 98.3968 475.43 97.9345L474.718 95.0203C472.865 95.4732 470.982 95.8947 469.068 96.2834L469.666 99.2234ZM481.132 96.4182C483.043 95.8683 484.92 95.2847 486.764 94.6691L485.815 91.8235C484.01 92.4258 482.173 92.9969 480.302 93.5353L481.132 96.4182ZM492.333 92.6763C494.197 91.9631 496.024 91.2163 497.815 90.4377L496.619 87.6865C494.869 88.4472 493.083 89.1771 491.261 89.8744L492.333 92.6763ZM503.188 87.9541C504.978 87.0758 506.729 86.1649 508.439 85.2234L506.992 82.5954C505.323 83.514 503.615 84.4031 501.867 85.2607L503.188 87.9541ZM513.553 82.2444C515.252 81.1989 516.906 80.1224 518.517 79.0171L516.819 76.5437C515.25 77.6207 513.637 78.6701 511.981 79.6896L513.553 82.2444ZM523.313 75.5428C524.898 74.3309 526.436 73.0904 527.925 71.8238L525.981 69.5388C524.532 70.7714 523.035 71.979 521.491 73.1592L523.313 75.5428ZM532.335 67.8638C533.784 66.4896 535.181 65.09 536.524 63.6679L534.344 61.6078C533.038 62.9896 531.681 64.3502 530.271 65.6865L532.335 67.8638ZM540.475 59.2424C541.763 57.7132 542.994 56.1629 544.165 54.5949L541.762 52.7991C540.626 54.3201 539.432 55.8246 538.181 57.3092L540.475 59.2424ZM547.575 49.7345C548.674 48.0613 549.709 46.3725 550.68 44.6719L548.074 43.1849C547.135 44.8306 546.133 46.466 545.067 48.0871L547.575 49.7345ZM553.456 39.4198C554.333 37.618 555.14 35.8074 555.875 33.9927L553.095 32.866C552.386 34.6166 551.607 36.3647 550.759 38.1059L553.456 39.4198ZM557.916 28.3897C558.535 26.474 559.075 24.5585 559.535 22.6484L556.618 21.9464C556.177 23.7807 555.658 25.6224 555.061 27.4666L557.916 28.3897ZM560.695 16.7954C561.005 14.8045 561.226 12.8253 561.357 10.8639L558.364 10.6642C558.239 12.5358 558.028 14.4277 557.731 16.334L560.695 16.7954ZM561.474 4.86774C561.446 3.86547 561.392 2.86975 561.314 1.88149L558.323 2.11851C558.398 3.05578 558.448 4.00113 558.476 4.95373L561.474 4.86774Z" fill="black"/>
</svg>