<svg width="132" height="137" viewBox="0 0 132 137" fill="none" xmlns="http://www.w3.org/2000/svg">
<path d="M85.1341 86.8896C87.6536 87.6975 89.5111 89.3022 89.6687 91.9387C90.2355 98.4906 88.1683 104.198 83.0138 108.537C81.5404 109.831 79.8006 110.976 77.7741 110.578C76.3974 110.326 75.1027 109.659 73.6139 109.181C73.3848 109.108 73.2329 108.996 73.0039 108.922C79.9827 102.835 82.841 95.2367 84.0237 86.7859C84.3673 86.8961 84.7905 86.7795 85.1341 86.8896Z" fill="#ACACAC"/>
<path d="M73.6659 81.639C78.0895 80.4714 82.1929 83.3009 81.7534 87.6381C80.8964 94.6167 78.3613 100.931 73.0825 105.987C68.4632 110.435 63.4614 108.894 60.067 104.589C59.8031 104.252 59.5017 103.84 59.2004 103.428C68.0393 98.7567 72.5433 91.3707 73.6659 81.639Z" fill="#ACACAC"/>
<path d="M53.3944 90.2171C53.6234 90.2905 53.8525 90.364 54.0044 90.4758C54.0093 90.0989 53.937 89.7603 53.9792 89.4585C54.6534 87.7193 55.2131 85.9434 56.1537 84.3527C56.94 82.8387 58.1023 81.8869 59.9844 81.6073C63.0191 81.1296 65.4559 79.4511 66.9862 76.7249C69.5482 77.231 71.6625 79.7382 71.5512 82.4148C71.4676 85.9202 70.1614 89.0967 68.5117 92.1631C66.5086 95.873 63.4796 98.8755 59.6985 100.754C57.9236 101.635 55.8872 101.992 53.8533 102.159C50.8982 102.41 49.0803 100.692 47.8075 98.3285C47.6207 97.9532 47.628 97.3879 47.8246 97.0094C49.999 91.9037 52.2109 86.873 54.5397 81.6906C54.8459 81.7257 55.3812 81.8343 56.0708 81.8662C54.0824 84.4455 52.7835 87.0566 53.3944 90.2171Z" fill="#ACACAC"/>
<path d="M53.1671 81.2604C49.079 89.0951 45.9046 97.412 40.4844 104.504C38.2223 107.5 35.5817 110.122 32.3733 112.184C31.4075 112.758 30.367 113.181 29.329 113.416C24.0242 114.553 20.0946 110.139 22.0002 105.074C22.6768 103.146 23.8887 101.327 25.1753 99.6585C28.2188 95.5255 31.3769 91.4292 34.6868 87.4448C38.8529 82.4733 41.9159 76.8328 44.7126 71.0439C44.8693 70.7788 45.0261 70.5137 45.2649 69.8334C46.735 74.7198 48.0557 79.3061 53.1671 81.2604Z" fill="#ACACAC"/>
<path d="M91.8783 88.4148C91.6841 88.6049 91.3754 88.7582 91.1041 88.9867C89.3307 86.7777 87.3607 84.9473 84.2909 85.1614C84.0992 85.163 83.8303 85.2029 83.6386 85.2045C82.8985 83.1377 81.7327 81.376 79.6385 80.2628C77.5816 79.2246 75.4354 79.1671 73.1649 79.8268C72.0836 77.4613 70.4199 75.6661 67.8505 75.7252C67.9519 73.8021 68.1679 71.9158 67.9234 70.071C67.6162 67.1338 65.2579 65.6835 62.8574 64.5351C61.7144 63.9793 61.1864 63.3053 61.2408 62.0611C61.218 60.8552 61.0806 59.6125 60.9807 58.4449C60.789 58.4465 60.6744 58.4098 60.4827 58.4114C60.157 59.8841 59.8313 61.3567 59.5032 63.0178C57.3667 62.2064 55.1929 61.32 52.9792 60.547C52.9394 60.6604 52.8225 60.8121 52.7827 60.9255C53.6568 61.5213 54.4139 62.2688 55.3652 62.8262C57.838 64.3132 60.4651 65.7235 62.9753 67.2855C66.8551 69.6654 66.6653 75.4713 62.7223 77.9917C58.3163 80.7422 51.0759 80.3126 48.8254 73.4717C48.2348 71.7052 47.567 69.977 47.0137 68.2856C46.3857 66.444 46.3353 64.4091 47.0493 62.5564C50.1017 54.7667 55.8041 49.5932 63.925 47.151C67.1191 46.2197 70.3684 46.9464 73.5057 47.4479C74.9598 47.6619 76.4512 47.951 77.9029 48.3535C81.5706 49.3405 84.5754 48.2225 87.0643 45.488C89.5532 42.7535 91.8902 39.9072 94.2646 37.136C101.189 29.3894 108.606 22.0533 116.93 15.7649C121.691 12.1823 126.862 9.61393 132.558 7.90803C134.482 7.32662 136.372 6.48167 138.184 5.67505C138.416 5.56005 138.647 5.44504 138.916 5.40511C139.725 5.09683 142.511 6.05353 142.957 7.14283C143.702 8.83269 144.37 10.5609 144.5 12.3689C144.775 14.8542 143.802 15.993 141.335 17.0312C125.88 23.3037 113.671 33.582 104.257 47.1537C100.78 52.1578 99.0963 57.8631 98.2891 63.9757C97.7824 67.5982 98.0051 71.1392 97.9589 74.7202C98.003 80.2226 95.913 84.7252 91.8783 88.4148Z" fill="#ACACAC"/>
<path d="M83.0265 108.53C88.2211 104.077 90.2111 98.408 89.6815 91.9304C89.4468 89.3321 87.5891 87.7272 85.1465 86.8809C84.8029 86.7707 84.3797 86.8873 84.0735 86.8522L84.2871 85.1545C87.3567 84.9404 89.3265 86.7705 91.0998 88.9791C91.3711 88.7507 91.6026 88.6357 91.8739 88.4073C95.9085 84.718 97.9985 80.2159 98.1065 74.8259C98.1528 71.2454 97.9302 67.7048 98.4371 64.0827C99.2818 58.0459 100.889 52.3796 104.405 47.2625C113.819 33.6921 125.951 23.453 141.482 17.1424C143.871 16.1426 144.844 15.0039 144.647 12.4806C144.44 10.7111 143.772 8.98313 143.105 7.25518C142.659 6.16603 139.872 5.20954 139.063 5.51781C138.832 5.63281 138.6 5.7478 138.332 5.78774L137.886 4.69858C138.117 4.58359 138.388 4.3552 138.697 4.20188C139.16 3.97188 139.623 3.74189 140.198 3.73707C142.115 3.72101 143.756 4.31024 144.847 5.92159C146.653 8.58215 147.497 11.4392 146.727 14.7243C146.279 16.7254 145.072 18.1676 142.991 19.0141C127.846 25.133 115.871 35.107 106.576 48.3372C103.139 53.2275 101.343 58.707 100.387 64.5186C100.049 66.9333 100.174 69.118 100.374 71.4529C101.006 78.9093 98.9659 85.4461 92.6537 90.3604C92.3824 90.5888 92.2207 91.2308 92.2158 91.6077C92.7706 99.1025 90.502 105.566 84.3814 110.479C80.8943 113.334 76.7021 114.387 72.6203 109.861L73.9321 109.209C75.3813 109.8 76.7158 110.354 78.0927 110.607C79.8131 110.969 81.553 109.824 83.0265 108.53Z" fill="black"/>
<path d="M60.0005 104.63C63.3956 108.937 68.3982 110.478 73.0178 106.03C78.2971 100.973 80.9092 94.619 81.6887 87.6773C82.2051 83.3008 78.1009 80.4704 73.5996 81.6763C72.5547 91.3717 68.0506 98.759 59.171 103.544C59.435 103.881 59.7365 104.293 60.0005 104.63ZM40.4876 104.491C45.9852 97.3596 49.1196 89.1544 53.2475 81.2049C48.0581 79.2881 46.8141 74.6624 45.2662 69.813C44.9129 70.4567 44.8707 70.7586 44.7139 71.0238C41.9173 76.8138 38.9314 82.417 34.6879 87.4276C31.3778 91.4128 28.2196 95.5097 25.1759 99.6434C23.9664 101.274 22.7545 103.094 22.0007 105.06C20.0952 110.126 24.1029 114.503 29.3312 113.404C30.3693 113.169 31.41 112.746 32.3758 112.173C35.5845 110.11 38.2253 107.488 40.4876 104.491ZM58.0183 103.742C53.2506 104.8 48.9629 104.308 46.4191 99.3913C45.4809 100.794 44.6199 102.158 43.7987 103.408C41.1783 107.426 37.99 110.882 34.0819 113.666C31.7221 115.306 29.1827 116.006 26.3865 115.803C22.059 115.424 18.5567 110.516 19.3817 105.986C19.8341 103.608 21.0111 101.525 22.4545 99.5907C26.0432 94.8117 29.632 90.0327 33.4871 85.4023C37.6559 80.2415 40.6044 74.5633 43.3636 68.6981C44.0329 67.3357 44.3188 65.9764 44.4527 64.5053C44.7231 61.3747 46.2136 58.7615 48.0477 56.2586C51.7559 51.1394 56.5177 47.5568 62.5226 45.6976C63.8694 45.3095 65.3682 45.0332 66.785 45.1722C70.2708 45.407 73.7591 45.4534 77.046 46.2552C81.2118 47.2759 84.1817 45.8943 86.6755 42.7829C92.8327 35.0426 99.5578 27.8629 106.965 21.2806C111.62 17.0958 116.464 13.0979 121.908 10.1127C126.735 7.4341 132.045 5.91994 137.463 5.00795C137.54 4.96962 137.617 4.93129 137.694 4.89295L138.14 5.9823C136.328 6.7889 134.439 7.63384 132.514 8.21522C126.818 9.92105 121.647 12.4894 116.886 16.072C108.562 22.3604 101.107 29.6215 94.2204 37.4433C91.7315 40.1778 89.509 43.0608 87.0201 45.7953C84.5312 48.5298 81.5263 49.6479 77.8585 48.6607C76.4068 48.2582 74.9526 48.0442 73.4611 47.755C70.2864 47.1784 67.0369 46.4516 63.8801 47.4578C55.7591 49.9 50.1338 55.0352 47.0043 62.8633C46.2903 64.7162 46.3034 66.676 46.9689 68.5927C47.5596 70.3593 48.2274 72.0876 48.7807 73.7791C51.1086 80.5819 58.272 81.05 62.6781 78.2995C66.6211 75.7791 66.888 69.9347 62.9309 67.593C60.458 66.1059 57.8307 64.6955 55.3204 63.1334C54.3691 62.5759 53.5348 61.8667 52.7378 61.2326C52.7776 61.1192 52.8946 60.9674 52.9344 60.854C55.1855 61.7022 57.3594 62.5887 59.4586 63.3251C59.7867 61.6639 60.1123 60.1912 60.438 58.7186C60.6297 58.717 60.7443 58.7537 60.936 58.7521C61.036 59.9197 61.1733 61.1624 61.1962 62.3683C61.219 63.5743 61.6699 64.2867 62.8129 64.8425C65.2135 65.991 67.649 67.403 67.8791 70.3787C68.1238 72.2236 67.8306 74.1483 67.8064 76.033C70.3758 75.974 72.0023 77.6942 73.1211 80.1349C75.3916 79.4752 77.5378 79.5328 79.5948 80.571C81.6891 81.6843 82.855 83.4461 83.5952 85.513C83.7869 85.5114 84.0558 85.4715 84.2475 85.4699L84.0339 87.1678C82.7745 95.6589 79.9934 103.22 73.014 109.309C73.2431 109.383 73.4721 109.456 73.6241 109.568L72.3121 110.219C72.2374 110.069 72.0855 109.958 72.0481 109.882C66.0661 112.948 59.0633 108.935 58.0183 103.742ZM47.8902 98.286C49.0862 100.688 51.0189 102.444 53.9369 102.118C55.8938 101.989 58.0076 101.594 59.7825 100.712C63.564 98.834 66.5159 95.8695 68.5961 92.1208C70.2458 89.054 71.5519 85.8771 71.6354 82.3711C71.7465 79.694 69.709 77.148 67.0696 76.6799C65.5393 79.4065 63.1023 81.0852 60.0673 81.5627C58.1851 81.8422 56.9455 82.8325 56.2364 84.3084C55.3332 85.9743 54.7362 87.6754 54.062 89.4148C53.9426 89.755 54.015 90.0937 54.0873 90.4323C53.8582 90.3588 53.6291 90.2853 53.4772 90.1735C52.8661 87.0125 54.1649 84.401 56.0762 81.8598C55.4263 81.7144 54.9283 81.6809 54.5449 81.684C52.2934 86.8288 50.0044 91.8985 47.8301 97.005C47.7107 97.3452 47.7034 97.9106 47.8902 98.286Z" fill="black"/>
</svg>
