<svg width="545" height="513" viewBox="0 0 545 513" fill="none" xmlns="http://www.w3.org/2000/svg">
<path d="M291.266 476.318C415.224 476.318 515.712 463.345 515.712 447.343C515.712 431.341 415.224 418.369 291.266 418.369C167.308 418.369 66.8204 431.341 66.8204 447.343C66.8204 463.345 167.308 476.318 291.266 476.318Z" fill="black"/>
<path d="M307.743 233.934C358.654 235.066 400.875 193.271 402.047 140.583C403.219 87.8938 362.898 44.2631 311.987 43.1306C261.076 41.9981 218.855 83.7928 217.683 136.482C216.511 189.17 256.832 232.801 307.743 233.934Z" fill="#D3E5E4"/>
<path d="M310.983 45.6874C299.565 44.5264 284.824 49.6831 274.276 53.2891C257.185 59.1446 239.544 68.7718 231.273 85.1408C213.517 120.261 208.69 148.413 223.71 177.757C238.73 207.101 260.101 222.514 276.911 227.338C293.286 232.053 293.707 232.176 293.722 232.176C291.009 231.393 288.001 201.295 287.51 197.912C285.017 180.92 284.197 163.726 285.002 146.581C285.867 128.064 288.639 109.645 293.283 91.6646C295.604 82.6745 298.39 73.8081 301.625 65.0934C303.205 60.8627 304.596 56.1744 306.806 52.2129C308.058 49.9732 310.351 47.9976 310.983 45.6733L310.983 45.6874Z" fill="#ACACAC"/>
<path d="M425.838 95.5203C429.033 103.854 426.534 111.281 420.874 117.717C416.941 122.207 413.95 123.784 405.177 127.075C408.239 154.113 401.163 178.445 384.611 200.142C387.108 202.366 389.579 204.476 391.905 206.71C404.935 219.344 412.776 234.427 412.831 252.923C412.887 264.375 410.004 275.096 403.497 284.645C402.049 286.753 400.086 288.523 398.288 290.51L396.118 290.136C396.375 289.376 396.761 288.591 397.301 287.809C403.067 279.151 407.222 269.791 408.347 259.3C409.991 243.861 405.415 230.211 396.524 217.839C392.518 212.251 387.573 207.521 381.798 203.864C377.333 208.087 372.912 212.269 368.26 216.643C368.924 217.31 369.561 217.919 370.198 218.543C376.369 224.746 380.963 231.863 382.75 240.562C385.431 253.575 380.503 265.894 370.271 271.86C367.806 273.293 365.524 273.512 362.678 272.329C353.092 268.317 341.454 269.419 334.479 280.304C332.823 282.903 331.883 285.717 332.714 289.065C334.076 288.26 335.242 287.322 336.583 286.827C338.751 285.997 341.014 285.381 343.304 284.823C343.702 284.732 344.296 285.369 344.799 285.678C344.464 286.096 344.185 286.557 343.796 286.889C343.493 287.137 343.066 287.269 342.681 287.388C336.524 289.476 332.218 293.533 329.765 299.558C328.867 301.749 327.956 303.939 326.937 306.482C325.588 303.547 326.183 300.938 327.144 298.451C328.103 296.035 329.329 293.724 330.546 291.115C329.763 291.352 328.979 291.647 328.208 291.97L328.082 289.345C328.508 289.298 328.918 289.279 329.386 289.232C328.349 286.247 328.297 283.483 329.604 280.72C331.858 276.022 335.263 272.385 339.666 269.677C340.727 269.034 341.545 268.5 341.055 267.029C339.145 261.318 337.492 255.513 335.425 249.841C333.719 245.14 331.642 240.573 329.623 235.979C329.381 235.421 328.433 234.762 327.895 234.807C322.137 235.458 316.376 236.28 310.63 237.045C314.332 244.241 317.449 251.623 319.883 259.203L315.883 260.375C313.463 252.768 310.331 245.385 306.787 238.121C306.382 237.262 305.026 236.537 304.011 236.373C300.461 235.713 296.895 235.152 293.315 234.562L293.87 231.23C306.132 233.232 318.999 232.809 331.8 229.693C376.387 218.837 406.728 174.983 401.364 129.329C399.461 113.145 393.76 98.5481 384.552 85.1491C375.262 71.6208 362.401 62.2079 348.473 54.3586C345.931 52.9132 343.255 51.7482 340.518 50.7662L341.32 48.4314C341.545 48.5073 341.783 48.5976 341.994 48.6732C352.842 52.5425 362.971 57.6005 371.682 65.3196C377.842 70.757 383.425 76.6775 388.156 83.3728C388.8 84.3083 389.459 85.2299 390.131 86.1802C395.356 83.3629 400.655 81.0857 406.643 81.5165C415.907 82.2044 422.552 86.8306 425.867 95.4926L425.838 95.5203ZM396.553 97.604C407.139 91.0086 417.66 92.4189 422.406 100.347C420.203 86.8633 403.454 81.1621 392.342 89.7866C393.741 92.3829 395.14 94.9933 396.553 97.604ZM378.849 251.246C380.309 237.73 373.839 227.808 364.386 219.108C354.686 225.922 344.17 230.62 332.885 233.671C335.349 239.281 337.988 244.64 340.043 250.185C342.098 255.729 343.597 261.488 345.391 267.31C352.557 265.669 359.288 266.4 365.784 270.074C366.891 269.248 367.941 268.478 368.991 267.721C374.696 263.682 378.071 258.216 378.849 251.246Z" fill="black"/>
<path d="M332.879 333.13L332.878 333.187C332.878 333.187 332.863 333.257 332.862 333.285C329.483 332.558 326.47 331.91 323.275 331.23C321.329 340.483 317.707 349.402 313.578 358.239C309.789 366.417 307.837 375.33 307.565 384.38C307.306 392.849 307.201 401.392 308.004 409.814C308.633 416.489 310.68 423.04 312.274 429.608C312.715 431.375 313.579 433.265 315.879 433.487C320.58 433.931 325.299 434.83 329.985 434.651C342.018 434.196 354.085 433.543 366.104 432.45C372.964 431.837 379.811 430.544 386.51 428.921C392.256 427.504 397.356 424.599 401.088 419.623C404.427 415.148 403.548 410.154 403.176 405.256C402.292 393.488 397.933 383.428 388.321 376.1C375.635 366.45 361.353 361.81 345.416 362.221C342.741 362.303 340.04 362.243 337.373 361.942C336.47 361.837 335.644 360.855 334.779 360.283C335.624 359.806 336.431 359.144 337.314 358.88C338.382 358.564 339.541 358.604 340.619 358.486C341.139 356.102 341.472 353.828 342.157 351.647C342.752 349.69 342.452 348.578 340.494 347.57C334.689 344.621 331.779 339.993 332.89 333.286C332.918 333.287 332.961 333.302 332.989 333.302L332.908 333.131L332.879 333.13ZM407.272 404.894C408.005 413.938 406.001 422.609 404.223 431.328C403.761 433.67 402.23 435.081 400.134 435.814C395.615 437.4 391.114 439.426 386.442 440.243C373.448 442.505 360.375 444.567 347.271 446.061C340.748 446.809 334.079 446.434 327.498 445.961C320.239 445.46 313.919 442.145 309.087 436.793C307.181 434.696 306.792 431.201 305.867 428.289C305.496 427.147 305.581 425.874 305.045 424.544C304.879 425.022 304.727 425.501 304.575 425.965L300.77 424.69C301.307 423.426 301.665 421.96 301.857 420.306C303.61 405.748 303.507 391.305 300.347 376.935C299.152 371.509 297.603 366.117 295.337 361.121L298.451 359.759C300.605 364.71 302.616 369.658 304.632 374.408C304.663 374.296 304.792 373.576 305.006 372.872C306.969 366.666 308.498 360.251 310.993 354.27C314.278 346.491 317.182 338.662 319.021 330.412C319.443 328.594 319.087 327.452 317.844 326.078C310.952 318.598 307.371 305.352 316.774 296.59C320.891 292.771 321.241 289.094 320.774 284.01C320.036 275.858 318.301 268.025 315.867 260.417L319.868 259.245C322.99 269.008 324.944 279.085 325.418 289.569C326.438 289.493 327.26 289.426 328.067 289.373L328.193 291.998C320.478 295.412 314.266 303.791 314.699 310.405C315.046 315.783 317.122 320.393 320.713 324.285C324.747 328.627 329.66 330.961 335.792 330.034C335.745 330.855 335.706 331.336 335.696 331.79C335.614 334.835 335.472 338.02 337.683 340.394C341.828 344.808 346.849 347.4 353.163 346.548C355.05 346.293 356.962 346.151 359.443 345.909C358.817 347.355 358.459 348.183 357.952 349.334L357.613 351.225C353.837 350.588 350.222 350.919 346.4 350.423C345.619 353.07 344.87 355.618 344.043 358.463C346.769 358.608 349.169 358.846 351.573 358.885C359.761 358.954 367.685 360.746 375.051 364.084C381.913 367.199 388.652 370.793 394.204 376.174C402.304 384.064 406.361 393.72 407.272 404.908L407.272 404.894Z" fill="black"/>
<path d="M396.51 217.839C405.401 230.21 409.977 243.86 408.332 259.3C407.208 269.79 403.067 279.151 397.287 287.809C396.76 288.605 396.361 289.376 396.104 290.135C395.469 291.964 395.584 293.78 396.289 295.808C402.285 313.033 397.148 327.771 385.836 340.912C381.001 346.516 374.249 348.633 367.05 349.224C364.089 349.456 361.094 349.276 357.953 349.291C358.46 348.14 358.818 347.312 359.444 345.866C356.963 346.123 355.05 346.265 353.164 346.506C346.85 347.358 341.843 344.766 337.684 340.351C335.473 337.978 335.601 334.778 335.697 331.747C335.707 331.28 335.732 330.813 335.793 329.992C329.661 330.918 324.748 328.584 320.714 324.243C317.109 320.35 315.033 315.741 314.7 310.362C314.267 303.748 320.479 295.383 328.194 291.955C328.965 291.632 329.749 291.338 330.533 291.1C329.314 293.723 328.089 296.02 327.13 298.436C326.17 300.924 325.56 303.532 326.923 306.467C327.956 303.925 328.854 301.72 329.751 299.543C332.205 293.518 336.51 289.462 342.667 287.374C343.066 287.241 343.493 287.123 343.782 286.874C344.171 286.543 344.45 286.081 344.785 285.663C344.283 285.355 343.674 284.717 343.29 284.808C341.015 285.367 338.738 285.982 336.569 286.813C335.228 287.307 334.062 288.245 332.7 289.051C331.869 285.702 332.809 282.889 334.465 280.289C341.426 269.404 353.078 268.317 362.665 272.314C365.509 273.511 367.778 273.278 370.257 271.845C380.489 265.88 385.417 253.561 382.736 240.548C380.95 231.835 376.369 224.732 370.184 218.529C369.547 217.905 368.91 217.281 368.246 216.629C372.898 212.254 377.319 208.072 381.784 203.849C387.56 207.492 392.504 212.222 396.51 217.824L396.51 217.839Z" fill="#D3E5E4"/>
<path d="M422.407 100.347C417.646 92.4186 407.139 90.9945 396.553 97.6041C395.14 94.9933 393.741 92.3829 392.342 89.7866C403.454 81.1621 420.203 86.8634 422.407 100.347Z" fill="#D3E5E4"/>
<path d="M403.162 405.242C403.534 410.139 404.413 415.133 401.075 419.608C397.343 424.585 392.242 427.504 386.496 428.907C379.812 430.53 372.951 431.822 366.091 432.435C354.071 433.528 342.004 434.195 329.971 434.636C325.299 434.802 320.566 433.917 315.866 433.472C313.565 433.251 312.702 431.361 312.26 429.594C310.666 423.025 308.633 416.489 307.99 409.8C307.187 401.392 307.292 392.849 307.551 384.365C307.823 375.315 309.776 366.402 313.565 358.224C317.68 349.373 321.315 340.469 323.261 331.215C326.471 331.896 329.469 332.544 332.848 333.271C331.723 339.978 334.647 344.606 340.452 347.555C342.41 348.563 342.71 349.675 342.115 351.631C341.43 353.799 341.097 356.087 340.577 358.471C339.499 358.588 338.34 358.534 337.272 358.865C336.375 359.114 335.582 359.791 334.737 360.268C335.601 360.854 336.428 361.822 337.331 361.927C339.998 362.228 342.699 362.288 345.374 362.205C361.325 361.795 375.593 366.435 388.279 376.085C397.891 383.413 402.264 393.473 403.134 405.241L403.162 405.242Z" fill="#D3E5E4"/>
<path d="M398.288 290.51C406.42 309.667 403.015 329.829 388.999 343.746C380.87 351.799 370.926 354.937 360.049 351.747C359.234 351.502 358.417 351.328 357.628 351.197L357.967 349.306C361.108 349.29 364.103 349.456 367.064 349.239C374.263 348.648 381.015 346.53 385.85 340.927C397.162 327.8 402.299 313.048 396.303 295.823C395.598 293.795 395.483 291.978 396.118 290.15L398.288 290.524L398.288 290.51Z" fill="black"/>
<path d="M340.038 166.484C346.548 168.883 350.164 175.468 348.875 183.191C347.026 194.445 341.813 203.711 331.792 209.667C317.4 218.219 302.17 219.312 286.624 213.58C278.346 210.519 272.355 204.505 269.535 195.854C268.077 191.414 268.633 187.43 272.12 183.922C273.031 183.007 273.487 182.861 274.64 183.17C278.001 184.067 281.408 184.78 284.687 185.548C284.334 183.641 284.007 181.777 283.653 179.898L284.988 179.659L285.131 180.229C287.018 186.988 285.659 185.725 292.133 185.94C292.783 185.969 293.436 185.87 294.088 185.799C301.748 184.864 307.866 180.72 313.96 176.363C318.258 173.284 322.722 170.393 327.321 167.775C331.26 165.538 335.633 164.842 340.038 166.484ZM340.599 194.671C329.058 192.076 318.325 193.835 308.099 200.113C310.688 201.389 312.999 202.404 315.193 203.615C316.157 204.147 317.001 205.002 317.703 205.882C318.02 206.272 317.833 207.047 317.89 207.643C317.805 207.641 317.706 207.653 317.593 207.665C317.167 207.726 316.712 207.83 316.361 207.709C314.732 207.176 313.147 206.56 311.578 205.873C306.675 203.752 301.704 202.082 296.198 202.881C291.785 203.52 287.615 204.646 284.193 207.787C291.806 214.022 306.07 214.381 318.455 210.859C328.975 207.862 338.129 202.042 340.599 194.657L340.599 194.671Z" fill="black"/>
<path d="M341.04 267.057C341.53 268.542 340.698 269.062 339.652 269.705C335.263 272.413 331.844 276.05 329.589 280.748C328.283 283.511 328.32 286.275 329.371 289.26C328.903 289.307 328.493 289.326 328.067 289.373C327.26 289.426 326.438 289.493 325.418 289.569C324.93 279.085 322.99 269.008 319.868 259.245C317.448 251.666 314.317 244.283 310.615 237.087C316.361 236.322 322.122 235.515 327.88 234.849C328.433 234.79 329.366 235.463 329.608 236.021C331.627 240.615 333.705 245.168 335.41 249.883C337.463 255.555 339.13 261.346 341.04 267.071L341.04 267.057Z" fill="#D3E5E4"/>
<path d="M339.667 123.379C339.684 123.89 339.147 124.501 338.741 124.96C336.127 127.977 333.444 130.95 330.859 133.996C328.854 136.375 329.308 137.59 332.432 138.325C334.472 138.81 336.545 139.111 339.348 139.641C337.59 144.265 335.951 148.608 334.313 152.936C334.089 152.846 333.879 152.756 333.654 152.681C334.211 153.076 334.74 153.47 335.52 154.026C332.096 154.701 328.956 155.297 325.816 155.95C323.826 156.373 321.875 156.954 319.86 157.235C318.966 157.371 318.015 156.896 317.071 156.691C317.738 155.983 318.336 155.16 319.113 154.582C319.732 154.114 320.584 153.963 321.425 153.642C317.543 148.226 316.208 142.089 316.42 135.758C316.626 129.017 317.103 122.197 318.283 115.562C318.928 112.034 320.791 108.404 323.033 105.549C327.459 99.8653 333.952 99.2445 337.466 107.231C339.742 112.397 339.491 117.919 339.667 123.379Z" fill="black"/>
<path d="M242.006 51.5793C242.006 51.5793 242.089 51.652 242.117 51.681C242.173 51.7106 242.229 51.7402 242.285 51.7556C242.187 51.6967 242.104 51.6382 241.992 51.579L242.006 51.5793ZM241.978 51.5504C242.828 51.5126 243.716 51.6599 244.513 51.4508C250.533 49.8132 256.278 50.3237 261.785 53.3373C262.273 53.6174 263.075 53.8337 263.532 53.6312C267.175 52.0258 270.749 50.3055 274.623 48.5067C269.099 43.0977 262.809 41.002 255.365 42.4379C249.568 43.5561 245.418 47.0068 241.993 51.5365L241.978 51.5504ZM341.291 48.445L340.49 50.7797C334.427 48.6324 327.988 47.483 321.556 46.6596C314.602 45.7822 314.6 45.853 310.764 51.7057C310.31 52.3759 309.885 53.0751 309.417 53.7449C295.085 75.4778 290.008 100.237 286.337 125.396C285.486 131.201 285.524 137.14 285.053 143.011C284.859 145.388 284.538 147.733 284.231 150.093L282.166 150.104C281.978 112.77 287.974 77.2187 310.97 45.6022C305.671 45.9945 300.846 46.0714 296.12 46.7741C234.485 55.8337 197.884 121.005 224.52 178.852C237.69 207.447 263.989 226.427 293.841 231.243L293.286 234.576C290.425 234.115 287.593 233.627 284.762 233.082C280.508 232.265 280.4 232.021 279.22 236.105C274.792 251.397 272.1 266.842 273.015 282.947C274.221 304.388 278.69 324.81 289.29 343.64C291.195 347.055 293.959 349.979 295.62 353.488C296.593 355.565 297.536 357.655 298.452 359.744L295.338 361.107C293.976 358.1 292.356 355.23 290.421 352.565C282.954 342.337 277.954 331.171 274.387 319.216C270.623 306.533 268.862 293.498 268.774 280.288C268.735 273.768 268.712 267.177 269.619 260.735C271.014 250.817 272.889 240.924 276.987 231.577C271.959 229.311 267.001 227.103 261.595 224.673C243.44 269.464 246.051 313.611 263.985 357.603C265.401 357.535 266.551 357.334 267.679 357.487C268.511 357.605 269.305 358.161 270.117 358.519C269.424 359.184 268.835 360.234 268.009 360.456C265.42 361.136 262.776 361.686 260.11 361.995C246.511 363.507 234.528 368.697 224.075 377.548C217.4 383.21 212.19 389.784 210.113 398.567C208.769 404.291 208.316 410.02 209.178 415.821C209.522 418.125 209.539 420.577 210.426 422.652C212.401 427.33 216.285 430.18 220.97 431.928C227.872 434.505 235.097 435.318 242.391 434.899C252.971 434.284 263.527 433.484 274.074 432.486C280.609 431.866 287.098 430.721 293.598 429.774C297.344 429.248 299.549 427.44 300.77 424.662L304.575 425.937C304.318 426.696 304.06 427.47 303.789 428.229C301.477 434.229 298.634 439.948 292.118 442.241C289.039 443.32 285.585 443.442 282.307 443.907C268.528 445.854 254.715 446.213 240.824 445.578C232.981 445.234 225.178 444.975 217.541 443.019C215.599 442.537 213.857 441.393 212.038 440.488C211.632 440.295 211.216 439.903 210.985 439.501C209.584 436.989 208.225 434.465 206.91 431.927C206.585 431.282 206.178 430.494 206.277 429.844C207.262 423.701 204.775 417.878 204.613 411.808C204.26 397.813 208.92 386.069 219.384 376.707C230.771 366.501 243.939 360.204 259.184 358.46C259.51 358.439 259.824 358.333 260.747 358.155C250.103 336.83 245.955 314.119 245.472 290.654C244.99 267.174 248.383 244.39 258.749 222.852C256.966 221.636 255.053 220.531 253.372 219.147C248.759 215.388 243.844 211.892 239.78 207.592C219.521 186.11 195.304 171.499 166.618 164.483C157.614 162.271 148.503 160.424 139.34 158.973C133.124 157.984 127.08 159.451 121.33 162.314C112.876 166.533 104.326 170.623 95.6829 174.456C88.6537 177.587 81.2655 179.053 73.4923 178.114C72.3072 177.975 70.6825 178.52 69.7449 179.335C67.5822 181.172 65.5842 183.239 63.7674 185.423C58.8381 191.45 53.4145 196.8 45.8607 199.353C41.7416 200.749 37.6556 200.659 33.7708 198.517C30.0683 196.451 28.0297 193.344 27.772 189.03C27.7319 188.292 27.2597 187.262 26.6735 186.908C17.0525 181.281 14.3885 171.315 20.2022 161.779C21.7148 159.276 23.7292 157.11 25.5498 154.755C21.9089 150.55 21.3987 144.87 24.5777 139.315C28.2717 132.863 33.9914 128.824 40.838 126.269C47.6847 123.715 54.6836 121.943 61.9916 121.539C62.6715 121.497 63.5076 120.793 63.9321 120.151C66.4352 116.366 68.8415 112.479 71.479 108.372C67.771 103.371 66.2828 97.1451 65.7484 90.6424C65.3155 85.3041 66.5012 80.3277 69.7647 76.0637C73.3495 71.3391 78.1036 68.738 84.1969 69.5254C90.4457 70.3164 94.8391 73.7587 97.5279 79.4306C99.5271 83.67 99.513 88.1197 98.9173 92.6415C98.5062 95.8636 98.0526 99.0847 97.5465 102.758C105.539 101.476 111.493 104.698 117.02 109.314C124.117 115.225 132.101 119.414 141.008 122.177C159.258 127.798 177.218 134.334 194.133 143.355C200.368 146.697 206.161 150.822 212.173 154.598C212.439 154.76 212.747 154.88 213.166 155.102C212.838 152.048 212.45 149.177 212.259 146.281C210.532 120.294 218.144 97.3061 234.547 77.1923C236.074 75.3272 236.613 73.9787 235.764 71.4656C230.177 54.9159 242.294 37.9806 259.673 38.2679C266.531 38.3638 272.758 40.784 277.213 46.5519C277.597 47.0565 278.924 47.1994 279.636 46.9885C291.784 43.2764 304.166 41.8086 316.816 42.8978C325.23 43.6377 333.319 45.66 341.277 48.4447L341.291 48.445ZM218.958 184.1C221.068 185.904 223.162 187.764 225.271 189.597C220.479 180.562 216.441 171.345 214.329 161.364C214.201 160.752 213.593 160.086 213.022 159.705C206.41 155.519 199.975 151.011 193.097 147.329C176.056 138.234 157.926 131.68 139.508 126.013C130.025 123.095 121.638 118.557 114.142 112.183C109.921 108.589 105.251 106.161 99.5345 106.232C97.6101 106.26 95.6631 106.033 93.6428 105.917C93.7664 104.814 93.9342 103.627 94.0173 102.439C94.448 97.063 95.1757 91.6938 95.1396 86.3218C95.1136 79.8588 90.2899 74.7771 84.087 73.8313C78.7581 73.0183 73.5057 76.402 71.4184 82.4779C68.6182 90.7204 70.9804 98.355 74.6201 105.791C75.0619 105.645 75.3038 105.58 75.5322 105.486C76.7623 104.875 78.0467 104.365 78.9317 105.915C79.7893 107.423 78.7238 108.263 77.6433 109.146C76.4914 110.056 75.3801 111.052 74.45 112.165C63.129 125.731 58.7394 141.832 57.5359 159.052C57.4935 159.689 57.8868 160.449 58.2996 160.968C59.4981 162.412 58.9404 163.321 57.5102 164.026C56.5663 164.487 55.5678 164.862 54.5828 165.265C46.6308 168.546 39.8881 173.427 35.0184 180.589C33.7895 182.418 32.8342 184.664 32.4605 186.839C31.6128 191.879 34.5914 195.333 39.7591 195.759C43.4165 196.039 46.8208 194.981 49.6003 192.761C53.3584 189.784 56.6893 186.301 60.3238 183.164C63.5978 180.332 66.7637 177.27 70.4477 175.085C72.44 173.91 75.4115 174.501 77.8698 174.003C83.0407 173.012 88.4146 172.437 93.2661 170.547C100.843 167.598 108.222 164.02 115.366 160.155C125.532 154.627 136.13 153.233 147.341 155.395C162.764 158.374 177.806 162.592 192.236 168.894C201.678 173.015 211.018 177.276 218.958 184.071L218.958 184.1ZM60.597 125.731C60.2435 125.723 59.7506 125.627 59.3239 125.731C54.3317 126.952 49.287 127.988 44.4017 129.495C38.2909 131.4 32.9979 134.698 29.2013 140.041C26.3256 144.044 26.1006 148.433 27.4284 153.607C36.1999 147.183 45.764 144.562 55.7681 143.14C57.3664 137.422 58.9525 131.618 60.6117 125.703L60.597 125.731ZM55.1602 160.927C55.0675 156.191 54.9685 151.739 54.8617 147.003C53.0554 147.445 51.2224 147.815 49.4435 148.3C42.1131 150.348 34.9708 152.839 29.0867 157.909C24.9185 161.516 22.0506 165.803 21.6839 171.477C21.3795 176.261 24.7192 182.557 28.1287 183.809C33.8234 171.988 43.334 164.774 55.1744 160.927L55.1602 160.927Z" fill="black"/>
<path d="M332.961 333.302C332.961 333.302 332.89 333.286 332.862 333.285C332.863 333.257 332.878 333.215 332.878 333.187L332.879 333.13L332.961 333.302Z" fill="black"/>
<path d="M308.099 200.113C318.325 193.821 329.058 192.061 340.599 194.671C338.129 202.07 328.975 207.876 318.455 210.873L317.592 207.679C317.691 207.667 317.791 207.655 317.89 207.657C317.832 207.061 318.02 206.271 317.703 205.896C317 205.03 316.157 204.175 315.193 203.629C312.999 202.418 310.688 201.389 308.099 200.127L308.099 200.113Z" fill="#F46262"/>
<path d="M317.578 207.679L318.441 210.873C306.056 214.395 291.791 214.035 284.178 207.8C287.587 204.645 291.77 203.519 296.184 202.895C301.676 202.096 306.66 203.765 311.564 205.887C313.133 206.574 314.732 207.19 316.346 207.722C316.697 207.843 317.152 207.74 317.578 207.679Z" fill="#F46262"/>
<path d="M313.555 55.9345C314.133 56.6843 315.329 57.6179 315.162 58.1243C314.811 59.2503 313.773 60.1342 313.002 61.0949C312.663 61.0591 312.325 60.9949 311.958 60.9584C311.512 60.0556 310.464 58.8418 310.743 58.352C311.317 57.3444 312.576 56.7205 313.555 55.9345Z" fill="black"/>
<path d="M300.347 376.935C303.507 391.291 303.61 405.748 301.857 420.306C301.665 421.96 301.307 423.426 300.77 424.69C299.548 427.469 297.344 429.262 293.597 429.802C287.098 430.749 280.608 431.894 274.073 432.514C263.527 433.513 252.957 434.298 242.39 434.927C235.096 435.346 227.886 434.534 220.97 431.957C216.284 430.208 212.401 427.358 210.425 422.68C209.538 420.606 209.522 418.153 209.177 415.85C208.316 410.034 208.769 404.319 210.112 398.595C212.189 389.798 217.399 383.239 224.075 377.577C234.527 368.711 246.51 363.535 260.109 362.024C262.775 361.729 265.419 361.164 268.009 360.485C268.834 360.262 269.423 359.212 270.117 358.547C269.304 358.189 268.51 357.633 267.679 357.515C266.55 357.377 265.414 357.564 263.984 357.631C246.064 313.64 243.439 269.506 261.594 224.701C267 227.132 271.944 229.339 276.986 231.605C272.888 240.953 271.013 250.846 269.618 260.763C268.711 267.206 268.734 273.81 268.773 280.316C268.876 293.527 270.623 306.561 274.386 319.244C277.939 331.199 282.953 342.351 290.421 352.593C292.356 355.258 293.961 358.128 295.337 361.135C297.602 366.146 299.152 371.523 300.346 376.949L300.347 376.935Z" fill="#ACACAC"/>
<path d="M303.528 160.131C307.638 164.261 307.074 169.237 302.128 172.231C300.479 173.215 298.593 174.066 296.719 174.378C292.885 175.016 288.991 175.227 284.667 175.669C284.781 176.862 284.721 178.306 284.988 179.659L283.653 179.898C283.338 178.148 283.01 176.383 282.683 174.548C281.626 174.354 280.23 174.182 278.909 173.798C275.353 172.741 271.724 171.838 268.318 170.416C266.525 169.653 264.918 168.101 263.665 166.571C260.827 163.163 261.216 159.034 264.851 156.507C267.049 154.983 269.733 153.866 272.363 153.287C275.746 152.54 279.269 152.519 282.203 152.245C282.205 151.522 282.178 150.813 282.194 150.09L284.26 150.079C284.158 150.857 284.069 151.648 283.967 152.426C286.657 152.953 288.984 153.288 291.276 153.892C295.79 155.069 300.153 156.711 303.543 160.117L303.528 160.131ZM302.052 166.093C302.835 163.97 300.646 162.519 299.004 161.292C298.281 160.765 297.528 160.253 296.716 159.894C288.217 155.964 279.477 154.622 270.386 157.566C268.363 158.215 266.209 159.032 265.83 161.461C265.452 163.833 267.304 165.15 268.932 166.362C270.045 167.167 271.23 167.987 272.522 168.412C276.609 169.693 280.757 170.806 285.115 172.037C289.345 171.366 293.654 170.965 297.767 169.881C299.446 169.422 301.464 167.71 302.052 166.093Z" fill="black"/>
<path d="M303.592 78.4305C305.331 78.4692 306.044 79.4629 306.42 81.6679C305.441 82.3973 304.537 83.6243 303.474 83.7424C301.644 83.9568 301.043 82.3845 301.106 80.7845C301.141 79.2405 301.994 78.3808 303.592 78.4305Z" fill="black"/>
<path d="M298.99 161.291C300.632 162.518 302.821 163.97 302.038 166.092C301.45 167.709 299.432 169.422 297.752 169.88C293.64 170.965 289.331 171.365 285.101 172.036C280.744 170.792 276.595 169.693 272.507 168.412C271.215 167.986 270.031 167.18 268.918 166.362C267.29 165.149 265.438 163.819 265.816 161.46C266.195 159.031 268.349 158.215 270.372 157.565C279.462 154.621 288.203 155.964 296.701 159.894C297.514 160.252 298.266 160.765 298.99 161.291Z" fill="#F46262"/>
<path d="M296.255 221.32C296.716 222.209 297.615 223.108 297.526 223.928C297.439 224.677 296.307 225.303 295.642 225.983C294.965 225.231 293.821 224.525 293.726 223.715C293.658 222.949 294.724 222.08 295.266 221.255C295.605 221.263 295.93 221.284 296.255 221.306L296.255 221.32Z" fill="black"/>
<path d="M296.914 100.716C298.394 100.352 299.44 101.651 299.167 103.091C298.96 104.135 297.95 105.019 297.293 105.954C296.94 105.946 296.601 105.925 296.247 105.903C295.66 104.983 294.466 103.964 294.624 103.202C294.802 102.214 295.947 100.964 296.914 100.716Z" fill="black"/>
<path d="M290.952 178.643C291.413 179.504 292.312 180.431 292.223 181.251C292.136 181.986 291.004 182.627 290.339 183.306C289.662 182.554 288.518 181.849 288.423 181.025C288.355 180.272 289.421 179.389 289.963 178.565C290.302 178.586 290.627 178.608 290.952 178.643Z" fill="black"/>
<path d="M292.52 124.031C293.506 124.237 294.3 125.388 295.884 126.685C294.149 127.752 293.134 128.849 292.216 128.786C291.411 128.74 290.195 127.423 290.06 126.527C289.865 125.106 290.817 123.667 292.506 124.016L292.52 124.031Z" fill="black"/>
<path d="M291.006 143.767C291.467 144.656 292.353 145.555 292.264 146.375C292.19 147.124 291.059 147.751 290.379 148.43C289.703 147.678 288.558 146.972 288.477 146.163C288.395 145.396 289.447 144.526 290.017 143.703C290.342 143.724 290.667 143.731 291.006 143.753L291.006 143.767Z" fill="black"/>
<path d="M268.864 117.241C268.878 117.879 268.141 118.613 267.647 119.198C265.047 122.229 262.364 125.202 259.82 128.278C258.221 130.212 258.687 131.555 261.135 132.148C263.33 132.678 265.572 132.997 268.615 133.561C266.827 138.255 265.19 142.527 263.553 146.813C263.328 146.723 263.09 146.632 262.88 146.543C263.436 146.952 263.965 147.346 264.856 147.99C262.698 148.353 260.896 148.596 259.12 148.968C255.623 149.712 252.153 150.584 248.643 151.271C247.919 151.411 247.083 150.854 246.31 150.624C246.819 149.969 247.219 149.156 247.866 148.689C248.642 148.153 249.637 147.949 250.65 147.56C246.781 142.16 245.446 136.022 245.644 129.691C245.85 122.95 246.257 116.114 247.507 109.509C248.227 105.741 250.21 101.832 252.708 98.9252C257.367 93.5726 263.067 93.6143 266.461 100.662C269.004 105.892 268.706 111.639 268.879 117.241L268.864 117.241Z" fill="black"/>
<path d="M274.608 48.5206C270.749 50.3197 267.161 52.0255 263.518 53.6451C263.047 53.8331 262.259 53.6313 261.77 53.3512C256.264 50.3376 250.518 49.813 244.498 51.4647C243.715 51.6741 242.828 51.5268 241.964 51.5642C245.389 47.0204 249.539 43.5838 255.336 42.4656C262.794 41.0301 269.07 43.1254 274.594 48.5345L274.608 48.5206Z" fill="#ACACAC"/>
<path d="M225.272 189.583C223.162 187.764 221.068 185.904 218.958 184.085C211.018 177.29 201.678 173.029 192.235 168.908C177.806 162.606 162.764 158.389 147.341 155.409C136.13 153.247 125.532 154.627 115.366 160.169C108.221 164.049 100.828 167.626 93.2658 170.561C88.4143 172.452 83.0408 173.012 77.8695 174.017C75.3971 174.515 72.4256 173.924 70.4474 175.099C66.7634 177.284 63.5975 180.346 60.3235 183.178C56.6891 186.315 53.3582 189.798 49.6 192.775C46.8209 194.981 43.4163 196.053 39.7588 195.773C34.6052 195.347 31.6267 191.894 32.4602 186.853C32.8339 184.679 33.7892 182.432 35.0181 180.603C39.8878 173.441 46.6306 168.56 54.5825 165.279C55.5675 164.876 56.566 164.501 57.5099 164.04C58.9401 163.335 59.4979 162.426 58.2993 160.983C57.8865 160.463 57.4932 159.703 57.5357 159.066C58.7391 141.846 63.1287 125.745 74.4498 112.179C75.3801 111.052 76.4912 110.07 77.643 109.161C78.7236 108.278 79.7749 107.436 78.9314 105.93C78.0467 104.365 76.7479 104.889 75.5319 105.5C75.3035 105.594 75.0616 105.659 74.6198 105.805C70.9804 98.3549 68.6321 90.7348 71.4182 82.492C73.5054 76.4161 78.7579 73.0324 84.0867 73.8454C90.2897 74.7912 95.1134 79.8729 95.1393 86.3359C95.1755 91.7079 94.4336 97.0768 94.017 102.453C93.934 103.641 93.7803 104.829 93.6426 105.931C95.6769 106.047 97.6098 106.274 99.5342 106.246C105.251 106.175 109.921 108.603 114.141 112.197C121.638 118.572 130.024 123.109 139.508 126.027C157.926 131.68 176.056 138.248 193.097 147.343C199.975 151.011 206.41 155.533 213.021 159.719C213.593 160.086 214.215 160.752 214.328 161.378C216.44 171.36 220.465 180.576 225.271 189.611L225.272 189.583Z" fill="#ACACAC"/>
<path d="M59.3095 125.745C59.7361 125.641 60.2291 125.737 60.5825 125.745C58.9374 131.661 57.3375 137.45 55.7389 143.182C45.7489 144.604 36.1849 147.226 27.3992 153.649C26.0573 148.474 26.2964 144.086 29.172 140.083C32.9549 134.725 38.2479 131.427 44.3725 129.537C49.2723 128.016 54.3025 126.994 59.2947 125.773L59.3095 125.745Z" fill="#ACACAC"/>
<path d="M54.8473 147.017C54.9683 151.753 55.0531 156.205 55.1458 160.941C43.3051 164.801 33.7949 172.002 28.1001 183.822C24.6765 182.57 21.3368 176.274 21.6554 171.491C22.0217 165.83 24.8758 161.529 29.0581 157.923C34.9567 152.839 42.0848 150.347 49.4149 148.313C51.1939 147.829 53.041 147.459 54.8332 147.017L54.8473 147.017Z" fill="#ACACAC"/>
<path d="M345.902 59.3043C356.193 65.3295 365.601 72.8941 373.464 81.884C377.436 86.4507 381.418 91.2444 383.681 96.9777C385.959 102.655 387.161 109.016 386.036 115.085L385.498 115.116C384.529 112.246 383.6 109.518 382.512 106.886C380.31 101.622 377.517 96.7981 374.756 91.819C372.011 86.7694 368.493 82.1419 364.685 77.8198C358.934 71.201 352.547 65.1492 345.609 59.7513L345.902 59.3043Z" fill="#F5F5F5"/>
<path d="M292.113 232.013C290.607 225.928 289.544 219.683 288.961 213.448L290.236 213.335C290.82 219.513 291.871 225.687 293.35 231.7L292.113 232.013Z" fill="black"/>
</svg>
