<svg width="232" height="235" viewBox="0 0 232 235" fill="none" xmlns="http://www.w3.org/2000/svg">
<g clip-path="url(#clip0_1_534)">
<path d="M36.3161 112.769L37.3976 107.654L52.0059 104.467L39.9516 95.6184L41.0331 90.5037L63.6847 95.3167L62.7062 99.9134L48.2745 96.8485L58.6551 104.158L57.9287 107.586L45.4653 110.046L59.8969 113.111L58.9484 117.574L36.2997 112.768L36.3161 112.769Z" fill="#222222"/>
<path d="M61.4576 85.2361L64.1471 86.9902C64.5929 87.277 64.8657 87.2222 65.1524 86.7764L67.4437 83.2592C67.7305 82.8134 67.6756 82.5406 67.2298 82.2539L66.0649 81.4949L68.5599 77.6724L69.8363 78.5031C72.3029 80.1138 72.695 81.9876 71.091 84.4513L67.7147 89.6364C66.1107 92.1001 64.2301 92.4952 61.7665 90.8912L54.0033 85.8325C51.5396 84.2284 51.1446 82.3479 52.7486 79.8842L56.1278 74.7058C57.7318 72.2422 59.6124 71.8471 62.076 73.4511L67.0383 76.684L61.4538 85.2458L61.4576 85.2361ZM56.6068 82.0749L58.8795 83.5537L61.969 78.8144L59.6963 77.3356C59.2505 77.0489 58.9777 77.1037 58.691 77.5495L56.3997 81.0666C56.1129 81.5124 56.1677 81.7852 56.6135 82.072L56.6068 82.0749Z" fill="#222222"/>
<path d="M73.1013 75.4188L66.3689 68.2186L64.4374 70.0232L61.9098 67.3163L63.8931 65.4651L60.9536 62.3285L64.1871 59.2986L67.1267 62.4352L69.9725 59.7668L72.5001 62.4736L69.6964 65.0915L76.2917 72.143C76.6532 72.5307 76.9361 72.5356 77.317 72.1771L79.5881 70.048L82.1624 72.8066L79.1677 75.6121C77.0213 77.6226 75.1021 77.5614 73.0886 75.4083L73.1013 75.4188Z" fill="#222222"/>
<path d="M80.2833 67.6915C78.4664 64.4261 79.3405 62.385 81.6604 60.6436C82.8324 59.7637 84.5456 58.5435 86.43 57.3849L85.2751 55.3064C85.0164 54.8419 84.7504 54.7654 84.2859 55.0241L80.9292 56.8888C80.4646 57.1475 80.3881 57.4135 80.6468 57.878L81.1613 58.8004L77.2314 60.9873L76.6359 59.9158C75.2007 57.342 75.7286 55.5 78.3024 54.0649L83.3308 51.2707C85.9045 49.8356 87.7466 50.3635 89.1817 52.9373L95.7784 64.7915L91.7908 67.0116L90.4435 64.584C90.2053 66.6124 89.8056 68.2702 86.9712 69.843C83.9636 71.5154 82.0884 70.9298 80.2862 67.6982L80.2833 67.6915ZM89.2788 62.5017L87.8437 59.9279L84.1434 63.009C83.4752 63.5731 83.322 63.9206 83.9839 65.1074C84.6789 66.352 84.978 66.4862 85.8427 66.0049C87.7519 64.9398 88.4435 63.8042 89.2721 62.5046L89.2788 62.5017Z" fill="#222222"/>
<path d="M91.7002 41.0245L96.0719 39.7035L103.042 62.8221L98.6703 64.1431L91.7002 41.0245Z" fill="#222222"/>
<path d="M104.994 38.4536L117.084 37.7845C120.223 37.6102 121.789 39.0124 121.963 42.152L122.136 45.2521C122.219 46.8036 121.724 48.0219 120.254 48.9356C121.943 49.5706 122.713 50.8224 122.796 52.3739L123.001 56.0056C123.175 59.1452 121.773 60.7109 118.633 60.8852L106.286 61.5704L105.01 38.4544L104.994 38.4536ZM117.592 56.6401C118.084 56.61 118.241 56.4372 118.218 55.9422L117.992 51.7827C117.968 51.2877 117.789 51.1334 117.294 51.1568L110.489 51.5338L110.794 57.0142L117.599 56.6372L117.592 56.6401ZM116.797 47.0753C117.289 47.0452 117.446 46.8724 117.423 46.3774L117.218 42.7457C117.195 42.2507 117.015 42.0964 116.52 42.1198L109.98 42.4778L110.257 47.4332L116.794 47.0686L116.797 47.0753Z" fill="#222222"/>
<path d="M131.384 54.8455L130.563 57.946C130.427 58.4623 130.57 58.6969 131.079 58.8356L135.141 59.9112C135.65 60.0498 135.892 59.9045 136.03 59.3949L136.384 58.054L140.799 59.2239L140.406 60.6944C139.651 63.5417 137.994 64.5048 135.147 63.7497L129.166 62.1718C126.319 61.4167 125.356 59.7597 126.111 56.9125L128.477 47.9579C129.232 45.1106 130.889 44.1475 133.736 44.9026L139.717 46.4805C142.564 47.2357 143.527 48.8926 142.772 51.7398L141.257 57.4605L131.377 54.8484L131.384 54.8455ZM132.866 49.2515L132.172 51.8715L137.639 53.3205L138.333 50.7004C138.472 50.1909 138.327 49.9495 137.817 49.8109L133.755 48.7353C133.239 48.5996 133.005 48.742 132.866 49.2515Z" fill="#222222"/>
<path d="M143.328 61.1446C145.283 57.9587 147.488 57.7189 150.146 58.8854C151.487 59.4792 153.389 60.3658 155.327 61.4451L156.573 59.4104C156.85 58.9608 156.786 58.6842 156.336 58.4071L153.064 56.4019C152.614 56.1248 152.338 56.1893 152.064 56.6456L151.51 57.5448L147.676 55.1908L148.32 54.1482C149.857 51.6416 151.721 51.1896 154.238 52.7306L159.142 55.7399C161.649 57.277 162.101 59.1409 160.56 61.6572L153.478 73.2215L149.584 70.838L151.035 68.4651C149.157 69.252 147.51 69.7219 144.748 68.0232C141.817 66.2301 141.401 64.3024 143.338 61.1484L143.328 61.1446ZM152.271 66.4265L153.808 63.9198L149.309 62.209C148.493 61.8995 148.119 61.9424 147.406 63.1032C146.661 64.3183 146.693 64.6492 147.542 65.1611C149.401 66.2989 150.735 66.3426 152.274 66.4333L152.271 66.4265Z" fill="#222222"/>
<path d="M168.315 62.798L171.484 66.0915L169.477 68.0172C171.493 67.7313 173.11 67.7799 175.01 69.7658L175.994 70.7885L172.891 73.7694L171.334 72.1471C170.116 70.8817 169.075 70.2773 167.612 69.8088L158.601 78.4772L155.433 75.1837L168.308 62.801L168.315 62.798Z" fill="#222222"/>
<path d="M198.59 123.138L197.56 128.262L182.987 131.602L195.137 140.321L194.108 145.445L171.41 140.876L172.337 136.27L186.799 139.185L176.337 131.984L177.028 128.547L189.465 125.954L175.003 123.039L175.906 118.564L198.61 123.129L198.59 123.138Z" fill="#222222"/>
<path d="M173.749 150.898L171.041 149.176C170.595 148.889 170.319 148.953 170.032 149.399L167.775 152.941C167.489 153.387 167.553 153.664 167.996 153.944L169.172 154.69L166.721 158.541L165.434 157.723C162.949 156.144 162.534 154.272 164.113 151.788L167.435 146.57C169.014 144.085 170.886 143.67 173.37 145.249L181.184 150.221C183.669 151.8 184.084 153.672 182.505 156.157L179.183 161.374C177.604 163.859 175.733 164.274 173.248 162.695L168.253 159.517L173.739 150.894L173.749 150.898ZM178.632 154.005L176.345 152.548L173.31 157.32L175.597 158.776C176.042 159.063 176.319 158.999 176.599 158.556L178.855 155.014C179.142 154.568 179.078 154.291 178.635 154.011L178.632 154.005Z" fill="#222222"/>
<path d="M162.191 160.88L168.997 168.009L170.91 166.18L173.465 168.859L171.507 170.731L174.474 173.84L171.269 176.897L168.302 173.789L165.477 176.488L162.922 173.809L165.694 171.157L159.023 164.171C158.655 163.786 158.379 163.778 157.994 164.146L155.748 166.296L153.146 163.566L156.113 160.733C158.241 158.698 160.161 158.743 162.189 160.874L162.191 160.88Z" fill="#222222"/>
<path d="M155.111 168.666C156.959 171.91 156.111 173.956 153.812 175.728C152.646 176.622 150.955 177.856 149.076 179.045L150.258 181.111C150.523 181.573 150.796 181.647 151.251 181.384L154.583 179.482C155.045 179.216 155.121 178.95 154.856 178.489L154.334 177.569L158.237 175.338L158.846 176.404C160.305 178.959 159.797 180.809 157.241 182.268L152.239 185.123C149.684 186.582 147.835 186.073 146.375 183.518L139.653 171.743L143.613 169.478L144.987 171.894C145.202 169.868 145.583 168.203 148.402 166.596C151.389 164.893 153.268 165.452 155.114 168.673L155.111 168.666ZM146.169 173.961L147.628 176.516L151.295 173.394C151.96 172.823 152.103 172.472 151.431 171.298C150.725 170.066 150.426 169.931 149.558 170.422C147.664 171.505 146.985 172.651 146.166 173.954L146.169 173.961Z" fill="#222222"/>
<path d="M143.978 195.453L139.624 196.814L132.41 173.778L136.764 172.417L143.972 195.456L143.978 195.453Z" fill="#222222"/>
<path d="M130.71 198.174L118.629 198.975C115.498 199.186 113.915 197.8 113.701 194.661L113.495 191.559C113.395 190.007 113.871 188.781 115.335 187.854C113.64 187.238 112.859 185.999 112.759 184.447L112.515 180.816C112.304 177.685 113.694 176.092 116.829 175.888L129.174 175.068L130.71 198.174ZM118.811 189.682C118.319 189.712 118.165 189.892 118.195 190.384L118.439 194.015C118.469 194.507 118.648 194.661 119.141 194.631L125.678 194.194L125.348 189.245L118.818 189.679L118.811 189.682ZM117.91 180.132C117.418 180.162 117.264 180.341 117.294 180.833L117.566 184.989C117.599 185.488 117.776 185.635 118.268 185.605L125.063 185.152L124.702 179.672L117.907 180.125L117.91 180.132Z" fill="#222222"/>
<path d="M104.134 182.068L104.919 178.959C105.048 178.445 104.903 178.204 104.396 178.072L100.322 177.042C99.8088 176.913 99.5675 177.058 99.4385 177.572L99.0947 178.916L94.667 177.792L95.0408 176.314C95.7631 173.465 97.4112 172.481 100.267 173.201L106.264 174.724C109.119 175.443 110.096 177.094 109.377 179.95L107.102 188.929C106.382 191.784 104.731 192.761 101.875 192.042L95.8787 190.519C93.023 189.8 92.0464 188.149 92.7657 185.293L94.2226 179.549L104.131 182.061L104.134 182.068ZM102.707 187.678L103.372 185.046L97.8912 183.659L97.2264 186.291C97.0974 186.804 97.2427 187.045 97.7561 187.174L101.83 188.204C102.343 188.333 102.585 188.188 102.714 187.675L102.707 187.678Z" fill="#222222"/>
<path d="M92.132 175.898C90.2122 179.109 88.0162 179.369 85.3373 178.228C83.9882 177.653 82.0754 176.779 80.1259 175.729L78.8995 177.771C78.6254 178.228 78.6936 178.495 79.15 178.769L82.4402 180.742C82.8966 181.016 83.1635 180.948 83.4376 180.492L83.9791 179.582L87.841 181.891L87.2164 182.942C85.7045 185.469 83.8465 185.935 81.3188 184.423L76.3815 181.468C73.8538 179.956 73.3884 178.098 74.9003 175.57L81.8639 163.937L85.78 166.279L84.3512 168.666C86.2205 167.859 87.8621 167.376 90.6389 169.036C93.591 170.804 94.0239 172.716 92.1223 175.895L92.132 175.898ZM83.1315 170.706L81.6196 173.233L86.1376 174.896C86.958 175.196 87.3322 175.153 88.0352 173.988C88.764 172.772 88.7319 172.441 87.8832 171.929C86.0065 170.807 84.6782 170.777 83.1412 170.709L83.1315 170.706Z" fill="#222222"/>
<path d="M67.1093 174.5L63.9093 171.244L65.8911 169.297C63.8768 169.606 62.2656 169.571 60.3374 167.613L59.3406 166.597L62.4054 163.584L63.9801 165.191C65.208 166.444 66.26 167.036 67.7271 167.494L76.6469 158.729L79.8469 161.985L67.1025 174.503L67.1093 174.5Z" fill="#222222"/>
<path d="M57.9381 149.962C60.9113 148.665 62.2705 145.204 60.9739 142.231C59.6774 139.258 56.216 137.898 53.2428 139.195C50.2696 140.491 48.9104 143.953 50.207 146.926C51.5035 149.899 54.9649 151.258 57.9381 149.962Z" fill="#222222"/>
<path d="M180.665 96.4457C183.638 95.1491 184.997 91.6878 183.7 88.7146C182.404 85.7414 178.943 84.3822 175.969 85.6788C172.996 86.9753 171.637 90.4366 172.934 93.4098C174.23 96.383 177.691 97.7422 180.665 96.4457Z" fill="#222222"/>
<path d="M135.484 122.269C136.079 121.76 136.772 121.422 137.504 121.216C136.623 120.295 135.942 118.692 135.633 116.747L139.244 114.858L135.49 113.284C135.748 109.535 137.327 106.651 139.244 106.651C141.338 106.651 143.038 110.102 143.038 114.36C143.038 117.313 142.22 119.877 141.018 121.171C142.019 121.382 142.986 121.766 143.805 122.264C140.909 122.315 138.334 121.829 135.484 122.264L135.484 122.269Z" fill="#222222"/>
<path d="M117.149 108.717C119.243 108.717 120.943 112.168 120.943 116.426C120.943 119.333 120.153 121.857 118.98 123.173C119.987 123.368 120.954 123.78 121.727 124.335C119.134 124.387 116.908 123.9 114.373 124.335C114.734 123.963 115.157 123.683 115.609 123.483C114.631 122.601 113.87 120.907 113.532 118.818L117.143 116.93L113.389 115.356C113.647 111.607 115.226 108.723 117.143 108.723L117.149 108.717Z" fill="#222222"/>
<path d="M82.7773 105.088C82.7773 104.859 82.7887 104.624 82.8116 104.396C83.1664 100.441 86.4339 97.4591 90.411 97.4591C92.6599 97.4591 94.7714 98.4549 96.2078 100.126C102.142 93.4242 110.577 89.6069 119.578 89.6069C120.105 89.6069 120.648 89.624 121.249 89.6527C125.135 89.8587 128.871 90.7687 132.385 92.354C133.627 89.7385 136.299 88.0044 139.269 88.0044C143.246 88.0044 146.508 90.9862 146.868 94.9466C146.885 95.1698 146.903 95.4044 146.903 95.6334C146.903 95.8394 146.897 96.0512 146.88 96.2057C146.874 96.3316 146.862 96.4518 146.845 96.5834C146.805 96.881 146.765 97.1099 146.719 97.3103C146.691 97.4419 146.656 97.5621 146.628 97.6765C146.588 97.8196 146.548 97.9512 146.502 98.0829C146.399 98.3862 146.279 98.6838 146.153 98.9356C146.101 99.0444 146.044 99.1531 145.981 99.2676C145.729 99.7426 145.415 100.195 145.06 100.601L145.02 100.647C144.98 100.693 144.945 100.733 144.905 100.773C144.745 100.95 144.568 101.128 144.402 101.276L144.156 101.494C144.156 101.494 144.133 101.511 144.121 101.517C148.453 107.011 150.828 113.827 150.828 120.855C150.828 138.088 136.808 152.109 119.578 152.109C102.348 152.109 88.328 138.088 88.328 120.855C88.328 118.068 88.7 115.315 89.421 112.648C85.6785 112.162 82.7773 108.963 82.7773 105.088ZM144.488 94.2484C143.87 91.9305 141.729 90.2193 139.263 90.2193C137.152 90.2193 135.252 91.4612 134.37 93.3212C135.378 93.8649 136.35 94.4601 137.266 95.0954C137.318 95.1354 137.369 95.1755 137.426 95.2098C138.571 94.214 140.059 93.6074 141.695 93.6074C142.697 93.6074 143.641 93.8363 144.488 94.2426V94.2484ZM148.602 120.855C148.602 113.947 146.136 107.251 141.655 102.009C140.001 100.075 138.107 98.3633 136.007 96.9268C134.977 96.2114 133.873 95.5532 132.728 94.9695L132.494 94.855C129.564 93.3956 126.451 92.4685 123.218 92.0621C125.741 96.7093 131.807 109.426 132.494 125.468C136.104 125.663 139.486 127.008 139.486 129.423C139.486 131.838 136.03 133.217 132.379 133.389C132.31 135.14 132.219 136.874 132.11 138.563C133.157 138.443 134.079 138.305 134.805 138.185C135.406 138.082 135.984 138.488 136.087 139.095C136.19 139.702 135.784 140.274 135.177 140.377C134.25 140.532 133.175 140.686 132.019 140.812C131.71 143.324 130.931 145.791 129.758 148.04C140.757 143.908 148.608 133.28 148.608 120.855H148.602ZM131.584 131.186C135.275 131.186 137.26 129.932 137.26 129.423C137.26 128.914 135.269 127.66 131.584 127.66H131.544C127.881 127.672 125.901 128.914 125.901 129.423C125.901 129.932 127.853 131.157 131.458 131.186H131.584ZM119.578 149.889C121.838 149.889 124.036 149.62 126.147 149.128C127.864 146.741 129.003 143.931 129.443 141.024C128.745 141.064 128.024 141.081 127.303 141.081C123.103 141.081 118.645 140.371 115.641 137.945C115.166 137.561 115.092 136.863 115.475 136.382C115.859 135.907 116.557 135.827 117.037 136.216C120.19 138.757 125.569 139.044 129.873 138.763C129.987 136.995 130.084 135.18 130.159 133.343C126.765 133.046 123.687 131.706 123.687 129.423C123.687 127.139 126.823 125.766 130.268 125.497C129.501 107.972 122.153 94.5803 120.545 91.8446C120.213 91.8332 119.887 91.8275 119.578 91.8275C110.76 91.8275 102.525 95.765 96.986 102.633C96.0075 103.84 95.1205 105.14 94.348 106.49C93.358 108.236 92.5511 110.067 91.9446 111.939C91.0175 114.817 90.5483 117.816 90.5483 120.861C90.5483 136.869 103.572 149.895 119.578 149.895V149.889ZM87.9789 103.073C89.8044 103.073 91.441 103.835 92.6255 105.037C93.2722 103.943 93.9875 102.879 94.76 101.872C93.7471 100.504 92.1391 99.6796 90.411 99.6796C87.9446 99.6796 85.8044 101.391 85.1864 103.709C86.0333 103.302 86.9775 103.073 87.9789 103.073Z" fill="#222222"/>
<path d="M118.859 95.9195C118.459 95.5188 118.459 94.8778 118.859 94.4772C119.26 94.0766 119.901 94.0766 120.301 94.4772C120.702 94.8778 120.702 95.5188 120.301 95.9195C119.901 96.3201 119.26 96.3201 118.859 95.9195Z" fill="#222222"/>
<path d="M123.496 101.637C123.897 102.038 123.897 102.679 123.496 103.079C123.096 103.48 122.455 103.48 122.054 103.079C121.654 102.679 121.654 102.038 122.054 101.637C122.455 101.236 123.096 101.236 123.496 101.637Z" fill="#222222"/>
<path d="M126.621 111.195C127.022 111.596 127.022 112.237 126.621 112.637C126.221 113.038 125.58 113.038 125.179 112.637C124.779 112.237 124.779 111.596 125.179 111.195C125.58 110.794 126.221 110.794 126.621 111.195Z" fill="#222222"/>
<path d="M128.317 120.134C128.717 120.535 128.717 121.176 128.317 121.577C127.916 121.977 127.275 121.977 126.875 121.577C126.474 121.176 126.474 120.535 126.875 120.134C127.275 119.734 127.916 119.734 128.317 120.134Z" fill="#222222"/>
<path d="M128.715 135.369C129.116 135.77 129.116 136.411 128.715 136.812C128.315 137.212 127.674 137.212 127.273 136.812C126.873 136.411 126.873 135.77 127.273 135.369C127.674 134.969 128.315 134.969 128.715 135.369Z" fill="#222222"/>
<path d="M126.629 145.001C127.03 145.402 127.03 146.043 126.629 146.443C126.229 146.844 125.588 146.844 125.187 146.443C124.787 146.043 124.787 145.402 125.187 145.001C125.588 144.601 126.229 144.601 126.629 145.001Z" fill="#222222"/>
</g>
<defs>
<clipPath id="clip0_1_534">
<rect width="173.619" height="180.11" fill="white" transform="translate(0 69.3999) rotate(-23.5609)"/>
</clipPath>
</defs>
</svg>
