<svg width="98" height="162" viewBox="0 0 98 162" fill="none" xmlns="http://www.w3.org/2000/svg">
<path d="M41.1523 77.2348C40.1214 79.4847 38.4173 81.05 35.9036 81.0201C29.7154 80.952 24.5712 78.5781 20.9604 73.4088C19.9257 71.9403 19.0135 70.2302 19.5543 68.3765C19.9275 67.1218 20.6525 65.9653 21.3449 64.6763C21.4467 64.4935 21.5383 64.306 21.6373 64.1158C26.6045 71.1354 33.4462 74.4064 41.3098 76.2907C41.2667 76.5622 41.2878 76.9373 41.1523 77.2348Z" fill="#D3E5E4"/>
<path d="M47.3177 67.1395C47.9817 71.3259 44.8671 74.9001 40.8275 74.0451C34.3398 72.676 28.6539 69.6961 24.4227 64.3929C20.6938 59.7275 22.6903 55.2352 27.0985 52.4794C27.4635 52.2492 27.8518 52.0358 28.2597 51.8066C31.7821 60.4478 38.2784 65.2525 47.3177 67.1395Z" fill="#D3E5E4"/>
<path d="M41.3867 47.6948C41.2951 47.8823 41.211 48.067 41.1297 48.2592C41.446 48.2855 41.8071 48.227 42.0795 48.3635C43.626 49.1298 45.2331 49.8308 46.6703 50.7827C47.9704 51.6412 48.7542 52.8035 48.8546 54.596C48.9999 57.4187 50.3034 59.8336 52.7133 61.4515C51.9539 63.8126 49.3754 65.4753 46.8414 65.1636C43.5675 64.7627 40.6984 63.2825 38.0116 61.4703C34.7194 59.2461 32.2397 56.2583 30.8447 52.5753C30.2059 50.8906 30.0711 48.9152 30.1182 47.0845C30.1912 44.3674 32.0157 42.7825 34.4135 41.8428C34.7691 41.7013 35.3186 41.7595 35.6609 41.9464C40.2079 44.4076 44.7362 46.9098 49.367 49.4588C49.2847 49.762 49.1602 50.2257 48.9881 50.8348C46.781 48.8261 44.4176 47.378 41.3867 47.6948Z" fill="#D3E5E4"/>
<path d="M61.4537 41.8453C56.7222 42.8495 52.2101 43.6438 49.8767 48.2366C42.8801 43.7553 35.4069 40.1162 29.3078 34.4393C26.7493 32.0599 24.5268 29.4185 22.9774 26.2784C22.5339 25.3888 22.252 24.3622 22.1529 23.3693C21.6463 18.375 26.2321 15.0931 30.7699 17.3024C32.4955 18.1378 34.0696 19.3875 35.5065 20.68C39.0816 23.8879 42.6202 27.1349 46.0103 30.5311C50.2853 34.8135 55.244 38.125 60.3961 41.2025C60.6358 41.3427 60.8708 41.4931 61.4537 41.8453Z" fill="#D3E5E4"/>
<path d="M112.079 134.081C112.303 134.84 111.09 137.354 110.019 137.678C108.37 138.184 106.647 138.676 104.947 138.682C102.559 138.69 101.579 137.686 100.91 135.375C96.6118 120.52 88.2484 108.336 76.4355 98.4897C72.0444 94.8296 66.8784 92.8298 61.2734 91.522C57.8869 90.7291 54.5269 90.5988 51.1513 90.2444C46.0589 89.7153 42.0521 87.401 39.018 83.3183C38.8586 83.097 38.7309 82.8468 38.5595 82.5705C40.8205 81.1287 42.7206 79.473 42.8664 76.6095C42.8722 76.4201 42.8751 76.2232 42.8678 76.0216C44.8958 75.5268 46.6778 74.5791 47.9081 72.7484C49.114 70.9438 49.3786 68.9892 48.9875 66.8288C51.3581 66.044 53.1814 64.7064 53.3969 62.302C55.206 62.5189 56.959 62.927 58.7067 62.9116C61.5312 62.8848 63.0854 60.8052 64.4335 58.675C65.0584 57.6836 65.7679 57.282 66.9043 57.3846C68.051 57.4918 69.2053 57.46 70.3567 57.4889C70.3894 57.3489 70.4194 57.2015 70.4522 57.0616C69.1051 56.6463 67.758 56.231 66.2505 55.7735C67.2251 53.9193 68.2661 51.9466 69.2996 49.9767C69.1933 49.8973 69.0869 49.8179 68.9778 49.7311C68.2933 50.4723 67.5389 51.1632 66.9196 51.9652C65.2356 54.1529 63.6504 56.4229 61.9459 58.6013C59.2915 61.9948 53.8344 61.2871 51.8797 57.4049C49.7126 53.0915 50.9232 46.4758 57.5707 44.9506C59.2795 44.5581 60.9622 44.0733 62.6719 43.706C64.5113 43.2987 66.3793 43.3999 68.0498 44.2475C75.0453 47.793 79.3295 53.4423 80.7345 61.1563C81.2865 64.2014 80.2569 67.1147 79.4159 70.0085C79.0277 71.3369 78.6142 72.6662 78.1085 73.9535C76.8276 77.2417 77.556 80.1441 79.857 82.654C82.171 85.176 84.6214 87.5619 86.9447 90.0635C93.5335 97.1403 99.6023 104.625 104.648 112.9C107.507 117.585 109.357 122.621 110.37 128.013C110.707 129.845 111.321 131.624 111.87 133.41C111.947 133.637 112.013 133.859 112.079 134.081Z" fill="#D3E5E4"/>
<path d="M35.9821 83.1512C28.8254 83.0198 22.9732 80.3234 19.001 74.2339C16.7092 70.7247 16.1234 66.8155 20.8175 63.3909L21.341 64.6762C20.6486 65.9652 19.9236 67.1217 19.5504 68.3764C19.0096 70.23 19.9218 71.9401 20.9565 73.4087C24.5673 78.5779 29.7115 80.9519 35.8997 81.02C38.4134 81.0499 40.1175 79.4845 41.1484 77.2347C41.2839 76.9371 41.2628 76.562 41.3059 76.2905L42.8639 76.6099C42.7181 79.4734 40.818 81.1291 38.5569 82.5709C38.7284 82.8472 38.856 83.0974 39.0154 83.3187C42.0496 87.4014 46.0564 89.7157 51.1488 90.2448C54.5244 90.5992 57.8844 90.7296 61.2709 91.5224C66.8759 92.8302 72.0418 94.83 76.433 98.4901C88.2459 108.337 96.6093 120.521 100.907 135.375C101.576 137.687 102.556 138.691 104.945 138.682C106.645 138.676 108.368 138.185 110.017 137.678C111.087 137.354 112.3 134.841 112.076 134.082C112.01 133.86 111.944 133.638 111.868 133.411L112.935 133.079C113.028 133.326 113.235 133.563 113.316 133.822C113.458 134.271 113.665 134.756 113.625 135.196C113.46 136.96 112.681 138.452 111.11 139.304C108.431 140.766 105.583 141.252 102.62 140.25C100.769 139.623 99.5658 138.388 99.013 136.433C94.8727 121.885 86.6948 109.947 75.2709 100.185C71.0477 96.5639 66.0647 94.4616 60.6669 93.0933C58.4438 92.5206 56.3416 92.4985 54.1208 92.4781C47.0163 92.3953 41.0791 89.9265 37.1406 83.6541C36.9533 83.3582 36.3833 83.1543 35.9821 83.1512Z" fill="black"/>
<path d="M47.3142 67.1393C38.2749 65.2523 31.7787 60.4476 28.2563 51.8064C27.8483 52.0356 27.46 52.249 27.095 52.4792C22.6868 55.235 20.6904 59.7273 24.4192 64.3927C28.6505 69.6959 34.3363 72.6758 40.824 74.0449C44.8636 74.8999 47.9782 71.3257 47.3142 67.1393ZM49.8777 48.2369C52.2111 43.6441 56.7232 42.8497 61.4547 41.8456C60.8718 41.4934 60.6368 41.343 60.3971 41.2028C55.245 38.1253 50.2863 34.8138 46.0113 30.5314C42.6212 27.1352 39.0826 23.8881 35.5075 20.6803C34.0706 19.3878 32.4965 18.1381 30.7709 17.3026C26.2331 15.0934 21.6473 18.3753 22.1539 23.3696C22.253 24.3625 22.5349 25.3891 22.9784 26.2787C24.5278 29.4187 26.7503 32.0601 29.3089 34.4396C35.4079 40.1165 42.8811 43.7556 49.8777 48.2369ZM62.7939 40.3061C64.0008 41.0292 65.2555 41.4024 66.6317 41.6452C69.5285 42.1531 71.8787 43.7934 74.0345 45.7106C78.3621 49.5648 81.2483 54.2986 82.3786 60.0044C82.6323 61.2969 82.6835 62.7078 82.453 64.0028C81.8936 67.1487 81.4358 70.3843 80.3353 73.3582C78.944 77.1473 79.9066 79.9707 82.633 82.5938C89.2438 88.9559 95.3345 95.7935 100.77 103.2C104.193 107.869 107.44 112.655 109.703 118.022C111.699 122.766 112.604 127.756 112.891 132.866C112.89 132.934 112.908 133.004 112.936 133.079L111.868 133.41C111.319 131.624 110.705 129.845 110.368 128.013C109.355 122.621 107.505 117.585 104.646 112.9C99.6004 104.625 93.5317 97.1405 86.9429 90.0636C84.6195 87.5621 82.1692 85.1762 79.8552 82.6542C77.5542 80.1443 76.8258 77.2418 78.1066 73.9537C78.6124 72.6664 79.0258 71.3371 79.414 70.0086C80.2551 67.1148 81.2846 64.2016 80.7327 61.1565C79.3277 53.4425 75.0435 47.7931 68.048 44.2477C66.3775 43.4001 64.5095 43.2988 62.6701 43.7062C60.9604 44.0734 59.2776 44.5583 57.5689 44.9508C50.9213 46.476 49.7107 53.0916 51.8778 57.4051C53.8325 61.2873 59.2896 61.9949 61.944 58.6014C63.6486 56.423 65.2337 54.1531 66.9178 51.9653C67.537 51.1634 68.2915 50.4725 68.976 49.7312C69.0851 49.8181 69.1914 49.8975 69.2977 49.9769C68.2642 51.9468 67.2233 53.9195 66.2487 55.7737C67.7562 56.2311 69.1033 56.6464 70.4503 57.0618C70.4176 57.2017 70.3876 57.3491 70.3548 57.489C69.2034 57.4602 68.0492 57.492 66.9025 57.3847C65.766 57.2821 65.0566 57.6838 64.4316 58.6752C63.0835 60.8053 61.5293 62.8849 58.7048 62.9117C56.9571 62.9272 55.2042 62.5191 53.3951 62.3021C53.1796 64.7065 51.3562 66.0442 48.9856 66.829C49.3768 68.9894 49.1122 70.944 47.9062 72.7486C46.6759 74.5793 44.8939 75.5269 42.866 76.0218C42.8733 76.2233 42.8703 76.4202 42.8646 76.6096L41.3066 76.2903C33.443 74.406 26.6013 71.135 21.6341 64.1154C21.5351 64.3056 21.4435 64.4931 21.3416 64.6759L20.8182 63.3907C20.9387 63.303 21.0619 63.2229 21.1823 63.1353C18.6524 57.3743 23.1629 51.252 28.1731 50.765C27.6428 46.2307 28.5853 42.3796 33.5051 40.4453C32.2527 39.4413 31.1225 38.5363 29.9876 37.6415C26.485 34.9003 23.579 31.6378 21.363 27.7853C20.0463 25.4945 19.6693 23.0309 20.1742 20.4671C20.9722 16.4573 25.9795 13.6646 30.1541 14.8351C32.3763 15.4507 34.2116 16.7389 35.8714 18.2629C39.9788 22.0292 44.1058 25.7796 48.0918 29.6764C52.4704 33.9626 57.5747 37.1856 62.7939 40.3061ZM41.3842 47.6949C44.4151 47.378 46.7785 48.8261 48.9856 50.8349C49.1577 50.2257 49.2822 49.762 49.3645 49.4588C44.7337 46.9099 40.2054 44.4076 35.6584 41.9464C35.3161 41.7596 34.7666 41.7013 34.411 41.8428C32.0132 42.7825 30.1887 44.3674 30.1157 47.0845C30.0686 48.9152 30.2034 50.8906 30.8422 52.5753C32.2372 56.2584 34.7169 59.2461 38.0091 61.4703C40.6959 63.2825 43.565 64.7627 46.8389 65.1636C49.3729 65.4753 51.9514 63.8127 52.7108 61.4516C50.3009 59.8336 48.9974 57.4188 48.8521 54.596C48.7517 52.8035 47.9679 51.6412 46.6678 50.7827C45.2306 49.8308 43.6235 49.1298 42.077 48.3635C41.8046 48.227 41.4435 48.2856 41.1272 48.2592C41.2085 48.067 41.2926 47.8823 41.3842 47.6949Z" fill="black"/>
</svg>
