<svg width="47" height="32" viewBox="0 0 47 32" fill="none" xmlns="http://www.w3.org/2000/svg">
<g clip-path="url(#clip0_5894_316)">
<path d="M43.1392 0.320956C43.9994 3.74143 48.0681 15.5437 46.7336 18.3144C45.3991 21.0852 39.596 19.4701 39.0334 19.897C38.4196 20.8578 38.587 21.9623 37.8942 22.9462C36.9642 24.2643 35.1833 24.1668 34.9601 24.4314C34.6951 24.747 35.0671 25.833 34.2161 26.7009C33.4861 27.4434 31.9005 27.4574 31.7052 27.6801C31.3286 28.1118 31.575 31.0403 29.4361 31.6808C26.6508 32.5115 23.4331 29.8754 22.638 29.9914C21.4244 30.1724 19.7272 33.0963 16.7327 31.5508C15.812 31.0728 15.9933 29.7779 15.719 29.5505C15.4121 29.2906 14.1008 29.4484 13.2964 28.9518C12.3153 28.3392 12.3385 27.0072 11.9898 26.7705C11.6597 26.5431 10.818 26.6916 10.2694 26.4224C8.10717 25.3596 8.60005 22.3151 9.76717 20.6443C8.53495 20.9181 7.23764 18.9224 6.67966 18.825C6.04728 18.7182 5.40095 20.1802 3.23876 19.4979C2.56918 19.2891 0.30005 17.7389 0.0861565 17.066C-0.546225 15.0285 2.47154 4.82281 3.62935 2.67399C6.40997 -2.48226 10.818 6.32652 13.3476 7.08301C14.3798 7.39397 19.876 7.33363 21.1314 7.14799C22.5729 6.9345 24.0934 5.76495 25.8138 5.77887C28.3015 5.79743 30.4683 8.35467 33.2164 7.66315C33.6163 7.59353 33.528 6.11303 33.8302 5.44007C34.5602 3.82497 41.5908 -1.32663 43.1346 0.320956H43.1392ZM41.3862 2.53475C40.9212 2.10313 35.8668 6.2569 35.8157 7.39397C35.7924 8.56816 41.1491 17.5579 42.0605 17.674C42.5487 17.7343 44.4691 17.247 44.59 16.6576L41.3862 2.53475ZM11.1621 8.10869C9.39983 8.33146 6.59131 2.73432 5.59159 3.45833C5.14986 5.68605 1.40672 14.8104 2.40644 16.3791L4.42913 17.2516L11.1621 8.10869ZM19.5365 12.2764C21.8289 13.367 24.8141 10.7031 26.6369 10.9769C27.7621 11.144 31.5099 13.8497 32.7096 14.6805C33.1606 14.9961 38.5405 20.1569 38.5917 17.6229L33.6814 9.57063C30.4312 11.2043 27.8133 7.74669 24.9304 8.11334C23.7679 8.26185 18.5368 10.8701 19.5412 12.2764H19.5365ZM17.7928 14.0168C16.9047 13.07 16.8768 10.5267 18.1276 9.72379C18.1276 8.74916 14.0636 9.1483 13.0453 8.5728L7.43759 17.841C8.84184 17.363 10.9575 19.0756 11.855 19.0663C13.1569 19.0524 13.9985 17.4373 16.449 18.8296C17.7835 19.5861 17.8672 21.2105 18.2299 21.4611C18.7089 21.786 19.8295 21.359 20.499 22.2222C21.5639 23.5867 20.1503 23.8512 23.5075 24.3107C24.0236 25.0811 23.382 26.673 23.9306 27.6012C24.7397 28.9564 30.0452 29.9775 29.2454 27.4063C29.0083 26.6498 22.345 23.1597 22.7775 20.635C26.2416 19.6418 28.1202 25.0162 31.4727 25.2064C32.4817 25.2621 33.0258 23.8698 32.2306 23.4196C30.7659 23.6749 23.0844 18.0731 26.2742 17.3862C26.9763 17.2331 31.2263 20.6164 32.6863 21.1873C33.4071 21.4657 36.0063 22.5285 36.2574 21.3265C36.5364 19.9852 28.3294 14.5412 27.0972 13.2696C24.5026 14.0075 20.1503 16.5462 17.7835 14.0214L17.7928 14.0168ZM16.277 21.1037C14.0497 19.9203 11.39 21.3404 11.1668 23.8791L13.1895 23.35L16.2723 21.0991L16.277 21.1037ZM18.1369 22.9555C17.5138 22.2872 13.9381 25.4199 14.4217 26.6637C15.2866 27.4713 18.946 23.8234 18.1369 22.9555ZM21.3918 25.7402C20.964 25.2807 17.2813 28.0514 18.1416 29.4484C20.0108 29.3184 21.5174 27.6198 21.3918 25.7402Z" fill="white"/>
</g>
<defs>
<clipPath id="clip0_5894_316">
<rect width="47" height="32" fill="white"/>
</clipPath>
</defs>
</svg>
