<svg class="w-full h-auto" viewBox="0 0 86 87" fill="none" xmlns="http://www.w3.org/2000/svg">
<g filter="url(#filter0_d_596_1858)">
<rect x="0.398438" y="42.0977" width="59.3814" height="60.9807" rx="4.97215" transform="rotate(-45 0.398438 42.0977)" fill="#E4E3FD"/>
<rect x="1.57674" y="42.0977" width="57.715" height="59.3144" rx="4.13897" transform="rotate(-45 1.57674 42.0977)" stroke="black" stroke-width="1.66637"/>
</g>
<path d="M21.7422 37.8402C21.2989 40.8343 21.7753 43.8961 22.4631 46.8149C23.0229 49.1903 23.7457 51.5459 24.7663 53.7666C26.3833 57.2852 28.7509 60.5331 32.105 62.5669C39.0564 66.7821 48.0908 64.7179 54.3896 60.2759C56.3962 58.8609 58.2089 57.1786 59.8364 55.343C61.6663 53.2791 63.2939 50.9763 64.3842 48.4317C66.2624 44.0481 66.3984 39.2036 64.5242 34.8005C64.0887 33.7773 63.5454 32.8092 62.9524 31.8709C62.9518 31.8038 62.9355 31.7414 62.8929 31.6918C62.7278 31.4996 62.5863 30.9658 62.4643 30.7076C62.3639 30.4948 62.268 30.3064 62.1516 30.1093C61.9686 29.7991 61.7663 29.4965 61.5614 29.2005C61.204 28.6838 60.8078 28.1901 60.4078 27.7059C59.6715 26.8146 58.8832 25.9656 58.0403 25.174C56.4772 23.7064 54.7342 22.4162 52.8213 21.4411C49.2964 19.6444 45.2863 18.9555 41.3711 19.5734C37.1267 20.2434 33.2257 22.3174 29.9511 25.0509C26.0201 28.3322 22.5127 32.6365 21.7422 37.8402ZM49.8405 22.2991C53.6086 23.6052 56.7848 26.2562 59.264 29.3256C60.1058 30.368 60.9057 31.4239 61.8107 32.4148C61.8218 32.427 61.8387 32.4311 61.8509 32.4418C63.993 36.323 64.8755 40.7476 63.749 45.1002C62.5142 49.8711 59.1876 54.0465 55.5015 57.2087C49.9429 61.9773 41.5858 64.9964 34.5094 61.854C31.4823 60.5099 29.1633 57.9609 27.5316 55.1119C26.4537 53.2301 25.6662 51.1712 25.0705 49.0904C24.3246 46.4846 23.7394 43.7932 23.6345 41.0778C23.5354 38.5111 24.0534 36.0001 25.2412 33.72C26.3183 31.6524 27.8603 29.8204 29.5272 28.2051C32.3758 25.4447 35.7432 23.1779 39.576 22.0541C42.951 21.0645 46.5234 21.1493 49.8405 22.2991Z" fill="black"/>
<path d="M49.8405 22.2991C53.6086 23.6052 56.7848 26.2562 59.264 29.3256C60.1058 30.368 60.9057 31.4239 61.8107 32.4148C61.8218 32.427 61.8387 32.4311 61.8509 32.4418C63.993 36.323 64.8755 40.7476 63.749 45.1002C62.5142 49.8711 59.1876 54.0465 55.5015 57.2087C49.9429 61.9773 41.5858 64.9964 34.5094 61.854C31.4823 60.5099 29.1633 57.9609 27.5316 55.1119C26.4537 53.2301 25.6662 51.1712 25.0705 49.0904C24.3246 46.4846 23.7394 43.7932 23.6345 41.0778C23.5354 38.5111 24.0534 36.0001 25.2412 33.72C26.3183 31.6524 27.8603 29.8204 29.5272 28.2051C32.3758 25.4447 35.7432 23.1779 39.576 22.0541C42.951 21.0645 46.5234 21.1493 49.8405 22.2991Z" fill="#FFCB7D"/>
<path d="M27.1672 45.5703C27.5965 47.4345 28.1584 49.2893 28.9533 51.0324C30.172 53.7046 31.9328 56.1961 34.435 57.8043C39.8347 61.2748 46.9393 59.7691 51.937 56.3001C55.1424 54.0751 58.0231 50.909 59.6545 47.347C61.2418 43.8812 61.3885 39.9577 59.8667 36.4501C59.5082 35.6239 59.0578 34.8473 58.5695 34.093C58.5668 34.0086 58.5507 33.9203 58.5167 33.8295C57.8055 31.9286 56.3215 30.297 54.8531 28.9247C53.6261 27.7781 52.2591 26.7694 50.7564 26.0139C48.0044 24.6305 44.878 24.1069 41.8317 24.6037C38.532 25.1417 35.4998 26.7646 32.9603 28.9029C29.9461 31.4409 27.2747 34.7449 26.6579 38.7412C26.3066 41.0176 26.6552 43.3468 27.1672 45.5703ZM29.7475 35.8592C30.5324 34.316 31.6791 32.9398 32.9097 31.7329C35.0669 29.6177 37.6005 27.8908 40.5054 26.9958C42.9854 26.2315 45.6772 26.2567 48.1519 27.061C50.9526 27.9713 53.3407 29.8761 55.2193 32.1044C55.9263 32.943 56.5608 33.8131 57.3316 34.598C57.3904 34.6579 57.4532 34.7025 57.5172 34.7387C59.2002 37.8567 59.8423 41.4205 58.7881 44.8644C57.7097 48.3876 55.1672 51.4724 52.3667 53.794C48.1613 57.2802 41.9207 59.4185 36.6726 57.0382C34.4142 56.0139 32.6944 54.065 31.4807 51.9278C30.7217 50.5912 30.1568 49.1286 29.7263 47.6558C29.1584 45.7126 28.7136 43.7078 28.5931 41.6829C28.4724 39.6533 28.8238 37.675 29.7475 35.8592Z" fill="black"/>
<path d="M44.0189 31.8295C44.8355 31.6243 44.8102 31.0134 44.7922 30.4937C44.787 30.3433 44.7841 30.1928 44.7704 30.0428C44.7638 29.9706 44.7557 29.8987 44.7469 29.8268C44.7234 29.6357 44.7094 29.5153 44.6365 29.3402C44.5819 29.2092 44.5197 29.0907 44.4355 28.9864C44.4277 28.9663 44.42 28.946 44.4122 28.9258C44.3238 28.6953 44.0497 28.5614 43.8184 28.5708C43.5683 28.581 43.3393 28.7415 43.2527 28.9805C43.1633 29.1032 43.0869 29.2335 43.0235 29.3713C42.9781 29.4725 42.9546 29.5796 42.9533 29.6926C42.9481 29.7476 42.9452 29.8029 42.9407 29.8581C42.9257 30.0438 42.8981 30.2233 42.8927 30.4092C42.8835 30.7235 42.8997 31.0818 43.0621 31.3612C43.255 31.6931 43.6315 31.9269 44.0189 31.8295Z" fill="black"/>
<path d="M44.7704 53.9549C44.7638 53.8828 44.7557 53.8108 44.7469 53.7389C44.7234 53.5478 44.7094 53.4274 44.6365 53.2524C44.5819 53.1213 44.5197 53.0027 44.4355 52.8985C44.4277 52.8783 44.42 52.8582 44.4122 52.8379C44.3238 52.6075 44.0497 52.4735 43.8184 52.4829C43.5683 52.493 43.3393 52.6535 43.2527 52.8926C43.1633 53.0152 43.0869 53.1455 43.0235 53.2835C42.9781 53.3846 42.9546 53.4918 42.9533 53.6047C42.9481 53.6597 42.9452 53.715 42.9407 53.7702C42.9257 53.9559 42.8981 54.1354 42.8927 54.3213C42.8835 54.6356 42.8997 54.9939 43.0621 55.2733C43.2549 55.605 43.6315 55.8389 44.0188 55.7416C44.8354 55.5364 44.8101 54.9255 44.7921 54.4058C44.7869 54.2554 44.784 54.1048 44.7704 53.9549Z" fill="black"/>
<path d="M51.1735 34.9305C51.362 35.0966 51.5985 35.0822 51.883 34.8872C52.1467 34.9534 52.3711 34.9191 52.5562 34.7844C52.6905 34.6847 52.8207 34.5143 52.9286 34.3991C52.8731 34.4583 52.8176 34.5175 52.7621 34.5768C52.8816 34.4493 52.9966 34.3272 53.1048 34.1917C53.1282 34.1625 53.1512 34.133 53.1741 34.1033C53.2658 34.0048 53.3413 33.8957 53.4005 33.7758C53.4602 33.6923 53.4978 33.5997 53.5135 33.498C53.5305 33.433 53.5475 33.3681 53.5645 33.3031C53.5645 33.2909 53.5643 33.2787 53.5643 33.2664C53.5716 33.2498 53.5789 33.2333 53.5862 33.2167C53.6262 33.1263 53.6293 32.9915 53.6121 32.8957C53.5868 32.7554 53.5112 32.6324 53.4059 32.5393C53.2207 32.3755 52.9457 32.3283 52.7187 32.439C52.649 32.4524 52.5793 32.4659 52.5094 32.4793C52.425 32.5 52.3427 32.5268 52.2626 32.5598C52.1714 32.5962 52.0822 32.6695 52.0061 32.7316C51.9596 32.7696 51.9146 32.8096 51.8692 32.849C51.7266 32.9618 51.5856 33.0751 51.4528 33.2004C51.3901 33.2596 51.3319 33.3186 51.2737 33.3831C51.1816 33.4855 51.1666 33.5076 51.0896 33.6301C50.9785 33.8066 50.8739 34.003 50.8834 34.2202C50.8917 34.4077 50.9211 34.5983 51.0199 34.7623C51.0597 34.8284 51.113 34.8841 51.1735 34.9305Z" fill="black"/>
<path d="M34.2751 51.8328C34.4637 51.9989 34.7002 51.9844 34.9847 51.7897C35.2483 51.8558 35.4727 51.8215 35.6578 51.6868C35.7922 51.587 35.9224 51.4167 36.0303 51.3015C35.9748 51.3607 35.9193 51.42 35.8638 51.4792C35.9833 51.3517 36.0983 51.2296 36.2064 51.0941C36.2299 51.0648 36.2528 51.0353 36.2758 51.0057C36.3675 50.9073 36.4429 50.7981 36.5022 50.6783C36.5618 50.5947 36.5994 50.5021 36.6151 50.4004C36.632 50.3354 36.6491 50.2705 36.666 50.2055C36.6661 50.1933 36.6658 50.181 36.6658 50.1688C36.6731 50.1523 36.6805 50.1357 36.6878 50.1191C36.7278 50.0287 36.731 49.8939 36.7137 49.798C36.6883 49.6579 36.6128 49.5348 36.5074 49.4416C36.3223 49.2779 36.0472 49.2307 35.8202 49.3414C35.7505 49.3549 35.6807 49.3683 35.611 49.3817C35.5265 49.4024 35.4442 49.4291 35.3641 49.4622C35.273 49.4986 35.1838 49.5719 35.1077 49.634C35.0612 49.6719 35.0162 49.7119 34.9709 49.7513C34.8283 49.8641 34.6871 49.9776 34.5544 50.1028C34.4917 50.162 34.4334 50.221 34.3753 50.2856C34.2832 50.3879 34.2681 50.4101 34.1911 50.5325C34.0801 50.7091 33.9754 50.9054 33.985 51.1226C33.9932 51.3101 34.0226 51.5007 34.1215 51.6647C34.1613 51.7308 34.2146 51.7865 34.2751 51.8328Z" fill="black"/>
<path d="M55.4986 43.1202C55.6491 43.115 55.7996 43.1121 55.9495 43.0984C56.0217 43.092 56.0936 43.0838 56.1655 43.0749C56.3567 43.0514 56.477 43.0375 56.652 42.9646C56.783 42.9101 56.9016 42.8477 57.0059 42.7635C57.026 42.7558 57.0463 42.748 57.0665 42.7403C57.297 42.6518 57.4309 42.3777 57.4215 42.1464C57.4114 41.8963 57.2508 41.6673 57.0118 41.5808C56.8891 41.4914 56.7589 41.4149 56.621 41.3516C56.5198 41.3062 56.4127 41.2827 56.2997 41.2814C56.2447 41.2762 56.1894 41.2733 56.1342 41.2688C55.9485 41.2539 55.769 41.2262 55.5831 41.2208C55.2688 41.2116 54.9105 41.2278 54.6311 41.3902C54.2993 41.5831 54.0655 41.9596 54.1629 42.347C54.3681 43.1635 54.9789 43.1382 55.4986 43.1202Z" fill="black"/>
<path d="M31.608 43.1201C31.7584 43.1149 31.909 43.112 32.0589 43.0984C32.1311 43.0919 32.203 43.0838 32.2749 43.0749C32.4661 43.0515 32.5863 43.0375 32.7614 42.9646C32.8924 42.9101 33.011 42.8477 33.1153 42.7635C33.1354 42.7558 33.1556 42.7479 33.1759 42.7403C33.4064 42.6518 33.5403 42.3778 33.5309 42.1464C33.5208 41.8963 33.3602 41.6673 33.1212 41.5808C32.9985 41.4914 32.8683 41.4149 32.7303 41.3516C32.6292 41.3061 32.5221 41.2827 32.4091 41.2814C32.3541 41.2762 32.2987 41.2733 32.2436 41.2688C32.0579 41.2539 31.8784 41.2262 31.6925 41.2208C31.3781 41.2116 31.0199 41.2278 30.7405 41.3903C30.4087 41.5831 30.1749 41.9597 30.2723 42.3471C30.4775 43.1634 31.0883 43.1382 31.608 43.1201Z" fill="black"/>
<path d="M53.5423 50.8492C53.5217 50.7647 53.4948 50.6824 53.4618 50.6024C53.4255 50.5113 53.3521 50.4221 53.29 50.346C53.252 50.2994 53.212 50.2544 53.1726 50.209C53.0599 50.0665 52.9464 49.9254 52.8212 49.7926C52.762 49.7299 52.703 49.6716 52.6385 49.6136C52.5361 49.5214 52.5139 49.5064 52.3915 49.4294C52.215 49.3183 52.0187 49.2137 51.8014 49.2233C51.6139 49.2316 51.4234 49.2609 51.2593 49.3598C51.1932 49.3996 51.1375 49.453 51.0912 49.5134C50.9251 49.702 50.9395 49.9385 51.1344 50.223C51.0682 50.4866 51.1025 50.711 51.2373 50.8961C51.3371 51.0304 51.5074 51.1607 51.6226 51.2686C51.5633 51.2131 51.5041 51.1576 51.445 51.1021C51.5724 51.2216 51.6946 51.3366 51.83 51.4447C51.8592 51.4681 51.8888 51.4911 51.9184 51.514C52.0168 51.6057 52.126 51.6811 52.2458 51.7404C52.3294 51.8 52.4219 51.8377 52.5236 51.8534C52.5886 51.8703 52.6536 51.8873 52.7186 51.9043C52.7308 51.9044 52.7431 51.9041 52.7553 51.9041C52.7719 51.9115 52.7884 51.9188 52.805 51.9261C52.8954 51.9661 53.0301 51.9693 53.1259 51.952C53.2661 51.9266 53.3892 51.8511 53.4823 51.7457C53.6461 51.5605 53.6933 51.2855 53.5826 51.0584C53.5692 50.9887 53.5557 50.9189 53.5423 50.8492Z" fill="black"/>
<path d="M34.3387 33.9938C34.4385 34.1281 34.6087 34.2583 34.724 34.3662C34.6648 34.3107 34.6055 34.2552 34.5463 34.1997C34.6738 34.3192 34.7959 34.4343 34.9313 34.5424C34.9606 34.5658 34.9901 34.5887 35.0197 34.6117C35.1182 34.7033 35.2273 34.7789 35.3472 34.8381C35.4308 34.8978 35.5234 34.9354 35.6251 34.9511C35.6901 34.9681 35.755 34.985 35.82 35.002C35.8322 35.0021 35.8445 35.0019 35.8567 35.0019C35.8733 35.0092 35.8898 35.0165 35.9064 35.0238C35.9968 35.0638 36.1316 35.0669 36.2275 35.0496C36.3676 35.0243 36.4907 34.9487 36.5839 34.8434C36.7476 34.6583 36.7948 34.3833 36.6841 34.1562C36.6706 34.0864 36.6572 34.0167 36.6438 33.9469C36.6231 33.8625 36.5963 33.7802 36.5634 33.7001C36.527 33.609 36.4536 33.5197 36.3916 33.4436C36.3536 33.3971 36.3136 33.3521 36.2741 33.3067C36.1614 33.1641 36.0479 33.023 35.9227 32.8904C35.8636 32.8277 35.8045 32.7694 35.74 32.7112C35.6377 32.6191 35.6155 32.6041 35.493 32.5271C35.3165 32.4161 35.1202 32.3114 34.903 32.3209C34.7154 32.3291 34.5249 32.3586 34.3609 32.4573C34.2948 32.4972 34.239 32.5506 34.1927 32.6111C34.0267 32.7996 34.0411 33.0362 34.2359 33.3206C34.1697 33.5842 34.204 33.8087 34.3387 33.9938Z" fill="black"/>
<path d="M40.829 47.4027C41.2677 47.356 41.4243 47.0945 41.7068 46.8615C41.817 46.7706 41.9283 46.6829 42.0278 46.5801C42.1634 46.4401 42.2825 46.2942 42.3995 46.1389C42.6089 45.8611 42.8139 45.58 43.0146 45.2957C43.2823 44.9166 43.5491 44.5367 43.8054 44.1499C43.9462 43.9373 44.0669 43.7093 44.1825 43.479C44.1937 43.4759 44.2049 43.4727 44.2158 43.4687C44.7247 43.8001 45.2373 44.1259 45.7459 44.458C47.1647 45.3846 48.5148 46.4123 49.9555 47.3012C50.4474 47.6048 51.0137 47.011 50.7383 46.524C50.2675 45.6917 49.4752 45.1587 48.7046 44.6303C47.8593 44.0507 47.0011 43.4895 46.1363 42.9397C45.6882 42.6547 45.2366 42.3824 44.7812 42.1162C44.799 41.8141 44.8079 41.5124 44.7936 41.2098C44.7629 40.5581 44.7255 39.9065 44.691 39.2548C44.6137 37.7933 44.5059 36.354 44.238 34.9132C44.1346 34.3572 43.2446 34.2744 43.1892 34.9008C43.0641 36.3161 43.0773 37.7127 43.1373 39.1307C43.1623 39.7243 43.1877 40.3179 43.2131 40.9116C43.2185 41.037 43.2228 41.1624 43.2285 41.2878C43.0339 41.2078 42.8365 41.1337 42.6414 41.0597C42.4134 40.973 42.1379 40.8413 41.8878 40.847C41.3672 40.8588 41.4047 41.5987 41.8555 41.7129C41.7867 41.6955 41.6958 41.6345 41.7917 41.7076C41.8778 41.773 41.9653 41.8358 42.0506 41.9023C42.3938 42.1704 42.7364 42.4347 43.0851 42.6924C42.8476 42.9993 42.6064 43.3025 42.3835 43.6216C42.1743 43.921 41.9571 44.2145 41.7362 44.5054C41.5067 44.8076 41.2615 45.0987 41.0345 45.4025C40.8432 45.6585 40.7248 45.9418 40.5516 46.2063C40.5076 46.2734 40.4611 46.3389 40.4187 46.4069C40.3105 46.5805 40.2901 46.7204 40.2986 46.922C40.3096 47.1839 40.5576 47.4316 40.829 47.4027Z" fill="black"/>
<defs>
<filter id="filter0_d_596_1858" x="2.45801" y="2.16797" width="80.9897" height="84.323" filterUnits="userSpaceOnUse" color-interpolation-filters="sRGB">
<feFlood flood-opacity="0" result="BackgroundImageFix"/>
<feColorMatrix in="SourceAlpha" type="matrix" values="0 0 0 0 0 0 0 0 0 0 0 0 0 0 0 0 0 0 127 0" result="hardAlpha"/>
<feOffset dy="3.33274"/>
<feComposite in2="hardAlpha" operator="out"/>
<feColorMatrix type="matrix" values="0 0 0 0 0 0 0 0 0 0 0 0 0 0 0 0 0 0 1 0"/>
<feBlend mode="normal" in2="BackgroundImageFix" result="effect1_dropShadow_596_1858"/>
<feBlend mode="normal" in="SourceGraphic" in2="effect1_dropShadow_596_1858" result="shape"/>
</filter>
</defs>
</svg>
