<svg class="w-full h-auto" viewBox="0 0 86 87" fill="none" xmlns="http://www.w3.org/2000/svg">
<g filter="url(#filter0_d_596_1878)">
<rect x="0.398438" y="42.207" width="59.3814" height="60.9807" rx="4.97215" transform="rotate(-45 0.398438 42.207)" fill="#E4E3FD"/>
<rect x="1.57674" y="42.207" width="57.715" height="59.3144" rx="4.13897" transform="rotate(-45 1.57674 42.207)" stroke="black" stroke-width="1.66637"/>
</g>
<path d="M59.8297 42.8731C59.1071 41.5578 57.4064 40.5011 55.4113 40.2834C57.8999 36.4921 55.2102 31.3455 51.6172 29.6369C49.8807 28.811 47.9857 28.6743 46.2789 29.1571C44.3057 29.7152 42.1928 31.0522 41.1367 33.763C38.4001 31.106 34.3867 30.0553 31.1309 32.4844C29.0078 34.0685 27.8371 36.917 28.2077 39.5978C28.2166 39.6622 28.2241 39.7338 28.2081 39.7946C28.2002 39.825 28.1864 39.8526 28.1639 39.8754C28.1125 39.9272 28.0337 39.9334 27.962 39.9367C26.3346 40.0099 25.1927 40.0421 23.7604 40.8662C21.5495 42.2533 20.086 45.1631 20.4127 47.8395C20.9152 51.9553 24.9621 52.0104 28.1027 52.1232C32.6739 52.2874 37.2475 52.2096 41.8125 51.9224C46.9068 51.59 52.1791 51.2325 57.0844 49.7643C59.6382 49 61.2514 45.4612 59.8297 42.8731ZM57.1608 47.6699C55.7696 48.4362 54.1462 48.665 52.5686 48.8658C52.1486 48.9193 51.7319 48.9707 51.3237 49.0298C49.1662 49.342 47.0023 49.6057 44.8332 49.8151C40.4432 50.2388 36.0315 50.4406 31.6225 50.3686C29.6347 50.3362 27.6328 50.3265 25.6587 50.2693C24.3057 50.2302 22.7775 49.9135 22.3277 48.3914C21.6521 46.1022 22.9522 43.3151 24.9925 42.2603C26.5125 41.4745 27.8964 42.0471 29.4717 41.8788C30.3852 41.7811 30.819 41.2457 30.4588 40.401C29.2275 36.4554 30.808 34.2353 34.4571 33.0734C36.8142 32.2758 39.112 34.0482 40.1754 36.1294C40.6256 37.1542 41.5952 37.03 42.1796 36.2195C42.8164 35.3359 43.031 34.1333 43.6353 33.2087C45.9562 29.6582 50.646 30.2888 53.1556 33.1693C54.5146 34.7291 55.3705 36.9423 54.2128 38.8711C53.82 39.559 53.3803 40.2489 53.0168 41.0073C52.5247 42.0334 54.6118 41.9255 55.5113 42.109C58.1416 42.3156 59.9216 46.1491 57.1608 47.6699Z" fill="black"/>
<path d="M57.1608 47.6699C55.7696 48.4362 54.1462 48.665 52.5686 48.8658C52.1486 48.9193 51.7319 48.9707 51.3237 49.0298C49.1662 49.342 47.0023 49.6057 44.8332 49.8151C40.4432 50.2388 36.0315 50.4406 31.6225 50.3686C29.6347 50.3362 27.6328 50.3265 25.6587 50.2693C24.3057 50.2302 22.7775 49.9135 22.3277 48.3914C21.6521 46.1022 22.9522 43.3151 24.9925 42.2603C26.5125 41.4745 27.8964 42.0471 29.4717 41.8788C30.3852 41.7811 30.819 41.2457 30.4588 40.401C29.2275 36.4554 30.808 34.2353 34.4571 33.0734C36.8142 32.2758 39.112 34.0482 40.1754 36.1294C40.6256 37.1542 41.5952 37.03 42.1796 36.2195C42.8164 35.3359 43.031 34.1333 43.6353 33.2087C45.9562 29.6582 50.646 30.2888 53.1556 33.1693C54.5146 34.7291 55.3705 36.9423 54.2128 38.8711C53.82 39.559 53.3803 40.2489 53.0168 41.0073C52.5247 42.0334 54.6118 41.9255 55.5113 42.109C58.1416 42.3156 59.9216 46.1491 57.1608 47.6699Z" fill="#FAFAFD"/>
<defs>
<filter id="filter0_d_596_1878" x="2.45801" y="2.27734" width="80.9897" height="84.323" filterUnits="userSpaceOnUse" color-interpolation-filters="sRGB">
<feFlood flood-opacity="0" result="BackgroundImageFix"/>
<feColorMatrix in="SourceAlpha" type="matrix" values="0 0 0 0 0 0 0 0 0 0 0 0 0 0 0 0 0 0 127 0" result="hardAlpha"/>
<feOffset dy="3.33274"/>
<feComposite in2="hardAlpha" operator="out"/>
<feColorMatrix type="matrix" values="0 0 0 0 0 0 0 0 0 0 0 0 0 0 0 0 0 0 1 0"/>
<feBlend mode="normal" in2="BackgroundImageFix" result="effect1_dropShadow_596_1878"/>
<feBlend mode="normal" in="SourceGraphic" in2="effect1_dropShadow_596_1878" result="shape"/>
</filter>
</defs>
</svg>
