<svg class="{{ .class }}" viewBox="0 0 188 188" fill="none" xmlns="http://www.w3.org/2000/svg">
<circle cx="93.9968" cy="94.0008" r="93.22" fill="#FAFAFD"/>
<path d="M115.938 94.8605L82.4382 117.194C82.2003 117.352 81.9238 117.443 81.6383 117.456C81.3527 117.47 81.0688 117.406 80.8168 117.271C80.5648 117.136 80.3541 116.936 80.2072 116.69C80.0602 116.445 79.9826 116.165 79.9824 115.879V71.2126C79.9826 70.9267 80.0602 70.6462 80.2072 70.401C80.3541 70.1558 80.5648 69.9551 80.8168 69.8202C81.0688 69.6852 81.3527 69.6212 81.6383 69.6349C81.9238 69.6485 82.2003 69.7394 82.4382 69.8977L115.938 92.2308C116.154 92.3752 116.332 92.5707 116.455 92.8001C116.577 93.0294 116.642 93.2855 116.642 93.5457C116.642 93.8058 116.577 94.0619 116.455 94.2913C116.332 94.5207 116.154 94.7162 115.938 94.8605Z" fill="#222222"/>
</svg>
