<?xml version="1.0"?>
<svg xmlns="http://www.w3.org/2000/svg" width="47" height="77" viewBox="0 0 47 77" fill="none">
<path d="M20.363 10C20.363 8.26746 21.7675 6.86296 23.5 6.86296C25.2325 6.86296 26.637 8.26746 26.637 10L23.5 10L20.363 10ZM25.7182 69.2182C24.4931 70.4433 22.5069 70.4433 21.2818 69.2182L1.3178 49.2542C0.0927102 48.0291 0.0927102 46.0429 1.3178 44.8178C2.54289 43.5927 4.52915 43.5927 5.75424 44.8178L23.5 62.5636L41.2458 44.8178C42.4709 43.5927 44.4571 43.5927 45.6822 44.8178C46.9073 46.0429 46.9073 48.0291 45.6822 49.2542L25.7182 69.2182ZM23.5 10L26.637 10L26.637 67L23.5 67L20.363 67L20.363 10L23.5 10Z" fill="white"/>
</svg>
