<?xml version="1.0"?>
<svg xmlns="http://www.w3.org/2000/svg" width="47" height="77" viewBox="0 0 47 77" fill="none">
<path d="M20.363 67C20.363 68.7325 21.7675 70.137 23.5 70.137C25.2325 70.137 26.637 68.7325 26.637 67L23.5 67L20.363 67ZM25.7182 7.78178C24.4931 6.55669 22.5069 6.55669 21.2818 7.78178L1.3178 27.7458C0.0927102 28.9709 0.0927102 30.9571 1.3178 32.1822C2.54289 33.4073 4.52915 33.4073 5.75424 32.1822L23.5 14.4364L41.2458 32.1822C42.4709 33.4073 44.4571 33.4073 45.6822 32.1822C46.9073 30.9571 46.9073 28.9709 45.6822 27.7458L25.7182 7.78178ZM23.5 67L26.637 67L26.637 10L23.5 10L20.363 10L20.363 67L23.5 67Z" fill="white"/>
</svg>
