<?xml version="1.0"?>
<svg xmlns="http://www.w3.org/2000/svg" width="833" height="396" viewBox="0 0 833 396" fill="none">
<path d="M207.581 303.597C272.694 303.597 325.478 298.434 325.478 292.064C325.478 285.695 272.694 280.532 207.581 280.532C142.468 280.532 89.6836 285.695 89.6836 292.064C89.6836 298.434 142.468 303.597 207.581 303.597Z" fill="black"/>
<path d="M204.259 141.724C167.488 142.541 136.993 112.396 136.147 74.3946C135.3 36.3929 164.423 4.92438 201.194 4.10759C237.965 3.2908 268.46 33.4351 269.306 71.4367C270.153 109.438 241.03 140.907 204.259 141.724Z" fill="#ACACAC"/>
<path d="M201.919 5.95164C210.165 5.11428 220.812 8.83352 228.43 11.4343C240.774 15.6576 253.516 22.6012 259.49 34.4073C272.314 59.7376 275.801 80.0419 264.952 101.206C254.104 122.371 238.669 133.487 226.527 136.967C214.7 140.367 214.396 140.456 214.386 140.456C216.345 139.891 218.518 118.183 218.872 115.743C220.673 103.488 221.265 91.0865 220.683 78.7211C220.059 65.3652 218.057 52.0808 214.703 39.1126C213.026 32.6285 211.014 26.2336 208.677 19.9481C207.536 16.8968 206.531 13.5153 204.935 10.6581C204.031 9.04273 202.375 7.61784 201.918 5.94142L201.919 5.95164Z" fill="#EEEEEE"/>
<path d="M118.96 41.8903C116.653 47.9007 118.458 53.2578 122.546 57.8997C125.386 61.1383 127.547 62.2761 133.883 64.6501C131.672 84.1511 136.783 101.701 148.738 117.351C146.934 118.955 145.15 120.476 143.47 122.088C134.06 131.2 128.397 142.079 128.358 155.419C128.317 163.679 130.4 171.411 135.1 178.299C136.145 179.819 137.563 181.096 138.862 182.529L140.429 182.259C140.243 181.711 139.965 181.145 139.574 180.581C135.41 174.336 132.409 167.585 131.597 160.018C130.408 148.883 133.713 139.037 140.134 130.114C143.027 126.084 146.599 122.673 150.769 120.035C153.994 123.081 157.187 126.097 160.547 129.253C160.068 129.734 159.607 130.173 159.147 130.623C154.691 135.097 151.373 140.23 150.083 146.504C148.147 155.89 151.706 164.775 159.096 169.078C160.876 170.112 162.525 170.269 164.579 169.416C171.503 166.523 179.908 167.318 184.946 175.169C186.142 177.044 186.821 179.073 186.221 181.488C185.237 180.907 184.395 180.231 183.426 179.874C181.86 179.275 180.226 178.831 178.572 178.428C178.285 178.363 177.856 178.822 177.493 179.045C177.734 179.346 177.936 179.679 178.217 179.918C178.436 180.097 178.744 180.193 179.022 180.278C183.469 181.785 186.579 184.711 188.351 189.056C188.999 190.637 189.658 192.217 190.393 194.05C191.368 191.933 190.937 190.052 190.244 188.258C189.551 186.515 188.666 184.848 187.786 182.967C188.352 183.138 188.918 183.35 189.475 183.583L189.566 181.69C189.259 181.656 188.962 181.642 188.624 181.609C189.373 179.456 189.41 177.462 188.467 175.469C186.838 172.081 184.379 169.457 181.199 167.504C180.433 167.041 179.842 166.655 180.196 165.594C181.575 161.475 182.769 157.288 184.262 153.197C185.494 149.807 186.993 146.513 188.452 143.2C188.627 142.797 189.311 142.322 189.7 142.354C193.858 142.824 198.019 143.417 202.169 143.969C199.496 149.159 197.244 154.484 195.486 159.95L198.376 160.796C200.123 155.309 202.385 149.984 204.944 144.745C205.237 144.125 206.216 143.603 206.949 143.484C209.513 143.008 212.089 142.604 214.674 142.178L214.273 139.775C205.417 141.218 196.124 140.913 186.88 138.665C154.678 130.834 132.764 99.2039 136.636 66.2756C138.011 54.6026 142.128 44.0749 148.778 34.411C155.486 24.6537 164.775 17.8649 174.834 12.2038C176.67 11.1614 178.602 10.3212 180.579 9.61295L180 7.92899C179.837 7.98369 179.665 8.04884 179.513 8.10333C171.678 10.8939 164.363 14.5418 158.072 20.1091C153.623 24.0307 149.591 28.3008 146.175 33.1297C145.709 33.8044 145.234 34.4691 144.749 35.1545C140.974 33.1224 137.148 31.4798 132.823 31.7904C126.132 32.2863 121.334 35.6229 118.939 41.8703L118.96 41.8903ZM140.11 43.3939C132.465 38.6366 124.866 39.6536 121.439 45.372C123.03 35.6466 135.126 31.5349 143.152 37.7556C142.141 39.6282 141.131 41.5109 140.11 43.3939ZM152.9 154.21C151.845 144.461 156.518 137.305 163.345 131.031C170.351 135.945 177.945 139.334 186.096 141.535C184.316 145.581 182.41 149.446 180.926 153.445C179.442 157.444 178.36 161.598 177.064 165.797C171.889 164.613 167.028 165.14 162.336 167.79C161.537 167.194 160.778 166.639 160.02 166.093C155.9 163.179 153.462 159.237 152.9 154.21Z" fill="black"/>
<path d="M186.097 213.269L186.098 213.31C186.098 213.31 186.109 213.361 186.11 213.381C188.55 212.857 190.726 212.39 193.034 211.899C194.439 218.573 197.055 225.006 200.037 231.379C202.774 237.278 204.184 243.707 204.381 250.234C204.568 256.343 204.644 262.505 204.065 268.579C203.61 273.393 202.132 278.118 200.981 282.856C200.662 284.13 200.039 285.493 198.377 285.653C194.982 285.973 191.574 286.621 188.19 286.492C179.499 286.164 170.784 285.693 162.103 284.904C157.149 284.462 152.204 283.529 147.366 282.358C143.216 281.336 139.532 279.241 136.837 275.651C134.425 272.424 135.06 268.822 135.328 265.289C135.967 256.801 139.115 249.546 146.056 244.26C155.218 237.301 165.533 233.954 177.043 234.251C178.976 234.31 180.926 234.267 182.852 234.05C183.504 233.975 184.101 233.266 184.725 232.854C184.115 232.51 183.532 232.032 182.895 231.842C182.123 231.613 181.286 231.642 180.508 231.557C180.132 229.838 179.892 228.198 179.397 226.624C178.967 225.213 179.184 224.411 180.598 223.684C184.79 221.557 186.892 218.219 186.089 213.382C186.069 213.382 186.038 213.393 186.018 213.394L186.076 213.27L186.097 213.269ZM132.37 265.028C131.841 271.551 133.289 277.805 134.573 284.094C134.907 285.783 136.013 286.801 137.526 287.33C140.79 288.474 144.041 289.935 147.415 290.525C156.799 292.156 166.242 293.644 175.705 294.722C180.417 295.261 185.233 294.991 189.986 294.65C195.229 294.288 199.793 291.898 203.283 288.038C204.659 286.525 204.94 284.005 205.608 281.905C205.876 281.081 205.815 280.162 206.202 279.203C206.322 279.548 206.432 279.893 206.541 280.228L209.289 279.308C208.901 278.397 208.643 277.34 208.504 276.147C207.238 265.647 207.312 255.229 209.594 244.865C210.457 240.951 211.575 237.062 213.211 233.459L210.962 232.476C209.407 236.047 207.955 239.616 206.499 243.042C206.476 242.961 206.383 242.442 206.229 241.934C204.811 237.458 203.707 232.831 201.904 228.517C199.532 222.907 197.434 217.26 196.106 211.309C195.801 209.998 196.058 209.174 196.956 208.183C201.933 202.788 204.519 193.235 197.728 186.915C194.754 184.16 194.501 181.508 194.838 177.841C195.371 171.962 196.624 166.312 198.382 160.825L195.492 159.979C193.238 167.021 191.827 174.289 191.485 181.851C190.748 181.795 190.155 181.747 189.571 181.709L189.481 183.602C195.052 186.065 199.539 192.108 199.227 196.879C198.976 200.758 197.477 204.083 194.884 206.89C191.97 210.021 188.422 211.705 183.994 211.036C184.027 211.628 184.055 211.975 184.063 212.302C184.122 214.499 184.224 216.796 182.628 218.508C179.634 221.692 176.008 223.561 171.448 222.947C170.085 222.763 168.704 222.66 166.912 222.485C167.365 223.528 167.623 224.126 167.989 224.956L168.234 226.32C170.962 225.861 173.572 226.099 176.333 225.742C176.896 227.651 177.438 229.489 178.035 231.54C176.066 231.645 174.333 231.817 172.597 231.845C166.683 231.895 160.96 233.187 155.64 235.594C150.684 237.841 145.818 240.433 141.808 244.314C135.958 250.004 133.028 256.969 132.37 265.038L132.37 265.028Z" fill="black"/>
<path d="M140.147 130.113C133.726 139.035 130.421 148.881 131.609 160.017C132.421 167.583 135.412 174.335 139.587 180.58C139.967 181.154 140.256 181.71 140.442 182.257C140.9 183.576 140.817 184.886 140.308 186.349C135.978 198.773 139.688 209.403 147.858 218.881C151.35 222.923 156.227 224.45 161.426 224.877C163.565 225.044 165.728 224.914 167.996 224.925C167.63 224.095 167.372 223.498 166.92 222.455C168.711 222.64 170.093 222.742 171.456 222.916C176.015 223.531 179.631 221.662 182.635 218.477C184.232 216.766 184.139 214.458 184.07 212.272C184.063 211.935 184.045 211.598 184.001 211.006C188.429 211.674 191.978 209.991 194.891 206.859C197.495 204.052 198.994 200.727 199.234 196.848C199.547 192.078 195.06 186.044 189.488 183.572C188.931 183.339 188.365 183.126 187.799 182.955C188.679 184.847 189.564 186.503 190.256 188.246C190.95 190.04 191.391 191.921 190.406 194.039C189.66 192.205 189.012 190.615 188.364 189.045C186.591 184.699 183.482 181.773 179.035 180.267C178.747 180.171 178.438 180.086 178.23 179.906C177.949 179.667 177.747 179.334 177.505 179.033C177.868 178.81 178.308 178.351 178.585 178.416C180.228 178.819 181.873 179.263 183.439 179.862C184.407 180.219 185.25 180.895 186.234 181.477C186.833 179.061 186.155 177.032 184.959 175.157C179.931 167.306 171.516 166.522 164.592 169.404C162.537 170.268 160.899 170.1 159.109 169.066C151.718 164.763 148.159 155.878 150.095 146.492C151.385 140.208 154.693 135.085 159.16 130.611C159.62 130.161 160.08 129.711 160.56 129.241C157.2 126.085 154.006 123.069 150.782 120.023C146.611 122.65 143.04 126.062 140.147 130.102L140.147 130.113Z" fill="#ACACAC"/>
<path d="M121.442 45.3743C124.88 39.6554 132.469 38.6284 140.115 43.3961C141.135 41.513 142.146 39.6301 143.156 37.7575C135.13 31.5365 123.034 35.6483 121.442 45.3743Z" fill="#ACACAC"/>
<path d="M135.348 265.278C135.079 268.81 134.444 272.412 136.856 275.64C139.551 279.229 143.235 281.335 147.385 282.347C152.213 283.518 157.168 284.45 162.123 284.892C170.804 285.681 179.519 286.162 188.21 286.481C191.584 286.6 195.003 285.962 198.397 285.641C200.059 285.482 200.683 284.119 201.002 282.844C202.152 278.106 203.621 273.392 204.085 268.567C204.665 262.503 204.589 256.341 204.401 250.222C204.205 243.695 202.794 237.266 200.058 231.368C197.085 224.983 194.46 218.561 193.054 211.887C190.736 212.378 188.57 212.845 186.13 213.369C186.943 218.207 184.831 221.545 180.638 223.672C179.224 224.398 179.007 225.201 179.437 226.612C179.932 228.175 180.173 229.826 180.548 231.545C181.327 231.63 182.164 231.591 182.935 231.829C183.583 232.009 184.156 232.497 184.766 232.841C184.142 233.264 183.545 233.962 182.892 234.038C180.966 234.255 179.016 234.298 177.084 234.238C165.563 233.942 155.258 237.288 146.096 244.248C139.155 249.533 135.996 256.789 135.368 265.277L135.348 265.278Z" fill="#ACACAC"/>
<path d="M138.861 182.528C132.988 196.346 135.448 210.888 145.571 220.926C151.442 226.734 158.623 228.998 166.479 226.697C167.068 226.521 167.658 226.395 168.228 226.301L167.983 224.936C165.715 224.925 163.551 225.045 161.413 224.888C156.213 224.462 151.337 222.934 147.845 218.892C139.675 209.424 135.964 198.784 140.295 186.36C140.803 184.898 140.887 183.587 140.428 182.269L138.861 182.539L138.861 182.528Z" fill="black"/>
<path d="M180.21 165.613C179.856 166.684 180.457 167.059 181.213 167.522C184.383 169.476 186.852 172.099 188.481 175.487C189.424 177.48 189.397 179.474 188.638 181.627C188.976 181.661 189.272 181.674 189.58 181.708C190.163 181.747 190.756 181.795 191.493 181.85C191.846 174.288 193.246 167.02 195.5 159.979C197.248 154.512 199.51 149.188 202.183 143.997C198.033 143.445 193.872 142.863 189.714 142.383C189.314 142.34 188.641 142.825 188.466 143.228C187.007 146.541 185.507 149.825 184.276 153.226C182.793 157.317 181.589 161.493 180.21 165.623L180.21 165.613Z" fill="#ACACAC"/>
<path d="M181.194 61.9856C181.182 62.3538 181.57 62.795 181.863 63.1258C183.75 65.302 185.688 67.4465 187.556 69.6436C189.004 71.3594 188.676 72.2355 186.42 72.766C184.946 73.1155 183.449 73.3327 181.425 73.7149C182.695 77.0497 183.878 80.182 185.061 83.304C185.223 83.2391 185.375 83.1744 185.537 83.1196C185.135 83.4046 184.753 83.689 184.19 84.0899C186.663 84.5768 188.93 85.0069 191.198 85.4779C192.635 85.7834 194.044 86.2019 195.5 86.4047C196.145 86.5028 196.832 86.1605 197.514 86.0125C197.032 85.5018 196.6 84.9083 196.039 84.4915C195.592 84.1539 194.977 84.0448 194.369 83.813C197.173 79.9075 198.137 75.4805 197.984 70.9148C197.834 66.0526 197.49 61.1334 196.637 56.3482C196.172 53.8031 194.826 51.1855 193.207 49.126C190.01 45.0265 185.321 44.5785 182.783 50.3385C181.14 54.065 181.321 58.0474 181.194 61.9856V61.9856Z" fill="black"/>
<path d="M251.734 10.1958C251.734 10.1958 251.728 10.2014 251.718 10.2097C251.699 10.2267 251.667 10.2551 251.654 10.2692C251.614 10.2905 251.573 10.3119 251.533 10.323C251.595 10.2852 251.65 10.2476 251.718 10.2097C251.727 10.205 251.735 10.2003 251.744 10.1956L251.734 10.1958ZM251.754 10.175C251.14 10.1477 250.499 10.2539 249.924 10.1031C245.576 8.92184 241.426 9.28989 237.449 11.4634C237.096 11.6654 236.517 11.8213 236.187 11.6753C233.556 10.5173 230.975 9.27641 228.177 7.97897C232.166 4.07775 236.709 2.56636 242.086 3.60216C246.272 4.40881 249.27 6.89776 251.744 10.165L251.754 10.175Z" fill="black"/>
<path fill-rule="evenodd" clip-rule="evenodd" d="M180.027 7.93293L180.606 9.6169C184.985 8.06827 189.635 7.23936 194.28 6.64567C199.273 6.01668 199.304 6.06344 202.026 10.211L202.075 10.2855C202.402 10.7689 202.71 11.2731 203.047 11.7563C213.399 27.4318 217.066 45.2897 219.719 63.4359C220.333 67.6234 220.306 71.9069 220.646 76.1414C220.786 77.8556 221.018 79.5472 221.24 81.2494L222.732 81.2572C222.867 54.33 218.535 28.6876 201.925 5.88321C205.753 6.16629 209.238 6.22187 212.651 6.72879C257.166 13.2645 283.602 60.2708 264.366 101.994C254.855 122.617 235.861 136.307 214.301 139.78L214.702 142.183C216.768 141.851 218.814 141.499 220.859 141.106C223.931 140.517 224.009 140.341 224.861 143.287C228.06 154.317 230.004 165.456 229.344 177.073C228.473 192.537 225.246 207.267 217.59 220.848C216.215 223.311 214.219 225.42 213.019 227.951C212.317 229.449 211.635 230.956 210.974 232.463L213.223 233.446C214.207 231.277 215.376 229.207 216.774 227.285C222.167 219.908 225.777 211.855 228.354 203.232C231.072 194.084 232.343 184.683 232.406 175.155C232.434 170.452 232.451 165.698 231.796 161.052C230.788 153.899 229.434 146.763 226.474 140.021C230.105 138.387 233.686 136.794 237.59 135.042C250.703 167.348 248.819 199.19 235.867 230.919C234.845 230.871 234.014 230.725 233.199 230.836C232.598 230.92 232.025 231.322 231.438 231.58C231.939 232.059 232.365 232.817 232.961 232.977C234.831 233.467 236.74 233.864 238.666 234.087C248.487 235.178 257.142 238.921 264.692 245.306C269.513 249.39 273.276 254.131 274.776 260.466C275.747 264.595 276.074 268.727 275.452 272.912C275.203 274.573 275.191 276.342 274.551 277.838C273.124 281.212 270.32 283.268 266.935 284.528C261.951 286.387 256.733 286.973 251.465 286.671C243.823 286.227 236.199 285.65 228.582 284.929C223.863 284.482 219.175 283.656 214.481 282.973C211.775 282.594 210.183 281.29 209.301 279.285L206.553 280.205C206.739 280.753 206.925 281.311 207.121 281.859C208.791 286.186 210.844 290.311 215.55 291.965C217.774 292.744 220.269 292.831 222.636 293.167C232.588 294.572 242.564 294.831 252.597 294.373C258.261 294.125 263.897 293.939 269.413 292.528C270.815 292.18 272.073 291.355 273.387 290.702C273.68 290.563 273.98 290.28 274.147 289.99C275.159 288.179 276.14 286.358 277.09 284.528L277.105 284.499C277.337 284.039 277.618 283.484 277.547 283.026C276.835 278.595 278.632 274.395 278.749 270.017C279.004 259.923 275.638 251.452 268.08 244.699C259.855 237.338 250.345 232.796 239.334 231.538C239.099 231.522 238.872 231.446 238.205 231.317C245.892 215.937 248.888 199.556 249.236 182.632C249.584 165.697 247.133 149.263 239.645 133.729C240.933 132.852 242.315 132.054 243.529 131.056C246.86 128.345 250.411 125.823 253.345 122.723C251.821 124.024 265.347 108.422 263.823 109.743C267.284 103.227 270.201 96.5795 271.726 89.3801C271.726 89.3801 272.868 84.7039 272.565 84.8639C272.802 82.661 273.083 80.59 273.22 78.5017C274.467 59.7579 268.969 43.1775 257.121 28.6698C256.019 27.3245 255.629 26.3519 256.243 24.5392C260.278 12.6027 251.526 0.387548 238.974 0.594421C234.021 0.663415 229.524 2.40888 226.307 6.56897C226.029 6.9329 225.071 7.03592 224.556 6.88378C215.782 4.2061 206.84 3.14719 197.704 3.9325C191.627 4.46596 185.785 5.92439 180.037 7.9327L180.027 7.93293ZM251.734 10.1958C251.734 10.1958 251.728 10.2014 251.718 10.2097C251.65 10.2476 251.595 10.2852 251.533 10.323C251.573 10.3119 251.614 10.2905 251.654 10.2692C251.667 10.2551 251.699 10.2267 251.718 10.2097C251.727 10.205 251.735 10.2003 251.744 10.1956L251.734 10.1958ZM249.924 10.1031C250.499 10.2539 251.14 10.1477 251.754 10.175L251.744 10.165C249.27 6.89776 246.272 4.40881 242.086 3.60216C236.709 2.56636 232.166 4.07775 228.177 7.97897C230.975 9.27641 233.556 10.5173 236.187 11.6753C236.517 11.8213 237.096 11.6654 237.449 11.4634C241.426 9.28989 245.576 8.92184 249.924 10.1031Z" fill="black"/>
<path d="M186.044 213.394C186.044 213.394 186.095 213.383 186.116 213.382C186.115 213.362 186.104 213.331 186.104 213.31L186.103 213.269L186.044 213.394V213.394Z" fill="black"/>
<path d="M233.889 129.701C237.298 127.171 238.286 122.685 236.197 118.38C233.171 112.1 228.512 107.567 221.602 105.805C211.677 103.275 202.546 105.264 194.408 111.308C190.075 114.532 187.595 119.093 187.431 124.652C187.341 127.507 188.354 129.747 191.006 131.202C191.699 131.581 191.992 131.588 192.616 131.208C194.434 130.102 196.312 129.095 198.104 128.079C198.095 128.084 198.846 127.665 198.846 127.665L200.117 127.241L202.408 126.564C202.785 126.435 203.186 126.38 203.581 126.309C208.239 125.535 212.546 126.908 216.875 128.411C219.93 129.474 223.049 130.398 226.2 131.14C228.899 131.771 231.586 131.425 233.889 129.701ZM229.358 113.077L229.356 113.079C223.028 116.592 216.424 117.413 209.339 115.497C210.638 114.302 211.82 113.308 212.9 112.219C213.374 111.741 213.722 111.094 213.982 110.457C214.101 110.174 213.858 109.751 213.788 109.392C213.739 109.407 213.679 109.418 213.61 109.43C213.349 109.468 213.065 109.486 212.879 109.617C212.015 110.211 211.191 110.846 210.388 111.519C207.875 113.61 205.244 115.447 201.874 115.929C199.172 116.316 196.53 116.376 193.979 115.125C197.374 110.155 205.687 107.482 213.566 107.409C220.255 107.35 226.63 109.18 229.356 113.079C229.358 113.081 229.359 113.083 229.361 113.086L229.358 113.077Z" fill="black"/>
<path d="M229.356 113.079C223.028 116.592 216.424 117.413 209.339 115.497C210.638 114.302 211.82 113.308 212.9 112.219C213.374 111.741 213.722 111.094 213.982 110.457C214.101 110.174 213.858 109.751 213.788 109.392C213.739 109.407 213.679 109.418 213.61 109.43C213.349 109.468 213.065 109.486 212.879 109.617C212.015 110.211 211.191 110.846 210.388 111.519C207.875 113.61 205.244 115.447 201.874 115.929C199.172 116.316 196.53 116.376 193.979 115.125C197.374 110.155 205.687 107.482 213.566 107.409C220.255 107.35 226.63 109.18 229.356 113.079Z" fill="black"/>
<path d="M200.062 13.3422C199.645 13.883 198.781 14.5564 198.902 14.9217C199.155 15.7338 199.905 16.3714 200.462 17.0643C200.706 17.0384 200.951 16.9921 201.216 16.9658C201.538 16.3147 202.295 15.4393 202.093 15.086C201.679 14.3592 200.769 13.9092 200.062 13.3422V13.3422Z" fill="black"/>
<path d="M209.603 244.862C207.321 255.216 207.247 265.644 208.513 276.144C208.652 277.337 208.911 278.394 209.299 279.306C210.181 281.31 211.773 282.604 214.479 282.993C219.173 283.676 223.86 284.502 228.58 284.95C236.196 285.67 243.83 286.237 251.461 286.691C256.729 286.993 261.937 286.407 266.932 284.549C270.316 283.288 273.12 281.232 274.547 277.858C275.188 276.362 275.199 274.593 275.448 272.932C276.07 268.737 275.743 264.615 274.772 260.487C273.272 254.142 269.509 249.411 264.688 245.327C257.139 238.932 248.484 235.199 238.663 234.108C236.737 233.895 234.828 233.488 232.958 232.998C232.362 232.837 231.936 232.08 231.435 231.601C232.022 231.342 232.595 230.941 233.196 230.856C234.011 230.756 234.832 230.892 235.864 230.94C248.805 199.211 250.7 167.38 237.588 135.063C233.683 136.816 230.113 138.408 226.471 140.043C229.431 146.785 230.785 153.92 231.793 161.073C232.448 165.72 232.432 170.484 232.404 175.176C232.33 184.704 231.069 194.105 228.351 203.253C225.785 211.876 222.164 219.919 216.771 227.306C215.374 229.228 214.215 231.298 213.221 233.466C211.585 237.08 210.466 240.959 209.603 244.872L209.603 244.862Z" fill="#EEEEEE"/>
<path d="M207.304 88.4924C204.336 91.4715 204.743 95.0606 208.316 97.22C209.507 97.9295 210.869 98.5433 212.223 98.7688C214.991 99.2287 217.804 99.381 220.927 99.7001C220.844 100.561 220.888 101.602 220.695 102.578L221.66 102.751C221.887 101.488 222.124 100.215 222.36 98.8915C223.123 98.7519 224.132 98.6273 225.086 98.3506C227.654 97.5883 230.275 96.9373 232.735 95.9116C234.03 95.3616 235.191 94.2421 236.096 93.1385C238.145 90.6806 237.864 87.702 235.239 85.8794C233.651 84.78 231.713 83.9745 229.813 83.5567C227.37 83.018 224.826 83.0029 222.706 82.8046C222.705 82.2833 222.724 81.7718 222.712 81.2507L221.221 81.2429C221.295 81.8035 221.358 82.3745 221.432 82.9351C219.489 83.3155 217.809 83.5572 216.153 83.9926C212.893 84.8418 209.742 86.0259 207.294 88.4824L207.304 88.4924ZM208.371 92.7926C207.805 91.2616 209.386 90.2146 210.572 89.3296C211.094 88.9501 211.638 88.5802 212.225 88.3219C218.363 85.4871 224.675 84.5191 231.241 86.6427C232.702 87.1112 234.258 87.7002 234.532 89.4523C234.805 91.1636 233.468 92.1132 232.292 92.9877C231.487 93.5678 230.632 94.1592 229.699 94.4661C226.747 95.3903 223.751 96.1927 220.603 97.0803C217.548 96.5961 214.436 96.3073 211.466 95.5248C210.253 95.1939 208.795 93.9587 208.371 92.7926V92.7926Z" fill="black"/>
<path d="M207.259 29.5668C206.003 29.5947 205.487 30.3114 205.216 31.9018C205.923 32.4279 206.576 33.3129 207.344 33.3981C208.665 33.5528 209.1 32.4187 209.054 31.2647C209.029 30.1511 208.412 29.531 207.259 29.5668Z" fill="black"/>
<path d="M210.583 89.33C209.397 90.215 207.816 91.262 208.382 92.793C208.806 93.9592 210.264 95.1944 211.477 95.5253C214.447 96.3078 217.559 96.5966 220.615 97.0808C223.762 96.183 226.758 95.3907 229.71 94.4666C230.644 94.1597 231.499 93.5785 232.303 92.9882C233.479 92.1136 234.816 91.1537 234.543 89.4527C234.269 87.7005 232.714 87.1115 231.252 86.643C224.687 84.5193 218.374 85.4874 212.236 88.3222C211.649 88.5806 211.106 88.9504 210.583 89.33V89.33Z" fill="#F36869"/>
<path d="M212.554 132.626C212.221 133.267 211.571 133.915 211.636 134.507C211.699 135.047 212.516 135.499 212.997 135.989C213.485 135.447 214.312 134.938 214.38 134.354C214.429 133.801 213.659 133.174 213.268 132.579C213.023 132.585 212.788 132.6 212.554 132.616L212.554 132.626Z" fill="black"/>
<path d="M212.081 45.6412C211.012 45.3787 210.257 46.3154 210.454 47.3537C210.603 48.1068 211.333 48.7448 211.807 49.4191C212.063 49.4135 212.308 49.3978 212.563 49.3819C212.987 48.7183 213.849 47.9837 213.735 47.4342C213.607 46.7216 212.779 45.8199 212.081 45.6412Z" fill="black"/>
<path d="M216.384 101.846C216.051 102.467 215.402 103.135 215.466 103.727C215.529 104.257 216.346 104.719 216.827 105.209C217.316 104.667 218.142 104.158 218.21 103.564C218.26 103.021 217.489 102.384 217.098 101.789C216.853 101.805 216.619 101.82 216.384 101.846Z" fill="black"/>
<path d="M215.244 62.4565C214.533 62.6052 213.959 63.4356 212.815 64.3708C214.068 65.1403 214.801 65.9315 215.464 65.8862C216.046 65.8528 216.923 64.9032 217.021 64.257C217.162 63.2317 216.475 62.1941 215.254 62.446L215.244 62.4565Z" fill="black"/>
<path d="M216.342 76.6909C216.009 77.332 215.369 77.98 215.434 78.5714C215.486 79.112 216.304 79.5641 216.795 80.054C217.283 79.5117 218.11 79.0027 218.168 78.4187C218.227 77.8654 217.468 77.2383 217.056 76.6444C216.821 76.6598 216.586 76.665 216.342 76.6807L216.342 76.6909Z" fill="black"/>
<path d="M232.338 57.558C232.328 58.0182 232.861 58.5482 233.217 58.9696C235.095 61.1562 237.033 63.3007 238.87 65.5189C240.025 66.9141 239.689 67.8824 237.921 68.31C236.336 68.6927 234.716 68.9229 232.519 69.3294C233.81 72.7148 234.992 75.7959 236.175 78.8873C236.337 78.8224 236.509 78.7572 236.661 78.6926C236.259 78.9877 235.877 79.2721 235.233 79.7362C236.792 79.998 238.093 80.1736 239.376 80.4415C241.902 80.9784 244.408 81.6076 246.943 82.1034C247.466 82.2042 248.07 81.8024 248.628 81.6367C248.26 81.1644 247.971 80.578 247.504 80.2408C246.944 79.8546 246.225 79.707 245.494 79.4268C248.288 75.5317 249.251 71.1048 249.109 66.5388C248.959 61.6766 248.665 56.7461 247.762 51.9824C247.242 49.2647 245.81 46.4446 244.006 44.3483C240.641 40.4876 236.524 40.5176 234.074 45.6011C232.237 49.3727 232.452 53.5179 232.328 57.5583L232.338 57.558Z" fill="black"/>
<path d="M228.184 7.99387C230.971 9.29161 233.563 10.5221 236.194 11.6904C236.534 11.826 237.103 11.6805 237.456 11.4784C241.433 9.30486 245.583 8.92658 249.931 10.1181C250.496 10.2692 251.138 10.1629 251.761 10.19C249.287 6.91237 246.29 4.43349 242.103 3.62679C236.717 2.59116 232.183 4.10241 228.194 8.00386L228.184 7.99387Z" fill="#EEEEEE"/>
<path d="M215.548 140.579C216.636 136.19 217.404 131.686 217.825 127.189L216.903 127.107C216.481 131.563 215.722 136.016 214.654 140.353L215.548 140.579Z" fill="black"/>
<path fill-rule="evenodd" clip-rule="evenodd" d="M265.451 102.007L270.451 103.007L290.952 110.508C290.952 110.508 295.452 112.508 302.412 116.508C309.372 120.508 313.453 123.508 315.453 125.509L315.569 125.624C317.568 127.623 320.503 130.556 320.954 133.009C321.413 135.509 321.413 137.509 318.954 142.509C316.494 147.51 299.412 153.01 299.412 153.01L279.451 157.01C279.451 157.01 278.411 160.51 277.411 161.511C276.41 162.511 274.41 164.511 270.451 166.011C266.491 167.511 260.45 165.511 260.45 165.511L251.909 170.011C251.909 170.011 246.45 172.511 243.95 173.511C241.45 174.511 240.45 176.51 239.45 178.51L239.449 178.511C238.449 180.512 238.449 183.512 238.949 185.012C239.449 186.512 240.949 191.512 240.449 194.512C239.949 197.513 237.949 199.013 236.449 200.013C234.949 201.013 228.949 201.513 226.949 200.513C224.949 199.513 222.948 198.013 221.448 196.012C219.948 194.012 219.448 191.512 219.448 191.512C219.448 191.512 215.448 190.512 212.948 188.512C210.448 186.512 209.448 181.012 209.448 181.012C209.448 181.012 205.447 179.512 202.947 176.511C200.447 173.511 200.947 165.011 200.947 165.011C200.947 165.011 204.947 156.51 211.948 151.51C218.948 146.51 233.949 140.509 233.949 140.509L247.45 136.509C247.45 136.509 247.353 133.252 247.95 132.009C248.015 131.873 248.089 131.707 248.175 131.516C248.87 129.964 250.292 126.79 253.409 125.008C256.909 123.008 260.95 122.508 260.95 122.508C260.95 122.508 268.992 121.508 272.951 124.008C276.91 126.509 280.451 129.509 280.451 129.509L281.952 129.009C281.952 129.009 277.951 124.508 271.451 121.508C264.951 118.508 256.95 116.008 256.95 116.008L265.451 102.007ZM283.911 111.008C276.41 108.008 265.951 105.007 265.951 105.007L259.91 114.508C259.91 114.508 263.951 115.508 272.41 120.008C280.87 124.508 283.952 128.009 283.952 128.009C291.571 126.086 295.841 126.15 303.453 128.509C293.652 127.738 288.838 128.401 281.452 131.509C282.568 134.928 282.492 141.009 281.452 143.009C280.411 145.01 277.951 147.51 277.951 147.51L279.451 154.01C283.452 153.343 291.652 152.01 292.452 152.01C293.252 152.01 309.928 148.275 315.953 141.509C315.953 141.509 318.413 137.509 317.454 133.509C316.642 130.125 314.67 128.53 312.29 126.606C311.857 126.255 311.409 125.894 310.953 125.509C307.994 123.008 291.411 114.008 283.911 111.008ZM247.95 139.009C250.648 147.098 253.808 149.493 261.95 150.51C261.95 150.51 263.451 152.51 263.451 155.51C263.451 158.51 259.45 163.011 256.95 164.511C255.7 165.261 252.2 166.761 248.7 168.261C245.2 169.761 241.699 171.261 240.449 172.011C237.949 173.511 236.449 177.011 236.449 177.011C236.449 177.011 234.949 182.012 235.449 184.512C235.699 185.762 236.074 186.887 236.449 188.012C236.824 189.137 237.199 190.262 237.449 191.512C237.949 194.012 237.949 197.513 232.449 198.513C226.949 199.513 222.948 193.512 222.948 193.512C220.343 183.245 221.182 177.568 224.448 167.511C224.448 167.511 220.42 172.901 219.448 178.511C218.476 184.122 218.948 188.012 218.948 188.012C218.948 188.012 214.948 188.012 212.448 182.012C209.948 176.011 215.448 162.011 215.448 162.011C211.364 166.729 210.319 170.447 209.948 178.011C205.563 176.716 202.447 173.511 203.947 166.011C205.447 158.51 218.448 150.51 218.448 150.51C229.321 145.163 235.628 142.634 247.95 139.009ZM266.41 124.508C263.35 124.071 260.673 124.78 258.712 125.3C258.429 125.375 258.161 125.446 257.909 125.509C255.909 126.009 253.409 128.009 252.409 129.009C251.409 130.009 249.409 133.509 250.409 136.509C251.409 139.509 253.909 141.509 256.409 142.509C258.909 143.51 263.91 144.51 268.41 144.01C272.91 143.51 274.91 142.509 277.411 140.009C279.911 137.509 279.911 135.509 279.451 133.509C278.992 131.509 275.91 128.009 274.41 127.009C272.91 126.009 269.91 125.008 266.41 124.508ZM250.409 140.509C256.409 147.01 273.91 149.01 280.911 139.009C276.91 152.51 253.409 151.51 250.409 140.509ZM275.91 148.51C271.742 150.433 269.224 150.87 264.41 150.51C266.53 156.224 266.335 159.028 262.41 163.011C271.41 166.011 280.911 158.51 275.91 148.51Z" fill="black"/>
<path d="M247.95 139.009C250.648 147.098 253.808 149.493 261.95 150.51C261.95 150.51 263.451 152.51 263.451 155.51C263.451 158.51 259.45 163.011 256.95 164.511C255.7 165.261 252.2 166.761 248.7 168.261C245.2 169.761 241.699 171.261 240.449 172.011C237.949 173.511 236.449 177.011 236.449 177.011C236.449 177.011 234.949 182.012 235.449 184.512C235.699 185.762 236.074 186.887 236.449 188.012C236.824 189.137 237.199 190.262 237.449 191.512C237.949 194.012 237.949 197.513 232.449 198.513C226.949 199.513 222.948 193.512 222.948 193.512C220.343 183.245 221.182 177.568 224.448 167.511C224.448 167.511 220.42 172.901 219.448 178.511C218.476 184.122 218.948 188.012 218.948 188.012C218.948 188.012 214.948 188.012 212.448 182.012C209.948 176.011 215.448 162.011 215.448 162.011C211.364 166.729 210.319 170.447 209.948 178.011C205.563 176.716 202.447 173.511 203.947 166.011C205.447 158.51 218.448 150.51 218.448 150.51C229.321 145.163 235.628 142.634 247.95 139.009Z" fill="#F1F0EF"/>
<path d="M265.951 105.007C265.951 105.007 276.41 108.008 283.911 111.008C291.411 114.008 307.994 123.008 310.953 125.509C311.409 125.894 311.857 126.255 312.29 126.606C314.67 128.53 316.642 130.125 317.454 133.509C318.413 137.509 315.953 141.509 315.953 141.509C309.928 148.275 293.252 152.01 292.452 152.01C291.652 152.01 283.452 153.343 279.451 154.01L277.951 147.51C277.951 147.51 280.411 145.01 281.452 143.009C282.492 141.009 282.568 134.928 281.452 131.509C288.838 128.401 293.652 127.738 303.453 128.509C295.841 126.15 291.571 126.086 283.952 128.009C283.952 128.009 280.87 124.508 272.41 120.008C263.951 115.508 259.91 114.508 259.91 114.508L265.951 105.007Z" fill="#F1F1F0"/>
<path d="M264.41 150.51C269.224 150.87 271.742 150.433 275.91 148.51C280.911 158.51 271.41 166.011 262.41 163.011C266.335 159.028 266.53 156.224 264.41 150.51Z" fill="#767474"/>
<path d="M266.41 124.508C269.91 125.008 272.91 126.009 274.41 127.009C275.91 128.009 278.992 131.509 279.451 133.509C279.911 135.509 279.911 137.509 277.411 140.009C274.91 142.509 272.91 143.51 268.41 144.01C263.91 144.51 258.909 143.51 256.409 142.509C253.909 141.509 251.409 139.509 250.409 136.509C249.409 133.509 251.409 130.009 252.409 129.009C253.409 128.009 255.909 126.009 257.909 125.509C258.161 125.446 258.429 125.375 258.712 125.3C260.673 124.78 263.35 124.071 266.41 124.508Z" fill="#F4F4F3"/>
<path d="M250.409 140.509C256.409 147.01 273.91 149.01 280.911 139.009C276.91 152.51 253.409 151.51 250.409 140.509Z" fill="#C1C0C3"/>
<path d="M264.911 127.009C268.346 127.009 271.409 127.868 273.58 129.204C275.767 130.55 276.911 132.276 276.911 134.009C276.911 135.741 275.767 137.468 273.58 138.814C271.409 140.15 268.346 141.009 264.911 141.01C261.476 141.01 258.413 140.15 256.242 138.814C254.055 137.468 252.91 135.741 252.91 134.009C252.91 132.276 254.055 130.55 256.242 129.204C258.413 127.868 261.476 127.009 264.911 127.009Z" fill="#D9D9D9" stroke="black" stroke-width="2.00011"/>
<path d="M264.411 133.509C262.271 132.002 260.401 131.048 257.91 131.009C257.91 131.009 263.91 135.509 264.411 135.509C264.911 135.509 271.411 130.009 271.411 130.009C270.142 129.995 268.903 131.222 264.411 133.509Z" fill="black"/>
<mask id="path-31-outside-1_4979_2234" maskUnits="userSpaceOnUse" x="276.877" y="-3.4509" width="76.1651" height="86.8907" fill="black">
<rect fill="white" x="276.877" y="-3.4509" width="76.1651" height="86.8907"/>
<path d="M330.316 10.1351C336.063 13.1065 339.84 17.0584 341.645 21.9907C343.507 26.9521 343.025 32.1656 340.2 37.631C337.257 43.3217 333.24 46.6717 328.148 47.6808C323.057 48.69 317.525 47.6505 311.552 44.5626L307.762 51.0646L299.395 46.7386L305.833 33.251L308.622 34.693C314.087 37.5188 318.635 38.942 322.266 38.9628C325.954 39.0127 328.861 36.9811 330.987 32.8679C332.531 29.8817 332.867 27.0919 331.994 24.4985C331.178 21.9342 329.248 19.8655 326.206 18.2924C323.163 16.7193 320.346 16.2982 317.755 17.0291C315.163 17.76 313.11 19.5904 311.595 22.5203L302.552 17.8447C304.3 14.464 306.619 11.8429 309.509 9.98125C312.4 8.11961 315.632 7.18461 319.207 7.17625C322.838 7.197 326.541 8.18329 330.316 10.1351ZM293.794 67.5142C292.048 66.6111 290.889 65.2621 290.317 63.4671C289.746 61.6721 289.912 59.9012 290.815 58.1546C291.718 56.4079 293.067 55.2488 294.862 54.6773C296.657 54.1059 298.428 54.2717 300.174 55.1748C301.865 56.0487 302.996 57.3832 303.567 59.1782C304.138 60.9732 303.973 62.744 303.07 64.4907C302.166 66.2374 300.817 67.3964 299.022 67.9679C297.227 68.5394 295.485 68.3881 293.794 67.5142Z"/>
</mask>
<path d="M330.316 10.1351C336.063 13.1065 339.84 17.0584 341.645 21.9907C343.507 26.9521 343.025 32.1656 340.2 37.631C337.257 43.3217 333.24 46.6717 328.148 47.6808C323.057 48.69 317.525 47.6505 311.552 44.5626L307.762 51.0646L299.395 46.7386L305.833 33.251L308.622 34.693C314.087 37.5188 318.635 38.942 322.266 38.9628C325.954 39.0127 328.861 36.9811 330.987 32.8679C332.531 29.8817 332.867 27.0919 331.994 24.4985C331.178 21.9342 329.248 19.8655 326.206 18.2924C323.163 16.7193 320.346 16.2982 317.755 17.0291C315.163 17.76 313.11 19.5904 311.595 22.5203L302.552 17.8447C304.3 14.464 306.619 11.8429 309.509 9.98125C312.4 8.11961 315.632 7.18461 319.207 7.17625C322.838 7.197 326.541 8.18329 330.316 10.1351ZM293.794 67.5142C292.048 66.6111 290.889 65.2621 290.317 63.4671C289.746 61.6721 289.912 59.9012 290.815 58.1546C291.718 56.4079 293.067 55.2488 294.862 54.6773C296.657 54.1059 298.428 54.2717 300.174 55.1748C301.865 56.0487 302.996 57.3832 303.567 59.1782C304.138 60.9732 303.973 62.744 303.07 64.4907C302.166 66.2374 300.817 67.3964 299.022 67.9679C297.227 68.5394 295.485 68.3881 293.794 67.5142Z" fill="#F36869"/>
<path d="M341.645 21.9907L339.767 22.6783L339.77 22.6859L339.773 22.6935L341.645 21.9907ZM328.148 47.6808L327.76 45.7189L327.76 45.7189L328.148 47.6808ZM311.552 44.5626L312.471 42.7859L310.782 41.9126L309.824 43.5553L311.552 44.5626ZM307.762 51.0646L306.843 52.8413L308.532 53.7146L309.49 52.0719L307.762 51.0646ZM299.395 46.7386L297.59 45.877L296.755 47.6254L298.476 48.5153L299.395 46.7386ZM305.833 33.251L306.751 31.4743L304.917 30.526L304.028 32.3894L305.833 33.251ZM322.266 38.9628L322.293 36.9629L322.286 36.9628L322.278 36.9627L322.266 38.9628ZM331.994 24.4985L330.088 25.1052L330.093 25.1208L330.098 25.1364L331.994 24.4985ZM317.755 17.0291L317.212 15.1041L317.212 15.1041L317.755 17.0291ZM311.595 22.5203L310.676 24.297L312.453 25.2156L313.372 23.4389L311.595 22.5203ZM302.552 17.8447L300.775 16.9261L299.856 18.7028L301.633 19.6214L302.552 17.8447ZM309.509 9.98125L310.592 11.6628L310.592 11.6628L309.509 9.98125ZM319.207 7.17625L319.218 5.17617L319.21 5.17612L319.202 5.17614L319.207 7.17625ZM290.317 63.4671L292.223 62.8603L292.223 62.8603L290.317 63.4671ZM294.862 54.6773L295.469 56.5832L295.469 56.5832L294.862 54.6773ZM299.022 67.9679L298.416 66.062L299.022 67.9679ZM330.316 10.1351L329.397 11.9118C334.808 14.709 338.171 18.3193 339.767 22.6783L341.645 21.9907L343.523 21.3031C341.508 15.7975 337.319 11.504 331.235 8.35842L330.316 10.1351ZM341.645 21.9907L339.773 22.6935C341.403 27.0382 341.035 31.6606 338.423 36.7124L340.2 37.631L341.976 38.5496C345.016 32.6706 345.611 26.8661 343.518 21.2879L341.645 21.9907ZM340.2 37.631L338.423 36.7124C335.688 42.0018 332.115 44.8556 327.76 45.7189L328.148 47.6808L328.537 49.6428C334.365 48.4877 338.826 44.6417 341.976 38.5496L340.2 37.631ZM328.148 47.6808L327.76 45.7189C323.229 46.6169 318.161 45.7279 312.471 42.7859L311.552 44.5626L310.633 46.3393C316.888 49.5732 322.885 50.763 328.537 49.6428L328.148 47.6808ZM311.552 44.5626L309.824 43.5553L306.034 50.0573L307.762 51.0646L309.49 52.0719L313.28 45.5699L311.552 44.5626ZM307.762 51.0646L308.681 49.2879L300.313 44.9619L299.395 46.7386L298.476 48.5153L306.843 52.8413L307.762 51.0646ZM299.395 46.7386L301.2 47.6001L307.638 34.1126L305.833 33.251L304.028 32.3894L297.59 45.877L299.395 46.7386ZM305.833 33.251L304.914 35.0277L307.703 36.4697L308.622 34.693L309.54 32.9163L306.751 31.4743L305.833 33.251ZM308.622 34.693L307.703 36.4697C313.279 39.3526 318.16 40.9395 322.255 40.9629L322.266 38.9628L322.278 36.9627C319.11 36.9446 314.895 35.6849 309.54 32.9163L308.622 34.693ZM322.266 38.9628L322.239 40.9627C326.891 41.0257 330.396 38.367 332.764 33.7865L330.987 32.8679L329.211 31.9493C327.326 35.5951 325.017 36.9997 322.293 36.9629L322.266 38.9628ZM330.987 32.8679L332.764 33.7865C334.496 30.4365 334.973 27.0806 333.89 23.8605L331.994 24.4985L330.098 25.1364C330.76 27.1031 330.566 29.3269 329.211 31.9493L330.987 32.8679ZM331.994 24.4985L333.9 23.8917C332.882 20.6936 330.503 18.2627 327.124 16.5157L326.206 18.2924L325.287 20.0691C327.993 21.4683 329.474 23.1748 330.088 25.1052L331.994 24.4985ZM326.206 18.2924L327.124 16.5157C323.758 14.7755 320.414 14.2009 317.212 15.1041L317.755 17.0291L318.297 18.9541C320.278 18.3955 322.568 18.6631 325.287 20.0691L326.206 18.2924ZM317.755 17.0291L317.212 15.1041C313.971 16.0181 311.526 18.2989 309.818 21.6017L311.595 22.5203L313.372 23.4389C314.694 20.8819 316.355 19.5019 318.297 18.9541L317.755 17.0291ZM311.595 22.5203L312.514 20.7436L303.47 16.068L302.552 17.8447L301.633 19.6214L310.676 24.297L311.595 22.5203ZM302.552 17.8447L304.328 18.7633C305.933 15.6591 308.026 13.3154 310.592 11.6628L309.509 9.98125L308.426 8.29971C305.211 10.3704 302.666 13.2689 300.775 16.9261L302.552 17.8447ZM309.509 9.98125L310.592 11.6628C313.148 10.0168 316.004 9.18386 319.212 9.17635L319.207 7.17625L319.202 5.17614C315.261 5.18537 311.652 6.22247 308.426 8.29971L309.509 9.98125ZM319.207 7.17625L319.196 9.17632C322.461 9.19499 325.855 10.0803 329.397 11.9118L330.316 10.1351L331.235 8.35842C327.227 6.28625 323.215 5.19901 319.218 5.17617L319.207 7.17625ZM293.794 67.5142L294.713 65.7375C293.415 65.0661 292.626 64.1257 292.223 62.8603L290.317 63.4671L288.411 64.0738C289.151 66.3984 290.681 68.156 292.876 69.2909L293.794 67.5142ZM290.317 63.4671L292.223 62.8603C291.82 61.5949 291.92 60.3716 292.591 59.0732L290.815 58.1546L289.038 57.236C287.903 59.4308 287.671 61.7492 288.411 64.0738L290.317 63.4671ZM290.815 58.1546L292.591 59.0732C293.263 57.7747 294.203 56.9861 295.469 56.5832L294.862 54.6773L294.255 52.7715C291.93 53.5116 290.173 55.0411 289.038 57.236L290.815 58.1546ZM294.862 54.6773L295.469 56.5832C296.734 56.1804 297.957 56.2801 299.256 56.9515L300.174 55.1748L301.093 53.3981C298.898 52.2633 296.58 52.0314 294.255 52.7715L294.862 54.6773ZM300.174 55.1748L299.256 56.9515C300.48 57.5846 301.252 58.5012 301.661 59.7849L303.567 59.1782L305.473 58.5714C304.739 56.2652 303.249 54.5129 301.093 53.3981L300.174 55.1748ZM303.567 59.1782L301.661 59.7849C302.064 61.0503 301.964 62.2736 301.293 63.5721L303.07 64.4907L304.846 65.4093C305.981 63.2144 306.213 60.896 305.473 58.5714L303.567 59.1782ZM303.07 64.4907L301.293 63.5721C300.622 64.8706 299.681 65.6592 298.416 66.062L299.022 67.9679L299.629 69.8737C301.954 69.1337 303.711 67.6041 304.846 65.4093L303.07 64.4907ZM299.022 67.9679L298.416 66.062C297.132 66.4707 295.938 66.3706 294.713 65.7375L293.794 67.5142L292.876 69.2909C295.032 70.4057 297.323 70.608 299.629 69.8737L299.022 67.9679Z" fill="black" mask="url(#path-31-outside-1_4979_2234)"/>
<mask id="path-33-outside-2_4979_2234" maskUnits="userSpaceOnUse" x="324.124" y="49.3668" width="67.8503" height="60.1648" fill="black">
<rect fill="white" x="324.124" y="49.3668" width="67.8503" height="60.1648"/>
<path d="M387.058 62.618L350.474 90.7701L344.772 83.7571L379.795 53.6856L387.058 62.618ZM331.814 100.547C330.574 99.0216 330.05 97.3219 330.243 95.448C330.436 93.5742 331.296 92.017 332.821 90.7765C334.347 89.536 336.047 89.0123 337.92 89.2055C339.794 89.3987 341.351 90.2581 342.592 91.7837C343.792 93.2601 344.296 94.9352 344.103 96.8091C343.91 98.6829 343.05 100.24 341.525 101.481C339.999 102.721 338.299 103.245 336.426 103.052C334.552 102.858 333.015 102.024 331.814 100.547Z"/>
</mask>
<path d="M387.058 62.618L350.474 90.7701L344.772 83.7571L379.795 53.6856L387.058 62.618ZM331.814 100.547C330.574 99.0216 330.05 97.3219 330.243 95.448C330.436 93.5742 331.296 92.017 332.821 90.7765C334.347 89.536 336.047 89.0123 337.92 89.2055C339.794 89.3987 341.351 90.2581 342.592 91.7837C343.792 93.2601 344.296 94.9352 344.103 96.8091C343.91 98.6829 343.05 100.24 341.525 101.481C339.999 102.721 338.299 103.245 336.426 103.052C334.552 102.858 333.015 102.024 331.814 100.547Z" fill="#F36869"/>
<path d="M387.058 62.618L388.278 64.2031L389.906 62.9502L388.61 61.3562L387.058 62.618ZM350.474 90.7701L348.922 92.0319L350.151 93.5427L351.694 92.3552L350.474 90.7701ZM344.772 83.7571L343.469 82.2396L341.992 83.5081L343.22 85.0189L344.772 83.7571ZM379.795 53.6856L381.347 52.4238L380.051 50.8298L378.492 52.1681L379.795 53.6856ZM330.243 95.448L328.253 95.2429L328.253 95.2429L330.243 95.448ZM337.92 89.2055L338.126 87.2159L338.126 87.2159L337.92 89.2055ZM336.426 103.052L336.631 101.062L336.426 103.052ZM387.058 62.618L385.838 61.0329L349.255 89.185L350.474 90.7701L351.694 92.3552L388.278 64.2031L387.058 62.618ZM350.474 90.7701L352.026 89.5083L346.324 82.4953L344.772 83.7571L343.22 85.0189L348.922 92.0319L350.474 90.7701ZM344.772 83.7571L346.075 85.2746L381.098 55.2031L379.795 53.6856L378.492 52.1681L343.469 82.2396L344.772 83.7571ZM379.795 53.6856L378.243 54.9474L385.506 63.8798L387.058 62.618L388.61 61.3562L381.347 52.4238L379.795 53.6856ZM331.814 100.547L333.366 99.2854C332.444 98.1513 332.096 96.9741 332.233 95.6531L330.243 95.448L328.253 95.2429C328.003 97.6697 328.703 99.8919 330.262 101.809L331.814 100.547ZM330.243 95.448L332.233 95.6531C332.369 94.3322 332.949 93.2506 334.083 92.3284L332.821 90.7765L331.559 89.2247C329.642 90.7835 328.504 92.8162 328.253 95.2429L330.243 95.448ZM332.821 90.7765L334.083 92.3284C335.217 91.4062 336.394 91.0589 337.715 91.1951L337.92 89.2055L338.126 87.2159C335.699 86.9658 333.477 87.6659 331.559 89.2247L332.821 90.7765ZM337.92 89.2055L337.715 91.1951C339.036 91.3312 340.118 91.9113 341.04 93.0455L342.592 91.7837L344.144 90.5219C342.585 88.6048 340.552 87.4661 338.126 87.2159L337.92 89.2055ZM342.592 91.7837L341.04 93.0455C341.91 94.1151 342.252 95.2638 342.113 96.604L344.103 96.8091L346.093 97.0142C346.341 94.6067 345.675 92.4052 344.144 90.5219L342.592 91.7837ZM344.103 96.8091L342.113 96.604C341.977 97.9249 341.397 99.0065 340.263 99.9287L341.525 101.481L342.787 103.032C344.704 101.474 345.842 99.4409 346.093 97.0142L344.103 96.8091ZM341.525 101.481L340.263 99.9287C339.129 100.851 337.952 101.198 336.631 101.062L336.426 103.052L336.22 105.041C338.647 105.291 340.869 104.591 342.787 103.032L341.525 101.481ZM336.426 103.052L336.631 101.062C335.29 100.924 334.236 100.355 333.366 99.2854L331.814 100.547L330.262 101.809C331.794 103.692 333.813 104.793 336.22 105.041L336.426 103.052Z" fill="black" mask="url(#path-33-outside-2_4979_2234)"/>
<mask id="path-35-outside-3_4979_2234" maskUnits="userSpaceOnUse" x="58.4719" y="48.9283" width="56.8796" height="69.8672" fill="black">
<rect fill="white" x="58.4719" y="48.9283" width="56.8796" height="69.8672"/>
<path d="M72.1939 53.7263L97.6631 92.226L90.2609 97.4132L62.766 60.3331L72.1939 53.7263ZM106.083 111.536C104.473 112.665 102.74 113.066 100.885 112.74C99.0297 112.413 97.5379 111.445 96.4094 109.834C95.281 108.224 94.88 106.491 95.2064 104.636C95.5328 102.781 96.5012 101.289 98.1114 100.161C99.6698 99.0685 101.377 98.6857 103.232 99.0121C105.087 99.3385 106.579 100.307 107.707 101.917C108.836 103.527 109.237 105.26 108.91 107.116C108.584 108.971 107.642 110.444 106.083 111.536Z"/>
</mask>
<path d="M72.1939 53.7263L97.6631 92.226L90.2609 97.4132L62.766 60.3331L72.1939 53.7263ZM106.083 111.536C104.473 112.665 102.74 113.066 100.885 112.74C99.0297 112.413 97.5379 111.445 96.4094 109.834C95.281 108.224 94.88 106.491 95.2064 104.636C95.5328 102.781 96.5012 101.289 98.1114 100.161C99.6698 99.0685 101.377 98.6857 103.232 99.0121C105.087 99.3385 106.579 100.307 107.707 101.917C108.836 103.527 109.237 105.26 108.91 107.116C108.584 108.971 107.642 110.444 106.083 111.536Z" fill="#F36869"/>
<path d="M72.1939 53.7263L73.8621 52.6227L72.7286 50.9093L71.0461 52.0883L72.1939 53.7263ZM97.6631 92.226L98.8109 93.8639L100.406 92.7464L99.3312 91.1224L97.6631 92.226ZM90.2609 97.4132L88.6543 98.6045L89.8141 100.169L91.4087 99.0511L90.2609 97.4132ZM62.766 60.3331L61.6181 58.6952L59.9357 59.8742L61.1593 61.5245L62.766 60.3331ZM100.885 112.74L100.538 114.709L100.538 114.709L100.885 112.74ZM95.2064 104.636L93.2365 104.29L93.2365 104.29L95.2064 104.636ZM108.91 107.116L106.941 106.769L108.91 107.116ZM72.1939 53.7263L70.5258 54.8298L95.9949 93.3295L97.6631 92.226L99.3312 91.1224L73.8621 52.6227L72.1939 53.7263ZM97.6631 92.226L96.5152 90.588L89.1131 95.7752L90.2609 97.4132L91.4087 99.0511L98.8109 93.8639L97.6631 92.226ZM90.2609 97.4132L91.8675 96.2219L64.3726 59.1418L62.766 60.3331L61.1593 61.5245L88.6543 98.6045L90.2609 97.4132ZM62.766 60.3331L63.9138 61.9711L73.3418 55.3642L72.1939 53.7263L71.0461 52.0883L61.6181 58.6952L62.766 60.3331ZM106.083 111.536L104.936 109.899C103.738 110.737 102.539 111 101.232 110.77L100.885 112.74L100.538 114.709C102.941 115.132 105.208 114.592 107.231 113.174L106.083 111.536ZM100.885 112.74L101.232 110.77C99.9237 110.54 98.8863 109.884 98.0474 108.687L96.4094 109.834L94.7715 110.982C96.1895 113.006 98.1358 114.287 100.538 114.709L100.885 112.74ZM96.4094 109.834L98.0474 108.687C97.2085 107.49 96.9461 106.291 97.1762 104.983L95.2064 104.636L93.2365 104.29C92.8138 106.692 93.3535 108.959 94.7715 110.982L96.4094 109.834ZM95.2064 104.636L97.1762 104.983C97.4063 103.675 98.0622 102.637 99.2593 101.799L98.1114 100.161L96.9636 98.5226C94.9401 99.9406 93.6593 101.887 93.2365 104.29L95.2064 104.636ZM98.1114 100.161L99.2593 101.799C100.388 101.007 101.558 100.749 102.885 100.982L103.232 99.0121L103.578 97.0423C101.195 96.6229 98.9514 97.1296 96.9636 98.5226L98.1114 100.161ZM103.232 99.0121L102.885 100.982C104.193 101.212 105.231 101.868 106.069 103.065L107.707 101.917L109.345 100.769C107.927 98.7459 105.981 97.465 103.578 97.0423L103.232 99.0121ZM107.707 101.917L106.069 103.065C106.908 104.262 107.171 105.461 106.941 106.769L108.91 107.116L110.88 107.462C111.303 105.059 110.763 102.793 109.345 100.769L107.707 101.917ZM108.91 107.116L106.941 106.769C106.707 108.096 106.064 109.107 104.936 109.899L106.083 111.536L107.231 113.174C109.219 111.781 110.461 109.846 110.88 107.462L108.91 107.116Z" fill="black" mask="url(#path-35-outside-3_4979_2234)"/>
<path d="M832.331 169.879C832.264 169.053 831.54 168.438 830.714 168.505C829.889 168.572 829.274 169.296 829.341 170.121L830.836 170L832.331 169.879ZM698.401 256.746L698.56 255.254L698.513 255.249L698.467 255.247L698.401 256.746ZM473.303 311.945L471.813 311.773L471.806 311.833L471.804 311.894L473.303 311.945ZM502.411 301.76L503.66 300.929L502.411 301.76ZM333.115 395.177C333.765 395.691 334.708 395.58 335.222 394.929L343.586 384.333C344.099 383.682 343.988 382.739 343.338 382.226C342.688 381.713 341.744 381.824 341.231 382.474L333.796 391.893L324.377 384.458C323.727 383.945 322.783 384.056 322.27 384.707C321.757 385.357 321.868 386.3 322.518 386.813L333.115 395.177ZM335.206 390.789C335.125 389.965 334.391 389.362 333.567 389.443C332.742 389.524 332.139 390.258 332.22 391.083L333.713 390.936L335.206 390.789ZM331.745 385.028C331.793 385.855 332.503 386.486 333.33 386.438C334.157 386.39 334.788 385.68 334.74 384.853L333.242 384.94L331.745 385.028ZM334.517 378.892C334.504 378.063 333.822 377.402 332.993 377.416C332.165 377.429 331.504 378.111 331.517 378.939L333.017 378.915L334.517 378.892ZM331.556 372.882C331.532 373.71 332.184 374.401 333.012 374.425C333.84 374.449 334.531 373.798 334.555 372.97L333.056 372.926L331.556 372.882ZM334.873 366.997C334.938 366.171 334.32 365.45 333.494 365.385C332.669 365.321 331.947 365.938 331.882 366.764L333.378 366.881L334.873 366.997ZM332.503 360.763C332.397 361.585 332.976 362.337 333.798 362.443C334.619 362.55 335.372 361.97 335.478 361.148L333.99 360.956L332.503 360.763ZM336.409 355.23C336.56 354.416 336.023 353.633 335.208 353.481C334.394 353.33 333.611 353.867 333.459 354.682L334.934 354.956L336.409 355.23ZM334.742 348.727C334.545 349.531 335.036 350.344 335.841 350.542C336.645 350.74 337.458 350.248 337.656 349.443L336.199 349.085L334.742 348.727ZM339.238 343.75C339.484 342.959 339.042 342.118 338.251 341.872C337.46 341.626 336.619 342.068 336.373 342.859L337.806 343.304L339.238 343.75ZM338.379 337.056C338.084 337.83 338.472 338.697 339.246 338.992C340.02 339.288 340.886 338.9 341.182 338.126L339.78 337.591L338.379 337.056ZM343.466 332.676C343.811 331.923 343.48 331.033 342.727 330.688C341.974 330.343 341.083 330.674 340.738 331.427L342.102 332.052L343.466 332.676ZM343.463 325.965C343.068 326.693 343.339 327.604 344.068 327.998C344.797 328.392 345.707 328.121 346.101 327.392L344.782 326.679L343.463 325.965ZM349.101 322.271C349.544 321.571 349.335 320.644 348.635 320.202C347.935 319.759 347.009 319.967 346.566 320.668L347.833 321.469L349.101 322.271ZM350.01 315.61C349.521 316.279 349.666 317.217 350.334 317.707C351.003 318.196 351.941 318.051 352.431 317.383L351.221 316.497L350.01 315.61ZM356.08 312.738C356.614 312.104 356.533 311.158 355.899 310.624C355.265 310.091 354.319 310.172 353.786 310.806L354.933 311.772L356.08 312.738ZM357.886 306.256C357.311 306.853 357.328 307.802 357.925 308.377C358.521 308.952 359.471 308.935 360.046 308.338L358.966 307.297L357.886 306.256ZM364.296 304.211C364.909 303.654 364.954 302.705 364.397 302.092C363.84 301.479 362.891 301.434 362.278 301.991L363.287 303.101L364.296 304.211ZM366.933 298.026C366.285 298.543 366.179 299.487 366.696 300.134C367.213 300.782 368.157 300.888 368.804 300.371L367.868 299.199L366.933 298.026ZM373.548 296.823C374.226 296.348 374.391 295.412 373.915 294.734C373.44 294.055 372.505 293.891 371.826 294.366L372.687 295.595L373.548 296.823ZM376.936 291.012C376.23 291.445 376.01 292.369 376.443 293.075C376.877 293.781 377.801 294.002 378.507 293.568L377.721 292.29L376.936 291.012ZM383.652 290.612C384.382 290.22 384.656 289.311 384.265 288.581C383.873 287.851 382.964 287.576 382.234 287.968L382.943 289.29L383.652 290.612ZM387.693 285.235C386.942 285.585 386.617 286.477 386.967 287.228C387.317 287.979 388.21 288.304 388.961 287.954L388.327 286.594L387.693 285.235ZM394.41 285.593C395.178 285.284 395.551 284.41 395.243 283.642C394.934 282.873 394.06 282.5 393.292 282.809L393.851 284.201L394.41 285.593ZM399.011 280.686C398.227 280.954 397.809 281.807 398.076 282.591C398.344 283.375 399.197 283.793 399.981 283.525L399.496 282.106L399.011 280.686ZM405.656 281.749C406.453 281.522 406.914 280.692 406.687 279.895C406.46 279.098 405.63 278.637 404.833 278.864L405.245 280.306L405.656 281.749ZM410.738 277.339C409.931 277.526 409.428 278.332 409.615 279.139C409.802 279.946 410.608 280.449 411.415 280.262L411.076 278.801L410.738 277.339ZM417.239 279.063C418.054 278.916 418.596 278.136 418.449 277.321C418.302 276.505 417.522 275.964 416.707 276.111L416.973 277.587L417.239 279.063ZM422.725 275.176C421.904 275.283 421.325 276.036 421.432 276.858C421.539 277.679 422.292 278.258 423.113 278.151L422.919 276.664L422.725 275.176ZM429.035 277.525C429.861 277.458 430.476 276.734 430.409 275.909C430.342 275.083 429.618 274.468 428.793 274.535L428.914 276.03L429.035 277.525ZM434.883 274.19C434.055 274.217 433.405 274.91 433.431 275.738C433.458 276.566 434.15 277.215 434.978 277.189L434.931 275.69L434.883 274.19ZM440.925 277.147C441.754 277.162 442.437 276.502 442.452 275.674C442.467 274.846 441.808 274.162 440.979 274.147L440.952 275.647L440.925 277.147ZM447.066 274.411C446.239 274.354 445.523 274.978 445.466 275.804C445.409 276.631 446.032 277.347 446.859 277.404L446.962 275.908L447.066 274.411ZM452.766 277.97C453.589 278.071 454.337 277.487 454.438 276.664C454.539 275.842 453.955 275.094 453.132 274.993L452.949 276.481L452.766 277.97ZM459.18 275.908C458.365 275.761 457.585 276.302 457.438 277.117C457.291 277.933 457.832 278.713 458.647 278.86L458.914 277.384L459.18 275.908ZM464.458 280.088C465.263 280.284 466.074 279.79 466.27 278.985C466.466 278.18 465.972 277.369 465.167 277.173L464.813 278.63L464.458 280.088ZM471.067 278.81C470.277 278.563 469.435 279.003 469.187 279.793C468.939 280.584 469.379 281.425 470.17 281.673L470.618 280.242L471.067 278.81ZM475.748 283.64C476.519 283.944 477.39 283.565 477.694 282.794C477.997 282.024 477.619 281.152 476.848 280.849L476.298 282.244L475.748 283.64ZM482.468 283.323C481.724 282.958 480.825 283.266 480.461 284.01C480.096 284.754 480.404 285.652 481.148 286.017L481.808 284.67L482.468 283.323ZM486.311 288.837C487.019 289.267 487.942 289.042 488.372 288.334C488.802 287.627 488.578 286.704 487.87 286.273L487.09 287.555L486.311 288.837ZM492.976 289.746C492.316 289.244 491.375 289.372 490.874 290.031C490.372 290.69 490.5 291.631 491.159 292.133L492.067 290.94L492.976 289.746ZM495.589 295.934C496.183 296.511 497.133 296.497 497.71 295.903C498.287 295.309 498.273 294.359 497.679 293.782L496.634 294.858L495.589 295.934ZM501.84 298.406C501.33 297.753 500.388 297.637 499.734 298.146C499.081 298.655 498.964 299.598 499.474 300.251L500.657 299.329L501.84 298.406ZM502.731 305.268C503.104 306.008 504.007 306.304 504.746 305.93C505.485 305.557 505.782 304.654 505.408 303.915L504.069 304.592L502.731 305.268ZM507.573 310.557C507.455 309.737 506.695 309.168 505.875 309.285C505.055 309.403 504.486 310.163 504.603 310.983L506.088 310.77L507.573 310.557ZM504.207 316.808C503.971 317.602 504.423 318.438 505.217 318.674C506.011 318.911 506.846 318.459 507.082 317.665L505.645 317.237L504.207 316.808ZM503.63 323.888C504.172 323.262 504.103 322.314 503.477 321.772C502.85 321.231 501.903 321.299 501.361 321.926L502.495 322.907L503.63 323.888ZM496.699 325.671C495.975 326.073 495.714 326.987 496.116 327.711C496.518 328.435 497.432 328.696 498.156 328.293L497.427 326.982L496.699 325.671ZM491.582 330.67C492.396 330.517 492.932 329.733 492.78 328.919C492.627 328.105 491.843 327.568 491.029 327.721L491.305 329.195L491.582 330.67ZM485.081 327.775C484.267 327.624 483.484 328.162 483.333 328.976C483.182 329.791 483.72 330.574 484.534 330.725L484.808 329.25L485.081 327.775ZM477.96 327.838C478.615 328.346 479.557 328.227 480.065 327.572C480.572 326.918 480.453 325.976 479.799 325.468L478.879 326.653L477.96 327.838ZM476.284 320.919C475.944 320.164 475.056 319.827 474.301 320.167C473.545 320.507 473.209 321.395 473.549 322.151L474.916 321.535L476.284 320.919ZM471.881 315.352C471.95 316.178 472.675 316.791 473.501 316.722C474.326 316.653 474.94 315.928 474.871 315.103L473.376 315.228L471.881 315.352ZM475.167 309.137C475.279 308.316 474.704 307.56 473.883 307.449C473.062 307.337 472.306 307.912 472.195 308.733L473.681 308.935L475.167 309.137ZM473.115 302.871C472.969 303.687 473.512 304.466 474.327 304.612C475.143 304.758 475.922 304.215 476.068 303.399L474.591 303.135L473.115 302.871ZM477.219 297.712C477.402 296.905 476.896 296.101 476.088 295.917C475.28 295.734 474.477 296.24 474.293 297.048L475.756 297.38L477.219 297.712ZM475.75 291.307C475.526 292.104 475.99 292.932 476.787 293.157C477.585 293.382 478.413 292.918 478.638 292.12L477.194 291.713L475.75 291.307ZM480.373 286.568C480.644 285.785 480.228 284.931 479.445 284.661C478.662 284.391 477.808 284.806 477.538 285.589L478.955 286.079L480.373 286.568ZM479.625 280.095C479.306 280.86 479.668 281.738 480.432 282.057C481.197 282.375 482.075 282.014 482.394 281.249L481.009 280.672L479.625 280.095ZM484.826 275.941C485.198 275.201 484.899 274.299 484.159 273.927C483.419 273.555 482.517 273.854 482.145 274.594L483.486 275.268L484.826 275.941ZM485.023 269.366C484.596 270.076 484.825 270.997 485.535 271.424C486.245 271.851 487.166 271.622 487.593 270.912L486.308 270.139L485.023 269.366ZM490.732 266.141C491.215 265.469 491.062 264.531 490.389 264.048C489.716 263.564 488.779 263.718 488.295 264.391L489.514 265.266L490.732 266.141ZM492.025 259.648C491.484 260.276 491.556 261.223 492.184 261.763C492.812 262.303 493.759 262.232 494.299 261.604L493.162 260.626L492.025 259.648ZM498.225 257.43C498.819 256.853 498.832 255.903 498.255 255.309C497.678 254.715 496.728 254.701 496.134 255.279L497.179 256.354L498.225 257.43ZM500.614 251.301C499.971 251.823 499.871 252.767 500.393 253.411C500.914 254.055 501.859 254.154 502.503 253.632L501.558 252.467L500.614 251.301ZM507.119 250.223C507.807 249.76 507.989 248.828 507.527 248.141C507.065 247.453 506.133 247.271 505.446 247.733L506.282 248.978L507.119 250.223ZM510.562 244.605C509.837 245.007 509.576 245.92 509.978 246.644C510.38 247.369 511.293 247.63 512.017 247.228L511.289 245.917L510.562 244.605ZM517.151 244.648C517.905 244.305 518.239 243.416 517.897 242.662C517.554 241.908 516.665 241.574 515.911 241.916L516.531 243.282L517.151 244.648ZM521.453 239.648C520.676 239.934 520.277 240.795 520.562 241.573C520.848 242.351 521.709 242.75 522.487 242.464L521.97 241.056L521.453 239.648ZM527.969 240.664C528.764 240.432 529.221 239.599 528.988 238.804C528.756 238.009 527.923 237.552 527.128 237.784L527.549 239.224L527.969 240.664ZM532.892 236.294C532.084 236.477 531.578 237.281 531.761 238.089C531.944 238.896 532.748 239.403 533.556 239.22L533.224 237.757L532.892 236.294ZM539.239 238.097C540.056 237.958 540.606 237.184 540.467 236.367C540.329 235.55 539.554 235.001 538.738 235.139L538.989 236.618L539.239 238.097ZM544.642 234.289C543.819 234.387 543.232 235.134 543.33 235.956C543.428 236.779 544.175 237.366 544.997 237.268L544.819 235.778L544.642 234.289ZM550.759 236.71C551.586 236.647 552.205 235.927 552.143 235.101C552.08 234.275 551.36 233.656 550.534 233.718L550.647 235.214L550.759 236.71ZM556.457 233.391C555.63 233.42 554.983 234.116 555.012 234.944C555.042 235.772 555.738 236.419 556.565 236.389L556.511 234.89L556.457 233.391ZM562.402 236.283C563.231 236.282 563.902 235.61 563.901 234.781C563.9 233.953 563.228 233.282 562.399 233.283L562.401 234.783L562.402 236.283ZM568.306 233.371C567.478 233.346 566.786 233.997 566.761 234.825C566.736 235.653 567.387 236.344 568.215 236.369L568.261 234.87L568.306 233.371ZM574.043 236.628C574.87 236.676 575.579 236.045 575.627 235.218C575.675 234.391 575.044 233.681 574.217 233.633L574.13 235.131L574.043 236.628ZM580.126 234.052C579.3 233.984 578.575 234.597 578.507 235.423C578.438 236.248 579.051 236.973 579.877 237.042L580.001 235.547L580.126 234.052ZM585.682 237.592C586.506 237.679 587.244 237.082 587.332 236.258C587.419 235.434 586.822 234.696 585.998 234.609L585.84 236.1L585.682 237.592ZM591.866 235.29C591.044 235.186 590.294 235.769 590.19 236.591C590.086 237.413 590.669 238.163 591.491 238.266L591.678 236.778L591.866 235.29ZM597.288 239.05C598.108 239.169 598.868 238.6 598.987 237.78C599.105 236.96 598.536 236.199 597.716 236.081L597.502 237.566L597.288 239.05ZM603.547 236.97C602.729 236.839 601.96 237.395 601.828 238.213C601.697 239.031 602.254 239.801 603.072 239.932L603.309 238.451L603.547 236.97ZM608.847 240.9C609.663 241.042 610.44 240.496 610.583 239.68C610.725 238.864 610.179 238.087 609.363 237.945L609.105 239.422L608.847 240.9ZM615.159 238.994C614.345 238.842 613.561 239.378 613.409 240.192C613.257 241.007 613.793 241.79 614.607 241.943L614.883 240.468L615.159 238.994ZM620.368 243.054C621.18 243.215 621.97 242.686 622.131 241.874C622.292 241.061 621.764 240.272 620.951 240.111L620.659 241.582L620.368 243.054ZM626.717 241.281C625.906 241.112 625.112 241.634 624.944 242.445C624.776 243.256 625.297 244.05 626.108 244.218L626.413 242.749L626.717 241.281ZM631.845 245.43C632.655 245.604 633.453 245.089 633.627 244.279C633.801 243.469 633.285 242.671 632.475 242.497L632.16 243.964L631.845 245.43ZM638.235 243.753C637.427 243.574 636.626 244.085 636.447 244.894C636.269 245.703 636.78 246.504 637.589 246.682L637.912 245.217L638.235 243.753ZM643.308 247.957C644.116 248.138 644.918 247.63 645.1 246.822C645.281 246.014 644.773 245.211 643.965 245.03L643.636 246.493L643.308 247.957ZM649.696 246.324C648.888 246.141 648.085 246.647 647.901 247.455C647.718 248.263 648.225 249.066 649.033 249.249L649.364 247.787L649.696 246.324ZM654.783 250.552C655.591 250.735 656.394 250.228 656.577 249.42C656.76 248.612 656.253 247.809 655.445 247.626L655.114 249.089L654.783 250.552ZM661.169 248.914C660.36 248.734 659.558 249.243 659.378 250.051C659.197 250.86 659.707 251.661 660.515 251.842L660.842 250.378L661.169 248.914ZM666.229 253.101C667.039 253.277 667.838 252.763 668.013 251.953C668.189 251.144 667.675 250.345 666.865 250.169L666.547 251.635L666.229 253.101ZM672.621 251.39C671.809 251.223 671.016 251.745 670.848 252.556C670.681 253.367 671.203 254.161 672.014 254.328L672.317 252.859L672.621 251.39ZM677.818 255.485C678.632 255.64 679.418 255.106 679.573 254.292C679.728 253.479 679.194 252.693 678.381 252.538L678.099 254.011L677.818 255.485ZM684.138 253.573C683.32 253.437 682.547 253.988 682.41 254.805C682.273 255.622 682.825 256.395 683.642 256.532L683.89 255.053L684.138 253.573ZM689.503 257.42C690.324 257.529 691.078 256.952 691.188 256.13C691.297 255.309 690.72 254.555 689.898 254.446L689.701 255.933L689.503 257.42ZM695.664 255.072C694.838 255.006 694.115 255.621 694.049 256.447C693.983 257.273 694.599 257.996 695.424 258.062L695.544 256.567L695.664 255.072ZM701.268 258.536C702.093 258.611 702.823 258.003 702.898 257.178C702.973 256.353 702.365 255.623 701.54 255.548L701.404 257.042L701.268 258.536ZM707.422 255.994C706.595 255.944 705.885 256.574 705.835 257.401C705.785 258.228 706.415 258.938 707.242 258.988L707.332 257.491L707.422 255.994ZM713.263 259.254C714.091 259.277 714.781 258.624 714.804 257.796C714.827 256.968 714.174 256.278 713.346 256.255L713.304 257.754L713.263 259.254ZM719.275 256.321C718.446 256.325 717.779 257.001 717.784 257.829C717.789 258.658 718.464 259.325 719.293 259.32L719.284 257.82L719.275 256.321ZM725.309 259.18C726.137 259.146 726.78 258.447 726.746 257.62C726.712 256.792 726.013 256.148 725.186 256.182L725.247 257.681L725.309 259.18ZM731.076 255.833C730.25 255.897 729.632 256.619 729.697 257.445C729.761 258.271 730.483 258.888 731.309 258.824L731.192 257.328L731.076 255.833ZM737.293 258.243C738.116 258.147 738.705 257.403 738.609 256.58C738.513 255.757 737.768 255.168 736.946 255.263L737.119 256.753L737.293 258.243ZM742.812 254.461C741.994 254.59 741.435 255.358 741.564 256.176C741.693 256.994 742.46 257.554 743.279 257.425L743.046 255.943L742.812 254.461ZM749.221 256.363C750.034 256.2 750.56 255.41 750.397 254.597C750.235 253.785 749.444 253.259 748.632 253.421L748.927 254.892L749.221 256.363ZM754.395 252.137C753.591 252.334 753.099 253.147 753.297 253.951C753.495 254.756 754.307 255.248 755.112 255.05L754.753 253.593L754.395 252.137ZM760.938 253.477C761.733 253.243 762.188 252.409 761.954 251.615C761.72 250.82 760.886 250.365 760.091 250.599L760.515 252.038L760.938 253.477ZM765.707 248.803C764.924 249.074 764.509 249.928 764.78 250.711C765.051 251.494 765.905 251.909 766.688 251.638L766.197 250.22L765.707 248.803ZM772.345 249.525C773.114 249.217 773.487 248.343 773.178 247.574C772.87 246.806 771.996 246.433 771.228 246.741L771.786 248.133L772.345 249.525ZM776.638 244.41C775.885 244.757 775.557 245.648 775.904 246.4C776.251 247.153 777.142 247.481 777.894 247.134L777.266 245.772L776.638 244.41ZM783.316 244.46C784.049 244.075 784.331 243.167 783.945 242.434C783.56 241.701 782.653 241.42 781.919 241.805L782.618 243.133L783.316 244.46ZM787.053 238.926C786.342 239.35 786.11 240.271 786.535 240.982C786.959 241.694 787.88 241.926 788.592 241.501L787.823 240.213L787.053 238.926ZM793.699 238.256C794.385 237.792 794.566 236.86 794.102 236.173C793.638 235.487 792.706 235.306 792.02 235.77L792.859 237.013L793.699 238.256ZM796.796 232.34C796.138 232.843 796.011 233.784 796.513 234.443C797.016 235.101 797.957 235.228 798.616 234.725L797.706 233.533L796.796 232.34ZM803.319 230.912C803.946 230.371 804.017 229.424 803.476 228.797C802.935 228.169 801.988 228.099 801.36 228.639L802.34 229.776L803.319 230.912ZM805.689 224.673C805.095 225.252 805.083 226.201 805.662 226.794C806.24 227.387 807.19 227.4 807.783 226.821L806.736 225.747L805.689 224.673ZM811.983 222.458C812.538 221.843 812.49 220.895 811.875 220.34C811.26 219.785 810.311 219.833 809.756 220.448L810.869 221.453L811.983 222.458ZM813.548 215.959C813.035 216.609 813.146 217.552 813.797 218.065C814.447 218.578 815.39 218.467 815.903 217.817L814.726 216.888L813.548 215.959ZM819.5 212.921C819.967 212.237 819.791 211.304 819.107 210.837C818.423 210.37 817.489 210.546 817.022 211.23L818.261 212.076L819.5 212.921ZM820.148 206.278C819.732 206.994 819.975 207.912 820.691 208.329C821.407 208.745 822.325 208.502 822.742 207.786L821.445 207.032L820.148 206.278ZM825.594 202.423C825.955 201.678 825.643 200.781 824.897 200.42C824.151 200.059 823.254 200.371 822.893 201.117L824.244 201.77L825.594 202.423ZM825.23 195.748C824.931 196.521 825.314 197.39 826.087 197.689C826.859 197.988 827.728 197.605 828.027 196.832L826.629 196.29L825.23 195.748ZM829.984 191.062C830.216 190.267 829.759 189.434 828.963 189.203C828.168 188.971 827.335 189.428 827.104 190.223L828.544 190.643L829.984 191.062ZM828.474 184.56C828.318 185.373 828.85 186.16 829.664 186.316C830.477 186.473 831.264 185.941 831.42 185.127L829.947 184.844L828.474 184.56ZM832.276 179.068C832.35 178.243 831.741 177.514 830.915 177.44C830.09 177.367 829.362 177.976 829.288 178.801L830.782 178.934L832.276 179.068ZM829.488 173.007C829.506 173.835 830.192 174.492 831.02 174.474C831.849 174.456 832.505 173.77 832.487 172.942L830.988 172.974L829.488 173.007ZM334.044 394L335.534 393.825C335.414 392.805 335.305 391.794 335.206 390.789L333.713 390.936L332.22 391.083C332.321 392.106 332.432 393.137 332.555 394.175L334.044 394ZM333.242 384.94L334.74 384.853C334.622 382.834 334.548 380.847 334.517 378.892L333.017 378.915L331.517 378.939C331.549 380.938 331.625 382.967 331.745 385.028L333.242 384.94ZM333.056 372.926L334.555 372.97C334.614 370.943 334.721 368.952 334.873 366.997L333.378 366.881L331.882 366.764C331.726 368.768 331.617 370.808 331.556 372.882L333.056 372.926ZM333.99 360.956L335.478 361.148C335.739 359.135 336.05 357.163 336.409 355.23L334.934 354.956L333.459 354.682C333.09 356.669 332.77 358.696 332.503 360.763L333.99 360.956ZM336.199 349.085L337.656 349.443C338.133 347.503 338.661 345.605 339.238 343.75L337.806 343.304L336.373 342.859C335.779 344.772 335.234 346.728 334.742 348.727L336.199 349.085ZM339.78 337.591L341.182 338.126C341.893 336.263 342.655 334.446 343.466 332.676L342.102 332.052L340.738 331.427C339.9 333.256 339.113 335.133 338.379 337.056L339.78 337.591ZM344.782 326.679L346.101 327.392C347.052 325.636 348.053 323.929 349.101 322.271L347.833 321.469L346.566 320.668C345.481 322.382 344.446 324.148 343.463 325.965L344.782 326.679ZM351.221 316.497L352.431 317.383C353.602 315.784 354.819 314.236 356.08 312.738L354.933 311.772L353.786 310.806C352.481 312.355 351.222 313.956 350.01 315.61L351.221 316.497ZM358.966 307.297L360.046 308.338C361.422 306.911 362.84 305.535 364.296 304.211L363.287 303.101L362.278 301.991C360.773 303.359 359.308 304.781 357.886 306.256L358.966 307.297ZM367.868 299.199L368.804 300.371C370.351 299.137 371.933 297.954 373.548 296.823L372.687 295.595L371.826 294.366C370.161 295.533 368.529 296.753 366.933 298.026L367.868 299.199ZM377.721 292.29L378.507 293.568C380.194 292.532 381.91 291.546 383.652 290.612L382.943 289.29L382.234 287.968C380.441 288.93 378.674 289.944 376.936 291.012L377.721 292.29ZM388.327 286.594L388.961 287.954C390.756 287.117 392.574 286.33 394.41 285.593L393.851 284.201L393.292 282.809C391.407 283.566 389.539 284.374 387.693 285.235L388.327 286.594ZM399.496 282.106L399.981 283.525C401.859 282.884 403.753 282.292 405.656 281.749L405.245 280.306L404.833 278.864C402.881 279.421 400.939 280.028 399.011 280.686L399.496 282.106ZM411.076 278.801L411.415 280.262C413.351 279.813 415.294 279.414 417.239 279.063L416.973 277.587L416.707 276.111C414.713 276.47 412.722 276.879 410.738 277.339L411.076 278.801ZM422.919 276.664L423.113 278.151C425.09 277.893 427.066 277.685 429.035 277.525L428.914 276.03L428.793 274.535C426.775 274.699 424.751 274.912 422.725 275.176L422.919 276.664ZM434.931 275.69L434.978 277.189C436.973 277.125 438.956 277.112 440.925 277.147L440.952 275.647L440.979 274.147C438.96 274.111 436.927 274.125 434.883 274.19L434.931 275.69ZM446.962 275.908L446.859 277.404C448.85 277.542 450.821 277.731 452.766 277.97L452.949 276.481L453.132 274.993C451.134 274.747 449.11 274.553 447.066 274.411L446.962 275.908ZM458.914 277.384L458.647 278.86C460.62 279.216 462.558 279.626 464.458 280.088L464.813 278.63L465.167 277.173C463.208 276.696 461.21 276.274 459.18 275.908L458.914 277.384ZM470.618 280.242L470.17 281.673C472.081 282.272 473.943 282.928 475.748 283.64L476.298 282.244L476.848 280.849C474.973 280.11 473.044 279.43 471.067 278.81L470.618 280.242ZM481.808 284.67L481.148 286.017C482.943 286.896 484.667 287.837 486.311 288.837L487.09 287.555L487.87 286.273C486.144 285.224 484.34 284.24 482.468 283.323L481.808 284.67ZM492.067 290.94L491.159 292.133C492.739 293.335 494.218 294.603 495.589 295.934L496.634 294.858L497.679 293.782C496.217 292.363 494.646 291.017 492.976 289.746L492.067 290.94ZM500.657 299.329L499.474 300.251C500.069 301.014 500.632 301.794 501.162 302.591L502.411 301.76L503.66 300.929C503.087 300.069 502.48 299.228 501.84 298.406L500.657 299.329ZM502.411 301.76L501.162 302.591C501.769 303.503 502.29 304.396 502.731 305.268L504.069 304.592L505.408 303.915C504.91 302.93 504.329 301.934 503.66 300.929L502.411 301.76ZM506.088 310.77L504.603 310.983C504.905 313.091 504.734 315.04 504.207 316.808L505.645 317.237L507.082 317.665C507.734 315.478 507.936 313.091 507.573 310.557L506.088 310.77ZM502.495 322.907L501.361 321.926C500.069 323.42 498.473 324.685 496.699 325.671L497.427 326.982L498.156 328.293C500.211 327.152 502.089 325.67 503.63 323.888L502.495 322.907ZM491.305 329.195L491.029 327.721C489.01 328.1 486.981 328.127 485.081 327.775L484.808 329.25L484.534 330.725C486.833 331.151 489.238 331.109 491.582 330.67L491.305 329.195ZM478.879 326.653L479.799 325.468C478.377 324.365 477.163 322.871 476.284 320.919L474.916 321.535L473.549 322.151C474.623 324.538 476.141 326.428 477.96 327.838L478.879 326.653ZM473.376 315.228L474.871 315.103C474.79 314.133 474.764 313.098 474.802 311.996L473.303 311.945L471.804 311.894C471.762 313.106 471.79 314.258 471.881 315.352L473.376 315.228ZM473.303 311.945L474.793 312.118C474.909 311.112 475.034 310.118 475.167 309.137L473.681 308.935L472.195 308.733C472.059 309.734 471.931 310.747 471.813 311.773L473.303 311.945ZM474.591 303.135L476.068 303.399C476.416 301.451 476.8 299.556 477.219 297.712L475.756 297.38L474.293 297.048C473.864 298.938 473.471 300.879 473.115 302.871L474.591 303.135ZM477.194 291.713L478.638 292.12C479.176 290.209 479.755 288.359 480.373 286.568L478.955 286.079L477.538 285.589C476.9 287.436 476.304 289.341 475.75 291.307L477.194 291.713ZM481.009 280.672L482.394 281.249C483.16 279.411 483.971 277.642 484.826 275.941L483.486 275.268L482.145 274.594C481.258 276.36 480.417 278.193 479.625 280.095L481.009 280.672ZM486.308 270.139L487.593 270.912C488.593 269.25 489.64 267.66 490.732 266.141L489.514 265.266L488.295 264.391C487.156 265.977 486.064 267.634 485.023 269.366L486.308 270.139ZM493.162 260.626L494.299 261.604C495.56 260.137 496.87 258.747 498.225 257.43L497.179 256.354L496.134 255.279C494.715 256.658 493.344 258.113 492.025 259.648L493.162 260.626ZM501.558 252.467L502.503 253.632C503.996 252.423 505.536 251.287 507.119 250.223L506.282 248.978L505.446 247.733C503.79 248.846 502.178 250.035 500.614 251.301L501.558 252.467ZM511.289 245.917L512.017 247.228C513.688 246.302 515.4 245.442 517.151 244.648L516.531 243.282L515.911 241.916C514.089 242.743 512.305 243.638 510.562 244.605L511.289 245.917ZM521.97 241.056L522.487 242.464C524.281 241.806 526.109 241.207 527.969 240.664L527.549 239.224L527.128 237.784C525.206 238.345 523.313 238.966 521.453 239.648L521.97 241.056ZM533.224 237.757L533.556 239.22C535.424 238.796 537.319 238.423 539.239 238.097L538.989 236.618L538.738 235.139C536.766 235.474 534.816 235.858 532.892 236.294L533.224 237.757ZM544.819 235.778L544.997 237.268C546.898 237.041 548.82 236.856 550.759 236.71L550.647 235.214L550.534 233.718C548.553 233.867 546.588 234.057 544.642 234.289L544.819 235.778ZM556.511 234.89L556.565 236.389C558.497 236.319 560.443 236.285 562.402 236.283L562.401 234.783L562.399 233.283C560.407 233.285 558.425 233.32 556.457 233.391L556.511 234.89ZM568.261 234.87L568.215 236.369C570.149 236.428 572.092 236.515 574.043 236.628L574.13 235.131L574.217 233.633C572.239 233.518 570.268 233.43 568.306 233.371L568.261 234.87ZM580.001 235.547L579.877 237.042C581.807 237.203 583.743 237.387 585.682 237.592L585.84 236.1L585.998 234.609C584.037 234.401 582.079 234.215 580.126 234.052L580.001 235.547ZM591.678 236.778L591.491 238.266C593.422 238.51 595.355 238.772 597.288 239.05L597.502 237.566L597.716 236.081C595.767 235.8 593.816 235.536 591.866 235.29L591.678 236.778ZM603.309 238.451L603.072 239.932C605 240.241 606.926 240.564 608.847 240.9L609.105 239.422L609.363 237.945C607.429 237.607 605.49 237.281 603.547 236.97L603.309 238.451ZM614.883 240.468L614.607 241.943C616.535 242.304 618.455 242.675 620.368 243.054L620.659 241.582L620.951 240.111C619.029 239.73 617.098 239.357 615.159 238.994L614.883 240.468ZM626.413 242.749L626.108 244.218C628.032 244.617 629.945 245.022 631.845 245.43L632.16 243.964L632.475 242.497C630.569 242.088 628.649 241.681 626.717 241.281L626.413 242.749ZM637.912 245.217L637.589 246.682C639.512 247.107 641.419 247.532 643.308 247.957L643.636 246.493L643.965 245.03C642.074 244.605 640.163 244.178 638.235 243.753L637.912 245.217ZM649.364 247.787L649.033 249.249C650.972 249.689 652.891 250.124 654.783 250.552L655.114 249.089L655.445 247.626C653.553 247.199 651.637 246.764 649.696 246.324L649.364 247.787ZM660.842 250.378L660.515 251.842C662.451 252.274 664.357 252.695 666.229 253.101L666.547 251.635L666.865 250.169C665.001 249.765 663.101 249.345 661.169 248.914L660.842 250.378ZM672.317 252.859L672.014 254.328C673.994 254.737 675.931 255.124 677.818 255.485L678.099 254.011L678.381 252.538C676.51 252.181 674.589 251.797 672.621 251.39L672.317 252.859ZM683.89 255.053L683.642 256.532C685.664 256.871 687.62 257.169 689.503 257.42L689.701 255.933L689.898 254.446C688.054 254.201 686.132 253.908 684.138 253.573L683.89 255.053ZM695.544 256.567L695.424 258.062C696.421 258.142 697.392 258.203 698.336 258.244L698.401 256.746L698.467 255.247C697.562 255.208 696.628 255.149 695.664 255.072L695.544 256.567ZM698.401 256.746L698.243 258.237C699.257 258.345 700.265 258.445 701.268 258.536L701.404 257.042L701.54 255.548C700.552 255.458 699.559 255.36 698.56 255.254L698.401 256.746ZM707.332 257.491L707.242 258.988C709.273 259.11 711.279 259.198 713.263 259.254L713.304 257.754L713.346 256.255C711.395 256.201 709.421 256.114 707.422 255.994L707.332 257.491ZM719.284 257.82L719.293 259.32C721.324 259.308 723.33 259.261 725.309 259.18L725.247 257.681L725.186 256.182C723.242 256.262 721.272 256.309 719.275 256.321L719.284 257.82ZM731.192 257.328L731.309 258.824C733.333 258.666 735.327 258.472 737.293 258.243L737.119 256.753L736.946 255.263C735.018 255.488 733.062 255.678 731.076 255.833L731.192 257.328ZM743.046 255.943L743.279 257.425C745.292 257.108 747.273 256.753 749.221 256.363L748.927 254.892L748.632 253.421C746.725 253.804 744.785 254.151 742.812 254.461L743.046 255.943ZM754.753 253.593L755.112 255.05C757.091 254.563 759.033 254.038 760.938 253.477L760.515 252.038L760.091 250.599C758.229 251.147 756.33 251.661 754.395 252.137L754.753 253.593ZM766.197 250.22L766.688 251.638C768.615 250.971 770.501 250.266 772.345 249.525L771.786 248.133L771.228 246.741C769.428 247.464 767.588 248.152 765.707 248.803L766.197 250.22ZM777.266 245.772L777.894 247.134C779.748 246.279 781.555 245.387 783.316 244.46L782.618 243.133L781.919 241.805C780.204 242.708 778.444 243.577 776.638 244.41L777.266 245.772ZM787.823 240.213L788.592 241.501C790.345 240.454 792.048 239.371 793.699 238.256L792.859 237.013L792.02 235.77C790.415 236.854 788.759 237.907 787.053 238.926L787.823 240.213ZM797.706 233.533L798.616 234.725C800.241 233.486 801.808 232.214 803.319 230.912L802.34 229.776L801.36 228.639C799.895 229.902 798.374 231.137 796.796 232.34L797.706 233.533ZM806.736 225.747L807.783 226.821C809.247 225.394 810.647 223.938 811.983 222.458L810.869 221.453L809.756 220.448C808.463 221.88 807.107 223.29 805.689 224.673L806.736 225.747ZM814.726 216.888L815.903 217.817C817.174 216.206 818.373 214.572 819.5 212.921L818.261 212.076L817.022 211.23C815.935 212.824 814.777 214.401 813.548 215.959L814.726 216.888ZM821.445 207.032L822.742 207.786C823.773 206.011 824.724 204.222 825.594 202.423L824.244 201.77L822.893 201.117C822.057 202.846 821.142 204.568 820.148 206.278L821.445 207.032ZM826.629 196.29L828.027 196.832C828.772 194.91 829.425 192.985 829.984 191.062L828.544 190.643L827.104 190.223C826.569 192.062 825.944 193.905 825.23 195.748L826.629 196.29ZM829.947 184.844L831.42 185.127C831.812 183.094 832.097 181.071 832.276 179.068L830.782 178.934L829.288 178.801C829.118 180.701 828.847 182.623 828.474 184.56L829.947 184.844ZM830.988 172.974L832.487 172.942C832.465 171.913 832.413 170.891 832.331 169.879L830.836 170L829.341 170.121C829.418 171.074 829.467 172.036 829.488 173.007L830.988 172.974Z" fill="black"/>
</svg>
