<?xml version="1.0"?>
<svg xmlns="http://www.w3.org/2000/svg" width="42" height="37" viewBox="0 0 42 37" fill="none">
<g clip-path="url(#clip0_4973_10495)">
<path d="M32.99 32.9559C32.8044 33.1091 36.2336 35.949 33.2127 36.7007C30.8972 36.7657 30.4099 33.3225 28.5723 32.9606C21.1431 32.5383 13.1849 33.4896 5.82523 32.9698C-1.5344 32.4501 0.860027 30.4408 0.525921 24.348C0.465596 23.2483 0.0479615 22.232 0.0247596 21.1369C-0.0912497 15.7819 0.196454 10.3991 0.971396 5.10905H7.93195C7.17093 3.65661 5.29622 1.7587 5.84842 0C8.47488 0.194896 9.93659 4.72854 11.8902 5.09513L39.505 5.32251C39.9552 5.61949 40.2939 7.10905 40.3682 7.70766C41.0689 13.2019 41.6118 25.6102 40.9018 30.8863C40.8183 31.4988 40.3078 32.9513 39.7185 32.9513H32.99V32.9559ZM12.1083 10.6821C10.2707 6.47796 6.83219 6.80743 2.82291 6.9652V10.6821H12.1083ZM38.0944 7.43388H13.0364L15.5886 10.6821H38.0944V7.43388ZM15.3566 14.3944H2.82754V30.6357L26.9575 30.1671C23.2591 24.8167 18.7487 19.884 15.3566 14.3944ZM38.0944 14.3944H18.6048C20.7719 16.5429 29.7046 30.0279 31.4633 30.5383C32.5399 30.8538 38.1501 30.9838 38.5167 29.8701L38.099 14.3944H38.0944Z" fill="white"/>
<path d="M5.90709 23.7402L12.5985 23.8794C14.682 29.601 9.00222 27.3365 5.58226 27.188C4.87229 26.7147 4.80732 24.0743 5.90709 23.7402Z" fill="white"/>
</g>
<defs>
<clipPath id="clip0_4973_10495">
<rect width="42" height="37" fill="white"/>
</clipPath>
</defs>
</svg>
