<?xml version="1.0"?>
<svg xmlns="http://www.w3.org/2000/svg" width="35" height="42" viewBox="0 0 35 42" fill="none">
<g clip-path="url(#clip0_4973_10500)">
<path d="M21.6477 5.59636C21.1604 6.06504 20.121 6.00936 19.4806 6.21353L19.6987 9.00239L25.6291 11.1973C28.8449 9.5314 26.7242 8.42235 26.9191 7.39219C27.5827 3.89335 33.9493 11.1694 34.2138 12.065C34.4505 12.8539 34.1117 13.9722 33.3553 14.3156C32.7567 14.5848 30.8913 12.5012 29.7498 15.2112C36.998 24.2692 31.2068 39.8748 19.6198 41.3968C-2.71428 44.3296 -7.58667 13.8701 13.3971 8.94671L12.9238 6.17177L10.9145 6.10216L10.2138 5.40611C10.1396 2.57084 9.23468 0.524435 12.6918 0.125363C13.9632 -0.0231291 20.0514 -0.0880943 20.9795 0.20889C22.4551 0.682208 22.6314 4.64973 21.6477 5.59636ZM19.8936 2.45483H12.005C11.4203 5.65205 13.7266 3.93047 15.4899 3.85158C16.9563 3.78662 18.4365 3.88871 19.8983 3.84694V2.45483H19.8936ZM17.1094 6.16249H15.2579L15.7637 8.44555L17.1094 8.48731V6.16249ZM13.2764 11.3783C9.72191 11.9769 5.74048 15.2855 4.10243 18.4456C-2.59363 31.3736 12.1024 44.7472 24.2231 36.7101C36.5757 28.5198 29.1744 8.69149 13.2718 11.3736L13.2764 11.3783ZM28.9516 11.2715C28.4087 12.0001 26.6454 12.7101 28.0143 13.5778L30.0978 11.963L28.9516 11.2669V11.2715Z" fill="white"/>
<path d="M22.6811 24.7331L22.4723 26.1437L21.9108 26.5103C20.7739 26.7795 19.4607 26.3433 18.3609 26.6727C17.3679 26.9697 16.4445 29.0997 14.5141 27.5498C12.7368 26.1298 14.5558 24.2505 14.7693 23.0811C14.9827 21.9117 14.4537 19.9952 15.0059 19.1414C16.5883 16.7099 17.0941 22.6171 17.2194 22.9929C18.0871 25.6101 20.6672 23.9628 22.6811 24.7331Z" fill="white"/>
<path d="M15.2591 12.1949C17.6582 11.8701 18.0712 15.2158 16.4099 16.3713C14.5027 15.8794 14.9853 13.5778 15.2591 12.1949Z" fill="white"/>
<path d="M20.3607 17.7632C19.9106 16.4686 21.4558 14.1437 22.9036 14.5196C25.0289 15.0718 21.1542 18.5892 20.3607 17.7632Z" fill="white"/>
<path d="M29.1726 24.7286L28.9684 26.1439C27.4974 28.2553 21.8361 24.3249 29.1726 24.7286Z" fill="white"/>
<path d="M26.2548 18.7703C26.3941 18.7425 26.524 18.6915 26.6446 18.6961C30.9648 18.7889 22.5147 23.4154 24.2873 20.0743C24.8163 19.5685 25.5263 18.9049 26.2548 18.7703Z" fill="white"/>
<path d="M24.7745 29.3642C27.2664 28.8723 28.4404 34.812 24.2919 30.7656C23.7072 30.3433 24.4497 29.4291 24.7745 29.3642Z" fill="white"/>
<path d="M9.68865 35.8607C9.38702 34.5475 10.2501 32.7517 11.7675 33.0811C13.3174 33.4152 10.9972 36.5985 9.68865 35.8607Z" fill="white"/>
<path d="M20.9286 35.7494C20.3763 35.1508 20.3439 33.8793 20.3578 33.0812C23.5411 32.6543 22.8821 37.8608 20.9286 35.7494Z" fill="white"/>
<path d="M3.65625 26.1113C4.25486 24.5939 6.25949 24.0834 7.3639 25.4291C7.01588 27.3827 4.92771 26.4129 3.65625 26.1113Z" fill="white"/>
<path d="M5.51493 31.6845C4.78639 30.3806 7.94648 28.0604 8.29451 29.6056C8.64253 31.1509 6.67038 31.7959 5.51493 31.6845Z" fill="white"/>
<path d="M15.9572 34.4733C17.3122 34.2041 17.6184 37.0812 16.4073 37.7169C15.0523 37.986 14.746 35.109 15.9572 34.4733Z" fill="white"/>
<path d="M6.21331 19.1554C7.77248 18.8538 9.211 21.5963 7.58687 21.9397C6.63095 22.1438 4.54278 19.4803 6.21331 19.1554Z" fill="white"/>
<path d="M12.0069 17.7635L10.2204 17.6985L9.69141 14.9839C10.9397 15.5407 12.2807 16.1486 12.0069 17.7635Z" fill="white"/>
</g>
<defs>
<clipPath id="clip0_4973_10500">
<rect width="35" height="42" fill="white"/>
</clipPath>
</defs>
</svg>
