<?xml version="1.0"?>
<svg xmlns="http://www.w3.org/2000/svg" width="124" height="29" viewBox="0 0 124 29" fill="none">
<path d="M122.493 25.1505C122.493 25.4368 122.613 26.0502 122.412 26.2547C122.17 26.5409 121.566 26.4592 121.244 26.4592H117.619C117.578 25.6412 117.498 24.7824 117.457 23.9645V23.8009C117.417 23.5965 117.296 23.4738 117.176 23.392C116.974 23.2693 116.692 23.2284 116.45 23.392C116.37 23.4329 116.289 23.5147 116.249 23.5965C114.598 25.1914 112.624 26.6636 110.247 26.8272C109.24 26.909 107.992 26.7863 107.347 25.8866C106.743 25.0687 106.743 23.9236 106.703 22.9421C106.622 20.3248 106.501 17.7075 106.461 15.0902C106.461 12.8409 106.904 10.2236 109.361 9.56928C110.65 9.24211 112.02 9.52839 113.309 9.89645C114.396 10.2236 115.645 10.6326 116.37 11.6141C116.612 11.9821 117.176 12.0639 117.457 11.7776C117.699 11.6141 117.82 11.3278 117.659 11.0415C117.578 9.61018 117.538 8.13793 117.457 6.70659C117.457 5.97047 117.377 5.19345 117.377 4.45733V3.39406C117.337 3.14868 117.176 2.57614 117.296 2.37167C117.377 2.24898 118.746 2.37167 119.028 2.37167H121.324C122.09 2.37167 121.888 2.33077 122.009 2.49435C122.17 2.65793 122.09 3.10778 122.09 3.31226V5.7251C122.09 8.83316 121.888 11.9412 122.009 15.0493C122.13 18.0347 122.331 21.0201 122.452 24.0463C122.452 24.4553 122.452 24.9051 122.493 25.3141V25.1505ZM117.377 17.9938C117.457 16.8487 117.498 15.6627 117.457 14.5176C117.457 14.4359 117.457 14.3541 117.417 14.2723C117.417 14.1905 117.377 14.0678 117.296 13.9451C116.853 13.2499 116.128 12.9636 115.363 12.8409C114.598 12.7591 113.711 12.7182 112.986 13.0045C111.254 13.7406 111.375 16.0308 111.295 17.6257C111.214 19.1797 110.811 21.5926 112.543 22.4105C113.389 22.8195 114.275 22.6968 115.162 22.4923C115.967 22.2878 116.773 22.0015 117.014 21.1018C117.176 20.6111 117.176 20.0795 117.256 19.5478C117.337 19.0162 117.377 18.4436 117.417 17.912V17.9938H117.377Z" fill="#E4E3FD"/>
<path d="M117.457 14.5183C117.457 15.6634 117.457 16.8494 117.377 17.9944C117.336 18.5261 117.296 19.0986 117.215 19.6303C117.175 20.121 117.135 20.6936 116.974 21.1843C116.732 22.084 115.967 22.3703 115.121 22.5747C114.235 22.7792 113.349 22.861 112.503 22.493C110.771 21.675 111.173 19.2622 111.254 17.7082C111.335 16.1132 111.254 13.8231 112.946 13.087C113.671 12.7598 114.557 12.8007 115.322 12.9234C116.128 13.0052 116.813 13.3324 117.256 14.0276C117.336 14.1503 117.377 14.232 117.377 14.3547C117.377 14.4774 117.417 14.5183 117.417 14.6001V14.5183H117.457ZM115.886 19.1395C116.047 17.6264 116.088 16.1132 116.088 14.6001C115.806 14.1912 115.121 14.1912 114.678 14.1912C114.235 14.1912 113.389 14.1503 113.067 14.7228C112.785 15.2135 112.785 15.8679 112.744 16.4404C112.704 17.2174 112.623 17.9536 112.623 18.7306C112.623 19.5076 112.503 20.0392 112.704 20.6527C112.865 21.2252 113.389 21.3888 113.912 21.3479C114.275 21.3479 114.597 21.2661 114.919 21.1843C115.121 21.1434 115.443 21.1025 115.564 20.9798C115.725 20.8162 115.725 20.4482 115.725 20.2028C115.765 19.8347 115.806 19.5076 115.846 19.1395H115.886Z" fill="black"/>
<path d="M117.175 23.3921C117.296 23.4739 117.417 23.5966 117.457 23.801V23.9646C117.498 24.7825 117.578 25.6413 117.618 26.4592H121.244C121.566 26.4592 122.17 26.541 122.412 26.2548C122.613 26.0503 122.492 25.4369 122.492 25.1506C122.492 24.7416 122.492 24.2918 122.452 23.8828C122.331 20.8974 122.13 17.9121 122.009 14.8858C121.888 11.7777 122.049 8.66967 122.09 5.56161V3.14877C122.09 2.9443 122.13 2.49444 122.009 2.33086C121.848 2.16728 121.485 2.20817 121.324 2.20817H119.028C118.746 2.20817 117.377 2.12638 117.296 2.20817C117.175 2.41265 117.296 2.98518 117.296 3.23056V4.29384C117.377 5.02996 117.417 5.80698 117.457 6.5431C117.538 7.97445 117.578 9.44669 117.659 10.878C117.82 11.1643 117.699 11.4506 117.457 11.6141C117.175 11.9004 116.611 11.8186 116.37 11.4506C115.645 10.51 114.396 10.0601 113.308 9.73296C112.06 9.3649 110.69 9.03773 109.361 9.40579C106.864 10.0601 106.42 12.6774 106.461 14.9267C106.461 17.544 106.622 20.1613 106.702 22.7786C106.702 23.7601 106.743 24.9052 107.347 25.7231C107.991 26.6228 109.24 26.7455 110.247 26.6637C112.583 26.5001 114.597 25.0279 116.249 23.433C116.289 23.3512 116.37 23.2694 116.45 23.2285C116.692 23.0649 116.934 23.1058 117.175 23.2285V23.3921ZM123.781 23.4739C123.781 24.2918 123.902 25.1097 123.862 25.9276C123.781 27.3998 122.653 27.8906 121.364 27.8497H116.974C116.571 27.8497 116.289 27.5225 116.289 27.1545C116.289 26.5819 116.209 26.0094 116.168 25.4369C114.114 27.1954 111.536 28.5449 108.797 28.136C107.548 27.9315 106.42 27.3181 105.857 26.1321C105.293 24.987 105.293 23.7192 105.252 22.4515C105.212 20.8157 105.131 19.1798 105.091 17.544C105.051 16.0718 104.93 14.5177 105.091 13.0455C105.252 11.7368 105.695 10.4691 106.622 9.48759C107.548 8.50609 108.837 8.05624 110.126 7.97445C111.536 7.89265 113.026 8.26071 114.356 8.75146C114.96 8.95594 115.564 9.24221 116.088 9.56937C116.007 8.13803 115.967 6.66579 115.886 5.23445C115.846 4.29385 115.725 3.31236 115.766 2.37176C115.766 1.55385 116.289 0.981308 117.095 0.899517C117.941 0.817726 118.867 0.899514 119.713 0.858619C120.438 0.858619 121.284 0.735935 122.009 0.899517C123.66 1.30847 123.378 3.35324 123.378 4.6619C123.378 8.26071 123.177 11.9004 123.338 15.4992C123.419 17.2168 123.54 18.9345 123.62 20.6521C123.66 21.5927 123.701 22.4924 123.741 23.433L123.781 23.4739Z" fill="black"/>
<path d="M104.326 6.91174V12.5144H101.95C100.298 12.5144 98.9289 12.7598 97.7608 13.5368V26.4598H91.3965V6.87085H97.7608V9.36547C98.5664 8.22039 99.9762 6.87085 102.312 6.87085H104.326V6.91174Z" fill="black"/>
<path d="M88.1338 11.5329V21.8386C88.1338 24.9876 86.6837 26.5007 83.5821 26.5007H75.7275C72.6259 26.5007 71.1758 25.0285 71.1758 21.8386V11.5329C71.1758 8.38398 72.6259 6.87085 75.7275 6.87085H83.5821C86.6837 6.87085 88.1338 8.34309 88.1338 11.5329ZM81.8904 20.6936V12.7189C81.8904 12.1873 81.7292 11.9828 81.1653 11.9828H78.0234C77.4998 11.9828 77.2984 12.1464 77.2984 12.7189V20.6936C77.2984 21.2252 77.4595 21.4297 78.0234 21.4297H81.1653C81.689 21.4297 81.8904 21.2661 81.8904 20.6936Z" fill="black"/>
<path d="M69.4437 6.91174V12.5144H67.0671C65.4156 12.5144 64.0461 12.7598 62.878 13.5368V26.4598H56.5137V6.87085H62.878V9.36547C63.6836 8.22039 65.0934 6.87085 67.4297 6.87085H69.4437V6.91174Z" fill="black"/>
<path d="M53.9769 6.91174V12.5144H51.6003C49.9488 12.5144 48.5793 12.7598 47.4112 13.5368V26.4598H41.0469V6.87085H47.4112V9.36547C48.2168 8.22039 49.6266 6.87085 51.9226 6.87085H53.9769V6.91174Z" fill="black"/>
<path d="M37.5818 0H30.9355V4.94837H37.5818V0Z" fill="black"/>
<path d="M37.46 6.91187H31.0957V26.5009H37.46V6.91187Z" fill="black"/>
<path d="M27.5921 11.3278V26.5H21.2278V12.8818C21.2278 12.3501 21.0666 12.1457 20.4624 12.1457C19.1735 12.1457 18.247 12.4728 16.9983 13.1681V26.5H10.634V12.8818C10.634 12.3501 10.4729 12.1457 9.82842 12.1457C8.53944 12.1457 7.613 12.4728 6.3643 13.1681V26.5H0V6.91102H6.3643V9.20118C7.33103 8.09699 8.62 6.70654 11.6813 6.70654C14.7426 6.70654 16.233 7.60625 16.7566 9.48745C17.6428 8.17879 19.2943 6.70654 22.2751 6.70654C25.2558 6.70654 27.5518 8.17879 27.5518 11.3278H27.5921Z" fill="black"/>
</svg>
