<?xml version="1.0"?>
<svg xmlns="http://www.w3.org/2000/svg" width="170" height="60" viewBox="0 0 170 60" fill="none">
<path d="M29.1801 13.2021C31.6997 17.8923 33.0958 23.8332 33.0958 30.0174C33.0958 40.7528 28.8737 50.4111 22.5746 54.2675C22.6427 54.476 22.6767 54.6497 22.6767 54.8581C22.6767 55.9351 21.8255 56.8037 20.7359 56.8037C19.6463 56.8037 19.9868 56.6995 19.6804 56.491V56.8037C19.6804 58.5756 18.2844 60 16.5479 60C14.8114 60 13.4154 58.5756 13.4154 56.8037C13.4154 55.0318 13.4154 56.5953 13.4154 56.491C13.1089 56.6995 12.7344 56.8037 12.3598 56.8037C11.3043 56.8037 10.419 55.9351 10.419 54.8581C10.419 53.7811 10.419 54.4412 10.5212 54.2675C4.22209 50.4111 0 40.718 0 30.0174C0 19.3167 1.39601 17.7881 3.98375 13.0631C3.8816 12.9936 3.77945 12.8894 3.71135 12.7852C2.86013 11.8124 2.38344 10.4922 2.28129 9.10249C2.21319 8.09496 2.28129 7.08743 2.65583 6.18413C2.72393 6.04516 2.89417 5.59351 3.30276 5.55877C3.7454 5.48929 4.0178 5.9062 4.25614 6.25362C4.35829 6.39259 4.42639 6.53156 4.52853 6.60104C5.00522 7.05269 5.61811 7.43486 6.40124 7.78228C6.77578 7.95599 7.15032 8.09496 7.55891 8.23393C8.51228 7.26115 9.49971 6.46207 10.5552 5.80197C10.4871 5.62826 10.4531 5.4198 10.4531 5.21135C10.4531 4.13434 11.3043 3.23104 12.3939 3.23104C13.4835 3.23104 13.143 3.33526 13.4494 3.54372V3.19629C13.4494 1.42444 14.8454 0 16.5819 0C18.3184 0 19.7144 1.42444 19.7144 3.19629C19.7144 4.96815 19.7144 3.40475 19.7144 3.54372C20.0209 3.33526 20.3954 3.23104 20.77 3.23104C21.8255 3.23104 22.7108 4.09959 22.7108 5.21135C22.7108 6.3231 22.7108 5.62826 22.6086 5.80197C23.6982 6.46207 24.7197 7.29589 25.7071 8.33816C26.0816 8.19919 26.4902 8.06022 26.8648 7.88651C27.6479 7.53908 28.2608 7.15692 28.7034 6.70527C28.7715 6.63578 28.8737 6.49682 28.9758 6.35785C29.2142 6.01042 29.5206 5.59351 29.9292 5.663C30.3378 5.73248 30.508 6.14939 30.5761 6.3231C30.9166 7.2264 31.0528 8.26867 30.9507 9.2762C30.8485 10.6659 30.3378 12.0208 29.4865 12.9589C29.4184 13.0284 29.3163 13.1673 29.1461 13.2716V13.2021H29.1801ZM30.6102 30.0521C30.6102 17.6144 24.3111 7.50434 16.5819 7.50434C8.85277 7.50434 2.55368 17.6144 2.55368 30.0521C2.55368 42.4899 8.85277 52.5999 16.5819 52.5999C24.3111 52.5999 30.6102 42.4899 30.6102 30.0521Z" fill="black"/>
<path d="M26.7272 22.8975C26.8294 23.0365 26.7953 23.2102 26.6591 23.3144C26.5229 23.4187 26.3527 23.3839 26.2505 23.245C25.9101 22.7238 25.195 22.4806 24.48 22.6196C23.8671 22.7238 23.3564 23.106 22.9818 23.4882C23.3904 23.4187 23.799 23.4882 24.1395 23.5924C24.8886 23.9051 25.3993 24.6347 25.6036 25.6769C25.7739 26.6497 25.6036 27.7962 25.195 28.908C25.0929 29.1512 24.9907 29.3596 24.8886 29.5681C25.2291 29.2554 25.5355 28.9427 25.842 28.5605C25.9441 28.4216 26.1143 28.4216 26.2505 28.5605C26.3867 28.6648 26.3867 28.8385 26.2505 28.9775C25.5696 29.846 24.6843 30.6103 23.6969 31.1315C23.0159 31.7916 22.2327 32.1737 21.5177 32.1737C20.8027 32.1737 21.007 32.139 20.7686 32.0348C19.7131 31.5831 19.1343 30.2629 19.2705 28.63C19.0662 28.8037 18.8278 28.9774 18.6235 29.0817C18.4873 29.1512 18.3511 29.1859 18.249 29.1859C18.1469 29.1859 18.0107 29.1859 17.9085 29.0469C17.7383 28.8732 17.7723 28.63 17.7723 28.5605C17.7723 28.0394 17.9766 27.5183 18.215 27.0319C18.283 26.8929 18.4873 26.8234 18.6235 26.8929C18.7597 26.9624 18.8278 27.1361 18.7597 27.3098C18.5554 27.692 18.4533 28.1089 18.3852 28.5605C18.93 28.2479 19.4407 27.7615 19.9515 27.1014C20.36 26.5802 20.7005 25.9896 21.007 25.4337L21.1091 25.26C21.2113 25.0863 21.2794 24.9126 21.3815 24.7736C21.4837 24.5652 21.6539 24.322 21.7901 24.0788C21.9263 23.8703 22.0625 23.6619 22.2668 23.4534C22.7094 22.9323 23.3904 22.3069 24.3438 22.0985C25.2631 21.9248 26.2165 22.2722 26.6932 22.967L26.7272 22.8975ZM23.0499 26.2328L24.1395 26.0938L23.1861 25.538L22.9137 25.3642C22.9137 24.9473 22.9137 24.4609 23.118 24.044C22.8456 24.044 22.5392 24.183 22.2668 24.3567C22.1306 24.5652 21.9944 24.7736 21.8923 24.9821C21.7901 25.1558 21.688 25.2948 21.6199 25.4685L21.5177 25.6422C21.2113 26.1981 20.8367 26.8234 20.4281 27.3793C20.2919 27.553 20.1557 27.7267 20.0196 27.8657C19.6791 29.4986 20.0877 30.9925 21.041 31.3747C21.722 31.6526 22.5732 31.3747 23.3223 30.6451C23.3223 30.6103 23.3904 30.5756 23.4245 30.5409C23.799 30.1587 24.1395 29.6376 24.4459 29.0817C23.9012 28.9427 23.2883 27.8657 23.0499 26.5107C23.0499 26.4065 23.0499 26.3023 22.9818 26.1981H23.0499V26.2328Z" fill="black"/>
<path d="M16.5859 7.46875C24.315 7.46875 30.6141 17.5788 30.6141 30.0165C30.6141 42.4543 24.315 52.5643 16.5859 52.5643C8.8567 52.5643 2.55762 42.4543 2.55762 30.0165C2.55762 17.5788 8.8567 7.46875 16.5859 7.46875ZM26.6644 23.3113C26.8006 23.207 26.8346 23.0333 26.7325 22.8943C26.2558 22.1995 25.3024 21.8173 24.3831 22.0258C23.4297 22.1995 22.7147 22.8596 22.3061 23.3807C22.1359 23.5892 21.9656 23.7976 21.8294 24.0061C21.6592 24.284 21.523 24.4925 21.4208 24.7009C21.3187 24.8747 21.2165 25.0484 21.1484 25.1873L21.0463 25.3611C20.7398 25.9169 20.3994 26.5076 19.9908 27.0287C19.48 27.6888 18.9693 28.1404 18.4245 28.4879C18.4926 28.071 18.5948 27.654 18.799 27.2371C18.8671 27.0982 18.799 26.8897 18.6629 26.8202C18.5267 26.7507 18.3224 26.8202 18.2543 26.9592C18.0159 27.4456 17.8797 27.9667 17.8116 28.4879C17.8116 28.5573 17.8116 28.8005 17.9478 28.9743C18.05 29.0785 18.1521 29.1132 18.2883 29.1132C18.4245 29.1132 18.5267 29.1132 18.6629 29.009C18.9012 28.87 19.1055 28.7311 19.3098 28.5573C19.1736 30.1902 19.7184 31.5104 20.8079 31.9621C21.0463 32.0663 21.3187 32.1011 21.557 32.1011C22.2721 32.1011 23.0552 31.7189 23.7362 31.0588C24.6895 30.5377 25.5748 29.8081 26.2899 28.9048C26.392 28.7658 26.358 28.5921 26.2899 28.4879C26.1537 28.3836 25.9834 28.4184 25.8813 28.4879C25.6089 28.8353 25.2684 29.1827 24.9279 29.4954C25.03 29.2869 25.1322 29.0785 25.2343 28.8353C25.677 27.7235 25.8132 26.577 25.6429 25.6042C25.4386 24.562 24.9279 23.8324 24.1788 23.5197C23.8043 23.3807 23.4297 23.346 23.0211 23.4155C23.3957 23.0333 23.9064 22.6512 24.5193 22.5469C25.2003 22.408 25.9153 22.6511 26.2899 23.1723C26.392 23.3113 26.5622 23.346 26.6984 23.2418L26.6644 23.3113ZM24.9279 39.4664C24.996 39.4317 24.996 39.3275 24.9279 39.258C24.9279 39.1885 24.7917 39.1885 24.7236 39.258L14.2365 47.3877C14.1684 47.4224 14.1684 47.5267 14.2365 47.5961C14.2365 47.6309 14.3046 47.6656 14.3386 47.6656H14.4408L24.9619 39.5359V39.4664H24.9279ZM21.2506 45.6853C21.3187 45.6506 21.3187 45.5463 21.2506 45.4769C21.2506 45.4074 21.1144 45.4074 21.0463 45.4421L18.3564 47.4572C18.2883 47.4919 18.2883 47.5961 18.3564 47.6656C18.3564 47.7004 18.4245 47.7351 18.4586 47.7351H18.5607L21.2506 45.7201V45.6853ZM20.5356 10.943C20.6037 10.8735 20.6037 10.804 20.5356 10.7345C20.4675 10.665 20.3994 10.665 20.3313 10.7345L9.81008 18.8642C9.74198 18.8642 9.74198 19.0032 9.81008 19.0727C9.81008 19.0727 9.87818 19.1422 9.91223 19.1422H10.0144C10.0144 19.1422 20.5015 11.0125 20.5356 11.0125V10.943ZM19.3438 19.2464C19.4119 19.2464 19.4119 19.1074 19.3438 19.0379C19.2757 18.9685 19.2076 18.9685 19.1395 19.0379L16.4497 21.053C16.3816 21.1225 16.3816 21.192 16.4497 21.2615C16.4497 21.2615 16.5178 21.3309 16.5859 21.3309C16.654 21.3309 16.654 21.3309 16.654 21.3309L19.3438 19.3159V19.2464ZM19.2076 37.5904C19.2757 37.5556 19.2757 37.4514 19.2076 37.3819C19.1395 37.3124 19.0714 37.3124 19.0033 37.3819L13.3512 41.8289C13.2831 41.8637 13.2831 41.9679 13.3512 42.0374C13.3512 42.0721 13.4193 42.1069 13.4533 42.1069C13.4874 42.1069 13.5214 42.1069 13.5555 42.0721L19.2076 37.6251V37.5904ZM18.5267 35.5753C18.5948 35.5406 18.5948 35.4363 18.5267 35.3668C18.5267 35.2974 18.3905 35.2974 18.3224 35.3321L15.6325 37.3472C15.5644 37.3819 15.5644 37.4861 15.6325 37.5556C15.6325 37.5904 15.7006 37.6251 15.7346 37.6251H15.8368L18.5267 35.61V35.5753ZM17.4371 11.082C17.5052 11.0125 17.5052 10.943 17.4371 10.8735C17.369 10.804 17.3009 10.804 17.2328 10.8735L11.5806 15.3205C11.5125 15.39 11.5125 15.4595 11.5806 15.529C11.5806 15.529 11.6487 15.5985 11.6828 15.5985H11.7849L17.4371 11.1514V11.082ZM15.5644 29.2522C15.7006 29.0785 15.7006 28.8353 15.7006 28.7658C15.6325 28.2099 15.4963 27.6888 15.2579 27.2371C15.1898 27.0982 15.0196 27.0287 14.8494 27.0982C14.6791 27.1677 14.6451 27.3414 14.7132 27.5151C14.9174 27.8972 15.0196 28.3142 15.0877 28.7658C14.5429 28.4531 14.0322 27.9667 13.5214 27.3066C13.1128 26.7855 12.7724 26.1949 12.4659 25.639L12.3638 25.4305C12.2616 25.2568 12.1935 25.1179 12.0914 24.9441C11.9892 24.7357 11.819 24.4925 11.6828 24.2493C11.5466 24.0408 11.3763 23.8324 11.2061 23.6239C10.7635 23.1028 10.0825 22.4774 9.1291 22.269C8.20977 22.0953 7.2564 22.4427 6.77971 23.1375C6.67756 23.2765 6.71161 23.4502 6.84781 23.5545C6.984 23.6587 7.15425 23.6239 7.2564 23.485C7.59689 22.9986 8.31192 22.7206 9.02695 22.8596C9.63983 22.9986 10.1506 23.346 10.5251 23.7282C10.1165 23.6587 9.70793 23.7282 9.36744 23.8324C8.61836 24.1451 8.10762 24.8747 7.90333 25.9169C7.73308 26.8897 7.90333 28.0362 8.31192 29.148C8.41407 29.3912 8.51621 29.5996 8.61836 29.8081C8.27787 29.4954 7.93738 29.1827 7.66499 28.8005C7.56284 28.6616 7.39259 28.6616 7.2564 28.8005C7.1202 28.9395 7.1202 29.0785 7.2564 29.2175C7.93738 30.086 8.82265 30.8503 9.81008 31.3715C10.4911 32.0316 11.2742 32.4137 11.9892 32.4137C12.7043 32.4137 12.5 32.379 12.7383 32.2748C13.7938 31.8231 14.3727 30.5029 14.2365 28.87C14.4408 29.0437 14.6791 29.1827 14.9174 29.3217C15.0536 29.3912 15.1898 29.4259 15.292 29.4259C15.3941 29.4259 15.5644 29.4259 15.6325 29.2869L15.5644 29.2522Z" fill="#E4E3FD"/>
<path d="M24.9589 39.2579C25.027 39.3274 24.9589 39.4316 24.9589 39.4664L14.4377 47.5961H14.3355C14.3355 47.5961 14.2334 47.5961 14.2334 47.5266C14.1653 47.4571 14.2334 47.3529 14.2334 47.3181L24.7205 39.1884C24.7886 39.1537 24.8908 39.1537 24.9248 39.1884V39.2579H24.9589Z" fill="black"/>
<path d="M21.2848 45.4768C21.3529 45.5463 21.2848 45.6505 21.2848 45.6853L18.5949 47.7003H18.4928C18.4928 47.7003 18.3906 47.7003 18.3906 47.6309C18.3906 47.5614 18.3906 47.4571 18.3906 47.4224L21.0805 45.4073C21.1486 45.3726 21.2508 45.3726 21.2848 45.4421V45.4768Z" fill="black"/>
<path d="M20.5635 10.7345C20.6316 10.804 20.5635 10.9082 20.5635 10.943L10.0764 19.0727H9.97422C9.94017 19.0727 9.87207 19.0727 9.87207 19.0032C9.87207 18.9337 9.87207 18.8295 9.87207 18.7947L20.3933 10.665C20.4614 10.665 20.5635 10.665 20.5975 10.665V10.7345H20.5635Z" fill="black"/>
<path d="M19.3751 19.0414C19.3751 19.1109 19.3751 19.2151 19.3751 19.2499L16.6852 21.2649H16.6171C16.6171 21.2649 16.515 21.2649 16.481 21.1954C16.4469 21.126 16.481 21.0217 16.481 20.987L19.1708 18.9719C19.2389 18.9719 19.3411 18.9719 19.3751 18.9719V19.0414Z" fill="black"/>
<path d="M19.207 37.3809C19.207 37.4504 19.207 37.5546 19.207 37.5893L13.5549 42.0363C13.5549 42.0363 13.4868 42.0711 13.4527 42.0711C13.4187 42.0711 13.3506 42.0711 13.3506 42.0016C13.3506 41.9321 13.3506 41.8279 13.3506 41.7931L19.0027 37.3461C19.0708 37.3114 19.173 37.3114 19.207 37.3461V37.3809Z" fill="black"/>
<path d="M18.5582 35.3342C18.6263 35.4037 18.5582 35.508 18.5582 35.5427L15.8684 37.5578H15.7662C15.7662 37.5578 15.6641 37.5578 15.6641 37.4883C15.6641 37.4188 15.6641 37.3146 15.6641 37.2798L18.3539 35.2648C18.422 35.23 18.5242 35.23 18.5582 35.2995V35.3342Z" fill="black"/>
<path d="M17.4697 10.8758C17.5378 10.9452 17.4697 11.0495 17.4697 11.0842L11.8176 15.5312H11.7154C11.6814 15.5312 11.6133 15.5312 11.6133 15.4617C11.5452 15.3923 11.6133 15.288 11.6133 15.2533L17.2654 10.8063C17.3335 10.7368 17.4357 10.8063 17.4697 10.8063V10.8758Z" fill="black"/>
<path d="M15.6616 28.7654C15.6616 28.8349 15.6616 29.0781 15.5254 29.2518C15.4233 29.356 15.3212 29.3907 15.185 29.3907C15.0488 29.3907 14.9466 29.3907 14.8104 29.2865C14.5721 29.1475 14.3678 29.0086 14.1294 28.8349C14.2656 30.4677 13.7208 31.788 12.6313 32.2396C12.3929 32.3438 12.1205 32.3786 11.8822 32.3786C11.1331 32.3786 10.384 31.9964 9.70305 31.3363C8.71562 30.8152 7.86439 30.0856 7.14936 29.1823C7.04722 29.0433 7.08126 28.8696 7.14936 28.7654C7.28556 28.6611 7.4558 28.6959 7.55795 28.7654C7.83034 29.1128 8.17084 29.4602 8.51133 29.7729C8.40918 29.5644 8.30703 29.356 8.20488 29.1128C7.76225 28.001 7.62605 26.8545 7.7963 25.8818C7.96654 24.8395 8.47728 24.1099 9.26041 23.7972C9.63495 23.6582 10.0095 23.6235 10.4181 23.693C10.0435 23.3108 9.5328 22.9287 8.91992 22.8244C8.23893 22.6855 7.5239 22.9287 7.14936 23.4498C7.04722 23.5888 6.87697 23.6235 6.74077 23.5193C6.60458 23.4151 6.57053 23.2413 6.67267 23.1024C7.14936 22.4075 8.10274 22.0254 9.02206 22.2338C9.97544 22.4075 10.6564 23.0676 11.0991 23.5888C11.2693 23.7972 11.4396 24.0057 11.5757 24.2141C11.746 24.4573 11.8822 24.7005 11.9843 24.909C12.0865 25.0479 12.1546 25.2217 12.2567 25.3954L12.3589 25.6038C12.6653 26.1597 13.0058 26.7503 13.4144 27.2715C13.9251 27.9316 14.4359 28.3832 14.9807 28.7306C14.9807 28.3137 14.8104 27.8968 14.6061 27.4799C14.538 27.3409 14.6061 27.1672 14.7423 27.063C14.8785 26.9588 15.0488 27.063 15.1509 27.202C15.3893 27.6884 15.5254 28.2095 15.5935 28.7306L15.6616 28.7654ZM12.427 31.649C13.3804 31.2668 13.823 29.7729 13.4485 28.14C13.4485 28.14 13.4484 28.0705 13.3804 28.0705C13.5506 29.4602 13.2782 30.572 12.7334 30.7109C12.1205 30.8152 11.4055 29.6687 11.0991 28.14C11.0991 28.0358 11.0991 27.9316 11.031 27.8273H11.0991L12.1886 27.6884L11.2353 27.1325L10.9629 26.9588C10.9629 26.0902 11.1672 25.4301 11.5076 25.1869C11.4055 25.0132 11.3034 24.8395 11.1672 24.631C10.5883 24.2836 10.0095 24.1794 9.49875 24.3878C8.95397 24.631 8.54538 25.1869 8.40918 26.0207C8.23893 26.8893 8.40918 27.9316 8.78372 28.9043C9.09016 29.6687 9.5328 30.3288 10.0095 30.8152C10.0776 30.8152 10.1116 30.8847 10.1116 30.9194C10.8607 31.6142 11.6779 31.9269 12.3929 31.6142H12.427V31.649Z" fill="black"/>
<path d="M169.913 31.029C169.913 31.8628 170.049 32.7661 169.981 33.6C169.879 35.1286 168.755 35.6498 167.393 35.615H162.865C162.456 35.615 162.184 35.2676 162.15 34.8854C162.15 34.2948 162.082 33.7042 162.048 33.0788C159.903 34.9202 157.281 36.3099 154.421 35.893C153.127 35.6845 151.969 35.0244 151.39 33.8084C150.811 32.6272 150.811 31.2722 150.743 29.9868C150.675 28.2844 150.641 26.582 150.573 24.8449C150.539 23.2815 150.403 21.7181 150.573 20.1547C150.743 18.7997 151.22 17.4795 152.139 16.472C153.093 15.4645 154.421 14.9781 155.749 14.9086C157.213 14.8044 158.745 15.2213 160.107 15.7077C160.754 15.9509 161.367 16.2288 161.911 16.5762C161.843 15.0823 161.775 13.5536 161.707 12.0597C161.673 11.0869 161.537 10.0794 161.605 9.10661C161.639 8.23805 162.116 7.64744 162.967 7.54321C163.852 7.43898 164.772 7.54321 165.691 7.54321C166.61 7.54321 167.325 7.40424 168.074 7.54321C169.811 7.96012 169.504 10.0794 169.504 11.4691C169.504 15.2213 169.3 18.9734 169.436 22.7603C169.504 24.5322 169.641 26.3041 169.743 28.1107C169.743 29.0835 169.811 30.0215 169.845 30.9943H169.913V31.029ZM168.483 33.9474C168.687 33.7042 168.585 33.0788 168.551 32.8009C168.551 32.3492 168.551 31.8976 168.483 31.4807C168.347 28.3539 168.142 25.2618 168.006 22.135C167.904 18.9039 168.074 15.6729 168.074 12.4419V9.94043C168.074 9.73198 168.142 9.28032 167.972 9.10661C167.836 8.9329 167.427 9.00239 167.257 9.00239H164.874C164.601 9.00239 163.171 8.89816 163.103 9.00239C162.967 9.21084 163.103 9.80146 163.103 10.0447L163.171 11.1564C163.171 11.9207 163.239 12.7198 163.273 13.4841C163.341 14.9781 163.41 16.5067 163.478 18.0007C163.648 18.3133 163.478 18.5913 163.307 18.765C163.001 19.0429 162.422 19.0082 162.184 18.5913C161.435 17.5837 160.141 17.1668 159.017 16.8194C157.723 16.4025 156.293 16.1246 154.965 16.472C152.412 17.1321 151.935 19.842 151.935 22.2045C151.969 24.9144 152.105 27.659 152.207 30.3689C152.241 31.3764 152.276 32.5577 152.888 33.4262C153.569 34.3643 154.829 34.5033 155.885 34.4338C158.302 34.2601 160.379 32.7314 162.082 31.0638C162.15 30.9595 162.218 30.9248 162.32 30.8553C162.558 30.6816 162.831 30.7163 163.035 30.8553C163.171 30.9595 163.273 31.0985 163.341 31.2722V31.4459C163.341 32.3145 163.444 33.183 163.512 34.0169C164.772 34.0169 165.997 33.9821 167.257 34.0169C167.598 34.0169 168.211 34.0864 168.449 33.8084V33.9126L168.483 33.9474Z" fill="black"/>
<path d="M168.582 32.8021C168.582 33.08 168.684 33.7054 168.514 33.9486C168.275 34.2265 167.629 34.1571 167.322 34.1571C166.062 34.1223 164.837 34.1571 163.577 34.1571C163.509 33.2885 163.475 32.4199 163.406 31.5861V31.4124C163.406 31.204 163.236 31.0997 163.1 30.9955C162.896 30.8565 162.623 30.8218 162.385 30.9955C162.283 31.0302 162.215 31.0997 162.147 31.204C160.444 32.8716 158.367 34.4003 155.95 34.574C154.894 34.6434 153.634 34.5392 152.953 33.5664C152.34 32.6979 152.34 31.5166 152.272 30.5091C152.17 27.7992 152.034 25.0546 152 22.3447C152 20.0169 152.443 17.307 155.03 16.6122C156.392 16.2648 157.788 16.6122 159.082 16.9596C160.206 17.307 161.5 17.7239 162.249 18.7315C162.487 19.1484 163.066 19.1831 163.372 18.9052C163.611 18.7315 163.713 18.4188 163.543 18.1408C163.475 16.6469 163.406 15.1183 163.338 13.6243C163.338 12.86 163.27 12.0609 163.236 11.2966L163.168 10.1848C163.168 9.94165 163.032 9.31629 163.168 9.14257C163.27 9.00361 164.666 9.14257 164.939 9.14257H167.322C168.105 9.14257 167.901 9.14257 168.037 9.2468C168.207 9.42051 168.139 9.87216 168.139 10.0806V12.5821C168.139 15.8131 167.935 19.0441 168.071 22.2752C168.173 25.402 168.412 28.4941 168.548 31.6209C168.548 32.0725 168.548 32.5242 168.616 32.9411V32.8368L168.582 32.8021ZM163.27 25.3325C163.372 24.1165 163.372 22.9353 163.372 21.7193C163.372 20.5033 163.372 21.5456 163.304 21.4761C163.304 21.3719 163.304 21.2676 163.202 21.1287C162.725 20.3991 162.01 20.0864 161.193 19.9822C160.41 19.878 159.491 19.8432 158.742 20.1559C156.971 20.8855 157.073 23.3174 156.971 24.9503C156.869 26.5832 156.494 29.0847 158.265 29.9532C159.116 30.3701 160.07 30.2659 160.955 30.0575C161.806 29.849 162.589 29.5711 162.862 28.633C162.998 28.1119 163.032 27.556 163.1 27.0349C163.168 26.479 163.202 25.8884 163.27 25.3325Z" fill="#E4E3FD"/>
<path d="M163.373 21.6837C163.373 22.8997 163.373 24.0809 163.27 25.2969C163.27 25.8528 163.168 26.4434 163.1 26.9993C163.032 27.5204 162.998 28.0763 162.862 28.5974C162.59 29.5354 161.806 29.8481 160.955 30.0218C160.036 30.2303 159.117 30.3345 158.265 29.9176C156.495 29.0491 156.903 26.5476 156.971 24.9147C157.074 23.2818 156.971 20.8499 158.742 20.1203C159.491 19.8076 160.41 19.8423 161.194 19.9466C162.011 20.0508 162.726 20.3635 163.202 21.0931C163.271 21.1973 163.305 21.3363 163.305 21.4405C163.305 21.5447 163.305 21.5795 163.373 21.6837ZM161.738 26.5129C161.909 24.9495 161.977 23.3861 161.943 21.8226C161.636 21.4057 160.955 21.4057 160.478 21.4057C160.002 21.4057 159.151 21.3363 158.81 21.9269C158.504 22.448 158.538 23.1429 158.47 23.6987C158.401 24.4978 158.367 25.2621 158.333 26.0612C158.333 26.6866 158.231 27.4509 158.401 28.0763C158.572 28.6669 159.117 28.8406 159.661 28.8059C160.002 28.8059 160.376 28.7016 160.717 28.6321C160.921 28.6321 161.262 28.5627 161.398 28.3889C161.568 28.2152 161.568 27.8331 161.568 27.5899C161.636 27.2425 161.67 26.8603 161.704 26.5129H161.738Z" fill="black"/>
<path d="M149.79 13.7979V19.6346H147.338C145.636 19.6346 144.206 19.9126 143.014 20.6769V34.1222H136.442V13.7632H143.014V16.3689C143.865 15.1876 145.295 13.7632 147.713 13.7632H149.79V13.7979Z" fill="black"/>
<path d="M133.004 18.6239V29.3245C133.004 32.5903 131.506 34.1537 128.271 34.1537H120.133C116.933 34.1537 115.4 32.625 115.4 29.3245V18.6239C115.4 15.3581 116.899 13.7947 120.133 13.7947H128.271C131.472 13.7947 133.004 15.3233 133.004 18.6239ZM126.603 28.1433V19.8398C126.603 19.284 126.432 19.0755 125.853 19.0755H122.619C122.074 19.0755 121.87 19.2492 121.87 19.8398V28.1433C121.87 28.6991 122.04 28.9076 122.619 28.9076H125.853C126.398 28.9076 126.603 28.7339 126.603 28.1433Z" fill="black"/>
<path d="M113.698 13.7979V19.6346H111.246C109.544 19.6346 108.114 19.9126 106.922 20.6769V34.1222H100.351V13.7632H106.922V16.3689C107.773 15.1876 109.203 13.7632 111.621 13.7632H113.698V13.7979Z" fill="black"/>
<path d="M97.6959 13.7979V19.6346H95.2444C93.5419 19.6346 92.1118 19.9126 90.9201 20.6769V34.1222H84.3486V13.7632H90.9201V16.3689C91.7713 15.1876 93.2014 13.7632 95.6189 13.7632H97.6959V13.7979Z" fill="black"/>
<path d="M80.7715 6.64087H73.8936V11.8175H80.7715V6.64087Z" fill="black"/>
<path d="M80.6027 13.7947H74.0312V34.1537H80.6027V13.7947Z" fill="black"/>
<path d="M70.419 18.4162V34.1545H63.8476V19.9796C63.8476 19.4237 63.6773 19.2152 63.0304 19.2152C61.7025 19.2152 60.7491 19.5627 59.4552 20.2923V34.1545H52.8837V19.9796C52.8837 19.4237 52.7135 19.2152 52.0666 19.2152C50.7386 19.2152 49.7853 19.5627 48.4914 20.2923V34.1545H41.9199V13.7954H48.4914V16.1579C49.4788 15.0114 50.8067 13.5522 54.0074 13.5522C57.208 13.5522 58.7061 14.4903 59.2509 16.4359C60.1703 15.0809 61.8727 13.5522 64.9712 13.5522C68.0697 13.5522 70.4531 15.0809 70.4531 18.3814H70.419V18.4162Z" fill="black"/>
<path d="M63.2233 54.7324V55.976H61.1758V44.8337H63.2233V48.9623C63.7595 48.2162 64.2958 47.669 65.807 47.669C67.3182 47.669 68.0495 48.3157 68.0495 49.8079V53.8868C68.0495 55.3791 67.4157 56.0257 65.807 56.0257C64.1983 56.0257 63.7595 55.5283 63.2233 54.7324ZM66.002 53.6381V50.0567C66.002 49.6587 65.9045 49.5592 65.417 49.5592C64.3933 49.5592 63.857 49.7085 63.2233 50.0567V53.6381C63.857 53.9863 64.3445 54.1355 65.417 54.1355C66.4895 54.1355 66.002 54.036 66.002 53.6381Z" fill="black"/>
<path d="M71.9007 55.9779L69.0732 47.7207H71.267L72.9245 53.7395L74.582 47.7207H76.7269L73.0707 58.4152H71.072L71.852 55.9779H71.9007Z" fill="black"/>
<path d="M81.7471 45.2832H84.1358L86.9145 51.5507L89.6933 45.2832H92.082V55.9777H89.937V49.1631L87.6945 54.5352H86.0858L83.8433 49.1631V55.9777H81.7958V45.2832H81.7471Z" fill="black"/>
<path d="M96.0797 52.4462V53.9385C96.0797 54.1872 96.1772 54.2867 96.421 54.2867H98.3222C98.5659 54.2867 98.6634 54.1872 98.6634 53.9385V53.2918H100.711V53.9882C100.711 55.3312 100.077 55.9779 98.7609 55.9779H95.9822C94.666 55.9779 94.0322 55.3312 94.0322 53.9882V49.7104C94.0322 48.3673 94.666 47.7207 95.9822 47.7207H98.7609C100.077 47.7207 100.711 48.3673 100.711 49.7104V52.4462H96.0797ZM96.0797 49.7601V51.0037H98.6147V49.7601C98.6147 49.5114 98.5172 49.4119 98.2734 49.4119H96.3722C96.1285 49.4119 96.031 49.5114 96.031 49.7601H96.0797Z" fill="black"/>
<path d="M102.86 53.9841V49.4575H101.642V47.7663H102.86V45.7766H104.859V47.7663H106.614V49.4575H104.859V53.9343C104.859 54.183 104.957 54.2825 105.2 54.2825H106.614V56.0235H104.762C103.445 56.0235 102.812 55.3768 102.812 54.0338L102.86 53.9841Z" fill="black"/>
<path d="M107.687 53.6903C107.687 51.9493 108.467 51.3524 109.784 51.1535C110.466 51.054 111.392 50.9545 112.367 50.9047V49.8104C112.367 49.5617 112.27 49.4622 112.026 49.4622H110.271C110.027 49.4622 109.93 49.5617 109.93 49.8104V50.3078H107.882V49.7607C107.882 48.4176 108.516 47.771 109.832 47.771H112.416C113.732 47.771 114.366 48.4176 114.366 49.7607V56.0282H112.319V54.7349C111.782 55.481 111.246 56.0779 109.784 56.0779C108.321 56.0779 107.59 55.4313 107.59 53.6903H107.687ZM112.367 53.5908V52.2478L110.222 52.6457C109.832 52.7452 109.686 52.8447 109.686 53.4416C109.686 54.0385 109.784 54.2375 110.222 54.2375C111.197 54.2375 111.734 53.939 112.367 53.5908Z" fill="black"/>
<path d="M116.259 44.8337H118.306V55.976H116.259V44.8337Z" fill="black"/>
<path d="M120.452 45.2832H125.912C127.326 45.2832 128.008 45.9796 128.008 47.4221V48.8646C128.008 49.561 127.765 50.1082 127.082 50.5061C127.813 50.8543 128.155 51.4512 128.155 52.1476V53.8388C128.155 55.2814 127.472 55.9777 126.058 55.9777H120.452V45.2832ZM125.571 49.561C125.815 49.561 125.863 49.4615 125.863 49.2626V47.5713C125.863 47.3226 125.766 47.2729 125.571 47.2729H122.597V49.561H125.571ZM125.668 53.9881C125.912 53.9881 125.961 53.8886 125.961 53.6896V51.7497C125.961 51.501 125.863 51.4512 125.668 51.4512H122.597V53.9881H125.668Z" fill="black"/>
<path d="M131.763 52.4462V53.9385C131.763 54.1872 131.861 54.2867 132.105 54.2867H134.006C134.25 54.2867 134.347 54.1872 134.347 53.9385V53.2918H136.395V53.9882C136.395 55.3312 135.761 55.9779 134.445 55.9779H131.666C130.35 55.9779 129.716 55.3312 129.716 53.9882V49.7104C129.716 48.3673 130.35 47.7207 131.666 47.7207H134.445C135.761 47.7207 136.395 48.3673 136.395 49.7104V52.4462H131.763ZM131.763 49.7601V51.0037H134.298V49.7601C134.298 49.5114 134.201 49.4119 133.957 49.4119H132.056C131.812 49.4119 131.715 49.5114 131.715 49.7601H131.763Z" fill="black"/>
<path d="M137.762 53.6903C137.762 51.9493 138.542 51.3524 139.858 51.1535C140.54 51.054 141.467 50.9545 142.442 50.9047V49.8104C142.442 49.5617 142.344 49.4622 142.1 49.4622H140.345C140.102 49.4622 140.004 49.5617 140.004 49.8104V50.3078H137.957V49.7607C137.957 48.4176 138.59 47.771 139.907 47.771H142.49C143.806 47.771 144.44 48.4176 144.44 49.7607V56.0282H142.393V54.7349C141.857 55.481 141.32 56.0779 139.858 56.0779C138.395 56.0779 137.664 55.4313 137.664 53.6903H137.762ZM142.49 53.5908V52.2478L140.345 52.6457C139.955 52.7452 139.809 52.8447 139.809 53.4416C139.809 54.0385 139.907 54.2375 140.345 54.2375C141.32 54.2375 141.857 53.939 142.49 53.5908Z" fill="black"/>
<path d="M146.394 47.7207H148.442V49.014C148.978 48.2679 149.514 47.7207 150.733 47.7207H151.367V49.7104H150.343C149.563 49.7104 149.027 49.8596 148.393 50.2078V55.9779H146.346V47.7207H146.394Z" fill="black"/>
</svg>
