<?xml version="1.0"?>
<svg xmlns="http://www.w3.org/2000/svg" width="584" height="323" viewBox="0 0 584 323" fill="none">
<g clip-path="url(#clip0_4989_2292)">
<path d="M283.139 24.6899C286.143 16.4072 297.857 16.4073 300.861 24.6899L327.944 99.3493C330.282 105.793 338.497 107.667 343.397 102.874L400.129 47.3865C406.426 41.2271 416.979 46.3027 416.099 55.0674L408.158 134.145C407.473 140.961 414.057 146.208 420.549 144.02L495.722 118.675C504.065 115.862 511.367 125.007 506.778 132.521L465.35 200.351C461.783 206.192 465.434 213.769 472.226 214.618L550.977 224.462C559.71 225.553 562.316 236.956 554.924 241.732L488.211 284.844C482.465 288.558 482.465 296.965 488.211 300.679L554.924 343.79C562.316 348.567 559.71 359.97 550.977 361.061L472.226 370.905C465.434 371.754 461.783 379.331 465.35 385.172L506.778 453.002C511.367 460.516 504.065 469.661 495.722 466.848L420.549 441.503C414.057 439.315 407.473 444.562 408.158 451.378L416.099 530.456C416.979 539.22 406.426 544.296 400.129 538.136L343.397 482.649C338.497 477.856 330.282 479.73 327.944 486.174L300.861 560.833C297.857 569.116 286.143 569.116 283.139 560.833L256.056 486.174C253.718 479.73 245.503 477.856 240.603 482.649L183.871 538.136C177.574 544.296 167.021 539.22 167.901 530.456L175.842 451.378C176.527 444.562 169.943 439.315 163.451 441.503L88.278 466.848C79.9349 469.661 72.6325 460.516 77.2217 453.002L118.65 385.172C122.217 379.331 118.566 371.754 111.774 370.905L33.0227 361.061C24.2897 359.97 21.6837 348.567 29.0756 343.79L95.7886 300.679C101.535 296.965 101.535 288.558 95.7886 284.844L29.0756 241.732C21.6837 236.956 24.2897 225.553 33.0227 224.462L111.774 214.618C118.566 213.769 122.217 206.192 118.65 200.351L77.2217 132.521C72.6325 125.007 79.9349 115.862 88.278 118.675L163.451 144.02C169.943 146.208 176.527 140.961 175.842 134.145L167.901 55.0674C167.021 46.3027 177.574 41.2271 183.871 47.3865L240.603 102.874C245.503 107.667 253.718 105.793 256.056 99.3493L283.139 24.6899Z" fill="white"/>
</g>
<defs>
<clipPath id="clip0_4989_2292">
<rect width="584" height="323" fill="white"/>
</clipPath>
</defs>
</svg>
