<svg width="307" height="111" viewBox="0 0 307 111" fill="none" xmlns="http://www.w3.org/2000/svg">
<path d="M306.897 1.88171C306.831 1.05587 306.109 0.439343 305.283 0.504671C304.457 0.569999 303.841 1.29244 303.906 2.11829L306.897 1.88171ZM225.866 55.4545L226.029 53.9634L225.981 53.9582L225.933 53.956L225.866 55.4545ZM90.6802 89.4695L89.1896 89.3014L89.183 89.3604L89.181 89.4198L90.6802 89.4695ZM108.162 83.1932L106.903 84.0094L106.903 84.0094L108.162 83.1932ZM10.9393 110.561C11.5251 111.146 12.4749 111.146 13.0607 110.561L22.6066 101.015C23.1924 100.429 23.1924 99.4792 22.6066 98.8934C22.0208 98.3076 21.0711 98.3076 20.4853 98.8934L12 107.379L3.51472 98.8934C2.92893 98.3076 1.97918 98.3076 1.3934 98.8934C0.807612 99.4792 0.807612 100.429 1.3934 101.015L10.9393 110.561ZM13.6155 106.498C13.6799 105.672 13.0625 104.95 12.2365 104.886C11.4106 104.821 10.6889 105.439 10.6246 106.265L13.6155 106.498ZM11.649 99.9043C11.4491 100.708 11.9388 101.522 12.7427 101.722C13.5467 101.922 14.3605 101.432 14.5603 100.628L11.649 99.9043ZM16.4846 95.0144C16.8202 94.257 16.4782 93.3709 15.7208 93.0353C14.9634 92.6997 14.0774 93.0417 13.7418 93.7991L16.4846 95.0144ZM16.8501 88.1452C16.3914 88.835 16.5788 89.7661 17.2687 90.2248C17.9585 90.6835 18.8896 90.4961 19.3483 89.8062L16.8501 88.1452ZM23.0359 85.1185C23.5967 84.5087 23.557 83.5598 22.9472 82.999C22.3375 82.4382 21.3886 82.4779 20.8278 83.0877L23.0359 85.1185ZM25.4918 78.6911C24.8515 79.2168 24.7586 80.162 25.2842 80.8023C25.8099 81.4426 26.7551 81.5355 27.3954 81.0098L25.4918 78.6911ZM32.2768 77.4911C32.9767 77.048 33.1848 76.1213 32.7417 75.4214C32.2985 74.7215 31.3718 74.5133 30.6719 74.9565L32.2768 77.4911ZM36.2338 71.8518C35.49 72.2165 35.1827 73.1152 35.5474 73.859C35.9121 74.6028 36.8108 74.9101 37.5546 74.5454L36.2338 71.8518ZM43.1174 72.1512C43.8931 71.8605 44.2863 70.9959 43.9955 70.2202C43.7047 69.4444 42.8402 69.0513 42.0644 69.3421L43.1174 72.1512ZM48.0972 67.3867C47.2987 67.6071 46.83 68.4332 47.0504 69.2317C47.2709 70.0303 48.0969 70.4989 48.8955 70.2785L48.0972 67.3867ZM54.8181 68.9108C55.6324 68.7583 56.1688 67.9745 56.0163 67.1603C55.8637 66.346 55.08 65.8096 54.2657 65.9621L54.8181 68.9108ZM60.5279 65.0526C59.7039 65.1382 59.1053 65.8755 59.1908 66.6995C59.2763 67.5235 60.0136 68.1221 60.8376 68.0366L60.5279 65.0526ZM66.9108 67.6566C67.739 67.639 68.3961 66.9533 68.3785 66.1251C68.3609 65.2968 67.6752 64.6397 66.847 64.6573L66.9108 67.6566ZM73.1745 64.7901C72.3478 64.7371 71.6347 65.3644 71.5817 66.1911C71.5287 67.0178 72.156 67.731 72.9827 67.7839L73.1745 64.7901ZM79.0203 68.4461C79.8387 68.5747 80.6064 68.0156 80.7351 67.1972C80.8637 66.3788 80.3045 65.6111 79.4862 65.4825L79.0203 68.4461ZM85.705 66.7821C84.904 66.5705 84.0832 67.0483 83.8717 67.8493C83.6601 68.6502 84.1379 69.471 84.9389 69.6826L85.705 66.7821ZM90.6703 71.5547C91.4407 71.8593 92.3122 71.4816 92.6167 70.7112C92.9212 69.9408 92.5436 69.0693 91.7731 68.7648L90.6703 71.5547ZM97.5644 71.5234C96.8442 71.1141 95.9285 71.3662 95.5192 72.0864C95.1099 72.8067 95.362 73.7224 96.0822 74.1317L97.5644 71.5234ZM100.992 77.4796C101.634 78.004 102.579 77.9093 103.103 77.268C103.628 76.6267 103.533 75.6817 102.892 75.1573L100.992 77.4796ZM107.493 79.738C106.969 79.0966 106.024 79.0016 105.382 79.5259C104.741 80.0502 104.646 80.9952 105.17 81.6366L107.493 79.738ZM108.283 86.6756C108.58 87.4489 109.448 87.8349 110.221 87.5378C110.995 87.2407 111.381 86.373 111.084 85.5997L108.283 86.6756ZM111.571 93.0551C111.795 92.2575 111.329 91.4295 110.532 91.2058C109.734 90.9821 108.906 91.4474 108.682 92.2451L111.571 93.0551ZM105.457 96.7605C104.791 97.2536 104.652 98.193 105.145 98.8587C105.638 99.5243 106.577 99.6641 107.243 99.171L105.457 96.7605ZM100.325 101.767C101.151 101.705 101.77 100.984 101.708 100.158C101.645 99.3322 100.925 98.713 100.099 98.7752L100.325 101.767ZM94.924 97.3275C94.2801 96.8063 93.3356 96.9058 92.8144 97.5497C92.2932 98.1936 92.3927 99.1382 93.0366 99.6594L94.924 97.3275ZM89.4074 93.0331C89.5484 93.8494 90.3244 94.3969 91.1408 94.2559C91.9571 94.1149 92.5046 93.3388 92.3636 92.5225L89.4074 93.0331ZM92.5462 86.717C92.665 85.8971 92.0967 85.1362 91.2769 85.0173C90.457 84.8985 89.6961 85.4668 89.5772 86.2867L92.5462 86.717ZM90.6231 80.4698C90.4473 81.2794 90.9611 82.0782 91.7706 82.254C92.5802 82.4298 93.379 81.916 93.5548 81.1065L90.6231 80.4698ZM94.9838 75.6062C95.2262 74.8141 94.7806 73.9754 93.9884 73.7329C93.1963 73.4905 92.3576 73.9362 92.1151 74.7283L94.9838 75.6062ZM94.134 69.1115C93.8146 69.8758 94.1753 70.7544 94.9397 71.0738C95.7041 71.3932 96.5827 71.0325 96.9021 70.2682L94.134 69.1115ZM99.3749 65.18C99.7808 64.4578 99.5243 63.5433 98.802 63.1375C98.0798 62.7317 97.1654 62.9882 96.7595 63.7104L99.3749 65.18ZM100.049 58.6558C99.5517 59.3181 99.6851 60.2584 100.347 60.7561C101.01 61.2538 101.95 61.1203 102.448 60.458L100.049 58.6558ZM106.129 56.2257C106.716 55.6418 106.72 54.692 106.136 54.1043C105.552 53.5166 104.602 53.5135 104.014 54.0974L106.129 56.2257ZM108.603 50.1684C107.936 50.6593 107.793 51.5983 108.284 52.2655C108.775 52.9328 109.713 53.0757 110.381 52.5847L108.603 50.1684ZM115.125 49.5932C115.855 49.2014 116.129 48.2921 115.738 47.5621C115.346 46.8322 114.437 46.5581 113.707 46.9498L115.125 49.5932ZM119.185 44.4563C118.411 44.7515 118.023 45.6182 118.318 46.3923C118.613 47.1664 119.48 47.5546 120.254 47.2594L119.185 44.4563ZM125.645 45.5486C126.447 45.341 126.929 44.5226 126.721 43.7206C126.513 42.9186 125.695 42.4368 124.893 42.6444L125.645 45.5486ZM130.735 41.429C129.917 41.5607 129.36 42.3305 129.492 43.1484C129.624 43.9663 130.394 44.5225 131.211 44.3908L130.735 41.429ZM136.884 43.7104C137.71 43.6429 138.325 42.9188 138.257 42.0931C138.19 41.2675 137.465 40.6528 136.64 40.7203L136.884 43.7104ZM142.563 40.4347C141.735 40.4486 141.075 41.1314 141.089 41.9597C141.103 42.788 141.785 43.4482 142.614 43.4343L142.563 40.4347ZM148.367 43.4974C149.195 43.5281 149.891 42.8818 149.921 42.054C149.952 41.2261 149.306 40.5301 148.478 40.4995L148.367 43.4974ZM154.368 40.8535C153.542 40.7859 152.818 41.4005 152.751 42.2261C152.683 43.0518 153.298 43.7759 154.123 43.8435L154.368 40.8535ZM159.871 44.4251C160.694 44.5233 161.44 43.9361 161.538 43.1135C161.636 42.2909 161.049 41.5445 160.227 41.4463L159.871 44.4251ZM166.05 42.2353C165.231 42.1119 164.467 42.6759 164.343 43.4951C164.22 44.3143 164.784 45.0784 165.603 45.2018L166.05 42.2353ZM171.321 46.1397C172.137 46.2837 172.915 45.7392 173.059 44.9233C173.203 44.1075 172.658 43.3294 171.842 43.1854L171.321 46.1397ZM177.606 44.2655C176.793 44.105 176.004 44.6337 175.843 45.4464C175.683 46.2592 176.212 47.0481 177.024 47.2086L177.606 44.2655ZM182.716 48.3812C183.526 48.5544 184.323 48.038 184.496 47.2279C184.67 46.4178 184.153 45.6206 183.343 45.4475L182.716 48.3812ZM189.059 46.7044C188.251 46.5224 187.448 47.0299 187.266 47.8381C187.084 48.6463 187.591 49.449 188.4 49.6311L189.059 46.7044ZM194.08 50.9312C194.887 51.1181 195.693 50.6154 195.88 49.8084C196.067 49.0013 195.564 48.1955 194.757 48.0086L194.08 50.9312ZM200.44 49.3291C199.633 49.1419 198.827 49.6443 198.64 50.4513C198.452 51.2583 198.955 52.0642 199.762 52.2515L200.44 49.3291ZM205.449 53.5545C206.257 53.7362 207.06 53.2282 207.242 52.4199C207.423 51.6117 206.915 50.8092 206.107 50.6275L205.449 53.5545ZM211.777 51.8572C210.966 51.6894 210.173 52.2111 210.005 53.0224C209.837 53.8337 210.359 54.6273 211.17 54.795L211.777 51.8572ZM216.972 55.9025C217.789 56.0424 218.564 55.4938 218.704 54.6773C218.844 53.8607 218.295 53.0854 217.479 52.9456L216.972 55.9025ZM223.13 53.7431C222.306 53.6581 221.569 54.2572 221.484 55.0812C221.399 55.9053 221.998 56.6422 222.822 56.7272L223.13 53.7431ZM228.765 57.2393C229.59 57.3076 230.315 56.6937 230.383 55.8681C230.452 55.0424 229.838 54.3178 229.012 54.2495L228.765 57.2393ZM234.941 54.5788C234.113 54.5558 233.423 55.2085 233.4 56.0366C233.377 56.8647 234.03 57.5547 234.858 57.5777L234.941 54.5788ZM240.973 57.5692C241.801 57.5433 242.452 56.851 242.426 56.023C242.4 55.195 241.708 54.5447 240.88 54.5706L240.973 57.5692ZM246.811 54.1982C245.987 54.2767 245.382 55.0089 245.46 55.8336C245.539 56.6583 246.271 57.2632 247.096 57.1847L246.811 54.1982ZM253.166 56.4C253.984 56.2656 254.537 55.494 254.403 54.6765C254.269 53.8591 253.497 53.3053 252.679 53.4398L253.166 56.4ZM258.489 52.2677C257.683 52.4614 257.188 53.2714 257.381 54.0768C257.575 54.8823 258.385 55.3782 259.19 55.1845L258.489 52.2677ZM265.099 53.5211C265.887 53.2655 266.318 52.4195 266.063 51.6315C265.807 50.8435 264.961 50.4118 264.173 50.6674L265.099 53.5211ZM269.717 48.6151C268.953 48.9348 268.593 49.8135 268.912 50.5778C269.232 51.342 270.111 51.7024 270.875 51.3826L269.717 48.6151ZM276.444 48.765C277.178 48.38 277.46 47.4732 277.075 46.7397C276.69 46.0062 275.783 45.7236 275.05 46.1086L276.444 48.765ZM280.135 43.1375C279.44 43.588 279.241 44.5168 279.692 45.212C280.143 45.9072 281.071 46.1056 281.767 45.655L280.135 43.1375ZM286.784 42.0521C287.432 41.5368 287.54 40.5932 287.025 39.9446C286.51 39.2959 285.566 39.1878 284.918 39.7031L286.784 42.0521ZM289.331 35.8213C288.738 36.3994 288.725 37.3491 289.303 37.9425C289.881 38.5359 290.831 38.5483 291.424 37.9702L289.331 35.8213ZM295.623 33.4258C296.152 32.7881 296.063 31.8425 295.426 31.3137C294.788 30.7849 293.842 30.8731 293.314 31.5108L295.623 33.4258ZM296.797 26.8C296.343 27.493 296.537 28.4227 297.23 28.8767C297.923 29.3306 298.853 29.1368 299.306 28.4438L296.797 26.8ZM302.393 23.0589C302.76 22.3164 302.456 21.4166 301.714 21.0492C300.971 20.6819 300.071 20.986 299.704 21.7285L302.393 23.0589ZM301.945 16.3511C301.678 17.1353 302.098 17.9875 302.882 18.2546C303.666 18.5216 304.518 18.1024 304.785 17.3182L301.945 16.3511ZM306.37 11.2734C306.52 10.4586 305.981 9.67669 305.166 9.52698C304.351 9.37727 303.569 9.91643 303.419 10.7312L306.37 11.2734ZM303.997 4.98691C303.985 5.81525 304.647 6.49646 305.475 6.50843C306.303 6.5204 306.984 5.8586 306.996 5.03026L303.997 4.98691ZM13.5 109.5C13.5 108.48 13.5391 107.479 13.6155 106.498L10.6246 106.265C10.542 107.325 10.5 108.403 10.5 109.5H13.5ZM14.5603 100.628C15.047 98.6705 15.6937 96.7993 16.4846 95.0144L13.7418 93.7991C12.8814 95.7409 12.178 97.7764 11.649 99.9043L14.5603 100.628ZM19.3483 89.8062C20.4461 88.1551 21.6806 86.5922 23.0359 85.1185L20.8278 83.0877C19.3714 84.6713 18.0389 86.3572 16.8501 88.1452L19.3483 89.8062ZM27.3954 81.0098C28.9289 79.7508 30.5611 78.5775 32.2768 77.4911L30.6719 74.9565C28.8581 76.105 27.1255 77.3499 25.4918 78.6911L27.3954 81.0098ZM37.5546 74.5454C39.3512 73.6645 41.2102 72.8661 43.1174 72.1512L42.0644 69.3421C40.07 70.0896 38.1214 70.9263 36.2338 71.8518L37.5546 74.5454ZM48.8955 70.2785C50.8427 69.741 52.8214 69.2849 54.8181 68.9108L54.2657 65.9621C52.1879 66.3514 50.1271 66.8263 48.0972 67.3867L48.8955 70.2785ZM60.8376 68.0366C62.8633 67.8264 64.8923 67.6996 66.9108 67.6566L66.847 64.6573C64.7459 64.702 62.6348 64.834 60.5279 65.0526L60.8376 68.0366ZM72.9827 67.7839C75.0277 67.915 77.0452 68.1356 79.0203 68.4461L79.4862 65.4825C77.4171 65.1573 75.3081 64.9268 73.1745 64.7901L72.9827 67.7839ZM84.9389 69.6826C86.922 70.2064 88.8382 70.8305 90.6703 71.5547L91.7731 68.7648C89.8244 67.9945 87.7952 67.3341 85.705 66.7821L84.9389 69.6826ZM96.0822 74.1317C97.8457 75.1338 99.489 76.2501 100.992 77.4796L102.892 75.1573C101.248 73.813 99.4635 72.6026 97.5644 71.5234L96.0822 74.1317ZM105.17 81.6366C105.792 82.3967 106.37 83.1876 106.903 84.0094L109.42 82.377C108.826 81.4608 108.182 80.5812 107.493 79.738L105.17 81.6366ZM106.903 84.0094C107.506 84.9389 107.958 85.8295 108.283 86.6756L111.084 85.5997C110.677 84.5416 110.126 83.4655 109.42 82.377L106.903 84.0094ZM108.682 92.2451C108.172 94.0654 107.003 95.615 105.457 96.7605L107.243 99.171C109.24 97.6913 110.854 95.6102 111.571 93.0551L108.682 92.2451ZM100.099 98.7752C98.1422 98.9227 96.3084 98.4481 94.924 97.3275L93.0366 99.6594C95.1283 101.352 97.7632 101.96 100.325 101.767L100.099 98.7752ZM92.3636 92.5225C92.2113 91.641 92.1421 90.643 92.1794 89.5192L89.181 89.4198C89.1378 90.7243 89.2165 91.9283 89.4074 93.0331L92.3636 92.5225ZM92.1708 89.6375C92.2828 88.6439 92.408 87.6705 92.5462 86.717L89.5772 86.2867C89.4344 87.2723 89.3051 88.2771 89.1896 89.3014L92.1708 89.6375ZM93.5548 81.1065C93.9729 79.1812 94.4505 77.3491 94.9838 75.6062L92.1151 74.7283C91.5563 76.5546 91.058 78.4673 90.6231 80.4698L93.5548 81.1065ZM96.9021 70.2682C97.6578 68.4597 98.4839 66.7658 99.3749 65.18L96.7595 63.7104C95.8094 65.4014 94.9327 67.2001 94.134 69.1115L96.9021 70.2682ZM102.448 60.458C103.6 58.9241 104.83 57.5162 106.129 56.2257L104.014 54.0974C102.612 55.4903 101.288 57.0072 100.049 58.6558L102.448 60.458ZM110.381 52.5847C111.892 51.4726 113.476 50.4784 115.125 49.5932L113.707 46.9498C111.937 47.8994 110.233 48.9689 108.603 50.1684L110.381 52.5847ZM120.254 47.2594C121.996 46.5952 123.795 46.0275 125.645 45.5486L124.893 42.6444C122.943 43.1491 121.038 43.7498 119.185 44.4563L120.254 47.2594ZM131.211 44.3908C133.066 44.0923 134.959 43.8678 136.884 43.7104L136.64 40.7203C134.643 40.8836 132.672 41.117 130.735 41.429L131.211 44.3908ZM142.614 43.4343C144.51 43.4025 146.43 43.4257 148.367 43.4974L148.478 40.4995C146.492 40.4259 144.518 40.402 142.563 40.4347L142.614 43.4343ZM154.123 43.8435C156.031 43.9997 157.948 44.1956 159.871 44.4251L160.227 41.4463C158.27 41.2127 156.316 41.013 154.368 40.8535L154.123 43.8435ZM165.603 45.2018C167.512 45.4894 169.419 45.804 171.321 46.1397L171.842 43.1854C169.919 42.8457 167.986 42.527 166.05 42.2353L165.603 45.2018ZM177.024 47.2086C178.935 47.586 180.834 47.9789 182.716 48.3812L183.343 45.4475C181.448 45.0425 179.534 44.6464 177.606 44.2655L177.024 47.2086ZM188.4 49.6311C190.32 50.0636 192.215 50.4993 194.08 50.9312L194.757 48.0086C192.889 47.576 190.987 47.1388 189.059 46.7044L188.4 49.6311ZM199.762 52.2515C201.703 52.7019 203.602 53.1394 205.449 53.5545L206.107 50.6275C204.27 50.2146 202.379 49.779 200.44 49.3291L199.762 52.2515ZM211.17 54.795C213.187 55.2121 215.126 55.5863 216.972 55.9025L217.479 52.9456C215.674 52.6366 213.771 52.2693 211.777 51.8572L211.17 54.795ZM222.822 56.7272C223.855 56.8337 224.848 56.9105 225.799 56.953L225.933 53.956C225.049 53.9165 224.114 53.8446 223.13 53.7431L222.822 56.7272ZM225.704 56.9457C226.733 57.058 227.754 57.1557 228.765 57.2393L229.012 54.2495C228.027 54.1681 227.033 54.0728 226.029 53.9634L225.704 56.9457ZM234.858 57.5777C236.939 57.6355 238.978 57.6316 240.973 57.5692L240.88 54.5706C238.944 54.6312 236.964 54.635 234.941 54.5788L234.858 57.5777ZM247.096 57.1847C249.171 56.9872 251.194 56.7243 253.166 56.4L252.679 53.4398C250.776 53.7528 248.819 54.0071 246.811 54.1982L247.096 57.1847ZM259.19 55.1845C261.222 54.6959 263.192 54.1396 265.099 53.5211L264.173 50.6674C262.341 51.2618 260.446 51.7971 258.489 52.2677L259.19 55.1845ZM270.875 51.3826C272.807 50.5746 274.663 49.6997 276.444 48.765L275.05 46.1086C273.346 47.0026 271.569 47.8405 269.717 48.6151L270.875 51.3826ZM281.767 45.655C283.529 44.5128 285.202 43.3088 286.784 42.0521L284.918 39.7031C283.411 40.8997 281.817 42.0474 280.135 43.1375L281.767 45.655ZM291.424 37.9702C292.931 36.5022 294.331 34.9836 295.623 33.4258L293.314 31.5108C292.09 32.9864 290.762 34.427 289.331 35.8213L291.424 37.9702ZM299.306 28.4438C300.464 26.6763 301.493 24.8764 302.393 23.0589L299.704 21.7285C298.859 23.4362 297.89 25.1315 296.797 26.8L299.306 28.4438ZM304.785 17.3182C305.472 15.3004 306.002 13.2788 306.37 11.2734L303.419 10.7312C303.078 12.5873 302.587 14.467 301.945 16.3511L304.785 17.3182ZM306.996 5.03026C307.012 3.96906 306.979 2.91843 306.897 1.88171L303.906 2.11829C303.981 3.0594 304.011 4.01657 303.997 4.98691L306.996 5.03026Z" fill="black"/>
</svg>
