<svg width="182" height="171" viewBox="0 0 182 171" fill="none" xmlns="http://www.w3.org/2000/svg">
<path d="M140.62 91.4003C142.208 90.0416 144.055 89.1409 146.009 88.5913C143.658 86.1334 141.841 81.8587 141.017 76.6681L150.65 71.6302L140.635 67.4319C141.322 57.4323 145.536 49.738 150.65 49.738C156.238 49.738 160.772 58.9437 160.772 70.302C160.772 78.1795 158.589 85.0189 155.383 88.4691C158.054 89.034 160.634 90.0568 162.817 91.385C155.093 91.5224 148.223 90.2248 140.62 91.385V91.4003Z" fill="#222222"/>
<path d="M91.7072 55.2495C97.2948 55.2495 101.829 64.4552 101.829 75.8135C101.829 83.5689 99.7221 90.3014 96.5925 93.8127C99.2794 94.3317 101.859 95.4309 103.92 96.9118C97.0047 97.0492 91.066 95.7515 84.303 96.9118C85.2647 95.9195 86.3945 95.1714 87.6005 94.6371C84.99 92.286 82.9595 87.7671 82.0588 82.1949L91.6919 77.1569L81.6771 72.9586C82.3641 62.9591 86.5777 55.2648 91.6919 55.2648L91.7072 55.2495Z" fill="#222222"/>
<path d="M0.000166152 45.5705C0.000166152 44.9598 0.0306954 44.3339 0.0917614 43.7232C1.03828 33.1741 9.75547 25.2202 20.3657 25.2202C26.3654 25.2202 31.9987 27.8766 35.8306 32.3344C51.662 14.4574 74.1648 4.27462 98.179 4.27462C99.5835 4.27462 101.034 4.32042 102.637 4.39675C113.003 4.94635 122.972 7.37371 132.345 11.6025C135.658 4.62574 142.788 0 150.711 0C161.321 0 170.023 7.95384 170.985 18.5183C171.031 19.1137 171.077 19.7396 171.077 20.3502C171.077 20.8998 171.061 21.4647 171.015 21.8769C171 22.2128 170.97 22.5333 170.924 22.8845C170.817 23.6783 170.71 24.289 170.588 24.8233C170.512 25.1745 170.42 25.495 170.344 25.8004C170.237 26.182 170.13 26.5332 170.008 26.8843C169.733 27.6934 169.412 28.4873 169.077 29.159C168.939 29.4491 168.787 29.7391 168.619 30.0445C167.947 31.3116 167.107 32.5176 166.161 33.6016L166.054 33.7237C165.947 33.8458 165.855 33.9527 165.748 34.0595C165.321 34.5328 164.848 35.0061 164.405 35.403L163.749 35.9831C163.749 35.9831 163.688 36.0289 163.657 36.0442C175.214 50.7 181.549 68.8824 181.549 87.6297C181.549 133.597 144.146 171 98.179 171C52.2116 171 14.8087 133.597 14.8087 87.6297C14.8087 80.1949 15.801 72.8517 17.7246 65.7375C7.74028 64.4399 0.000166152 55.9059 0.000166152 45.5705V45.5705ZM164.634 16.6557C162.985 10.4728 157.276 5.90813 150.696 5.90813C145.062 5.90813 139.994 9.22096 137.643 14.1826C140.33 15.6329 142.925 17.2206 145.368 18.9152C145.505 19.0221 145.643 19.1289 145.795 19.2205C148.848 16.5641 152.818 14.9459 157.184 14.9459C159.856 14.9459 162.375 15.5566 164.634 16.6405V16.6557ZM175.611 87.6297C175.611 69.203 169.031 51.3412 157.077 37.3571C152.665 32.197 147.612 27.6324 142.009 23.8005C139.261 21.8922 136.315 20.1365 133.261 18.5793L132.635 18.274C124.819 14.381 116.514 11.9079 107.888 10.8239C114.621 23.2203 130.803 57.1425 132.635 99.9345C142.269 100.454 151.291 104.041 151.291 110.484C151.291 116.926 142.07 120.605 132.33 121.063C132.147 125.735 131.903 130.361 131.613 134.864C134.406 134.544 136.864 134.177 138.803 133.857C140.406 133.582 141.948 134.666 142.223 136.284C142.498 137.902 141.414 139.429 139.795 139.704C137.322 140.116 134.452 140.528 131.368 140.864C130.544 147.566 128.468 154.146 125.338 160.146C154.68 149.123 175.626 120.773 175.626 87.6297H175.611ZM130.208 115.186C140.055 115.186 145.352 111.842 145.352 110.484C145.352 109.125 140.04 105.782 130.208 105.782H130.101C120.331 105.812 115.048 109.125 115.048 110.484C115.048 111.842 120.254 115.109 129.872 115.186H130.208ZM98.179 165.077C104.209 165.077 110.072 164.359 115.705 163.046C120.285 156.68 123.323 149.184 124.498 141.429C122.636 141.536 120.712 141.581 118.789 141.581C107.583 141.581 95.6906 139.688 87.6757 133.215C86.4085 132.193 86.2101 130.33 87.2329 129.048C88.2558 127.781 90.1183 127.567 91.4007 128.605C99.8125 135.383 114.163 136.147 125.643 135.399C125.949 130.681 126.208 125.842 126.407 120.941C117.354 120.147 109.14 116.575 109.14 110.484C109.14 104.392 117.506 100.728 126.697 100.011C124.651 53.2648 105.049 17.5412 100.759 10.2438C99.8736 10.2133 99.0034 10.198 98.179 10.198C74.6533 10.198 52.6848 20.7014 37.9069 39.0212C35.2963 42.2424 32.93 45.7079 30.869 49.3108C28.2279 53.9671 26.0753 58.8523 24.4571 63.8445C21.9839 71.5235 20.7321 79.5232 20.7321 87.6449C20.7321 130.345 55.4786 165.092 98.179 165.092V165.077ZM13.8774 40.1967C18.7474 40.1967 23.1136 42.2271 26.2738 45.4331C27.9989 42.5172 29.9072 39.6776 31.9682 36.9907C29.266 33.342 24.9762 31.1436 20.3657 31.1436C13.7858 31.1436 8.07615 35.7083 6.42737 41.8913C8.68681 40.8073 11.2058 40.1967 13.8774 40.1967Z" fill="#222222"/>
<path d="M96.2561 21.1135C95.1875 20.0448 95.1875 18.335 96.2561 17.2663C97.3248 16.1977 99.0346 16.1977 100.103 17.2663C101.172 18.335 101.172 20.0448 100.103 21.1135C99.0346 22.1821 97.3248 22.1821 96.2561 21.1135Z" fill="#222222"/>
<path d="M108.636 36.3644C109.705 37.433 109.705 39.1429 108.636 40.2115C107.567 41.2802 105.858 41.2802 104.789 40.2115C103.72 39.1429 103.72 37.433 104.789 36.3644C105.858 35.2957 107.567 35.2957 108.636 36.3644Z" fill="#222222"/>
<path d="M116.973 61.8596C118.042 62.9283 118.042 64.6381 116.973 65.7068C115.904 66.7754 114.194 66.7754 113.126 65.7068C112.057 64.6381 112.057 62.9283 113.126 61.8596C114.194 60.7909 115.904 60.7909 116.973 61.8596Z" fill="#222222"/>
<path d="M121.491 85.7058C122.56 86.7744 122.56 88.4843 121.491 89.553C120.423 90.6216 118.713 90.6216 117.644 89.553C116.576 88.4843 116.576 86.7744 117.644 85.7058C118.713 84.6371 120.423 84.6371 121.491 85.7058Z" fill="#222222"/>
<path d="M122.561 126.346C123.629 127.415 123.629 129.124 122.561 130.193C121.492 131.262 119.782 131.262 118.714 130.193C117.645 129.124 117.645 127.415 118.714 126.346C119.782 125.277 121.492 125.277 122.561 126.346Z" fill="#222222"/>
<path d="M116.989 152.039C118.058 153.107 118.058 154.817 116.989 155.886C115.92 156.954 114.211 156.954 113.142 155.886C112.073 154.817 112.073 153.107 113.142 152.039C114.211 150.97 115.92 150.97 116.989 152.039V152.039Z" fill="#222222"/>
</svg>
