<svg width="211" height="85" viewBox="0 0 211 85" fill="none" xmlns="http://www.w3.org/2000/svg">
<path d="M0.0698165 0.921051C0.113419 0.37049 0.595084 -0.0404811 1.14564 0.00312137C1.69621 0.0467239 2.10718 0.528388 2.06357 1.07895L0.0698165 0.921051ZM54.7996 37.071L54.6913 36.0768L54.723 36.0734L54.7549 36.072L54.7996 37.071ZM146.129 60.0241L147.123 59.912L147.127 59.9513L147.129 59.9909L146.129 60.0241ZM134.319 55.7889L135.158 56.3335L135.158 56.3335L134.319 55.7889ZM203.58 84.7464C203.167 85.114 202.535 85.0777 202.168 84.6655L196.179 77.9475C195.811 77.5352 195.847 76.9031 196.26 76.5356C196.672 76.1681 197.304 76.2043 197.672 76.6166L202.995 82.5881L208.967 77.2645C209.379 76.897 210.011 76.9332 210.379 77.3455C210.746 77.7577 210.71 78.3899 210.298 78.7574L203.58 84.7464ZM202 80.9555C201.999 80.4032 202.446 79.9547 202.998 79.9536C203.55 79.9526 203.999 80.3995 204 80.9517L202 80.9555ZM203.586 74.7957C203.661 75.3429 203.278 75.8473 202.731 75.9223C202.184 75.9974 201.679 75.6147 201.604 75.0675L203.586 74.7957ZM200.363 69.3318C200.203 68.8032 200.502 68.245 201.031 68.0851C201.559 67.9252 202.118 68.2241 202.277 68.7527L200.363 69.3318ZM199.963 62.9782C200.214 63.4703 200.018 64.0725 199.526 64.3231C199.034 64.5737 198.432 64.378 198.181 63.8858L199.963 62.9782ZM195.055 58.9433C194.717 58.5061 194.798 57.8781 195.235 57.5406C195.672 57.2031 196.3 57.2838 196.638 57.721L195.055 58.9433ZM192.401 53.1709C192.812 53.5393 192.847 54.1715 192.479 54.583C192.11 54.9944 191.478 55.0293 191.067 54.6609L192.401 53.1709ZM186.375 51.1384C185.907 50.8449 185.766 50.2277 186.059 49.7599C186.353 49.2921 186.97 49.1508 187.438 49.4444L186.375 51.1384ZM181.953 46.5708C182.46 46.7897 182.694 47.3782 182.475 47.8853C182.256 48.3923 181.667 48.626 181.16 48.4071L181.953 46.5708ZM175.59 46.452C175.057 46.3047 174.745 45.7538 174.893 45.2215C175.04 44.6892 175.591 44.3771 176.123 44.5244L175.59 46.452ZM170.084 43.2625C170.631 43.3415 171.01 43.8486 170.931 44.3952C170.852 44.9418 170.345 45.3209 169.798 45.2419L170.084 43.2625ZM163.896 44.7517C163.344 44.7392 162.906 44.2815 162.919 43.7293C162.931 43.1772 163.389 42.7397 163.941 42.7522L163.896 44.7517ZM157.78 42.9858C158.33 42.9311 158.82 43.3323 158.874 43.8818C158.929 44.4314 158.528 44.9213 157.978 44.9759L157.78 42.9858ZM152.146 45.9384C151.608 46.0645 151.07 45.7309 150.944 45.1932C150.818 44.6555 151.151 44.1174 151.689 43.9913L152.146 45.9384ZM145.783 45.8451C146.296 45.6388 146.878 45.887 147.084 46.3993C147.291 46.9117 147.042 47.4942 146.53 47.7004L145.783 45.8451ZM141.33 50.3701C140.866 50.6704 140.247 50.5381 139.947 50.0745C139.646 49.611 139.779 48.9918 140.242 48.6916L141.33 50.3701ZM135.423 52.7321C135.794 52.3232 136.427 52.2926 136.836 52.6639C137.245 53.0351 137.275 53.6676 136.904 54.0765L135.423 52.7321ZM133.93 59.08C133.802 59.6174 133.263 59.9497 132.726 59.8222C132.189 59.6948 131.856 59.1558 131.984 58.6184L133.93 59.08ZM133.989 65.7366C133.598 65.3463 133.598 64.7131 133.988 64.3224C134.379 63.9317 135.012 63.9313 135.403 64.3217L133.989 65.7366ZM140.724 66.3126C141.275 66.2657 141.759 66.6737 141.806 67.224C141.853 67.7743 141.445 68.2584 140.894 68.3053L140.724 66.3126ZM146.676 63.6565C146.508 64.1823 145.944 64.4716 145.419 64.3027C144.893 64.1337 144.603 63.5705 144.772 63.0447L146.676 63.6565ZM144.718 57.1024C144.628 56.5574 144.998 56.0432 145.543 55.9539C146.088 55.8646 146.602 56.234 146.691 56.779L144.718 57.1024ZM145.34 50.7288C145.494 51.2592 145.189 51.8139 144.658 51.9677C144.128 52.1215 143.573 51.8162 143.419 51.2857L145.34 50.7288ZM141.321 45.6732C141.086 45.1736 141.3 44.5778 141.799 44.3424C142.299 44.107 142.895 44.3212 143.13 44.8208L141.321 45.6732ZM139.916 39.4086C140.245 39.8523 140.151 40.4786 139.708 40.8074C139.264 41.1362 138.638 41.043 138.309 40.5993L139.916 39.4086ZM134.304 36.2946C133.884 35.9359 133.834 35.3046 134.193 34.8848C134.552 34.4649 135.183 34.4154 135.603 34.7742L134.304 36.2946ZM130.349 31.2274C130.838 31.4844 131.026 32.089 130.769 32.5779C130.512 33.0667 129.908 33.2547 129.419 32.9978L130.349 31.2274ZM123.928 30.7716C123.399 30.6118 123.1 30.0537 123.26 29.525C123.42 28.9963 123.978 28.6973 124.507 28.8571L123.928 30.7716ZM118.387 27.5142C118.933 27.5941 119.311 28.1018 119.232 28.6483C119.152 29.1948 118.644 29.5731 118.098 29.4932L118.387 27.5142ZM112.108 28.9741C111.557 28.9557 111.124 28.4933 111.142 27.9414C111.161 27.3894 111.623 26.9568 112.175 26.9752L112.108 28.9741ZM105.962 27.0405C106.514 27.0127 106.983 27.4373 107.011 27.9889C107.039 28.5405 106.614 29.0102 106.063 29.038L105.962 27.0405ZM100.021 29.542C99.4721 29.6043 98.9768 29.21 98.9145 28.6612C98.8522 28.1125 99.2465 27.6171 99.7953 27.5548L100.021 29.542ZM93.679 28.4018C94.2243 28.3139 94.7376 28.6846 94.8255 29.2299C94.9134 29.7751 94.5426 30.2884 93.9974 30.3763L93.679 28.4018ZM88.0003 31.4541C87.4583 31.5604 86.9328 31.2073 86.8264 30.6654C86.72 30.1234 87.0731 29.5979 87.6151 29.4915L88.0003 31.4541ZM81.5935 30.75C82.1329 30.6314 82.6663 30.9725 82.7849 31.5119C82.9035 32.0513 82.5624 32.5848 82.023 32.7034L81.5935 30.75ZM76.0524 34.0573C75.5143 34.1819 74.9771 33.8467 74.8526 33.3087C74.728 32.7706 75.0632 32.2334 75.6012 32.1089L76.0524 34.0573ZM69.6328 33.49C70.1712 33.367 70.7074 33.7038 70.8303 34.2423C70.9533 34.7807 70.6165 35.3168 70.078 35.4398L69.6328 33.49ZM64.0636 36.7492C63.5222 36.8586 62.9947 36.5084 62.8854 35.967C62.776 35.4257 63.1262 34.8982 63.6675 34.7888L64.0636 36.7492ZM57.698 35.8073C58.2459 35.7379 58.7463 36.1258 58.8157 36.6738C58.8851 37.2217 58.4972 37.7221 57.9493 37.7915L57.698 35.8073ZM51.8216 38.3406C51.2707 38.3788 50.793 37.9631 50.7548 37.4121C50.7166 36.8612 51.1323 36.3836 51.6832 36.3454L51.8216 38.3406ZM45.6605 36.5104C46.2127 36.5193 46.6532 36.9741 46.6443 37.5263C46.6355 38.0785 46.1806 38.519 45.6284 38.5101L45.6605 36.5104ZM39.4405 38.1211C38.8916 38.0599 38.4964 37.5652 38.5576 37.0163C38.6189 36.4675 39.1136 36.0722 39.6624 36.1335L39.4405 38.1211ZM33.7472 35.1602C34.2866 35.279 34.6275 35.8126 34.5088 36.3519C34.39 36.8913 33.8565 37.2322 33.3171 37.1134L33.7472 35.1602ZM27.3218 35.4274C26.7999 35.2467 26.5234 34.6771 26.7041 34.1552C26.8847 33.6333 27.4543 33.3567 27.9762 33.5374L27.3218 35.4274ZM22.4617 31.2322C22.9565 31.4775 23.1587 32.0776 22.9133 32.5723C22.6679 33.0671 22.0679 33.2693 21.5731 33.0239L22.4617 31.2322ZM16.1827 29.8779C15.7262 29.567 15.6082 28.945 15.919 28.4885C16.2299 28.032 16.8519 27.914 17.3084 28.2248L16.1827 29.8779ZM12.646 24.5247C13.0517 24.8994 13.0769 25.532 12.7022 25.9378C12.3275 26.3436 11.6949 26.3687 11.2891 25.9941L12.646 24.5247ZM7.03747 21.3987C6.6963 20.9644 6.77181 20.3357 7.20611 19.9946C7.64042 19.6534 8.26907 19.7289 8.61024 20.1632L7.03747 21.3987ZM5.36039 15.2043C5.62094 15.6913 5.43739 16.2973 4.95043 16.5578C4.46347 16.8184 3.85749 16.6348 3.59694 16.1479L5.36039 15.2043ZM1.17437 10.3339C1.0145 9.8053 1.31345 9.24716 1.8421 9.08729C2.37074 8.92743 2.92888 9.22638 3.08875 9.75503L1.17437 10.3339ZM2.03819 3.99203C2.07066 4.54336 1.65004 5.01662 1.09871 5.04908C0.547376 5.08155 0.0741161 4.66093 0.04165 4.1096L2.03819 3.99203ZM201.916 83.9427C201.974 82.9245 202.002 81.9288 202 80.9555L204 80.9517C204.002 81.9655 203.973 83.0006 203.912 84.0573L201.916 83.9427ZM201.604 75.0675C201.327 73.0426 200.908 71.1318 200.363 69.3318L202.277 68.7527C202.853 70.6564 203.294 72.67 203.586 74.7957L201.604 75.0675ZM198.181 63.8858C197.274 62.1049 196.225 60.4589 195.055 58.9433L196.638 57.721C197.883 59.3338 198.999 61.085 199.963 62.9782L198.181 63.8858ZM191.067 54.6609C189.605 53.352 188.033 52.1792 186.375 51.1384L187.438 49.4444C189.187 50.5423 190.851 51.7827 192.401 53.1709L191.067 54.6609ZM181.16 48.4071C179.357 47.6287 177.492 46.9783 175.59 46.452L176.123 44.5244C178.109 45.074 180.061 45.7543 181.953 46.5708L181.16 48.4071ZM169.798 45.2419C167.834 44.9581 165.858 44.7962 163.896 44.7517L163.941 42.7522C165.982 42.7985 168.039 42.9669 170.084 43.2625L169.798 45.2419ZM157.978 44.9759C155.978 45.175 154.025 45.4978 152.146 45.9384L151.689 43.9913C153.656 43.5299 155.697 43.1931 157.78 42.9858L157.978 44.9759ZM146.53 47.7004C144.649 48.4575 142.903 49.3507 141.33 50.3701L140.242 48.6916C141.934 47.5956 143.796 46.6451 145.783 45.8451L146.53 47.7004ZM136.904 54.0765C136.253 54.7937 135.669 55.5466 135.158 56.3335L133.48 55.2443C134.053 54.3623 134.704 53.5245 135.423 52.7321L136.904 54.0765ZM135.158 56.3335C134.519 57.3178 134.129 58.2376 133.93 59.08L131.984 58.6184C132.243 57.5249 132.733 56.395 133.48 55.2443L135.158 56.3335ZM135.403 64.3217C136.802 65.7193 138.869 66.4708 140.724 66.3126L140.894 68.3053C138.436 68.515 135.794 67.5391 133.989 65.7366L135.403 64.3217ZM144.772 63.0447C145.03 62.2442 145.17 61.2574 145.13 60.0573L147.129 59.9909C147.175 61.3805 147.015 62.6017 146.676 63.6565L144.772 63.0447ZM145.136 60.1363C145.018 59.0922 144.878 58.0812 144.718 57.1024L146.691 56.779C146.857 57.792 147.001 58.836 147.123 59.912L145.136 60.1363ZM143.419 51.2857C142.827 49.2428 142.124 47.3765 141.321 45.6732L143.13 44.8208C143.981 46.6262 144.721 48.5919 145.34 50.7288L143.419 51.2857ZM138.309 40.5993C137.096 38.9626 135.755 37.5351 134.304 36.2946L135.603 34.7742C137.169 36.1128 138.613 37.651 139.916 39.4086L138.309 40.5993ZM129.419 32.9978C127.689 32.0886 125.853 31.3534 123.928 30.7716L124.507 28.8571C126.541 29.472 128.496 30.2535 130.349 31.2274L129.419 32.9978ZM118.098 29.4932C116.156 29.2095 114.154 29.0423 112.108 28.9741L112.175 26.9752C114.286 27.0456 116.362 27.2184 118.387 27.5142L118.098 29.4932ZM106.063 29.038C104.068 29.1386 102.049 29.3117 100.021 29.542L99.7953 27.5548C101.859 27.3204 103.92 27.1435 105.962 27.0405L106.063 29.038ZM93.9974 30.3763C91.9891 30.7001 89.9858 31.0644 88.0003 31.4541L87.6151 29.4915C89.6187 29.0983 91.6446 28.7298 93.679 28.4018L93.9974 30.3763ZM82.023 32.7034C79.9922 33.1498 77.9974 33.607 76.0524 34.0573L75.6012 32.1089C77.5488 31.6579 79.552 31.1989 81.5935 30.75L82.023 32.7034ZM70.078 35.4398C67.9783 35.9193 65.9644 36.3652 64.0636 36.7492L63.6675 34.7888C65.5444 34.4097 67.5396 33.968 69.6328 33.49L70.078 35.4398ZM57.9493 37.7915C56.8532 37.9303 55.8149 38.0266 54.8442 38.07L54.7549 36.072C55.6593 36.0315 56.642 35.9411 57.698 35.8073L57.9493 37.7915ZM54.9078 38.0651C53.865 38.1786 52.8363 38.2702 51.8216 38.3406L51.6832 36.3454C52.6715 36.2768 53.6742 36.1876 54.6913 36.0768L54.9078 38.0651ZM45.6284 38.5101C43.4944 38.4759 41.4316 38.3435 39.4405 38.1211L39.6624 36.1335C41.5891 36.3486 43.5886 36.4771 45.6605 36.5104L45.6284 38.5101ZM33.3171 37.1134C31.2237 36.6524 29.2249 36.0863 27.3218 35.4274L27.9762 33.5374C29.8048 34.1706 31.7287 34.7157 33.7472 35.1602L33.3171 37.1134ZM21.5731 33.0239C19.6513 32.0708 17.8539 31.016 16.1827 29.8779L17.3084 28.2248C18.9034 29.311 20.6214 30.3195 22.4617 31.2322L21.5731 33.0239ZM11.2891 25.9941C9.70877 24.5347 8.29082 22.9942 7.03747 21.3987L8.61024 20.1632C9.79729 21.6743 11.1429 23.1368 12.646 24.5247L11.2891 25.9941ZM3.59694 16.1479C2.57251 14.2332 1.76356 12.2823 1.17437 10.3339L3.08875 9.75503C3.63832 11.5724 4.39575 13.4014 5.36039 15.2043L3.59694 16.1479ZM0.04165 4.1096C-0.0218809 3.03073 -0.0128925 1.9654 0.0698165 0.921051L2.06357 1.07895C1.98841 2.02803 1.97985 3.00124 2.03819 3.99203L0.04165 4.1096Z" fill="black"/>
</svg>