<svg width="345" height="322" viewBox="0 0 345 322" fill="none" xmlns="http://www.w3.org/2000/svg">
<path d="M127.298 206.801C125.639 212.937 121.984 217.625 115.603 218.613C99.8974 221.06 85.86 217.224 74.5237 205.657C71.2808 202.375 68.2459 198.428 68.831 193.503C69.2454 190.167 70.5923 186.93 71.8007 183.371C71.9814 182.865 72.134 182.351 72.3044 181.827C87.86 197.508 106.578 202.898 127.297 204.343C127.303 205.049 127.515 205.99 127.298 206.801Z" fill="#ACACAC"/>
<path d="M138.643 178.616C142.097 188.941 135.72 199.314 125.124 198.858C108.108 198.137 92.4422 192.994 79.4775 181.351C68.0556 171.11 71.2116 158.884 81.2125 150.036C82.0398 149.298 82.9332 148.593 83.8696 147.84C96.4517 168.24 114.944 177.662 138.643 178.616Z" fill="#ACACAC"/>
<path d="M115.387 131.866C115.235 132.38 115.1 132.883 114.975 133.404C115.788 133.337 116.678 133.036 117.426 133.266C121.668 134.553 126.036 135.649 130.08 137.452C133.737 139.076 136.215 141.689 137.228 146.188C138.791 153.277 143.116 158.843 149.906 161.922C148.982 168.225 143.154 173.529 136.602 173.812C128.138 174.182 120.243 171.647 112.669 168.194C103.387 163.953 95.8398 157.433 90.7464 148.693C88.4148 144.696 87.2371 139.748 86.5814 135.09C85.6159 128.176 89.567 123.388 95.2438 119.993C96.0848 119.483 97.5017 119.398 98.448 119.727C111.009 124.037 123.541 128.459 136.352 132.956C136.271 133.759 136.152 134.986 135.974 136.603C129.532 132.448 122.932 129.78 115.387 131.866Z" fill="#ACACAC"/>
<path d="M163.758 108.55C152.196 113.097 141.101 117.02 137.134 129.643C117.512 121.252 97.0386 115.197 79.1838 103.397C71.6944 98.4524 64.9457 92.7016 59.6911 85.4024C58.191 83.3366 57.0421 80.8551 56.3707 78.3817C52.9728 65.9436 63.2011 55.6877 75.6325 59.3634C80.3578 60.7495 84.8748 63.249 89.0622 65.915C99.4774 72.5283 109.817 79.2562 119.843 86.4249C132.487 95.464 146.451 101.754 160.806 107.369C161.473 107.623 162.132 107.905 163.758 108.55Z" fill="#ACACAC"/>
<path d="M331.054 320.789C331.944 322.616 329.935 329.498 327.36 330.772C323.396 332.753 319.24 334.727 314.935 335.463C308.887 336.495 305.98 334.367 303.306 328.794C286.129 292.982 259.783 265.655 225.687 245.711C213.013 238.298 199.079 235.419 184.325 234.478C175.41 233.903 166.843 234.996 158.141 235.527C145.016 236.343 133.885 232.176 124.47 223.117C123.973 222.624 123.543 222.044 122.992 221.417C128.11 216.807 132.222 211.808 131.379 204.492C131.314 204.01 131.238 203.51 131.134 203.002C136.062 200.89 140.176 197.735 142.517 192.576C144.808 187.493 144.651 182.43 142.746 177.122C148.419 174.13 152.472 169.969 152 163.787C156.675 163.57 161.289 163.862 165.71 163.083C172.854 161.82 175.911 155.893 178.425 149.926C179.588 147.15 181.215 145.832 184.138 145.61C187.088 145.397 189.999 144.827 192.928 144.413C192.952 144.045 192.966 143.659 192.989 143.29C189.401 142.808 185.812 142.326 181.799 141.806C183.484 136.696 185.286 131.257 187.07 125.829C186.767 125.673 186.464 125.517 186.151 125.343C184.73 127.511 183.112 129.581 181.882 131.874C178.542 138.13 175.487 144.552 172.091 150.792C166.803 160.513 152.679 161.031 146.083 152.023C138.767 142.013 139.033 124.74 155.228 118.062C159.391 116.344 163.449 114.403 167.624 112.749C172.112 110.938 176.887 110.404 181.478 111.844C200.702 117.864 213.947 130.363 220.772 149.311C223.46 156.791 222.085 164.608 221.179 172.295C220.758 175.825 220.274 179.367 219.537 182.843C217.685 191.715 220.759 198.76 227.651 204.144C234.581 209.554 241.799 214.561 248.744 219.915C268.432 235.054 286.975 251.445 303.261 270.275C312.488 280.932 319.307 292.907 324.157 306.139C325.784 310.638 328.094 314.884 330.242 319.177C330.531 319.72 330.793 320.254 331.054 320.789Z" fill="#ACACAC"/>
<path d="M116.714 223.977C98.528 226.674 82.5605 222.321 69.9191 208.575C62.6274 200.655 59.4882 191 69.9306 180.337L71.8007 183.371C70.5923 186.93 69.2454 190.167 68.831 193.503C68.2459 198.428 71.2808 202.375 74.5237 205.657C85.86 217.224 99.8974 221.06 115.603 218.613C121.984 217.624 125.639 212.937 127.298 206.801C127.515 205.99 127.303 205.048 127.297 204.342L131.379 204.492C132.222 211.808 128.11 216.807 122.992 221.417C123.543 222.045 123.973 222.624 124.47 223.117C133.885 232.176 145.016 236.343 158.141 235.527C166.843 234.996 175.41 233.904 184.325 234.478C199.079 235.419 213.013 238.298 225.687 245.711C259.783 265.655 286.129 292.982 303.306 328.794C305.98 334.367 308.887 336.496 314.935 335.463C319.239 334.727 323.396 332.753 327.36 330.772C329.935 329.498 331.944 322.616 331.054 320.789C330.793 320.254 330.531 319.72 330.242 319.177L332.806 317.886C333.144 318.471 333.771 318.984 334.084 319.607C334.635 320.684 335.364 321.824 335.45 322.956C335.778 327.496 334.437 331.604 330.818 334.427C324.649 339.265 317.64 341.704 309.71 340.419C304.753 339.615 301.183 336.995 298.955 332.275C282.307 297.174 256.535 270.391 223.46 250.496C211.228 243.111 197.714 239.895 183.46 238.714C177.586 238.204 172.251 239.038 166.616 239.927C148.582 242.725 132.496 238.984 119.862 224.761C119.262 224.09 117.732 223.815 116.714 223.977Z" fill="black"/>
<path d="M138.643 178.616C114.944 177.662 96.4519 168.24 83.8698 147.84C82.9333 148.593 82.0399 149.298 81.2126 150.036C71.2118 158.884 68.0558 171.11 79.4776 181.351C92.4423 192.994 108.109 198.137 125.124 198.858C135.72 199.314 142.097 188.941 138.643 178.616ZM137.134 129.643C141.101 117.02 152.196 113.097 163.758 108.55C162.132 107.904 161.473 107.623 160.806 107.369C146.451 101.754 132.487 95.464 119.843 86.4248C109.817 79.2561 99.4774 72.5282 89.0623 65.915C84.8748 63.2489 80.3579 60.7495 75.6326 59.3634C63.2011 55.6876 52.9729 65.9436 56.3708 78.3816C57.0421 80.8551 58.1911 83.3365 59.6912 85.4024C64.9458 92.7016 71.6945 98.4523 79.1839 103.397C97.0386 115.197 117.512 121.252 137.134 129.643ZM166.499 104.083C169.862 105.404 173.199 105.818 176.788 105.85C184.342 105.911 190.99 109.071 197.264 113.016C209.859 120.948 219.175 131.719 224.454 145.695C225.644 148.862 226.371 152.415 226.336 155.793C226.25 164 226.46 172.391 224.931 180.391C223.011 190.579 226.645 197.324 234.663 202.815C254.104 216.135 272.429 230.878 289.334 247.34C299.985 257.719 310.235 268.471 318.241 281.109C325.306 292.281 329.712 304.54 332.601 317.366C332.63 317.539 332.704 317.708 332.806 317.886L330.242 319.177C328.094 314.884 325.784 310.638 324.157 306.139C319.307 292.908 312.488 280.932 303.261 270.275C286.975 251.445 268.432 235.054 248.744 219.915C241.799 214.561 234.581 209.554 227.651 204.145C220.759 198.76 217.685 191.715 219.537 182.843C220.274 179.368 220.758 175.825 221.179 172.295C222.085 164.608 223.46 156.791 220.772 149.311C213.947 130.363 200.702 117.864 181.478 111.844C176.887 110.404 172.112 110.938 167.624 112.749C163.449 114.403 159.391 116.344 155.228 118.062C139.033 124.74 138.767 142.013 146.083 152.023C152.679 161.031 166.803 160.513 172.091 150.792C175.487 144.552 178.542 138.13 181.882 131.875C183.112 129.581 184.73 127.511 186.151 125.343C186.464 125.517 186.767 125.673 187.07 125.829C185.286 131.257 183.484 136.696 181.8 141.806C185.812 142.327 189.401 142.808 192.989 143.29C192.966 143.659 192.952 144.045 192.928 144.413C189.999 144.828 187.088 145.397 184.138 145.611C181.216 145.832 179.588 147.15 178.425 149.926C175.911 155.893 172.854 161.82 165.71 163.083C161.289 163.862 156.675 163.571 152 163.787C152.472 169.97 148.419 174.13 142.746 177.122C144.651 182.43 144.809 187.493 142.517 192.576C140.176 197.735 136.062 200.89 131.134 203.002C131.238 203.51 131.314 204.01 131.38 204.492L127.297 204.342C106.578 202.898 87.8601 197.508 72.3045 181.827C72.1341 182.351 71.9815 182.865 71.8008 183.371L69.9307 180.337C70.1987 180.064 70.4769 179.809 70.7449 179.536C61.8966 166.012 70.7316 148.592 83.2181 145.237C79.955 133.974 80.7124 123.819 92.3572 116.836C88.7594 114.822 85.5129 113.008 82.259 111.222C72.2249 105.76 63.4816 98.7251 56.2366 89.9033C51.931 84.6572 49.933 78.5754 50.1266 71.8666C50.4507 61.3703 61.9536 52.1754 73.0253 53.3732C78.9156 53.9921 84.1106 56.4784 88.9607 59.6368C100.961 67.4393 113.004 75.1933 124.752 83.378C137.659 92.3829 151.955 98.3871 166.499 104.083ZM115.387 131.866C122.932 129.78 129.532 132.448 135.974 136.603C136.152 134.986 136.271 133.759 136.352 132.956C123.541 128.459 111.009 124.037 98.4481 119.727C97.5018 119.398 96.0849 119.483 95.2439 119.993C89.5671 123.388 85.616 128.176 86.5815 135.09C87.2372 139.748 88.4149 144.696 90.7465 148.693C95.8399 157.433 103.387 163.953 112.669 168.194C120.243 171.647 128.138 174.182 136.602 173.812C143.154 173.529 148.982 168.225 149.907 161.922C143.116 158.843 138.792 153.277 137.228 146.188C136.215 141.689 133.737 139.076 130.08 137.452C126.036 135.649 121.668 134.553 117.426 133.266C116.678 133.036 115.788 133.337 114.975 133.404C115.1 132.883 115.235 132.38 115.387 131.866Z" fill="black"/>
</svg>
