<svg width="149" height="146" viewBox="0 0 149 146" fill="none" xmlns="http://www.w3.org/2000/svg">
<path d="M86.7306 63.483C89.3764 63.4675 91.6296 62.4934 92.5701 60.0254C95.0748 53.9446 94.8135 47.8801 91.1966 42.1955C90.1787 40.5198 88.8621 38.9058 86.8096 38.6776C85.4206 38.5056 83.9854 38.7542 82.4219 38.7634C82.1814 38.7648 82.003 38.8259 81.7625 38.8273C86.5956 46.727 87.045 54.8325 85.6402 63.2492C86.001 63.247 86.3698 63.4851 86.7306 63.483Z" fill="#ACACAC"/>
<path d="M74.2159 65.0548C78.0861 67.4946 82.849 66.0252 83.7298 61.7557C85.004 54.8411 84.4781 48.0572 80.9576 41.6513C77.8839 36.0235 72.6502 35.9941 68.1215 39.0837C67.7687 39.3261 67.3577 39.6288 66.9468 39.9315C73.979 47.0376 76.062 55.4341 74.2159 65.0548Z" fill="#ACACAC"/>
<path d="M57.4479 50.7947C57.6884 50.7933 57.929 50.7919 58.1074 50.7308C57.9991 51.0918 57.8286 51.3931 57.7784 51.6937C57.9003 53.555 57.9019 55.417 58.3225 57.2165C58.6188 58.8965 59.4424 60.1531 61.1541 60.9839C63.9061 62.3493 65.7277 64.6811 66.3705 67.7406C68.9664 68.0257 71.735 66.2675 72.4312 63.6807C73.4021 60.3114 73.1081 56.8894 72.4534 53.4696C71.6544 49.3298 69.6647 45.5574 66.6204 42.6321C65.1915 41.259 63.3555 40.3088 61.4654 39.539C58.7214 38.4139 56.4721 39.5083 54.5493 41.3816C54.2586 41.6836 54.0961 42.2251 54.1702 42.6452C54.7142 48.1679 55.3164 53.6303 55.9848 59.2724C56.2874 59.3307 56.8307 59.3876 57.4981 59.5638C56.3742 56.5071 55.9178 53.6267 57.4479 50.7947Z" fill="#ACACAC"/>
<path d="M54.5463 59.2715C52.9946 50.5717 52.4592 41.6857 49.4141 33.2949C48.154 29.7586 46.4208 26.4654 43.9779 23.5367C43.2284 22.7002 42.3626 21.9846 41.4427 21.4494C36.7227 18.7743 31.6509 21.8071 31.9504 27.2108C32.0182 29.2525 32.6291 31.3511 33.3564 33.3289C35.0211 38.1841 36.8061 43.0387 38.7695 47.8321C41.2538 53.8237 42.4853 60.123 43.4181 66.484C43.4882 66.7839 43.5583 67.0838 43.5823 67.8044C46.4495 63.5833 49.0841 59.6038 54.5463 59.2715Z" fill="#ACACAC"/>
<path d="M93.622 64.0497C93.4937 63.8101 93.2452 63.5713 93.0548 63.2721C90.7008 64.8479 88.2728 66.0036 85.4083 64.8792C85.2259 64.8202 84.9813 64.7015 84.7989 64.6425C83.4733 66.3925 81.8331 67.7237 79.5014 68.158C77.2279 68.5319 75.1632 67.9435 73.1949 66.6335C71.4542 68.5661 69.3289 69.7801 66.8953 68.9536C66.4157 70.8186 66.0564 72.6829 65.2701 74.3696C64.0966 77.0797 61.412 77.7564 58.7777 78.1324C57.5206 78.3201 56.8149 78.8048 56.4938 80.0082C56.1106 81.1518 55.6071 82.2961 55.1617 83.38C54.9793 83.3211 54.859 83.3218 54.6766 83.2628C54.8073 81.7602 54.938 80.2577 55.1229 78.5746C52.8415 78.7082 50.5019 78.9023 48.1583 78.9763C48.1543 78.8561 48.0882 78.6763 48.0842 78.5562C49.0967 78.2498 50.0431 77.7637 51.1177 77.517C53.9225 76.8396 56.8516 76.2816 59.7146 75.5438C64.1293 74.4364 65.6885 68.8406 62.6823 65.2541C59.3033 61.3094 52.2671 59.5489 48.0696 65.4007C46.9766 66.909 45.8215 68.3575 44.7867 69.8053C43.6356 71.374 42.9775 73.3002 43.1033 75.2818C43.6804 83.6282 47.5699 90.2731 54.5853 95.0373C57.3534 96.8831 60.6712 97.1638 63.8145 97.6257C65.2659 97.8574 66.7754 98.0287 68.281 98.0799C72.0759 98.2376 74.6074 100.205 76.1622 103.56C77.717 106.914 79.0934 110.33 80.5279 113.686C84.8116 123.152 89.6887 132.374 95.7449 140.868C99.2138 145.713 103.377 149.713 108.299 153.048C109.961 154.18 111.51 155.552 112.998 156.865C113.184 157.044 113.37 157.223 113.615 157.342C114.294 157.879 117.239 157.801 117.991 156.895C119.209 155.507 120.364 154.058 121.03 152.372C122.037 150.083 121.45 148.705 119.407 146.975C106.544 136.359 97.9769 122.894 93.0634 107.124C91.2466 101.308 91.3504 95.3602 92.4125 89.2867C93.0149 85.6789 94.2888 82.3674 95.3181 78.9373C97.0095 73.701 96.3652 68.779 93.622 64.0497Z" fill="#ACACAC"/>
<path d="M91.2066 42.2056C94.8277 48.0107 95.0268 54.0161 92.5799 60.037C91.5771 62.4455 89.3238 63.4198 86.7398 63.495C86.379 63.4972 86.0102 63.2591 85.7075 63.2008L85.4025 64.8844C88.2668 66.0088 90.6946 64.8533 93.0483 63.2778C93.2387 63.577 93.425 63.7561 93.6154 64.0553C96.3586 68.7843 97.0031 73.7059 95.4905 78.8804C94.4614 82.3102 93.1878 85.6213 92.5856 89.2287C91.582 95.2412 91.4164 101.129 93.2372 107.064C98.151 122.833 106.656 136.237 119.581 146.913C121.561 148.583 122.148 149.961 121.203 152.309C120.475 153.935 119.32 155.384 118.165 156.832C117.413 157.738 114.469 157.815 113.789 157.278C113.603 157.099 113.416 156.92 113.172 156.801L112.42 157.707C112.606 157.886 112.797 158.185 113.045 158.424C113.418 158.782 113.791 159.14 114.338 159.317C116.162 159.907 117.904 159.837 119.428 158.627C121.948 156.63 123.61 154.157 123.86 150.792C124.032 148.749 123.313 147.011 121.582 145.58C108.967 135.203 100.533 122.098 95.6308 106.69C93.8179 100.994 93.747 95.2284 94.5761 89.3972C94.9775 86.9923 95.7518 84.9455 96.6423 82.7779C99.4802 75.8537 99.4938 69.0062 94.9448 62.4257C94.7544 62.1265 94.7927 61.4656 94.901 61.1045C97.6768 54.1206 97.4498 47.2745 93.0832 40.7531C90.6124 36.9835 86.9285 34.7226 81.6779 37.8168L82.734 38.8317C84.2936 38.7024 85.7329 38.5738 87.1221 38.7459C88.872 38.9158 90.1887 40.5298 91.2066 42.2056Z" fill="black"/>
<path d="M68.0705 39.0243C72.6003 35.9337 77.8349 35.9626 80.9088 41.5912C84.4295 47.998 85.017 54.8427 83.6798 61.6989C82.8606 66.029 78.0967 67.499 74.1639 64.9993C76.0732 55.4365 73.9906 47.0388 66.9536 39.8118C67.3065 39.5695 67.7176 39.2667 68.0705 39.0243ZM49.4131 33.3081C52.5203 41.7598 53.0511 50.5272 54.6063 59.3486C49.0809 59.6217 46.5076 63.6618 43.5774 67.8242C43.4332 67.1042 43.4834 66.8035 43.4133 66.5036C42.4809 60.1415 41.3118 53.9009 38.7654 47.8488C36.802 43.0546 35.017 38.1994 33.3524 33.3434C32.6873 31.4251 32.0764 29.3262 31.9467 27.2244C31.6475 21.8197 36.7827 18.8457 41.4412 21.4612C42.3613 21.9964 43.2272 22.7121 43.9768 23.5486C46.4198 26.4777 48.1531 29.7713 49.4131 33.3081ZM65.9133 39.2774C61.6817 36.8395 57.4437 36.0237 53.5432 39.9516C53.0685 38.3325 52.656 36.773 52.2474 35.3337C50.9516 30.7159 48.9459 26.4626 46.052 22.6352C44.2924 20.3629 42.0795 18.9343 39.3511 18.2898C35.1091 17.3538 30.2965 20.9867 29.7258 25.5556C29.4445 27.9602 29.943 30.3 30.7403 32.578C32.7315 38.213 34.7228 43.8479 37.0127 49.421C39.4428 55.594 40.5537 61.895 41.428 68.3176C41.6582 69.818 41.5235 71.2005 41.2103 72.6441C40.5298 75.7118 41.1685 78.6515 42.1681 81.5891C44.1712 87.5844 47.6402 92.4297 52.8117 96.0033C53.9803 96.7773 55.3274 97.4902 56.7206 97.7822C60.1166 98.6031 63.4584 99.6044 66.8345 99.8247C71.1147 100.1 73.5339 102.308 74.9804 106.024C78.5343 115.254 82.7981 124.119 87.892 132.619C91.0782 138.007 94.501 143.273 98.8001 147.753C102.602 151.755 107.214 154.791 112.109 157.285C112.172 157.345 112.234 157.405 112.296 157.464L113.048 156.559C111.561 155.246 110.011 153.873 108.35 152.742C103.427 149.407 99.2639 145.407 95.7948 140.562C89.7386 132.068 84.8033 122.906 80.5778 113.379C79.023 110.025 77.7669 106.608 76.2121 103.253C74.6573 99.8984 72.1258 97.931 68.3306 97.7733C66.825 97.7222 65.3736 97.4905 63.864 97.3193C60.6624 96.9178 57.3445 96.6372 54.6345 94.7309C47.6189 89.9668 43.7915 83.3816 43.1523 74.9753C43.0266 72.9937 43.6266 71.1279 44.8359 69.4988C45.929 67.9905 47.0842 66.5419 48.1191 65.094C52.379 59.3017 59.3533 61.0024 62.7324 64.9471C65.7386 68.5336 64.2414 74.1893 59.7643 75.2371C56.9594 75.9145 54.0301 76.4726 51.167 77.2105C50.0924 77.4571 49.0838 77.8836 48.1334 78.2497C48.1374 78.3698 48.2035 78.5497 48.2075 78.6698C50.6093 78.5354 52.949 78.3413 55.1724 78.268C54.9875 79.9511 54.8567 81.4537 54.726 82.9563C54.9084 83.0152 55.0287 83.0145 55.2111 83.0735C55.6565 81.9896 56.16 80.8452 56.5433 79.7016C56.9265 78.5579 57.5702 78.0134 58.8273 77.8257C61.4618 77.4497 64.2086 76.8326 65.32 74.0627C66.1064 72.376 66.4037 70.4519 66.9455 68.6465C69.3791 69.4731 71.4464 68.3194 73.2453 66.3264C75.2137 67.6363 77.2785 68.2247 79.5521 67.8508C81.8839 67.4164 83.5242 66.0851 84.8499 64.3351C85.0323 64.3941 85.2769 64.5128 85.4593 64.5718L85.7645 62.888C87.1081 54.4098 86.7215 46.3624 81.888 38.4616C82.1286 38.4602 82.3692 38.4587 82.5476 38.3976L81.4914 37.3827C81.3751 37.5035 81.1966 37.5646 81.1384 37.625C76.3502 32.9078 68.4667 34.6366 65.9133 39.2774ZM54.6154 41.447C56.4764 39.5137 58.8465 38.4183 61.5326 39.6038C63.3608 40.3138 65.2591 41.3237 66.6882 42.6969C69.7327 45.6223 71.6603 49.3354 72.5212 53.5353C73.1758 56.9555 73.4696 60.3779 72.4983 63.7477C71.8019 66.335 69.0948 68.1532 66.4365 67.8086C65.7938 64.7487 63.9721 62.4167 61.2198 61.0514C59.5079 60.2206 58.6222 58.9042 58.388 57.2837C58.0257 55.4236 57.9661 53.6218 57.8443 51.7603C57.8324 51.3999 58.0029 51.0985 58.1734 50.7971C57.9328 50.7986 57.6922 50.8 57.5137 50.8611C55.9833 53.6936 56.4395 56.5744 57.5013 59.5717C56.8377 59.5156 56.3525 59.3983 55.9877 59.2803C55.3818 53.6972 54.7178 48.1745 54.174 42.6511C54.1621 42.2907 54.3246 41.7491 54.6154 41.447Z" fill="black"/>
</svg>
