<svg width="218" height="59" viewBox="0 0 218 59" fill="none" xmlns="http://www.w3.org/2000/svg">
<path d="M65.0356 21.7981H69.8146L75.4411 34.1718L81.0676 21.7981H85.851V42.8212H81.5525V29.4244L76.9832 40.0248H73.7768L69.2074 29.4244V42.8212H65.0312V21.7981H65.0356Z" fill="#222222"/>
<path d="M94.0556 35.8838V38.7973C94.0556 39.2785 94.239 39.4563 94.7196 39.4563H98.5637C99.0486 39.4563 99.2277 39.2742 99.2277 38.7973V37.5356H103.404V38.9187C103.404 41.5937 102.163 42.825 99.468 42.825H93.8109C91.1156 42.825 89.875 41.5937 89.875 38.9187V30.5077C89.875 27.8326 91.1156 26.6013 93.8109 26.6013H99.468C102.163 26.6013 103.404 27.8326 103.404 30.5077V35.8838H94.0512H94.0556ZM94.0556 30.6291V33.0917H99.2277V30.6291C99.2277 30.1478 99.0443 29.9701 98.5637 29.9701H94.7196C94.2347 29.9701 94.0556 30.1521 94.0556 30.6291Z" fill="#222222"/>
<path d="M107.764 38.9188V29.9702H105.344V26.6058H107.825V22.6995H111.879V26.6058H115.448V29.9702H111.936V38.741C111.936 39.2223 112.119 39.4001 112.6 39.4001H115.443V42.8251H111.691C108.996 42.8251 107.755 41.5939 107.755 38.9188H107.764Z" fill="#222222"/>
<path d="M117.453 38.2857C117.453 34.8909 119.056 33.6596 121.69 33.2998C123.023 33.1177 124.927 32.9096 126.954 32.8185V30.6551C126.954 30.1738 126.771 29.9917 126.29 29.9917H122.778C122.293 29.9917 122.114 30.1738 122.114 30.6551V31.6176H117.999V30.5077C117.999 27.8326 119.24 26.6013 121.935 26.6013H127.199C129.894 26.6013 131.135 27.8326 131.135 30.5077V42.8207H126.959V40.2974C125.871 41.7975 124.81 42.9421 121.843 42.9421C118.694 42.9421 117.457 41.6501 117.457 38.2857H117.453ZM126.954 38.1339V35.4589L122.625 36.2696C121.839 36.4214 121.564 36.6295 121.564 37.8608C121.564 39.1528 121.747 39.3912 122.652 39.3912C124.648 39.3912 125.709 38.7886 126.95 38.1296L126.954 38.1339Z" fill="#222222"/>
<path d="M134.852 20.896H139.028V42.8209H134.852V20.896Z" fill="#222222"/>
<path d="M143.325 21.7974H154.399C157.273 21.7974 158.636 23.1501 158.636 26.0029V28.8253C158.636 30.2387 158.12 31.3183 156.727 32.0683C158.238 32.7273 158.876 33.9023 158.876 35.3113V38.615C158.876 41.4678 157.513 42.8205 154.639 42.8205H143.32V21.7974H143.325ZM153.673 30.2084C154.128 30.2084 154.281 30.0566 154.281 29.6057V26.302C154.281 25.8511 154.128 25.6994 153.673 25.6994H147.684V30.204H153.673V30.2084ZM153.918 38.9185C154.372 38.9185 154.521 38.7668 154.521 38.3159V34.5309C154.521 34.08 154.368 33.9283 153.918 33.9283H147.684V38.9142H153.918V38.9185Z" fill="#222222"/>
<path d="M166.204 35.8838V38.7973C166.204 39.2785 166.387 39.4563 166.868 39.4563H170.712C171.197 39.4563 171.376 39.2742 171.376 38.7973V37.5356H175.552V38.9187C175.552 41.5937 174.312 42.825 171.616 42.825H165.959C163.264 42.825 162.023 41.5937 162.023 38.9187V30.5077C162.023 27.8326 163.264 26.6013 165.959 26.6013H171.616C174.312 26.6013 175.552 27.8326 175.552 30.5077V35.8838H166.2H166.204ZM166.204 30.6291V33.0917H171.381V30.6291C171.381 30.1478 171.197 29.9701 170.717 29.9701H166.872C166.387 29.9701 166.208 30.1521 166.208 30.6291H166.204Z" fill="#222222"/>
<path d="M178.336 38.2857C178.336 34.8909 179.939 33.6596 182.573 33.2998C183.906 33.1177 185.81 32.9096 187.837 32.8185V30.6551C187.837 30.1738 187.654 29.9917 187.173 29.9917H183.661C183.176 29.9917 182.997 30.1738 182.997 30.6551V31.6176H178.882V30.5077C178.882 27.8326 180.123 26.6013 182.818 26.6013H188.082C190.777 26.6013 192.018 27.8326 192.018 30.5077V42.8207H187.842V40.2974C186.754 41.7975 185.692 42.9421 182.726 42.9421C179.577 42.9421 178.34 41.6501 178.34 38.2857H178.336ZM187.837 38.1339V35.4589L183.508 36.2696C182.722 36.4214 182.451 36.6295 182.451 37.8608C182.451 39.1528 182.634 39.3912 183.539 39.3912C185.535 39.3912 186.597 38.7886 187.837 38.1296V38.1339Z" fill="#222222"/>
<path d="M195.797 26.6062H199.973V29.1295C201.061 27.6294 202.122 26.6062 204.634 26.6062H205.936V30.5125H203.878C202.275 30.5125 201.214 30.8117 199.973 31.475V42.8299H195.797V26.6105V26.6062Z" fill="#222222"/>
<path d="M45.1975 31.4598C45.6729 31.0561 46.226 30.7884 46.811 30.6251C46.1071 29.8948 45.5631 28.6247 45.3163 27.0825L48.2006 25.5856L45.202 24.3381C45.4077 21.367 46.6693 19.0808 48.2006 19.0808C49.8736 19.0808 51.2312 21.8161 51.2312 25.1909C51.2312 27.5315 50.5776 29.5637 49.6177 30.5889C50.4176 30.7567 51.1901 31.0606 51.8438 31.4553C49.5308 31.4961 47.4738 31.1105 45.1975 31.4553V31.4598Z" fill="#222222"/>
<path d="M30.5541 20.718C32.2271 20.718 33.5847 23.4533 33.5847 26.8281C33.5847 29.1325 32.9539 31.1329 32.0168 32.1762C32.8213 32.3304 33.5938 32.657 34.2109 33.097C32.1403 33.1378 30.3621 32.7523 28.3372 33.097C28.6251 32.8022 28.9634 32.5799 29.3245 32.4211C28.5429 31.7226 27.9349 30.3799 27.6652 28.7242L30.5495 27.2273L27.5509 25.9799C27.7566 23.0087 29.0182 20.7226 30.5495 20.7226L30.5541 20.718Z" fill="#222222"/>
<path d="M3.0944 17.8422C3.0944 17.6608 3.10355 17.4748 3.12183 17.2934C3.40523 14.1589 6.0153 11.7956 9.19217 11.7956C10.9886 11.7956 12.6753 12.5849 13.8226 13.9094C18.5628 8.59768 25.3005 5.57211 32.4907 5.57211C32.9113 5.57211 33.3455 5.58571 33.8255 5.6084C36.9292 5.77169 39.9141 6.49293 42.7207 7.74943C43.7126 5.67644 45.8473 4.302 48.2196 4.302C51.3965 4.302 54.002 6.6653 54.29 9.80427C54.3037 9.98118 54.3174 10.1672 54.3174 10.3486C54.3174 10.5119 54.3128 10.6797 54.2991 10.8022C54.2945 10.902 54.2854 10.9973 54.2717 11.1016C54.2397 11.3375 54.2077 11.5189 54.1711 11.6777C54.1483 11.782 54.1208 11.8773 54.098 11.968C54.066 12.0814 54.034 12.1857 53.9974 12.29C53.9151 12.5305 53.8192 12.7663 53.7186 12.9659C53.6775 13.0521 53.6317 13.1383 53.5815 13.229C53.3803 13.6055 53.1289 13.9639 52.8455 14.2859L52.8135 14.3222C52.7815 14.3585 52.7541 14.3903 52.7221 14.422C52.5941 14.5626 52.4524 14.7032 52.3199 14.8212L52.1233 14.9936C52.1233 14.9936 52.105 15.0072 52.0959 15.0117C55.5561 19.3663 57.4531 24.7688 57.4531 30.3391C57.4531 43.9973 46.2541 55.1107 32.4907 55.1107C18.7273 55.1107 7.52831 43.9973 7.52831 30.3391C7.52831 28.1301 7.82542 25.9482 8.40137 23.8344C5.41192 23.4488 3.0944 20.9131 3.0944 17.8422ZM52.3884 9.25087C51.8947 7.41376 50.1852 6.05747 48.2151 6.05747C46.5284 6.05747 45.0108 7.0418 44.3068 8.51603C45.1113 8.94695 45.8884 9.41871 46.6198 9.92221C46.6609 9.95396 46.7021 9.98572 46.7478 10.0129C47.662 9.22366 48.8504 8.74283 50.1578 8.74283C50.9577 8.74283 51.7119 8.92427 52.3884 9.24634V9.25087ZM55.675 30.3391C55.675 24.8641 53.7049 19.5569 50.1258 15.4018C48.8047 13.8686 47.2917 12.5123 45.6142 11.3738C44.7914 10.8067 43.9092 10.2851 42.995 9.82242L42.8075 9.7317C40.4672 8.575 37.9805 7.84015 35.3979 7.51809C37.4137 11.2014 42.259 21.2806 42.8075 33.9952C45.6919 34.1494 48.3933 35.2154 48.3933 37.1297C48.3933 39.0439 45.6324 40.1371 42.7161 40.2732C42.6613 41.6612 42.5881 43.0356 42.5013 44.3738C43.3378 44.2785 44.0737 44.1697 44.6542 44.0744C45.1342 43.9928 45.5959 44.3148 45.6781 44.7956C45.7604 45.2765 45.4359 45.7301 44.9514 45.8117C44.2108 45.9342 43.3515 46.0567 42.4281 46.1565C42.1813 48.1478 41.5596 50.1029 40.6226 51.8855C49.4081 48.6105 55.6796 40.187 55.6796 30.3391H55.675ZM42.0807 38.5268C45.0291 38.5268 46.6152 37.5334 46.6152 37.1297C46.6152 36.7259 45.0245 35.7325 42.0807 35.7325H42.0487C39.1233 35.7416 37.5417 36.7259 37.5417 37.1297C37.5417 37.5334 39.1004 38.5041 41.9802 38.5268H42.0807ZM32.4907 53.3507C34.2963 53.3507 36.0516 53.1375 37.7383 52.7474C39.1096 50.8559 40.0192 48.6286 40.3712 46.3243C39.8135 46.3561 39.2376 46.3697 38.6616 46.3697C35.3065 46.3697 31.7456 45.8072 29.3458 43.8839C28.9665 43.58 28.907 43.0266 29.2133 42.6455C29.5195 42.269 30.0772 42.2055 30.4612 42.514C32.9798 44.528 37.2766 44.7548 40.714 44.5326C40.8054 43.1309 40.8831 41.693 40.9426 40.2369C38.2319 40.001 35.7727 38.9396 35.7727 37.1297C35.7727 35.3198 38.2776 34.2311 41.0294 34.0179C40.4169 20.1284 34.5477 9.51396 33.2632 7.34572C32.9981 7.33664 32.7376 7.33211 32.4907 7.33211C25.4468 7.33211 18.869 10.4529 14.4443 15.8962C13.6626 16.8534 12.9541 17.883 12.337 18.9536C11.5462 20.3371 10.9017 21.7886 10.4172 23.2719C9.67669 25.5536 9.30187 27.9305 9.30187 30.3437C9.30187 43.0311 19.7055 53.3552 32.4907 53.3552V53.3507ZM7.24948 16.2455C8.70764 16.2455 10.0149 16.8488 10.9612 17.8014C11.4777 16.935 12.0491 16.0913 12.6661 15.2929C11.8571 14.2088 10.5726 13.5556 9.19217 13.5556C7.22205 13.5556 5.51248 14.9119 5.01881 16.749C5.69532 16.427 6.44955 16.2455 7.24948 16.2455Z" fill="#222222"/>
<path d="M31.9126 10.5753C31.5926 10.2578 31.5926 9.74976 31.9126 9.43224C32.2325 9.11471 32.7445 9.11471 33.0645 9.43224C33.3844 9.74976 33.3844 10.2578 33.0645 10.5753C32.7445 10.8929 32.2325 10.8929 31.9126 10.5753Z" fill="#222222"/>
<path d="M35.6272 15.1068C35.9472 15.4243 35.9472 15.9324 35.6272 16.2499C35.3072 16.5674 34.7953 16.5674 34.4753 16.2499C34.1553 15.9324 34.1553 15.4243 34.4753 15.1068C34.7953 14.7893 35.3072 14.7893 35.6272 15.1068Z" fill="#222222"/>
<path d="M38.1194 22.6825C38.4394 23 38.4394 23.5081 38.1194 23.8256C37.7994 24.1431 37.2875 24.1431 36.9675 23.8256C36.6475 23.5081 36.6475 23 36.9675 22.6825C37.2875 22.365 37.7994 22.365 38.1194 22.6825Z" fill="#222222"/>
<path d="M39.471 29.7677C39.7909 30.0852 39.7909 30.5933 39.471 30.9108C39.151 31.2283 38.639 31.2283 38.3191 30.9108C37.9991 30.5933 37.9991 30.0852 38.3191 29.7677C38.639 29.4502 39.151 29.4502 39.471 29.7677Z" fill="#222222"/>
<path d="M39.7913 41.8424C40.1112 42.1599 40.1112 42.668 39.7913 42.9855C39.4713 43.303 38.9593 43.303 38.6394 42.9855C38.3194 42.668 38.3194 42.1599 38.6394 41.8424C38.9593 41.5249 39.4713 41.5249 39.7913 41.8424Z" fill="#222222"/>
<path d="M38.1194 49.4767C38.4394 49.7942 38.4394 50.3022 38.1194 50.6198C37.7994 50.9373 37.2875 50.9373 36.9675 50.6198C36.6475 50.3022 36.6475 49.7942 36.9675 49.4767C37.2875 49.1591 37.7994 49.1591 38.1194 49.4767Z" fill="#222222"/>
</svg>
