<svg width="291" height="79" viewBox="0 0 291 79" fill="none" xmlns="http://www.w3.org/2000/svg">
<path d="M86.6074 29.0654H92.9794L100.481 45.5637L107.983 29.0654H114.361V57.0963H108.63V39.2338L102.537 53.3677H98.2622L92.1698 39.2338V57.0963H86.6016V29.0654H86.6074Z" fill="black"/>
<path d="M125.301 47.8453V51.73C125.301 52.3717 125.545 52.6087 126.186 52.6087H131.312C131.958 52.6087 132.197 52.3659 132.197 51.73V50.0478H137.765V51.8919C137.765 55.4586 136.111 57.1003 132.517 57.1003H124.974C121.381 57.1003 119.727 55.4586 119.727 51.8919V40.6772C119.727 37.1105 121.381 35.4688 124.974 35.4688H132.517C136.111 35.4688 137.765 37.1105 137.765 40.6772V47.8453H125.295H125.301ZM125.301 40.8391V44.1225H132.197V40.8391C132.197 40.1974 131.952 39.9604 131.312 39.9604H126.186C125.539 39.9604 125.301 40.2032 125.301 40.8391Z" fill="black"/>
<path d="M143.578 51.8934V39.9619H140.352V35.476H143.66V30.2676H149.065V35.476H153.824V39.9619H149.141V51.6564C149.141 52.298 149.385 52.535 150.026 52.535H153.818V57.1018H148.815C145.221 57.1018 143.567 55.4601 143.567 51.8934H143.578Z" fill="black"/>
<path d="M156.5 51.0479C156.5 46.5215 158.638 44.8798 162.15 44.4C163.926 44.1572 166.466 43.8797 169.168 43.7583V40.8738C169.168 40.2321 168.924 39.9893 168.283 39.9893H163.6C162.954 39.9893 162.715 40.2321 162.715 40.8738V42.1571H157.228V40.6772C157.228 37.1105 158.882 35.4688 162.476 35.4688H169.495C173.088 35.4688 174.742 37.1105 174.742 40.6772V57.0945H169.174V53.7301C167.724 55.7303 166.309 57.2564 162.354 57.2564C158.154 57.2564 156.506 55.5337 156.506 51.0479H156.5ZM169.168 50.8456V47.2788L163.396 48.3598C162.348 48.5622 161.981 48.8396 161.981 50.4814C161.981 52.204 162.226 52.522 163.431 52.522C166.093 52.522 167.508 51.7184 169.163 50.8398L169.168 50.8456Z" fill="black"/>
<path d="M179.695 27.8623H185.264V57.0956H179.695V27.8623Z" fill="black"/>
<path d="M190.99 29.0645H205.755C209.588 29.0645 211.405 30.8681 211.405 34.6718V38.4351C211.405 40.3196 210.718 41.759 208.86 42.7591C210.875 43.6377 211.725 45.2043 211.725 47.0831V51.488C211.725 55.2917 209.908 57.0953 206.076 57.0953H190.984V29.0645H190.99ZM204.788 40.2791C205.394 40.2791 205.598 40.0768 205.598 39.4756V35.0707C205.598 34.4695 205.394 34.2671 204.788 34.2671H196.803V40.2733H204.788V40.2791ZM205.115 51.8926C205.72 51.8926 205.918 51.6903 205.918 51.0891V46.0425C205.918 45.4413 205.715 45.239 205.115 45.239H196.803V51.8869H205.115V51.8926Z" fill="black"/>
<path d="M221.496 47.8453V51.73C221.496 52.3717 221.741 52.6087 222.381 52.6087H227.507C228.153 52.6087 228.392 52.3659 228.392 51.73V50.0478H233.96V51.8919C233.96 55.4586 232.306 57.1003 228.713 57.1003H221.17C217.576 57.1003 215.922 55.4586 215.922 51.8919V40.6772C215.922 37.1105 217.576 35.4688 221.17 35.4688H228.713C232.306 35.4688 233.96 37.1105 233.96 40.6772V47.8453H221.49H221.496ZM221.496 40.8391V44.1225H228.398V40.8391C228.398 40.1974 228.153 39.9604 227.513 39.9604H222.387C221.741 39.9604 221.502 40.2032 221.502 40.8391H221.496Z" fill="black"/>
<path d="M237.672 51.0479C237.672 46.5215 239.809 44.8798 243.322 44.4C245.098 44.1572 247.638 43.8797 250.34 43.7583V40.8738C250.34 40.2321 250.096 39.9893 249.455 39.9893H244.772C244.125 39.9893 243.887 40.2321 243.887 40.8738V42.1571H238.4V40.6772C238.4 37.1105 240.054 35.4688 243.648 35.4688H250.666C254.26 35.4688 255.914 37.1105 255.914 40.6772V57.0945H250.346V53.7301C248.896 55.7303 247.48 57.2564 243.526 57.2564C239.326 57.2564 237.678 55.5337 237.678 51.0479H237.672ZM250.34 50.8456V47.2788L244.568 48.3598C243.52 48.5622 243.159 48.8396 243.159 50.4814C243.159 52.204 243.403 52.522 244.609 52.522C247.271 52.522 248.686 51.7184 250.34 50.8398V50.8456Z" fill="black"/>
<path d="M260.953 35.4756H266.521V38.84C267.972 36.8398 269.387 35.4756 272.736 35.4756H274.472V40.684H271.728C269.591 40.684 268.176 41.0829 266.521 41.9674V57.1072H260.953V35.4814V35.4756Z" fill="black"/>
<path d="M60.2633 41.9467C60.8971 41.4084 61.6346 41.0516 62.4147 40.8339C61.4761 39.8601 60.7509 38.1666 60.4218 36.1103L64.2675 34.1144L60.2694 32.4512C60.5436 28.4897 62.2258 25.4414 64.2675 25.4414C66.4982 25.4414 68.3083 29.0884 68.3083 33.5882C68.3083 36.709 67.4368 39.4186 66.1569 40.7855C67.2235 41.0092 68.2535 41.4145 69.125 41.9407C66.0411 41.9951 63.2985 41.481 60.2633 41.9407V41.9467Z" fill="black"/>
<path d="M40.7336 27.625C42.9643 27.625 44.7744 31.272 44.7744 35.7718C44.7744 38.8443 43.9333 41.5115 42.6839 42.9025C43.7566 43.1082 44.7866 43.5436 45.6094 44.1303C42.8485 44.1847 40.4776 43.6706 37.7777 44.1303C38.1616 43.7372 38.6126 43.4408 39.0941 43.2291C38.0519 42.2977 37.2413 40.5075 36.8818 38.2999L40.7275 36.304L36.7294 34.6408C37.0036 30.6793 38.6858 27.631 40.7275 27.631L40.7336 27.625Z" fill="black"/>
<path d="M4.12327 23.7899C4.12327 23.548 4.13545 23.3001 4.15983 23.0581C4.5377 18.8789 8.01779 15.7278 12.2536 15.7278C14.6488 15.7278 16.8978 16.7802 18.4276 18.5462C24.7478 11.4639 33.7314 7.4298 43.3183 7.4298C43.8791 7.4298 44.4581 7.44795 45.098 7.47819C49.2363 7.69592 53.2162 8.65757 56.9583 10.3329C58.2809 7.56891 61.1271 5.73633 64.2902 5.73633C68.5261 5.73633 72.0001 8.8874 72.384 13.0727C72.4023 13.3086 72.4206 13.5565 72.4206 13.7985C72.4206 14.0162 72.4145 14.24 72.3962 14.4033C72.3901 14.5363 72.3779 14.6633 72.3596 14.8025C72.317 15.117 72.2743 15.3589 72.2256 15.5706C72.1951 15.7097 72.1585 15.8367 72.128 15.9576C72.0854 16.1088 72.0427 16.248 71.994 16.3871C71.8843 16.7076 71.7563 17.0221 71.6222 17.2882C71.5673 17.4031 71.5064 17.5181 71.4393 17.639C71.1712 18.141 70.836 18.6188 70.4581 19.0482L70.4154 19.0966C70.3728 19.145 70.3362 19.1873 70.2935 19.2297C70.1229 19.4172 69.9339 19.6047 69.7572 19.7619L69.4951 19.9917C69.4951 19.9917 69.4708 20.0099 69.4586 20.0159C74.0723 25.8221 76.6016 33.0254 76.6016 40.4525C76.6016 58.6634 61.6695 73.4813 43.3183 73.4813C24.9672 73.4813 10.0351 58.6634 10.0351 40.4525C10.0351 37.5071 10.4313 34.5979 11.1992 31.7795C7.21328 31.2654 4.12327 27.8845 4.12327 23.7899ZM69.8486 12.3348C69.1904 9.88533 66.911 8.07695 64.2842 8.07695C62.0352 8.07695 60.0118 9.38939 59.0732 11.355C60.1458 11.9296 61.1819 12.5586 62.1571 13.2299C62.2119 13.2723 62.2668 13.3146 62.3278 13.3509C63.5467 12.2985 65.1313 11.6574 66.8744 11.6574C67.941 11.6574 68.9466 11.8994 69.8486 12.3288V12.3348ZM74.2307 40.4525C74.2307 33.1524 71.6039 26.0761 66.8317 20.5361C65.0704 18.4918 63.053 16.6834 60.8163 15.1653C59.7192 14.4093 58.5429 13.7138 57.324 13.0969L57.0741 12.9759C53.9536 11.4337 50.6381 10.4539 47.1946 10.0244C49.8824 14.9355 56.3427 28.3744 57.0741 45.3273C60.9199 45.5329 64.5218 46.9542 64.5218 49.5065C64.5218 52.0588 60.8406 53.5164 56.9522 53.6979C56.8791 55.5486 56.7816 57.3812 56.6658 59.1654C57.7811 59.0384 58.7623 58.8932 59.5364 58.7662C60.1763 58.6573 60.7919 59.0867 60.9016 59.7278C61.0113 60.3689 60.5786 60.9738 59.9325 61.0826C58.9452 61.2459 57.7994 61.4092 56.5682 61.5423C56.2391 64.1974 55.4103 66.8041 54.1608 69.1811C65.8749 64.8143 74.2368 53.583 74.2368 40.4525H74.2307ZM56.1051 51.3694C60.0361 51.3694 62.151 50.0448 62.151 49.5065C62.151 48.9683 60.03 47.6437 56.1051 47.6437H56.0624C52.1618 47.6558 50.053 48.9683 50.053 49.5065C50.053 50.0448 52.1313 51.3391 55.971 51.3694H56.1051ZM43.3183 71.1346C45.7258 71.1346 48.0661 70.8503 50.3151 70.3302C52.1435 67.8081 53.3563 64.8385 53.8256 61.7661C53.0821 61.8084 52.3141 61.8265 51.5462 61.8265C47.0727 61.8265 42.3249 61.0766 39.1252 58.5122C38.6193 58.107 38.5401 57.3691 38.9484 56.861C39.3568 56.3591 40.1003 56.2744 40.6123 56.6856C43.9705 59.371 49.6995 59.6734 54.2827 59.3771C54.4046 57.5082 54.5082 55.5909 54.5875 53.6495C50.9733 53.335 47.6944 51.9197 47.6944 49.5065C47.6944 47.0933 51.0343 45.6418 54.7033 45.3575C53.8866 26.8382 46.061 12.6856 44.3484 9.79461C43.9949 9.78252 43.6475 9.77647 43.3183 9.77647C33.9264 9.77647 25.1561 13.9376 19.2564 21.1953C18.2142 22.4715 17.2696 23.8444 16.4468 25.2717C15.3924 27.1164 14.533 29.0518 13.887 31.0295C12.8997 34.0717 12.3999 37.241 12.3999 40.4586C12.3999 57.3751 26.2714 71.1406 43.3183 71.1406V71.1346ZM9.66336 21.661C11.6076 21.661 13.3507 22.4654 14.6123 23.7355C15.301 22.5803 16.0628 21.4554 16.8856 20.3909C15.8068 18.9454 14.0942 18.0745 12.2536 18.0745C9.62679 18.0745 7.34737 19.8829 6.68914 22.3324C7.59116 21.9029 8.59679 21.661 9.66336 21.661Z" fill="black"/>
<path d="M42.5504 14.0995C42.1238 13.6761 42.1238 12.9987 42.5504 12.5753C42.977 12.152 43.6596 12.152 44.0863 12.5753C44.5129 12.9987 44.5129 13.6761 44.0863 14.0995C43.6596 14.5228 42.977 14.5228 42.5504 14.0995Z" fill="black"/>
<path d="M47.5003 20.1427C47.927 20.5661 47.927 21.2435 47.5003 21.6668C47.0737 22.0902 46.3911 22.0902 45.9645 21.6668C45.5378 21.2435 45.5378 20.5661 45.9645 20.1427C46.3911 19.7194 47.0737 19.7194 47.5003 20.1427Z" fill="black"/>
<path d="M50.8207 30.2433C51.2473 30.6667 51.2473 31.3441 50.8207 31.7674C50.394 32.1908 49.7114 32.1908 49.2848 31.7674C48.8582 31.3441 48.8582 30.6667 49.2848 30.2433C49.7114 29.8199 50.394 29.8199 50.8207 30.2433Z" fill="black"/>
<path d="M52.6253 39.6906C53.052 40.1139 53.052 40.7913 52.6253 41.2147C52.1987 41.6381 51.5161 41.6381 51.0895 41.2147C50.6628 40.7913 50.6628 40.1139 51.0895 39.6906C51.5161 39.2672 52.1987 39.2672 52.6253 39.6906Z" fill="black"/>
<path d="M53.055 55.7902C53.4817 56.2136 53.4817 56.8909 53.055 57.3143C52.6284 57.7377 51.9458 57.7377 51.5192 57.3143C51.0925 56.8909 51.0925 56.2136 51.5192 55.7902C51.9458 55.3668 52.6284 55.3668 53.055 55.7902Z" fill="black"/>
<path d="M50.8207 65.9699C51.2473 66.3932 51.2473 67.0706 50.8207 67.494C50.394 67.9174 49.7114 67.9174 49.2848 67.494C48.8582 67.0706 48.8582 66.3932 49.2848 65.9699C49.7114 65.5465 50.394 65.5465 50.8207 65.9699Z" fill="black"/>
</svg>
