<svg width="137" height="153" viewBox="0 0 137 153" fill="none" xmlns="http://www.w3.org/2000/svg">
<path d="M0.975228 41.6204L3.82531 37.6506L17.5927 40.3726L10.5399 28.3123L13.39 24.3425L31.0771 36.9033L28.5099 40.4686L17.2407 32.4672L23.4309 42.5872L21.5193 45.2474L9.87053 42.7037L21.1397 50.705L18.6485 54.1674L0.961426 41.6136L0.975228 41.6204Z" fill="#222222"/>
<path d="M32.947 27.4552L34.6032 29.9577C34.8793 30.3691 35.1346 30.4239 35.5487 30.1497L38.8404 27.9968C39.2544 27.7226 39.3097 27.4689 39.0336 27.0575L38.3159 25.9742L41.8975 23.6362L42.6842 24.8223C44.2024 27.1192 43.8367 28.8676 41.5318 30.3759L36.6804 33.5504C34.3755 35.0588 32.6089 34.6954 31.0906 32.4054L26.3083 25.1857C24.7901 22.8957 25.1558 21.1405 27.4608 19.6321L32.3121 16.4645C34.617 14.9561 36.3837 15.3195 37.9019 17.6095L40.959 22.2238L32.9401 27.462L32.947 27.4552ZM29.9589 22.9437L31.3598 25.0554L35.7971 22.1552L34.3962 20.0435C34.1202 19.6321 33.8648 19.5773 33.4508 19.8515L30.159 22.0044C29.745 22.2786 29.6898 22.5323 29.9658 22.9437H29.9589Z" fill="#222222"/>
<path d="M46.6524 23.4034L43.5608 14.737L41.2214 15.5597L40.062 12.303L42.4635 11.4597L41.111 7.68185L45.0307 6.29688L46.3833 10.0747L49.8337 8.85428L50.9931 12.111L47.5978 13.304L50.6273 21.7921C50.793 22.2583 51.0345 22.368 51.4969 22.2035L54.2503 21.2299L55.4304 24.5484L51.8005 25.8305C49.1988 26.7492 47.5702 25.9813 46.6455 23.3896L46.6524 23.4034Z" fill="#222222"/>
<path d="M55.7342 19.4745C55.396 16.0052 56.9142 14.586 59.5642 13.962C60.903 13.6467 62.8352 13.2421 64.8917 12.9542L64.6778 10.7464C64.6295 10.2528 64.4293 10.0882 63.9325 10.1362L60.344 10.479C59.8471 10.527 59.6815 10.7259 59.7298 11.2195L59.8264 12.2L55.6237 12.6045L55.5133 11.4663C55.2442 8.73068 56.3897 7.35257 59.1432 7.08517L64.519 6.57095C67.2725 6.30355 68.6596 7.4417 68.9287 10.1774L70.1571 22.7724L65.8923 23.1838L65.6439 20.6058C64.6778 22.2513 63.7116 23.5197 60.6821 23.8077C57.4663 24.1162 56.0723 22.9164 55.7342 19.4814V19.4745ZM65.4231 18.3912L65.1539 15.6555L60.8132 16.9103C60.0265 17.1434 59.7643 17.3833 59.8885 18.6449C60.0196 19.9682 60.2267 20.1944 61.1514 20.1053C63.1941 19.9065 64.2154 19.1934 65.4162 18.3912H65.4231Z" fill="#222222"/>
<path d="M75.5604 0.928223L79.8182 1.42873L77.1407 23.794L72.8828 23.2935L75.5604 0.928223Z" fill="#222222"/>
<path d="M87.975 3.69116L98.6301 7.62668C101.397 8.64827 102.219 10.4309 101.19 13.1803L100.176 15.8954C99.6652 17.2529 98.7819 18.11 97.174 18.3431C98.3886 19.5155 98.5818 20.8731 98.0711 22.2306L96.8841 25.4119C95.8559 28.1613 94.0617 28.9772 91.2944 27.9556L80.4116 23.9378L87.9888 3.69802L87.975 3.69116ZM91.9914 23.9378C92.4261 24.0955 92.6263 24.0064 92.7919 23.5744L94.1583 19.9337C94.3239 19.5018 94.2273 19.303 93.7925 19.1384L87.7956 16.9238L86.0014 21.7232L91.9983 23.9378H91.9914ZM94.8967 15.4634C95.3314 15.6211 95.5316 15.532 95.6972 15.1001L96.8841 11.9187C97.0498 11.4868 96.9531 11.2879 96.5184 11.1234L90.7561 8.99108L89.1344 13.3311L94.8967 15.4566V15.4634Z" fill="#222222"/>
<path d="M104.53 27.5444L102.66 29.8893C102.35 30.2801 102.384 30.5338 102.771 30.8423L105.862 33.2763C106.249 33.5848 106.511 33.5506 106.822 33.1666L107.629 32.1519L110.99 34.7984L110.099 35.9091C108.381 38.062 106.594 38.2677 104.427 36.5605L99.8723 32.9815C97.7054 31.2743 97.4984 29.4985 99.2167 27.3456L104.613 20.5716C106.332 18.4187 108.119 18.213 110.286 19.9202L114.84 23.4992C117.007 25.2064 117.214 26.9822 115.496 29.1351L112.046 33.4614L104.524 27.5444H104.53ZM107.905 23.3141L106.325 25.2956L110.486 28.5729L112.066 26.5914C112.377 26.2075 112.342 25.9469 111.956 25.6384L108.864 23.2044C108.471 22.8959 108.216 22.9301 107.905 23.3141Z" fill="#222222"/>
<path d="M112.446 37.3831C115.324 35.3879 117.311 36.005 119.161 37.9933C120.092 39.0012 121.396 40.4684 122.659 42.1139L124.495 40.8386C124.902 40.5575 124.95 40.297 124.667 39.8925L122.604 36.958C122.321 36.5535 122.059 36.5055 121.652 36.7934L120.837 37.3556L118.422 33.9138L119.368 33.2624C121.631 31.6923 123.405 32.0009 124.992 34.2566L128.083 38.6583C129.664 40.9072 129.353 42.6693 127.083 44.2462L116.649 51.4933L114.192 48.0035L116.331 46.5157C114.42 46.4882 112.825 46.2757 111.086 43.7937C109.237 41.1677 109.603 39.3645 112.453 37.3899L112.446 37.3831ZM118.16 45.2335L120.423 43.6634L117.194 40.5233C116.607 39.9542 116.269 39.8513 115.22 40.5781C114.123 41.3392 114.026 41.634 114.565 42.3882C115.738 44.0542 116.869 44.589 118.16 45.2404V45.2335Z" fill="#222222"/>
<path d="M133.328 48.1133L134.819 52.1105L132.369 53.0087C134.211 53.516 135.585 54.1605 136.475 56.5671L136.937 57.8081L133.149 59.1999L132.417 57.2322C131.844 55.6963 131.175 54.7913 130.092 53.8452L119.085 57.8972L117.594 53.9L133.321 48.1133H133.328Z" fill="#222222"/>
<path d="M136.737 110.992L133.929 114.99L120.134 112.412L127.318 124.396L124.509 128.394L106.691 116.025L109.216 112.432L120.568 120.317L114.268 110.259L116.152 107.578L127.828 109.998L116.476 102.113L118.933 98.6235L136.758 110.992H136.737Z" fill="#222222"/>
<path d="M104.945 125.466L103.261 122.984C102.985 122.573 102.722 122.525 102.308 122.799L99.0373 124.986C98.6233 125.261 98.5749 125.521 98.851 125.926L99.5825 127.002L96.0285 129.381L95.228 128.202C93.6822 125.926 94.0272 124.17 96.3183 122.635L101.135 119.412C103.426 117.876 105.193 118.219 106.739 120.495L111.597 127.66C113.143 129.937 112.798 131.692 110.507 133.228L105.69 136.45C103.399 137.986 101.632 137.643 100.086 135.367L96.9808 130.787L104.938 125.459L104.945 125.466ZM107.981 129.943L106.559 127.845L102.157 130.794L103.578 132.892C103.854 133.303 104.116 133.351 104.524 133.077L107.795 130.89C108.209 130.615 108.257 130.355 107.981 129.95V129.943Z" fill="#222222"/>
<path d="M91.2461 129.69L94.4275 138.322L96.76 137.472L97.9538 140.715L95.5661 141.585L96.9532 145.349L93.0473 146.769L91.6602 143.005L88.2166 144.259L87.0228 141.016L90.4042 139.782L87.285 131.321C87.1125 130.855 86.8778 130.746 86.4086 130.917L83.6689 131.918L82.4543 128.613L86.0704 127.297C88.6652 126.351 90.3007 127.105 91.2461 129.683V129.69Z" fill="#222222"/>
<path d="M82.2336 133.707C82.6062 137.17 81.1087 138.603 78.4657 139.261C77.1269 139.59 75.2084 140.015 73.145 140.33L73.3866 142.538C73.4418 143.032 73.6488 143.196 74.1388 143.142L77.7204 142.758C78.2172 142.703 78.3829 142.504 78.3276 142.01L78.2241 141.03L82.4199 140.577L82.5441 141.715C82.8409 144.444 81.7091 145.836 78.9625 146.131L73.5867 146.707C70.8401 147.002 69.4392 145.877 69.1425 143.148L67.7761 130.574L72.034 130.115L72.31 132.693C73.2555 131.04 74.2078 129.758 77.2373 129.436C80.4462 129.093 81.854 130.272 82.2336 133.714V133.707ZM72.5516 134.9L72.8483 137.629L77.1752 136.326C77.9619 136.086 78.2172 135.84 78.0792 134.585C77.9343 133.268 77.7273 133.042 76.7956 133.138C74.7599 133.358 73.7454 134.084 72.5516 134.893V134.9Z" fill="#222222"/>
<path d="M62.6004 152.459L58.3425 152L60.7786 129.614L65.0364 130.074L62.5935 152.459H62.6004Z" fill="#222222"/>
<path d="M50.165 149.84L39.4685 146.021C36.6943 145.034 35.8524 143.258 36.8462 140.495L37.833 137.766C38.3299 136.402 39.1994 135.531 40.8073 135.284C39.5789 134.125 39.3719 132.775 39.8688 131.41L41.0212 128.215C42.015 125.459 43.8092 124.616 46.5834 125.61L57.5144 129.511L50.165 149.84ZM43.1122 138.143C42.6774 137.986 42.4773 138.082 42.3186 138.513L41.1661 141.709C41.0074 142.14 41.104 142.339 41.5388 142.497L47.3287 144.561L48.9021 140.207L43.1191 138.143H43.1122ZM45.9209 129.641C45.4861 129.484 45.286 129.58 45.1273 130.012L43.8023 133.666C43.6436 134.105 43.7402 134.297 44.1749 134.455L50.1926 136.601L51.9385 131.781L45.9209 129.635V129.641Z" fill="#222222"/>
<path d="M33.3336 126.159L35.1762 123.793C35.4798 123.402 35.4453 123.142 35.0589 122.84L31.9397 120.44C31.5463 120.139 31.2841 120.173 30.9804 120.564L30.1799 121.585L26.7916 118.973L27.668 117.849C29.3587 115.682 31.146 115.456 33.3336 117.136L37.9228 120.674C40.1104 122.353 40.3312 124.129 38.6405 126.303L33.3129 133.131C31.6222 135.305 29.8349 135.524 27.6473 133.845L23.0582 130.307C20.8706 128.627 20.6497 126.851 22.3405 124.678L25.7495 120.31L33.3336 126.152V126.159ZM30.0005 130.423L31.5601 128.421L27.3643 125.192L25.8047 127.194C25.5011 127.585 25.5356 127.845 25.9289 128.147L29.0482 130.547C29.4415 130.848 29.7038 130.814 30.0074 130.423H30.0005Z" fill="#222222"/>
<path d="M25.3217 116.409C22.4647 118.438 20.4773 117.842 18.6002 115.867C17.6548 114.873 16.3367 113.413 15.0531 111.788L13.2313 113.077C12.8241 113.365 12.7827 113.618 13.0726 114.023L15.1635 116.937C15.4534 117.341 15.7087 117.383 16.1159 117.095L16.9233 116.519L19.38 119.933L18.4484 120.598C16.1987 122.196 14.4251 121.901 12.8172 119.666L9.67729 115.298C8.06938 113.063 8.36612 111.301 10.6158 109.703L20.9741 102.354L23.4654 105.816L21.3399 107.324C23.2514 107.331 24.8455 107.53 26.6122 109.985C28.4892 112.597 28.1442 114.393 25.3148 116.402L25.3217 116.409ZM19.5249 108.613L17.2752 110.211L20.5394 113.317C21.1328 113.879 21.471 113.982 22.513 113.248C23.5965 112.48 23.6931 112.185 23.1548 111.431C21.961 109.772 20.8292 109.251 19.5318 108.62L19.5249 108.613Z" fill="#222222"/>
<path d="M4.31506 105.884L2.78305 101.908L5.21908 100.982C3.36963 100.495 1.99635 99.8647 1.07162 97.4718L0.595459 96.2308L4.36337 94.7979L5.11557 96.7588C5.70215 98.2877 6.38534 99.1859 7.47569 100.125L18.4413 95.9566L19.9733 99.9332L4.30816 105.884H4.31506Z" fill="#222222"/>
<path d="M85.6356 77.3774C86.1943 76.9023 86.8444 76.5874 87.532 76.3952C86.7047 75.5357 86.0654 74.041 85.7752 72.2259L89.1652 70.4643L85.6409 68.9962C85.8827 65.4996 87.3655 62.8091 89.1652 62.8091C91.1315 62.8091 92.7271 66.0281 92.7271 69.9998C92.7271 72.7544 91.9589 75.146 90.8307 76.3525C91.7708 76.55 92.6788 76.9077 93.447 77.3721C90.7286 77.4202 88.311 76.9664 85.6356 77.3721L85.6356 77.3774Z" fill="#222222"/>
<path d="M68.4223 64.7361C70.3886 64.7361 71.9842 67.9551 71.9842 71.9268C71.9842 74.6387 71.2428 76.9929 70.1415 78.2208C71.087 78.4023 71.9949 78.7866 72.7202 79.3045C70.2865 79.3525 68.1967 78.8987 65.8167 79.3045C66.1551 78.9575 66.5527 78.6959 66.9771 78.509C66.0584 77.6869 65.3439 76.1068 65.0269 74.1583L68.4169 72.3966L64.8926 70.9286C65.1344 67.432 66.6172 64.7414 68.4169 64.7414L68.4223 64.7361Z" fill="#222222"/>
<path d="M36.1503 61.3515C36.1503 61.138 36.161 60.9191 36.1825 60.7056C36.5156 57.0168 39.5833 54.2355 43.3171 54.2355C45.4284 54.2355 47.4108 55.1643 48.7593 56.7231C54.3305 50.4719 62.2494 46.9112 70.7002 46.9112C71.1944 46.9112 71.7048 46.9273 72.2689 46.954C75.9168 47.1461 79.4249 47.9949 82.7236 49.4737C83.8894 47.034 86.3983 45.4165 89.1866 45.4165C92.9204 45.4165 95.9827 48.1978 96.3211 51.8919C96.3372 52.1001 96.3534 52.319 96.3534 52.5325C96.3534 52.7247 96.348 52.9222 96.3319 53.0664C96.3265 53.1838 96.3157 53.2959 96.2996 53.4187C96.262 53.6963 96.2244 53.9098 96.1814 54.0967C96.1546 54.2194 96.1223 54.3316 96.0955 54.4383C96.0579 54.5718 96.0203 54.6946 95.9773 54.8173C95.8806 55.1003 95.7678 55.3779 95.6496 55.6128C95.6012 55.7142 95.5475 55.8156 95.4884 55.9224C95.252 56.3655 94.9565 56.7872 94.6234 57.1662L94.5858 57.2089C94.5482 57.2516 94.516 57.289 94.4784 57.3264C94.328 57.4919 94.1614 57.6573 94.0056 57.7961L93.7746 57.999C93.7746 57.999 93.7531 58.015 93.7424 58.0204C97.8093 63.1452 100.039 69.5032 100.039 76.0587C100.039 92.1324 86.8765 105.211 70.7002 105.211C54.5239 105.211 41.3615 92.1324 41.3615 76.0587C41.3615 73.4589 41.7107 70.8911 42.3876 68.4035C38.8741 67.9497 36.1503 64.9656 36.1503 61.3515ZM94.0862 51.2406C93.506 49.0786 91.4967 47.4824 89.1812 47.4824C87.1988 47.4824 85.4152 48.6409 84.5878 50.3758C85.5333 50.883 86.4467 51.4382 87.3062 52.0307C87.3546 52.0681 87.4029 52.1055 87.4567 52.1375C88.5311 51.2086 89.928 50.6428 91.4645 50.6428C92.4046 50.6428 93.2911 50.8563 94.0862 51.2353L94.0862 51.2406ZM97.949 76.0587C97.949 69.6153 95.6335 63.3694 91.4269 58.4795C89.8742 56.6751 88.096 55.0789 86.1243 53.739C85.1573 53.0717 84.1204 52.4578 83.0459 51.9133L82.8257 51.8065C80.075 50.4452 77.1524 49.5804 74.117 49.2014C76.4862 53.5361 82.181 65.398 82.8257 80.3614C86.2156 80.5429 89.3907 81.7974 89.3907 84.0502C89.3907 86.303 86.1458 87.5895 82.7182 87.7496C82.6538 89.3832 82.5678 91.0007 82.4657 92.5755C83.4489 92.4634 84.3138 92.3353 84.9961 92.2232C85.5602 92.1271 86.1028 92.5061 86.1995 93.072C86.2962 93.6378 85.9148 94.1717 85.3453 94.2678C84.475 94.4119 83.465 94.556 82.3798 94.6735C82.0896 97.017 81.359 99.3179 80.2577 101.416C90.5834 97.5615 97.9543 87.6482 97.9543 76.0587L97.949 76.0587ZM81.9715 85.6944C85.4367 85.6944 87.3009 84.5253 87.3009 84.0502C87.3009 83.5751 85.4313 82.406 81.9715 82.406L81.9338 82.406C78.4955 82.4166 76.6367 83.5751 76.6367 84.0502C76.6367 84.5253 78.4687 85.6677 81.8533 85.6944L81.9715 85.6944ZM70.7002 103.14C72.8223 103.14 74.8853 102.889 76.8677 102.43C78.4794 100.204 79.5485 97.5829 79.9622 94.871C79.3067 94.9084 78.6298 94.9244 77.9529 94.9244C74.0096 94.9244 69.8245 94.2624 67.004 91.999C66.5581 91.6413 66.4882 90.99 66.8482 90.5416C67.2081 90.0985 67.8635 90.0238 68.3148 90.3868C71.275 92.757 76.3251 93.0239 80.3651 92.7624C80.4726 91.1128 80.5639 89.4205 80.6337 87.7069C77.4479 87.4293 74.5576 86.1802 74.5576 84.0502C74.5575 81.9202 77.5016 80.639 80.7358 80.3881C80.0159 64.042 73.1177 51.5503 71.6081 48.9985C71.2965 48.9879 70.9903 48.9825 70.7002 48.9825C62.4213 48.9825 54.6904 52.6553 49.4899 59.0613C48.5713 60.1877 47.7385 61.3995 47.0133 62.6594C46.0838 64.2876 45.3263 65.9959 44.7569 67.7415C43.8865 70.4267 43.446 73.224 43.446 76.064C43.446 90.9954 55.6736 103.145 70.7002 103.145L70.7002 103.14ZM41.0338 59.4724C42.7476 59.4724 44.2841 60.1824 45.3962 61.3034C46.0033 60.2838 46.6748 59.2909 47.4001 58.3513C46.4492 57.0755 44.9395 56.3067 43.3171 56.3067C41.0016 56.3067 38.9923 57.9029 38.4121 60.0649C39.2072 59.6859 40.0936 59.4724 41.0338 59.4724Z" fill="#222222"/>
<path d="M70.0233 52.7996C69.6472 52.4259 69.6472 51.828 70.0233 51.4543C70.3994 51.0807 71.0011 51.0807 71.3771 51.4543C71.7532 51.828 71.7532 52.4259 71.3771 52.7996C71.0011 53.1733 70.3994 53.1733 70.0233 52.7996Z" fill="#222222"/>
<path d="M74.3803 58.1326C74.7564 58.5062 74.7564 59.1041 74.3803 59.4778C74.0042 59.8515 73.4025 59.8515 73.0265 59.4778C72.6504 59.1041 72.6504 58.5062 73.0265 58.1326C73.4025 57.7589 74.0042 57.7589 74.3803 58.1326Z" fill="#222222"/>
<path d="M77.3137 67.0474C77.6897 67.421 77.6897 68.0189 77.3137 68.3926C76.9376 68.7663 76.3359 68.7663 75.9598 68.3926C75.5837 68.0189 75.5837 67.421 75.9598 67.0474C76.3359 66.6737 76.9376 66.6737 77.3137 67.0474Z" fill="#222222"/>
<path d="M78.904 75.3862C79.2801 75.7599 79.2801 76.3578 78.904 76.7315C78.5279 77.1052 77.9262 77.1052 77.5501 76.7315C77.1741 76.3578 77.1741 75.7599 77.5501 75.3862C77.9262 75.0125 78.5279 75.0125 78.904 75.3862Z" fill="#222222"/>
<path d="M79.28 89.5967C79.656 89.9704 79.656 90.5682 79.28 90.9419C78.9039 91.3156 78.3022 91.3156 77.9261 90.9419C77.55 90.5682 77.55 89.9704 77.9261 89.5967C78.3022 89.223 78.9039 89.223 79.28 89.5967Z" fill="#222222"/>
<path d="M77.319 98.5813C77.6951 98.955 77.6951 99.5529 77.319 99.9265C76.943 100.3 76.3412 100.3 75.9652 99.9265C75.5891 99.5529 75.5891 98.955 75.9652 98.5813C76.3412 98.2076 76.943 98.2076 77.319 98.5813Z" fill="#222222"/>
<path d="M7.39275 79.2064C10.438 79.2064 12.9066 76.7537 12.9066 73.7282C12.9066 70.7027 10.438 68.25 7.39275 68.25C4.34754 68.25 1.87891 70.7027 1.87891 73.7282C1.87891 76.7537 4.34754 79.2064 7.39275 79.2064Z" fill="#222222"/>
<path d="M130.039 84.4029C133.085 84.4029 135.553 81.9502 135.553 78.9247C135.553 75.8992 133.085 73.4465 130.039 73.4465C126.994 73.4465 124.526 75.8992 124.526 78.9247C124.526 81.9502 126.994 84.4029 130.039 84.4029Z" fill="#222222"/>
</svg>
