<svg width="441" height="292" viewBox="0 0 441 292" fill="none" xmlns="http://www.w3.org/2000/svg">
<path d="M245.262 148.839C284.527 148.839 316.358 115.876 316.358 75.2127C316.358 34.5497 284.527 1.58594 245.262 1.58594C205.997 1.58594 174.166 34.5497 174.166 75.2127C174.166 115.876 205.997 148.839 245.262 148.839Z" fill="#D0E2E1"/>
<path d="M241.776 4.22172C233.294 3.52994 222.444 7.72832 214.675 10.6863C202.1 15.4691 189.18 23.1741 183.303 35.8885C170.716 63.1541 167.599 84.8616 179.223 107.142C190.846 129.422 206.954 140.884 219.505 144.307C232.056 147.73 232.045 147.73 232.056 147.73C230.034 147.181 227.31 124.114 226.881 121.526C224.752 108.525 223.86 95.3218 224.169 82.1542C224.514 67.925 226.263 53.7316 229.403 39.8483C230.974 32.9067 232.889 26.0485 235.15 19.2977C236.244 16.0177 237.208 12.3919 238.778 9.31464C239.67 7.57326 241.336 6.0108 241.764 4.22172H241.776Z" fill="#ACACAC"/>
<path d="M220.243 291.99C341.829 291.99 440.394 281.753 440.394 269.125C440.394 256.498 341.829 246.261 220.243 246.261C98.6567 246.261 0.0917358 256.498 0.0917358 269.125C0.0917358 281.753 98.6567 291.99 220.243 291.99Z" fill="black"/>
<path d="M226.358 104.1C234.88 104.1 241.788 100.832 241.788 96.8009C241.788 92.7695 234.88 89.5015 226.358 89.5015C217.836 89.5015 210.928 92.7695 210.928 96.8009C210.928 100.832 217.836 104.1 226.358 104.1Z" fill="#FE5723"/>
<path d="M229.737 133.537C238.258 133.537 245.167 130.269 245.167 126.237C245.167 122.206 238.258 118.938 229.737 118.938C221.215 118.938 214.306 122.206 214.306 126.237C214.306 130.269 221.215 133.537 229.737 133.537Z" fill="#FE5723"/>
<path d="M431.126 115.276C433.577 122.122 432.768 128.599 428.664 134.598C425.856 138.701 421.085 140.359 416.458 138.904C408.606 148.136 402.039 150.45 396.495 145.87C393.77 152.525 387.869 153.956 381.719 154.72C375.616 155.471 369.727 154.493 364.456 151.141C357.592 146.788 354.998 142.256 359.555 134.789C355.225 133.024 351.287 130.698 348.312 127.001C345.421 123.423 342.899 119.63 342.661 114.835C342.328 107.953 347.218 100.94 354.082 98.2561C354.903 97.9341 355.748 97.6597 356.7 97.3258C353.012 94.0816 349.419 90.8851 345.755 87.7482C343.792 86.0665 341.793 84.4086 339.687 82.9058C333.846 78.6955 330.86 78.8267 325.411 83.5379C323.163 85.4701 321.033 87.5455 318.939 89.6327C318.451 90.1217 318.166 90.897 317.999 91.5888C310.385 122.993 291.041 142.709 259.669 150.39C256.683 151.118 253.578 151.404 250.413 151.929C249.759 153.598 249.045 155.399 248.343 157.177C254.577 162.401 260.633 167.816 268.437 170.559C276.824 173.517 285.354 175.819 294.348 174.888C301.95 174.101 309.124 171.537 315.929 168.173C327.172 162.603 339.069 160.409 351.382 161.721C361.732 162.818 370.119 167.78 375.544 177.071C376.865 179.325 377.543 181.699 377.936 184.18L376.556 184.394C376.556 184.394 376.544 184.394 376.532 184.394V184.359L376.496 184.383C376.437 184.359 376.377 184.335 376.318 184.311C376.341 184.347 376.353 184.418 376.377 184.418C376.413 184.418 376.448 184.394 376.496 184.383C376.508 184.383 376.52 184.383 376.532 184.394V184.454C376.437 184.681 376.294 184.883 376.306 185.098C376.508 192.72 374.378 199.924 371.571 206.794C367.086 217.767 362.172 228.573 356.105 238.842C349.752 249.589 341.71 258.701 331.502 265.762C325.459 269.936 319.011 273.515 312.717 277.367C313.645 277.665 314.977 278.572 316.084 278.572L316.108 280.409C313.633 280.432 311.23 279.836 309.231 277.582C308.981 277.296 308.494 277.141 308.089 277.093C302.569 276.52 297.929 274.194 293.67 270.628C283.927 262.47 279.108 251.855 278.026 239.474C277.36 231.889 279.382 224.792 283.51 218.363C286.211 214.141 289.221 210.169 293.278 206.985C271.542 201.26 253.792 189.69 239.147 172.753C237.541 174.877 235.78 177.202 234.019 179.528C225.109 191.265 214.782 201.462 201.053 207.283C194.189 210.205 186.813 211.899 179.675 214.129C179.187 214.272 178.687 214.344 178.497 214.38C178.568 220.713 178.568 226.951 178.747 233.177C178.973 240.941 175.963 247.537 171.954 253.906C166.255 262.971 157.642 266.49 147.529 267.193C139.725 267.742 131.968 267.479 124.818 263.687C119.179 260.693 114.278 256.661 110.078 251.926C103.452 244.448 97.3485 236.504 92.2923 227.857C86.5937 218.089 83.4529 207.342 81.5732 196.238C80.5739 190.334 79.8958 184.359 79.2534 178.407C78.2302 168.984 80.6215 160.206 84.6902 151.833C89.5917 141.743 97.5983 135.719 108.639 133.763C118.097 132.094 126.912 134.264 135.454 138.176C147.232 143.58 155.857 152.43 162.674 163.236C166.35 169.068 169.955 174.948 171.561 181.782C171.835 182.939 171.918 184.132 172.084 185.289C182.542 186.434 192.369 184.705 201.458 179.397C210.928 173.875 219.719 167.422 227.75 159.932C228.059 159.645 228.333 159.335 228.333 159.335C226.477 155.865 224.74 152.573 222.932 149.317C222.706 148.899 222.099 148.613 221.599 148.446C201.612 141.683 186.801 128.933 177.224 110.052C176.903 109.42 176.344 108.788 175.749 108.442C163.079 101.107 149.766 95.2624 135.763 91.0401C128.72 88.9171 121.392 88.3088 114.052 88.2611C105.95 88.2014 97.8957 87.8794 90.1033 85.3509C84.714 83.6095 79.753 80.9855 75.1252 77.7652C67.1543 72.2071 58.422 68.5096 48.738 67.6866C42.3969 67.1499 36.0083 67.4004 29.6316 67.2453C23.8973 67.1141 18.1512 67.1738 12.4526 66.6609C8.20539 66.2792 5.29067 63.0827 4.64824 59.2422C3.99391 55.2823 5.5286 51.7877 9.43077 49.8077C11.8577 48.5792 12.9165 47.2553 13.4162 44.4047C14.5583 37.8686 18.8174 33.6464 25.2536 32.0004C29.0725 31.0343 33.0103 30.5691 37.4122 29.7819C40.196 25.1065 45.6448 23.9257 51.0578 23.0669C62.336 21.2898 72.6863 24.0092 82.18 30.2471C83.3221 30.9985 84.2143 32.4059 85.4278 31.7857C85.8085 27.3249 85.5349 22.9596 86.6889 19.0236C88.5805 12.6067 93.0418 8.11019 99.7992 6.61929C107.223 4.98526 111.863 8.65884 112.291 16.2684C112.386 18.0336 112.398 19.8227 112.291 21.5879C111.803 30.2352 114.504 38.0117 118.608 45.4424C123.153 53.6602 129.613 60.1963 136.537 66.3508C144.769 73.6622 153.716 79.8166 163.888 84.1343C165.969 85.0169 167.956 86.1142 170.145 87.1876C170.026 85.6967 169.895 84.2893 169.788 82.8938C168.373 63.9534 173.31 46.8498 184.564 31.583C185.516 30.2948 185.754 29.3645 185.064 27.7543C179.794 15.2665 188.324 1.43095 201.85 0.739174C207.513 0.45292 212.665 2.28971 216.388 6.98903C247.713 -6.16669 286.592 6.08257 304.592 31.4875C307.875 30.2471 310.98 28.6727 314.287 27.9213C321.33 26.3111 328.528 29.6865 332.085 35.8529C335.476 41.7211 334.655 49.4976 329.991 54.9603C326.886 58.5862 323.198 61.3771 318.285 62.6295C318.428 63.6433 318.558 64.5856 318.737 65.8498C323.591 61.9854 329.194 60.6138 334.512 58.5027C341.912 55.5567 349.312 56.1172 356.831 57.7393C364.254 59.3495 370.345 63.5479 376.377 67.8178C385.05 73.9484 393.592 80.3056 399.505 89.3584C401.372 92.2209 403.549 93.4494 406.821 94.3082C418.218 97.29 426.986 103.707 431.138 115.288L431.126 115.276ZM429.27 124.079C429.961 117.28 426.713 111.65 422.394 106.772C417.861 101.643 411.687 99.1387 405.322 97.0753C403.787 96.5744 402.181 96.0019 400.944 95.0358C399.433 93.843 398.196 92.2567 396.994 90.73C388.548 79.9717 377.733 72.052 366.217 65.0269C358.46 60.2918 349.835 58.5981 340.924 59.9339C333.429 61.0551 326.339 63.8222 319.772 67.6866C319.355 67.9252 319.141 68.8078 319.141 69.3803C319.106 74.0558 319.141 78.7312 319.141 83.4067C319.141 84.0985 319.07 84.7903 319.046 85.16C322.092 82.7865 325.054 80.3653 328.147 78.1229C330.348 76.5247 332.894 76.3935 335.381 77.3477C337.189 78.0395 339.045 78.8147 340.591 79.9478C343.804 82.2975 346.944 84.7545 349.883 87.4262C353.476 90.6704 356.854 94.1531 360.281 97.5763C361.22 98.5185 360.697 99.0791 359.614 99.4488C357.818 100.045 355.962 100.522 354.297 101.393C349.11 104.124 345.707 108.144 345.6 114.346C345.54 117.781 347.158 120.584 349.098 123.172C353.725 129.386 359.495 133.358 367.74 132.475C369.525 132.284 369.846 131.402 369.679 130.018C369.501 128.587 369.156 127.168 368.882 125.748C368.442 123.446 367.99 121.144 367.466 118.377C368.097 118.831 368.394 118.926 368.454 119.093C369.679 122.79 371.428 126.416 371.94 130.221C372.57 134.825 371.773 136.161 367.514 137.02C365.444 137.437 363.279 137.437 360.887 137.64C360.554 139.894 359.531 142.339 361.113 144.474C362.327 146.108 363.897 147.635 365.61 148.732C373.022 153.443 380.898 153.396 388.762 150.104C392.319 148.601 394.329 145.512 394.484 141.588C394.746 134.813 393.556 128.253 391.094 121.932C390.903 121.431 390.856 120.894 390.749 120.369C390.927 120.298 391.105 120.214 391.284 120.143C391.819 120.87 392.533 121.55 392.866 122.361C394.377 126.154 396.031 129.923 397.125 133.847C397.875 136.531 397.934 139.441 397.982 142.256C398.017 144.641 399.183 145.941 401.563 145.679C406.916 145.07 410.509 141.886 413.269 137.568C413.84 136.674 414.245 135.35 414.066 134.336C413.448 130.937 412.936 127.442 411.639 124.281C410.093 120.512 407.773 117.053 405.822 113.451C405.322 112.545 404.965 111.567 404.537 110.625L405.096 110.267C405.56 110.637 406.107 110.947 406.476 111.412C409.212 114.787 412.222 118.008 414.566 121.657C416.362 124.472 417.623 127.728 418.54 130.961C419.122 133.024 418.647 135.374 418.647 137.58C425.261 135.934 428.39 132.702 429.27 124.102V124.079ZM373.891 187.603C374.676 184.084 374.712 181.067 372.285 177.787C366.895 170.487 359.84 166.122 351.096 165.239C339.818 164.082 328.849 165.955 318.475 170.857C315.227 172.396 311.908 173.803 308.517 175.008C301.225 177.608 293.789 179.588 285.925 178.371C282.44 177.834 278.954 177.226 275.528 176.391C268.116 174.578 261.097 171.811 255.089 166.921C252.9 165.144 250.746 163.319 248.343 161.327C247.368 165.323 246.571 169.092 245.5 172.789C245.036 174.376 245.369 175.306 246.511 176.379C259.931 189.07 274.992 198.898 293.135 203.442C296.954 204.396 300.713 205.565 304.508 206.627C304.508 206.853 304.52 207.056 304.52 207.283C303.045 207.426 301.546 207.748 300.083 207.653C297.882 207.509 296.145 208.356 294.61 209.74C293.492 210.754 292.397 211.815 291.398 212.96C284.878 220.379 280.643 228.728 281.286 238.926C281.773 246.75 284.319 253.99 288.781 260.335C293.135 266.525 298.715 271.225 306.293 273.503C309.457 274.457 311.849 274.135 314.43 272.608C317.952 270.521 321.58 268.589 325.042 266.382C337.058 258.701 346.766 248.825 353.94 236.373C358.901 227.738 362.91 218.697 366.955 209.644C370.119 202.56 372.213 195.177 373.903 187.651L373.891 187.603ZM310.266 40.3852C317.749 35.173 325.827 35.018 330.289 41.1009C328.469 31.2848 315.358 27.5754 306.697 34.5051C307.851 36.4254 309.029 38.3457 310.254 40.3972L310.266 40.3852ZM260.609 146.955C298.191 138.069 321.616 102.753 315.334 64.347C313.3 51.9189 308.006 40.9458 300.225 31.0582C292.421 21.1347 282.13 14.4674 271.042 9.12401C264.463 5.95137 257.064 5.06875 249.735 4.34119C245.928 3.95952 243.299 4.79442 242.074 8.64692C241.871 9.29099 241.395 9.86349 241.05 10.4598C230.95 27.8974 228.142 47.2434 226.453 66.8637C226.072 71.3244 226.358 75.8449 226.263 80.3295C226.203 82.8461 225.977 85.3509 225.823 87.8675L224.347 87.8317C222.563 58.3834 225.192 30.0682 241.955 3.9953C237.22 4.72286 232.83 5.08068 228.583 6.08256C182.375 16.9363 158.32 68.2472 181.15 110.982C196.318 139.369 229.38 154.338 260.609 146.955ZM247.725 151.762C244.489 151.762 241.598 151.714 238.707 151.809C238.171 151.821 237.541 152.358 237.172 152.823C235.328 155.137 233.746 157.689 231.735 159.836C223.907 168.293 214.735 175.115 204.908 181.043C194.451 187.352 183.279 190.215 171.049 187.901C169.8 187.663 169.598 187.09 169.348 186.1C168.551 182.987 167.944 179.791 166.743 176.845C163.59 169.175 158.736 162.52 153.513 156.139C145.995 146.943 136.43 140.884 124.961 137.89C115.527 135.433 106.461 136.042 97.9552 141.23C97.5745 141.468 97.2414 141.779 96.9321 142.029C99.1211 142.971 101.274 143.699 103.226 144.808C110.697 149.09 116.586 155.185 121.666 162.019C127.709 170.153 132.563 179.015 136.584 188.319C142.687 202.428 148.219 216.705 149.504 232.246C150.349 242.408 148.993 252.177 144.186 261.289C143.699 262.208 143.258 263.15 142.687 264.283C153.704 264.271 163.257 261.969 169.431 252.022C173.108 246.106 175.796 239.963 175.57 232.831C175.392 227.273 175.38 221.703 175.106 216.145C174.999 213.747 175.689 212.328 178.39 211.35C179.746 210.849 181.174 210.551 182.589 210.205C193.844 207.426 204.444 203.204 213.64 195.928C221.183 189.964 227.429 182.796 233.222 175.175C238.695 167.971 243.584 160.409 247.713 151.75L247.725 151.762ZM205.384 12.559C208.191 11.0801 210.963 9.56531 213.783 8.03862C206.823 0.727241 194.213 2.68331 188.942 12.1416C189.406 12.0462 189.644 12.0342 189.846 11.9508C194.796 10.0424 199.685 10.0185 204.503 12.4159C204.753 12.5471 205.158 12.6664 205.372 12.559H205.384ZM174.166 103.719C173.084 99.58 171.918 95 170.681 90.4318C170.574 90.0263 170.062 89.5492 169.646 89.418C160.461 86.2812 151.681 82.2736 144.02 76.2385C138.131 71.5868 132.218 66.8756 126.9 61.6038C115.313 50.1059 108.496 36.4015 109.257 19.5722C109.352 17.6281 109.138 15.6482 108.769 13.7398C108.305 11.2709 106.676 9.78 104.165 9.3387C100.477 8.67077 97.3485 9.88735 94.517 12.1774C88.9374 16.662 87.8548 22.7449 88.3069 29.4241C88.4258 31.1178 88.5567 32.4536 90.7814 32.1912C91.4357 32.1077 92.1495 32.3463 92.8158 32.5371C95.0643 33.1573 97.408 33.5867 99.4661 35.5666C98.8832 35.5666 98.6571 35.6144 98.4668 35.5666C92.102 33.6225 85.5825 33.2647 79.0749 34.4455C68.5938 36.3538 60.0994 41.7807 53.116 49.76C52.7829 50.1417 51.9263 50.1894 51.3077 50.1775C50.8556 50.1775 50.4154 49.7362 49.9395 49.6288C41.2905 47.7324 32.5701 47.4819 23.8022 48.5673C19.4717 49.104 15.1175 49.7958 11.3343 52.0858C9.87095 52.9685 8.41954 54.4713 7.8128 56.0338C6.40897 59.6477 9.12145 63.369 13.4638 63.5837C19.9357 63.9176 26.4552 64.0131 32.9389 63.7984C48.4643 63.2855 63.3116 65.3131 76.3505 74.6641C86.5342 81.9754 97.9909 85.1004 110.376 84.838C124.557 84.5517 138.083 87.3427 151.015 93.0558C158.903 96.5505 166.683 100.26 174.166 103.719ZM142.247 259.464C145.079 253.62 146.363 247.394 146.34 240.953C146.28 227.821 143.056 215.238 139.321 202.774C136.56 193.614 132.147 185.158 127.947 176.618C124.39 169.378 120 162.687 114.278 156.938C109.257 151.905 103.975 147.253 97.2295 144.605C95.1713 143.794 94.2791 143.961 93.0418 145.691C93.2797 145.786 93.4939 145.917 93.7199 145.965C98.4073 146.895 102.512 148.994 106.116 152.119C111.077 156.425 115.206 161.446 118.68 166.981C124.39 176.045 128.661 185.85 132.837 195.678C139.321 210.944 142.925 226.808 142.235 243.458C141.938 250.829 139.487 257.532 135.014 263.639C138.274 264.378 140.534 263.333 141.795 260.502C141.95 260.156 142.081 259.81 142.247 259.464ZM82.0848 31.6784C75.03 29.114 68.7841 25.6074 61.4676 25.1303C54.2462 24.6652 47.3698 25.2973 40.6719 29.2571C53.4491 31.3325 57.8866 32.561 58.5053 34.2547C58.0651 34.3143 57.6487 34.4216 57.2442 34.3859C52.6758 33.9565 48.1074 33.5032 43.539 33.05C37.1504 32.4179 30.8332 32.4179 24.7182 34.7675C22.0771 35.7813 19.674 37.153 18.0679 39.5503C16.8425 41.3752 15.7004 43.3074 15.6766 45.5736C27.8352 42.5798 39.6131 43.7964 51.3672 46.814C58.7194 36.3419 69.9738 33.6225 82.0848 31.7022V31.6784Z" fill="black"/>
<path d="M422.406 106.772C426.725 111.65 429.972 117.292 429.282 124.078C428.402 132.678 425.273 135.91 418.659 137.556C418.659 135.35 419.134 133 418.551 130.937C417.635 127.704 416.374 124.436 414.578 121.633C412.234 117.984 409.236 114.763 406.488 111.388C406.119 110.935 405.572 110.625 405.108 110.243L404.549 110.601C404.977 111.543 405.346 112.521 405.834 113.427C407.785 117.029 410.105 120.488 411.651 124.257C412.948 127.418 413.46 130.913 414.078 134.312C414.257 135.326 413.852 136.65 413.281 137.544C410.521 141.85 406.928 145.047 401.575 145.655C399.195 145.929 398.029 144.629 397.994 142.232C397.946 139.417 397.887 136.507 397.137 133.823C396.054 129.899 394.389 126.142 392.878 122.337C392.557 121.526 391.843 120.858 391.296 120.119C391.117 120.19 390.939 120.262 390.76 120.345C390.867 120.87 390.915 121.419 391.105 121.908C393.568 128.229 394.758 134.789 394.496 141.564C394.341 145.488 392.331 148.577 388.774 150.08C380.898 153.372 373.034 153.431 365.622 148.708C363.909 147.623 362.339 146.096 361.125 144.45C359.543 142.327 360.566 139.87 360.899 137.616C363.291 137.413 365.456 137.413 367.526 136.996C371.785 136.137 372.582 134.789 371.951 130.197C371.44 126.404 369.691 122.766 368.466 119.069C368.406 118.902 368.109 118.795 367.478 118.353C368.014 121.121 368.454 123.422 368.894 125.724C369.168 127.144 369.513 128.563 369.691 129.994C369.858 131.378 369.536 132.261 367.752 132.451C359.507 133.334 353.737 129.362 349.11 123.148C347.182 120.56 345.564 117.745 345.612 114.322C345.719 108.12 349.121 104.1 354.308 101.369C355.974 100.498 357.83 100.021 359.626 99.4249C360.709 99.0551 361.232 98.4946 360.293 97.5523C356.866 94.1292 353.488 90.6465 349.895 87.4023C346.956 84.7425 343.815 82.2736 340.603 79.9239C339.057 78.7908 337.201 78.0155 335.392 77.3238C332.906 76.3696 330.36 76.5008 328.159 78.099C325.066 80.3413 322.104 82.7626 319.058 85.1361C319.082 84.7663 319.153 84.0746 319.153 83.3828C319.153 78.7073 319.106 74.0318 319.153 69.3564C319.153 68.7719 319.367 67.9013 319.784 67.6627C326.363 63.7983 333.453 61.0312 340.936 59.91C349.847 58.5742 358.472 60.2798 366.229 65.0029C377.745 72.0281 388.56 79.9477 397.006 90.7061C398.208 92.2447 399.457 93.8191 400.956 95.0118C402.193 95.9898 403.799 96.5624 405.334 97.0514C411.687 99.1148 417.861 101.619 422.406 106.748V106.772Z" fill="#D0E2E1"/>
<path d="M378.304 187.555C379.494 201.725 376.484 215.107 370.56 227.834C366.17 237.268 359.971 245.617 353.595 253.799C346.266 263.186 337.463 270.879 327.291 276.962C325.149 278.25 322.806 279.55 320.402 279.932C318.987 280.158 317.511 280.385 316.084 280.397L316.06 278.56C316.227 278.56 316.381 278.536 316.524 278.5C319.558 277.618 322.651 276.461 325.28 274.743C330.015 271.63 334.512 268.136 338.962 264.629C352.06 254.324 360.911 240.679 368.406 226.092C372.558 218.005 374.759 209.191 375.854 200.198C376.484 194.998 376.318 189.69 376.52 184.442C376.52 184.43 376.532 184.407 376.544 184.383L377.924 184.168C378.102 185.277 378.221 186.41 378.316 187.555H378.304Z" fill="black"/>
<path d="M376.532 184.382C376.532 184.382 376.52 184.419 376.508 184.443V184.382C376.508 184.382 376.52 184.382 376.532 184.382Z" fill="black"/>
<path d="M376.294 184.287C376.294 184.287 376.413 184.323 376.472 184.359C376.437 184.371 376.401 184.383 376.353 184.394C376.33 184.394 376.318 184.323 376.294 184.287Z" fill="black"/>
<path d="M376.508 184.442C376.318 189.69 376.472 194.998 375.842 200.198C374.759 209.191 372.546 218.006 368.394 226.092C360.899 240.691 352.048 254.324 338.95 264.629C334.488 268.136 330.003 271.63 325.268 274.743C322.639 276.461 319.558 277.618 316.512 278.5C316.358 278.536 316.215 278.56 316.048 278.56C314.942 278.56 313.609 277.654 312.681 277.355C318.975 273.503 325.423 269.925 331.466 265.75C341.674 258.689 349.728 249.577 356.069 238.83C362.137 228.573 367.05 217.767 371.535 206.782C374.355 199.912 376.484 192.708 376.27 185.086C376.27 184.884 376.401 184.669 376.496 184.442H376.508Z" fill="black"/>
<path d="M372.296 177.799C374.723 181.091 374.688 184.096 373.903 187.615C372.213 195.153 370.119 202.524 366.955 209.609C362.91 218.673 358.901 227.714 353.94 236.338C346.766 248.801 337.058 258.677 325.042 266.346C321.58 268.553 317.952 270.485 314.43 272.572C311.837 274.111 309.445 274.421 306.293 273.467C298.715 271.201 293.135 266.49 288.781 260.299C284.307 253.954 281.773 246.714 281.286 238.89C280.643 228.68 284.878 220.343 291.398 212.924C292.409 211.779 293.492 210.718 294.61 209.704C296.157 208.321 297.882 207.474 300.083 207.617C301.546 207.712 303.045 207.39 304.52 207.247C304.52 207.02 304.52 206.818 304.508 206.591C300.725 205.53 296.954 204.373 293.135 203.407C274.992 198.862 259.943 189.034 246.511 176.344C245.369 175.27 245.036 174.34 245.5 172.754C246.571 169.056 247.368 165.287 248.343 161.292C250.735 163.283 252.9 165.108 255.089 166.885C261.097 171.776 268.116 174.531 275.528 176.356C278.954 177.19 282.44 177.811 285.925 178.335C293.789 179.552 301.225 177.572 308.518 174.972C311.896 173.767 315.215 172.36 318.475 170.821C328.837 165.919 339.818 164.059 351.096 165.204C359.84 166.098 366.895 170.464 372.285 177.751L372.296 177.799Z" fill="#ACACAC"/>
<path d="M330.301 41.1128C325.839 35.0418 317.749 35.185 310.278 40.3972C309.041 38.3576 307.875 36.4254 306.721 34.5051C315.382 27.5754 328.492 31.2848 330.312 41.1009L330.301 41.1128Z" fill="#D7D7D7"/>
<path d="M286.092 84.9333C285.925 85.1241 285.747 85.303 285.58 85.4939C284.962 85.2792 284.284 85.1957 283.76 84.8498C277.836 81.0212 271.721 81.9753 265.582 84.0865C261.596 85.47 257.682 87.0325 253.721 88.4876C250.782 89.561 247.796 89.6803 244.846 88.5592C244.048 88.261 243.43 87.5215 242.728 86.9967C242.835 86.7701 242.942 86.5554 243.049 86.3407C245.072 86.46 247.106 86.5912 249.581 86.7462C248.058 83.3708 250.473 82.4286 252.448 81.1524C253.756 80.3055 254.994 79.3394 256.124 78.1109C254.375 78.3853 252.626 78.7431 250.877 78.922C248.129 79.2082 247.665 78.8266 246.939 76.0952C246.88 75.8567 246.749 75.642 246.606 75.2961C245.809 75.797 245.107 76.3576 244.31 76.6797C243.894 76.8466 243.299 76.62 242.776 76.5723C242.859 76.0595 242.752 75.3557 243.049 75.0695C244.144 74.0437 245.286 72.9941 246.559 72.2189C256.885 66.0406 267.914 64.7047 279.489 67.6985C280.75 68.0324 281.904 68.7958 283.011 69.6307C280.405 71.217 277.883 69.4637 275.48 69.7142V79.3275C275.765 79.3633 276.598 79.3036 277.3 79.566C279.572 80.401 281.88 81.212 284.01 82.3332C284.89 82.7983 285.378 84.0388 286.044 84.9333H286.092Z" fill="black"/>
<path d="M256.219 114.346C256.873 123.375 253.376 128.945 245.024 132.487C237.898 135.505 230.522 135.409 223.062 134.55C219.065 134.097 215.282 133.036 211.951 130.626C207.144 127.167 205.336 122.158 205.419 116.6C205.526 109.372 214.045 104.363 220.576 107.333C222.146 108.048 223.729 108.752 225.406 109.503V105.472C223.978 105.233 222.622 105.043 221.278 104.768C217.78 104.053 214.413 103.027 211.641 100.641C208.179 97.6715 208.334 93.6043 212.141 91.1234C213.688 90.1096 215.508 89.3821 217.304 88.9408C219.779 88.3325 222.349 88.1297 224.347 87.8315L225.823 87.8673C227.904 88.1536 229.725 88.2967 231.509 88.6664C235.245 89.4179 238.861 90.5271 241.669 93.3061C244.477 96.0852 244.358 99.6395 241.181 101.953C239.54 103.146 237.553 104.053 235.59 104.565C233.127 105.221 230.522 105.353 227.893 105.722C227.785 106.939 227.667 108.239 227.536 109.706C230.153 109.98 232.401 109.229 234.638 108.108C237.279 106.784 239.908 105.281 242.728 104.542C249.176 102.848 255.731 107.774 256.207 114.322L256.219 114.346ZM244.144 129.004C242.085 125.689 238.933 124.4 235.257 124.162C232.223 123.959 230.795 125.104 230.07 128.11C230.034 128.277 229.903 128.408 229.82 128.563C229.653 128.587 229.475 128.623 229.308 128.646C229.118 127.716 228.939 126.786 228.749 125.844C224.906 124.949 221.385 126.786 219.517 130.686C226.572 132.535 238.064 132.761 244.144 128.992V129.004ZM240.456 97.6953C240.694 95.3099 238.528 94.2484 236.72 93.4373C229.903 90.372 222.908 89.7041 215.793 92.3639C214.199 92.9602 212.45 93.6639 212.236 95.6319C212.022 97.6357 213.688 98.578 215.127 99.4964C215.924 99.9973 216.769 100.51 217.673 100.737C220.945 101.548 224.252 102.24 227.333 102.931C230.546 102.335 233.413 101.953 236.197 101.226C238.064 100.737 240.241 99.9377 240.468 97.7073L240.456 97.6953Z" fill="black"/>
<path d="M246.047 13.2745L246.071 14.0856C245.274 14.6223 244.524 15.3737 243.656 15.5646C243.299 15.6361 242.145 14.2406 242.288 13.9186C242.633 13.1433 243.43 12.3442 244.227 12.058C244.643 11.9148 245.429 12.8332 246.047 13.2745Z" fill="black"/>
<path d="M238.719 151.821C241.61 151.726 244.501 151.773 247.736 151.773C243.608 160.445 238.719 167.994 233.246 175.199C227.452 182.82 221.207 189.988 213.664 195.952C204.468 203.227 193.868 207.45 182.613 210.229C181.197 210.575 179.77 210.873 178.414 211.374C175.701 212.352 175.023 213.771 175.13 216.169C175.404 221.727 175.416 227.297 175.594 232.855C175.82 239.999 173.131 246.13 169.455 252.046C163.281 261.993 153.716 264.283 142.711 264.307C143.27 263.174 143.722 262.231 144.21 261.313C149.028 252.189 150.373 242.42 149.528 232.27C148.243 216.729 142.711 202.452 136.608 188.342C132.587 179.039 127.721 170.177 121.689 162.043C116.609 155.209 110.721 149.114 103.249 144.832C101.298 143.723 99.133 143.007 96.9559 142.053C97.2652 141.814 97.5983 141.492 97.979 141.254C106.485 136.077 115.563 135.457 124.985 137.914C136.453 140.908 146.018 146.979 153.537 156.163C158.76 162.532 163.614 169.187 166.767 176.868C167.98 179.814 168.587 183.011 169.372 186.124C169.622 187.114 169.824 187.686 171.073 187.925C183.303 190.227 194.486 187.376 204.932 181.067C214.758 175.127 223.931 168.317 231.759 159.86C233.758 157.701 235.352 155.161 237.196 152.847C237.565 152.382 238.195 151.845 238.731 151.833L238.719 151.821Z" fill="#D0E2E1"/>
<path d="M235.257 124.162C238.945 124.401 242.097 125.689 244.144 129.005C238.064 132.774 226.572 132.535 219.517 130.698C221.373 126.798 224.906 124.961 228.749 125.856C228.939 126.798 229.118 127.728 229.308 128.659C229.475 128.635 229.641 128.599 229.82 128.575C229.903 128.42 230.034 128.289 230.07 128.122C230.795 125.116 232.223 123.971 235.257 124.174V124.162Z" fill="#F16262"/>
<path d="M236.732 93.4258C238.54 94.2369 240.705 95.2984 240.468 97.6838C240.241 99.9023 238.076 100.713 236.197 101.202C233.413 101.93 230.546 102.312 227.333 102.908C224.252 102.216 220.945 101.524 217.673 100.713C216.781 100.487 215.924 99.9739 215.127 99.4729C213.7 98.5545 212.022 97.6123 212.236 95.6085C212.45 93.6405 214.211 92.9368 215.793 92.3404C222.92 89.6926 229.915 90.3486 236.72 93.4139L236.732 93.4258Z" fill="#F16262"/>
<path d="M237.136 29.7461C239.171 29.8296 239.67 30.6526 239.647 31.9049C239.623 33.1811 238.957 33.9922 237.672 33.9683C236.22 33.9325 235.673 32.7756 235.875 31.5948C236.006 30.8195 236.827 30.1755 237.125 29.758L237.136 29.7461Z" fill="black"/>
<path d="M235.721 48.6628V49.5454C234.995 50.0582 234.257 50.9647 233.532 50.9528C232.913 50.9289 231.783 49.7958 231.854 49.271C231.949 48.5196 232.842 47.4939 233.567 47.3388C234.162 47.2196 234.995 48.1737 235.721 48.6508V48.6628Z" fill="black"/>
<path d="M237.684 143.317C236.565 144.152 235.863 145.047 235.34 144.951C234.745 144.844 233.972 143.914 233.889 143.258C233.829 142.792 234.769 141.79 235.292 141.767C235.911 141.743 236.553 142.53 237.684 143.317Z" fill="black"/>
<path d="M231.188 65.5279C231.961 65.6471 232.616 66.5178 233.889 67.4601C232.592 68.3427 231.854 69.2372 231.129 69.2253C230.51 69.2253 229.534 68.2353 229.403 67.5555C229.189 66.4463 229.891 65.3132 231.188 65.5279Z" fill="black"/>
<path d="M232.842 82.7508C231.711 83.5738 231.021 84.4683 230.498 84.3848C229.903 84.2775 229.118 83.3471 229.035 82.6911C228.975 82.226 229.915 81.2241 230.439 81.2002C231.057 81.1764 231.688 81.9636 232.83 82.7508H232.842Z" fill="black"/>
<path d="M219.862 85.7444C219.91 85.983 219.957 86.2096 220.005 86.4362C219.053 86.8059 218.078 87.4858 217.138 87.4619C215.341 87.4023 213.355 87.3427 211.82 86.5555C208.096 84.5994 204.527 82.3333 201.041 79.9836C198.127 78.0037 195.509 75.5347 191.607 75.7613C191.179 75.7852 190.31 75.0696 190.322 74.7356C190.37 74.187 190.846 73.4117 191.345 73.197C192.166 72.8511 193.154 72.875 193.927 72.7676C194.236 70.5014 194.546 68.2711 194.855 66.0407C195.045 64.7048 195.878 64.2754 197.139 64.347C198.817 64.4424 200.506 64.5021 202.255 64.5856C199.994 62.212 197.782 59.9459 195.64 57.6081C195.093 57.0118 194.439 56.1888 194.415 55.4612C194.296 50.9885 195.01 46.647 197.056 42.6156C198.353 40.0632 200.399 38.7393 203.326 38.9659C206.228 39.2044 208.358 40.743 208.977 43.4982C209.857 47.3626 210.476 51.3106 210.785 55.2465C211.332 62.1763 211.439 69.1417 211.963 76.0834C212.153 78.6358 212.962 81.1405 213.593 83.6452C213.7 84.0269 214.354 84.4086 214.83 84.5398C216.507 85.0049 218.197 85.3508 219.886 85.7444H219.862Z" fill="black"/>
<path d="M213.795 8.05047C210.975 9.57715 208.191 11.0919 205.396 12.5709C205.181 12.6782 204.777 12.5709 204.527 12.4278C199.709 10.0304 194.819 10.0542 189.87 11.9626C189.668 12.0342 189.43 12.058 188.966 12.1534C194.236 2.69515 206.835 0.739086 213.807 8.05047H213.795Z" fill="#ACACAC"/>
<path d="M170.693 90.4317C171.93 94.9999 173.096 99.568 174.178 103.719C166.695 100.26 158.915 96.5504 151.027 93.0557C138.095 87.3307 124.568 84.5397 110.387 84.8379C98.0028 85.0883 86.5461 81.9753 76.3624 74.664C63.3235 65.313 48.4881 63.2854 32.9508 63.7983C26.467 64.013 19.9595 63.9175 13.4757 63.5836C9.13334 63.357 6.43276 59.6357 7.82469 56.0337C8.41953 54.4712 9.88284 52.9684 11.3462 52.0857C15.1294 49.7957 19.4836 49.1039 23.814 48.5672C32.582 47.4818 41.3024 47.7323 49.9514 49.6287C50.4273 49.7361 50.8556 50.1655 51.3196 50.1774C51.9382 50.1893 52.7829 50.1535 53.1279 49.7599C60.1113 41.7806 68.6057 36.3537 79.0868 34.4454C85.5944 33.2527 92.102 33.6224 98.4787 35.5665C98.669 35.6262 98.8951 35.5665 99.478 35.5665C97.408 33.5866 95.0762 33.1692 92.8277 32.537C92.1614 32.3462 91.4476 32.1076 90.7933 32.1911C88.5686 32.4535 88.4377 31.1177 88.3188 29.424C87.8667 22.7448 88.9374 16.6738 94.5289 12.1773C97.3723 9.88724 100.489 8.67067 104.177 9.33859C106.687 9.79183 108.317 11.2708 108.781 13.7397C109.15 15.6481 109.352 17.628 109.269 19.5721C108.508 36.4014 115.325 50.1058 126.912 61.6037C132.23 66.8755 138.143 71.5987 144.032 76.2384C151.693 82.2855 160.473 86.2811 169.658 89.4179C170.074 89.561 170.585 90.0262 170.693 90.4317Z" fill="#ACACAC"/>
<path d="M146.352 240.953C146.375 247.394 145.091 253.62 142.259 259.464C142.093 259.81 141.962 260.156 141.807 260.502C140.546 263.333 138.286 264.378 135.026 263.639C139.499 257.532 141.95 250.829 142.247 243.458C142.925 226.808 139.332 210.945 132.849 195.678C128.673 185.85 124.402 176.045 118.691 166.981C115.206 161.447 111.089 156.425 106.128 152.119C102.524 148.995 98.4192 146.895 93.7318 145.965C93.5058 145.917 93.2916 145.786 93.0537 145.691C94.291 143.949 95.1832 143.782 97.2414 144.605C103.987 147.253 109.269 151.905 114.29 156.938C120.012 162.687 124.402 169.378 127.959 176.618C132.159 185.158 136.584 193.614 139.332 202.774C143.08 215.238 146.304 227.822 146.352 240.953Z" fill="black"/>
<path d="M61.4676 25.1305C68.7842 25.6195 75.03 29.1142 82.0848 31.6785C69.9738 33.5988 58.7075 36.3063 51.3672 46.7903C39.6131 43.7727 27.8352 42.5561 15.6766 45.5499C15.7004 43.2837 16.8425 41.3515 18.0679 39.5266C19.674 37.1293 22.0771 35.7576 24.7182 34.7438C30.8332 32.3941 37.1504 32.3941 43.5391 33.0263C48.1074 33.4795 52.6758 33.9328 57.2442 34.3621C57.6487 34.3979 58.0651 34.2906 58.5053 34.2309C57.8867 32.5373 53.4491 31.3088 40.6719 29.2334C47.3698 25.2736 54.2343 24.6415 61.4676 25.1066V25.1305Z" fill="#ACACAC"/>
<path d="M269.603 14.0259C279.001 19.25 287.662 25.9054 294.943 33.8728C298.619 37.928 302.307 42.1622 304.473 47.3028C306.65 52.3957 307.851 58.1089 306.959 63.6193L306.483 63.655C305.555 61.0788 304.663 58.6456 303.616 56.284C301.522 51.5728 298.905 47.267 296.311 42.8301C293.73 38.3216 290.47 34.2187 286.948 30.39C281.631 24.5218 275.73 19.1904 269.365 14.4553L269.615 14.0378L269.603 14.0259Z" fill="#F3F3F3"/>
</svg>
