<svg id="Layer_1" data-name="Layer 1" xmlns="http://www.w3.org/2000/svg" viewBox="0 0 247.81 247.81"><defs><style>.cls-1{fill:#8e8f92;}.cls-2{fill:#0d1c25;}</style></defs><path class="cls-1" d="M205.86,105.13a26.94,26.94,0,0,0,10.06-16.06c2.07-10.3-.83-19.14-8.47-26.35A26.13,26.13,0,0,0,193.83,56,27.59,27.59,0,0,0,165.9,67.64l-1,1.44c-.36-.14-.68-.26-1-.4a93.52,93.52,0,0,0-19.56-6.06c-3.11-.61-6.25-1-9.41-1.36-3.68-.35-7.37-.54-11.07-.55s-7.38.2-11.07.55c-3.16.31-6.3.75-9.41,1.36a93.89,93.89,0,0,0-19.56,6.06c-.31.14-.63.26-1,.4-.36-.53-.66-1-1-1.44A27.58,27.58,0,0,0,54,56a26.1,26.1,0,0,0-13.62,6.76c-7.64,7.21-10.55,16-8.48,26.35A27,27,0,0,0,42,105.13c.3.24.73.38.78.85a1.31,1.31,0,0,1,0,.15l-.83,1.61a75.25,75.25,0,0,0-8.52,31.4,116.38,116.38,0,0,0,.48,18.57,81.32,81.32,0,0,0,2.12,11.58l.48,1.77c.31,1.13.68,2.25,1.08,3.35l.86,2.3c.28.76.81,2,1.18,2.71h0l1,2.05a11,11,0,0,0-1,.73,2.89,2.89,0,0,0,.29,4.67,4,4,0,0,0,1.39.53c4.41.8,8.84,1.41,13.3,1.86l7.94.83c9.42.84,18.77,1.35,28.12,1.75.34,0,.68.08,1.11.13l6.58.14c.49,0,1,0,1.58,0,1.06,0,2.13.1,3.2.11q10.44,0,20.88.06t20.89-.06c1.07,0,2.13-.06,3.2-.11.54,0,1.09,0,1.57,0l6.58-.14c.44-.05.78-.12,1.12-.13,9.35-.4,18.69-.91,28.12-1.75l7.93-.83c4.46-.45,8.9-1.06,13.31-1.86a4,4,0,0,0,1.39-.53,2.89,2.89,0,0,0,.29-4.67c-.3-.26-.64-.47-1-.73.33-.69.65-1.37,1-2.05h0c.36-.73.89-1.95,1.18-2.71l.85-2.3c.41-1.1.77-2.22,1.09-3.35l.48-1.77A81.29,81.29,0,0,0,214,157.71a115.22,115.22,0,0,0,.48-18.57,75.24,75.24,0,0,0-8.51-31.4c-.28-.53-.56-1.07-.83-1.61a1.31,1.31,0,0,1,0-.15C205.13,105.51,205.56,105.37,205.86,105.13Zm-33.2-26.74a16,16,0,0,1,4.18,2.76c-.7,1.82-1.44,3.68-2.12,5.57s-1.34,3.9-2,5.86-1.17,3.83-1.78,5.82l-4.5-2.4C167.9,90.5,171.16,81.24,172.66,78.39Zm-8.92,3.79a2.42,2.42,0,1,1-2.42,2.41A2.47,2.47,0,0,1,163.74,82.18Zm-45.11,50.87a6.46,6.46,0,0,1,1.5-1,7.31,7.31,0,0,1,3.57-.64,1.33,1.33,0,0,1,.2,0,1.47,1.47,0,0,1,.21,0,7.31,7.31,0,0,1,3.57.64,6.4,6.4,0,0,1,1.49,1,1.19,1.19,0,0,1,0,1.95,4,4,0,0,1-1.11.76,10.06,10.06,0,0,1-8.23,0,4,4,0,0,1-1.12-.76A1.2,1.2,0,0,1,118.63,133.05ZM84.07,82.18a2.42,2.42,0,1,1-2.4,2.43A2.46,2.46,0,0,1,84.07,82.18Zm-8.92-3.79c1.5,2.85,4.76,12.11,6.19,17.61l-4.5,2.4c-.61-2-1.17-3.91-1.79-5.82s-1.27-3.92-2-5.86S71.67,83,71,81.15A15.86,15.86,0,0,1,75.15,78.39Zm-22.1,28.92a5.32,5.32,0,0,1-.39.65,62.06,62.06,0,0,0-7.29,16.36A72.69,72.69,0,0,0,42.56,141a73.79,73.79,0,0,0,.31,11.61c.07.7.14,1.41.14,2.11A1.37,1.37,0,0,1,41.93,156a1.35,1.35,0,0,1-1.5-.76,2.87,2.87,0,0,1-.23-.87,63.39,63.39,0,0,1-.54-9.64c0-1.31-.06-2.62,0-3.93.1-1.76.28-3.51.48-5.27A71.17,71.17,0,0,1,45,116.69a57.63,57.63,0,0,1,5-9.8,6.77,6.77,0,0,1,.91-1.2,1.43,1.43,0,0,1,1.81,0A1.33,1.33,0,0,1,53.05,107.31Zm-.19-15.86a10.09,10.09,0,0,1-3.81-11,10.29,10.29,0,0,1,9.43-7.46,10.18,10.18,0,0,1,5.77,1.44A7.93,7.93,0,0,1,67.61,78,86.56,86.56,0,0,0,52.86,91.45Zm13,.13a2.43,2.43,0,0,1,2.4-2.42,2.5,2.5,0,0,1,2.41,2.43A2.46,2.46,0,0,1,68.3,94,2.39,2.39,0,0,1,65.91,91.58ZM88.28,145a23.48,23.48,0,0,1-18.86-16,23.87,23.87,0,0,1,6.28-24.84c6.57-6.25,16.18-7.88,23.15-5.41a22.87,22.87,0,0,1,.45,3.56,22.57,22.57,0,0,0-8.55-1.22A20.31,20.31,0,0,0,71.6,121.81a20.42,20.42,0,0,0,9.07,16.73,21.5,21.5,0,0,0,4.43,2.26A30.39,30.39,0,0,0,90,142C89.45,143.12,88.86,144.08,88.28,145ZM77.56,121.53a14.49,14.49,0,1,1,29,0c.15,8.22-7,14.51-14.49,14.52A14.53,14.53,0,0,1,77.56,121.53Zm29.06,48.9a17.24,17.24,0,0,1-7.42-2.82,15.39,15.39,0,0,1-6.49-17.18,16.51,16.51,0,0,1,8.44-10.55c.7-.39,1.39-.8,2.09-1.2a11.51,11.51,0,0,1,1.46-.79c1.75-.63,3.51-1.23,5.27-1.82a2.28,2.28,0,0,1,.73,0c-3,8.42,1.2,16.75,9.91,19.19,0,.38.06.78.06,1.17,0,1.92,0,3.84,0,5.75a3.93,3.93,0,0,1-1.25,3.12,21,21,0,0,1-1.82,1.58,18.32,18.32,0,0,1-7.11,3.2A11.07,11.07,0,0,1,106.62,170.43Zm29.52,6.36a20.24,20.24,0,0,1-5.71,1.87,33.63,33.63,0,0,1-13.06,0,20.08,20.08,0,0,1-5.7-1.87c-.23-.12-.6-.19-.54-.64a1.49,1.49,0,0,1,.36-.17,24.52,24.52,0,0,0,8.09-3.19,3.36,3.36,0,0,1,1.84-.52c.83,0,1.66,0,2.48,0s1.66,0,2.49,0a3.3,3.3,0,0,1,1.83.52,24.61,24.61,0,0,0,8.09,3.19,1.4,1.4,0,0,1,.37.17C136.74,176.6,136.37,176.67,136.14,176.79Zm12.47-9.18a17.24,17.24,0,0,1-7.42,2.82,11.15,11.15,0,0,1-3.9-.33,18.34,18.34,0,0,1-7.1-3.2,19.75,19.75,0,0,1-1.83-1.58,3.92,3.92,0,0,1-1.24-3.12c.07-1.91,0-3.83,0-5.75,0-.39,0-.79.06-1.17,8.71-2.44,13-10.77,9.91-19.19a2.21,2.21,0,0,1,.72,0c1.77.59,3.53,1.19,5.28,1.82a10.76,10.76,0,0,1,1.45.79l2.1,1.2a16.46,16.46,0,0,1,8.43,10.55A15.39,15.39,0,0,1,148.61,167.61Zm7.16-31.55c-7.49,0-14.64-6.3-14.49-14.52a14.49,14.49,0,1,1,29,0A14.53,14.53,0,0,1,155.77,136.06Zm22.61-7a23.45,23.45,0,0,1-18.85,16,32.6,32.6,0,0,1-1.74-3,30.77,30.77,0,0,0,4.92-1.18,21.76,21.76,0,0,0,4.43-2.26,20.17,20.17,0,0,0,3.77-3.25,20.5,20.5,0,0,0,4.64-8.54,19.2,19.2,0,0,0,.65-4.94,20.15,20.15,0,0,0-.5-5,20.51,20.51,0,0,0-18.64-15.74,22.52,22.52,0,0,0-8.55,1.22,22.87,22.87,0,0,1,.45-3.56c7-2.47,16.57-.84,23.15,5.41A23.86,23.86,0,0,1,178.38,129Zm1.13-35a2.45,2.45,0,0,1-2.42-2.4,2.5,2.5,0,0,1,2.41-2.43,2.43,2.43,0,0,1,2.4,2.42A2.4,2.4,0,0,1,179.51,94Zm.69-16a7.91,7.91,0,0,1,3.35-3.58,10.33,10.33,0,0,1,15.21,6,10.07,10.07,0,0,1-3.82,11A86.12,86.12,0,0,0,180.2,78Zm27.45,57.54c.19,1.76.38,3.51.48,5.27.08,1.31,0,2.62,0,3.93a62.14,62.14,0,0,1-.55,9.64,2.59,2.59,0,0,1-.22.87,1.35,1.35,0,0,1-2.58-.53c0-.7.07-1.41.14-2.11a73.79,73.79,0,0,0,.31-11.61,72.17,72.17,0,0,0-2.82-16.64A62,62,0,0,0,195.15,108a4.3,4.3,0,0,1-.39-.65,1.31,1.31,0,0,1,.37-1.63,1.42,1.42,0,0,1,1.8,0,6.37,6.37,0,0,1,.92,1.2,58.37,58.37,0,0,1,5,9.8A71.56,71.56,0,0,1,207.65,135.5Z"/><path class="cls-2" d="M166.61,121.54c-3.44-.09-6.91,0-10.66-.06a25.57,25.57,0,0,1,1.69-2.21c.56-.71,1.14-1.41,1.71-2.12s1.08-1.33,1.6-2a15.65,15.65,0,0,0,1.62-2.12c-2.74-2.81-8.95-3.65-13.31-.44a11.06,11.06,0,0,0,9.86,19.49C163.75,130.58,167.25,125.74,166.61,121.54Z"/><path class="cls-2" d="M103,121.54c-3.44-.09-6.91,0-10.65-.06A25.65,25.65,0,0,1,94,119.27c.56-.71,1.14-1.41,1.71-2.12s1.08-1.33,1.61-2A16.44,16.44,0,0,0,98.93,113c-2.74-2.81-9-3.65-13.31-.44a11.06,11.06,0,0,0,9.86,19.49C100.11,130.58,103.61,125.74,103,121.54Z"/></svg>