<svg width="108" height="112" viewBox="0 0 108 112" fill="none" xmlns="http://www.w3.org/2000/svg">
<path d="M9.92174 33.7466L11.8101 31.1001L20.9321 32.9147L16.2591 24.8746L18.1475 22.228L29.8665 30.6019L28.1656 32.9787L20.6989 27.6445L24.8003 34.3911L23.5338 36.1646L15.8156 34.4688L23.2823 39.803L21.6316 42.1113L9.9126 33.742L9.92174 33.7466Z" fill="#F46262"/>
<path d="M31.1058 24.3031L32.2032 25.9715C32.3861 26.2457 32.5553 26.2823 32.8296 26.0995L35.0106 24.6642C35.285 24.4814 35.3216 24.3123 35.1387 24.038L34.6631 23.3158L37.0362 21.7571L37.5575 22.5479C38.5634 24.0791 38.3211 25.2447 36.7939 26.2503L33.5795 28.3666C32.0523 29.3722 30.8818 29.1299 29.8758 27.6033L26.7072 22.7902C25.7012 21.2635 25.9436 20.0933 27.4708 19.0877L30.6852 16.976C32.2123 15.9704 33.3829 16.2127 34.3888 17.7393L36.4144 20.8155L31.1012 24.3077L31.1058 24.3031ZM29.126 21.2955L30.0542 22.7033L32.9942 20.7698L32.066 19.362C31.8831 19.0878 31.7139 19.0512 31.4396 19.234L29.2586 20.6693C28.9842 20.8521 28.9476 21.0212 29.1305 21.2955H29.126Z" fill="#F46262"/>
<path d="M40.1865 21.6021L38.138 15.8245L36.588 16.373L35.8198 14.2018L37.411 13.6396L36.5148 11.1211L39.112 10.1978L40.0081 12.7163L42.2943 11.9027L43.0625 14.0739L40.8129 14.8692L42.8202 20.5279C42.9299 20.8387 43.0899 20.9119 43.3963 20.8022L45.2207 20.1531L46.0026 22.3654L43.5975 23.2202C41.8737 23.8327 40.7946 23.3207 40.1819 21.5929L40.1865 21.6021Z" fill="#F46262"/>
<path d="M46.2039 18.9827C45.9798 16.6698 46.9858 15.7237 48.7416 15.3077C49.6286 15.0974 50.9089 14.8278 52.2714 14.6358L52.1297 13.164C52.0977 12.8349 51.9651 12.7252 51.6359 12.7572L49.2582 12.9857C48.929 13.0177 48.8193 13.1503 48.8513 13.4794L48.9153 14.133L46.1307 14.4027L46.0576 13.6439C45.8792 11.8201 46.6383 10.9014 48.4626 10.7231L52.0245 10.3803C53.8489 10.202 54.768 10.9608 54.9463 12.7846L55.7602 21.1813L52.9344 21.4555L52.7698 19.7369C52.1297 20.8339 51.4896 21.6795 49.4823 21.8715C47.3515 22.0772 46.4279 21.2773 46.2039 18.9873V18.9827ZM52.6235 18.2605L52.4452 16.4367L49.5692 17.2732C49.0479 17.4286 48.8742 17.5886 48.9565 18.4296C49.0433 19.3118 49.1805 19.4626 49.7932 19.4032C51.1466 19.2706 51.8234 18.7953 52.6189 18.2605H52.6235Z" fill="#F46262"/>
<path d="M59.3405 6.61865L62.1617 6.95233L60.3876 21.8625L57.5664 21.5288L59.3405 6.61865Z" fill="#F46262"/>
<path d="M67.566 8.46094L74.6258 11.0846C76.4593 11.7657 77.0035 12.9541 76.3222 14.787L75.65 16.5971C75.3117 17.5021 74.7264 18.0735 73.661 18.2289C74.4658 19.0105 74.5938 19.9155 74.2554 20.8206L73.469 22.9414C72.7877 24.7744 71.5989 25.3183 69.7654 24.6372L62.5547 21.9587L67.5752 8.46551L67.566 8.46094ZM70.2272 21.9587C70.5152 22.0638 70.6478 22.0044 70.7576 21.7165L71.6629 19.2893C71.7726 19.0014 71.7086 18.8688 71.4206 18.7591L67.4471 17.2827L66.2583 20.4823L70.2317 21.9587H70.2272ZM72.1521 16.3091C72.4402 16.4142 72.5728 16.3548 72.6825 16.0669L73.469 13.946C73.5787 13.658 73.5147 13.5255 73.2267 13.4158L69.4087 11.9942L68.3342 14.8876L72.1521 16.3045V16.3091Z" fill="#F46262"/>
<path d="M78.5352 24.3626L77.2961 25.9259C77.0903 26.1864 77.1132 26.3555 77.3692 26.5612L79.4177 28.1839C79.6737 28.3896 79.8475 28.3667 80.0532 28.1107L80.5882 27.4343L82.815 29.1986L82.2251 29.9391C81.0866 31.3743 79.9023 31.5115 78.4666 30.3733L75.4488 27.9873C74.0131 26.8492 73.8759 25.6653 75.0145 24.2301L78.5901 19.7141C79.7286 18.2788 80.9128 18.1417 82.3486 19.2798L85.3664 21.6658C86.8021 22.804 86.9393 23.9878 85.8007 25.4231L83.5145 28.3073L78.5306 24.3626H78.5352ZM80.7711 21.5424L79.724 22.8634L82.4812 25.0483L83.5283 23.7273C83.734 23.4713 83.7112 23.2976 83.4551 23.0919L81.4067 21.4693C81.146 21.2636 80.9769 21.2864 80.7711 21.5424Z" fill="#F46262"/>
<path d="M83.7796 30.9219C85.6863 29.5918 87.0031 30.0031 88.2285 31.3287C88.8458 32.0006 89.71 32.9788 90.5467 34.0758L91.763 33.2256C92.0328 33.0382 92.0648 32.8645 91.8773 32.5948L90.5102 30.6385C90.3227 30.3688 90.1489 30.3368 89.8792 30.5288L89.3396 30.9036L87.7393 28.609L88.3657 28.1748C89.8654 27.1281 91.0406 27.3338 92.0922 28.8376L94.1406 31.7721C95.1877 33.2713 94.982 34.446 93.4776 35.4973L86.5642 40.3287L84.9364 38.0022L86.3539 37.0103C85.0873 36.992 84.0311 36.8503 82.8788 35.1956C81.6534 33.445 81.8958 32.2429 83.7842 30.9265L83.7796 30.9219ZM87.5655 36.1555L89.0653 35.1088L86.9254 33.0153C86.5367 32.636 86.3127 32.5674 85.6177 33.0519C84.8907 33.5593 84.8267 33.7558 85.1833 34.2586C85.9606 35.3693 86.7105 35.7259 87.5655 36.1601V36.1555Z" fill="#F46262"/>
<path d="M97.616 38.0752L98.6036 40.74L96.9804 41.3388C98.2013 41.677 99.1112 42.1067 99.701 43.7111L100.007 44.5384L97.4971 45.4663L97.0124 44.1544C96.6329 43.1306 96.1894 42.5272 95.4715 41.8964L88.1786 44.5978L87.1909 41.933L97.6114 38.0752H97.616Z" fill="#F46262"/>
<path d="M99.8745 79.9949L98.0136 82.6597L88.8733 80.941L93.6332 88.9309L91.7722 91.5957L79.9663 83.3499L81.6398 80.9548L89.1614 86.2113L84.9868 79.5058L86.2351 77.7186L93.9716 79.3321L86.45 74.0756L88.0777 71.749L99.8882 79.9949H99.8745Z" fill="#F46262"/>
<path d="M78.8095 89.6438L77.6939 87.9891C77.511 87.7149 77.3372 87.6829 77.0629 87.8657L74.8956 89.3238C74.6212 89.5067 74.5892 89.6804 74.7721 89.95L75.2568 90.6677L72.902 92.2538L72.3716 91.4676C71.3474 89.9501 71.576 88.7799 73.094 87.756L76.2856 85.6077C77.8036 84.5838 78.9741 84.8124 79.9984 86.3299L83.2173 91.1065C84.2415 92.624 84.0129 93.7942 82.4949 94.818L79.3034 96.9663C77.7853 97.9902 76.6148 97.7617 75.5906 96.2441L73.533 93.1908L78.805 89.6392L78.8095 89.6438ZM80.8214 92.6286L79.8795 91.2299L76.9623 93.1954L77.9042 94.5941C78.0871 94.8683 78.2609 94.9003 78.5306 94.7175L80.6979 93.2594C80.9723 93.0765 81.0043 92.9028 80.8214 92.6332V92.6286Z" fill="#F46262"/>
<path d="M69.7334 92.4598L71.8413 98.2145L73.3868 97.6477L74.1778 99.8097L72.5958 100.39L73.5148 102.9L70.9268 103.846L70.0078 101.336L67.7262 102.173L66.9351 100.011L69.1756 99.1881L67.1089 93.5476C66.9946 93.2368 66.8391 93.1637 66.5282 93.278L64.7129 93.9453L63.9082 91.7421L66.3041 90.8645C68.0234 90.2337 69.107 90.7366 69.7334 92.4552V92.4598Z" fill="#F46262"/>
<path d="M63.7618 95.138C64.0087 97.4463 63.0165 98.4016 61.2653 98.8404C60.3782 99.0598 59.1071 99.3432 57.7399 99.5535L57.9 101.025C57.9366 101.354 58.0737 101.464 58.3984 101.428L60.7714 101.172C61.1007 101.135 61.2104 101.002 61.1738 100.673L61.1052 100.02L63.8852 99.718L63.9675 100.477C64.1642 102.296 63.4143 103.224 61.5945 103.42L58.0326 103.804C56.2128 104.001 55.2846 103.251 55.088 101.432L54.1826 93.0491L57.0038 92.7429L57.1867 94.4615C57.8131 93.36 58.4441 92.5052 60.4514 92.2904C62.5775 92.0618 63.5103 92.848 63.7618 95.1426V95.138ZM57.3467 95.9334L57.5433 97.7526L60.4102 96.8841C60.9315 96.7241 61.1006 96.5596 61.0092 95.7231C60.9132 94.8455 60.776 94.6946 60.1587 94.7586C58.8099 94.9049 58.1377 95.3894 57.3467 95.9288V95.9334Z" fill="#F46262"/>
<path d="M50.7533 107.639L47.9321 107.333L49.5462 92.4092L52.3674 92.7154L50.7487 107.639H50.7533Z" fill="#F46262"/>
<path d="M42.5141 105.894L35.4269 103.348C33.5888 102.689 33.031 101.506 33.6894 99.6635L34.3433 97.8443C34.6725 96.9347 35.2486 96.3542 36.314 96.1896C35.5001 95.4171 35.3629 94.5167 35.6921 93.6071L36.4557 91.4771C37.1141 89.6396 38.303 89.0773 40.1411 89.7401L47.3837 92.3409L42.5141 105.894ZM37.8412 98.0957C37.5531 97.9905 37.4205 98.0545 37.3153 98.3425L36.5517 100.473C36.4466 100.76 36.5106 100.893 36.7986 100.998L40.6349 102.374L41.6774 99.4715L37.8457 98.0957H37.8412ZM39.7021 92.4278C39.4141 92.3227 39.2815 92.3867 39.1763 92.6746L38.2984 95.1109C38.1932 95.4034 38.2572 95.5314 38.5453 95.6365L42.5324 97.0672L43.6892 93.8539L39.7021 92.4232V92.4278Z" fill="#F46262"/>
<path d="M31.3617 90.1056L32.5825 88.5286C32.7837 88.2681 32.7609 88.0944 32.5048 87.8933L30.4381 86.2935C30.1775 86.0923 30.0037 86.1152 29.8025 86.3757L29.2721 87.0568L27.0271 85.3153L27.6078 84.5657C28.728 83.1213 29.9123 82.9704 31.3617 84.0903L34.4023 86.4489C35.8518 87.5687 35.9981 88.7526 34.8779 90.2016L31.348 94.7541C30.2277 96.2031 29.0435 96.3494 27.594 95.2295L24.5534 92.8709C23.104 91.7511 22.9576 90.5672 24.0779 89.1183L26.3366 86.2066L31.3617 90.101V90.1056ZM29.1532 92.9487L30.1866 91.614L27.4066 89.4611L26.3732 90.7958C26.172 91.0563 26.1949 91.23 26.4555 91.4311L28.5222 93.0309C28.7829 93.232 28.9566 93.2092 29.1578 92.9487H29.1532Z" fill="#F46262"/>
<path d="M26.0534 83.6056C24.1604 84.9586 22.8436 84.5609 21.5999 83.2445C20.9735 82.5818 20.1001 81.6082 19.2497 80.5249L18.0426 81.3842C17.7728 81.5762 17.7454 81.7453 17.9374 82.015L19.3228 83.9576C19.5149 84.2273 19.6841 84.2547 19.9538 84.0627L20.4888 83.6788L22.1166 85.9551L21.4993 86.3984C20.0087 87.4634 18.8336 87.2669 17.7682 85.7768L15.6878 82.8651C14.6224 81.375 14.819 80.2003 16.3096 79.1353L23.1728 74.2354L24.8234 76.5436L23.4151 77.5492C24.6817 77.5538 25.7379 77.6864 26.9084 79.3227C28.1521 81.0642 27.9235 82.2618 26.0488 83.6011L26.0534 83.6056ZM22.2126 78.4086L20.722 79.4736L22.8847 81.5442C23.278 81.919 23.502 81.9875 24.1924 81.4985C24.9103 80.9865 24.9743 80.79 24.6177 80.2872C23.8266 79.181 23.0768 78.8336 22.2172 78.4131L22.2126 78.4086Z" fill="#F46262"/>
<path d="M12.1349 76.5893L11.1199 73.9382L12.7339 73.3212C11.5085 72.9966 10.5986 72.5761 9.98591 70.9809L9.67041 70.1536L12.1669 69.1982L12.6653 70.5055C13.054 71.5248 13.5067 72.1236 14.2291 72.7498L21.4946 69.9707L22.5097 72.6218L12.1304 76.5893H12.1349Z" fill="#F46262"/>
<path d="M13.0039 60.3218C15.0216 60.3218 16.6573 58.6867 16.6573 56.6697C16.6573 54.6527 15.0216 53.0176 13.0039 53.0176C10.9862 53.0176 9.35059 54.6527 9.35059 56.6697C9.35059 58.6867 10.9862 60.3218 13.0039 60.3218Z" fill="#F46262"/>
<path d="M96.2857 60.3218C98.3034 60.3218 99.939 58.6867 99.939 56.6697C99.939 54.6527 98.3034 53.0176 96.2857 53.0176C94.268 53.0176 92.6323 54.6527 92.6323 56.6697C92.6323 58.6867 94.268 60.3218 96.2857 60.3218Z" fill="#F46262"/>
<path d="M43.6758 59.0965C43.2505 58.7309 42.7567 58.4886 42.2263 58.3423C42.8573 57.6796 43.3466 56.5323 43.5706 55.1427L40.9826 53.7898L43.6758 52.6608C43.4883 49.9777 42.3589 47.9116 40.9826 47.9116C39.4783 47.9116 38.2621 50.3845 38.2621 53.4332C38.2621 55.5495 38.8519 57.387 39.7115 58.3149C38.9936 58.4658 38.3032 58.74 37.7134 59.0965C39.7892 59.1331 41.6365 58.7811 43.6758 59.0965Z" fill="#F46262"/>
<path d="M56.8169 49.3838C55.3125 49.3838 54.0963 51.8566 54.0963 54.9054C54.0963 56.9851 54.6632 58.7952 55.5 59.7368C54.7776 59.8739 54.0871 60.171 53.5293 60.5687C55.3857 60.6053 56.9815 60.2579 58.7967 60.5687C58.5361 60.3036 58.2343 60.1025 57.9097 59.9562C58.6138 59.3254 59.1579 58.1096 59.4003 56.6149L56.8123 55.2619L59.5054 54.1329C59.318 51.4498 58.1886 49.3838 56.8123 49.3838H56.8169Z" fill="#F46262"/>
<path d="M81.4529 46.7873C81.4529 46.6228 81.4438 46.4537 81.43 46.2891C81.174 43.4552 78.8329 41.3206 75.9843 41.3206C74.3703 41.3206 72.8568 42.0336 71.8326 43.2312C67.5803 38.4318 61.5355 35.6938 55.0839 35.6938C54.7044 35.6938 54.3157 35.703 53.8859 35.7258C51.1013 35.8721 48.4219 36.5257 45.9071 37.6593C45.0155 35.7853 43.0996 34.542 40.9735 34.542C38.1249 34.542 35.7838 36.6766 35.5278 39.5151C35.514 39.6751 35.5049 39.8442 35.5049 40.0088C35.5049 40.1596 35.5095 40.3104 35.5232 40.4201C35.5278 40.507 35.5369 40.5984 35.5506 40.6898C35.5781 40.9001 35.6055 41.0692 35.6421 41.2109C35.6604 41.3023 35.6878 41.3937 35.7107 41.476C35.7381 41.5811 35.7655 41.6725 35.7975 41.7685C35.8707 41.9879 35.9576 42.1982 36.049 42.3765C36.0856 42.4542 36.1267 42.5319 36.1725 42.6141C36.3554 42.957 36.5748 43.2769 36.8309 43.5695L36.8583 43.6015C36.8858 43.6334 36.9132 43.6654 36.9406 43.6929C37.0549 43.8209 37.183 43.9443 37.3018 44.054L37.4756 44.2094C37.4756 44.2094 37.4893 44.2231 37.4985 44.2277C34.3938 48.1632 32.6929 53.0494 32.6929 58.082C32.6929 70.4279 42.7384 80.4701 55.0885 80.4701C67.4385 80.4701 77.4841 70.4279 77.4841 58.082C77.4841 56.0845 77.2189 54.1145 76.7022 52.1993C79.3816 51.8519 81.4621 49.5573 81.4621 46.7828L81.4529 46.7873ZM75.9843 42.9113C77.7538 42.9113 79.2856 44.1362 79.7291 45.7955C79.121 45.5075 78.4443 45.343 77.7264 45.343C76.4187 45.343 75.2436 45.8869 74.3931 46.7508C73.9313 45.9646 73.4192 45.2058 72.8659 44.4836C73.593 43.5055 74.7452 42.9113 75.9843 42.9113ZM40.9689 36.1372C42.4824 36.1372 43.8449 37.024 44.4759 38.3632C43.7535 38.7518 43.0585 39.1769 42.4001 39.6339C42.3635 39.6614 42.3269 39.6888 42.2858 39.7162C41.4673 39.0032 40.3974 38.5689 39.2268 38.5689C38.509 38.5689 37.8322 38.7335 37.2241 39.0214C37.6676 37.3622 39.204 36.1372 40.9689 36.1372ZM55.0793 78.884C43.6072 78.884 34.2749 69.5548 34.2749 58.0865C34.2749 53.1363 36.0444 48.3414 39.2543 44.5842C40.4385 43.1992 41.7965 41.9742 43.3008 40.9412C44.0416 40.4293 44.8326 39.9585 45.651 39.538L45.8202 39.4557C47.919 38.4089 50.1503 37.7462 52.4685 37.4582C50.6578 40.7858 46.314 49.9001 45.8202 61.3913C43.2322 61.5284 40.8089 62.4974 40.8089 64.2252C40.8089 65.953 43.2871 66.9449 45.9025 67.0683C45.9528 68.3253 46.0168 69.564 46.0946 70.7753C45.3401 70.6884 44.6817 70.5924 44.165 70.5056C43.7306 70.4325 43.3191 70.725 43.246 71.1592C43.1728 71.5934 43.4654 72.0048 43.8998 72.078C45.4087 72.3339 47.4297 72.5853 49.5422 72.5853C52.5508 72.5853 55.7469 72.0734 57.9005 70.341C58.2434 70.0668 58.2983 69.564 58.0194 69.2212C57.745 68.8784 57.2421 68.8235 56.8991 69.1023C54.6404 70.9215 50.7813 71.1272 47.6995 70.9261C47.6172 69.66 47.5486 68.3573 47.4983 67.0454C49.9308 66.8352 52.1393 65.8753 52.1393 64.2344C52.1393 62.5934 49.8897 61.6152 47.4206 61.4233C47.9692 48.8671 53.2366 39.2728 54.3889 37.3165C54.6267 37.3074 54.8598 37.3028 55.0839 37.3028C61.4029 37.3028 67.3059 40.123 71.2793 45.0458C71.9789 45.9097 72.6145 46.8422 73.1677 47.8067C73.8764 49.0545 74.4571 50.3663 74.8869 51.7102C75.5499 53.7716 75.8883 55.9245 75.8883 58.1048C75.8883 69.5731 66.556 78.9023 55.0839 78.9023L55.0793 78.884ZM46.5655 65.4868H46.4741C43.8312 65.4868 42.4046 64.5909 42.4046 64.2206C42.4046 63.8504 43.8312 62.9591 46.4741 62.9591H46.5015C49.1261 62.9637 50.5435 63.855 50.5435 64.2206C50.5435 64.5863 49.1444 65.4639 46.561 65.4868H46.5655Z" fill="#F46262"/>
<path d="M55.5961 40.2236C55.8796 39.9402 55.8796 39.474 55.5961 39.1906C55.3126 38.9072 54.8462 38.9072 54.5627 39.1906C54.2792 39.474 54.2792 39.9402 54.5627 40.2236C54.8462 40.507 55.3126 40.507 55.5961 40.2236Z" fill="#F46262"/>
<path d="M53.5844 42.82C53.3009 42.5366 52.8345 42.5366 52.551 42.82C52.2675 43.1034 52.2675 43.5696 52.551 43.853C52.8345 44.1364 53.3009 44.1364 53.5844 43.853C53.8678 43.5696 53.8678 43.1034 53.5844 42.82Z" fill="#F46262"/>
<path d="M51.3025 46.2707C51.019 46.554 51.019 47.0203 51.3025 47.3037C51.5859 47.5871 52.0523 47.5871 52.3358 47.3037C52.6193 47.0203 52.6193 46.554 52.3358 46.2707C52.0523 45.9873 51.5859 45.9873 51.3025 46.2707Z" fill="#F46262"/>
<path d="M50.3698 49.8131C50.0864 50.0965 50.0864 50.5628 50.3698 50.8461C50.6533 51.1295 51.1197 51.1295 51.4032 50.8461C51.6867 50.5628 51.6867 50.0965 51.4032 49.8131C51.1197 49.5297 50.6533 49.5297 50.3698 49.8131Z" fill="#F46262"/>
<path d="M49.6384 53.6896C49.3549 53.973 49.3549 54.4392 49.6384 54.7226C49.9219 55.006 50.3883 55.006 50.6718 54.7226C50.9552 54.4392 50.9552 53.973 50.6718 53.6896C50.3883 53.4062 49.9219 53.4062 49.6384 53.6896Z" fill="#F46262"/>
<path d="M48.8152 57.57C48.5317 57.8534 48.5317 58.3196 48.8152 58.603C49.0986 58.8864 49.565 58.8864 49.8485 58.603C50.132 58.3196 50.132 57.8534 49.8485 57.57C49.565 57.2866 49.0986 57.2866 48.8152 57.57Z" fill="#F46262"/>
</svg>
