<svg id="Layer_1" data-name="Layer 1" xmlns="http://www.w3.org/2000/svg" viewBox="0 0 664.85 191"><defs><style>.cls-1,.cls-2{fill:#fff;}.cls-2{stroke:#fff;stroke-miterlimit:10;stroke-width:7px;}.cls-3{fill:#8e8f92;}</style></defs><path class="cls-1" d="M362.57,115v8.34a2.24,2.24,0,0,1-2.24,2.24H339.82v.75c0,2.24,1.29,2.65,2.51,2.65h17.05a2.24,2.24,0,0,1,2.24,2.24v8.08a1.29,1.29,0,0,1-1.29,1.29H341.11c-9.44,0-14.88-5.57-14.88-14.87V117c0-9.3,5.44-17.57,14.88-17.57h6.58C357.14,99.45,362.57,105.7,362.57,115Zm-22.75-1.29h0a.94.94,0,0,0,.95,1h7.94a.94.94,0,0,0,1-1h0c0-2.85-1.56-3.39-2.78-3.39h-4.41C341.24,110.32,339.82,110.86,339.82,113.71Z"/><path class="cls-1" d="M319.46,86.62a1.15,1.15,0,0,0-1.16-1.3H300.1a1.73,1.73,0,0,0-1.63,1.3L290.19,119a1,1,0,0,1-1.83,0l-8.84-32.44a1.73,1.73,0,0,0-1.63-1.3H259.61a.8.8,0,0,0-.79,1,97.08,97.08,0,0,1,3.32,20.45,112.29,112.29,0,0,1-.51,18.1,85.69,85.69,0,0,1-2.28,12.29c-.14.5-.27,1-.4,1.47v0a2.6,2.6,0,0,1-.26.58.83.83,0,0,0,.48,1.3h11.53a2.24,2.24,0,0,0,2.25-2.24V113.64a1,1,0,0,1,1.86-.25L282,139.3a1.89,1.89,0,0,0,1.76,1.29h10.39a1.89,1.89,0,0,0,1.77-1.29L303,113a1,1,0,0,1,1.86.25v25.09a2.24,2.24,0,0,0,2.24,2.24h11.56a1.14,1.14,0,0,0,1.14-1.29Z"/><path class="cls-1" d="M382.42,113.1a1,1,0,0,0-.95,1v11.26c0,2.17,1,3,2.24,3h5c.75,0,1.29.27,1.29,1.29v8.76a2.24,2.24,0,0,1-2.24,2.24h-7.13c-8.76,0-12.84-4.35-12.84-13V94.36A2.24,2.24,0,0,1,370,92.12h9.24a2.24,2.24,0,0,1,2.24,2.24v5.5a1,1,0,0,0,.95,1h5.44a2.24,2.24,0,0,1,2.24,2.24v8.76a1.29,1.29,0,0,1-1.29,1.29Z"/><path class="cls-1" d="M429.9,115.82v22.53a2.24,2.24,0,0,1-2.24,2.24H405c-7.06.13-11.07-4-11.07-10.53v-1.29c0-6.52,3.74-13.36,11.48-13.36h10.86v-.27c0-2.18-1.15-2.79-2.37-2.79H398.32a1.29,1.29,0,0,1-1.29-1.29v-8a2.24,2.24,0,0,1,2.24-2.24H415.7C425.14,100.81,429.9,106.51,429.9,115.82ZM409.32,130.2h6a1,1,0,0,0,.95-.95v-4.4a.94.94,0,0,0-.95-.95h-6c-2.36,0-2.11,2.22-2.11,3.85v.68C407.21,129.92,408.1,130.2,409.32,130.2Z"/><path class="cls-1" d="M584.79,115.82v22.53a2.24,2.24,0,0,1-2.24,2.24H559.93c-7.06.13-11.07-4-11.07-10.53v-1.29c0-6.52,3.74-13.36,11.48-13.36h10.87v-.27c0-2.18-1.16-2.79-2.38-2.79H553.21a1.29,1.29,0,0,1-1.29-1.29v-8a2.24,2.24,0,0,1,2.24-2.24H570.6C580,100.81,584.79,106.51,584.79,115.82ZM564.21,130.2h6a1,1,0,0,0,1-.95v-4.4a1,1,0,0,0-1-.95h-6c-2.36,0-2.1,2.22-2.1,3.85v.68C562.11,129.92,563,130.2,564.21,130.2Z"/><path class="cls-1" d="M452.18,140.59h-5.44c-7.4,0-10.8-3.67-10.8-10.93V89.45a2.24,2.24,0,0,1,2.25-2.24h9.23a2.24,2.24,0,0,1,2.24,2.24v36.06c0,2.18,1,2.79,2.24,2.79h1.23c.74,0,1.29.13,1.29,1.29v8.76A2.24,2.24,0,0,1,452.18,140.59Z"/><path class="cls-1" d="M504.2,124.15v1.23c0,8.9-4.41,15.21-15.48,15.21H461.89a2.24,2.24,0,0,1-2.24-2.24V87.57a2.24,2.24,0,0,1,2.24-2.25h27.17c7.94,0,13.85,4.28,13.85,13.32v.74c0,4.89-2.44,9-6.52,10.67-.68.27-.61.61,0,.81C500.67,112.29,504.2,117.91,504.2,124.15ZM484.3,98.43h-8.69a1,1,0,0,0-.95.95v5.23a.94.94,0,0,0,.95,1h9c1.57,0,3.06-.88,3.06-3.32v-.55C487.63,99.18,486,98.43,484.3,98.43Zm4.35,24.5a3.28,3.28,0,0,0-3.46-3.53h-9.58a1,1,0,0,0-.95.95V126a1,1,0,0,0,.95,1h9.64a3.24,3.24,0,0,0,3.4-3.46Z"/><path class="cls-1" d="M545.3,115v8.34a2.24,2.24,0,0,1-2.25,2.24H522.54v.75c0,2.24,1.29,2.65,2.52,2.65h17a2.24,2.24,0,0,1,2.24,2.24v8.08a1.29,1.29,0,0,1-1.29,1.29H523.83c-9.44,0-14.87-5.57-14.87-14.87V117c0-9.3,5.43-17.57,14.87-17.57h6.59C539.86,99.45,545.3,105.7,545.3,115Zm-22.76-1.29h0a1,1,0,0,0,1,1h8a1,1,0,0,0,.95-1h0c0-2.85-1.56-3.39-2.78-3.39h-4.42C524,110.32,522.54,110.86,522.54,113.71Z"/><path class="cls-1" d="M615.05,111.92c0,1.15-.54,1.29-1.29,1.29H606.9c-1.22,0-2.24.61-2.24,2.78v22.36a2.24,2.24,0,0,1-2.24,2.24h-9.24a2.24,2.24,0,0,1-2.24-2.24V113.89c0-8,4.75-13,12.16-13h9.71a2.24,2.24,0,0,1,2.24,2.24Z"/><path class="cls-2" d="M169.9,151l-17.26,0c-.86,0-1.73-.05-2.6-.09h-1.35l-5.36-.11-.15,0a6.81,6.81,0,0,0-.82-.09c-9-.39-16.4-.85-23.2-1.45h0l-6.55-.68c-3.87-.4-7.44-.9-10.91-1.53a2.24,2.24,0,0,1-.79-.3,1.36,1.36,0,0,1-.65-1.06,1.45,1.45,0,0,1,.53-1.2,4.46,4.46,0,0,1,.43-.33,3.29,3.29,0,0,0,.33-.23l.67-.49-1.44-3h0c-.24-.54-.51-1.17-.66-1.58l-.71-1.91a27,27,0,0,1-.86-2.69c-.14-.49-.27-1-.4-1.44a66.39,66.39,0,0,1-1.73-9.45,95.11,95.11,0,0,1-.39-15.2A61.56,61.56,0,0,1,103,82.59l.69-1.32a1.37,1.37,0,0,0,.13-.4l0-.15v-.15a1.72,1.72,0,0,0-.91-1.29l-.11-.08a21.34,21.34,0,0,1-8-12.7c-1.63-8.1.63-15.12,6.72-20.85a20.49,20.49,0,0,1,10.74-5.34,23.61,23.61,0,0,1,4-.35,21.57,21.57,0,0,1,18.08,9.59l.22.32c.18.27.37.56.59.87l.44.63.72-.26c.32-.12.6-.22.87-.34a76.54,76.54,0,0,1,16-5c2.49-.48,5.08-.86,7.69-1.11,3.15-.3,6.11-.44,9.05-.44s6,.15,9.06.44c2.6.25,5.18.62,7.68,1.11a76.47,76.47,0,0,1,16,4.95c.24.11.48.19.72.29l.87.33,1.26-1.82A21.56,21.56,0,0,1,223.53,40a23.61,23.61,0,0,1,4,.35,20.46,20.46,0,0,1,10.74,5.34c6.09,5.73,8.35,12.75,6.72,20.85a21.37,21.37,0,0,1-8,12.7l-.12.08a1.72,1.72,0,0,0-.9,1.29l0,.25.1.24,0,.12.73,1.42a61.34,61.34,0,0,1,6.93,25.53,93.59,93.59,0,0,1-.39,15.2,65.56,65.56,0,0,1-1.72,9.43c-.14.52-.27,1-.39,1.45-.26.92-.55,1.83-.88,2.7l-.71,1.9c-.21.58-.63,1.56-.92,2.14s-.56,1.13-.83,1.71l-.36.74.67.49.35.25a3.25,3.25,0,0,1,.42.31,1.46,1.46,0,0,1,.52,1.19,1.36,1.36,0,0,1-.65,1.07,2.35,2.35,0,0,1-.8.31c-3.46.62-7,1.12-10.9,1.52l-6.56.68c-6.79.6-14.17,1.06-23.19,1.45-.25,0-.5,0-.79.08l-.17,0-5.39.11h-1.32c-.87,0-1.74.08-2.61.09Z"/><path class="cls-3" d="M237.66,80A22.3,22.3,0,0,0,246,66.7c1.71-8.51-.69-15.82-7-21.78a21.54,21.54,0,0,0-11.26-5.59A22.79,22.79,0,0,0,204.63,49c-.26.38-.51.76-.81,1.19l-.82-.32a76.91,76.91,0,0,0-16.17-5q-3.86-.75-7.78-1.12c-3-.29-6.09-.45-9.15-.46s-6.1.17-9.15.46c-2.61.25-5.21.62-7.78,1.12a76.91,76.91,0,0,0-16.17,5l-.82.32c-.3-.43-.55-.81-.8-1.19a22.81,22.81,0,0,0-23.09-9.65,21.54,21.54,0,0,0-11.26,5.59c-6.32,6-8.72,13.27-7,21.78A22.3,22.3,0,0,0,102.14,80c.25.2.61.31.65.7a.5.5,0,0,1,0,.13l-.69,1.33a62.29,62.29,0,0,0-7,26,96.1,96.1,0,0,0,.4,15.36A67.4,67.4,0,0,0,97.17,133c.13.49.26,1,.4,1.46.25.94.55,1.87.89,2.78l.71,1.9c.23.63.67,1.64,1,2.24h0l.81,1.69a10,10,0,0,0-.83.61,2.38,2.38,0,0,0,.23,3.85,3.42,3.42,0,0,0,1.16.45c3.64.66,7.31,1.16,11,1.54l6.55.68c7.8.69,15.52,1.11,23.25,1.45.28,0,.57.06.93.11l5.44.11c.4,0,.85,0,1.3,0,.88,0,1.76.08,2.64.09l17.27,0,17.27,0c.88,0,1.76-.05,2.64-.09.45,0,.91,0,1.3,0l5.45-.11c.36-.05.64-.1.92-.11,7.73-.34,15.45-.76,23.25-1.45l6.56-.68c3.68-.38,7.35-.88,11-1.54a3.45,3.45,0,0,0,1.15-.45,2.38,2.38,0,0,0,.23-3.85,10,10,0,0,0-.83-.61c.27-.57.54-1.13.82-1.69h0c.3-.6.74-1.61,1-2.24l.71-1.9c.34-.91.64-1.84.9-2.78l.39-1.46a66,66,0,0,0,1.75-9.57,94.94,94.94,0,0,0,.4-15.36,62.14,62.14,0,0,0-7-25.95l-.69-1.33a.93.93,0,0,0,0-.13C237.05,80.29,237.41,80.18,237.66,80ZM210.21,57.87a12.91,12.91,0,0,1,3.45,2.28c-.57,1.51-1.19,3.05-1.74,4.61s-1.11,3.22-1.63,4.84-1,3.17-1.48,4.81l-3.72-2A100.54,100.54,0,0,1,210.21,57.87ZM202.84,61a2.05,2.05,0,0,1,2,2,2,2,0,1,1-2-2Zm-37.3,42.06a5.3,5.3,0,0,1,1.24-.81,6.26,6.26,0,0,1,2.95-.53h.34a6.23,6.23,0,0,1,3,.53,5.1,5.1,0,0,1,1.24.81,1,1,0,0,1,0,1.62,3.24,3.24,0,0,1-.92.62,8.28,8.28,0,0,1-6.8,0,3.38,3.38,0,0,1-.92-.62A1,1,0,0,1,165.54,103.06ZM137,61a2,2,0,0,1,2,2,2,2,0,1,1-4,0A2.05,2.05,0,0,1,137,61Zm-7.38-3.13a100.54,100.54,0,0,1,5.12,14.56l-3.72,2c-.5-1.64-1-3.23-1.47-4.81s-1.06-3.24-1.63-4.84-1.18-3.1-1.75-4.61A13.07,13.07,0,0,1,129.59,57.87ZM111.32,81.78a5.89,5.89,0,0,1-.32.54,51.23,51.23,0,0,0-6,13.52,60.57,60.57,0,0,0-2.07,23.36A17.13,17.13,0,0,1,103,121a1.12,1.12,0,0,1-2.13.43,2.2,2.2,0,0,1-.19-.71,53.25,53.25,0,0,1-.45-8c0-1.08,0-2.17,0-3.25.08-1.45.23-2.9.39-4.35a58.78,58.78,0,0,1,4-15.55,48,48,0,0,1,4.14-8.11,5.6,5.6,0,0,1,.75-1,1.18,1.18,0,0,1,1.49,0A1.09,1.09,0,0,1,111.32,81.78Zm-.15-13.11A8.33,8.33,0,0,1,108,59.53a8.56,8.56,0,0,1,12.57-5,6.58,6.58,0,0,1,2.77,3A71.7,71.7,0,0,0,111.17,68.67Zm10.79.11a2,2,0,0,1,2-2,2.07,2.07,0,0,1,2,2,2,2,0,0,1-2,2A2,2,0,0,1,122,68.78ZM140.45,113a19.39,19.39,0,0,1-15.59-13.22,19.74,19.74,0,0,1,5.19-20.54c5.43-5.16,13.37-6.51,19.14-4.47a19.16,19.16,0,0,1,.37,2.94,18.78,18.78,0,0,0-7.07-1,17,17,0,0,0-15.41,13,17.07,17.07,0,0,0-.42,4.09,16.1,16.1,0,0,0,.54,4.08,17.5,17.5,0,0,0,1.52,3.82,17.24,17.24,0,0,0,2.32,3.24,16.67,16.67,0,0,0,3.12,2.69,17.79,17.79,0,0,0,3.66,1.87,25.1,25.1,0,0,0,4.06,1A27.61,27.61,0,0,1,140.45,113Zm-8.86-19.43a12,12,0,1,1,23.95,0c.12,6.79-5.79,12-12,12A12,12,0,0,1,131.59,93.53Zm24,40.43a14.11,14.11,0,0,1-6.13-2.32,12.74,12.74,0,0,1-5.37-14.21,13.66,13.66,0,0,1,7-8.72l1.73-1a7.79,7.79,0,0,1,1.2-.65c1.45-.53,2.91-1,4.36-1.51a2,2,0,0,1,.6,0,11.8,11.8,0,0,0,8.2,15.87c0,.31,0,.64,0,1,0,1.59,0,3.17,0,4.75a3.22,3.22,0,0,1-1,2.58,17,17,0,0,1-1.5,1.31,15.43,15.43,0,0,1-5.88,2.65A9.18,9.18,0,0,1,155.61,134Zm24.4,5.26a16.6,16.6,0,0,1-4.71,1.55,27.77,27.77,0,0,1-10.8,0,16.7,16.7,0,0,1-4.71-1.55c-.19-.1-.5-.15-.45-.53a1.38,1.38,0,0,1,.3-.14,20.37,20.37,0,0,0,6.69-2.63,2.66,2.66,0,0,1,1.52-.43l2.05,0,2,0a2.64,2.64,0,0,1,1.52.43,20.46,20.46,0,0,0,6.69,2.63,1.38,1.38,0,0,1,.3.14C180.51,139.07,180.2,139.12,180,139.22Zm10.31-7.58a14.11,14.11,0,0,1-6.13,2.32,9.18,9.18,0,0,1-3.22-.26,15.32,15.32,0,0,1-5.87-2.65,15.75,15.75,0,0,1-1.51-1.31,3.25,3.25,0,0,1-1-2.58c.06-1.58,0-3.16,0-4.75,0-.33,0-.66,0-1a11.8,11.8,0,0,0,8.2-15.87,2,2,0,0,1,.6,0c1.46.49,2.91,1,4.36,1.51a7.79,7.79,0,0,1,1.2.65l1.73,1a13.63,13.63,0,0,1,7,8.72A12.74,12.74,0,0,1,190.32,131.64Zm5.93-26.09c-6.2,0-12.11-5.21-12-12a12,12,0,1,1,23.95,0A12,12,0,0,1,196.25,105.55Zm18.69-5.81A19.38,19.38,0,0,1,199.36,113a25.43,25.43,0,0,1-1.44-2.52,24.85,24.85,0,0,0,4.06-1,18.12,18.12,0,0,0,3.67-1.87,16.61,16.61,0,0,0,3.11-2.69,16.8,16.8,0,0,0,2.32-3.24,17,17,0,0,0,1.52-3.82,16.1,16.1,0,0,0,.54-4.08,16.57,16.57,0,0,0-.42-4.09,17,17,0,0,0-15.41-13,18.78,18.78,0,0,0-7.07,1,18,18,0,0,1,.38-2.94c5.76-2,13.7-.69,19.13,4.47A19.72,19.72,0,0,1,214.94,99.74Zm.93-29a2,2,0,0,1-2-2,2.07,2.07,0,0,1,2-2,2,2,0,0,1,2,2A2,2,0,0,1,215.87,70.77Zm.57-13.26a6.61,6.61,0,0,1,2.78-3A8.42,8.42,0,0,1,224,53.37a8.51,8.51,0,0,1,7.8,6.16,8.33,8.33,0,0,1-3.16,9.14A71.7,71.7,0,0,0,216.44,57.51Zm22.7,47.58c.16,1.45.31,2.9.4,4.35.06,1.08,0,2.17,0,3.25a53.25,53.25,0,0,1-.45,8,2.47,2.47,0,0,1-.18.71,1.12,1.12,0,0,1-2.14-.43,17.15,17.15,0,0,1,.12-1.75,60.57,60.57,0,0,0-2.07-23.36,51.58,51.58,0,0,0-6-13.52,5.89,5.89,0,0,1-.32-.54,1.09,1.09,0,0,1,.31-1.35,1.18,1.18,0,0,1,1.49,0,5.6,5.6,0,0,1,.75,1,46.58,46.58,0,0,1,4.14,8.11A58.4,58.4,0,0,1,239.14,105.09Z"/><path d="M205.21,93.55c-2.85-.07-5.71,0-8.81-.06a20.22,20.22,0,0,1,1.4-1.82c.46-.59.94-1.17,1.41-1.75s.89-1.1,1.32-1.66a13.19,13.19,0,0,0,1.34-1.76c-2.26-2.33-7.4-3-11-.37A9.15,9.15,0,0,0,199,102.26C202.84,101,205.74,97,205.21,93.55Z"/><path d="M152.59,93.55c-2.84-.07-5.71,0-8.8-.06a20.28,20.28,0,0,1,1.39-1.82l1.41-1.75c.45-.56.9-1.1,1.33-1.66a13.11,13.11,0,0,0,1.33-1.76c-2.26-2.33-7.4-3-11-.37a9.15,9.15,0,0,0,8.15,16.13C150.23,101,153.13,97,152.59,93.55Z"/></svg>