<svg class="w-full h-auto" viewBox="0 0 239 60" fill="none" xmlns="http://www.w3.org/2000/svg">
<path d="M72.6445 18.0557H78.2566L84.8638 32.5266L91.4711 18.0557H97.0883V42.6421H92.0405V26.9745L86.6747 39.3717H82.9094L77.5435 26.9745V42.6421H72.6394V18.0557H72.6445Z" fill="black"/>
<path d="M106.721 34.5276V37.9349C106.721 38.4977 106.936 38.7056 107.5 38.7056H112.015C112.584 38.7056 112.794 38.4927 112.794 37.9349V36.4594H117.698V38.0769C117.698 41.2053 116.242 42.6453 113.076 42.6453H106.433C103.268 42.6453 101.811 41.2053 101.811 38.0769V28.2403C101.811 25.1119 103.268 23.6719 106.433 23.6719H113.076C116.242 23.6719 117.698 25.1119 117.698 28.2403V34.5276H106.715H106.721ZM106.721 28.3823V31.2623H112.794V28.3823C112.794 27.8195 112.579 27.6116 112.015 27.6116H107.5C106.931 27.6116 106.721 27.8245 106.721 28.3823Z" fill="black"/>
<path d="M122.817 38.0778V27.6124H119.975V23.6778H122.889V19.1094H127.65V23.6778H131.841V27.6124H127.716V37.8699C127.716 38.4327 127.932 38.6406 128.496 38.6406H131.836V42.6462H127.429C124.264 42.6462 122.807 41.2062 122.807 38.0778H122.817Z" fill="black"/>
<path d="M134.202 37.3366C134.202 33.3665 136.085 31.9265 139.178 31.5056C140.742 31.2927 142.979 31.0493 145.359 30.9428V28.4127C145.359 27.8499 145.144 27.6369 144.58 27.6369H140.455C139.886 27.6369 139.675 27.8499 139.675 28.4127V29.5383H134.843V28.2403C134.843 25.1119 136.3 23.6719 139.465 23.6719H145.647C148.812 23.6719 150.269 25.1119 150.269 28.2403V42.6403H145.364V39.6893C144.087 41.4436 142.841 42.7822 139.357 42.7822C135.659 42.7822 134.207 41.2712 134.207 37.3366H134.202ZM145.359 37.1592V34.0307L140.276 34.9789C139.352 35.1563 139.029 35.3997 139.029 36.8397C139.029 38.3507 139.245 38.6296 140.306 38.6296C142.651 38.6296 143.897 37.9248 145.354 37.1541L145.359 37.1592Z" fill="black"/>
<path d="M154.632 17H159.536V42.641H154.632V17Z" fill="black"/>
<path d="M164.574 18.0547H177.578C180.954 18.0547 182.554 19.6367 182.554 22.973V26.2738C182.554 27.9268 181.949 29.1893 180.313 30.0665C182.088 30.8372 182.836 32.2113 182.836 33.8591V37.7228C182.836 41.0591 181.236 42.6411 177.861 42.6411H164.569V18.0547H164.574ZM176.727 27.8913C177.26 27.8913 177.44 27.7138 177.44 27.1865V23.3228C177.44 22.7955 177.26 22.6181 176.727 22.6181H169.694V27.8862H176.727V27.8913ZM177.014 38.0777C177.548 38.0777 177.722 37.9003 177.722 37.3729V32.9465C177.722 32.4191 177.542 32.2417 177.014 32.2417H169.694V38.0726H177.014V38.0777Z" fill="black"/>
<path d="M191.447 34.5276V37.9349C191.447 38.4977 191.663 38.7056 192.227 38.7056H196.741C197.311 38.7056 197.521 38.4927 197.521 37.9349V36.4594H202.425V38.0769C202.425 41.2053 200.968 42.6453 197.803 42.6453H191.16C187.995 42.6453 186.538 41.2053 186.538 38.0769V28.2403C186.538 25.1119 187.995 23.6719 191.16 23.6719H197.803C200.968 23.6719 202.425 25.1119 202.425 28.2403V34.5276H191.442H191.447ZM191.447 28.3823V31.2623H197.526V28.3823C197.526 27.8195 197.311 27.6116 196.746 27.6116H192.232C191.663 27.6116 191.452 27.8245 191.452 28.3823H191.447Z" fill="black"/>
<path d="M205.694 37.3366C205.694 33.3665 207.577 31.9265 210.67 31.5056C212.235 31.2927 214.471 31.0493 216.852 30.9428V28.4127C216.852 27.8499 216.636 27.6369 216.072 27.6369H211.947C211.378 27.6369 211.168 27.8499 211.168 28.4127V29.5383H206.335V28.2403C206.335 25.1119 207.792 23.6719 210.957 23.6719H217.139C220.304 23.6719 221.761 25.1119 221.761 28.2403V42.6403H216.857V39.6893C215.579 41.4436 214.333 42.7822 210.85 42.7822C207.151 42.7822 205.699 41.2712 205.699 37.3366H205.694ZM216.852 37.1592V34.0307L211.768 34.9789C210.844 35.1563 210.526 35.3997 210.526 36.8397C210.526 38.3507 210.742 38.6296 211.804 38.6296C214.148 38.6296 215.395 37.9248 216.852 37.1541V37.1592Z" fill="black"/>
<path d="M226.194 23.6777H231.098V26.6287C232.376 24.8743 233.622 23.6777 236.572 23.6777H238.1V28.2462H235.684C233.802 28.2462 232.555 28.596 231.098 29.3718V42.6512H226.194V23.6828V23.6777Z" fill="black"/>
<path d="M49.4442 31.7603C50.0025 31.2882 50.652 30.9752 51.3391 30.7842C50.5124 29.9301 49.8736 28.4447 49.5838 26.6411L52.9709 24.8904L49.4496 23.4316C49.6911 19.9569 51.1727 17.2832 52.9709 17.2832C54.9355 17.2832 56.5297 20.4821 56.5297 24.4289C56.5297 27.1663 55.7621 29.5429 54.6349 30.7418C55.5743 30.938 56.4814 31.2935 57.249 31.755C54.5329 31.8028 52.1174 31.3518 49.4442 31.755V31.7603Z" fill="black"/>
<path d="M32.2438 19.1992C34.2085 19.1992 35.8027 22.3981 35.8027 26.3449C35.8027 29.0398 35.0619 31.3793 33.9615 32.5994C34.9063 32.7798 35.8134 33.1618 36.5381 33.6763C34.1065 33.7241 32.0184 33.2732 29.6404 33.6763C29.9786 33.3315 30.3758 33.0716 30.7999 32.8859C29.882 32.0689 29.1681 30.4987 28.8514 28.5624L32.2385 26.8118L28.7172 25.3529C28.9587 21.8782 30.4402 19.2045 32.2385 19.2045L32.2438 19.1992Z" fill="black"/>
<path d="M0.000865936 15.8352C0.000865936 15.623 0.0116005 15.4055 0.0330734 15.1933C0.365879 11.5276 3.43091 8.76372 7.16154 8.76372C9.2711 8.76372 11.2518 9.68677 12.5991 11.2358C18.1656 5.02375 26.0777 1.48538 34.5213 1.48538C35.0151 1.48538 35.5251 1.50129 36.0887 1.52782C39.7335 1.71879 43.2386 2.56227 46.5345 4.03173C47.6993 1.60739 50.2061 0 52.992 0C56.7226 0 59.7823 2.76386 60.1204 6.43486C60.1365 6.64175 60.1526 6.85925 60.1526 7.07145C60.1526 7.26243 60.1473 7.45871 60.1312 7.60194C60.1258 7.71865 60.1151 7.83005 60.099 7.95207C60.0614 8.22792 60.0238 8.44012 59.9809 8.62579C59.954 8.7478 59.9218 8.85921 59.895 8.96531C59.8574 9.09793 59.8198 9.21994 59.7769 9.34195C59.6803 9.62311 59.5675 9.89897 59.4495 10.1324C59.4011 10.2332 59.3475 10.334 59.2884 10.4401C59.0522 10.8804 58.757 11.2995 58.4242 11.6761L58.3866 11.7186C58.3491 11.761 58.3168 11.7981 58.2793 11.8353C58.129 11.9997 57.9626 12.1642 57.8069 12.3021L57.5761 12.5037C57.5761 12.5037 57.5546 12.5196 57.5439 12.5249C61.6073 17.6176 63.835 23.9358 63.835 30.4502C63.835 46.4233 50.6838 59.4203 34.5213 59.4203C18.3588 59.4203 5.20766 46.4233 5.20766 30.4502C5.20766 27.8667 5.55656 25.315 6.23291 22.843C2.72235 22.392 0.000865936 19.4266 0.000865936 15.8352ZM57.8874 5.78766C57.3077 3.63917 55.3001 2.053 52.9866 2.053C51.0059 2.053 49.2238 3.20417 48.3971 4.92827C49.3419 5.43223 50.2544 5.98394 51.1132 6.57279C51.1615 6.60992 51.2099 6.64706 51.2635 6.67889C52.3371 5.75583 53.7327 5.19351 55.2679 5.19351C56.2073 5.19351 57.093 5.40571 57.8874 5.78236V5.78766ZM61.7469 30.4502C61.7469 24.0472 59.4333 17.8404 55.2303 12.9811C53.679 11.1881 51.9023 9.60189 49.9323 8.27036C48.9661 7.60725 47.9301 6.99718 46.8566 6.45608L46.6365 6.34998C43.8881 4.99723 40.9681 4.13783 37.9352 3.76118C40.3024 8.06877 45.9923 19.8563 46.6365 34.726C50.0236 34.9063 53.1959 36.153 53.1959 38.3917C53.1959 40.6303 49.9538 41.9088 46.5291 42.068C46.4647 43.6913 46.3788 45.2987 46.2768 46.8636C47.2591 46.7522 48.1234 46.6249 48.8051 46.5135C49.3687 46.418 49.9108 46.7946 50.0075 47.357C50.1041 47.9193 49.723 48.4498 49.154 48.5453C48.2844 48.6885 47.2752 48.8317 46.1909 48.9484C45.9011 51.2773 45.1711 53.5637 44.0707 55.6485C54.3876 51.8184 61.7522 41.9672 61.7522 30.4502H61.7469ZM45.783 40.0256C49.2452 40.0256 51.1079 38.8638 51.1079 38.3917C51.1079 37.9195 49.2399 36.7578 45.783 36.7578H45.7454C42.31 36.7684 40.4527 37.9195 40.4527 38.3917C40.4527 38.8638 42.2832 39.9991 45.6649 40.0256H45.783ZM34.5213 57.362C36.6416 57.362 38.7028 57.1127 40.6836 56.6565C42.2939 54.4443 43.3621 51.8396 43.7754 49.1447C43.1206 49.1819 42.4442 49.1978 41.7679 49.1978C37.8279 49.1978 33.6464 48.54 30.8283 46.2907C30.3827 45.9353 30.3129 45.2881 30.6726 44.8424C31.0322 44.4021 31.6871 44.3279 32.138 44.6886C35.0957 47.044 40.1414 47.3092 44.178 47.0493C44.2854 45.4101 44.3766 43.7284 44.4464 42.0255C41.2633 41.7497 38.3754 40.5083 38.3754 38.3917C38.3754 36.275 41.317 35.0018 44.5484 34.7525C43.8291 18.5088 36.9368 6.09535 35.4285 3.5596C35.1171 3.54899 34.8112 3.54368 34.5213 3.54368C26.2495 3.54368 18.5252 7.19346 13.3292 13.5594C12.4113 14.6787 11.5793 15.8829 10.8546 17.1349C9.92596 18.7529 9.1691 20.4504 8.60011 22.1852C7.73053 24.8535 7.29037 27.6333 7.29037 30.4555C7.29037 45.2934 19.5075 57.3673 34.5213 57.3673V57.362ZM4.88022 13.9678C6.59256 13.9678 8.12775 14.6734 9.23888 15.7874C9.84545 14.7742 10.5164 13.7875 11.2411 12.8538C10.291 11.5859 8.78262 10.822 7.16154 10.822C4.84801 10.822 2.84045 12.4082 2.26072 14.5567C3.05516 14.18 3.94085 13.9678 4.88022 13.9678Z" fill="black"/>
<path d="M33.8411 7.33507C33.4653 6.96373 33.4653 6.36958 33.8411 5.99823C34.2168 5.62689 34.818 5.62689 35.1938 5.99823C35.5695 6.36958 35.5695 6.96373 35.1938 7.33507C34.818 7.70642 34.2168 7.70642 33.8411 7.33507Z" fill="black"/>
<path d="M38.2016 12.6359C38.5773 13.0073 38.5773 13.6014 38.2016 13.9728C37.8258 14.3441 37.2246 14.3441 36.8489 13.9728C36.4732 13.6014 36.4732 13.0073 36.8489 12.6359C37.2246 12.2646 37.8258 12.2646 38.2016 12.6359Z" fill="black"/>
<path d="M41.1313 21.4953C41.507 21.8666 41.507 22.4608 41.1313 22.8321C40.7555 23.2035 40.1543 23.2035 39.7786 22.8321C39.4028 22.4608 39.4028 21.8666 39.7786 21.4953C40.1543 21.124 40.7555 21.124 41.1313 21.4953Z" fill="black"/>
<path d="M42.7172 29.7814C43.093 30.1528 43.093 30.7469 42.7172 31.1183C42.3415 31.4896 41.7403 31.4896 41.3645 31.1183C40.9888 30.7469 40.9888 30.1528 41.3645 29.7814C41.7403 29.4101 42.3415 29.4101 42.7172 29.7814Z" fill="black"/>
<path d="M43.1 43.9035C43.4758 44.2749 43.4758 44.869 43.1 45.2403C42.7243 45.6117 42.1231 45.6117 41.7473 45.2403C41.3716 44.869 41.3716 44.2749 41.7473 43.9035C42.1231 43.5322 42.7243 43.5322 43.1 43.9035Z" fill="black"/>
<path d="M41.1313 52.8322C41.507 53.2036 41.507 53.7977 41.1313 54.1691C40.7555 54.5404 40.1543 54.5404 39.7786 54.1691C39.4028 53.7977 39.4028 53.2036 39.7786 52.8322C40.1543 52.4609 40.7555 52.4609 41.1313 52.8322Z" fill="black"/>
</svg>
