<svg width="352" height="96" viewBox="0 0 352 96" fill="none" xmlns="http://www.w3.org/2000/svg">
<path d="M105.007 35.4673H112.724L121.809 55.6008L130.894 35.4673H138.617V69.6744H131.677V47.8761L124.299 65.1243H119.121L111.743 47.8761V69.6744H105V35.4673H105.007Z" fill="#F46262"/>
<path d="M151.871 58.3873V63.1279C151.871 63.911 152.167 64.2002 152.943 64.2002H159.15C159.933 64.2002 160.222 63.9039 160.222 63.1279V61.0751H166.965V63.3255C166.965 67.6781 164.962 69.6815 160.61 69.6815H151.476C147.124 69.6815 145.121 67.6781 145.121 63.3255V49.6398C145.121 45.2872 147.124 43.2837 151.476 43.2837H160.61C164.962 43.2837 166.965 45.2872 166.965 49.6398V58.3873H151.864H151.871ZM151.871 49.8373V53.8442H160.222V49.8373C160.222 49.0543 159.926 48.765 159.15 48.765H152.943C152.16 48.765 151.871 49.0613 151.871 49.8373Z" fill="#F46262"/>
<path d="M174.005 63.3255V48.7651H170.097V43.2908H174.104V36.9347H180.649V43.2908H186.412V48.7651H180.741V63.0363C180.741 63.8193 181.037 64.1085 181.813 64.1085H186.405V69.6816H180.346C175.994 69.6816 173.991 67.6781 173.991 63.3255H174.005Z" fill="#F46262"/>
<path d="M189.643 62.2955C189.643 56.7718 192.231 54.7684 196.485 54.1829C198.636 53.8866 201.711 53.548 204.984 53.3998V49.8796C204.984 49.0966 204.688 48.8003 203.912 48.8003H198.241C197.458 48.8003 197.169 49.0966 197.169 49.8796V51.4457H190.524V49.6398C190.524 45.2872 192.527 43.2837 196.88 43.2837H205.379C209.731 43.2837 211.734 45.2872 211.734 49.6398V69.6745H204.991V65.5688C203.235 68.0096 201.521 69.872 196.731 69.872C191.646 69.872 189.65 67.7698 189.65 62.2955H189.643ZM204.984 62.0486V57.696L197.994 59.0152C196.724 59.2621 196.28 59.6007 196.28 61.6042C196.28 63.7064 196.576 64.0944 198.036 64.0944C201.26 64.0944 202.974 63.1138 204.977 62.0415L204.984 62.0486Z" fill="#F46262"/>
<path d="M217.737 34H224.48V69.6745H217.737V34Z" fill="#F46262"/>
<path d="M231.414 35.4673H249.294C253.936 35.4673 256.136 37.6683 256.136 42.3101V46.9026C256.136 49.2023 255.304 50.9589 253.054 52.1793C255.495 53.2516 256.524 55.1634 256.524 57.4561V62.8316C256.524 67.4734 254.324 69.6744 249.682 69.6744H231.407V35.4673H231.414ZM248.124 49.153C248.857 49.153 249.104 48.9061 249.104 48.1724V42.7969C249.104 42.0632 248.857 41.8163 248.124 41.8163H238.453V49.1459H248.124V49.153ZM248.519 63.3254C249.252 63.3254 249.492 63.0785 249.492 62.3448V56.1863C249.492 55.4526 249.245 55.2057 248.519 55.2057H238.453V63.3184H248.519V63.3254Z" fill="#F46262"/>
<path d="M268.36 58.3873V63.1279C268.36 63.911 268.656 64.2002 269.432 64.2002H275.639C276.422 64.2002 276.712 63.9039 276.712 63.1279V61.0751H283.455V63.3255C283.455 67.6781 281.452 69.6815 277.1 69.6815H267.965C263.613 69.6815 261.61 67.6781 261.61 63.3255V49.6398C261.61 45.2872 263.613 43.2837 267.965 43.2837H277.1C281.452 43.2837 283.455 45.2872 283.455 49.6398V58.3873H268.353H268.36ZM268.36 49.8373V53.8442H276.719V49.8373C276.719 49.0543 276.422 48.765 275.647 48.765H269.439C268.656 48.765 268.367 49.0613 268.367 49.8373H268.36Z" fill="#F46262"/>
<path d="M287.955 62.2955C287.955 56.7718 290.544 54.7684 294.797 54.1829C296.948 53.8866 300.024 53.548 303.296 53.3998V49.8796C303.296 49.0966 303 48.8003 302.224 48.8003H296.553C295.77 48.8003 295.481 49.0966 295.481 49.8796V51.4457H288.837V49.6398C288.837 45.2872 290.84 43.2837 295.192 43.2837H303.691C308.043 43.2837 310.047 45.2872 310.047 49.6398V69.6745H303.304V65.5688C301.547 68.0096 299.833 69.872 295.044 69.872C289.958 69.872 287.962 67.7698 287.962 62.2955H287.955ZM303.296 62.0486V57.696L296.306 59.0152C295.037 59.2621 294.599 59.6007 294.599 61.6042C294.599 63.7064 294.896 64.0944 296.356 64.0944C299.579 64.0944 301.293 63.1138 303.296 62.0415V62.0486Z" fill="#F46262"/>
<path d="M316.148 43.2908H322.891V47.3965C324.648 44.9556 326.362 43.2908 330.417 43.2908H332.519V49.6469H329.197C326.608 49.6469 324.894 50.1336 322.891 51.2129V69.6886H316.148V43.2978V43.2908Z" fill="#F46262"/>
<path d="M72.9841 51.1885C73.7517 50.5316 74.6447 50.0961 75.5895 49.8304C74.4528 48.6421 73.5745 46.5755 73.176 44.066L77.8332 41.6304L72.9914 39.6007C73.3236 34.7663 75.3607 31.0464 77.8332 31.0464C80.5346 31.0464 82.7266 35.497 82.7266 40.9883C82.7266 44.7967 81.6712 48.1033 80.1212 49.7713C81.4129 50.0444 82.6602 50.5389 83.7157 51.1811C79.981 51.2475 76.6597 50.6201 72.9841 51.1811V51.1885Z" fill="#F46262"/>
<path d="M49.3362 33.7108C52.0375 33.7108 54.2296 38.1614 54.2296 43.6527C54.2296 47.4021 53.211 50.657 51.698 52.3546C52.997 52.6055 54.2444 53.137 55.2408 53.8529C51.8973 53.9193 49.0262 53.2919 45.7565 53.8529C46.2215 53.3731 46.7677 53.0115 47.3507 52.7531C46.0886 51.6165 45.107 49.4318 44.6715 46.7378L49.3288 44.3022L44.487 42.2725C44.8191 37.4381 46.8562 33.7182 49.3288 33.7182L49.3362 33.7108Z" fill="#F46262"/>
<path d="M5 29.0315C5 28.7363 5.01476 28.4337 5.04429 28.1385C5.50189 23.0384 9.71631 19.193 14.8459 19.193C17.7466 19.193 20.4701 20.4773 22.3226 22.6324C29.9765 13.9896 40.8557 9.06661 52.4656 9.06661C53.1446 9.06661 53.8458 9.08875 54.6208 9.12566C59.6323 9.39136 64.4519 10.5649 68.9837 12.6094C70.5853 9.23637 74.0322 7 77.8628 7C82.9924 7 87.1994 10.8454 87.6644 15.9529C87.6865 16.2407 87.7087 16.5433 87.7087 16.8385C87.7087 17.1042 87.7013 17.3773 87.6792 17.5766C87.6718 17.739 87.657 17.894 87.6349 18.0637C87.5832 18.4475 87.5315 18.7428 87.4725 19.0011C87.4356 19.1709 87.3913 19.3259 87.3544 19.4735C87.3027 19.658 87.2511 19.8277 87.192 19.9975C87.0592 20.3887 86.9042 20.7725 86.7418 21.0972C86.6754 21.2375 86.6016 21.3777 86.5204 21.5253C86.1956 22.1379 85.7897 22.721 85.3321 23.245L85.2804 23.3041C85.2288 23.3631 85.1845 23.4148 85.1328 23.4665C84.9261 23.6953 84.6973 23.9241 84.4833 24.116L84.1659 24.3964C84.1659 24.3964 84.1364 24.4186 84.1216 24.426C89.7089 31.5115 92.7719 40.3019 92.7719 49.3655C92.7719 71.5889 74.689 89.6718 52.4656 89.6718C30.2422 89.6718 12.1593 71.5889 12.1593 49.3655C12.1593 45.7711 12.6391 42.2209 13.5691 38.7815C8.74204 38.1541 5 34.0283 5 29.0315ZM84.594 15.0524C83.7969 12.0632 81.0365 9.85635 77.8554 9.85635C75.1319 9.85635 72.6815 11.458 71.5448 13.8567C72.8439 14.5579 74.0986 15.3255 75.2795 16.1447C75.3459 16.1964 75.4124 16.2481 75.4862 16.2924C76.9623 15.0081 78.8813 14.2258 80.9922 14.2258C82.2838 14.2258 83.5017 14.521 84.594 15.045V15.0524ZM89.9008 49.3655C89.9008 40.4569 86.7197 31.8215 80.9405 25.0607C78.8075 22.566 76.3645 20.3592 73.6557 18.5066C72.3272 17.584 70.9027 16.7352 69.4266 15.9824L69.124 15.8348C65.345 13.9527 61.3299 12.757 57.1598 12.233C60.4147 18.2261 68.2383 34.6261 69.124 55.3144C73.7812 55.5653 78.1432 57.2998 78.1432 60.4145C78.1432 63.5292 73.6853 65.3079 68.9763 65.5294C68.8878 67.7879 68.7697 70.0242 68.6294 72.2016C69.9801 72.0466 71.1684 71.8694 72.1058 71.7144C72.8808 71.5816 73.6262 72.1056 73.7591 72.888C73.8919 73.6703 73.3679 74.4084 72.5855 74.5412C71.3899 74.7405 70.0023 74.9398 68.5114 75.1022C68.1128 78.3423 67.109 81.5234 65.596 84.4241C79.7818 79.0952 89.9081 65.3891 89.9081 49.3655H89.9008ZM67.9504 62.6878C72.711 62.6878 75.2721 61.0714 75.2721 60.4145C75.2721 59.7576 72.7036 58.1412 67.9504 58.1412H67.8988C63.1751 58.156 60.6213 59.7576 60.6213 60.4145C60.6213 61.0714 63.1382 62.6509 67.788 62.6878H67.9504ZM52.4656 86.8081C55.381 86.8081 58.2152 86.4612 60.9387 85.8264C63.1529 82.7486 64.6217 79.1247 65.19 75.3753C64.2896 75.4269 63.3596 75.4491 62.4296 75.4491C57.0121 75.4491 51.2625 74.5339 47.3877 71.4044C46.7751 70.9099 46.6791 70.0095 47.1736 69.3895C47.6681 68.7769 48.5686 68.6735 49.1886 69.1754C53.2553 72.4525 60.1932 72.8215 65.7436 72.4599C65.8912 70.1792 66.0167 67.8395 66.1126 65.4703C61.7358 65.0865 57.765 63.3594 57.765 60.4145C57.765 57.4696 61.8096 55.6982 66.2528 55.3513C65.2638 32.7514 55.7869 15.4805 53.713 11.9525C53.2849 11.9377 52.8642 11.9303 52.4656 11.9303C41.0919 11.9303 30.471 17.0083 23.3264 25.8652C22.0643 27.4225 20.9203 29.098 19.9239 30.8398C18.647 33.091 17.6063 35.4528 16.824 37.8663C15.6283 41.5788 15.0231 45.4463 15.0231 49.3729C15.0231 70.0168 31.8217 86.8154 52.4656 86.8154V86.8081ZM11.7091 26.4335C14.0636 26.4335 16.1745 27.4152 17.7023 28.9651C18.5363 27.5554 19.4589 26.1826 20.4553 24.8836C19.1489 23.1196 17.0749 22.0567 14.8459 22.0567C11.6648 22.0567 8.90443 24.2636 8.1073 27.2528C9.19965 26.7287 10.4175 26.4335 11.7091 26.4335Z" fill="#F46262"/>
<path d="M51.5356 17.2075C51.019 16.6909 51.019 15.8642 51.5356 15.3476C52.0523 14.8309 52.8789 14.8309 53.3956 15.3476C53.9122 15.8642 53.9122 16.6909 53.3956 17.2075C52.8789 17.7242 52.0523 17.7242 51.5356 17.2075Z" fill="#F46262"/>
<path d="M57.5214 24.5808C58.0381 25.0975 58.0381 25.9241 57.5214 26.4408C57.0048 26.9575 56.1782 26.9575 55.6615 26.4408C55.1448 25.9241 55.1448 25.0975 55.6615 24.5808C56.1782 24.0642 57.0048 24.0642 57.5214 24.5808Z" fill="#F46262"/>
<path d="M61.5513 36.9068C62.0679 37.4234 62.0679 38.2501 61.5513 38.7667C61.0346 39.2834 60.208 39.2834 59.6913 38.7667C59.1747 38.2501 59.1747 37.4234 59.6913 36.9068C60.208 36.3901 61.0346 36.3901 61.5513 36.9068Z" fill="#F46262"/>
<path d="M63.736 48.4355C64.2527 48.9521 64.2527 49.7788 63.736 50.2954C63.2194 50.8121 62.3927 50.8121 61.8761 50.2954C61.3594 49.7788 61.3594 48.9521 61.8761 48.4355C62.3927 47.9188 63.2194 47.9188 63.736 48.4355Z" fill="#F46262"/>
<path d="M64.2526 68.0832C64.7693 68.5998 64.7693 69.4265 64.2526 69.9431C63.736 70.4598 62.9093 70.4598 62.3927 69.9431C61.876 69.4265 61.876 68.5998 62.3927 68.0832C62.9093 67.5665 63.736 67.5665 64.2526 68.0832Z" fill="#F46262"/>
<path d="M61.5587 80.5048C62.0753 81.0215 62.0753 81.8481 61.5587 82.3647C61.042 82.8814 60.2154 82.8814 59.6987 82.3647C59.1821 81.8481 59.1821 81.0215 59.6987 80.5048C60.2154 79.9881 61.042 79.9881 61.5587 80.5048Z" fill="#F46262"/>
</svg>
