<svg width="399" height="729" viewBox="0 0 399 729" fill="none" xmlns="http://www.w3.org/2000/svg">
<path d="M351.496 160.034C381.942 216.99 398.522 289.114 398.522 364.333C398.522 494.65 347.878 611.967 271.61 658.709C272.213 660.875 272.816 663.352 272.816 665.828C272.816 678.829 262.265 689.663 249.604 689.663C245.082 689.663 240.56 688.425 236.943 685.948C237.244 687.186 237.244 688.734 237.244 689.972C237.244 711.331 220.363 728.665 199.563 728.665C178.762 728.665 161.881 711.331 161.881 689.972C161.881 688.734 161.881 687.186 162.182 685.948C158.565 688.425 154.043 689.663 149.521 689.663C136.86 689.663 126.309 679.138 126.309 665.828C126.309 663.352 126.611 660.875 127.515 658.709C50.9457 611.658 0 494.341 0 364.333C0 288.495 16.8814 215.752 47.9312 158.486C46.4239 157.558 45.5196 156.319 44.3138 155.081C34.0643 143.319 28.3367 127.222 26.8294 110.197C26.2265 98.1253 27.7338 85.7435 31.9541 74.6C32.557 72.7427 34.6672 67.4805 39.7919 66.8614C45.2181 66.2423 48.5341 70.8855 51.5487 75.2191C52.7545 76.7668 53.9603 78.3145 54.5632 79.2431C60.2908 84.8149 67.5257 89.4581 76.8708 93.7917C81.3926 95.9585 86.2159 97.8157 90.7377 99.3635C102.193 87.6008 114.251 77.6954 126.912 69.9568C126.309 67.4805 125.706 65.3137 125.706 62.8373C125.706 49.8365 136.257 39.0025 148.918 39.0025C153.44 39.0025 157.962 40.2407 161.579 42.717C161.579 41.4788 161.278 39.9311 161.278 38.6929C161.278 17.3344 178.159 0 198.96 0C219.76 0 236.641 17.3344 236.641 38.6929C236.641 39.9311 236.642 41.4788 236.34 42.717C239.957 40.2407 244.479 39.0025 249.001 39.0025C261.964 39.0025 272.213 49.8365 272.213 62.8373C272.213 65.3137 271.912 67.79 271.007 69.9568C283.97 78.005 296.631 88.2199 308.388 100.602C313.211 99.0539 317.733 97.1967 322.556 95.0298C331.901 90.6962 339.136 86.0531 344.864 80.4813C345.768 79.5527 346.974 78.005 347.878 76.4572C350.893 72.1236 354.209 67.4805 359.635 68.0996C364.76 68.7186 366.87 73.9809 367.473 75.8381C371.693 86.9817 373.2 99.3635 372.296 111.436C371.09 128.151 365.061 144.557 354.812 156.319C354.51 157.248 353.304 158.796 351.496 160.034ZM368.377 364.333C368.377 213.275 292.411 90.6962 199.261 90.6962C105.81 90.6962 30.1454 213.585 30.1454 364.333C30.1454 515.08 106.112 637.969 199.261 637.969C292.712 637.969 368.377 515.08 368.377 364.333Z" fill="black" fill-opacity="0.05"/>
<path d="M249.153 601.142C250.058 600.523 250.962 600.833 251.565 601.452C252.168 602.38 251.866 603.309 251.263 603.928L219.008 628.382C218.706 628.692 218.405 628.692 218.103 628.692C217.501 628.692 216.898 628.382 216.596 627.763C215.993 626.834 216.295 625.906 216.898 625.287L249.153 601.142Z" fill="black" fill-opacity="0.05"/>
<path d="M281.791 371.143C286.313 366.5 290.533 360.309 294.151 353.189C287.519 351.332 280.284 338.641 277.269 321.925C276.968 320.687 276.666 319.449 276.666 317.901H277.571L290.533 316.354L279.078 309.544L275.762 307.686C275.762 302.424 276.063 296.543 278.174 291.59C274.858 292.209 271.24 293.447 267.924 295.614C266.115 298.09 264.608 300.876 263.402 303.043C262.196 305.21 260.991 307.067 260.086 308.924L258.88 311.091C254.962 317.901 250.741 325.33 245.616 332.14C244.109 334.307 242.3 336.164 240.793 338.022C236.573 358.142 241.698 375.786 253.153 380.739C261.594 384.144 271.542 380.429 280.585 372.071C280.585 372.071 281.188 371.452 281.791 371.143ZM321.583 277.661C322.789 279.208 322.487 281.685 320.679 282.613C319.171 283.851 316.76 283.542 315.554 281.685C311.334 275.494 302.591 272.398 294.452 273.946C286.916 275.494 280.887 280.137 276.365 284.471C281.188 283.542 286.011 284.161 290.533 285.709C299.577 289.423 305.907 298.4 308.018 311.091C310.128 323.164 308.319 337.093 303.194 350.403C301.988 353.189 300.783 355.975 299.577 358.451C303.797 354.737 307.716 350.713 311.032 346.379C312.238 344.832 314.649 344.522 316.157 345.76C317.664 346.998 317.966 349.475 316.76 351.022C308.319 361.856 297.768 370.524 286.313 377.024C278.174 385.072 268.828 389.715 260.086 389.715C256.77 389.715 253.756 389.096 251.043 387.858C238.08 382.286 231.448 366.19 232.955 346.379C230.242 348.546 227.529 350.403 224.816 351.951C223.309 352.88 221.5 353.499 220.294 353.499C218.787 353.499 217.28 352.88 216.074 351.641C214.265 349.475 214.567 346.689 214.567 345.76C215.17 339.26 216.978 333.069 219.993 327.188C220.897 325.33 223.007 324.711 224.816 325.64C226.625 326.568 227.228 328.735 226.323 330.593C223.912 335.236 222.405 340.498 221.802 345.451C228.434 341.427 234.764 335.545 240.793 327.807C245.616 321.306 249.837 314.496 253.454 307.686L254.66 305.52C255.866 303.353 257.072 301.495 257.976 299.638C259.483 297.162 260.991 294.066 263.101 290.971C264.91 288.495 266.718 285.709 268.828 283.232C273.953 277.042 282.695 269.303 293.849 266.827C304.4 264.66 315.855 268.993 321.583 277.661Z" fill="black" fill-opacity="0.05"/>
<path d="M232.737 233.085L200.18 257.539C199.878 257.849 199.577 257.849 199.275 257.849C198.672 257.849 198.07 257.539 197.768 257.23C197.165 256.301 197.467 255.372 198.07 254.753L230.325 230.299C231.229 229.68 232.134 229.99 232.737 230.609C233.943 231.228 233.641 232.466 232.737 233.085Z" fill="black" fill-opacity="0.05"/>
<path d="M170.718 369.06C171.43 368.572 172.143 368.816 172.617 369.303C173.092 370.035 172.855 370.766 172.38 371.253L146.981 390.509C146.743 390.753 146.506 390.753 146.268 390.753C145.794 390.753 145.319 390.509 145.082 390.022C144.607 389.291 144.844 388.559 145.319 388.072L170.718 369.06Z" fill="black" fill-opacity="0.05"/>
<path d="M297.894 475.768C298.798 475.149 299.703 475.459 300.306 476.078C300.909 477.006 300.607 477.935 300.004 478.554L173.394 577.298C173.092 577.608 172.791 577.608 172.188 577.608C171.585 577.608 170.982 577.298 170.68 576.989C170.078 576.06 170.078 575.132 170.982 574.512L297.894 475.768Z" fill="black" fill-opacity="0.05"/>
<path d="M228.801 452.863C229.705 452.244 230.609 452.553 231.212 453.172C231.815 454.101 231.815 455.03 230.911 455.649L162.481 509.509C162.179 509.819 161.878 509.819 161.576 509.819C160.973 509.819 160.371 509.509 160.069 509.2C159.466 508.271 159.466 507.342 160.371 506.723L228.801 452.863Z" fill="black" fill-opacity="0.05"/>
<path d="M207.66 131.247C208.564 130.628 209.469 130.937 210.071 131.556C210.674 132.485 210.674 133.413 209.77 134.033L141.641 187.893C141.34 188.203 141.038 188.203 140.436 188.203C139.833 188.203 139.531 187.893 138.928 187.584C138.325 186.655 138.627 185.726 139.23 185.107L207.66 131.247Z" fill="black" fill-opacity="0.05"/>
<path d="M118.124 228.135L244.735 129.39C245.338 128.771 246.544 129.081 247.147 129.7C247.75 130.628 247.448 131.557 246.845 132.176L120.235 230.92C119.933 231.23 119.632 231.23 119.33 231.23C118.727 231.23 118.124 230.92 117.823 230.611C117.22 229.992 117.22 228.754 118.124 228.135Z" fill="black" fill-opacity="0.05"/>
<path d="M149.475 383.835C160.93 379.191 166.055 361.238 161.835 341.118C161.533 340.808 161.232 340.498 160.93 340.189C163.041 356.904 159.725 370.834 153.093 372.072C145.556 373.62 136.814 359.381 133.498 340.808C133.197 339.57 133.197 338.332 132.895 337.093H133.8L146.762 335.546L135.307 328.736L131.991 326.879C131.991 316.354 134.402 308.306 138.623 305.52C137.417 303.353 136.211 301.186 134.704 299.02C127.469 294.686 120.536 293.757 114.808 296.234C108.176 299.02 103.353 306.139 101.544 316.045C99.7352 326.569 101.243 339.26 106.066 351.332C109.683 360.619 114.808 368.667 120.536 374.548C120.536 374.548 120.837 374.548 120.837 374.858C121.44 375.167 122.043 375.786 122.344 376.096C130.785 383.525 141.034 387.24 149.475 383.835ZM109.08 269.613C120.536 271.78 128.976 279.828 134.101 286.019C136.211 288.495 138.02 291.281 139.829 293.757C139.829 293.757 139.829 293.757 139.829 294.067C141.939 297.162 143.446 299.948 144.953 302.734C146.159 304.591 147.064 306.449 148.269 308.616L149.777 311.092C153.696 317.902 157.614 324.712 162.438 331.212C168.467 338.951 174.496 344.832 181.429 348.856C180.826 343.594 179.319 338.641 176.908 333.998C176.003 332.141 176.606 329.974 178.415 329.045C180.223 328.117 182.334 328.736 183.238 330.593C186.253 336.474 188.061 342.665 188.363 349.475C188.363 350.404 188.664 353.19 186.855 355.357C185.65 356.595 184.142 357.214 182.635 357.214C181.128 357.214 179.621 356.595 178.113 355.976C175.4 354.428 172.687 352.571 169.974 350.404C171.783 369.905 164.849 386.311 151.887 391.883C148.872 393.121 145.858 393.74 142.843 393.74C134.101 393.74 124.756 389.097 116.315 381.358C104.559 374.858 94.0076 365.881 85.8684 355.357C84.6625 353.809 84.964 351.332 86.4713 350.094C87.9785 348.856 90.3902 349.166 91.596 350.713C94.912 355.047 98.8309 359.071 103.051 362.786C101.845 360.309 100.338 357.523 99.4338 354.737C94.3091 341.427 92.5003 327.498 94.6105 315.425C96.7207 302.734 103.051 293.757 112.095 290.043C116.315 288.186 121.138 287.876 126.263 288.805C121.741 284.162 115.712 279.518 108.176 278.28C99.7352 276.733 90.9931 279.828 87.0742 286.019C85.8684 287.567 83.7582 288.186 82.2509 286.947C80.7436 285.709 80.1407 283.542 81.3465 281.995C86.4713 271.47 97.9265 267.446 109.08 269.613Z" fill="black" fill-opacity="0.05"/>
</svg>
