<svg width="212" height="75" viewBox="0 0 212 75" fill="none" xmlns="http://www.w3.org/2000/svg">
<path d="M36.3702 16.3801C39.5107 22.1994 41.2507 29.5705 41.2507 37.2433C41.2507 50.5629 35.9883 62.5463 28.137 67.331C28.2219 67.5897 28.2644 67.8052 28.2644 68.0638C28.2644 69.4001 27.2034 70.4777 25.8453 70.4777C24.4873 70.4777 24.9117 70.3484 24.5297 70.0898V70.4777C24.5297 72.6761 22.7897 74.4435 20.6253 74.4435C18.461 74.4435 16.721 72.6761 16.721 70.4777C16.721 68.2793 16.721 70.2191 16.721 70.0898C16.339 70.3484 15.8722 70.4777 15.4053 70.4777C14.0897 70.4777 12.9863 69.4001 12.9863 68.0638C12.9863 66.7275 12.9863 67.5465 13.1136 67.331C5.26243 62.5463 0 50.5198 0 37.2433C0 23.9667 1.74 22.0701 4.96536 16.2077C4.83804 16.1215 4.71073 15.9922 4.62585 15.8629C3.56487 14.6559 2.97073 13.0179 2.84341 11.2937C2.75853 10.0436 2.84341 8.79355 3.31024 7.6728C3.39512 7.50038 3.60731 6.94001 4.11658 6.8969C4.66829 6.81069 5.0078 7.32796 5.30487 7.75902C5.43219 7.93144 5.51707 8.10386 5.64438 8.19007C6.23853 8.75045 7.00243 9.22461 7.97853 9.65567C8.44536 9.87119 8.91219 10.0436 9.42145 10.216C10.6097 9.00908 11.8405 8.01765 13.1561 7.19864C13.0712 6.98312 13.0288 6.72448 13.0288 6.46585C13.0288 5.12957 14.0897 4.00882 15.4478 4.00882C16.8058 4.00882 16.3814 4.13814 16.7634 4.39678V3.96572C16.7634 1.76733 18.5034 0 20.6678 0C22.8322 0 24.5722 1.76733 24.5722 3.96572C24.5722 6.16411 24.5722 4.22435 24.5722 4.39678C24.9541 4.13814 25.421 4.00882 25.8878 4.00882C27.2034 4.00882 28.3068 5.08647 28.3068 6.46585C28.3068 7.84523 28.3068 6.98312 28.1795 7.19864C29.5375 8.01765 30.8107 9.05219 32.0414 10.3454C32.5083 10.1729 33.0175 10.0005 33.4844 9.78498C34.4605 9.35392 35.2244 8.87976 35.7761 8.31939C35.8609 8.23318 35.9883 8.06076 36.1156 7.88833C36.4126 7.45728 36.7946 6.94001 37.3039 7.02622C37.8131 7.11243 38.0253 7.6297 38.1102 7.84523C38.5346 8.96597 38.7044 10.2591 38.577 11.5092C38.4497 13.2334 37.8131 14.9146 36.7522 16.0784C36.6673 16.1646 36.54 16.337 36.3278 16.4664V16.3801H36.3702ZM38.1526 37.2864C38.1526 21.8546 30.3014 9.31082 20.6678 9.31082C11.0341 9.31082 3.18292 21.8546 3.18292 37.2864C3.18292 52.7182 11.0341 65.2619 20.6678 65.2619C30.3014 65.2619 38.1526 52.7182 38.1526 37.2864Z" fill="black"/>
<path d="M33.3134 28.4096C33.4407 28.5821 33.3982 28.7976 33.2285 28.9269C33.0587 29.0562 32.8465 29.0131 32.7192 28.8407C32.2948 28.1941 31.4036 27.8924 30.5124 28.0648C29.7485 28.1941 29.1119 28.6683 28.6451 29.1424C29.1543 29.0562 29.6636 29.1424 30.088 29.2717C31.0217 29.6597 31.6582 30.5649 31.9129 31.8581C32.1251 33.065 31.9129 34.4875 31.4036 35.8669C31.2763 36.1687 31.149 36.4273 31.0217 36.6859C31.446 36.298 31.828 35.91 32.2099 35.4359C32.3373 35.2634 32.5495 35.2634 32.7192 35.4359C32.889 35.5652 32.889 35.7807 32.7192 35.9531C31.8704 37.0308 30.767 37.9791 29.5363 38.6257C28.6875 39.4447 27.7114 39.9188 26.8202 39.9188C25.929 39.9188 26.1836 39.8757 25.8865 39.7464C24.5709 39.186 23.8495 37.548 24.0192 35.5221C23.7646 35.7376 23.4675 35.9531 23.2129 36.0824C23.0431 36.1687 22.8734 36.2118 22.746 36.2118C22.6187 36.2118 22.449 36.2118 22.3217 36.0393C22.1095 35.8238 22.1519 35.5221 22.1519 35.4359C22.1519 34.7893 22.4065 34.1427 22.7036 33.5392C22.7885 33.3668 23.0431 33.2806 23.2129 33.3668C23.3826 33.453 23.4675 33.6685 23.3826 33.8841C23.128 34.3582 23.0007 34.8755 22.9158 35.4359C23.5948 35.0479 24.2314 34.4444 24.868 33.6254C25.3773 32.9788 25.8017 32.246 26.1836 31.5563L26.3109 31.3408C26.4382 31.1253 26.5231 30.9098 26.6504 30.7373C26.7778 30.4787 26.9899 30.177 27.1597 29.8752C27.3295 29.6166 27.4992 29.358 27.7538 29.0993C28.3056 28.4527 29.1543 27.6768 30.3426 27.4182C31.4885 27.2027 32.6768 27.6337 33.2709 28.4958L33.3134 28.4096ZM28.7299 32.5478L30.088 32.3754L28.8997 31.6857L28.5602 31.4701C28.5602 30.9529 28.5602 30.3494 28.8148 29.8321C28.4753 29.8321 28.0934 30.0045 27.7538 30.2201C27.5841 30.4787 27.4143 30.7373 27.287 30.996C27.1597 31.2115 27.0324 31.3839 26.9475 31.5995L26.8202 31.815C26.4382 32.5047 25.9714 33.2806 25.4621 33.9703C25.2924 34.1858 25.1226 34.4013 24.9529 34.5737C24.5285 36.5997 25.0378 38.4533 26.226 38.9274C27.0748 39.2723 28.1358 38.9274 29.0695 38.0222C29.0695 37.9791 29.1543 37.936 29.1968 37.8929C29.6636 37.4187 30.088 36.7721 30.4699 36.0824C29.7909 35.91 29.027 34.5737 28.7299 32.8926C28.7299 32.7633 28.7299 32.634 28.6451 32.5047H28.7299V32.5478Z" fill="black"/>
<path d="M20.6724 9.26562C30.306 9.26562 38.1572 21.8094 38.1572 37.2412C38.1572 52.673 30.306 65.2168 20.6724 65.2168C11.0387 65.2168 3.1875 52.673 3.1875 37.2412C3.1875 21.8094 11.0387 9.26562 20.6724 9.26562ZM33.2343 28.9218C33.4041 28.7925 33.4465 28.577 33.3192 28.4045C32.725 27.5424 31.5367 27.0683 30.3909 27.3269C29.2026 27.5424 28.3114 28.3614 27.8021 29.008C27.5899 29.2667 27.3777 29.5253 27.208 29.7839C26.9958 30.1288 26.826 30.3874 26.6987 30.646C26.5714 30.8616 26.4441 31.0771 26.3592 31.2495L26.2319 31.465C25.8499 32.1547 25.4255 32.8875 24.9163 33.5341C24.2797 34.3531 23.6431 34.9135 22.9641 35.3445C23.0489 34.8273 23.1763 34.31 23.4309 33.7927C23.5158 33.6203 23.4309 33.3617 23.2611 33.2755C23.0914 33.1893 22.8367 33.2755 22.7519 33.4479C22.4548 34.0514 22.285 34.698 22.2002 35.3445C22.2002 35.4308 22.2002 35.7325 22.3699 35.948C22.4972 36.0773 22.6246 36.1204 22.7943 36.1204C22.9641 36.1204 23.0914 36.1204 23.2611 35.9911C23.5582 35.8187 23.8128 35.6463 24.0675 35.4308C23.8977 37.4567 24.5767 39.0947 25.9348 39.6551C26.2319 39.7844 26.5714 39.8275 26.8685 39.8275C27.7597 39.8275 28.7358 39.3534 29.5845 38.5344C30.7728 37.8878 31.8763 36.9826 32.7675 35.8618C32.8948 35.6894 32.8523 35.4739 32.7675 35.3445C32.5977 35.2152 32.3855 35.2583 32.2582 35.3445C31.9187 35.7756 31.4943 36.2067 31.0699 36.5946C31.1972 36.336 31.3245 36.0773 31.4519 35.7756C32.0036 34.3962 32.1733 32.9737 31.9611 31.7668C31.7065 30.4736 31.0699 29.5684 30.1363 29.1804C29.6694 29.008 29.2026 28.9649 28.6933 29.0511C29.1602 28.577 29.7967 28.1028 30.5606 27.9735C31.4094 27.8011 32.3006 28.1028 32.7675 28.7494C32.8948 28.9218 33.107 28.9649 33.2767 28.8356L33.2343 28.9218ZM31.0699 48.9659C31.1548 48.9228 31.1548 48.7935 31.0699 48.7073C31.0699 48.6211 30.9002 48.6211 30.8153 48.7073L17.7441 58.794C17.6592 58.8371 17.6592 58.9664 17.7441 59.0527C17.7441 59.0958 17.8289 59.1389 17.8714 59.1389H17.9987L31.1123 49.0521V48.9659H31.0699ZM26.4865 56.6818C26.5714 56.6387 26.5714 56.5094 26.4865 56.4232C26.4865 56.337 26.3167 56.337 26.2319 56.3801L22.8792 58.8802C22.7943 58.9233 22.7943 59.0527 22.8792 59.1389C22.8792 59.182 22.9641 59.2251 23.0065 59.2251H23.1338L26.4865 56.725V56.6818ZM25.5953 13.5762C25.6802 13.49 25.6802 13.4038 25.5953 13.3176C25.5104 13.2313 25.4255 13.2313 25.3406 13.3176L12.227 23.4043C12.1421 23.4043 12.1421 23.5767 12.227 23.6629C12.227 23.6629 12.3119 23.7491 12.3543 23.7491H12.4816C12.4816 23.7491 25.5528 13.6624 25.5953 13.6624V13.5762ZM24.1099 23.8784C24.1948 23.8784 24.1948 23.706 24.1099 23.6198C24.025 23.5336 23.9402 23.5336 23.8553 23.6198L20.5026 26.1199C20.4177 26.2061 20.4177 26.2924 20.5026 26.3786C20.5026 26.3786 20.5875 26.4648 20.6724 26.4648C20.7572 26.4648 20.7572 26.4648 20.7572 26.4648L24.1099 23.9647V23.8784ZM23.9402 46.6382C24.025 46.5951 24.025 46.4658 23.9402 46.3796C23.8553 46.2934 23.7704 46.2934 23.6855 46.3796L16.6407 51.8971C16.5558 51.9402 16.5558 52.0695 16.6407 52.1558C16.6407 52.1989 16.7255 52.242 16.768 52.242C16.8104 52.242 16.8529 52.242 16.8953 52.1989L23.9402 46.6813V46.6382ZM23.0914 44.1381C23.1763 44.095 23.1763 43.9657 23.0914 43.8795C23.0914 43.7933 22.9216 43.7933 22.8367 43.8364L19.4841 46.3365C19.3992 46.3796 19.3992 46.5089 19.4841 46.5951C19.4841 46.6382 19.5689 46.6813 19.6114 46.6813H19.7387L23.0914 44.1812V44.1381ZM21.7333 13.7486C21.8182 13.6624 21.8182 13.5762 21.7333 13.49C21.6485 13.4038 21.5636 13.4038 21.4787 13.49L14.4338 19.0075C14.349 19.0937 14.349 19.1799 14.4338 19.2661C14.4338 19.2661 14.5187 19.3523 14.5611 19.3523H14.6885L21.7333 13.8348V13.7486ZM19.3992 36.2929C19.5689 36.0773 19.5689 35.7756 19.5689 35.6894C19.4841 34.9997 19.3143 34.3531 19.0172 33.7927C18.9324 33.6203 18.7202 33.5341 18.508 33.6203C18.2958 33.7065 18.2533 33.9221 18.3382 34.1376C18.5928 34.6117 18.7202 35.129 18.805 35.6894C18.126 35.3014 17.4894 34.698 16.8529 33.879C16.3436 33.2324 15.9192 32.4996 15.5372 31.8099L15.4099 31.5512C15.2826 31.3357 15.1977 31.1633 15.0704 30.9478C14.9431 30.6891 14.7309 30.3874 14.5611 30.0857C14.3914 29.827 14.1792 29.5684 13.967 29.3098C13.4153 28.6632 12.5665 27.8873 11.3782 27.6286C10.2324 27.4131 9.04408 27.8442 8.44993 28.7063C8.32262 28.8787 8.36506 29.0942 8.53481 29.2235C8.70457 29.3529 8.91676 29.3098 9.04408 29.1373C9.46847 28.5339 10.3597 28.189 11.2509 28.3614C12.0148 28.5339 12.6514 28.9649 13.1182 29.4391C12.609 29.3529 12.0997 29.4391 11.6753 29.5684C10.7416 29.9563 10.1051 30.8616 9.85042 32.1547C9.63822 33.3617 9.85042 34.7842 10.3597 36.1636C10.487 36.4653 10.6143 36.7239 10.7416 36.9826C10.3172 36.5946 9.89286 36.2067 9.55335 35.7325C9.42603 35.5601 9.21384 35.5601 9.04408 35.7325C8.87432 35.9049 8.87432 36.0773 9.04408 36.2498C9.89286 37.3274 10.9963 38.2757 12.227 38.9223C13.0758 39.7413 14.0519 40.2155 14.9431 40.2155C15.8343 40.2155 15.5797 40.1724 15.8768 40.0431C17.1924 39.4827 17.9138 37.8447 17.7441 35.8187C17.9987 36.0342 18.2958 36.2067 18.5928 36.3791C18.7626 36.4653 18.9324 36.5084 19.0597 36.5084C19.187 36.5084 19.3992 36.5084 19.4841 36.336L19.3992 36.2929Z" fill="#E4E3FD"/>
<path d="M31.1091 48.7084C31.194 48.7946 31.1091 48.9239 31.1091 48.967L17.9955 59.0537H17.8682C17.8682 59.0537 17.7408 59.0537 17.7408 58.9675C17.656 58.8813 17.7408 58.752 17.7408 58.7089L30.8121 48.6222C30.8969 48.5791 31.0243 48.5791 31.0667 48.6222V48.7084H31.1091Z" fill="black"/>
<path d="M26.5292 56.4251C26.6141 56.5113 26.5292 56.6406 26.5292 56.6837L23.1765 59.1838H23.0492C23.0492 59.1838 22.9219 59.1838 22.9219 59.0976C22.9219 59.0114 22.9219 58.8821 22.9219 58.839L26.2746 56.3389C26.3594 56.2958 26.4868 56.2958 26.5292 56.382V56.4251Z" fill="black"/>
<path d="M25.6305 13.3186C25.7154 13.4048 25.6305 13.5342 25.6305 13.5773L12.5593 23.664H12.432C12.3896 23.664 12.3047 23.664 12.3047 23.5778C12.3047 23.4916 12.3047 23.3623 12.3047 23.3191L25.4183 13.2324C25.5032 13.2324 25.6305 13.2324 25.673 13.2324V13.3186H25.6305Z" fill="black"/>
<path d="M24.1496 23.6253C24.1496 23.7115 24.1496 23.8408 24.1496 23.8839L20.7969 26.384H20.7121C20.7121 26.384 20.5847 26.384 20.5423 26.2978C20.4999 26.2116 20.5423 26.0823 20.5423 26.0392L23.895 23.5391C23.9799 23.5391 24.1072 23.5391 24.1496 23.5391V23.6253Z" fill="black"/>
<path d="M23.9401 46.3801C23.9401 46.4663 23.9401 46.5956 23.9401 46.6388L16.8953 52.1563C16.8953 52.1563 16.8104 52.1994 16.7679 52.1994C16.7255 52.1994 16.6406 52.1994 16.6406 52.1132C16.6406 52.027 16.6406 51.8976 16.6406 51.8545L23.6855 46.337C23.7704 46.2939 23.8977 46.2939 23.9401 46.337V46.3801Z" fill="black"/>
<path d="M23.1308 43.8411C23.2156 43.9273 23.1308 44.0566 23.1308 44.0997L19.7781 46.5999H19.6508C19.6508 46.5999 19.5234 46.5998 19.5234 46.5136C19.5234 46.4274 19.5234 46.2981 19.5234 46.255L22.8761 43.7549C22.961 43.7118 23.0883 43.7118 23.1308 43.798V43.8411Z" fill="black"/>
<path d="M21.7747 13.4937C21.8596 13.5799 21.7747 13.7092 21.7747 13.7523L14.7299 19.2698H14.6025C14.5601 19.2698 14.4752 19.2698 14.4752 19.1836C14.3903 19.0974 14.4752 18.9681 14.4752 18.925L21.5201 13.4075C21.605 13.3212 21.7323 13.4075 21.7747 13.4075V13.4937Z" fill="black"/>
<path d="M19.5201 35.69C19.5201 35.7762 19.5201 36.0779 19.3504 36.2935C19.223 36.4228 19.0957 36.4659 18.926 36.4659C18.7562 36.4659 18.6289 36.4659 18.4591 36.3366C18.1621 36.1641 17.9074 35.9917 17.6104 35.7762C17.7801 37.8021 17.1011 39.4402 15.743 40.0005C15.446 40.1299 15.1065 40.173 14.8094 40.173C13.8757 40.173 12.9421 39.6988 12.0933 38.8798C10.8626 38.2332 9.80158 37.328 8.91036 36.2072C8.78304 36.0348 8.82548 35.8193 8.91036 35.69C9.08012 35.5607 9.29231 35.6038 9.41963 35.69C9.75914 36.121 10.1835 36.5521 10.6079 36.94C10.4806 36.6814 10.3533 36.4228 10.226 36.121C9.67426 34.7416 9.50451 33.3192 9.7167 32.1122C9.9289 30.819 10.5655 29.9138 11.5416 29.5259C12.0084 29.3534 12.4752 29.3103 12.9845 29.3965C12.5177 28.9224 11.8811 28.4482 11.1172 28.3189C10.2684 28.1465 9.37719 28.4482 8.91036 29.0948C8.78304 29.2672 8.57085 29.3103 8.40109 29.181C8.23134 29.0517 8.1889 28.8362 8.31622 28.6638C8.91036 27.8016 10.0987 27.3275 11.2445 27.5861C12.4328 27.8016 13.2816 28.6206 13.8333 29.2672C14.0455 29.5259 14.2577 29.7845 14.4274 30.0431C14.6396 30.3449 14.8094 30.6466 14.9367 30.9052C15.064 31.0777 15.1489 31.2932 15.2762 31.5087L15.4035 31.7674C15.7855 32.457 16.2099 33.1898 16.7191 33.8364C17.3557 34.6554 17.9923 35.2158 18.6713 35.6469C18.6713 35.1296 18.4591 34.6123 18.2045 34.0951C18.1196 33.9226 18.2045 33.7071 18.3743 33.5778C18.544 33.4485 18.7562 33.5778 18.8835 33.7502C19.1806 34.3537 19.3504 35.0003 19.4352 35.6469L19.5201 35.69ZM15.4884 39.2677C16.6767 38.7936 17.2284 36.94 16.7616 34.9141C16.7616 34.9141 16.7616 34.8279 16.6767 34.8279C16.8889 36.5521 16.5494 37.9315 15.8704 38.1039C15.1065 38.2332 14.2152 36.8107 13.8333 34.9141C13.8333 34.7848 13.8333 34.6554 13.7484 34.5261H13.8333L15.1913 34.3537L14.003 33.664L13.6635 33.4485C13.6635 32.3708 13.9182 31.5518 14.3425 31.2501C14.2152 31.0346 14.0879 30.819 13.9182 30.5604C13.1967 30.1293 12.4752 30 11.8387 30.2587C11.1596 30.5604 10.6504 31.2501 10.4806 32.2846C10.2684 33.3623 10.4806 34.6554 10.9474 35.8624C11.3294 36.8107 11.8811 37.6297 12.4752 38.2332C12.5601 38.2332 12.6026 38.3194 12.6026 38.3625C13.5362 39.2246 14.5547 39.6126 15.446 39.2246H15.4884V39.2677Z" fill="black"/>
<path d="M211.78 38.4993C211.78 39.5338 211.95 40.6545 211.865 41.6891C211.738 43.5857 210.337 44.2323 208.64 44.1892H202.996C202.486 44.1892 202.147 43.7581 202.104 43.284C202.104 42.5512 202.019 41.8184 201.977 41.0425C199.303 43.3271 196.036 45.0513 192.471 44.534C190.858 44.2754 189.415 43.4564 188.694 41.9477C187.972 40.4821 187.972 38.801 187.887 37.2061C187.802 35.0939 187.76 32.9817 187.675 30.8264C187.633 28.8867 187.463 26.9469 187.675 25.0072C187.887 23.3261 188.481 21.6881 189.627 20.438C190.816 19.1879 192.471 18.5844 194.126 18.4982C195.951 18.3689 197.86 18.8862 199.558 19.4897C200.364 19.7914 201.128 20.1362 201.807 20.5673C201.722 18.7138 201.637 16.8171 201.553 14.9636C201.51 13.7566 201.34 12.5065 201.425 11.2996C201.468 10.2219 202.062 9.48915 203.123 9.35984C204.226 9.23052 205.372 9.35984 206.518 9.35984C207.664 9.35984 208.555 9.18741 209.489 9.35984C211.653 9.8771 211.271 12.5065 211.271 14.2308C211.271 18.8862 211.016 23.5416 211.186 28.2401C211.271 30.4385 211.441 32.6369 211.568 34.8784C211.568 36.0853 211.653 37.2492 211.696 38.4561H211.78V38.4993ZM209.998 42.1201C210.253 41.8184 210.125 41.0425 210.083 40.6976C210.083 40.1373 210.083 39.5769 209.998 39.0596C209.828 35.1801 209.574 31.3437 209.404 27.4642C209.276 23.4554 209.489 19.4466 209.489 15.4377V12.3341C209.489 12.0755 209.574 11.5151 209.361 11.2996C209.192 11.0841 208.682 11.1703 208.47 11.1703H205.499C205.16 11.1703 203.377 11.041 203.293 11.1703C203.123 11.4289 203.293 12.1617 203.293 12.4634L203.377 13.8428C203.377 14.7911 203.462 15.7826 203.505 16.7309C203.59 18.5844 203.675 20.4811 203.759 22.3346C203.972 22.7226 203.759 23.0674 203.547 23.283C203.165 23.6278 202.444 23.5847 202.147 23.0674C201.213 21.8174 199.6 21.3001 198.2 20.869C196.587 20.3518 194.805 20.0069 193.15 20.438C189.967 21.257 189.373 24.6192 189.373 27.5504C189.415 30.9127 189.585 34.318 189.712 37.6802C189.755 38.9303 189.797 40.3959 190.561 41.4735C191.41 42.6374 192.98 42.8098 194.296 42.7236C197.309 42.5081 199.897 40.6114 202.019 38.5424C202.104 38.413 202.189 38.3699 202.316 38.2837C202.614 38.0682 202.953 38.1113 203.208 38.2837C203.377 38.413 203.505 38.5855 203.59 38.801V39.0165C203.59 40.0942 203.717 41.1718 203.802 42.2063C205.372 42.2063 206.9 42.1632 208.47 42.2063C208.895 42.2063 209.658 42.2925 209.955 41.9477V42.077L209.998 42.1201Z" fill="black"/>
<path d="M210.121 40.6992C210.121 41.044 210.248 41.8199 210.036 42.1216C209.739 42.4665 208.933 42.3803 208.551 42.3803C206.981 42.3372 205.453 42.3803 203.883 42.3803C203.798 41.3026 203.755 40.225 203.67 39.1905V38.9749C203.67 38.7163 203.458 38.587 203.288 38.4577C203.034 38.2852 202.694 38.2421 202.397 38.4577C202.27 38.5008 202.185 38.587 202.1 38.7163C199.978 40.7854 197.389 42.682 194.376 42.8975C193.061 42.9838 191.49 42.8544 190.642 41.6475C189.878 40.5698 189.878 39.1042 189.793 37.8542C189.666 34.4919 189.496 31.0866 189.453 27.7244C189.453 24.8363 190.005 21.474 193.23 20.6119C194.928 20.1809 196.668 20.6119 198.281 21.043C199.681 21.474 201.294 21.9913 202.227 23.2414C202.525 23.7586 203.246 23.8017 203.628 23.4569C203.925 23.2414 204.052 22.8534 203.84 22.5086C203.755 20.655 203.67 18.7584 203.586 16.9048C203.586 15.9565 203.501 14.9651 203.458 14.0168L203.373 12.6374C203.373 12.3356 203.204 11.5597 203.373 11.3442C203.501 11.1718 205.241 11.3442 205.58 11.3442H208.551C209.527 11.3442 209.272 11.3442 209.442 11.4735C209.654 11.6891 209.569 12.2494 209.569 12.5081V15.6117C209.569 19.6205 209.315 23.6293 209.485 27.6381C209.612 31.5177 209.909 35.3541 210.079 39.2336C210.079 39.7939 210.079 40.3543 210.164 40.8716V40.7423L210.121 40.6992ZM203.501 31.4314C203.628 29.9227 203.628 28.4572 203.628 26.9485C203.628 25.4398 203.628 26.7329 203.543 26.6467C203.543 26.5174 203.543 26.3881 203.416 26.2157C202.822 25.3104 201.93 24.9225 200.912 24.7932C199.936 24.6639 198.79 24.6207 197.856 25.0087C195.649 25.9139 195.777 28.9313 195.649 30.9573C195.522 32.9832 195.055 36.0869 197.262 37.1645C198.323 37.6818 199.511 37.5524 200.615 37.2938C201.676 37.0352 202.652 36.6903 202.991 35.5265C203.161 34.8799 203.204 34.1902 203.288 33.5436C203.373 32.8539 203.416 32.1211 203.501 31.4314Z" fill="#E4E3FD"/>
<path d="M203.628 26.9034C203.628 28.412 203.628 29.8776 203.501 31.3863C203.501 32.076 203.374 32.8088 203.289 33.4985C203.204 34.1451 203.161 34.8348 202.992 35.4814C202.652 36.6452 201.676 37.0332 200.615 37.2487C199.469 37.5073 198.323 37.6367 197.262 37.1194C195.056 36.0417 195.565 32.9381 195.65 30.9122C195.777 28.8862 195.65 25.8688 197.857 24.9636C198.79 24.5756 199.936 24.6188 200.912 24.7481C201.931 24.8774 202.822 25.2653 203.416 26.1706C203.501 26.2999 203.543 26.4723 203.543 26.6016C203.543 26.7309 203.543 26.774 203.628 26.9034ZM201.591 32.895C201.803 30.9553 201.888 29.0155 201.846 27.0758C201.464 26.5585 200.615 26.5585 200.021 26.5585C199.427 26.5585 198.366 26.4723 197.941 27.2051C197.56 27.8517 197.602 28.7138 197.517 29.4035C197.432 30.3949 197.39 31.3432 197.347 32.3347C197.347 33.1106 197.22 34.0589 197.432 34.8348C197.644 35.5676 198.323 35.7831 199.002 35.74C199.427 35.74 199.894 35.6107 200.318 35.5245C200.573 35.5245 200.997 35.4383 201.167 35.2227C201.379 35.0072 201.379 34.533 201.379 34.2313C201.464 33.8003 201.506 33.3261 201.549 32.895H201.591Z" fill="black"/>
<path d="M186.699 17.1212V24.363H183.643C181.521 24.363 179.739 24.7078 178.253 25.6562V42.338H170.063V17.0781H178.253V20.311C179.314 18.8455 181.097 17.0781 184.11 17.0781H186.699V17.1212Z" fill="black"/>
<path d="M165.777 23.1089V36.3854C165.777 40.4373 163.91 42.3771 159.878 42.3771H149.735C145.746 42.3771 143.836 40.4805 143.836 36.3854V23.1089C143.836 19.0569 145.703 17.1172 149.735 17.1172H159.878C163.867 17.1172 165.777 19.0138 165.777 23.1089ZM157.799 34.9198V24.6176C157.799 23.9279 157.586 23.6692 156.865 23.6692H152.833C152.154 23.6692 151.9 23.8848 151.9 24.6176V34.9198C151.9 35.6095 152.112 35.8681 152.833 35.8681H156.865C157.544 35.8681 157.799 35.6526 157.799 34.9198Z" fill="black"/>
<path d="M141.714 17.1212V24.363H138.659C136.537 24.363 134.754 24.7078 133.269 25.6562V42.338H125.078V17.0781H133.269V20.311C134.33 18.8455 136.113 17.0781 139.126 17.0781H141.714V17.1212Z" fill="black"/>
<path d="M121.769 17.1212V24.363H118.714C116.592 24.363 114.809 24.7078 113.324 25.6562V42.338H105.133V17.0781H113.324V20.311C114.385 18.8455 116.167 17.0781 119.18 17.0781H121.769V17.1212Z" fill="black"/>
<path d="M100.674 8.24023H92.1018V14.663H100.674V8.24023Z" fill="black"/>
<path d="M100.464 17.1172H92.2737V42.3771H100.464V17.1172Z" fill="black"/>
<path d="M87.7717 22.8512V42.3781H79.581V24.791C79.581 24.1013 79.3688 23.8426 78.5624 23.8426C76.9073 23.8426 75.719 24.2737 74.1063 25.1789V42.3781H65.9156V24.791C65.9156 24.1013 65.7034 23.8426 64.8971 23.8426C63.2419 23.8426 62.0537 24.2737 60.441 25.1789V42.3781H52.2502V17.1181H60.441V20.0493C61.6717 18.6268 63.3268 16.8164 67.3161 16.8164C71.3053 16.8164 73.1727 17.9803 73.8517 20.3942C74.9975 18.7131 77.1195 16.8164 80.9814 16.8164C84.8434 16.8164 87.8141 18.7131 87.8141 22.8081H87.7717V22.8512Z" fill="black"/>
<path d="M78.8022 67.9085V69.4514H76.2502V55.627H78.8022V60.7494C79.4706 59.8237 80.139 59.1448 82.0226 59.1448C83.9062 59.1448 84.8176 59.9471 84.8176 61.7986V66.8593C84.8176 68.7108 84.0278 69.5131 82.0226 69.5131C80.0175 69.5131 79.4706 68.8959 78.8022 67.9085ZM82.2657 66.5507V62.1072C82.2657 61.6134 82.1441 61.49 81.5365 61.49C80.2605 61.49 79.5921 61.6751 78.8022 62.1072V66.5507C79.5921 66.9827 80.1998 67.1679 81.5365 67.1679C82.8733 67.1679 82.2657 67.0444 82.2657 66.5507Z" fill="black"/>
<path d="M89.6182 69.4539L86.094 59.209H88.8283L90.8942 66.6766L92.9601 59.209H95.6336L91.0765 72.478H88.5852L89.5574 69.4539H89.6182Z" fill="black"/>
<path d="M101.891 56.1836H104.868L108.332 63.9598L111.795 56.1836H114.772V69.4526H112.099V60.9974L109.304 67.6628H107.299L104.504 60.9974V69.4526H101.952V56.1836H101.891Z" fill="black"/>
<path d="M119.755 65.072V66.9235C119.755 67.2321 119.877 67.3555 120.181 67.3555H122.55C122.854 67.3555 122.976 67.2321 122.976 66.9235V66.1212H125.528V66.9852C125.528 68.6516 124.738 69.4539 123.097 69.4539H119.634C117.993 69.4539 117.203 68.6516 117.203 66.9852V61.6776C117.203 60.0113 117.993 59.209 119.634 59.209H123.097C124.738 59.209 125.528 60.0113 125.528 61.6776V65.072H119.755ZM119.755 61.7394V63.2823H122.915V61.7394C122.915 61.4308 122.793 61.3073 122.49 61.3073H120.12C119.816 61.3073 119.695 61.4308 119.695 61.7394H119.755Z" fill="black"/>
<path d="M128.207 66.98V61.3639H126.688V59.2655H128.207V56.7969H130.698V59.2655H132.885V61.3639H130.698V66.9183C130.698 67.2269 130.82 67.3503 131.123 67.3503H132.885V69.5104H130.576C128.936 69.5104 128.146 68.7081 128.146 67.0418L128.207 66.98Z" fill="black"/>
<path d="M134.223 66.6157C134.223 64.4556 135.196 63.715 136.836 63.4682C137.687 63.3447 138.841 63.2213 140.056 63.1596V61.8018C140.056 61.4933 139.935 61.3698 139.631 61.3698H137.444C137.14 61.3698 137.018 61.4933 137.018 61.8018V62.419H134.466V61.7401C134.466 60.0738 135.256 59.2715 136.897 59.2715H140.117C141.758 59.2715 142.548 60.0738 142.548 61.7401V69.5164H139.996V67.9118C139.327 68.8375 138.659 69.5781 136.836 69.5781C135.013 69.5781 134.102 68.7758 134.102 66.6157H134.223ZM140.056 66.4923V64.8259L137.383 65.3197C136.897 65.4431 136.715 65.5665 136.715 66.3071C136.715 67.0477 136.836 67.2946 137.383 67.2946C138.598 67.2946 139.267 66.9243 140.056 66.4923Z" fill="black"/>
<path d="M144.906 55.627H147.458V69.4514H144.906V55.627Z" fill="black"/>
<path d="M150.133 56.1836H156.938C158.7 56.1836 159.551 57.0476 159.551 58.8374V60.6272C159.551 61.4912 159.247 62.1701 158.397 62.6638C159.308 63.0958 159.733 63.8364 159.733 64.7004V66.7988C159.733 68.5885 158.883 69.4526 157.121 69.4526H150.133V56.1836ZM156.513 61.4912C156.817 61.4912 156.878 61.3678 156.878 61.1209V59.0225C156.878 58.714 156.756 58.6522 156.513 58.6522H152.807V61.4912H156.513ZM156.635 66.9839C156.938 66.9839 156.999 66.8605 156.999 66.6136V64.2067C156.999 63.8981 156.878 63.8364 156.635 63.8364H152.807V66.9839H156.635Z" fill="black"/>
<path d="M164.232 65.072V66.9235C164.232 67.2321 164.353 67.3555 164.657 67.3555H167.027C167.331 67.3555 167.452 67.2321 167.452 66.9235V66.1212H170.004V66.9852C170.004 68.6516 169.214 69.4539 167.574 69.4539H164.11C162.47 69.4539 161.68 68.6516 161.68 66.9852V61.6776C161.68 60.0113 162.47 59.209 164.11 59.209H167.574C169.214 59.209 170.004 60.0113 170.004 61.6776V65.072H164.232ZM164.232 61.7394V63.2823H167.392V61.7394C167.392 61.4308 167.27 61.3073 166.966 61.3073H164.597C164.293 61.3073 164.171 61.4308 164.171 61.7394H164.232Z" fill="black"/>
<path d="M171.708 66.6157C171.708 64.4556 172.68 63.715 174.32 63.4682C175.171 63.3447 176.326 63.2213 177.541 63.1596V61.8018C177.541 61.4933 177.419 61.3698 177.115 61.3698H174.928C174.624 61.3698 174.503 61.4933 174.503 61.8018V62.419H171.951V61.7401C171.951 60.0738 172.741 59.2715 174.381 59.2715H177.602C179.242 59.2715 180.032 60.0738 180.032 61.7401V69.5164H177.48V67.9118C176.812 68.8375 176.143 69.5781 174.32 69.5781C172.498 69.5781 171.586 68.7758 171.586 66.6157H171.708ZM177.602 66.4923V64.8259L174.928 65.3197C174.442 65.4431 174.26 65.5665 174.26 66.3071C174.26 67.0477 174.381 67.2946 174.928 67.2946C176.143 67.2946 176.812 66.9243 177.602 66.4923Z" fill="black"/>
<path d="M182.467 59.209H185.019V60.8136C185.688 59.8879 186.356 59.209 187.875 59.209H188.665V61.6776H187.389C186.417 61.6776 185.748 61.8628 184.958 62.2948V69.4539H182.406V59.209H182.467Z" fill="black"/>
</svg>
