<svg width="86" height="86" viewBox="0 0 86 86" fill="none" xmlns="http://www.w3.org/2000/svg">
<rect x="1.57674" y="41.9883" width="57.715" height="59.3144" rx="4.13897" transform="rotate(-45 1.57674 41.9883)" fill="#E4E3FD" stroke="black" stroke-width="1.66637"/>
<path d="M57.8558 31.6909L56.5959 32.0771L49.2712 26.0657V23.4797C49.839 19.566 34.0878 22.1465 32.3472 21.4479C28.5609 21.1475 30.9512 31.8238 30.3162 33.6341C29.3325 33.5616 28.359 33.874 27.6012 34.5055C26.8434 35.137 26.3605 36.0382 26.2545 37.0189C27.0847 38.6555 24.1453 63.0281 28.2842 62.0667L55.3638 62.0665C58.9948 62.2932 56.8467 53.4712 57.3947 51.6616C58.9985 50.7481 65.865 50.4578 64.7533 47.2885C63.5335 45.7158 61.4661 30.0948 57.8558 31.6909ZM55.0389 32.5577L48.0323 34.7037C44.6137 31.8808 38.7715 33.1535 37.9931 37.7771C36.9479 38.1577 34.826 38.3903 34.5202 39.7268H33.7282C47.9915 24.5306 41.5659 21.1101 55.0389 32.5577ZM41.8967 36.4056C42.3973 35.8476 43.1541 35.3272 43.3171 34.5693C43.6872 34.5377 44.0596 34.5447 44.4282 34.5904C44.1345 34.9663 43.4688 35.7696 43.2072 36.1786L41.6456 36.6573C41.7282 36.5721 41.8132 36.4893 41.8967 36.4056ZM40.5708 36.519C40.3993 36.7195 40.2616 36.9322 40.0882 37.1347L39.5162 37.3101C39.7298 36.7182 40.0785 36.1842 40.5346 35.7507C40.9907 35.3172 41.5417 34.996 42.1437 34.8128C41.5843 35.3447 41.0957 35.952 40.5708 36.519ZM44.5125 35.4996C44.7313 35.2515 44.9534 35.0041 45.1465 34.7355C45.5633 34.8445 45.9644 35.0068 46.3399 35.2182L44.1749 35.8819C44.2874 35.7545 44.4 35.6271 44.5125 35.4996ZM34.9832 32.8218C34.9857 33.5848 35.0375 34.3408 35.1059 35.1005C35.1077 35.1553 35.1245 35.2085 35.1545 35.2545C35.1845 35.3004 35.2265 35.3372 35.276 35.3609C35.3255 35.3846 35.3805 35.3942 35.435 35.3888C35.4896 35.3834 35.5417 35.3631 35.5855 35.3301L34.6555 36.4638C34.4302 35.8717 34.3426 35.2361 34.3994 34.605C34.4562 33.974 34.6558 33.3642 34.9832 32.8218ZM35.8009 31.7994C36.0777 31.5334 36.3827 31.2982 36.7104 31.0979C36.5562 32.0284 36.5714 32.979 36.7553 33.904L35.6773 35.2181C35.8318 34.0855 35.8731 32.9403 35.8009 31.7994ZM38.3497 31.7122C38.3642 31.7672 38.3938 31.8171 38.435 31.8562L37.4554 33.0504C37.4607 32.2459 37.6669 31.4556 37.6125 30.6541C37.8972 30.5451 38.19 30.4583 38.4881 30.3944C38.2761 30.8001 38.2267 31.2713 38.3497 31.7122ZM39.0073 30.3049C39.2545 30.2713 39.5036 30.2527 39.7531 30.2493L39.082 31.0673C39.1507 30.8125 39.1242 30.5415 39.0073 30.3049ZM32.3471 22.8028L47.2403 22.8027C48.2419 22.7759 47.8416 24.3787 47.9172 24.9555C45.2355 21.5341 42.4193 27.4419 40.8088 28.9701C35.7658 28.1507 31.2301 33.1332 33.7078 37.6215C33.532 37.7459 31.9776 40.0121 31.6702 39.7268C31.6702 39.7268 31.6821 24.8377 31.6702 24.8336C31.75 24.2598 31.3628 22.7812 32.3471 22.8028ZM29.9778 34.9881H30.3162V35.4723C29.3337 35.7802 28.4277 36.2931 27.6581 36.9772C27.7312 36.4178 28.0085 35.9053 28.4367 35.5381C28.8649 35.1708 29.4138 34.975 29.9778 34.9881ZM27.9609 38.5663C27.8207 38.3194 27.724 38.0502 27.6753 37.7704C27.6783 37.7664 27.682 37.7645 27.7173 37.7679C28.5429 37.1834 29.4117 36.6624 30.3162 36.2094V37.2268C29.4527 37.5186 28.6532 37.9734 27.9609 38.5663ZM30.3162 38.1714V39.7268C29.9733 39.7662 29.6259 39.7337 29.2962 39.6311C28.9665 39.5286 28.6619 39.3585 28.4018 39.1315C29.0214 38.7751 29.6741 38.4811 30.3162 38.1714ZM56.0408 60.0356C56.1628 61.5527 32.3671 60.3455 31.6702 60.7126C31.3758 60.2496 32.4022 49.3874 30.9936 49.8811C29.5898 49.3491 30.6074 60.2995 30.3162 60.7126C29.7148 60.5722 27.5684 61.1543 27.6085 60.0357C27.6084 60.0357 27.6084 41.6015 27.6084 40.3052C28.0305 41.7888 54.4792 40.8293 55.3634 41.0809C56.8348 40.3261 55.706 59.752 56.0408 60.0356ZM46.6108 39.7268C47.2322 39.2101 47.9939 38.8911 48.7981 38.8108C48.4687 39.0964 48.1671 39.4102 47.8681 39.7268H46.6108ZM49.434 39.7268C49.7551 39.478 50.0591 39.2077 50.3437 38.9179C50.5589 38.9706 50.77 39.0388 50.9753 39.122C50.6162 39.225 50.2975 39.4362 50.0626 39.7268H49.434ZM51.2532 39.7268C51.3321 39.6052 51.4673 39.5016 51.4693 39.347C51.6755 39.4586 51.8731 39.5856 52.0603 39.7268H51.2532ZM63.4129 48.1956C63.5023 48.5746 57.6216 50.0969 57.3947 50.2468C56.8169 47.5806 59.4448 38.4499 54.017 39.7271C51.5863 36.7143 46.9695 36.6195 44.7491 39.7268H36.2533C39.0046 38.8909 55.9442 33.6817 58.2477 32.991C58.3326 32.9635 58.4221 32.9532 58.511 32.9609C58.5999 32.9686 58.6864 32.994 58.7653 33.0356C58.8442 33.0773 58.9139 33.1344 58.9703 33.2034C59.0268 33.2725 59.0688 33.3522 59.094 33.4378C59.0666 34.02 63.823 47.6025 63.4129 48.1956Z" fill="black"/>
<path d="M56.0408 60.0356C56.1628 61.5527 32.3671 60.3455 31.6702 60.7126C31.3758 60.2496 32.4022 49.3874 30.9936 49.8811C29.5898 49.3491 30.6074 60.2995 30.3162 60.7126C29.7148 60.5722 27.5684 61.1543 27.6085 60.0357L27.6084 40.3052C28.0305 41.7888 54.4792 40.8293 55.3634 41.0809C56.8348 40.3261 55.706 59.752 56.0408 60.0356Z" fill="#756DF3"/>
<path d="M63.4129 48.1956C63.5023 48.5746 57.6216 50.0969 57.3947 50.2468C56.8169 47.5806 59.4448 38.4499 54.017 39.7271C51.5863 36.7143 46.9695 36.6195 44.7491 39.7268H36.2533C39.0046 38.8909 55.9442 33.6817 58.2477 32.991C58.3326 32.9635 58.4221 32.9532 58.511 32.9609C58.5999 32.9686 58.6864 32.994 58.7653 33.0356C58.8442 33.0773 58.9139 33.1344 58.9703 33.2034C59.0268 33.2725 59.0688 33.3522 59.094 33.4378C59.0666 34.02 63.823 47.6025 63.4129 48.1956Z" fill="#FFCB7D"/>
<path d="M55.0389 32.5577L48.0323 34.7037C44.6137 31.8808 38.7715 33.1535 37.9931 37.7771C36.9479 38.1577 34.826 38.3903 34.5202 39.7268H33.7282C47.9915 24.5306 41.5659 21.1101 55.0389 32.5577Z" fill="#FFCB7D"/>
<path d="M32.3471 22.8028L47.2403 22.8027C48.2419 22.7759 47.8416 24.3787 47.9172 24.9555C45.2355 21.5341 42.4193 27.4419 40.8088 28.9701C35.7658 28.1507 31.2301 33.1332 33.7078 37.6215C33.532 37.7459 31.9776 40.0121 31.6702 39.7268C31.6702 39.7268 31.6821 24.8377 31.6702 24.8336C31.75 24.2598 31.3628 22.7812 32.3471 22.8028Z" fill="#FFCB7D"/>
<path d="M51.5038 48.4232C47.2425 49.048 48.6191 55.2754 52.6736 54.2552C55.0147 53.3913 55.5225 50.9638 54.0695 49.038C53.4543 48.4994 52.2315 47.7272 51.5038 48.4232ZM53.6511 51.8538C51.3275 55.0742 48.0625 50.5721 51.5509 49.2148C52.0559 49.62 52.8273 49.4882 53.3167 49.9567C53.6804 50.4701 54.1196 51.2785 53.6511 51.8538Z" fill="black"/>
<path d="M30.815 46.9629C30.634 46.9692 30.4625 47.0455 30.3367 47.1757C30.2109 47.3059 30.1406 47.4799 30.1406 47.661C30.1406 47.8421 30.2109 48.0161 30.3367 48.1463C30.4625 48.2765 30.634 48.3528 30.815 48.3591C30.9959 48.3528 31.1674 48.2765 31.2932 48.1463C31.419 48.0161 31.4893 47.8421 31.4893 47.661C31.4893 47.4799 31.419 47.3059 31.2932 47.1757C31.1674 47.0455 30.9959 46.9692 30.815 46.9629Z" fill="black"/>
<path d="M54.1674 55.7291C53.5146 56.6522 52.9338 57.9037 51.7939 58.2579C51.6513 58.2524 51.5099 58.2858 51.3849 58.3545C51.2598 58.4232 51.1558 58.5246 51.0839 58.6479C51.0172 58.7769 50.9893 58.9224 51.0037 59.0669C51.0181 59.2114 51.0741 59.3485 51.1649 59.4618C51.2558 59.5751 51.3776 59.6595 51.5155 59.7049C51.6534 59.7503 51.8015 59.7546 51.9419 59.7174C52.5469 59.4962 53.0962 59.1452 53.5513 58.6891C54.0063 58.233 54.356 57.6829 54.5758 57.0773C54.7142 56.6982 54.7812 56.2967 54.7735 55.8932C54.7716 55.8228 54.7471 55.7548 54.7035 55.6994C54.6599 55.6439 54.5996 55.6041 54.5316 55.5856C54.4635 55.5672 54.3913 55.5712 54.3257 55.597C54.2601 55.6229 54.2046 55.6692 54.1674 55.7291Z" fill="black"/>
<path d="M52.0311 58.1875C52.0053 58.188 51.9809 58.202 51.9848 58.2049C52.0008 58.2007 52.0163 58.1948 52.0311 58.1875Z" fill="black"/>
<path d="M49.1724 59.3385C49.3072 59.4143 49.4649 59.439 49.6164 59.4081C49.768 59.3773 49.9034 59.2929 49.9979 59.1704C50.0924 59.0479 50.1396 58.8955 50.131 58.7411C50.1224 58.5866 50.0585 58.4404 49.951 58.3292C49.8867 58.2628 49.8089 58.2109 49.7228 58.1772C49.6367 58.1435 49.5443 58.1287 49.452 58.1338C49.3597 58.139 49.2696 58.1639 49.1877 58.207C49.1059 58.2501 49.0344 58.3103 48.9779 58.3835C48.9214 58.4567 48.8813 58.5412 48.8604 58.6313C48.8395 58.7214 48.8383 58.8149 48.8567 58.9055C48.8752 58.9961 48.9129 59.0817 48.9674 59.1564C49.0218 59.2311 49.0918 59.2932 49.1724 59.3385Z" fill="black"/>
<path d="M32.9053 27.407C32.8131 27.4327 32.7335 27.491 32.6812 27.5711C32.6289 27.6512 32.6076 27.7476 32.6212 27.8423C32.7262 28.3915 33.7176 28.2005 34.1421 28.2377C34.6303 28.2497 35.1838 27.7897 34.6717 27.3925C34.095 27.2185 33.4791 27.2236 32.9053 27.407Z" fill="black"/>
<path d="M32.6761 24.4338C32.9672 24.6482 33.2783 24.834 33.6051 24.9886C33.1753 24.8197 32.5775 25.1455 33.029 25.5637C33.329 25.7896 33.7698 25.7339 34.0236 26.0401C34.1501 26.1628 34.2112 26.3626 34.0428 26.4771C33.7113 26.7474 33.1019 26.5417 33.0577 26.1848C33.0489 26.0777 33.0691 25.9703 33.1163 25.8737C33.1956 25.7455 33.0424 25.6172 32.9209 25.6784C32.8443 25.7256 32.7779 25.7876 32.7256 25.8608C32.6732 25.934 32.6361 26.017 32.6162 26.1047C32.5964 26.1925 32.5943 26.2833 32.61 26.372C32.6257 26.4606 32.659 26.5451 32.7079 26.6207C32.815 26.7758 32.9598 26.901 33.1288 26.9844C33.2978 27.0679 33.4853 27.1069 33.6735 27.0977C33.8618 27.0884 34.0446 27.0313 34.2046 26.9318C34.3646 26.8322 34.4966 26.6934 34.588 26.5286C34.6467 26.3797 34.6722 26.2198 34.6627 26.06C34.6533 25.9003 34.6092 25.7445 34.5334 25.6035C34.4576 25.4625 34.3521 25.3397 34.224 25.2437C34.096 25.1477 33.9486 25.0807 33.7921 25.0474C35.1752 25.3429 35.2668 23.3306 33.8628 23.2988C33.4908 23.1954 32.1636 23.8001 32.6936 24.2231C32.6734 24.2314 32.6558 24.2451 32.6428 24.2627C32.6299 24.2804 32.6221 24.3013 32.6203 24.3231C32.6184 24.3449 32.6227 24.3668 32.6326 24.3863C32.6424 24.4059 32.6575 24.4223 32.6761 24.4338ZM33.2352 24.2225C33.5563 24.1153 34.0008 23.9853 34.2094 24.3442C34.2406 24.3888 34.1992 24.4442 34.1648 24.4743C33.9159 24.6354 33.4817 24.3222 33.1535 24.2335C33.1686 24.23 33.2291 24.2238 33.2352 24.2225Z" fill="black"/>
<path d="M42.9456 30.0093C43.0929 30.5023 43.6079 30.7457 43.9741 31.0627C44.4415 31.3516 45.1093 31.2114 44.7192 30.5635C44.55 30.2502 42.9227 29.1584 42.9456 30.0093Z" fill="black"/>
<path d="M45.7843 27.5389L45.6779 27.4941C45.8032 27.5313 45.9196 27.5934 46.0202 27.6768C46.1208 27.7602 46.2035 27.863 46.2633 27.9792C46.2537 27.9617 46.3244 28.096 46.2648 28.1559C45.8291 28.3745 45.6729 27.6763 45.5034 27.4032C45.4751 27.3549 45.4317 27.3173 45.3799 27.2962C45.328 27.2751 45.2707 27.2717 45.2167 27.2864C44.8548 27.4377 45.0682 28.0488 45.2061 28.3081C44.9338 28.031 43.9668 27.9318 44.0246 28.4399C43.4682 28.9969 44.2672 29.8723 44.8107 30.0979C45.611 30.3523 45.9989 29.3529 45.6071 28.7639C45.7365 28.8576 45.8875 28.9171 46.046 28.9368C46.2046 28.9564 46.3655 28.9357 46.5139 28.8764C46.6623 28.8171 46.7932 28.7212 46.8945 28.5977C46.9959 28.4742 47.0643 28.327 47.0934 28.1699C47.1164 27.9631 47.0917 27.7538 47.021 27.5581C46.9504 27.3624 46.8358 27.1855 46.686 27.041C46.5362 26.8966 46.3552 26.7885 46.1571 26.725C45.9589 26.6615 45.7488 26.6443 45.543 26.6748C44.9055 26.8195 45.387 27.4056 45.7843 27.5389ZM45.0855 29.5203C44.943 29.5936 44.7841 29.4516 44.7417 29.4234C44.5133 29.241 44.3356 29.0029 44.2258 28.732C44.2494 28.7739 44.1899 28.6701 44.2238 28.632C44.5309 28.7806 44.9176 28.8733 45.0782 29.2098C45.1054 29.2811 45.1684 29.4587 45.0855 29.5203Z" fill="black"/>
<path d="M54.1713 35.3916C54.1163 35.7126 54.1611 36.0427 54.2995 36.3375C54.4532 36.678 54.4909 37.1401 54.8581 37.3232C54.9056 37.3492 54.9584 37.3643 55.0125 37.3674C55.0666 37.3705 55.1207 37.3615 55.1709 37.341C55.2211 37.3206 55.2662 37.2892 55.3028 37.2493C55.3393 37.2093 55.3666 37.1616 55.3825 37.1098C55.5173 36.7174 55.2144 36.3607 55.0847 36.0065C54.9595 35.7089 54.5004 34.8703 54.1713 35.3916Z" fill="black"/>
<path d="M57.6769 34.5367C57.8338 34.6245 58.3554 35.6347 57.7044 35.725C57.1957 35.6632 57.4582 35.0466 57.5533 34.7407C57.5673 34.6836 57.5605 34.6234 57.5341 34.5709C57.5077 34.5185 57.4635 34.4771 57.4094 34.4543C57.3552 34.4314 57.2948 34.4286 57.2387 34.4464C57.1827 34.4641 57.1349 34.5013 57.1038 34.5511C57.0427 34.6673 56.9883 34.785 56.9395 34.904C56.774 34.6143 56.2464 34.3085 56.0346 34.6992C55.6295 34.4609 55.3579 35.2535 55.3784 35.5733C55.2901 36.6866 56.9369 37.8741 57.291 36.3574C58.6069 36.9439 59.3001 35.2076 58.583 34.2397C58.2139 33.412 57.0357 33.6146 57.6769 34.5367ZM56.3442 36.1476C56.2032 36.0065 56.099 35.8328 56.0409 35.6419C55.9827 35.451 55.9724 35.2488 56.0108 35.0529C56.1441 35.4725 56.4852 35.7756 56.4697 36.2258C56.4263 36.2024 56.3844 36.1763 56.3442 36.1476Z" fill="black"/>
</svg>
