<svg width="256" height="282" viewBox="0 0 256 282" fill="none" xmlns="http://www.w3.org/2000/svg">
<path d="M225.65 102.737C245.196 139.301 255.839 185.602 255.839 233.891C255.839 317.551 223.327 392.865 174.366 422.871C174.753 424.262 175.14 425.852 175.14 427.442C175.14 435.788 168.366 442.743 160.238 442.743C157.335 442.743 154.433 441.948 152.11 440.358C152.304 441.153 152.304 442.147 152.304 442.942C152.304 456.653 141.466 467.781 128.113 467.781C114.76 467.781 103.923 456.653 103.923 442.942C103.923 442.147 103.923 441.153 104.116 440.358C101.794 441.948 98.8911 442.743 95.9882 442.743C87.8602 442.743 81.0868 435.987 81.0868 427.442C81.0868 425.852 81.2803 424.262 81.8609 422.871C32.7057 392.666 0 317.352 0 233.891C0 185.205 10.8374 138.506 30.7704 101.743C29.8028 101.147 29.2222 100.352 28.4481 99.5576C21.8683 92.0063 18.1913 81.673 17.2237 70.7435C16.8366 62.9935 17.8043 55.0448 20.5136 47.891C20.9007 46.6987 22.2553 43.3205 25.5452 42.923C29.0287 42.5256 31.1575 45.5063 33.0927 48.2884C33.8668 49.282 34.6409 50.2756 35.0279 50.8717C38.7049 54.4486 43.3495 57.4294 49.3488 60.2115C52.2516 61.6025 55.348 62.7948 58.2509 63.7884C65.6048 56.2371 73.3458 49.8781 81.4738 44.9102C81.0868 43.3205 80.6998 41.9294 80.6998 40.3397C80.6998 31.9935 87.4731 25.0384 95.6011 25.0384C98.504 25.0384 101.407 25.8333 103.729 27.423C103.729 26.6282 103.536 25.6346 103.536 24.8397C103.536 11.1282 114.373 0 127.726 0C141.079 0 151.917 11.1282 151.917 24.8397C151.917 25.6346 151.917 26.6282 151.723 27.423C154.046 25.8333 156.948 25.0384 159.851 25.0384C168.173 25.0384 174.753 31.9935 174.753 40.3397C174.753 41.9294 174.559 43.5192 173.979 44.9102C182.3 50.0769 190.428 56.6345 197.976 64.5832C201.072 63.5897 203.975 62.3974 207.071 61.0063C213.071 58.2243 217.715 55.2435 221.392 51.6666C221.973 51.0704 222.747 50.0769 223.327 49.0833C225.263 46.3012 227.391 43.3204 230.875 43.7179C234.165 44.1153 235.519 47.4935 235.906 48.6858C238.616 55.8397 239.583 63.7884 239.003 71.5384C238.229 82.2691 234.358 92.8011 227.778 100.352C227.585 100.949 226.811 101.942 225.65 102.737ZM236.487 233.891C236.487 136.916 187.719 58.2243 127.92 58.2243C67.9271 58.2243 19.3525 137.115 19.3525 233.891C19.3525 330.666 68.1207 409.557 127.92 409.557C187.912 409.557 236.487 330.666 236.487 233.891Z" fill="black" fill-opacity="0.05"/>
<path d="M180.902 238.263C183.805 235.282 186.515 231.308 188.837 226.737C184.579 225.545 179.935 217.397 178 206.667C177.806 205.872 177.613 205.077 177.613 204.083H178.193L186.515 203.09L179.161 198.718L177.032 197.526C177.032 194.147 177.225 190.372 178.58 187.192C176.451 187.59 174.129 188.385 172 189.776C170.839 191.365 169.872 193.154 169.097 194.545C168.323 195.936 167.549 197.128 166.969 198.321L166.195 199.712C163.679 204.083 160.969 208.853 157.679 213.224C156.712 214.615 155.551 215.808 154.583 217C151.874 229.917 155.164 241.244 162.518 244.423C167.936 246.609 174.323 244.224 180.128 238.859C180.128 238.859 180.515 238.461 180.902 238.263ZM206.448 178.25C207.222 179.244 207.028 180.833 205.867 181.43C204.899 182.224 203.351 182.026 202.577 180.833C199.868 176.859 194.256 174.872 189.03 175.865C184.192 176.859 180.322 179.84 177.419 182.622C180.515 182.026 183.612 182.423 186.515 183.417C192.32 185.801 196.384 191.564 197.739 199.712C199.094 207.462 197.933 216.404 194.643 224.949C193.869 226.737 193.095 228.526 192.32 230.115C195.03 227.731 197.546 225.147 199.674 222.365C200.448 221.372 201.997 221.173 202.964 221.968C203.932 222.763 204.125 224.353 203.351 225.346C197.933 232.301 191.159 237.865 183.805 242.038C178.58 247.205 172.581 250.186 166.969 250.186C164.84 250.186 162.905 249.788 161.163 248.993C152.841 245.417 148.584 235.083 149.551 222.365C147.81 223.756 146.068 224.949 144.326 225.942C143.359 226.538 142.198 226.936 141.423 226.936C140.456 226.936 139.488 226.538 138.714 225.744C137.553 224.353 137.746 222.564 137.746 221.968C138.134 217.795 139.295 213.82 141.23 210.045C141.81 208.853 143.165 208.455 144.326 209.051C145.487 209.647 145.875 211.038 145.294 212.231C143.746 215.212 142.778 218.59 142.391 221.769C146.649 219.186 150.713 215.41 154.583 210.442C157.679 206.269 160.389 201.897 162.711 197.526L163.485 196.135C164.259 194.744 165.033 193.551 165.614 192.359C166.582 190.769 167.549 188.782 168.904 186.795C170.065 185.205 171.226 183.417 172.581 181.827C175.871 177.853 181.483 172.885 188.643 171.295C195.417 169.904 202.771 172.686 206.448 178.25Z" fill="black" fill-opacity="0.05"/>
<path d="M149.41 149.634L128.509 165.333C128.316 165.531 128.122 165.531 127.929 165.531C127.542 165.531 127.155 165.333 126.961 165.134C126.574 164.538 126.767 163.942 127.154 163.544L147.862 147.846C148.442 147.448 149.023 147.647 149.41 148.044C150.184 148.442 149.99 149.237 149.41 149.634Z" fill="black" fill-opacity="0.05"/>
<path d="M133.311 84.2562C133.892 83.8588 134.472 84.0575 134.859 84.4549C135.246 85.0511 135.246 85.6472 134.666 86.0446L90.9293 120.622C90.7357 120.82 90.5422 120.82 90.1552 120.82C89.7681 120.82 89.5746 120.622 89.1875 120.423C88.8005 119.827 88.994 119.23 89.3811 118.833L133.311 84.2562Z" fill="black" fill-opacity="0.05"/>
<path d="M75.8305 146.455L157.111 83.0638C157.498 82.6664 158.272 82.8651 158.659 83.2625C159.046 83.8587 158.853 84.4548 158.465 84.8523L77.1851 148.243C76.9916 148.442 76.7981 148.442 76.6046 148.442C76.2175 148.442 75.8305 148.243 75.6369 148.044C75.2499 147.647 75.2499 146.852 75.8305 146.455Z" fill="black" fill-opacity="0.05"/>
<path d="M95.9608 246.41C103.315 243.429 106.605 231.904 103.895 218.987C103.702 218.788 103.508 218.59 103.315 218.391C104.669 229.122 102.541 238.064 98.2831 238.859C93.445 239.852 87.8328 230.711 85.704 218.788C85.5105 217.994 85.5105 217.199 85.317 216.404H85.8976L94.2191 215.41L86.8652 211.038L84.7364 209.846C84.7364 203.09 86.2846 197.923 88.994 196.135C88.2199 194.744 87.4458 193.353 86.4781 191.962C81.8336 189.179 77.3825 188.583 73.7055 190.173C69.448 191.961 66.3516 196.532 65.1904 202.891C64.0293 209.647 64.9969 217.795 68.0933 225.545C70.4156 231.506 73.7055 236.673 77.3825 240.449C77.3825 240.449 77.576 240.449 77.576 240.647C77.9631 240.846 78.3501 241.243 78.5436 241.442C83.9623 246.211 90.5422 248.596 95.9608 246.41ZM70.0286 173.083C77.3825 174.474 82.8012 179.641 86.0911 183.615C87.4458 185.205 88.6069 186.994 89.7681 188.583C89.7681 188.583 89.7681 188.583 89.7681 188.782C91.1227 190.769 92.0904 192.558 93.058 194.346C93.8321 195.538 94.4127 196.731 95.1868 198.122L96.1544 199.711C98.6702 204.083 101.186 208.455 104.282 212.628C108.153 217.596 112.023 221.372 116.474 223.955C116.087 220.577 115.12 217.397 113.572 214.417C112.991 213.224 113.378 211.833 114.539 211.237C115.7 210.641 117.055 211.038 117.636 212.231C119.571 216.006 120.732 219.981 120.926 224.352C120.926 224.949 121.119 226.737 119.958 228.128C119.184 228.923 118.216 229.32 117.249 229.32C116.281 229.32 115.313 228.923 114.346 228.526C112.604 227.532 110.862 226.34 109.121 224.949C110.282 237.468 105.831 248 97.509 251.577C95.5738 252.372 93.6386 252.769 91.7033 252.769C86.0911 252.769 80.0918 249.788 74.6731 244.82C67.1257 240.647 60.3523 234.885 55.1272 228.128C54.3531 227.135 54.5466 225.545 55.5142 224.75C56.4818 223.955 58.03 224.154 58.8041 225.147C60.9329 227.929 63.4487 230.513 66.1581 232.897C65.384 231.308 64.4163 229.519 63.8358 227.731C60.5459 219.186 59.3847 210.244 60.7394 202.494C62.0941 194.346 66.1581 188.583 71.9638 186.199C74.6732 185.006 77.7695 184.808 81.0595 185.404C78.1566 182.423 74.2861 179.442 69.448 178.647C64.0293 177.654 58.4171 179.641 55.9013 183.615C55.1272 184.609 53.7725 185.006 52.8049 184.212C51.8372 183.417 51.4502 182.026 52.2243 181.032C55.5142 174.276 62.8682 171.692 70.0286 173.083Z" fill="black" fill-opacity="0.05"/>
</svg>
