<svg width="303" height="416" viewBox="0 0 303 416" fill="none" xmlns="http://www.w3.org/2000/svg">
<path d="M126.42 206.009C124.761 212.145 121.107 216.832 114.726 217.821C99.0197 220.268 84.9823 216.432 73.646 204.865C70.4032 201.582 67.3682 197.636 67.9533 192.711C68.3677 189.374 69.7147 186.138 70.923 182.579C71.1037 182.073 71.2563 181.559 71.4267 181.035C86.9823 196.716 105.7 202.106 126.419 203.55C126.425 204.256 126.638 205.198 126.42 206.009Z" fill="#D3E5E4"/>
<path d="M137.762 177.824C141.216 188.148 134.839 198.522 124.243 198.066C107.228 197.344 91.5614 192.202 78.5967 180.558C67.1748 170.318 70.3308 158.092 80.3317 149.244C81.159 148.506 82.0524 147.801 82.9888 147.048C95.5709 167.448 114.063 176.87 137.762 177.824Z" fill="#D3E5E4"/>
<path d="M114.512 131.073C114.36 131.587 114.225 132.091 114.1 132.612C114.913 132.545 115.803 132.244 116.55 132.474C120.793 133.761 125.161 134.856 129.205 136.659C132.862 138.284 135.34 140.896 136.353 145.395C137.916 152.485 142.241 158.051 149.031 161.129C148.107 167.432 142.279 172.736 135.727 173.019C127.263 173.39 119.368 170.855 111.794 167.401C102.512 163.16 94.9647 156.641 89.8714 147.901C87.5397 143.903 86.362 138.956 85.7063 134.298C84.7408 127.383 88.6919 122.596 94.3688 119.2C95.2097 118.691 96.6266 118.606 97.5729 118.934C110.134 123.245 122.665 127.667 135.476 132.164C135.396 132.967 135.277 134.194 135.099 135.81C128.657 131.656 122.057 128.988 114.512 131.073Z" fill="#D3E5E4"/>
<path d="M162.88 107.758C151.318 112.305 140.223 116.227 136.256 128.851C116.634 120.46 96.1604 114.404 78.3057 102.605C70.8163 97.6599 64.0676 91.9091 58.813 84.61C57.3129 82.5441 56.164 80.0626 55.4926 77.5892C52.0947 65.1512 62.323 54.8952 74.7544 58.571C79.4797 59.957 83.9966 62.4565 88.1841 65.1225C98.5993 71.7358 108.939 78.4637 118.965 85.6324C131.608 94.6715 145.573 100.962 159.928 106.577C160.595 106.831 161.254 107.112 162.88 107.758Z" fill="#D3E5E4"/>
<path d="M330.174 319.997C331.064 321.824 329.055 328.706 326.48 329.98C322.516 331.961 318.359 333.935 314.055 334.67C308.007 335.703 305.1 333.575 302.426 328.001C285.249 292.189 258.903 264.863 224.807 244.919C212.133 237.505 198.199 234.626 183.445 233.686C174.53 233.111 165.963 234.203 157.261 234.735C144.136 235.55 133.005 231.383 123.59 222.325C123.093 221.832 122.663 221.252 122.112 220.625C127.23 216.015 131.342 211.016 130.499 203.699C130.434 203.217 130.358 202.717 130.254 202.21C135.182 200.097 139.296 196.942 141.637 191.783C143.928 186.701 143.771 181.637 141.866 176.329C147.539 173.338 151.592 169.177 151.12 162.994C155.795 162.778 160.409 163.07 164.83 162.291C171.974 161.027 175.031 155.101 177.544 149.133C178.708 146.357 180.335 145.039 183.258 144.818C186.208 144.604 189.119 144.035 192.048 143.621C192.072 143.252 192.085 142.866 192.109 142.498C188.521 142.016 184.932 141.534 180.919 141.013C182.603 135.903 184.405 130.465 186.19 125.037C185.887 124.881 185.584 124.725 185.271 124.551C183.85 126.718 182.231 128.788 181.002 131.082C177.662 137.337 174.607 143.759 171.211 150C165.923 159.721 151.799 160.238 145.203 151.23C137.887 141.22 138.153 123.948 154.348 117.269C158.511 115.552 162.568 113.611 166.744 111.956C171.232 110.146 176.007 109.612 180.598 111.052C199.822 117.072 213.067 129.57 219.892 148.518C222.58 155.999 221.205 163.815 220.299 171.502C219.878 175.032 219.394 178.575 218.657 182.05C216.805 190.923 219.879 197.968 226.771 203.352C233.701 208.762 240.919 213.769 247.864 219.122C267.552 234.261 286.095 250.653 302.381 269.482C311.608 280.139 318.427 292.115 323.276 305.347C324.904 309.845 327.214 314.092 329.362 318.385C329.651 318.927 329.913 319.462 330.174 319.997Z" fill="#D3E5E4"/>
<path d="M115.838 223.185C97.652 225.882 81.6845 221.528 69.0432 207.783C61.7514 199.863 58.6122 190.207 69.0546 179.544L70.9248 182.579C69.7164 186.137 68.3694 189.374 67.955 192.711C67.3699 197.636 70.4049 201.582 73.6477 204.864C84.984 216.431 99.0214 220.268 114.727 217.82C121.108 216.832 124.763 212.145 126.422 206.009C126.639 205.197 126.427 204.256 126.421 203.55L130.503 203.699C131.346 211.016 127.234 216.015 122.116 220.625C122.667 221.252 123.097 221.832 123.594 222.325C133.009 231.383 144.14 235.55 157.265 234.735C165.967 234.203 174.534 233.111 183.449 233.686C198.203 234.626 212.137 237.505 224.811 244.919C258.907 264.863 285.253 292.189 302.43 328.002C305.104 333.575 308.011 335.703 314.059 334.67C318.364 333.935 322.52 331.961 326.484 329.98C329.059 328.706 331.068 321.824 330.178 319.997C329.917 319.462 329.655 318.927 329.366 318.385L331.93 317.093C332.268 317.679 332.895 318.191 333.208 318.815C333.759 319.892 334.488 321.031 334.574 322.164C334.902 326.704 333.561 330.812 329.942 333.634C323.773 338.472 316.764 340.912 308.834 339.626C303.877 338.823 300.307 336.202 298.079 331.483C281.431 296.382 255.659 269.599 222.584 249.704C210.352 242.319 196.838 239.102 182.584 237.921C176.71 237.412 171.375 238.246 165.74 239.134C147.706 241.932 131.62 238.191 118.986 223.968C118.386 223.298 116.856 223.023 115.838 223.185Z" fill="black"/>
<path d="M137.764 177.824C114.065 176.87 95.5733 167.448 82.9912 147.048C82.0548 147.801 81.1614 148.506 80.3341 149.244C70.3332 158.092 67.1772 170.317 78.5991 180.558C91.5638 192.202 107.23 197.344 124.246 198.066C134.842 198.522 141.219 188.148 137.764 177.824ZM136.256 128.851C140.223 116.227 151.318 112.305 162.879 107.758C161.253 107.112 160.594 106.83 159.928 106.577C145.573 100.962 131.608 94.6715 118.965 85.6324C108.938 78.4637 98.5989 71.7358 88.1838 65.1225C83.9963 62.4565 79.4793 59.957 74.754 58.5709C62.3226 54.8951 52.0943 65.1511 55.4922 77.5892C56.1636 80.0626 57.3125 82.544 58.8127 84.6099C64.0672 91.9091 70.816 97.6599 78.3053 102.605C96.1601 114.404 116.633 120.46 136.256 128.851ZM165.62 103.29C168.984 104.611 172.321 105.026 175.91 105.058C183.464 105.118 190.112 108.279 196.385 112.223C208.98 120.155 218.297 130.926 223.576 144.903C224.766 148.07 225.493 151.622 225.457 155.001C225.372 163.207 225.582 171.598 224.053 179.598C222.132 189.787 225.766 196.532 233.784 202.023C253.225 215.342 271.55 230.086 288.456 246.548C299.106 256.927 309.357 267.678 317.363 280.317C324.428 291.489 328.833 303.747 331.722 316.574C331.751 316.746 331.826 316.916 331.928 317.093L329.363 318.385C327.216 314.092 324.906 309.845 323.278 305.347C318.429 292.115 311.609 280.139 302.383 269.482C286.097 250.653 267.553 234.261 247.865 219.122C240.92 213.769 233.702 208.762 226.772 203.352C219.88 197.968 216.806 190.923 218.659 182.05C219.395 178.575 219.88 175.032 220.301 171.502C221.206 163.815 222.581 155.999 219.894 148.518C213.068 129.57 199.823 117.072 180.6 111.052C176.009 109.612 171.234 110.146 166.746 111.957C162.57 113.611 158.512 115.552 154.349 117.269C138.154 123.948 137.888 141.22 145.205 151.231C151.8 160.238 165.925 159.721 171.213 150C174.609 143.759 177.664 137.338 181.004 131.082C182.233 128.788 183.852 126.719 185.272 124.551C185.585 124.725 185.888 124.881 186.191 125.037C184.407 130.465 182.605 135.903 180.921 141.014C184.934 141.534 188.522 142.016 192.111 142.498C192.087 142.866 192.074 143.252 192.05 143.621C189.121 144.035 186.21 144.604 183.259 144.818C180.337 145.039 178.71 146.357 177.546 149.133C175.033 155.101 171.976 161.027 164.831 162.291C160.41 163.07 155.797 162.778 151.122 162.994C151.594 169.177 147.541 173.338 141.867 176.33C143.773 181.637 143.93 186.701 141.639 191.783C139.297 196.942 135.184 200.097 130.256 202.21C130.359 202.717 130.435 203.217 130.501 203.699L126.419 203.55C105.699 202.106 86.9816 196.715 71.426 181.035C71.2556 181.559 71.1029 182.072 70.9223 182.579L69.0521 179.544C69.3201 179.271 69.5984 179.016 69.8664 178.743C61.0181 165.219 69.8531 147.799 82.3396 144.444C79.0764 133.182 79.8338 123.026 91.4787 116.043C87.8808 114.03 84.6344 112.216 81.3804 110.429C71.3463 104.967 62.6031 97.9327 55.3581 89.1108C51.0525 83.8647 49.0544 77.7829 49.2481 71.0742C49.5721 60.5778 61.0751 51.3829 72.1468 52.5807C78.0371 53.1996 83.2321 55.6859 88.0821 58.8443C100.082 66.6468 112.126 74.4009 123.874 82.5855C136.781 91.5904 151.077 97.5946 165.62 103.29ZM114.509 131.073C122.053 128.988 128.654 131.656 135.096 135.81C135.274 134.194 135.393 132.967 135.473 132.164C122.662 127.667 110.131 123.245 97.5696 118.934C96.6233 118.606 95.2064 118.691 94.3654 119.2C88.6886 122.596 84.7375 127.383 85.7029 134.298C86.3587 138.956 87.5363 143.903 89.868 147.901C94.9613 156.641 102.508 163.16 111.79 167.401C119.365 170.855 127.26 173.39 135.724 173.019C142.275 172.736 148.104 167.432 149.028 161.129C142.238 158.051 137.913 152.485 136.35 145.395C135.337 140.896 132.859 138.284 129.202 136.659C125.158 134.856 120.789 133.761 116.547 132.474C115.799 132.244 114.909 132.545 114.097 132.612C114.221 132.091 114.356 131.587 114.509 131.073Z" fill="black"/>
</svg>
